<?xml version="1.0" encoding="utf-8" standalone="no"?>
<!DOCTYPE svg PUBLIC "-//W3C//DTD SVG 1.1//EN"
  "http://www.w3.org/Graphics/SVG/1.1/DTD/svg11.dtd">
<svg xmlns:xlink="http://www.w3.org/1999/xlink" width="512.39952pt" height="224.39952pt" viewBox="0 0 512.39952 224.39952" xmlns="http://www.w3.org/2000/svg" version="1.1">
 <metadata>
  <rdf:RDF xmlns:dc="http://purl.org/dc/elements/1.1/" xmlns:cc="http://creativecommons.org/ns#" xmlns:rdf="http://www.w3.org/1999/02/22-rdf-syntax-ns#">
   <cc:Work>
    <dc:type rdf:resource="http://purl.org/dc/dcmitype/StillImage"/>
    <dc:date>2023-01-30T12:46:53.828281</dc:date>
    <dc:format>image/svg+xml</dc:format>
    <dc:creator>
     <cc:Agent>
      <dc:title>Matplotlib v3.5.1, https://matplotlib.org/</dc:title>
     </cc:Agent>
    </dc:creator>
   </cc:Work>
  </rdf:RDF>
 </metadata>
 <defs>
  <style type="text/css">*{stroke-linejoin: round; stroke-linecap: butt}</style>
 </defs>
 <g id="figure_1">
  <g id="patch_1">
   <path d="M 0 224.39952 
L 512.39952 224.39952 
L 512.39952 0 
L 0 0 
z
" style="fill: #ffffff"/>
  </g>
  <g id="axes_1">
   <g id="patch_2">
    <path d="M 61.707813 186.84327 
L 414.888583 186.84327 
L 414.888583 22.318125 
L 61.707813 22.318125 
z
" style="fill: #ffffff"/>
   </g>
   <g id="PolyCollection_1">
    <path d="M 61.707813 48.243496 
L 61.707813 50.74605 
L 62.408568 50.50184 
L 63.109323 50.452843 
L 63.810079 50.816228 
L 64.510834 50.808805 
L 65.21159 50.858949 
L 65.912345 50.83438 
L 66.613101 50.800834 
L 67.313856 50.819247 
L 68.014612 50.707194 
L 68.715367 50.600343 
L 69.416123 50.493363 
L 70.116878 50.276409 
L 70.817634 50.104809 
L 71.518389 49.884256 
L 72.219145 49.685505 
L 72.9199 49.475737 
L 73.620656 49.279219 
L 74.321411 49.079838 
L 75.022167 48.879484 
L 75.722922 48.67741 
L 76.423678 48.469191 
L 77.124433 48.261836 
L 77.825189 48.04162 
L 78.525944 47.812903 
L 79.2267 47.563362 
L 79.927455 47.304099 
L 80.628211 47.03888 
L 81.328966 46.764443 
L 82.029722 46.485378 
L 82.730477 46.235028 
L 83.431233 45.978757 
L 84.131988 45.734452 
L 84.832744 45.495591 
L 85.533499 45.261384 
L 86.234255 45.033826 
L 86.93501 44.81103 
L 87.635766 44.581517 
L 88.336521 44.350204 
L 89.037277 44.124389 
L 89.738032 43.901842 
L 90.438788 43.699424 
L 91.139543 43.54059 
L 91.840299 43.39032 
L 92.541054 43.238741 
L 93.24181 43.114866 
L 93.942565 43.024753 
L 94.643321 42.942662 
L 95.344076 42.870742 
L 96.044832 42.80344 
L 96.745587 42.74362 
L 97.446343 42.690243 
L 98.147098 42.637093 
L 98.847854 42.57529 
L 99.548609 42.525513 
L 100.249365 42.474514 
L 100.95012 42.441971 
L 101.650876 42.448967 
L 102.351631 42.458834 
L 103.052387 42.471752 
L 103.753142 42.490053 
L 104.453898 42.502605 
L 105.154653 42.501887 
L 105.855409 42.506475 
L 106.556164 42.491749 
L 107.25692 42.478143 
L 107.957675 42.436246 
L 108.658431 42.399208 
L 109.359186 42.376483 
L 110.059942 42.364531 
L 110.760697 42.35468 
L 111.461453 42.341703 
L 112.162208 42.328518 
L 112.862964 42.309007 
L 113.563719 42.284236 
L 114.264475 42.259373 
L 114.96523 42.226 
L 115.665986 42.18073 
L 116.366741 42.133953 
L 117.067497 42.097671 
L 117.768252 42.077492 
L 118.469008 42.06121 
L 119.169763 42.046174 
L 119.870519 42.036511 
L 120.571274 42.023991 
L 121.27203 42.005231 
L 121.972785 41.992147 
L 122.673541 41.981976 
L 123.374296 41.975381 
L 124.075052 41.957181 
L 124.775807 41.94966 
L 125.476563 41.972737 
L 126.177318 42.014675 
L 126.878074 42.081841 
L 127.578829 42.179949 
L 128.279585 42.277538 
L 128.98034 42.376863 
L 129.681096 42.487309 
L 130.381851 42.603756 
L 131.082607 42.72611 
L 131.783362 42.842386 
L 132.484118 42.966267 
L 133.184873 43.118653 
L 133.885629 43.284348 
L 134.586384 43.472352 
L 135.28714 43.68137 
L 135.987895 43.916194 
L 136.688651 44.163126 
L 137.389406 44.417555 
L 138.090162 44.680698 
L 138.790917 44.944634 
L 139.491673 45.20203 
L 140.192428 45.462894 
L 140.893184 45.708108 
L 141.593939 45.937052 
L 142.294695 46.166455 
L 142.99545 46.401973 
L 143.696206 46.638692 
L 144.396961 46.867797 
L 145.097717 47.083344 
L 145.798472 47.29043 
L 146.499228 47.483042 
L 147.199983 47.660607 
L 147.900739 47.828645 
L 148.601494 47.974195 
L 149.30225 48.105674 
L 150.003005 48.227532 
L 150.70376 48.358277 
L 151.404516 48.485099 
L 152.105271 48.614276 
L 152.806027 48.722335 
L 153.506782 48.807919 
L 154.207538 48.87262 
L 154.908293 48.912389 
L 155.609049 48.922537 
L 156.309804 48.903359 
L 157.01056 48.858449 
L 157.711315 48.796966 
L 158.412071 48.719147 
L 159.112826 48.659343 
L 159.813582 48.611172 
L 160.514337 48.574601 
L 161.215093 48.53231 
L 161.915848 48.496135 
L 162.616604 48.457531 
L 163.317359 48.413446 
L 164.018115 48.360819 
L 164.71887 48.302584 
L 165.419626 48.241215 
L 166.120381 48.151217 
L 166.821137 48.053355 
L 167.521892 47.960868 
L 168.222648 47.874811 
L 168.923403 47.792058 
L 169.624159 47.708225 
L 170.324914 47.621877 
L 171.02567 47.538394 
L 171.726425 47.458691 
L 172.427181 47.374639 
L 173.127936 47.283781 
L 173.828692 47.21454 
L 174.529447 47.134667 
L 175.230203 47.060594 
L 175.930958 46.997371 
L 176.631714 46.964703 
L 177.332469 46.941184 
L 178.033225 46.923349 
L 178.73398 46.92532 
L 179.434736 46.925156 
L 180.135491 46.927529 
L 180.836247 46.940209 
L 181.537002 46.957655 
L 182.237758 46.962011 
L 182.938513 46.970165 
L 183.639269 46.993193 
L 184.340024 47.05448 
L 185.04078 47.14234 
L 185.741535 47.259639 
L 186.442291 47.397893 
L 187.143046 47.546043 
L 187.843802 47.709141 
L 188.544557 47.876413 
L 189.245313 48.032383 
L 189.946068 48.1852 
L 190.646824 48.320996 
L 191.347579 48.457298 
L 192.048335 48.584725 
L 192.74909 48.718538 
L 193.449846 48.858939 
L 194.150601 49.00812 
L 194.851357 49.150986 
L 195.552112 49.27432 
L 196.252868 49.386604 
L 196.953623 49.48369 
L 197.654379 49.560344 
L 198.355134 49.613705 
L 199.05589 49.651615 
L 199.756645 49.667628 
L 200.457401 49.674631 
L 201.158156 49.678605 
L 201.858912 49.684076 
L 202.559667 49.691249 
L 203.260423 49.690267 
L 203.961178 49.682377 
L 204.661934 49.673452 
L 205.362689 49.666405 
L 206.063445 49.661432 
L 206.7642 49.670183 
L 207.464956 49.68067 
L 208.165711 49.685833 
L 208.866467 49.708424 
L 209.567222 49.758043 
L 210.267978 49.833998 
L 210.968733 49.930087 
L 211.669489 50.055962 
L 212.370244 50.197671 
L 213.071 50.349308 
L 213.771755 50.504572 
L 214.472511 50.660172 
L 215.173266 50.813453 
L 215.874022 50.956014 
L 216.574777 51.097541 
L 217.275533 51.241139 
L 217.976288 51.400741 
L 218.677044 51.574654 
L 219.377799 51.763792 
L 220.078555 51.958158 
L 220.77931 52.1544 
L 221.480066 52.354081 
L 222.180821 52.548381 
L 222.881577 52.736974 
L 223.582332 52.919256 
L 224.283088 53.092657 
L 224.983843 53.267528 
L 225.684599 53.432558 
L 226.385354 53.595177 
L 227.08611 53.773586 
L 227.786865 53.949064 
L 228.487621 54.123517 
L 229.188376 54.305482 
L 229.889132 54.483981 
L 230.589887 54.655009 
L 231.290643 54.819717 
L 231.991398 54.977018 
L 232.692154 55.119912 
L 233.392909 55.267428 
L 234.093665 55.407557 
L 234.79442 55.557618 
L 235.495176 55.728969 
L 236.195931 55.913726 
L 236.896687 56.124288 
L 237.597442 56.330934 
L 238.298197 56.526581 
L 238.998953 56.710818 
L 239.699708 56.882807 
L 240.400464 57.045252 
L 241.101219 57.183538 
L 241.801975 57.316429 
L 242.50273 57.434189 
L 243.203486 57.536192 
L 243.904241 57.62439 
L 244.604997 57.705137 
L 245.305752 57.757042 
L 246.006508 57.785091 
L 246.707263 57.783859 
L 247.408019 57.761225 
L 248.108774 57.718915 
L 248.80953 57.655901 
L 249.510285 57.573814 
L 250.211041 57.475644 
L 250.911796 57.361338 
L 251.612552 57.242921 
L 252.313307 57.126097 
L 253.014063 57.009839 
L 253.714818 56.893524 
L 254.415574 56.781595 
L 255.116329 56.678983 
L 255.817085 56.576766 
L 256.51784 56.470854 
L 257.218596 56.359351 
L 257.919351 56.241615 
L 258.620107 56.119439 
L 259.320862 56.007826 
L 260.021618 55.923486 
L 260.722373 55.869577 
L 261.423129 55.837943 
L 262.123884 55.824916 
L 262.82464 55.827276 
L 263.525395 55.844615 
L 264.226151 55.87062 
L 264.926906 55.903631 
L 265.627662 55.938051 
L 266.328417 55.983504 
L 267.029173 56.032467 
L 267.729928 56.090348 
L 268.430684 56.16711 
L 269.131439 56.263517 
L 269.832195 56.371795 
L 270.53295 56.479636 
L 271.233706 56.581573 
L 271.934461 56.67933 
L 272.635217 56.769749 
L 273.335972 56.855907 
L 274.036728 56.929486 
L 274.737483 56.986208 
L 275.438239 57.024934 
L 276.138994 57.055379 
L 276.83975 57.084287 
L 277.540505 57.119164 
L 278.241261 57.156256 
L 278.942016 57.181326 
L 279.642772 57.200042 
L 280.343527 57.207871 
L 281.044283 57.204649 
L 281.745038 57.196336 
L 282.445794 57.179949 
L 283.146549 57.151294 
L 283.847305 57.111745 
L 284.54806 57.074593 
L 285.248816 57.048739 
L 285.949571 57.04015 
L 286.650327 57.057035 
L 287.351082 57.086075 
L 288.051838 57.110748 
L 288.752593 57.134375 
L 289.453349 57.157578 
L 290.154104 57.179799 
L 290.85486 57.200523 
L 291.555615 57.22388 
L 292.256371 57.246529 
L 292.957126 57.270598 
L 293.657882 57.318588 
L 294.358637 57.387038 
L 295.059393 57.480608 
L 295.760148 57.599473 
L 296.460904 57.734131 
L 297.161659 57.8779 
L 297.862415 58.033815 
L 298.56317 58.19798 
L 299.263926 58.368855 
L 299.964681 58.538726 
L 300.665437 58.705977 
L 301.366192 58.867203 
L 302.066948 59.034511 
L 302.767703 59.207179 
L 303.468459 59.38386 
L 304.169214 59.555709 
L 304.86997 59.715372 
L 305.570725 59.858484 
L 306.271481 59.968197 
L 306.972236 60.045512 
L 307.672992 60.08742 
L 308.373747 60.099053 
L 309.074503 60.076847 
L 309.775258 60.022535 
L 310.476014 59.961438 
L 311.176769 59.898227 
L 311.877525 59.829551 
L 312.57828 59.743044 
L 313.279036 59.654821 
L 313.979791 59.556973 
L 314.680547 59.44843 
L 315.381302 59.341292 
L 316.082058 59.226609 
L 316.782813 59.093518 
L 317.483569 58.957757 
L 318.184324 58.826094 
L 318.88508 58.703856 
L 319.585835 58.586706 
L 320.286591 58.477505 
L 320.987346 58.374531 
L 321.688102 58.274438 
L 322.388857 58.180819 
L 323.089613 58.096453 
L 323.790368 58.013167 
L 324.491124 57.923335 
L 325.191879 57.831296 
L 325.892635 57.746411 
L 326.59339 57.674257 
L 327.294145 57.617557 
L 327.994901 57.58088 
L 328.695656 57.555614 
L 329.396412 57.543338 
L 330.097167 57.539163 
L 330.797923 57.530608 
L 331.498678 57.510401 
L 332.199434 57.470437 
L 332.900189 57.41051 
L 333.600945 57.328708 
L 334.3017 57.232251 
L 335.002456 57.128257 
L 335.703211 57.041333 
L 336.403967 56.967111 
L 337.104722 56.891735 
L 337.805478 56.828245 
L 338.506233 56.774444 
L 339.206989 56.732215 
L 339.907744 56.699542 
L 340.6085 56.673675 
L 341.309255 56.655131 
L 342.010011 56.63569 
L 342.710766 56.622428 
L 343.411522 56.618114 
L 344.112277 56.623626 
L 344.813033 56.647317 
L 345.513788 56.689282 
L 346.214544 56.742477 
L 346.915299 56.806482 
L 347.616055 56.879758 
L 348.31681 56.961904 
L 349.017566 57.046195 
L 349.718321 57.131204 
L 350.419077 57.216896 
L 351.119832 57.30966 
L 351.820588 57.420809 
L 352.521343 57.552781 
L 353.222099 57.707453 
L 353.922854 57.891593 
L 354.62361 58.083785 
L 355.324365 58.284025 
L 356.025121 58.489403 
L 356.725876 58.691985 
L 357.426632 58.889102 
L 358.127387 59.074013 
L 358.828143 59.251541 
L 359.528898 59.422191 
L 360.229654 59.589743 
L 360.930409 59.764944 
L 361.631165 59.9532 
L 362.33192 60.152611 
L 363.032676 60.359641 
L 363.733431 60.565206 
L 364.434187 60.765377 
L 365.134942 60.955666 
L 365.835698 61.133625 
L 366.536453 61.297233 
L 367.237209 61.43726 
L 367.937964 61.561584 
L 368.63872 61.66177 
L 369.339475 61.758879 
L 370.040231 61.860283 
L 370.740986 61.958025 
L 371.441742 62.043652 
L 372.142497 62.119318 
L 372.843253 62.183053 
L 373.544008 62.230353 
L 374.244764 62.264853 
L 374.945519 62.284205 
L 375.646275 62.286848 
L 376.34703 62.290935 
L 377.047786 62.291453 
L 377.748541 62.298832 
L 378.449297 62.320681 
L 379.150052 62.35432 
L 379.850808 62.393791 
L 380.551563 62.432476 
L 381.252319 62.466281 
L 381.953074 62.497691 
L 382.65383 62.525692 
L 383.354585 62.54796 
L 384.055341 62.553793 
L 384.756096 62.562903 
L 385.456852 62.568613 
L 386.157607 62.586592 
L 386.858363 62.62657 
L 387.559118 62.681461 
L 388.259874 62.746042 
L 388.960629 62.823199 
L 389.661385 62.901504 
L 390.36214 62.977319 
L 391.062896 63.051682 
L 391.763651 63.124489 
L 392.464407 63.187899 
L 393.165162 63.245058 
L 393.865918 63.306285 
L 394.566673 63.383782 
L 395.267429 63.479336 
L 395.968184 63.591858 
L 396.66894 63.721728 
L 397.369695 63.852504 
L 398.070451 63.982848 
L 398.771206 64.110504 
L 399.471962 64.234776 
L 400.172717 64.351846 
L 400.873473 64.451513 
L 401.574228 64.540297 
L 402.274984 64.628493 
L 402.975739 64.722839 
L 403.676495 64.823981 
L 404.37725 64.924538 
L 405.078006 65.022122 
L 405.778761 65.114491 
L 406.479517 65.198987 
L 407.180272 65.275473 
L 407.881028 65.341216 
L 408.581783 65.394706 
L 409.282539 65.428254 
L 409.983294 65.444618 
L 410.68405 65.457072 
L 411.384805 65.473346 
L 412.085561 65.481033 
L 412.786316 65.488882 
L 413.487072 65.498695 
L 414.187827 65.503257 
L 414.888582 65.508089 
L 415.589338 65.512025 
L 416.290093 65.516158 
L 416.990849 65.525555 
L 417.691604 65.534713 
L 418.39236 65.540949 
L 419.093115 65.548328 
L 419.793871 65.560297 
L 420.494626 65.573222 
L 421.195382 65.582825 
L 421.896137 65.611098 
L 422.596893 65.62314 
L 423.297648 65.636769 
L 423.297648 43.579606 
L 423.297648 43.579606 
L 422.596893 43.596245 
L 421.896137 43.611295 
L 421.195382 43.642578 
L 420.494626 43.655191 
L 419.793871 43.671125 
L 419.093115 43.686103 
L 418.39236 43.696491 
L 417.691604 43.705736 
L 416.990849 43.717904 
L 416.290093 43.730311 
L 415.589338 43.737453 
L 414.888582 43.744398 
L 414.187827 43.752239 
L 413.487072 43.759811 
L 412.786316 43.772633 
L 412.085561 43.783491 
L 411.384805 43.794188 
L 410.68405 43.813471 
L 409.983294 43.828934 
L 409.282539 43.848307 
L 408.581783 43.841698 
L 407.881028 43.814702 
L 407.180272 43.766752 
L 406.479517 43.700212 
L 405.778761 43.620897 
L 405.078006 43.537329 
L 404.37725 43.452421 
L 403.676495 43.368632 
L 402.975739 43.296626 
L 402.274984 43.234256 
L 401.574228 43.17243 
L 400.873473 43.099733 
L 400.172717 43.016692 
L 399.471962 42.92333 
L 398.771206 42.815736 
L 398.070451 42.696186 
L 397.369695 42.574285 
L 396.66894 42.455031 
L 395.968184 42.347211 
L 395.267429 42.250423 
L 394.566673 42.171239 
L 393.865918 42.114623 
L 393.165162 42.072717 
L 392.464407 42.036674 
L 391.763651 41.998516 
L 391.062896 41.956576 
L 390.36214 41.900273 
L 389.661385 41.832056 
L 388.960629 41.764048 
L 388.259874 41.704377 
L 387.559118 41.653519 
L 386.858363 41.622244 
L 386.157607 41.609128 
L 385.456852 41.608612 
L 384.756096 41.621595 
L 384.055341 41.642742 
L 383.354585 41.652242 
L 382.65383 41.657841 
L 381.953074 41.646815 
L 381.252319 41.623839 
L 380.551563 41.597316 
L 379.850808 41.573452 
L 379.150052 41.554307 
L 378.449297 41.54361 
L 377.748541 41.544615 
L 377.047786 41.562493 
L 376.34703 41.59472 
L 375.646275 41.629462 
L 374.945519 41.645182 
L 374.244764 41.647029 
L 373.544008 41.628103 
L 372.843253 41.589398 
L 372.142497 41.54152 
L 371.441742 41.477281 
L 370.740986 41.403033 
L 370.040231 41.333789 
L 369.339475 41.264347 
L 368.63872 41.191064 
L 367.937964 41.108477 
L 367.237209 41.018719 
L 366.536453 40.903495 
L 365.835698 40.76592 
L 365.134942 40.603214 
L 364.434187 40.422966 
L 363.733431 40.229483 
L 363.032676 40.029723 
L 362.33192 39.834946 
L 361.631165 39.649207 
L 360.930409 39.476406 
L 360.229654 39.316862 
L 359.528898 39.170075 
L 358.828143 39.028213 
L 358.127387 38.882059 
L 357.426632 38.718408 
L 356.725876 38.536978 
L 356.025121 38.345459 
L 355.324365 38.153823 
L 354.62361 37.964846 
L 353.922854 37.790728 
L 353.222099 37.643364 
L 352.521343 37.509769 
L 351.820588 37.402626 
L 351.119832 37.316124 
L 350.419077 37.244866 
L 349.718321 37.181773 
L 349.017566 37.121599 
L 348.31681 37.056114 
L 347.616055 36.987129 
L 346.915299 36.92143 
L 346.214544 36.864913 
L 345.513788 36.820715 
L 344.813033 36.798655 
L 344.112277 36.796944 
L 343.411522 36.816903 
L 342.710766 36.855259 
L 342.010011 36.89797 
L 341.309255 36.93903 
L 340.6085 36.981157 
L 339.907744 37.023252 
L 339.206989 37.073607 
L 338.506233 37.13114 
L 337.805478 37.196808 
L 337.104722 37.277053 
L 336.403967 37.370476 
L 335.703211 37.487722 
L 335.002456 37.612815 
L 334.3017 37.733628 
L 333.600945 37.85277 
L 332.900189 37.95669 
L 332.199434 38.040183 
L 331.498678 38.09777 
L 330.797923 38.135694 
L 330.097167 38.160764 
L 329.396412 38.187431 
L 328.695656 38.224974 
L 327.994901 38.275002 
L 327.294145 38.340594 
L 326.59339 38.421792 
L 325.892635 38.516874 
L 325.191879 38.620197 
L 324.491124 38.725271 
L 323.790368 38.831609 
L 323.089613 38.931664 
L 322.388857 39.026852 
L 321.688102 39.126685 
L 320.987346 39.238189 
L 320.286591 39.360548 
L 319.585835 39.498681 
L 318.88508 39.65504 
L 318.184324 39.829545 
L 317.483569 40.005618 
L 316.782813 40.171379 
L 316.082058 40.324083 
L 315.381302 40.47736 
L 314.680547 40.619186 
L 313.979791 40.742708 
L 313.279036 40.860747 
L 312.57828 40.971157 
L 311.877525 41.069158 
L 311.176769 41.173108 
L 310.476014 41.272828 
L 309.775258 41.360667 
L 309.074503 41.427428 
L 308.373747 41.474986 
L 307.672992 41.489334 
L 306.972236 41.463165 
L 306.271481 41.401208 
L 305.570725 41.299043 
L 304.86997 41.172533 
L 304.169214 41.024338 
L 303.468459 40.868417 
L 302.767703 40.711156 
L 302.066948 40.555614 
L 301.366192 40.409819 
L 300.665437 40.270187 
L 299.964681 40.135153 
L 299.263926 39.995954 
L 298.56317 39.853487 
L 297.862415 39.702016 
L 297.161659 39.555889 
L 296.460904 39.423855 
L 295.760148 39.313068 
L 295.059393 39.219387 
L 294.358637 39.140874 
L 293.657882 39.08935 
L 292.957126 39.069531 
L 292.256371 39.065703 
L 291.555615 39.077378 
L 290.85486 39.092175 
L 290.154104 39.097868 
L 289.453349 39.091484 
L 288.752593 39.080995 
L 288.051838 39.071059 
L 287.351082 39.070176 
L 286.650327 39.087183 
L 285.949571 39.114743 
L 285.248816 39.151199 
L 284.54806 39.204506 
L 283.847305 39.270948 
L 283.146549 39.335085 
L 282.445794 39.394811 
L 281.745038 39.443725 
L 281.044283 39.475163 
L 280.343527 39.48705 
L 279.642772 39.490246 
L 278.942016 39.487325 
L 278.241261 39.477006 
L 277.540505 39.475632 
L 276.83975 39.479846 
L 276.138994 39.484611 
L 275.438239 39.488677 
L 274.737483 39.483701 
L 274.036728 39.463742 
L 273.335972 39.42475 
L 272.635217 39.365398 
L 271.934461 39.28627 
L 271.233706 39.196584 
L 270.53295 39.101603 
L 269.832195 39.011585 
L 269.131439 38.930635 
L 268.430684 38.864487 
L 267.729928 38.81073 
L 267.029173 38.770362 
L 266.328417 38.748374 
L 265.627662 38.742197 
L 264.926906 38.734725 
L 264.226151 38.726612 
L 263.525395 38.717211 
L 262.82464 38.71327 
L 262.123884 38.720968 
L 261.423129 38.747803 
L 260.722373 38.801434 
L 260.021618 38.88762 
L 259.320862 38.99897 
L 258.620107 39.134465 
L 257.919351 39.283768 
L 257.218596 39.442084 
L 256.51784 39.594637 
L 255.817085 39.73788 
L 255.116329 39.880774 
L 254.415574 40.024374 
L 253.714818 40.157261 
L 253.014063 40.288775 
L 252.313307 40.426711 
L 251.612552 40.571552 
L 250.911796 40.719108 
L 250.211041 40.863779 
L 249.510285 41.002643 
L 248.80953 41.11909 
L 248.108774 41.211603 
L 247.408019 41.275148 
L 246.707263 41.309951 
L 246.006508 41.319779 
L 245.305752 41.310293 
L 244.604997 41.280326 
L 243.904241 41.24408 
L 243.203486 41.1857 
L 242.50273 41.113045 
L 241.801975 41.024247 
L 241.101219 40.922135 
L 240.400464 40.799741 
L 239.699708 40.671669 
L 238.998953 40.517604 
L 238.298197 40.342479 
L 237.597442 40.159653 
L 236.896687 39.979045 
L 236.195931 39.810774 
L 235.495176 39.642494 
L 234.79442 39.495275 
L 234.093665 39.361427 
L 233.392909 39.243035 
L 232.692154 39.134712 
L 231.991398 39.010832 
L 231.290643 38.879342 
L 230.589887 38.732804 
L 229.889132 38.57801 
L 229.188376 38.422142 
L 228.487621 38.265404 
L 227.786865 38.104271 
L 227.08611 37.951523 
L 226.385354 37.815698 
L 225.684599 37.681447 
L 224.983843 37.556937 
L 224.283088 37.433267 
L 223.582332 37.288644 
L 222.881577 37.132345 
L 222.180821 36.961107 
L 221.480066 36.77692 
L 220.77931 36.591568 
L 220.078555 36.404505 
L 219.377799 36.223837 
L 218.677044 36.057849 
L 217.976288 35.906531 
L 217.275533 35.777136 
L 216.574777 35.655509 
L 215.874022 35.542489 
L 215.173266 35.428022 
L 214.472511 35.309916 
L 213.771755 35.175408 
L 213.071 35.032514 
L 212.370244 34.895334 
L 211.669489 34.770644 
L 210.968733 34.666699 
L 210.267978 34.586191 
L 209.567222 34.546896 
L 208.866467 34.541969 
L 208.165711 34.556103 
L 207.464956 34.581444 
L 206.7642 34.624577 
L 206.063445 34.665012 
L 205.362689 34.692274 
L 204.661934 34.715004 
L 203.961178 34.733321 
L 203.260423 34.751374 
L 202.559667 34.775165 
L 201.858912 34.807914 
L 201.158156 34.842255 
L 200.457401 34.878837 
L 199.756645 34.907462 
L 199.05589 34.922315 
L 198.355134 34.924943 
L 197.654379 34.897254 
L 196.953623 34.842303 
L 196.252868 34.759614 
L 195.552112 34.657901 
L 194.851357 34.546456 
L 194.150601 34.436275 
L 193.449846 34.320008 
L 192.74909 34.199398 
L 192.048335 34.090094 
L 191.347579 33.985798 
L 190.646824 33.885431 
L 189.946068 33.769903 
L 189.245313 33.650544 
L 188.544557 33.507688 
L 187.843802 33.364805 
L 187.143046 33.224145 
L 186.442291 33.088716 
L 185.741535 32.973877 
L 185.04078 32.888399 
L 184.340024 32.839093 
L 183.639269 32.826793 
L 182.938513 32.825735 
L 182.237758 32.840193 
L 181.537002 32.860412 
L 180.836247 32.890038 
L 180.135491 32.914349 
L 179.434736 32.93035 
L 178.73398 32.951873 
L 178.033225 32.989432 
L 177.332469 33.028218 
L 176.631714 33.09025 
L 175.930958 33.181405 
L 175.230203 33.282869 
L 174.529447 33.400668 
L 173.828692 33.528004 
L 173.127936 33.66964 
L 172.427181 33.781261 
L 171.726425 33.883455 
L 171.02567 33.977342 
L 170.324914 34.069766 
L 169.624159 34.168108 
L 168.923403 34.275364 
L 168.222648 34.390902 
L 167.521892 34.514614 
L 166.821137 34.646365 
L 166.120381 34.777138 
L 165.419626 34.903325 
L 164.71887 35.035996 
L 164.018115 35.145648 
L 163.317359 35.228675 
L 162.616604 35.296307 
L 161.915848 35.358434 
L 161.215093 35.419073 
L 160.514337 35.476592 
L 159.813582 35.556387 
L 159.112826 35.652069 
L 158.412071 35.763371 
L 157.711315 35.866374 
L 157.01056 35.969685 
L 156.309804 36.051131 
L 155.609049 36.100853 
L 154.908293 36.118039 
L 154.207538 36.105762 
L 153.506782 36.066131 
L 152.806027 36.001667 
L 152.105271 35.923174 
L 151.404516 35.843824 
L 150.70376 35.760127 
L 150.003005 35.681883 
L 149.30225 35.591762 
L 148.601494 35.491035 
L 147.900739 35.373571 
L 147.199983 35.243244 
L 146.499228 35.083763 
L 145.798472 34.89962 
L 145.097717 34.701679 
L 144.396961 34.497 
L 143.696206 34.296006 
L 142.99545 34.098583 
L 142.294695 33.904089 
L 141.593939 33.708871 
L 140.893184 33.509925 
L 140.192428 33.313641 
L 139.491673 33.106769 
L 138.790917 32.872446 
L 138.090162 32.630165 
L 137.389406 32.383758 
L 136.688651 32.141577 
L 135.987895 31.918389 
L 135.28714 31.715642 
L 134.586384 31.526339 
L 133.885629 31.364105 
L 133.184873 31.234014 
L 132.484118 31.134719 
L 131.783362 31.034821 
L 131.082607 30.945637 
L 130.381851 30.865158 
L 129.681096 30.77666 
L 128.98034 30.686152 
L 128.279585 30.601355 
L 127.578829 30.537185 
L 126.878074 30.500747 
L 126.177318 30.473506 
L 125.476563 30.475999 
L 124.775807 30.509669 
L 124.075052 30.550083 
L 123.374296 30.596914 
L 122.673541 30.656055 
L 121.972785 30.710093 
L 121.27203 30.759912 
L 120.571274 30.801502 
L 119.870519 30.845072 
L 119.169763 30.888893 
L 118.469008 30.933856 
L 117.768252 30.992269 
L 117.067497 31.074463 
L 116.366741 31.167182 
L 115.665986 31.263308 
L 114.96523 31.357677 
L 114.264475 31.443166 
L 113.563719 31.508997 
L 112.862964 31.55547 
L 112.162208 31.595786 
L 111.461453 31.635018 
L 110.760697 31.676206 
L 110.059942 31.728679 
L 109.359186 31.790642 
L 108.658431 31.861975 
L 107.957675 31.938927 
L 107.25692 32.017538 
L 106.556164 32.115809 
L 105.855409 32.195581 
L 105.154653 32.268379 
L 104.453898 32.30553 
L 103.753142 32.323183 
L 103.052387 32.328891 
L 102.351631 32.33304 
L 101.650876 32.359489 
L 100.95012 32.421097 
L 100.249365 32.490036 
L 99.548609 32.58149 
L 98.847854 32.696073 
L 98.147098 32.804547 
L 97.446343 32.916858 
L 96.745587 33.021144 
L 96.044832 33.112028 
L 95.344076 33.198195 
L 94.643321 33.293653 
L 93.942565 33.401817 
L 93.24181 33.539413 
L 92.541054 33.695467 
L 91.840299 33.886974 
L 91.139543 34.142381 
L 90.438788 34.44055 
L 89.738032 34.725067 
L 89.037277 35.000251 
L 88.336521 35.265062 
L 87.635766 35.519604 
L 86.93501 35.772393 
L 86.234255 36.032958 
L 85.533499 36.296486 
L 84.832744 36.575758 
L 84.131988 36.879642 
L 83.431233 37.214435 
L 82.730477 37.575262 
L 82.029722 37.964183 
L 81.328966 38.323 
L 80.628211 38.664738 
L 79.927455 38.989045 
L 79.2267 39.28573 
L 78.525944 39.551593 
L 77.825189 39.802985 
L 77.124433 40.04341 
L 76.423678 40.295949 
L 75.722922 40.554304 
L 75.022167 40.830096 
L 74.321411 41.118161 
L 73.620656 41.407199 
L 72.9199 41.6991 
L 72.219145 41.977752 
L 71.518389 42.26742 
L 70.817634 42.535286 
L 70.116878 42.852105 
L 69.416123 43.123571 
L 68.715367 43.50501 
L 68.014612 43.886579 
L 67.313856 44.262945 
L 66.613101 44.769777 
L 65.912345 45.22465 
L 65.21159 45.688501 
L 64.510834 46.227064 
L 63.810079 46.70806 
L 63.109323 47.559865 
L 62.408568 47.999286 
L 61.707813 48.243496 
z
" clip-path="url(#p888fbcc2ba)" style="fill: #d0d1e6; fill-opacity: 0.25"/>
   </g>
   <g id="PolyCollection_2">
    <path d="M 171.02567 39.954636 
L 171.02567 41.5611 
L 171.726145 41.546895 
L 172.427461 41.883544 
L 173.127936 42.445874 
L 173.828412 43.068075 
L 174.529728 43.448135 
L 175.230203 43.740699 
L 175.930678 44.001458 
L 176.631994 44.263838 
L 177.332469 44.470723 
L 178.032945 44.634711 
L 178.734261 44.809096 
L 179.434736 45.011232 
L 180.135211 45.205135 
L 180.836527 45.417825 
L 181.537002 45.639149 
L 182.237478 45.833958 
L 182.938794 46.019956 
L 183.639269 46.18839 
L 184.339744 46.358601 
L 185.04106 46.483807 
L 185.741535 46.567543 
L 186.44201 46.616332 
L 187.143327 46.638386 
L 187.843802 46.65718 
L 188.544277 46.672059 
L 189.245593 46.681204 
L 189.946068 46.721455 
L 190.646543 46.759167 
L 191.34786 46.817246 
L 192.048335 46.865532 
L 192.74881 46.908524 
L 193.450126 46.937782 
L 194.150601 46.975191 
L 194.851076 47.017726 
L 195.552393 47.051487 
L 196.252868 47.08559 
L 196.953343 47.140325 
L 197.654659 47.224496 
L 198.355134 47.336502 
L 199.055609 47.48239 
L 199.756926 47.587238 
L 200.457401 47.706357 
L 201.157876 47.834006 
L 201.859192 47.958483 
L 202.559667 48.080689 
L 203.260142 48.189218 
L 203.961458 48.288649 
L 204.661934 48.368627 
L 205.362409 48.454635 
L 206.063725 48.546255 
L 206.7642 48.65628 
L 207.464675 48.769197 
L 208.165991 48.859048 
L 208.866467 48.881157 
L 209.566942 48.885117 
L 210.268258 48.852691 
L 210.968733 48.774865 
L 211.669208 48.674431 
L 212.370524 48.552112 
L 213.071 48.382343 
L 213.771475 48.205418 
L 214.472791 48.038043 
L 215.173266 47.888961 
L 215.873741 47.74209 
L 216.575057 47.596416 
L 217.275533 47.4409 
L 217.976008 47.278508 
L 218.677324 47.092857 
L 219.377799 46.892365 
L 220.078274 46.675724 
L 220.77959 46.451935 
L 221.480066 46.246331 
L 222.180541 46.041546 
L 222.881857 45.850405 
L 223.582332 45.675001 
L 224.282807 45.511343 
L 224.984123 45.370825 
L 225.684599 45.227953 
L 226.385074 45.073783 
L 227.08639 44.919223 
L 227.786865 44.745504 
L 228.48734 44.562313 
L 229.188656 44.384467 
L 229.889132 44.217637 
L 230.589607 44.05172 
L 231.290923 43.894065 
L 231.991398 43.751922 
L 232.691873 43.616645 
L 233.393189 43.498336 
L 234.093665 43.36838 
L 234.79414 43.222392 
L 235.495456 43.063453 
L 236.195931 42.882747 
L 236.896406 42.703642 
L 237.597722 42.510896 
L 238.298198 42.317238 
L 238.998673 42.129681 
L 239.699989 41.963611 
L 240.400464 41.824354 
L 241.100939 41.689561 
L 241.802255 41.575737 
L 242.50273 41.474967 
L 243.203206 41.3902 
L 243.904522 41.319575 
L 244.604997 41.271615 
L 245.305472 41.228712 
L 246.006788 41.206019 
L 246.707263 41.184664 
L 247.407739 41.18869 
L 248.109055 41.221716 
L 248.80953 41.283898 
L 249.510005 41.370043 
L 250.211321 41.478663 
L 250.911796 41.592579 
L 251.612272 41.709202 
L 252.313588 41.822941 
L 253.014063 41.929467 
L 253.714538 42.029288 
L 254.415854 42.130537 
L 255.116329 42.234827 
L 255.816805 42.338026 
L 256.518121 42.441349 
L 257.218596 42.553912 
L 257.919071 42.672079 
L 258.620387 42.786725 
L 259.320862 42.887394 
L 260.021338 42.946445 
L 260.722654 42.979597 
L 261.423129 42.979953 
L 262.123604 42.953332 
L 262.82492 42.907465 
L 263.525395 42.88838 
L 264.225871 42.874814 
L 264.927187 42.870058 
L 265.627662 42.86311 
L 266.328137 42.852246 
L 267.029453 42.824407 
L 267.729928 42.779248 
L 268.430404 42.729644 
L 269.13172 42.670071 
L 269.832195 42.573289 
L 270.53267 42.464606 
L 271.233986 42.347581 
L 271.934461 42.23583 
L 272.634937 42.133357 
L 273.336253 42.049412 
L 274.036728 41.982698 
L 274.737203 41.932091 
L 275.438519 41.894726 
L 276.138994 41.8653 
L 276.839469 41.838448 
L 277.540786 41.812346 
L 278.241261 41.780133 
L 278.941736 41.736574 
L 279.643052 41.696164 
L 280.343527 41.66413 
L 281.044002 41.640595 
L 281.745319 41.632453 
L 282.445794 41.637624 
L 283.146269 41.650384 
L 283.847585 41.6654 
L 284.54806 41.680768 
L 285.248535 41.687178 
L 285.949852 41.682763 
L 286.650327 41.670738 
L 287.350802 41.648112 
L 288.052118 41.604524 
L 288.752593 41.568598 
L 289.453068 41.53653 
L 290.154385 41.507747 
L 290.85486 41.488628 
L 291.555335 41.47602 
L 292.256651 41.463029 
L 292.957126 41.438702 
L 293.657601 41.404427 
L 294.358917 41.34514 
L 295.059393 41.263481 
L 295.759868 41.168537 
L 296.461184 41.058698 
L 297.161659 40.92638 
L 297.862134 40.783279 
L 298.56345 40.638969 
L 299.263926 40.503001 
L 299.964401 40.371073 
L 300.665717 40.242002 
L 301.366192 40.108387 
L 302.066667 39.971498 
L 302.767983 39.826611 
L 303.468459 39.676975 
L 304.168934 39.525174 
L 304.87025 39.378165 
L 305.570725 39.237563 
L 306.2712 39.117737 
L 306.972516 39.033999 
L 307.672992 38.981506 
L 308.373467 38.964638 
L 309.074783 38.976795 
L 309.775258 39.005259 
L 310.475733 39.054196 
L 311.177049 39.113609 
L 311.877525 39.174691 
L 312.578 39.246502 
L 313.279316 39.324667 
L 313.979791 39.375148 
L 314.680266 39.43166 
L 315.381582 39.504808 
L 316.082058 39.585094 
L 316.782533 39.66396 
L 317.483849 39.755784 
L 318.184324 39.857313 
L 318.884799 39.958081 
L 319.586115 40.043222 
L 320.286591 40.11274 
L 320.987066 40.167914 
L 321.688382 40.212367 
L 322.388857 40.264961 
L 323.089332 40.314481 
L 323.790648 40.368874 
L 324.491124 40.428167 
L 325.191599 40.486403 
L 325.892915 40.542623 
L 326.59339 40.59117 
L 327.293865 40.641249 
L 327.995181 40.676109 
L 328.695656 40.695991 
L 329.396132 40.703659 
L 330.097448 40.701801 
L 330.797923 40.745332 
L 331.498398 40.801715 
L 332.199714 40.874199 
L 332.900189 40.966856 
L 333.600665 41.078197 
L 334.301981 41.2017 
L 335.002456 41.324849 
L 335.702931 41.454546 
L 336.404247 41.575934 
L 337.104722 41.672055 
L 337.805198 41.75166 
L 338.506514 41.818284 
L 339.206989 41.871872 
L 339.907464 41.92253 
L 340.60878 41.964698 
L 341.309255 42.006374 
L 342.009731 42.060415 
L 342.711047 42.116434 
L 343.411522 42.168339 
L 344.111997 42.205982 
L 344.813313 42.224146 
L 345.513788 42.224874 
L 346.214264 42.205676 
L 346.91558 42.175054 
L 347.616055 42.157555 
L 348.31653 42.138469 
L 349.017846 42.12442 
L 349.718321 42.115322 
L 350.418797 42.105361 
L 351.120113 42.08891 
L 351.820588 42.057196 
L 352.521063 42.007349 
L 353.222379 41.934913 
L 353.922854 41.850385 
L 354.62333 41.745071 
L 355.324646 41.625731 
L 356.025121 41.547555 
L 356.725596 41.47402 
L 357.426912 41.411407 
L 358.127387 41.363322 
L 358.827863 41.331984 
L 359.529179 41.30606 
L 360.229654 41.277303 
L 360.930129 41.240553 
L 361.631445 41.194998 
L 362.33192 41.135129 
L 363.032395 41.067234 
L 363.733712 40.996709 
L 364.434187 40.877065 
L 365.134662 40.761102 
L 365.835978 40.659852 
L 366.536453 40.583112 
L 367.236928 40.527326 
L 367.938245 40.493805 
L 368.63872 40.466291 
L 369.339195 40.448348 
L 370.040511 40.434345 
L 370.740986 40.422588 
L 371.441461 40.405659 
L 372.142778 40.395076 
L 372.843253 40.325318 
L 373.543728 40.26625 
L 374.245044 40.223191 
L 374.945519 40.197084 
L 375.645994 40.183229 
L 376.347311 40.185609 
L 377.047786 40.186277 
L 377.748261 40.172801 
L 378.449577 40.143631 
L 379.150052 40.10318 
L 379.850527 40.05305 
L 380.551843 39.998841 
L 381.252319 39.920545 
L 381.952794 39.838694 
L 382.65411 39.767667 
L 383.354585 39.709005 
L 384.05506 39.591504 
L 384.756376 39.486405 
L 385.456852 39.378107 
L 386.157327 39.260375 
L 386.858643 39.131853 
L 387.559118 38.985394 
L 388.259593 38.817723 
L 388.960909 38.642095 
L 389.661385 38.597335 
L 390.36186 38.546943 
L 391.063176 38.497381 
L 391.763651 38.456681 
L 392.464126 38.420827 
L 393.165442 38.390879 
L 393.865918 38.357512 
L 394.566393 38.27788 
L 395.267709 38.185231 
L 395.968184 38.087309 
L 396.668659 37.982381 
L 397.369975 37.875154 
L 398.070451 37.795338 
L 398.770926 37.833833 
L 399.472242 37.874597 
L 400.172717 37.928436 
L 400.873192 37.992959 
L 401.574508 38.068961 
L 402.274984 38.154458 
L 402.975459 38.238634 
L 403.676775 38.313394 
L 404.37725 38.375325 
L 405.077725 38.436713 
L 405.779041 38.501443 
L 406.479517 38.571063 
L 407.179992 38.587202 
L 407.881308 38.635209 
L 408.581783 38.702893 
L 409.282258 38.790706 
L 409.983574 38.903183 
L 410.68405 39.012536 
L 411.384525 39.124528 
L 412.085841 39.229951 
L 412.786316 39.335319 
L 413.486791 39.441959 
L 414.188107 39.544562 
L 414.188107 9.933991 
L 414.188107 9.933991 
L 413.486791 9.928914 
L 412.786316 9.927874 
L 412.085841 9.925561 
L 411.384525 9.923304 
L 410.68405 9.927615 
L 409.983574 9.929288 
L 409.282258 9.934085 
L 408.581783 9.957385 
L 407.881308 10.000885 
L 407.179992 10.057913 
L 406.479517 10.112407 
L 405.779041 10.109986 
L 405.077725 10.114801 
L 404.37725 10.126073 
L 403.676775 10.139741 
L 402.975459 10.15021 
L 402.274984 10.153662 
L 401.574508 10.151741 
L 400.873192 10.151785 
L 400.172717 10.164201 
L 399.472242 10.193057 
L 398.770926 10.223153 
L 398.070451 10.232468 
L 397.369975 10.361395 
L 396.668659 10.520634 
L 395.968184 10.685409 
L 395.267709 10.842785 
L 394.566393 10.991137 
L 393.865918 11.1256 
L 393.165442 11.211422 
L 392.464126 11.294493 
L 391.763651 11.3871 
L 391.063176 11.488995 
L 390.36186 11.592049 
L 389.661385 11.688366 
L 388.960909 11.780019 
L 388.259593 12.008521 
L 387.559118 12.224628 
L 386.858643 12.427487 
L 386.157327 12.614968 
L 385.456852 12.783855 
L 384.756376 12.943362 
L 384.05506 13.109235 
L 383.354585 13.27565 
L 382.65411 13.393619 
L 381.952794 13.514814 
L 381.252319 13.640201 
L 380.551843 13.761251 
L 379.850527 13.864205 
L 379.150052 13.967007 
L 378.449577 14.06136 
L 377.748261 14.1437 
L 377.047786 14.211527 
L 376.347311 14.271223 
L 375.645994 14.333537 
L 374.945519 14.395316 
L 374.245044 14.472669 
L 373.543728 14.562418 
L 372.843253 14.66372 
L 372.142778 14.781409 
L 371.441461 14.836709 
L 370.740986 14.897963 
L 370.040511 14.965106 
L 369.339195 15.03728 
L 368.63872 15.105468 
L 367.938245 15.178097 
L 367.236928 15.270472 
L 366.536453 15.377036 
L 365.835978 15.505515 
L 365.134662 15.648045 
L 364.434187 15.798958 
L 363.733712 15.950782 
L 363.032395 16.05276 
L 362.33192 16.157306 
L 361.631445 16.255003 
L 360.930129 16.341127 
L 360.229654 16.418867 
L 359.529179 16.492337 
L 358.827863 16.569335 
L 358.127387 16.653907 
L 357.426912 16.746841 
L 356.725596 16.849548 
L 356.025121 16.962401 
L 355.324646 17.083055 
L 354.62333 17.242965 
L 353.922854 17.394295 
L 353.222379 17.540162 
L 352.521063 17.6604 
L 351.820588 17.760238 
L 351.120113 17.841754 
L 350.418797 17.905197 
L 349.718321 17.962723 
L 349.017846 18.021322 
L 348.31653 18.079953 
L 347.616055 18.139034 
L 346.91558 18.190939 
L 346.214264 18.256342 
L 345.513788 18.312548 
L 344.813313 18.358493 
L 344.111997 18.38898 
L 343.411522 18.401835 
L 342.711047 18.409851 
L 342.009731 18.414108 
L 341.309255 18.415978 
L 340.60878 18.432874 
L 339.907464 18.4448 
L 339.206989 18.452309 
L 338.506514 18.449418 
L 337.805198 18.430574 
L 337.104722 18.399333 
L 336.404247 18.351512 
L 335.702931 18.299279 
L 335.002456 18.237911 
L 334.301981 18.162565 
L 333.600665 18.092156 
L 332.900189 18.03357 
L 332.199714 17.994684 
L 331.498398 17.971897 
L 330.797923 17.964959 
L 330.097448 17.970292 
L 329.396132 18.026022 
L 328.695656 18.074781 
L 327.995181 18.111233 
L 327.293865 18.136834 
L 326.59339 18.144822 
L 325.892915 18.153084 
L 325.191599 18.149568 
L 324.491124 18.139715 
L 323.790648 18.131755 
L 323.089332 18.130559 
L 322.388857 18.130304 
L 321.688382 18.122295 
L 320.987066 18.127196 
L 320.286591 18.128496 
L 319.586115 18.123852 
L 318.884799 18.11246 
L 318.184324 18.09676 
L 317.483849 18.073308 
L 316.782533 18.04699 
L 316.082058 18.024966 
L 315.381582 18.02027 
L 314.680266 18.020083 
L 313.979791 18.018092 
L 313.279316 18.028326 
L 312.578 18.015022 
L 311.877525 18.000138 
L 311.177049 18.01706 
L 310.475733 18.03645 
L 309.775258 18.057648 
L 309.074783 18.087044 
L 308.373467 18.143859 
L 307.672992 18.230102 
L 306.972516 18.34111 
L 306.2712 18.479757 
L 305.570725 18.644547 
L 304.87025 18.837051 
L 304.168934 19.030426 
L 303.468459 19.231087 
L 302.767983 19.43195 
L 302.066667 19.627232 
L 301.366192 19.81934 
L 300.665717 20.008667 
L 299.964401 20.203241 
L 299.263926 20.399684 
L 298.56345 20.598615 
L 297.862134 20.791173 
L 297.161659 20.978708 
L 296.461184 21.158664 
L 295.759868 21.327908 
L 295.059393 21.483945 
L 294.358917 21.617319 
L 293.657601 21.730492 
L 292.957126 21.827127 
L 292.256651 21.908103 
L 291.555335 21.992046 
L 290.85486 22.078347 
L 290.154385 22.159492 
L 289.453068 22.240706 
L 288.752593 22.324272 
L 288.052118 22.410472 
L 287.350802 22.514181 
L 286.650327 22.618384 
L 285.949852 22.710356 
L 285.248535 22.779232 
L 284.54806 22.836079 
L 283.847585 22.886362 
L 283.146269 22.933169 
L 282.445794 22.988921 
L 281.745319 23.054 
L 281.044002 23.124072 
L 280.343527 23.196827 
L 279.643052 23.280663 
L 278.941736 23.377421 
L 278.241261 23.47687 
L 277.540786 23.585502 
L 276.839469 23.691537 
L 276.138994 23.79413 
L 275.438519 23.900339 
L 274.737203 24.01389 
L 274.036728 24.144343 
L 273.336253 24.288747 
L 272.634937 24.443048 
L 271.934461 24.600872 
L 271.233986 24.763212 
L 270.53267 24.930739 
L 269.832195 25.10105 
L 269.13172 25.270178 
L 268.430404 25.405084 
L 267.729928 25.523258 
L 267.029453 25.631916 
L 266.328137 25.733191 
L 265.627662 25.829668 
L 264.927187 25.910374 
L 264.225871 25.987885 
L 263.525395 26.065824 
L 262.82492 26.134518 
L 262.123604 26.226714 
L 261.423129 26.303632 
L 260.722654 26.362122 
L 260.021338 26.39858 
L 259.320862 26.405341 
L 258.620387 26.367468 
L 257.919071 26.319201 
L 257.218596 26.281626 
L 256.518121 26.250443 
L 255.816805 26.224921 
L 255.116329 26.203319 
L 254.415854 26.181707 
L 253.714538 26.14236 
L 253.014063 26.098572 
L 252.313588 26.055125 
L 251.612272 26.011421 
L 250.911796 25.966291 
L 250.211321 25.925451 
L 249.510005 25.901258 
L 248.80953 25.893089 
L 248.109055 25.903966 
L 247.407739 25.935357 
L 246.707263 25.986167 
L 246.006788 26.057972 
L 245.305472 26.142145 
L 244.604997 26.250445 
L 243.904522 26.388808 
L 243.203206 26.534091 
L 242.50273 26.693313 
L 241.802255 26.868431 
L 241.100939 27.058941 
L 240.400464 27.254158 
L 239.699989 27.474749 
L 238.998673 27.704063 
L 238.298198 27.945197 
L 237.597722 28.199344 
L 236.896406 28.467813 
L 236.195931 28.741502 
L 235.495456 28.987794 
L 234.79414 29.221387 
L 234.093665 29.433269 
L 233.393189 29.635797 
L 232.691873 29.847287 
L 231.991398 30.052745 
L 231.290923 30.273355 
L 230.589607 30.500907 
L 229.889132 30.734774 
L 229.188656 30.976271 
L 228.48734 31.232251 
L 227.786865 31.479766 
L 227.08639 31.729394 
L 226.385074 31.98419 
L 225.684599 32.222011 
L 224.984123 32.463801 
L 224.282807 32.716944 
L 223.582332 32.966431 
L 222.881857 33.224729 
L 222.180541 33.48854 
L 221.480066 33.757363 
L 220.77959 34.031913 
L 220.078274 34.318537 
L 219.377799 34.604038 
L 218.677324 34.885778 
L 217.976008 35.152467 
L 217.275533 35.40618 
L 216.575057 35.642995 
L 215.873741 35.878976 
L 215.173266 36.11624 
L 214.472791 36.365654 
L 213.771475 36.615494 
L 213.071 36.863834 
L 212.370524 37.10999 
L 211.669208 37.312637 
L 210.968733 37.500592 
L 210.268258 37.657932 
L 209.566942 37.799325 
L 208.866467 37.916398 
L 208.165991 38.005533 
L 207.464675 38.019213 
L 206.7642 38.043493 
L 206.063725 38.065842 
L 205.362409 38.069235 
L 204.661934 38.069473 
L 203.961458 38.066217 
L 203.260142 38.045216 
L 202.559667 38.034484 
L 201.859192 38.036626 
L 201.157876 38.037744 
L 200.457401 38.038296 
L 199.756926 38.041305 
L 199.055609 38.052823 
L 198.355134 38.039924 
L 197.654659 38.038909 
L 196.953343 38.060612 
L 196.252868 38.101051 
L 195.552393 38.15508 
L 194.851076 38.212506 
L 194.150601 38.296972 
L 193.450126 38.388714 
L 192.74881 38.467868 
L 192.048335 38.542862 
L 191.34786 38.611756 
L 190.646543 38.695389 
L 189.946068 38.773311 
L 189.245593 38.874621 
L 188.544277 38.971479 
L 187.843802 39.085397 
L 187.143327 39.196834 
L 186.44201 39.288268 
L 185.741535 39.375952 
L 185.04106 39.448265 
L 184.339744 39.496439 
L 183.639269 39.526037 
L 182.938794 39.50436 
L 182.237478 39.469853 
L 181.537002 39.434601 
L 180.836527 39.429546 
L 180.135211 39.416405 
L 179.434736 39.382482 
L 178.734261 39.348732 
L 178.032945 39.396151 
L 177.332469 39.412141 
L 176.631994 39.442097 
L 175.930678 39.489277 
L 175.230203 39.493971 
L 174.529728 39.503284 
L 173.828412 39.584758 
L 173.127936 39.612129 
L 172.427461 39.588028 
L 171.726145 39.940431 
L 171.02567 39.954636 
z
" clip-path="url(#p888fbcc2ba)" style="fill: #67a9cf; fill-opacity: 0.25"/>
   </g>
   <g id="PolyCollection_3">
    <path d="M 171.02567 40.016956 
L 171.02567 41.49878 
L 171.726145 41.704672 
L 172.427461 41.839163 
L 173.127936 42.223845 
L 173.828412 42.586121 
L 174.529728 42.725559 
L 175.230203 42.860198 
L 175.930678 42.990707 
L 176.631994 43.117614 
L 177.332469 43.241339 
L 178.032945 43.362235 
L 178.734261 43.480586 
L 179.434736 43.660336 
L 180.135211 43.837855 
L 180.836527 44.013338 
L 181.537002 44.18695 
L 182.237478 44.358838 
L 182.938794 44.529124 
L 183.639269 44.69793 
L 184.339744 44.865353 
L 185.04106 45.031474 
L 185.741535 45.196383 
L 186.44201 45.360152 
L 187.143327 45.522837 
L 187.843802 45.681099 
L 188.544277 45.838462 
L 189.245593 45.994967 
L 189.946068 46.150657 
L 190.646543 46.305571 
L 191.34786 46.459742 
L 192.048335 46.613203 
L 192.74881 46.765986 
L 193.450126 46.918114 
L 194.150601 47.069617 
L 194.851076 47.220525 
L 195.552393 47.370852 
L 196.252868 47.513174 
L 196.953343 47.65494 
L 197.654659 47.796163 
L 198.355134 47.936862 
L 199.055609 48.077057 
L 199.756926 48.166838 
L 200.457401 48.256148 
L 201.157876 48.345003 
L 201.859192 48.433421 
L 202.559667 48.521417 
L 203.260142 48.608997 
L 203.961458 48.696179 
L 204.661934 48.764361 
L 205.362409 48.832156 
L 206.063725 48.89957 
L 206.7642 48.966614 
L 207.464675 49.033307 
L 208.165991 49.099649 
L 208.866467 49.108279 
L 209.566942 49.116576 
L 210.268258 49.124558 
L 210.968733 49.132225 
L 211.669208 49.139591 
L 212.370524 49.146657 
L 213.071 49.118068 
L 213.771475 49.089216 
L 214.472791 49.060103 
L 215.173266 49.030735 
L 215.873741 49.001118 
L 216.575057 48.971257 
L 217.275533 48.941157 
L 217.976008 48.910827 
L 218.677324 48.880269 
L 219.377799 48.849483 
L 220.078274 48.818481 
L 220.77959 48.787265 
L 221.480066 48.772263 
L 222.180541 48.757048 
L 222.881857 48.741629 
L 223.582332 48.726002 
L 224.282807 48.710174 
L 224.984123 48.694155 
L 225.684599 48.677938 
L 226.385074 48.661533 
L 227.08639 48.644943 
L 227.786865 48.628167 
L 228.48734 48.611213 
L 229.188656 48.594085 
L 229.889132 48.588102 
L 230.589607 48.581946 
L 231.290923 48.575612 
L 231.991398 48.569102 
L 232.691873 48.562428 
L 233.393189 48.555584 
L 234.093665 48.548572 
L 234.79414 48.541402 
L 235.495456 48.534075 
L 236.195931 48.526589 
L 236.896406 48.518944 
L 237.597722 48.511154 
L 238.298198 48.503939 
L 238.998673 48.496591 
L 239.699989 48.489116 
L 240.400464 48.481509 
L 241.100939 48.473779 
L 241.802255 48.465929 
L 242.50273 48.457949 
L 243.203206 48.449852 
L 243.904522 48.441634 
L 244.604997 48.433298 
L 245.305472 48.424844 
L 246.006788 48.416278 
L 246.707263 48.390587 
L 247.407739 48.364779 
L 248.109055 48.33886 
L 248.80953 48.312827 
L 249.510005 48.286681 
L 250.211321 48.260428 
L 250.911796 48.234066 
L 251.612272 48.207594 
L 252.313588 48.18102 
L 253.014063 48.15434 
L 253.714538 48.127558 
L 254.415854 48.100675 
L 255.116329 48.065367 
L 255.816805 48.029962 
L 256.518121 47.99446 
L 257.218596 47.958865 
L 257.919071 47.923174 
L 258.620387 47.893255 
L 259.320862 47.863243 
L 260.021338 47.814831 
L 260.722654 47.766338 
L 261.423129 47.717761 
L 262.123604 47.669103 
L 262.82492 47.620365 
L 263.525395 47.617426 
L 264.225871 47.619685 
L 264.927187 47.628781 
L 265.627662 47.635255 
L 266.328137 47.636955 
L 267.029453 47.637174 
L 267.729928 47.638441 
L 268.430404 47.648595 
L 269.13172 47.66142 
L 269.832195 47.651082 
L 270.53267 47.63829 
L 271.233986 47.621577 
L 271.934461 47.606361 
L 272.634937 47.588941 
L 273.336253 47.570388 
L 274.036728 47.549008 
L 274.737203 47.524324 
L 275.438519 47.498186 
L 276.138994 47.470941 
L 276.839469 47.445061 
L 277.540786 47.420996 
L 278.241261 47.396337 
L 278.941736 47.368716 
L 279.643052 47.337165 
L 280.343527 47.307545 
L 281.044002 47.27713 
L 281.745319 47.243052 
L 282.445794 47.205172 
L 283.146269 47.163915 
L 283.847585 47.120239 
L 284.54806 47.074663 
L 285.248535 47.034096 
L 285.949852 46.999099 
L 286.650327 46.966079 
L 287.350802 46.932727 
L 288.052118 46.895695 
L 288.752593 46.87661 
L 289.453068 46.859571 
L 290.154385 46.842641 
L 290.85486 46.824286 
L 291.555335 46.80395 
L 292.256651 46.785066 
L 292.957126 46.769436 
L 293.657601 46.762216 
L 294.358917 46.760028 
L 295.059393 46.762638 
L 295.759868 46.767228 
L 296.461184 46.773845 
L 297.161659 46.778139 
L 297.862134 46.787103 
L 298.56345 46.799969 
L 299.263926 46.81238 
L 299.964401 46.825681 
L 300.665717 46.837911 
L 301.366192 46.849529 
L 302.066667 46.863725 
L 302.767983 46.879106 
L 303.468459 46.892698 
L 304.168934 46.903203 
L 304.87025 46.910365 
L 305.570725 46.902825 
L 306.2712 46.892501 
L 306.972516 46.879056 
L 307.672992 46.860531 
L 308.373467 46.836932 
L 309.074783 46.809295 
L 309.775258 46.777583 
L 310.475733 46.746295 
L 311.177049 46.714388 
L 311.877525 46.679707 
L 312.578 46.659396 
L 313.279316 46.632913 
L 313.979791 46.571183 
L 314.680266 46.511211 
L 315.381582 46.449744 
L 316.082058 46.383295 
L 316.782533 46.315632 
L 317.483849 46.248752 
L 318.184324 46.182322 
L 318.884799 46.117225 
L 319.586115 46.053856 
L 320.286591 45.992342 
L 320.987066 45.931564 
L 321.688382 45.870314 
L 322.388857 45.82909 
L 323.089332 45.788641 
L 323.790648 45.748173 
L 324.491124 45.707152 
L 325.191599 45.665878 
L 325.892915 45.625046 
L 326.59339 45.584932 
L 327.293865 45.559534 
L 327.995181 45.535193 
L 328.695656 45.51123 
L 329.396132 45.48764 
L 330.097448 45.465355 
L 330.797923 45.489299 
L 331.498398 45.513766 
L 332.199714 45.533899 
L 332.900189 45.549378 
L 333.600665 45.562822 
L 334.301981 45.573127 
L 335.002456 45.582694 
L 335.702931 45.592911 
L 336.404247 45.604845 
L 337.104722 45.614003 
L 337.805198 45.621374 
L 338.506514 45.628202 
L 339.206989 45.633837 
L 339.907464 45.639384 
L 340.60878 45.644959 
L 341.309255 45.650818 
L 342.009731 45.669111 
L 342.711047 45.686852 
L 343.411522 45.70589 
L 344.111997 45.730169 
L 344.813313 45.755667 
L 345.513788 45.783656 
L 346.214264 45.812621 
L 346.91558 45.84255 
L 347.616055 45.895624 
L 348.31653 45.950345 
L 349.017846 46.007106 
L 349.718321 46.064018 
L 350.418797 46.123047 
L 351.120113 46.183647 
L 351.820588 46.244428 
L 352.521063 46.308291 
L 353.222379 46.375642 
L 353.922854 46.445801 
L 354.62333 46.520334 
L 355.324646 46.594938 
L 356.025121 46.713042 
L 356.725596 46.834023 
L 357.426912 46.957894 
L 358.127387 47.079012 
L 358.827863 47.200228 
L 359.529179 47.322482 
L 360.229654 47.446284 
L 360.930129 47.573999 
L 361.631445 47.705466 
L 362.33192 47.83603 
L 363.032395 47.967508 
L 363.733712 48.100713 
L 364.434187 48.178632 
L 365.134662 48.248616 
L 365.835978 48.316298 
L 366.536453 48.383559 
L 367.236928 48.449419 
L 367.938245 48.512911 
L 368.63872 48.573698 
L 369.339195 48.636176 
L 370.040511 48.698877 
L 370.740986 48.765002 
L 371.441461 48.82815 
L 372.142778 48.887245 
L 372.843253 48.871491 
L 373.543728 48.85576 
L 374.245044 48.837555 
L 374.945519 48.81541 
L 375.645994 48.792163 
L 376.347311 48.768326 
L 377.047786 48.744409 
L 377.748261 48.720427 
L 378.449577 48.69744 
L 379.150052 48.675092 
L 379.850527 48.651107 
L 380.551843 48.626966 
L 381.252319 48.580531 
L 381.952794 48.527094 
L 382.65411 48.47382 
L 383.354585 48.416864 
L 384.05506 48.296155 
L 384.756376 48.177467 
L 385.456852 48.063319 
L 386.157327 47.952912 
L 386.858643 47.845115 
L 387.559118 47.737082 
L 388.259593 47.627385 
L 388.960909 47.517992 
L 389.661385 47.547903 
L 390.36186 47.571139 
L 391.063176 47.583314 
L 391.763651 47.592514 
L 392.464126 47.601947 
L 393.165442 47.615383 
L 393.865918 47.631424 
L 394.566393 47.618237 
L 395.267709 47.614555 
L 395.968184 47.618205 
L 396.668659 47.629039 
L 397.369975 47.647328 
L 398.070451 47.694928 
L 398.770926 47.869185 
L 399.472242 48.030502 
L 400.172717 48.188051 
L 400.873192 48.344989 
L 401.574508 48.503018 
L 402.274984 48.660916 
L 402.975459 48.818673 
L 403.676775 48.976302 
L 404.37725 49.1316 
L 405.077725 49.286766 
L 405.779041 49.443767 
L 406.479517 49.600637 
L 407.179992 49.709443 
L 407.881308 49.817974 
L 408.581783 49.926237 
L 409.282258 50.034237 
L 409.983574 50.141974 
L 410.68405 50.249452 
L 411.384525 50.356679 
L 412.085841 50.46365 
L 412.786316 50.570378 
L 413.486791 50.676861 
L 414.188107 50.783103 
L 414.188107 26.435214 
L 414.188107 26.435214 
L 413.486791 26.436785 
L 412.786316 26.438597 
L 412.085841 26.440654 
L 411.384525 26.442955 
L 410.68405 26.44551 
L 409.983574 26.448318 
L 409.282258 26.451384 
L 408.581783 26.454713 
L 407.881308 26.458305 
L 407.179992 26.462166 
L 406.479517 26.466301 
L 405.779041 26.387318 
L 405.077725 26.308466 
L 404.37725 26.231022 
L 403.676775 26.153714 
L 402.975459 26.0739 
L 402.274984 25.994221 
L 401.574508 25.914675 
L 400.873192 25.835267 
L 400.172717 25.757389 
L 399.472242 25.679525 
L 398.770926 25.598304 
L 398.070451 25.496176 
L 397.369975 25.500275 
L 396.668659 25.535001 
L 395.968184 25.577851 
L 395.267709 25.627486 
L 394.566393 25.690068 
L 393.865918 25.756863 
L 393.165442 25.788962 
L 392.464126 25.822212 
L 391.763651 25.858539 
L 391.063176 25.895588 
L 390.36186 25.92971 
L 389.661385 25.955623 
L 388.960909 25.975635 
L 388.259593 26.13354 
L 387.559118 26.292184 
L 386.858643 26.447304 
L 386.157327 26.602418 
L 385.456852 26.760132 
L 384.756376 26.921065 
L 384.05506 27.085381 
L 383.354585 27.252257 
L 382.65411 27.355263 
L 381.952794 27.455185 
L 381.252319 27.554602 
L 380.551843 27.647185 
L 379.850527 27.717657 
L 379.150052 27.787989 
L 378.449577 27.856108 
L 377.748261 27.923785 
L 377.047786 27.991608 
L 376.347311 28.058427 
L 375.645994 28.125178 
L 374.945519 28.190642 
L 374.245044 28.254456 
L 373.543728 28.315629 
L 372.843253 28.374263 
L 372.142778 28.434345 
L 371.441461 28.41942 
L 370.740986 28.400875 
L 370.040511 28.378914 
L 369.339195 28.356944 
L 368.63872 28.335158 
L 367.938245 28.313315 
L 367.236928 28.288622 
L 366.536453 28.26158 
L 365.835978 28.232879 
L 365.134662 28.203678 
L 364.434187 28.17 
L 363.733712 28.125732 
L 363.032395 28.026117 
L 362.33192 27.92823 
L 361.631445 27.831207 
L 360.930129 27.733298 
L 360.229654 27.640758 
L 359.529179 27.552449 
L 358.827863 27.465114 
L 358.127387 27.378557 
L 357.426912 27.292132 
L 356.725596 27.202773 
L 356.025121 27.116041 
L 355.324646 27.035964 
L 354.62333 27.000599 
L 353.922854 26.965465 
L 353.222379 26.934512 
L 352.521063 26.906274 
L 351.820588 26.880707 
L 351.120113 26.85707 
L 350.418797 26.833537 
L 349.718321 26.811274 
L 349.017846 26.790695 
L 348.31653 26.77036 
L 347.616055 26.752119 
L 346.91558 26.73562 
L 346.214264 26.741052 
L 345.513788 26.748031 
L 344.813313 26.757209 
L 344.111997 26.769628 
L 343.411522 26.783568 
L 342.711047 26.801384 
L 342.009731 26.823337 
L 341.309255 26.84996 
L 340.60878 26.891713 
L 339.907464 26.935008 
L 339.206989 26.980431 
L 338.506514 27.029352 
L 337.805198 27.070182 
L 337.104722 27.110441 
L 336.404247 27.144454 
L 335.702931 27.174233 
L 335.002456 27.205405 
L 334.301981 27.241285 
L 333.600665 27.273275 
L 332.900189 27.302514 
L 332.199714 27.329871 
L 331.498398 27.35228 
L 330.797923 27.371559 
L 330.097448 27.390929 
L 329.396132 27.457077 
L 328.695656 27.524398 
L 327.995181 27.592294 
L 327.293865 27.660964 
L 326.59339 27.731376 
L 325.892915 27.818215 
L 325.191599 27.905855 
L 324.491124 27.993601 
L 323.790648 28.081496 
L 323.089332 28.168782 
L 322.388857 28.258111 
L 321.688382 28.349735 
L 320.987066 28.460535 
L 320.286591 28.571214 
L 319.586115 28.682874 
L 318.884799 28.796479 
L 318.184324 28.911657 
L 317.483849 29.027982 
L 316.782533 29.144482 
L 316.082058 29.261723 
L 315.381582 29.378253 
L 314.680266 29.492412 
L 313.979791 29.606003 
L 313.279316 29.719914 
L 312.578 29.800598 
L 311.877525 29.878097 
L 311.177049 29.971882 
L 310.475733 30.062881 
L 309.775258 30.152794 
L 309.074783 30.243088 
L 308.373467 30.329872 
L 307.672992 30.412096 
L 306.972516 30.488995 
L 306.2712 30.558664 
L 305.570725 30.621076 
L 304.87025 30.67702 
L 304.168934 30.716709 
L 303.468459 30.751909 
L 302.767983 30.782059 
L 302.066667 30.809394 
L 301.366192 30.839483 
L 300.665717 30.873186 
L 299.964401 30.906777 
L 299.263926 30.939383 
L 298.56345 30.973346 
L 297.862134 31.007447 
L 297.161659 31.045005 
L 296.461184 31.085769 
L 295.759868 31.126026 
L 295.059393 31.169049 
L 294.358917 31.214612 
L 293.657601 31.264907 
L 292.957126 31.320788 
L 292.256651 31.382562 
L 291.555335 31.449641 
L 290.85486 31.519652 
L 290.154385 31.586532 
L 289.453068 31.650993 
L 288.752593 31.715898 
L 288.052118 31.785377 
L 287.350802 31.870083 
L 286.650327 31.951525 
L 285.949852 32.033179 
L 285.248535 32.116519 
L 284.54806 32.205549 
L 283.847585 32.298481 
L 283.146269 32.390281 
L 282.445794 32.480402 
L 281.745319 32.567727 
L 281.044002 32.651613 
L 280.343527 32.732597 
L 279.643052 32.814218 
L 278.941736 32.898197 
L 278.241261 32.978192 
L 277.540786 33.055911 
L 276.839469 33.133326 
L 276.138994 33.212748 
L 275.438519 33.294758 
L 274.737203 33.37583 
L 274.036728 33.455526 
L 273.336253 33.532697 
L 272.634937 33.606876 
L 271.934461 33.680207 
L 271.233986 33.751636 
L 270.53267 33.82256 
L 269.832195 33.890901 
L 269.13172 33.957249 
L 268.430404 34.001997 
L 267.729928 34.04941 
L 267.029453 34.106242 
L 266.328137 34.164627 
L 265.627662 34.222035 
L 264.927187 34.274275 
L 264.225871 34.324513 
L 263.525395 34.38287 
L 262.82492 34.446431 
L 262.123604 34.541093 
L 261.423129 34.635835 
L 260.722654 34.730659 
L 260.021338 34.825566 
L 259.320862 34.920554 
L 258.620387 34.999107 
L 257.919071 35.077753 
L 257.218596 35.162373 
L 256.518121 35.24709 
L 255.816805 35.331895 
L 255.116329 35.4168 
L 254.415854 35.501805 
L 253.714538 35.579137 
L 253.014063 35.656577 
L 252.313588 35.734117 
L 251.612272 35.811765 
L 250.911796 35.889514 
L 250.211321 35.967373 
L 249.510005 36.045341 
L 248.80953 36.123417 
L 248.109055 36.201605 
L 247.407739 36.279902 
L 246.707263 36.358315 
L 246.006788 36.436845 
L 245.305472 36.49761 
L 244.604997 36.558487 
L 243.904522 36.619482 
L 243.203206 36.680595 
L 242.50273 36.741828 
L 241.802255 36.80318 
L 241.100939 36.864655 
L 240.400464 36.926256 
L 239.699989 36.98798 
L 238.998673 37.049836 
L 238.298198 37.111818 
L 237.597722 37.173934 
L 236.896406 37.240104 
L 236.195931 37.306424 
L 235.495456 37.372897 
L 234.79414 37.43953 
L 234.093665 37.506319 
L 233.393189 37.573273 
L 232.691873 37.640388 
L 231.991398 37.707673 
L 231.290923 37.775129 
L 230.589607 37.842754 
L 229.889132 37.910557 
L 229.188656 37.978539 
L 228.48734 38.05653 
L 227.786865 38.134698 
L 227.08639 38.213045 
L 226.385074 38.291573 
L 225.684599 38.37029 
L 224.984123 38.449196 
L 224.282807 38.528295 
L 223.582332 38.60759 
L 222.881857 38.687086 
L 222.180541 38.766785 
L 221.480066 38.846692 
L 220.77959 38.926813 
L 220.078274 39.022704 
L 219.377799 39.118808 
L 218.677324 39.215129 
L 217.976008 39.311678 
L 217.275533 39.408455 
L 216.575057 39.505461 
L 215.873741 39.602712 
L 215.173266 39.700202 
L 214.472791 39.797941 
L 213.771475 39.895934 
L 213.071 39.994189 
L 212.370524 40.092707 
L 211.669208 40.158344 
L 210.968733 40.224275 
L 210.268258 40.290512 
L 209.566942 40.35706 
L 208.866467 40.423929 
L 208.165991 40.491123 
L 207.464675 40.501472 
L 206.7642 40.512172 
L 206.063725 40.523228 
L 205.362409 40.534648 
L 204.661934 40.54645 
L 203.961458 40.558639 
L 203.260142 40.551334 
L 202.559667 40.544427 
L 201.859192 40.537931 
L 201.157876 40.531863 
L 200.457401 40.52623 
L 199.756926 40.521053 
L 199.055609 40.516342 
L 198.355134 40.462469 
L 197.654659 40.409094 
L 196.953343 40.356248 
L 196.252868 40.30394 
L 195.552393 40.252194 
L 194.851076 40.191408 
L 194.150601 40.131197 
L 193.450126 40.071587 
L 192.74881 40.012602 
L 192.048335 39.954267 
L 191.34786 39.896614 
L 190.646543 39.839672 
L 189.946068 39.783468 
L 189.245593 39.728045 
L 188.544277 39.673436 
L 187.843802 39.61968 
L 187.143327 39.566829 
L 186.44201 39.515319 
L 185.741535 39.464887 
L 185.04106 39.415595 
L 184.339744 39.367521 
L 183.639269 39.320744 
L 182.938794 39.275348 
L 182.237478 39.231439 
L 181.537002 39.189126 
L 180.836527 39.148538 
L 180.135211 39.109825 
L 179.434736 39.073144 
L 178.734261 39.038698 
L 178.032945 39.065672 
L 177.332469 39.095185 
L 176.631994 39.127533 
L 175.930678 39.163063 
L 175.230203 39.202195 
L 174.529728 39.245457 
L 173.828412 39.293517 
L 173.127936 39.271841 
L 172.427461 39.272571 
L 171.726145 39.60906 
L 171.02567 40.016956 
z
" clip-path="url(#p888fbcc2ba)" style="fill: #02818a; fill-opacity: 0.25"/>
   </g>
   <g id="matplotlib.axis_1">
    <g id="xtick_1">
     <g id="line2d_1">
      <defs>
       <path id="m85ef6c301e" d="M 0 0 
L 0 3.5 
" style="stroke: #000000; stroke-width: 0.8"/>
      </defs>
      <g>
       <use xlink:href="#m85ef6c301e" x="70.116878" y="186.84327" style="stroke: #000000; stroke-width: 0.8"/>
      </g>
     </g>
     <g id="text_1">
      <!-- 1980 -->
      <g transform="translate(57.391878 201.441708)scale(0.1 -0.1)">
       <defs>
        <path id="DejaVuSans-31" d="M 794 531 
L 1825 531 
L 1825 4091 
L 703 3866 
L 703 4441 
L 1819 4666 
L 2450 4666 
L 2450 531 
L 3481 531 
L 3481 0 
L 794 0 
L 794 531 
z
" transform="scale(0.015625)"/>
        <path id="DejaVuSans-39" d="M 703 97 
L 703 672 
Q 941 559 1184 500 
Q 1428 441 1663 441 
Q 2288 441 2617 861 
Q 2947 1281 2994 2138 
Q 2813 1869 2534 1725 
Q 2256 1581 1919 1581 
Q 1219 1581 811 2004 
Q 403 2428 403 3163 
Q 403 3881 828 4315 
Q 1253 4750 1959 4750 
Q 2769 4750 3195 4129 
Q 3622 3509 3622 2328 
Q 3622 1225 3098 567 
Q 2575 -91 1691 -91 
Q 1453 -91 1209 -44 
Q 966 3 703 97 
z
M 1959 2075 
Q 2384 2075 2632 2365 
Q 2881 2656 2881 3163 
Q 2881 3666 2632 3958 
Q 2384 4250 1959 4250 
Q 1534 4250 1286 3958 
Q 1038 3666 1038 3163 
Q 1038 2656 1286 2365 
Q 1534 2075 1959 2075 
z
" transform="scale(0.015625)"/>
        <path id="DejaVuSans-38" d="M 2034 2216 
Q 1584 2216 1326 1975 
Q 1069 1734 1069 1313 
Q 1069 891 1326 650 
Q 1584 409 2034 409 
Q 2484 409 2743 651 
Q 3003 894 3003 1313 
Q 3003 1734 2745 1975 
Q 2488 2216 2034 2216 
z
M 1403 2484 
Q 997 2584 770 2862 
Q 544 3141 544 3541 
Q 544 4100 942 4425 
Q 1341 4750 2034 4750 
Q 2731 4750 3128 4425 
Q 3525 4100 3525 3541 
Q 3525 3141 3298 2862 
Q 3072 2584 2669 2484 
Q 3125 2378 3379 2068 
Q 3634 1759 3634 1313 
Q 3634 634 3220 271 
Q 2806 -91 2034 -91 
Q 1263 -91 848 271 
Q 434 634 434 1313 
Q 434 1759 690 2068 
Q 947 2378 1403 2484 
z
M 1172 3481 
Q 1172 3119 1398 2916 
Q 1625 2713 2034 2713 
Q 2441 2713 2670 2916 
Q 2900 3119 2900 3481 
Q 2900 3844 2670 4047 
Q 2441 4250 2034 4250 
Q 1625 4250 1398 4047 
Q 1172 3844 1172 3481 
z
" transform="scale(0.015625)"/>
        <path id="DejaVuSans-30" d="M 2034 4250 
Q 1547 4250 1301 3770 
Q 1056 3291 1056 2328 
Q 1056 1369 1301 889 
Q 1547 409 2034 409 
Q 2525 409 2770 889 
Q 3016 1369 3016 2328 
Q 3016 3291 2770 3770 
Q 2525 4250 2034 4250 
z
M 2034 4750 
Q 2819 4750 3233 4129 
Q 3647 3509 3647 2328 
Q 3647 1150 3233 529 
Q 2819 -91 2034 -91 
Q 1250 -91 836 529 
Q 422 1150 422 2328 
Q 422 3509 836 4129 
Q 1250 4750 2034 4750 
z
" transform="scale(0.015625)"/>
       </defs>
       <use xlink:href="#DejaVuSans-31"/>
       <use xlink:href="#DejaVuSans-39" x="63.623047"/>
       <use xlink:href="#DejaVuSans-38" x="127.246094"/>
       <use xlink:href="#DejaVuSans-30" x="190.869141"/>
      </g>
     </g>
    </g>
    <g id="xtick_2">
     <g id="line2d_2">
      <g>
       <use xlink:href="#m85ef6c301e" x="112.162208" y="186.84327" style="stroke: #000000; stroke-width: 0.8"/>
      </g>
     </g>
     <g id="text_2">
      <!-- 1985 -->
      <g transform="translate(99.437208 201.441708)scale(0.1 -0.1)">
       <defs>
        <path id="DejaVuSans-35" d="M 691 4666 
L 3169 4666 
L 3169 4134 
L 1269 4134 
L 1269 2991 
Q 1406 3038 1543 3061 
Q 1681 3084 1819 3084 
Q 2600 3084 3056 2656 
Q 3513 2228 3513 1497 
Q 3513 744 3044 326 
Q 2575 -91 1722 -91 
Q 1428 -91 1123 -41 
Q 819 9 494 109 
L 494 744 
Q 775 591 1075 516 
Q 1375 441 1709 441 
Q 2250 441 2565 725 
Q 2881 1009 2881 1497 
Q 2881 1984 2565 2268 
Q 2250 2553 1709 2553 
Q 1456 2553 1204 2497 
Q 953 2441 691 2322 
L 691 4666 
z
" transform="scale(0.015625)"/>
       </defs>
       <use xlink:href="#DejaVuSans-31"/>
       <use xlink:href="#DejaVuSans-39" x="63.623047"/>
       <use xlink:href="#DejaVuSans-38" x="127.246094"/>
       <use xlink:href="#DejaVuSans-35" x="190.869141"/>
      </g>
     </g>
    </g>
    <g id="xtick_3">
     <g id="line2d_3">
      <g>
       <use xlink:href="#m85ef6c301e" x="154.207538" y="186.84327" style="stroke: #000000; stroke-width: 0.8"/>
      </g>
     </g>
     <g id="text_3">
      <!-- 1990 -->
      <g transform="translate(141.482538 201.441708)scale(0.1 -0.1)">
       <use xlink:href="#DejaVuSans-31"/>
       <use xlink:href="#DejaVuSans-39" x="63.623047"/>
       <use xlink:href="#DejaVuSans-39" x="127.246094"/>
       <use xlink:href="#DejaVuSans-30" x="190.869141"/>
      </g>
     </g>
    </g>
    <g id="xtick_4">
     <g id="line2d_4">
      <g>
       <use xlink:href="#m85ef6c301e" x="196.252868" y="186.84327" style="stroke: #000000; stroke-width: 0.8"/>
      </g>
     </g>
     <g id="text_4">
      <!-- 1995 -->
      <g transform="translate(183.527868 201.441708)scale(0.1 -0.1)">
       <use xlink:href="#DejaVuSans-31"/>
       <use xlink:href="#DejaVuSans-39" x="63.623047"/>
       <use xlink:href="#DejaVuSans-39" x="127.246094"/>
       <use xlink:href="#DejaVuSans-35" x="190.869141"/>
      </g>
     </g>
    </g>
    <g id="xtick_5">
     <g id="line2d_5">
      <g>
       <use xlink:href="#m85ef6c301e" x="238.298198" y="186.84327" style="stroke: #000000; stroke-width: 0.8"/>
      </g>
     </g>
     <g id="text_5">
      <!-- 2000 -->
      <g transform="translate(225.573198 201.441708)scale(0.1 -0.1)">
       <defs>
        <path id="DejaVuSans-32" d="M 1228 531 
L 3431 531 
L 3431 0 
L 469 0 
L 469 531 
Q 828 903 1448 1529 
Q 2069 2156 2228 2338 
Q 2531 2678 2651 2914 
Q 2772 3150 2772 3378 
Q 2772 3750 2511 3984 
Q 2250 4219 1831 4219 
Q 1534 4219 1204 4116 
Q 875 4013 500 3803 
L 500 4441 
Q 881 4594 1212 4672 
Q 1544 4750 1819 4750 
Q 2544 4750 2975 4387 
Q 3406 4025 3406 3419 
Q 3406 3131 3298 2873 
Q 3191 2616 2906 2266 
Q 2828 2175 2409 1742 
Q 1991 1309 1228 531 
z
" transform="scale(0.015625)"/>
       </defs>
       <use xlink:href="#DejaVuSans-32"/>
       <use xlink:href="#DejaVuSans-30" x="63.623047"/>
       <use xlink:href="#DejaVuSans-30" x="127.246094"/>
       <use xlink:href="#DejaVuSans-30" x="190.869141"/>
      </g>
     </g>
    </g>
    <g id="xtick_6">
     <g id="line2d_6">
      <g>
       <use xlink:href="#m85ef6c301e" x="280.343527" y="186.84327" style="stroke: #000000; stroke-width: 0.8"/>
      </g>
     </g>
     <g id="text_6">
      <!-- 2005 -->
      <g transform="translate(267.618527 201.441708)scale(0.1 -0.1)">
       <use xlink:href="#DejaVuSans-32"/>
       <use xlink:href="#DejaVuSans-30" x="63.623047"/>
       <use xlink:href="#DejaVuSans-30" x="127.246094"/>
       <use xlink:href="#DejaVuSans-35" x="190.869141"/>
      </g>
     </g>
    </g>
    <g id="xtick_7">
     <g id="line2d_7">
      <g>
       <use xlink:href="#m85ef6c301e" x="322.388857" y="186.84327" style="stroke: #000000; stroke-width: 0.8"/>
      </g>
     </g>
     <g id="text_7">
      <!-- 2010 -->
      <g transform="translate(309.663857 201.441708)scale(0.1 -0.1)">
       <use xlink:href="#DejaVuSans-32"/>
       <use xlink:href="#DejaVuSans-30" x="63.623047"/>
       <use xlink:href="#DejaVuSans-31" x="127.246094"/>
       <use xlink:href="#DejaVuSans-30" x="190.869141"/>
      </g>
     </g>
    </g>
    <g id="xtick_8">
     <g id="line2d_8">
      <g>
       <use xlink:href="#m85ef6c301e" x="364.434187" y="186.84327" style="stroke: #000000; stroke-width: 0.8"/>
      </g>
     </g>
     <g id="text_8">
      <!-- 2015 -->
      <g transform="translate(351.709187 201.441708)scale(0.1 -0.1)">
       <use xlink:href="#DejaVuSans-32"/>
       <use xlink:href="#DejaVuSans-30" x="63.623047"/>
       <use xlink:href="#DejaVuSans-31" x="127.246094"/>
       <use xlink:href="#DejaVuSans-35" x="190.869141"/>
      </g>
     </g>
    </g>
    <g id="xtick_9">
     <g id="line2d_9">
      <g>
       <use xlink:href="#m85ef6c301e" x="406.479517" y="186.84327" style="stroke: #000000; stroke-width: 0.8"/>
      </g>
     </g>
     <g id="text_9">
      <!-- 2020 -->
      <g transform="translate(393.754517 201.441708)scale(0.1 -0.1)">
       <use xlink:href="#DejaVuSans-32"/>
       <use xlink:href="#DejaVuSans-30" x="63.623047"/>
       <use xlink:href="#DejaVuSans-32" x="127.246094"/>
       <use xlink:href="#DejaVuSans-30" x="190.869141"/>
      </g>
     </g>
    </g>
    <g id="text_10">
     <!-- Year -->
     <g transform="translate(227.710698 215.119833)scale(0.1 -0.1)">
      <defs>
       <path id="DejaVuSans-59" d="M -13 4666 
L 666 4666 
L 1959 2747 
L 3244 4666 
L 3922 4666 
L 2272 2222 
L 2272 0 
L 1638 0 
L 1638 2222 
L -13 4666 
z
" transform="scale(0.015625)"/>
       <path id="DejaVuSans-65" d="M 3597 1894 
L 3597 1613 
L 953 1613 
Q 991 1019 1311 708 
Q 1631 397 2203 397 
Q 2534 397 2845 478 
Q 3156 559 3463 722 
L 3463 178 
Q 3153 47 2828 -22 
Q 2503 -91 2169 -91 
Q 1331 -91 842 396 
Q 353 884 353 1716 
Q 353 2575 817 3079 
Q 1281 3584 2069 3584 
Q 2775 3584 3186 3129 
Q 3597 2675 3597 1894 
z
M 3022 2063 
Q 3016 2534 2758 2815 
Q 2500 3097 2075 3097 
Q 1594 3097 1305 2825 
Q 1016 2553 972 2059 
L 3022 2063 
z
" transform="scale(0.015625)"/>
       <path id="DejaVuSans-61" d="M 2194 1759 
Q 1497 1759 1228 1600 
Q 959 1441 959 1056 
Q 959 750 1161 570 
Q 1363 391 1709 391 
Q 2188 391 2477 730 
Q 2766 1069 2766 1631 
L 2766 1759 
L 2194 1759 
z
M 3341 1997 
L 3341 0 
L 2766 0 
L 2766 531 
Q 2569 213 2275 61 
Q 1981 -91 1556 -91 
Q 1019 -91 701 211 
Q 384 513 384 1019 
Q 384 1609 779 1909 
Q 1175 2209 1959 2209 
L 2766 2209 
L 2766 2266 
Q 2766 2663 2505 2880 
Q 2244 3097 1772 3097 
Q 1472 3097 1187 3025 
Q 903 2953 641 2809 
L 641 3341 
Q 956 3463 1253 3523 
Q 1550 3584 1831 3584 
Q 2591 3584 2966 3190 
Q 3341 2797 3341 1997 
z
" transform="scale(0.015625)"/>
       <path id="DejaVuSans-72" d="M 2631 2963 
Q 2534 3019 2420 3045 
Q 2306 3072 2169 3072 
Q 1681 3072 1420 2755 
Q 1159 2438 1159 1844 
L 1159 0 
L 581 0 
L 581 3500 
L 1159 3500 
L 1159 2956 
Q 1341 3275 1631 3429 
Q 1922 3584 2338 3584 
Q 2397 3584 2469 3576 
Q 2541 3569 2628 3553 
L 2631 2963 
z
" transform="scale(0.015625)"/>
      </defs>
      <use xlink:href="#DejaVuSans-59"/>
      <use xlink:href="#DejaVuSans-65" x="47.833984"/>
      <use xlink:href="#DejaVuSans-61" x="109.357422"/>
      <use xlink:href="#DejaVuSans-72" x="170.636719"/>
     </g>
    </g>
   </g>
   <g id="matplotlib.axis_2">
    <g id="ytick_1">
     <g id="line2d_10">
      <defs>
       <path id="m0ac1558f38" d="M 0 0 
L -3.5 0 
" style="stroke: #000000; stroke-width: 0.8"/>
      </defs>
      <g>
       <use xlink:href="#m0ac1558f38" x="61.707813" y="186.84327" style="stroke: #000000; stroke-width: 0.8"/>
      </g>
     </g>
     <g id="text_11">
      <!-- 5000 -->
      <g transform="translate(20.878125 190.642489)scale(0.1 -0.1)">
       <defs>
        <path id="DejaVuSans-2212" d="M 678 2272 
L 4684 2272 
L 4684 1741 
L 678 1741 
L 678 2272 
z
" transform="scale(0.015625)"/>
       </defs>
       <use xlink:href="#DejaVuSans-2212"/>
       <use xlink:href="#DejaVuSans-35" x="83.789062"/>
       <use xlink:href="#DejaVuSans-30" x="147.412109"/>
       <use xlink:href="#DejaVuSans-30" x="211.035156"/>
       <use xlink:href="#DejaVuSans-30" x="274.658203"/>
      </g>
     </g>
    </g>
    <g id="ytick_2">
     <g id="line2d_11">
      <g>
       <use xlink:href="#m0ac1558f38" x="61.707813" y="159.422413" style="stroke: #000000; stroke-width: 0.8"/>
      </g>
     </g>
     <g id="text_12">
      <!-- 4000 -->
      <g transform="translate(20.878125 163.221631)scale(0.1 -0.1)">
       <defs>
        <path id="DejaVuSans-34" d="M 2419 4116 
L 825 1625 
L 2419 1625 
L 2419 4116 
z
M 2253 4666 
L 3047 4666 
L 3047 1625 
L 3713 1625 
L 3713 1100 
L 3047 1100 
L 3047 0 
L 2419 0 
L 2419 1100 
L 313 1100 
L 313 1709 
L 2253 4666 
z
" transform="scale(0.015625)"/>
       </defs>
       <use xlink:href="#DejaVuSans-2212"/>
       <use xlink:href="#DejaVuSans-34" x="83.789062"/>
       <use xlink:href="#DejaVuSans-30" x="147.412109"/>
       <use xlink:href="#DejaVuSans-30" x="211.035156"/>
       <use xlink:href="#DejaVuSans-30" x="274.658203"/>
      </g>
     </g>
    </g>
    <g id="ytick_3">
     <g id="line2d_12">
      <g>
       <use xlink:href="#m0ac1558f38" x="61.707813" y="132.001555" style="stroke: #000000; stroke-width: 0.8"/>
      </g>
     </g>
     <g id="text_13">
      <!-- 3000 -->
      <g transform="translate(20.878125 135.800774)scale(0.1 -0.1)">
       <defs>
        <path id="DejaVuSans-33" d="M 2597 2516 
Q 3050 2419 3304 2112 
Q 3559 1806 3559 1356 
Q 3559 666 3084 287 
Q 2609 -91 1734 -91 
Q 1441 -91 1130 -33 
Q 819 25 488 141 
L 488 750 
Q 750 597 1062 519 
Q 1375 441 1716 441 
Q 2309 441 2620 675 
Q 2931 909 2931 1356 
Q 2931 1769 2642 2001 
Q 2353 2234 1838 2234 
L 1294 2234 
L 1294 2753 
L 1863 2753 
Q 2328 2753 2575 2939 
Q 2822 3125 2822 3475 
Q 2822 3834 2567 4026 
Q 2313 4219 1838 4219 
Q 1578 4219 1281 4162 
Q 984 4106 628 3988 
L 628 4550 
Q 988 4650 1302 4700 
Q 1616 4750 1894 4750 
Q 2613 4750 3031 4423 
Q 3450 4097 3450 3541 
Q 3450 3153 3228 2886 
Q 3006 2619 2597 2516 
z
" transform="scale(0.015625)"/>
       </defs>
       <use xlink:href="#DejaVuSans-2212"/>
       <use xlink:href="#DejaVuSans-33" x="83.789062"/>
       <use xlink:href="#DejaVuSans-30" x="147.412109"/>
       <use xlink:href="#DejaVuSans-30" x="211.035156"/>
       <use xlink:href="#DejaVuSans-30" x="274.658203"/>
      </g>
     </g>
    </g>
    <g id="ytick_4">
     <g id="line2d_13">
      <g>
       <use xlink:href="#m0ac1558f38" x="61.707813" y="104.580698" style="stroke: #000000; stroke-width: 0.8"/>
      </g>
     </g>
     <g id="text_14">
      <!-- 2000 -->
      <g transform="translate(20.878125 108.379916)scale(0.1 -0.1)">
       <use xlink:href="#DejaVuSans-2212"/>
       <use xlink:href="#DejaVuSans-32" x="83.789062"/>
       <use xlink:href="#DejaVuSans-30" x="147.412109"/>
       <use xlink:href="#DejaVuSans-30" x="211.035156"/>
       <use xlink:href="#DejaVuSans-30" x="274.658203"/>
      </g>
     </g>
    </g>
    <g id="ytick_5">
     <g id="line2d_14">
      <g>
       <use xlink:href="#m0ac1558f38" x="61.707813" y="77.15984" style="stroke: #000000; stroke-width: 0.8"/>
      </g>
     </g>
     <g id="text_15">
      <!-- 1000 -->
      <g transform="translate(20.878125 80.959059)scale(0.1 -0.1)">
       <use xlink:href="#DejaVuSans-2212"/>
       <use xlink:href="#DejaVuSans-31" x="83.789062"/>
       <use xlink:href="#DejaVuSans-30" x="147.412109"/>
       <use xlink:href="#DejaVuSans-30" x="211.035156"/>
       <use xlink:href="#DejaVuSans-30" x="274.658203"/>
      </g>
     </g>
    </g>
    <g id="ytick_6">
     <g id="line2d_15">
      <g>
       <use xlink:href="#m0ac1558f38" x="61.707813" y="49.738983" style="stroke: #000000; stroke-width: 0.8"/>
      </g>
     </g>
     <g id="text_16">
      <!-- 0 -->
      <g transform="translate(48.345313 53.538201)scale(0.1 -0.1)">
       <use xlink:href="#DejaVuSans-30"/>
      </g>
     </g>
    </g>
    <g id="ytick_7">
     <g id="line2d_16">
      <g>
       <use xlink:href="#m0ac1558f38" x="61.707813" y="22.318125" style="stroke: #000000; stroke-width: 0.8"/>
      </g>
     </g>
     <g id="text_17">
      <!-- 1000 -->
      <g transform="translate(29.257812 26.117344)scale(0.1 -0.1)">
       <use xlink:href="#DejaVuSans-31"/>
       <use xlink:href="#DejaVuSans-30" x="63.623047"/>
       <use xlink:href="#DejaVuSans-30" x="127.246094"/>
       <use xlink:href="#DejaVuSans-30" x="190.869141"/>
      </g>
     </g>
    </g>
    <g id="text_18">
     <!-- Mass change [Gt] -->
     <g transform="translate(14.798438 148.483823)rotate(-90)scale(0.1 -0.1)">
      <defs>
       <path id="DejaVuSans-4d" d="M 628 4666 
L 1569 4666 
L 2759 1491 
L 3956 4666 
L 4897 4666 
L 4897 0 
L 4281 0 
L 4281 4097 
L 3078 897 
L 2444 897 
L 1241 4097 
L 1241 0 
L 628 0 
L 628 4666 
z
" transform="scale(0.015625)"/>
       <path id="DejaVuSans-73" d="M 2834 3397 
L 2834 2853 
Q 2591 2978 2328 3040 
Q 2066 3103 1784 3103 
Q 1356 3103 1142 2972 
Q 928 2841 928 2578 
Q 928 2378 1081 2264 
Q 1234 2150 1697 2047 
L 1894 2003 
Q 2506 1872 2764 1633 
Q 3022 1394 3022 966 
Q 3022 478 2636 193 
Q 2250 -91 1575 -91 
Q 1294 -91 989 -36 
Q 684 19 347 128 
L 347 722 
Q 666 556 975 473 
Q 1284 391 1588 391 
Q 1994 391 2212 530 
Q 2431 669 2431 922 
Q 2431 1156 2273 1281 
Q 2116 1406 1581 1522 
L 1381 1569 
Q 847 1681 609 1914 
Q 372 2147 372 2553 
Q 372 3047 722 3315 
Q 1072 3584 1716 3584 
Q 2034 3584 2315 3537 
Q 2597 3491 2834 3397 
z
" transform="scale(0.015625)"/>
       <path id="DejaVuSans-20" transform="scale(0.015625)"/>
       <path id="DejaVuSans-63" d="M 3122 3366 
L 3122 2828 
Q 2878 2963 2633 3030 
Q 2388 3097 2138 3097 
Q 1578 3097 1268 2742 
Q 959 2388 959 1747 
Q 959 1106 1268 751 
Q 1578 397 2138 397 
Q 2388 397 2633 464 
Q 2878 531 3122 666 
L 3122 134 
Q 2881 22 2623 -34 
Q 2366 -91 2075 -91 
Q 1284 -91 818 406 
Q 353 903 353 1747 
Q 353 2603 823 3093 
Q 1294 3584 2113 3584 
Q 2378 3584 2631 3529 
Q 2884 3475 3122 3366 
z
" transform="scale(0.015625)"/>
       <path id="DejaVuSans-68" d="M 3513 2113 
L 3513 0 
L 2938 0 
L 2938 2094 
Q 2938 2591 2744 2837 
Q 2550 3084 2163 3084 
Q 1697 3084 1428 2787 
Q 1159 2491 1159 1978 
L 1159 0 
L 581 0 
L 581 4863 
L 1159 4863 
L 1159 2956 
Q 1366 3272 1645 3428 
Q 1925 3584 2291 3584 
Q 2894 3584 3203 3211 
Q 3513 2838 3513 2113 
z
" transform="scale(0.015625)"/>
       <path id="DejaVuSans-6e" d="M 3513 2113 
L 3513 0 
L 2938 0 
L 2938 2094 
Q 2938 2591 2744 2837 
Q 2550 3084 2163 3084 
Q 1697 3084 1428 2787 
Q 1159 2491 1159 1978 
L 1159 0 
L 581 0 
L 581 3500 
L 1159 3500 
L 1159 2956 
Q 1366 3272 1645 3428 
Q 1925 3584 2291 3584 
Q 2894 3584 3203 3211 
Q 3513 2838 3513 2113 
z
" transform="scale(0.015625)"/>
       <path id="DejaVuSans-67" d="M 2906 1791 
Q 2906 2416 2648 2759 
Q 2391 3103 1925 3103 
Q 1463 3103 1205 2759 
Q 947 2416 947 1791 
Q 947 1169 1205 825 
Q 1463 481 1925 481 
Q 2391 481 2648 825 
Q 2906 1169 2906 1791 
z
M 3481 434 
Q 3481 -459 3084 -895 
Q 2688 -1331 1869 -1331 
Q 1566 -1331 1297 -1286 
Q 1028 -1241 775 -1147 
L 775 -588 
Q 1028 -725 1275 -790 
Q 1522 -856 1778 -856 
Q 2344 -856 2625 -561 
Q 2906 -266 2906 331 
L 2906 616 
Q 2728 306 2450 153 
Q 2172 0 1784 0 
Q 1141 0 747 490 
Q 353 981 353 1791 
Q 353 2603 747 3093 
Q 1141 3584 1784 3584 
Q 2172 3584 2450 3431 
Q 2728 3278 2906 2969 
L 2906 3500 
L 3481 3500 
L 3481 434 
z
" transform="scale(0.015625)"/>
       <path id="DejaVuSans-5b" d="M 550 4863 
L 1875 4863 
L 1875 4416 
L 1125 4416 
L 1125 -397 
L 1875 -397 
L 1875 -844 
L 550 -844 
L 550 4863 
z
" transform="scale(0.015625)"/>
       <path id="DejaVuSans-47" d="M 3809 666 
L 3809 1919 
L 2778 1919 
L 2778 2438 
L 4434 2438 
L 4434 434 
Q 4069 175 3628 42 
Q 3188 -91 2688 -91 
Q 1594 -91 976 548 
Q 359 1188 359 2328 
Q 359 3472 976 4111 
Q 1594 4750 2688 4750 
Q 3144 4750 3555 4637 
Q 3966 4525 4313 4306 
L 4313 3634 
Q 3963 3931 3569 4081 
Q 3175 4231 2741 4231 
Q 1884 4231 1454 3753 
Q 1025 3275 1025 2328 
Q 1025 1384 1454 906 
Q 1884 428 2741 428 
Q 3075 428 3337 486 
Q 3600 544 3809 666 
z
" transform="scale(0.015625)"/>
       <path id="DejaVuSans-74" d="M 1172 4494 
L 1172 3500 
L 2356 3500 
L 2356 3053 
L 1172 3053 
L 1172 1153 
Q 1172 725 1289 603 
Q 1406 481 1766 481 
L 2356 481 
L 2356 0 
L 1766 0 
Q 1100 0 847 248 
Q 594 497 594 1153 
L 594 3053 
L 172 3053 
L 172 3500 
L 594 3500 
L 594 4494 
L 1172 4494 
z
" transform="scale(0.015625)"/>
       <path id="DejaVuSans-5d" d="M 1947 4863 
L 1947 -844 
L 622 -844 
L 622 -397 
L 1369 -397 
L 1369 4416 
L 622 4416 
L 622 4863 
L 1947 4863 
z
" transform="scale(0.015625)"/>
      </defs>
      <use xlink:href="#DejaVuSans-4d"/>
      <use xlink:href="#DejaVuSans-61" x="86.279297"/>
      <use xlink:href="#DejaVuSans-73" x="147.558594"/>
      <use xlink:href="#DejaVuSans-73" x="199.658203"/>
      <use xlink:href="#DejaVuSans-20" x="251.757812"/>
      <use xlink:href="#DejaVuSans-63" x="283.544922"/>
      <use xlink:href="#DejaVuSans-68" x="338.525391"/>
      <use xlink:href="#DejaVuSans-61" x="401.904297"/>
      <use xlink:href="#DejaVuSans-6e" x="463.183594"/>
      <use xlink:href="#DejaVuSans-67" x="526.5625"/>
      <use xlink:href="#DejaVuSans-65" x="590.039062"/>
      <use xlink:href="#DejaVuSans-20" x="651.5625"/>
      <use xlink:href="#DejaVuSans-5b" x="683.349609"/>
      <use xlink:href="#DejaVuSans-47" x="722.363281"/>
      <use xlink:href="#DejaVuSans-74" x="799.853516"/>
      <use xlink:href="#DejaVuSans-5d" x="839.0625"/>
     </g>
    </g>
   </g>
   <g id="line2d_17">
    <path d="M 61.707813 49.494773 
L 81.328966 42.543722 
L 84.832744 41.035674 
L 91.139543 38.841485 
L 93.24181 38.327139 
L 96.044832 37.957734 
L 101.650876 37.404228 
L 107.25692 37.24784 
L 111.461453 36.988361 
L 115.665986 36.722019 
L 119.169763 36.467534 
L 126.177318 36.24409 
L 128.98034 36.531508 
L 133.885629 37.324226 
L 135.987895 37.917292 
L 145.798472 41.095025 
L 147.900739 41.601108 
L 151.404516 42.164461 
L 154.207538 42.489191 
L 156.309804 42.477245 
L 165.419626 41.57227 
L 174.529447 40.267668 
L 177.332469 39.984701 
L 181.537002 39.909033 
L 184.340024 39.946786 
L 186.442291 40.243305 
L 194.851357 41.848721 
L 197.654379 42.228799 
L 199.756645 42.287545 
L 210.267978 42.210094 
L 212.370244 42.546502 
L 220.77931 44.372984 
L 224.283088 45.262962 
L 236.896687 48.051667 
L 240.400464 48.922496 
L 243.203486 49.360946 
L 246.006508 49.552435 
L 248.108774 49.465259 
L 250.211041 49.169712 
L 260.722373 47.335506 
L 262.82464 47.270273 
L 267.729928 47.450539 
L 270.53295 47.790619 
L 274.036728 48.196614 
L 278.241261 48.316631 
L 281.745038 48.320031 
L 288.051838 48.090904 
L 295.059393 48.349997 
L 297.862415 48.867916 
L 306.271481 50.684703 
L 308.373747 50.78702 
L 310.476014 50.617133 
L 314.680547 50.033808 
L 318.88508 49.179448 
L 322.388857 48.603835 
L 328.695656 47.890294 
L 332.900189 47.6836 
L 339.907744 46.861397 
L 344.813033 46.722986 
L 347.616055 46.933444 
L 352.521343 47.531275 
L 355.324365 48.218924 
L 359.528898 49.296133 
L 363.032676 50.194682 
L 366.536453 51.100364 
L 369.339475 51.511613 
L 373.544008 51.929228 
L 376.34703 51.942828 
L 379.150052 51.954314 
L 384.756096 52.092249 
L 387.559118 52.16749 
L 395.968184 52.969535 
L 402.274984 53.931375 
L 409.282539 54.638281 
L 423.297648 54.608188 
L 423.297648 54.608188 
" clip-path="url(#p888fbcc2ba)" style="fill: none; stroke: #d0d1e6; stroke-width: 1.5; stroke-linecap: square"/>
   </g>
   <g id="line2d_18">
    <path d="M 171.02567 40.757868 
L 172.427461 40.735786 
L 173.828412 41.326417 
L 176.631994 41.852968 
L 182.237478 42.651906 
L 184.339744 42.92752 
L 186.44201 42.9523 
L 195.552393 42.603284 
L 197.654659 42.631702 
L 208.165991 43.432291 
L 210.268258 43.255311 
L 212.370524 42.831051 
L 220.77959 40.241924 
L 224.984123 38.917313 
L 237.597722 35.35512 
L 240.400464 34.539256 
L 243.203206 33.962145 
L 246.006788 33.631996 
L 248.109055 33.562841 
L 250.211321 33.702057 
L 259.320862 34.646367 
L 261.423129 34.641792 
L 269.13172 33.970125 
L 274.737203 32.97299 
L 281.044002 32.382333 
L 292.957126 31.632914 
L 295.059393 31.373713 
L 297.862134 30.787226 
L 306.972516 28.687554 
L 309.074783 28.53192 
L 312.578 28.630762 
L 323.089332 29.22252 
L 329.396132 29.364841 
L 331.498398 29.386806 
L 334.301981 29.682133 
L 337.805198 30.091117 
L 342.009731 30.237261 
L 345.513788 30.268711 
L 352.521063 29.833874 
L 360.930129 28.79084 
L 363.733712 28.473746 
L 367.236928 27.898899 
L 371.441461 27.621184 
L 373.543728 27.414334 
L 376.347311 27.228416 
L 379.150052 27.035093 
L 383.354585 26.492327 
L 388.259593 25.413122 
L 388.960909 25.211057 
L 395.267709 24.514008 
L 398.070451 24.013903 
L 404.37725 24.250699 
L 413.486791 24.685436 
L 414.188107 24.739276 
L 414.188107 24.739276 
" clip-path="url(#p888fbcc2ba)" style="fill: none; stroke: #67a9cf; stroke-width: 1.5; stroke-linecap: square"/>
   </g>
   <g id="line2d_19">
    <path d="M 171.02567 40.757868 
L 172.427461 40.555867 
L 173.828412 40.939819 
L 179.434736 41.36674 
L 199.055609 44.2967 
L 207.464675 44.76739 
L 208.866467 44.766104 
L 214.472791 44.429022 
L 224.984123 43.571676 
L 236.195931 42.916506 
L 252.313588 41.957569 
L 261.423129 41.176798 
L 264.225871 40.972099 
L 271.934461 40.643284 
L 281.745319 39.905389 
L 291.555335 39.126796 
L 296.461184 38.929807 
L 309.074783 38.526191 
L 316.082058 37.822509 
L 323.790648 36.914835 
L 330.097448 36.428142 
L 337.805198 36.345778 
L 345.513788 36.265843 
L 349.718321 36.437646 
L 356.025121 36.914541 
L 365.835978 38.274589 
L 372.142778 38.660795 
L 381.252319 38.067567 
L 384.05506 37.690768 
L 388.960909 36.746813 
L 393.865918 36.694144 
L 397.369975 36.573802 
L 398.070451 36.595552 
L 402.274984 37.327568 
L 407.179992 38.085804 
L 414.188107 38.609159 
L 414.188107 38.609159 
" clip-path="url(#p888fbcc2ba)" style="fill: none; stroke: #02818a; stroke-width: 1.5; stroke-linecap: square"/>
   </g>
   <g id="patch_3">
    <path d="M 61.707813 186.84327 
L 61.707813 22.318125 
" style="fill: none; stroke: #000000; stroke-width: 0.8; stroke-linejoin: miter; stroke-linecap: square"/>
   </g>
   <g id="patch_4">
    <path d="M 414.888583 186.84327 
L 414.888583 22.318125 
" style="fill: none; stroke: #000000; stroke-width: 0.8; stroke-linejoin: miter; stroke-linecap: square"/>
   </g>
   <g id="patch_5">
    <path d="M 61.707813 186.84327 
L 414.888583 186.84327 
" style="fill: none; stroke: #000000; stroke-width: 0.8; stroke-linejoin: miter; stroke-linecap: square"/>
   </g>
   <g id="patch_6">
    <path d="M 61.707813 22.318125 
L 414.888583 22.318125 
" style="fill: none; stroke: #000000; stroke-width: 0.8; stroke-linejoin: miter; stroke-linecap: square"/>
   </g>
   <g id="text_19">
    <!-- East Antarctica -->
    <g transform="translate(192.883823 16.318125)scale(0.12 -0.12)">
     <defs>
      <path id="DejaVuSans-45" d="M 628 4666 
L 3578 4666 
L 3578 4134 
L 1259 4134 
L 1259 2753 
L 3481 2753 
L 3481 2222 
L 1259 2222 
L 1259 531 
L 3634 531 
L 3634 0 
L 628 0 
L 628 4666 
z
" transform="scale(0.015625)"/>
      <path id="DejaVuSans-41" d="M 2188 4044 
L 1331 1722 
L 3047 1722 
L 2188 4044 
z
M 1831 4666 
L 2547 4666 
L 4325 0 
L 3669 0 
L 3244 1197 
L 1141 1197 
L 716 0 
L 50 0 
L 1831 4666 
z
" transform="scale(0.015625)"/>
      <path id="DejaVuSans-69" d="M 603 3500 
L 1178 3500 
L 1178 0 
L 603 0 
L 603 3500 
z
M 603 4863 
L 1178 4863 
L 1178 4134 
L 603 4134 
L 603 4863 
z
" transform="scale(0.015625)"/>
     </defs>
     <use xlink:href="#DejaVuSans-45"/>
     <use xlink:href="#DejaVuSans-61" x="63.183594"/>
     <use xlink:href="#DejaVuSans-73" x="124.462891"/>
     <use xlink:href="#DejaVuSans-74" x="176.5625"/>
     <use xlink:href="#DejaVuSans-20" x="215.771484"/>
     <use xlink:href="#DejaVuSans-41" x="247.558594"/>
     <use xlink:href="#DejaVuSans-6e" x="315.966797"/>
     <use xlink:href="#DejaVuSans-74" x="379.345703"/>
     <use xlink:href="#DejaVuSans-61" x="418.554688"/>
     <use xlink:href="#DejaVuSans-72" x="479.833984"/>
     <use xlink:href="#DejaVuSans-63" x="518.697266"/>
     <use xlink:href="#DejaVuSans-74" x="573.677734"/>
     <use xlink:href="#DejaVuSans-69" x="612.886719"/>
     <use xlink:href="#DejaVuSans-63" x="640.669922"/>
     <use xlink:href="#DejaVuSans-61" x="695.650391"/>
    </g>
   </g>
   <g id="legend_1">
    <g id="patch_7">
     <path d="M 421.888583 128.097885 
L 503.19952 128.097885 
Q 505.19952 128.097885 505.19952 126.097885 
L 505.19952 83.06351 
Q 505.19952 81.06351 503.19952 81.06351 
L 421.888583 81.06351 
Q 419.888583 81.06351 419.888583 83.06351 
L 419.888583 126.097885 
Q 419.888583 128.097885 421.888583 128.097885 
z
" style="fill: #ffffff; opacity: 0.8; stroke: #cccccc; stroke-linejoin: miter"/>
    </g>
    <g id="line2d_20">
     <path d="M 423.888583 89.161948 
L 433.888583 89.161948 
L 443.888583 89.161948 
" style="fill: none; stroke: #d0d1e6; stroke-width: 1.5; stroke-linecap: square"/>
    </g>
    <g id="text_20">
     <!-- Surface -->
     <g transform="translate(451.888583 92.661948)scale(0.1 -0.1)">
      <defs>
       <path id="DejaVuSans-53" d="M 3425 4513 
L 3425 3897 
Q 3066 4069 2747 4153 
Q 2428 4238 2131 4238 
Q 1616 4238 1336 4038 
Q 1056 3838 1056 3469 
Q 1056 3159 1242 3001 
Q 1428 2844 1947 2747 
L 2328 2669 
Q 3034 2534 3370 2195 
Q 3706 1856 3706 1288 
Q 3706 609 3251 259 
Q 2797 -91 1919 -91 
Q 1588 -91 1214 -16 
Q 841 59 441 206 
L 441 856 
Q 825 641 1194 531 
Q 1563 422 1919 422 
Q 2459 422 2753 634 
Q 3047 847 3047 1241 
Q 3047 1584 2836 1778 
Q 2625 1972 2144 2069 
L 1759 2144 
Q 1053 2284 737 2584 
Q 422 2884 422 3419 
Q 422 4038 858 4394 
Q 1294 4750 2059 4750 
Q 2388 4750 2728 4690 
Q 3069 4631 3425 4513 
z
" transform="scale(0.015625)"/>
       <path id="DejaVuSans-75" d="M 544 1381 
L 544 3500 
L 1119 3500 
L 1119 1403 
Q 1119 906 1312 657 
Q 1506 409 1894 409 
Q 2359 409 2629 706 
Q 2900 1003 2900 1516 
L 2900 3500 
L 3475 3500 
L 3475 0 
L 2900 0 
L 2900 538 
Q 2691 219 2414 64 
Q 2138 -91 1772 -91 
Q 1169 -91 856 284 
Q 544 659 544 1381 
z
M 1991 3584 
L 1991 3584 
z
" transform="scale(0.015625)"/>
       <path id="DejaVuSans-66" d="M 2375 4863 
L 2375 4384 
L 1825 4384 
Q 1516 4384 1395 4259 
Q 1275 4134 1275 3809 
L 1275 3500 
L 2222 3500 
L 2222 3053 
L 1275 3053 
L 1275 0 
L 697 0 
L 697 3053 
L 147 3053 
L 147 3500 
L 697 3500 
L 697 3744 
Q 697 4328 969 4595 
Q 1241 4863 1831 4863 
L 2375 4863 
z
" transform="scale(0.015625)"/>
      </defs>
      <use xlink:href="#DejaVuSans-53"/>
      <use xlink:href="#DejaVuSans-75" x="63.476562"/>
      <use xlink:href="#DejaVuSans-72" x="126.855469"/>
      <use xlink:href="#DejaVuSans-66" x="167.96875"/>
      <use xlink:href="#DejaVuSans-61" x="203.173828"/>
      <use xlink:href="#DejaVuSans-63" x="264.453125"/>
      <use xlink:href="#DejaVuSans-65" x="319.433594"/>
     </g>
    </g>
    <g id="line2d_21">
     <path d="M 423.888583 103.840073 
L 433.888583 103.840073 
L 443.888583 103.840073 
" style="fill: none; stroke: #67a9cf; stroke-width: 1.5; stroke-linecap: square"/>
    </g>
    <g id="text_21">
     <!-- Dynamics -->
     <g transform="translate(451.888583 107.340073)scale(0.1 -0.1)">
      <defs>
       <path id="DejaVuSans-44" d="M 1259 4147 
L 1259 519 
L 2022 519 
Q 2988 519 3436 956 
Q 3884 1394 3884 2338 
Q 3884 3275 3436 3711 
Q 2988 4147 2022 4147 
L 1259 4147 
z
M 628 4666 
L 1925 4666 
Q 3281 4666 3915 4102 
Q 4550 3538 4550 2338 
Q 4550 1131 3912 565 
Q 3275 0 1925 0 
L 628 0 
L 628 4666 
z
" transform="scale(0.015625)"/>
       <path id="DejaVuSans-79" d="M 2059 -325 
Q 1816 -950 1584 -1140 
Q 1353 -1331 966 -1331 
L 506 -1331 
L 506 -850 
L 844 -850 
Q 1081 -850 1212 -737 
Q 1344 -625 1503 -206 
L 1606 56 
L 191 3500 
L 800 3500 
L 1894 763 
L 2988 3500 
L 3597 3500 
L 2059 -325 
z
" transform="scale(0.015625)"/>
       <path id="DejaVuSans-6d" d="M 3328 2828 
Q 3544 3216 3844 3400 
Q 4144 3584 4550 3584 
Q 5097 3584 5394 3201 
Q 5691 2819 5691 2113 
L 5691 0 
L 5113 0 
L 5113 2094 
Q 5113 2597 4934 2840 
Q 4756 3084 4391 3084 
Q 3944 3084 3684 2787 
Q 3425 2491 3425 1978 
L 3425 0 
L 2847 0 
L 2847 2094 
Q 2847 2600 2669 2842 
Q 2491 3084 2119 3084 
Q 1678 3084 1418 2786 
Q 1159 2488 1159 1978 
L 1159 0 
L 581 0 
L 581 3500 
L 1159 3500 
L 1159 2956 
Q 1356 3278 1631 3431 
Q 1906 3584 2284 3584 
Q 2666 3584 2933 3390 
Q 3200 3197 3328 2828 
z
" transform="scale(0.015625)"/>
      </defs>
      <use xlink:href="#DejaVuSans-44"/>
      <use xlink:href="#DejaVuSans-79" x="77.001953"/>
      <use xlink:href="#DejaVuSans-6e" x="136.181641"/>
      <use xlink:href="#DejaVuSans-61" x="199.560547"/>
      <use xlink:href="#DejaVuSans-6d" x="260.839844"/>
      <use xlink:href="#DejaVuSans-69" x="358.251953"/>
      <use xlink:href="#DejaVuSans-63" x="386.035156"/>
      <use xlink:href="#DejaVuSans-73" x="441.015625"/>
     </g>
    </g>
    <g id="line2d_22">
     <path d="M 423.888583 118.518198 
L 433.888583 118.518198 
L 443.888583 118.518198 
" style="fill: none; stroke: #02818a; stroke-width: 1.5; stroke-linecap: square"/>
    </g>
    <g id="text_22">
     <!-- Total -->
     <g transform="translate(451.888583 122.018198)scale(0.1 -0.1)">
      <defs>
       <path id="DejaVuSans-54" d="M -19 4666 
L 3928 4666 
L 3928 4134 
L 2272 4134 
L 2272 0 
L 1638 0 
L 1638 4134 
L -19 4134 
L -19 4666 
z
" transform="scale(0.015625)"/>
       <path id="DejaVuSans-6f" d="M 1959 3097 
Q 1497 3097 1228 2736 
Q 959 2375 959 1747 
Q 959 1119 1226 758 
Q 1494 397 1959 397 
Q 2419 397 2687 759 
Q 2956 1122 2956 1747 
Q 2956 2369 2687 2733 
Q 2419 3097 1959 3097 
z
M 1959 3584 
Q 2709 3584 3137 3096 
Q 3566 2609 3566 1747 
Q 3566 888 3137 398 
Q 2709 -91 1959 -91 
Q 1206 -91 779 398 
Q 353 888 353 1747 
Q 353 2609 779 3096 
Q 1206 3584 1959 3584 
z
" transform="scale(0.015625)"/>
       <path id="DejaVuSans-6c" d="M 603 4863 
L 1178 4863 
L 1178 0 
L 603 0 
L 603 4863 
z
" transform="scale(0.015625)"/>
      </defs>
      <use xlink:href="#DejaVuSans-54"/>
      <use xlink:href="#DejaVuSans-6f" x="44.083984"/>
      <use xlink:href="#DejaVuSans-74" x="105.265625"/>
      <use xlink:href="#DejaVuSans-61" x="144.474609"/>
      <use xlink:href="#DejaVuSans-6c" x="205.753906"/>
     </g>
    </g>
   </g>
  </g>
 </g>
 <defs>
  <clipPath id="p888fbcc2ba">
   <rect x="61.707813" y="22.318125" width="353.18077" height="164.525145"/>
  </clipPath>
 </defs>
</svg>
