<?xml version="1.0" encoding="utf-8" standalone="no"?>
<!DOCTYPE svg PUBLIC "-//W3C//DTD SVG 1.1//EN"
  "http://www.w3.org/Graphics/SVG/1.1/DTD/svg11.dtd">
<svg xmlns:xlink="http://www.w3.org/1999/xlink" width="512.39952pt" height="224.39952pt" viewBox="0 0 512.39952 224.39952" xmlns="http://www.w3.org/2000/svg" version="1.1">
 <metadata>
  <rdf:RDF xmlns:dc="http://purl.org/dc/elements/1.1/" xmlns:cc="http://creativecommons.org/ns#" xmlns:rdf="http://www.w3.org/1999/02/22-rdf-syntax-ns#">
   <cc:Work>
    <dc:type rdf:resource="http://purl.org/dc/dcmitype/StillImage"/>
    <dc:date>2023-02-01T13:00:18.969371</dc:date>
    <dc:format>image/svg+xml</dc:format>
    <dc:creator>
     <cc:Agent>
      <dc:title>Matplotlib v3.6.2, https://matplotlib.org/</dc:title>
     </cc:Agent>
    </dc:creator>
   </cc:Work>
  </rdf:RDF>
 </metadata>
 <defs>
  <style type="text/css">*{stroke-linejoin: round; stroke-linecap: butt}</style>
 </defs>
 <g id="figure_1">
  <g id="patch_1">
   <path d="M 0 224.39952 
L 512.39952 224.39952 
L 512.39952 0 
L 0 0 
z
" style="fill: #ffffff"/>
  </g>
  <g id="axes_1">
   <g id="patch_2">
    <path d="M 61.707813 186.84327 
L 414.888583 186.84327 
L 414.888583 22.318125 
L 61.707813 22.318125 
z
" style="fill: #ffffff"/>
   </g>
   <g id="PolyCollection_1">
    <path d="M 61.707813 47.31626 
L 61.707813 51.616021 
L 62.408568 51.343179 
L 63.109323 51.367183 
L 63.810079 51.992686 
L 64.510834 52.14274 
L 65.21159 52.41002 
L 65.912345 52.436221 
L 66.613101 52.471854 
L 67.313856 52.531523 
L 68.014612 52.482244 
L 68.715367 52.42795 
L 69.416123 52.372659 
L 70.116878 52.166709 
L 70.817634 52.013233 
L 71.518389 51.790436 
L 72.219145 51.614511 
L 72.9199 51.429005 
L 73.620656 51.260426 
L 74.321411 51.07348 
L 75.022167 50.882594 
L 75.722922 50.698027 
L 76.423678 50.516037 
L 77.124433 50.346982 
L 77.825189 50.163137 
L 78.525944 49.965418 
L 79.2267 49.745772 
L 79.927455 49.517948 
L 80.628211 49.286142 
L 81.328966 49.050363 
L 82.029722 48.789251 
L 82.730477 48.563813 
L 83.431233 48.335163 
L 84.131988 48.110093 
L 84.832744 47.906935 
L 85.533499 47.712416 
L 86.234255 47.520602 
L 86.93501 47.327206 
L 87.635766 47.121414 
L 88.336521 46.908735 
L 89.037277 46.707755 
L 89.738032 46.505353 
L 90.438788 46.327369 
L 91.139543 46.19554 
L 91.840299 46.065684 
L 92.541054 45.945267 
L 93.24181 45.866246 
L 93.942565 45.83175 
L 94.643321 45.794017 
L 95.344076 45.75444 
L 96.044832 45.709165 
L 96.745587 45.659206 
L 97.446343 45.609803 
L 98.147098 45.558566 
L 98.847854 45.485847 
L 99.548609 45.407684 
L 100.249365 45.320174 
L 100.95012 45.257583 
L 101.650876 45.25309 
L 102.351631 45.255576 
L 103.052387 45.257455 
L 103.753142 45.26265 
L 104.453898 45.251374 
L 105.154653 45.224507 
L 105.855409 45.211709 
L 106.556164 45.163251 
L 107.25692 45.100278 
L 107.957675 44.982258 
L 108.658431 44.859312 
L 109.359186 44.752334 
L 110.059942 44.662154 
L 110.760697 44.580883 
L 111.461453 44.494808 
L 112.162208 44.400688 
L 112.862964 44.30557 
L 113.563719 44.208808 
L 114.264475 44.118529 
L 114.96523 44.030673 
L 115.665986 43.935368 
L 116.366741 43.853014 
L 117.067497 43.80082 
L 117.768252 43.768925 
L 118.469008 43.766808 
L 119.169763 43.788331 
L 119.870519 43.834296 
L 120.571274 43.887059 
L 121.27203 43.94265 
L 121.972785 44.016568 
L 122.673541 44.104617 
L 123.374296 44.205969 
L 124.075052 44.298071 
L 124.775807 44.40064 
L 125.476563 44.544798 
L 126.177318 44.725712 
L 126.878074 44.943349 
L 127.578829 45.213186 
L 128.279585 45.489812 
L 128.98034 45.766551 
L 129.681096 46.051957 
L 130.381851 46.343168 
L 131.082607 46.630774 
L 131.783362 46.896186 
L 132.484118 47.150386 
L 133.184873 47.414625 
L 133.885629 47.678184 
L 134.586384 47.963602 
L 135.28714 48.266957 
L 135.987895 48.588559 
L 136.688651 48.910002 
L 137.389406 49.223029 
L 138.090162 49.538948 
L 138.790917 49.849789 
L 139.491673 50.150183 
L 140.192428 50.440175 
L 140.893184 50.693031 
L 141.593939 50.908994 
L 142.294695 51.123666 
L 142.99545 51.351202 
L 143.696206 51.577814 
L 144.396961 51.787898 
L 145.097717 51.988138 
L 145.798472 52.180506 
L 146.499228 52.362592 
L 147.199983 52.536485 
L 147.900739 52.711714 
L 148.601494 52.869233 
L 149.30225 53.015226 
L 150.003005 53.155166 
L 150.70376 53.322184 
L 151.404516 53.502441 
L 152.105271 53.707013 
L 152.806027 53.904925 
L 153.506782 54.088745 
L 154.207538 54.260831 
L 154.908293 54.4253 
L 155.609049 54.567327 
L 156.309804 54.680391 
L 157.01056 54.769327 
L 157.711315 54.83336 
L 158.412071 54.873008 
L 159.112826 54.934475 
L 159.813582 55.014242 
L 160.514337 55.12423 
L 161.215093 55.233867 
L 161.915848 55.345263 
L 162.616604 55.453377 
L 163.317359 55.55139 
L 164.018115 55.637168 
L 164.71887 55.712046 
L 165.419626 55.76652 
L 166.120381 55.775362 
L 166.821137 55.751454 
L 167.521892 55.717184 
L 168.222648 55.67664 
L 168.923403 55.626288 
L 169.624159 55.565456 
L 170.324914 55.48578 
L 171.02567 55.385349 
L 171.726425 55.271011 
L 172.427181 55.137434 
L 173.127936 54.989779 
L 173.828692 54.844579 
L 174.529447 54.67759 
L 175.230203 54.500434 
L 175.930958 54.333276 
L 176.631714 54.199328 
L 177.332469 54.076075 
L 178.033225 53.963863 
L 178.73398 53.876101 
L 179.434736 53.778865 
L 180.135491 53.679563 
L 180.836247 53.601182 
L 181.537002 53.534161 
L 182.237758 53.45259 
L 182.938513 53.374508 
L 183.639269 53.318329 
L 184.340024 53.306901 
L 185.04078 53.342291 
L 185.741535 53.418897 
L 186.442291 53.535516 
L 187.143046 53.670759 
L 187.843802 53.828879 
L 188.544557 53.999209 
L 189.245313 54.169733 
L 189.946068 54.356251 
L 190.646824 54.535945 
L 191.347579 54.720804 
L 192.048335 54.898693 
L 192.74909 55.088407 
L 193.449846 55.299567 
L 194.150601 55.531706 
L 194.851357 55.766349 
L 195.552112 55.992391 
L 196.252868 56.213915 
L 196.953623 56.419112 
L 197.654379 56.607578 
L 198.355134 56.770228 
L 199.05589 56.914766 
L 199.756645 57.031949 
L 200.457401 57.140392 
L 201.158156 57.245213 
L 201.858912 57.362818 
L 202.559667 57.495196 
L 203.260423 57.627793 
L 203.961178 57.748261 
L 204.661934 57.859029 
L 205.362689 57.960689 
L 206.063445 58.0581 
L 206.7642 58.160352 
L 207.464956 58.258524 
L 208.165711 58.34067 
L 208.866467 58.43304 
L 209.567222 58.557457 
L 210.267978 58.706013 
L 210.968733 58.875575 
L 211.669489 59.071328 
L 212.370244 59.272783 
L 213.071 59.462948 
L 213.771755 59.638372 
L 214.472511 59.800292 
L 215.173266 59.955984 
L 215.874022 60.083146 
L 216.574777 60.199377 
L 217.275533 60.308402 
L 217.976288 60.426752 
L 218.677044 60.557843 
L 219.377799 60.708513 
L 220.078555 60.871483 
L 220.77931 61.033151 
L 221.480066 61.193619 
L 222.180821 61.344483 
L 222.881577 61.491261 
L 223.582332 61.636582 
L 224.283088 61.776662 
L 224.983843 61.921783 
L 225.684599 62.043759 
L 226.385354 62.152866 
L 227.08611 62.28247 
L 227.786865 62.422479 
L 228.487621 62.563398 
L 229.188376 62.714669 
L 229.889132 62.858115 
L 230.589887 62.982671 
L 231.290643 63.091973 
L 231.991398 63.190287 
L 232.692154 63.267059 
L 233.392909 63.339727 
L 234.093665 63.400118 
L 234.79442 63.476304 
L 235.495176 63.588755 
L 236.195931 63.726324 
L 236.896687 63.906357 
L 237.597442 64.083278 
L 238.298197 64.240347 
L 238.998953 64.374068 
L 239.699708 64.489746 
L 240.400464 64.59884 
L 241.101219 64.674626 
L 241.801975 64.735246 
L 242.50273 64.778021 
L 243.203486 64.813519 
L 243.904241 64.843101 
L 244.604997 64.871433 
L 245.305752 64.88317 
L 246.006508 64.874043 
L 246.707263 64.833418 
L 247.408019 64.773659 
L 248.108774 64.69971 
L 248.80953 64.611973 
L 249.510285 64.504773 
L 250.211041 64.381051 
L 250.911796 64.244177 
L 251.612552 64.104378 
L 252.313307 63.973901 
L 253.014063 63.858757 
L 253.714818 63.754375 
L 254.415574 63.647961 
L 255.116329 63.547835 
L 255.817085 63.439837 
L 256.51784 63.323586 
L 257.218596 63.203059 
L 257.919351 63.066993 
L 258.620107 62.914964 
L 259.320862 62.763294 
L 260.021618 62.638229 
L 260.722373 62.559492 
L 261.423129 62.514955 
L 262.123884 62.496165 
L 262.82464 62.492742 
L 263.525395 62.500165 
L 264.226151 62.512219 
L 264.926906 62.529512 
L 265.627662 62.550808 
L 266.328417 62.583416 
L 267.029173 62.611957 
L 267.729928 62.636427 
L 268.430684 62.681452 
L 269.131439 62.757595 
L 269.832195 62.854818 
L 270.53295 62.957996 
L 271.233706 63.053042 
L 271.934461 63.137142 
L 272.635217 63.2122 
L 273.335972 63.280581 
L 274.036728 63.330669 
L 274.737483 63.348013 
L 275.438239 63.327722 
L 276.138994 63.287238 
L 276.83975 63.235266 
L 277.540505 63.18736 
L 278.241261 63.141552 
L 278.942016 63.085732 
L 279.642772 63.018146 
L 280.343527 62.926406 
L 281.044283 62.813431 
L 281.745038 62.687028 
L 282.445794 62.548463 
L 283.146549 62.390234 
L 283.847305 62.214066 
L 284.54806 62.040296 
L 285.248816 61.883062 
L 285.949571 61.758437 
L 286.650327 61.675528 
L 287.351082 61.627632 
L 288.051838 61.581777 
L 288.752593 61.532417 
L 289.453349 61.484074 
L 290.154104 61.440078 
L 290.85486 61.398864 
L 291.555615 61.358531 
L 292.256371 61.325956 
L 292.957126 61.303419 
L 293.657882 61.315097 
L 294.358637 61.358359 
L 295.059393 61.441777 
L 295.760148 61.572775 
L 296.460904 61.733225 
L 297.161659 61.90857 
L 297.862415 62.101175 
L 298.56317 62.306912 
L 299.263926 62.520107 
L 299.964681 62.723572 
L 300.665437 62.910717 
L 301.366192 63.083999 
L 302.066948 63.254116 
L 302.767703 63.430745 
L 303.468459 63.615814 
L 304.169214 63.800073 
L 304.86997 63.972532 
L 305.570725 64.126932 
L 306.271481 64.248254 
L 306.972236 64.333898 
L 307.672992 64.385531 
L 308.373747 64.40584 
L 309.074503 64.389698 
L 309.775258 64.339362 
L 310.476014 64.295119 
L 311.176769 64.268066 
L 311.877525 64.257916 
L 312.57828 64.244808 
L 313.279036 64.243933 
L 313.979791 64.245367 
L 314.680547 64.245157 
L 315.381302 64.248786 
L 316.082058 64.253737 
L 316.782813 64.234882 
L 317.483569 64.213444 
L 318.184324 64.191594 
L 318.88508 64.188527 
L 319.585835 64.203912 
L 320.286591 64.238938 
L 320.987346 64.294122 
L 321.688102 64.364966 
L 322.388857 64.449595 
L 323.089613 64.546317 
L 323.790368 64.644552 
L 324.491124 64.730304 
L 325.191879 64.799519 
L 325.892635 64.860918 
L 326.59339 64.923451 
L 327.294145 65.000656 
L 327.994901 65.097065 
L 328.695656 65.208539 
L 329.396412 65.327745 
L 330.097167 65.443127 
L 330.797923 65.537014 
L 331.498678 65.608933 
L 332.199434 65.656268 
L 332.900189 65.676587 
L 333.600945 65.667438 
L 334.3017 65.636766 
L 335.002456 65.595668 
L 335.703211 65.579748 
L 336.403967 65.587834 
L 337.104722 65.601768 
L 337.805478 65.631141 
L 338.506233 65.673659 
L 339.206989 65.73823 
L 339.907744 65.814658 
L 340.6085 65.902226 
L 341.309255 65.997631 
L 342.010011 66.084351 
L 342.710766 66.175688 
L 343.411522 66.26694 
L 344.112277 66.367891 
L 344.813033 66.502278 
L 345.513788 66.668948 
L 346.214544 66.860489 
L 346.915299 67.068462 
L 347.616055 67.287966 
L 348.31681 67.518306 
L 349.017566 67.748368 
L 349.718321 67.973956 
L 350.419077 68.186621 
L 351.119832 68.388771 
L 351.820588 68.597164 
L 352.521343 68.822638 
L 353.222099 69.078556 
L 353.922854 69.368385 
L 354.62361 69.663331 
L 355.324365 69.956349 
L 356.025121 70.237493 
L 356.725876 70.505749 
L 357.426632 70.759499 
L 358.127387 70.994776 
L 358.828143 71.212755 
L 359.528898 71.418482 
L 360.229654 71.610812 
L 360.930409 71.808472 
L 361.631165 72.023405 
L 362.33192 72.248666 
L 363.032676 72.479292 
L 363.733431 72.695235 
L 364.434187 72.888493 
L 365.134942 73.060275 
L 365.835698 73.205587 
L 366.536453 73.325174 
L 367.237209 73.399636 
L 367.937964 73.43806 
L 368.63872 73.433107 
L 369.339475 73.419654 
L 370.040231 73.414243 
L 370.740986 73.413029 
L 371.441742 73.402695 
L 372.142497 73.379553 
L 372.843253 73.337023 
L 373.544008 73.270296 
L 374.244764 73.181116 
L 374.945519 73.067325 
L 375.646275 72.925406 
L 376.34703 72.777465 
L 377.047786 72.616984 
L 377.748541 72.467826 
L 378.449297 72.342488 
L 379.150052 72.247286 
L 379.850808 72.175009 
L 380.551563 72.104895 
L 381.252319 72.036509 
L 381.953074 71.978509 
L 382.65383 71.932508 
L 383.354585 71.895558 
L 384.055341 71.853912 
L 384.756096 71.82149 
L 385.456852 71.794984 
L 386.157607 71.794421 
L 386.858363 71.836035 
L 387.559118 71.915897 
L 388.259874 72.024951 
L 388.960629 72.166702 
L 389.661385 72.315187 
L 390.36214 72.462974 
L 391.062896 72.609436 
L 391.763651 72.751103 
L 392.464407 72.866239 
L 393.165162 72.955803 
L 393.865918 73.035689 
L 394.566673 73.132023 
L 395.267429 73.246202 
L 395.968184 73.378881 
L 396.66894 73.527505 
L 397.369695 73.666453 
L 398.070451 73.779869 
L 398.771206 73.867049 
L 399.471962 73.928345 
L 400.172717 73.964003 
L 400.873473 73.963617 
L 401.574228 73.931903 
L 402.274984 73.884724 
L 402.975739 73.837024 
L 403.676495 73.798198 
L 404.37725 73.760919 
L 405.078006 73.719634 
L 405.778761 73.668911 
L 406.479517 73.604919 
L 407.180272 73.528535 
L 407.881028 73.442431 
L 408.581783 73.3504 
L 409.282539 73.237088 
L 409.983294 73.096161 
L 410.68405 72.956613 
L 411.384805 72.818729 
L 412.085561 72.666863 
L 412.786316 72.513419 
L 413.487072 72.362088 
L 414.187827 72.206235 
L 414.888582 72.047534 
L 415.589338 71.888491 
L 416.290093 71.729455 
L 416.990849 71.580884 
L 417.691604 71.432263 
L 418.39236 71.284666 
L 419.093115 71.136285 
L 419.793871 70.988361 
L 420.494626 70.839741 
L 421.195382 70.688294 
L 421.896137 70.562026 
L 422.596893 70.427647 
L 423.297648 70.293047 
L 423.297648 29.386276 
L 423.297648 29.386276 
L 422.596893 29.592662 
L 421.896137 29.79927 
L 421.195382 30.013988 
L 420.494626 30.203527 
L 419.793871 30.395893 
L 419.093115 30.588955 
L 418.39236 30.78156 
L 417.691604 30.97495 
L 416.990849 31.167314 
L 416.290093 31.359729 
L 415.589338 31.54168 
L 414.888582 31.723623 
L 414.187827 31.905908 
L 413.487072 32.091041 
L 412.786316 32.280696 
L 412.085561 32.468238 
L 411.384805 32.657359 
L 410.68405 32.86046 
L 409.983294 33.061898 
L 409.282539 33.261958 
L 408.581783 33.433433 
L 407.881028 33.579555 
L 407.180272 33.695671 
L 406.479517 33.786059 
L 405.778761 33.862678 
L 405.078006 33.935619 
L 404.37725 34.012274 
L 403.676495 34.095416 
L 402.975739 34.193596 
L 402.274984 34.299089 
L 401.574228 34.396846 
L 400.873473 34.466145 
L 400.172717 34.506597 
L 399.471962 34.51584 
L 398.771206 34.483753 
L 398.070451 34.411555 
L 397.369695 34.314119 
L 396.66894 34.208733 
L 395.968184 34.107065 
L 395.267429 34.008806 
L 394.566673 33.929586 
L 393.865918 33.879144 
L 393.165162 33.837732 
L 392.464407 33.790989 
L 391.763651 33.722992 
L 391.062896 33.633721 
L 390.36214 33.515017 
L 389.661385 33.379008 
L 388.960629 33.248193 
L 388.259874 33.142999 
L 387.559118 33.063039 
L 386.858363 33.026517 
L 386.157607 33.03041 
L 385.456852 33.070299 
L 384.756096 33.140832 
L 384.055341 33.230549 
L 383.354585 33.314563 
L 382.65383 33.400863 
L 381.953074 33.480063 
L 381.252319 33.554881 
L 380.551563 33.637671 
L 379.850808 33.738226 
L 379.150052 33.86411 
L 378.449297 34.008836 
L 377.748541 34.179353 
L 377.047786 34.384725 
L 376.34703 34.609919 
L 375.646275 34.833813 
L 374.945519 35.017931 
L 374.244764 35.172886 
L 373.544008 35.29219 
L 372.843253 35.382507 
L 372.142497 35.454776 
L 371.441742 35.505959 
L 370.740986 35.546883 
L 370.040231 35.597803 
L 369.339475 35.653936 
L 368.63872 35.709786 
L 367.937964 35.753756 
L 367.237209 35.78187 
L 366.536453 35.759842 
L 365.835698 35.690206 
L 365.134942 35.570298 
L 364.434187 35.41704 
L 363.733431 35.235223 
L 363.032676 35.039991 
L 362.33192 34.847954 
L 361.631165 34.659948 
L 360.930409 34.486623 
L 360.229654 34.328214 
L 359.528898 34.181903 
L 358.828143 34.039261 
L 358.127387 33.876221 
L 357.426632 33.680223 
L 356.725876 33.451152 
L 356.025121 33.200099 
L 355.324365 32.938625 
L 354.62361 32.671331 
L 353.922854 32.413115 
L 353.222099 32.182098 
L 352.521343 31.967321 
L 351.820588 31.779136 
L 351.119832 31.612421 
L 350.419077 31.455418 
L 349.718321 31.293659 
L 349.017566 31.120728 
L 348.31681 30.924694 
L 347.616055 30.716275 
L 346.915299 30.509786 
L 346.214544 30.319181 
L 345.513788 30.1529 
L 344.813033 30.022937 
L 344.112277 29.92947 
L 343.411522 29.868384 
L 342.710766 29.837289 
L 342.010011 29.812254 
L 341.309255 29.771783 
L 340.6085 29.725563 
L 339.907744 29.670388 
L 339.206989 29.621714 
L 338.506233 29.58974 
L 337.805478 29.570071 
L 337.104722 29.57469 
L 336.403967 29.602783 
L 335.703211 29.668592 
L 335.002456 29.754493 
L 334.3017 29.838354 
L 333.600945 29.917938 
L 332.900189 29.973313 
L 332.199434 29.994218 
L 331.498678 29.97593 
L 330.797923 29.923959 
L 330.097167 29.853056 
L 329.396412 29.779512 
L 328.695656 29.712734 
L 327.994901 29.656344 
L 327.294145 29.612775 
L 326.59339 29.586103 
L 325.892635 29.564091 
L 325.191879 29.539786 
L 324.491124 29.503965 
L 323.790368 29.454307 
L 323.089613 29.383766 
L 322.388857 29.303066 
L 321.688102 29.234763 
L 320.987346 29.190051 
L 320.286591 29.170807 
L 319.585835 29.18347 
L 318.88508 29.231316 
L 318.184324 29.310677 
L 317.483569 29.397349 
L 316.782813 29.480079 
L 316.082058 29.542609 
L 315.381302 29.602144 
L 314.680547 29.64124 
L 313.979791 29.667579 
L 313.279036 29.695099 
L 312.57828 29.730078 
L 311.877525 29.775567 
L 311.176769 29.854367 
L 310.476014 29.94871 
L 309.775258 30.046439 
L 309.074503 30.129242 
L 308.373747 30.196438 
L 307.672992 30.227134 
L 306.972236 30.213114 
L 306.271481 30.157098 
L 305.570725 30.056663 
L 304.86997 29.928664 
L 304.169214 29.780928 
L 303.468459 29.631881 
L 302.767703 29.486752 
L 302.066948 29.347327 
L 301.366192 29.221109 
L 300.665437 29.104519 
L 299.964681 28.9789 
L 299.263926 28.83242 
L 298.56317 28.664988 
L 297.862415 28.480037 
L 297.161659 28.30171 
L 296.460904 28.147349 
L 295.760148 28.030949 
L 295.059393 27.948921 
L 294.358637 27.895068 
L 293.657882 27.889176 
L 292.957126 27.938143 
L 292.256371 28.016185 
L 291.555615 28.112567 
L 290.85486 28.208052 
L 290.154104 28.296477 
L 289.453349 28.372942 
L 288.752593 28.443605 
L 288.051838 28.518118 
L 287.351082 28.613087 
L 286.650327 28.742941 
L 285.949571 28.8949 
L 285.248816 29.078462 
L 284.54806 29.295475 
L 283.847305 29.536683 
L 283.146549 29.770734 
L 282.445794 29.986395 
L 281.745038 30.178878 
L 281.044283 30.340464 
L 280.343527 30.470198 
L 279.642772 30.581766 
L 278.942016 30.682332 
L 278.241261 30.772001 
L 277.540505 30.870659 
L 276.83975 30.980316 
L 276.138994 31.092072 
L 275.438239 31.202135 
L 274.737483 31.287821 
L 274.036728 31.339399 
L 273.335972 31.350186 
L 272.635217 31.322299 
L 271.934461 31.26513 
L 271.233706 31.194067 
L 270.53295 31.122697 
L 269.832195 31.064151 
L 269.131439 31.021423 
L 268.430684 31.002667 
L 267.729928 31.001708 
L 267.029173 31.017622 
L 266.328417 31.054257 
L 265.627662 31.09834 
L 264.926906 31.12696 
L 264.226151 31.146064 
L 263.525395 31.158724 
L 262.82464 31.174813 
L 262.123884 31.202507 
L 261.423129 31.260888 
L 260.722373 31.35947 
L 260.021618 31.504677 
L 259.320862 31.680259 
L 258.620107 31.887722 
L 257.919351 32.105743 
L 257.218596 32.318011 
L 256.51784 32.510126 
L 255.817085 32.675557 
L 255.116329 32.830046 
L 254.415574 32.985359 
L 253.714818 33.129551 
L 253.014063 33.282279 
L 252.313307 33.44146 
L 251.612552 33.617514 
L 250.911796 33.813907 
L 250.211041 34.018718 
L 249.510285 34.216009 
L 248.80953 34.385792 
L 248.108774 34.527512 
L 247.408019 34.634685 
L 246.707263 34.712303 
L 246.006508 34.77183 
L 245.305752 34.819868 
L 244.604997 34.855375 
L 243.904241 34.890339 
L 243.203486 34.921316 
L 242.50273 34.951116 
L 241.801975 34.965514 
L 241.101219 34.962492 
L 240.400464 34.934591 
L 239.699708 34.892326 
L 238.998953 34.809082 
L 238.298197 34.698494 
L 237.597442 34.575275 
L 236.896687 34.450462 
L 236.195931 34.345429 
L 235.495176 34.247678 
L 234.79442 34.188953 
L 234.093665 34.155456 
L 233.392909 34.144837 
L 232.692154 34.1417 
L 231.991398 34.112378 
L 231.290643 34.061816 
L 230.589887 33.981673 
L 229.889132 33.879235 
L 229.188376 33.771145 
L 228.487621 33.660628 
L 227.786865 33.551163 
L 227.08611 33.458852 
L 226.385354 33.389025 
L 225.684599 33.335357 
L 224.983843 33.305542 
L 224.283088 33.280157 
L 223.582332 33.214853 
L 222.881577 33.127291 
L 222.180821 33.015763 
L 221.480066 32.882929 
L 220.77931 32.748473 
L 220.078555 32.615579 
L 219.377799 32.494025 
L 218.677044 32.388027 
L 217.976288 32.304314 
L 217.275533 32.250658 
L 216.574777 32.206013 
L 215.874022 32.158606 
L 215.173266 32.090945 
L 214.472511 32.006145 
L 213.771755 31.878633 
L 213.071 31.725866 
L 212.370244 31.55974 
L 211.669489 31.393043 
L 210.968733 31.239277 
L 210.267978 31.111045 
L 209.567222 31.026667 
L 208.866467 30.98566 
L 208.165711 30.959901 
L 207.464956 30.939546 
L 206.7642 30.926598 
L 206.063445 30.895141 
L 205.362689 30.838035 
L 204.661934 30.762495 
L 203.961178 30.674742 
L 203.260423 30.580203 
L 202.559667 30.499373 
L 201.858912 30.433661 
L 201.158156 30.383579 
L 200.457401 30.350266 
L 199.756645 30.32169 
L 199.05589 30.274917 
L 198.355134 30.205539 
L 197.654379 30.096615 
L 196.953623 29.952786 
L 196.252868 29.773197 
L 195.552112 29.58051 
L 194.851357 29.387733 
L 194.150601 29.204847 
L 193.449846 29.031282 
L 192.74909 28.865869 
L 192.048335 28.724386 
L 191.347579 28.60407 
L 190.646824 28.497817 
L 189.946068 28.380104 
L 189.245313 28.25929 
L 188.544557 28.112744 
L 187.843802 27.973277 
L 187.143046 27.847616 
L 186.442291 27.74307 
L 185.741535 27.680022 
L 185.04078 27.665989 
L 184.340024 27.712343 
L 183.639269 27.808599 
L 182.938513 27.931495 
L 182.237758 28.067566 
L 181.537002 28.206891 
L 180.836247 28.358585 
L 180.135491 28.501991 
L 179.434736 28.632082 
L 178.73398 28.775176 
L 178.033225 28.939778 
L 177.332469 29.103079 
L 176.631714 29.29207 
L 175.930958 29.524973 
L 175.230203 29.776736 
L 174.529447 30.043354 
L 173.828692 30.315276 
L 173.127936 30.577408 
L 172.427181 30.78548 
L 171.726425 30.952031 
L 171.02567 31.08979 
L 170.324914 31.21176 
L 169.624159 31.33546 
L 168.923403 31.460282 
L 168.222648 31.579645 
L 167.521892 31.694591 
L 166.821137 31.80592 
L 166.120381 31.903437 
L 165.419626 31.981888 
L 164.71887 32.042435 
L 164.018115 32.060247 
L 163.317359 32.028427 
L 162.616604 31.96522 
L 161.915848 31.892426 
L 161.215093 31.818915 
L 160.514337 31.755094 
L 159.813582 31.727346 
L 159.112826 31.72046 
L 158.412071 31.743295 
L 157.711315 31.760755 
L 157.01056 31.777892 
L 156.309804 31.761933 
L 155.609049 31.701345 
L 154.908293 31.606162 
L 154.207538 31.488843 
L 153.506782 31.352767 
L 152.806027 31.20939 
L 152.105271 31.072554 
L 151.404516 30.957931 
L 150.70376 30.858991 
L 150.003005 30.7877 
L 149.30225 30.717209 
L 148.601494 30.648887 
L 147.900739 30.566025 
L 147.199983 30.463126 
L 146.499228 30.322718 
L 145.798472 30.160435 
L 145.097717 29.990636 
L 144.396961 29.823105 
L 143.696206 29.666318 
L 142.99545 29.529935 
L 142.294695 29.404304 
L 141.593939 29.270067 
L 140.893184 29.122014 
L 140.192428 28.969243 
L 139.491673 28.789673 
L 138.790917 28.563038 
L 138.090162 28.303844 
L 137.389406 28.021879 
L 136.688651 27.732012 
L 135.987895 27.460431 
L 135.28714 27.207985 
L 134.586384 26.969696 
L 133.885629 26.76027 
L 133.184873 26.574762 
L 132.484118 26.409016 
L 131.783362 26.222002 
L 131.082607 26.018164 
L 130.381851 25.801846 
L 129.681096 25.559262 
L 128.98034 25.301544 
L 128.279585 25.053342 
L 127.578829 24.843419 
L 126.878074 24.680029 
L 126.177318 24.537813 
L 125.476563 24.449223 
L 124.775807 24.403192 
L 124.075052 24.373956 
L 123.374296 24.361958 
L 122.673541 24.360998 
L 121.972785 24.348453 
L 121.27203 24.329655 
L 120.571274 24.309961 
L 119.870519 24.314167 
L 119.169763 24.345042 
L 118.469008 24.399576 
L 117.768252 24.488271 
L 117.067497 24.624798 
L 116.366741 24.814077 
L 115.665986 25.018104 
L 114.96523 25.218542 
L 114.264475 25.406134 
L 113.563719 25.5653 
L 112.862964 25.704325 
L 112.162208 25.84131 
L 111.461453 25.979737 
L 110.760697 26.132186 
L 110.059942 26.302712 
L 109.359186 26.49166 
L 108.658431 26.700065 
L 107.957675 26.916442 
L 107.25692 27.131233 
L 106.556164 27.35941 
L 105.855409 27.542205 
L 105.154653 27.698705 
L 104.453898 27.786045 
L 103.753142 27.838444 
L 103.052387 27.875604 
L 102.351631 27.917578 
L 101.650876 28.002258 
L 100.95012 28.138791 
L 100.249365 28.285452 
L 99.548609 28.45618 
L 98.847854 28.653272 
L 98.147098 28.84424 
L 97.446343 29.022725 
L 96.745587 29.162355 
L 96.044832 29.264713 
L 95.344076 29.3463 
L 94.643321 29.428329 
L 93.942565 29.530554 
L 93.24181 29.68166 
L 92.541054 29.855851 
L 91.840299 30.078822 
L 91.139543 30.378737 
L 90.438788 30.737686 
L 89.738032 31.077581 
L 89.037277 31.387468 
L 88.336521 31.675101 
L 87.635766 31.93268 
L 86.93501 32.184446 
L 86.234255 32.443954 
L 85.533499 32.708522 
L 84.832744 32.996967 
L 84.131988 33.323745 
L 83.431233 33.690616 
L 82.730477 34.112494 
L 82.029722 34.568211 
L 81.328966 34.977705 
L 80.628211 35.36995 
L 79.927455 35.71788 
L 79.2267 36.023182 
L 78.525944 36.290042 
L 77.825189 36.539714 
L 77.124433 36.787063 
L 76.423678 37.061374 
L 75.722922 37.352273 
L 75.022167 37.681697 
L 74.321411 38.036494 
L 73.620656 38.395232 
L 72.9199 38.772337 
L 72.219145 39.132514 
L 71.518389 39.502273 
L 70.817634 39.82516 
L 70.116878 40.217368 
L 69.416123 40.557101 
L 68.715367 41.047494 
L 68.014612 41.538883 
L 67.313856 42.035288 
L 66.613101 42.640641 
L 65.912345 43.221958 
L 65.21159 43.793842 
L 64.510834 44.606806 
L 63.810079 45.302544 
L 63.109323 46.473731 
L 62.408568 47.043418 
L 61.707813 47.31626 
z
" clip-path="url(#p74f2cefaf8)" style="fill: #d0d1e6; fill-opacity: 0.25"/>
   </g>
   <g id="PolyCollection_2">
    <path d="M 171.02567 42.186916 
L 171.02567 44.288224 
L 171.726145 44.345035 
L 172.427461 44.899781 
L 173.127936 45.821424 
L 173.828412 46.80028 
L 174.529728 47.519426 
L 175.230203 48.133615 
L 175.930678 48.705804 
L 176.631994 49.2619 
L 177.332469 49.7204 
L 178.032945 50.129417 
L 178.734261 50.561747 
L 179.434736 50.991078 
L 180.135211 51.390936 
L 180.836527 51.833545 
L 181.537002 52.297078 
L 182.237478 52.720061 
L 182.938794 53.13672 
L 183.639269 53.543946 
L 184.339744 53.934682 
L 185.04106 54.269218 
L 185.741535 54.526646 
L 186.44201 54.726669 
L 187.143327 54.86846 
L 187.843802 55.009991 
L 188.544277 55.134458 
L 189.245593 55.246709 
L 189.946068 55.408844 
L 190.646543 55.570047 
L 191.34786 55.750347 
L 192.048335 55.903053 
L 192.74881 56.028257 
L 193.450126 56.12716 
L 194.150601 56.223449 
L 194.851076 56.3058 
L 195.552393 56.368234 
L 196.252868 56.447385 
L 196.953343 56.538053 
L 197.654659 56.672801 
L 198.355134 56.84578 
L 199.055609 57.066849 
L 199.756926 57.246372 
L 200.457401 57.446771 
L 201.157876 57.637696 
L 201.859192 57.809158 
L 202.559667 57.963667 
L 203.260142 58.096395 
L 203.961458 58.204945 
L 204.661934 58.311526 
L 205.362409 58.431545 
L 206.063725 58.574824 
L 206.7642 58.754149 
L 207.464675 58.956137 
L 208.165991 59.141678 
L 208.866467 59.252659 
L 209.566942 59.35308 
L 210.268258 59.403031 
L 210.968733 59.401257 
L 211.669208 59.373753 
L 212.370524 59.330701 
L 213.071 59.216683 
L 213.771475 59.114812 
L 214.472791 59.041461 
L 215.173266 59.021159 
L 215.873741 59.014114 
L 216.575057 59.029446 
L 217.275533 59.045737 
L 217.976008 59.052585 
L 218.677324 59.024242 
L 219.377799 58.972548 
L 220.078274 58.904124 
L 220.77959 58.820815 
L 221.480066 58.747456 
L 222.180541 58.673888 
L 222.881857 58.625761 
L 223.582332 58.606874 
L 224.282807 58.613948 
L 224.984123 58.671019 
L 225.684599 58.716391 
L 226.385074 58.728957 
L 227.08639 58.725997 
L 227.786865 58.697529 
L 228.48734 58.648087 
L 229.188656 58.599414 
L 229.889132 58.56978 
L 230.589607 58.54335 
L 231.290923 58.540545 
L 231.991398 58.570977 
L 232.691873 58.622328 
L 233.393189 58.704024 
L 234.093665 58.773971 
L 234.79414 58.819405 
L 235.495456 58.841513 
L 236.195931 58.821689 
L 236.896406 58.80096 
L 237.597722 58.755866 
L 238.298198 58.716337 
L 238.998673 58.686274 
L 239.699989 58.685103 
L 240.400464 58.730818 
L 241.100939 58.787318 
L 241.802255 58.870158 
L 242.50273 58.970103 
L 243.203206 59.086568 
L 243.904522 59.203161 
L 244.604997 59.323941 
L 245.305472 59.442443 
L 246.006788 59.571976 
L 246.707263 59.726433 
L 247.407739 59.898961 
L 248.109055 60.103327 
L 248.80953 60.345269 
L 249.510005 60.616362 
L 250.211321 60.916355 
L 250.911796 61.222776 
L 251.612272 61.518905 
L 252.313588 61.792935 
L 253.014063 62.049721 
L 253.714538 62.3005 
L 254.415854 62.541133 
L 255.116329 62.78344 
L 255.816805 63.023152 
L 256.518121 63.274016 
L 257.218596 63.554338 
L 257.919071 63.855181 
L 258.620387 64.182726 
L 259.320862 64.498162 
L 260.021338 64.782498 
L 260.722654 65.037713 
L 261.423129 65.244615 
L 262.123604 65.409441 
L 262.82492 65.54166 
L 263.525395 65.723023 
L 264.225871 65.913426 
L 264.927187 66.118144 
L 265.627662 66.330395 
L 266.328137 66.552449 
L 267.029453 66.762579 
L 267.729928 66.949044 
L 268.430404 67.136515 
L 269.13172 67.311341 
L 269.832195 67.479904 
L 270.53267 67.629858 
L 271.233986 67.759139 
L 271.934461 67.879316 
L 272.634937 68.011355 
L 273.336253 68.174801 
L 274.036728 68.373915 
L 274.737203 68.607653 
L 275.438519 68.870219 
L 276.138994 69.155138 
L 276.839469 69.44303 
L 277.540786 69.729283 
L 278.241261 70.003156 
L 278.941736 70.261365 
L 279.643052 70.524265 
L 280.343527 70.794381 
L 281.044002 71.080726 
L 281.745319 71.39422 
L 282.445794 71.7347 
L 283.146269 72.093223 
L 283.847585 72.466719 
L 284.54806 72.846165 
L 285.248535 73.208415 
L 285.949852 73.549355 
L 286.650327 73.865556 
L 287.350802 74.165201 
L 288.052118 74.423959 
L 288.752593 74.691296 
L 289.453068 74.960219 
L 290.154385 75.235819 
L 290.85486 75.522455 
L 291.555335 75.814644 
L 292.256651 76.112629 
L 292.957126 76.398536 
L 293.657601 76.668535 
L 294.358917 76.892499 
L 295.059393 77.077026 
L 295.759868 77.23984 
L 296.461184 77.37342 
L 297.161659 77.488978 
L 297.862134 77.586785 
L 298.56345 77.686318 
L 299.263926 77.803611 
L 299.964401 77.940299 
L 300.665717 78.094578 
L 301.366192 78.256904 
L 302.066667 78.413316 
L 302.767983 78.55963 
L 303.468459 78.698856 
L 304.168934 78.831166 
L 304.87025 78.962134 
L 305.570725 79.118065 
L 306.2712 79.298339 
L 306.972516 79.519456 
L 307.672992 79.777944 
L 308.373467 80.077912 
L 309.074783 80.411522 
L 309.775258 80.757655 
L 310.475733 81.123844 
L 311.177049 81.491181 
L 311.877525 81.844365 
L 312.578 82.181885 
L 313.279316 82.505139 
L 313.979791 82.799347 
L 314.680266 83.096314 
L 315.381582 83.406857 
L 316.082058 83.733916 
L 316.782533 84.0616 
L 317.483849 84.411019 
L 318.184324 84.765184 
L 318.884799 85.120213 
L 319.586115 85.450506 
L 320.286591 85.753464 
L 320.987066 86.025948 
L 321.688382 86.275602 
L 322.388857 86.541208 
L 323.089332 86.801946 
L 323.790648 87.075214 
L 324.491124 87.362118 
L 325.191599 87.654169 
L 325.892915 87.954295 
L 326.59339 88.254753 
L 327.293865 88.600916 
L 327.995181 88.929002 
L 328.695656 89.244477 
L 329.396132 89.546824 
L 330.097448 89.840983 
L 330.797923 90.197834 
L 331.498398 90.57195 
L 332.199714 90.974013 
L 332.900189 91.406843 
L 333.600665 91.870964 
L 334.301981 92.353801 
L 335.002456 92.836964 
L 335.702931 93.328166 
L 336.404247 93.802239 
L 337.104722 94.234158 
L 337.805198 94.635674 
L 338.506514 95.01133 
L 339.206989 95.350182 
L 339.907464 95.676992 
L 340.60878 95.996878 
L 341.309255 96.324823 
L 342.009731 96.70046 
L 342.711047 97.092272 
L 343.411522 97.462578 
L 344.111997 97.808297 
L 344.813313 98.124002 
L 345.513788 98.410315 
L 346.214264 98.665157 
L 346.91558 98.897754 
L 347.616055 99.134028 
L 348.31653 99.372181 
L 349.017846 99.623556 
L 349.718321 99.892212 
L 350.418797 100.168154 
L 351.120113 100.446134 
L 351.820588 100.714009 
L 352.521063 100.963885 
L 353.222379 101.192517 
L 353.922854 101.409521 
L 354.62333 101.603788 
L 355.324646 101.78897 
L 356.025121 101.995691 
L 356.725596 102.219374 
L 357.426912 102.46532 
L 358.127387 102.739754 
L 358.827863 103.04714 
L 359.529179 103.37437 
L 360.229654 103.697843 
L 360.930129 104.013465 
L 361.631445 104.319507 
L 362.33192 104.608181 
L 363.032395 104.891286 
L 363.733712 105.16854 
L 364.434187 105.325447 
L 365.134662 105.492329 
L 365.835978 105.687013 
L 366.536453 105.931767 
L 367.236928 106.22031 
L 367.938245 106.553263 
L 368.63872 106.895613 
L 369.339195 107.250815 
L 370.040511 107.606911 
L 370.740986 107.961027 
L 371.441461 108.301308 
L 372.142778 108.646197 
L 372.843253 108.908192 
L 373.543728 109.188025 
L 374.245044 109.492251 
L 374.945519 109.824071 
L 375.645994 110.176404 
L 376.347311 110.556794 
L 377.047786 110.937112 
L 377.748261 111.293622 
L 378.449577 111.614575 
L 379.150052 111.907184 
L 379.850527 112.171982 
L 380.551843 112.411186 
L 381.252319 112.706142 
L 381.952794 113.000555 
L 382.65411 113.302114 
L 383.354585 113.611047 
L 384.05506 113.848269 
L 384.756376 114.097326 
L 385.456852 114.337141 
L 386.157327 114.555849 
L 386.858643 114.746881 
L 387.559118 114.904833 
L 388.259593 115.016014 
L 388.960909 115.109058 
L 389.661385 115.356536 
L 390.36186 115.590495 
L 391.063176 115.830445 
L 391.763651 116.091152 
L 392.464126 116.372406 
L 393.165442 116.678115 
L 393.865918 116.989285 
L 394.566393 117.425396 
L 395.267709 117.842999 
L 395.968184 118.25463 
L 396.668659 118.664057 
L 397.369975 119.075691 
L 398.070451 119.503248 
L 398.770926 119.857738 
L 399.472242 120.222956 
L 400.172717 120.62774 
L 400.873192 121.064678 
L 401.574508 121.531394 
L 402.274984 122.026136 
L 402.975459 122.528345 
L 403.676775 123.023096 
L 404.37725 123.499353 
L 405.077725 123.969438 
L 405.779041 124.437215 
L 406.479517 124.909083 
L 407.179992 125.225102 
L 407.881308 125.575713 
L 408.581783 125.955531 
L 409.282258 126.360434 
L 409.983574 126.793736 
L 410.68405 127.228178 
L 411.384525 127.66402 
L 412.085841 128.086615 
L 412.786316 128.507616 
L 413.486791 128.930473 
L 414.188107 129.349 
L 414.188107 86.084186 
L 414.188107 86.084186 
L 413.486791 85.765657 
L 412.786316 85.451458 
L 412.085841 85.135404 
L 411.384525 84.820943 
L 410.68405 84.519729 
L 409.983574 84.217115 
L 409.282258 83.913362 
L 408.581783 83.637407 
L 407.881308 83.383003 
L 407.179992 83.135325 
L 406.479517 82.888502 
L 405.779041 82.484633 
L 405.077725 82.09362 
L 404.37725 81.712939 
L 403.676775 81.335949 
L 402.975459 80.953517 
L 402.274984 80.562355 
L 401.574508 80.171983 
L 400.873192 79.797509 
L 400.172717 79.455559 
L 399.472242 79.150721 
L 398.770926 78.865214 
L 398.070451 78.573946 
L 397.369975 78.202382 
L 396.668659 77.863987 
L 395.968184 77.540557 
L 395.267709 77.205902 
L 394.566393 76.863035 
L 393.865918 76.508233 
L 393.165442 76.270313 
L 392.464126 76.041505 
L 391.763651 75.841461 
L 391.063176 75.665982 
L 390.36186 75.488383 
L 389.661385 75.30115 
L 388.960909 75.105573 
L 388.259593 75.084048 
L 387.559118 75.036333 
L 386.858643 74.957213 
L 386.157327 74.847773 
L 385.456852 74.705012 
L 384.756376 74.545615 
L 384.05506 74.390265 
L 383.354585 74.23159 
L 382.65411 74.008292 
L 381.952794 73.775728 
L 381.252319 73.53286 
L 380.551843 73.285525 
L 379.850527 73.109675 
L 379.150052 72.930446 
L 378.449577 72.718833 
L 377.748261 72.474098 
L 377.047786 72.204294 
L 376.347311 71.919203 
L 375.645994 71.646326 
L 374.945519 71.368915 
L 374.245044 71.112447 
L 373.543728 70.872584 
L 372.843253 70.651391 
L 372.142778 70.453363 
L 371.441461 70.17105 
L 370.740986 69.895233 
L 370.040511 69.622774 
L 369.339195 69.349386 
L 368.63872 69.067576 
L 367.938245 68.794717 
L 367.236928 68.558564 
L 366.536453 68.352769 
L 365.835978 68.188295 
L 365.134662 68.047984 
L 364.434187 67.926968 
L 363.733712 67.808774 
L 363.032395 67.579501 
L 362.33192 67.362284 
L 361.631445 67.13822 
L 360.930129 66.902083 
L 360.229654 66.654153 
L 359.529179 66.404887 
L 358.827863 66.168971 
L 358.127387 65.944783 
L 357.426912 65.737784 
L 356.725596 65.544512 
L 356.025121 65.36821 
L 355.324646 65.212575 
L 354.62333 65.084726 
L 353.922854 64.958936 
L 353.222379 64.832836 
L 352.521063 64.676735 
L 351.820588 64.494818 
L 351.120113 64.299389 
L 350.418797 64.097094 
L 349.718321 63.902285 
L 349.017846 63.716432 
L 348.31653 63.528991 
L 347.616055 63.342596 
L 346.91558 63.148247 
L 346.214264 62.962549 
L 345.513788 62.763554 
L 344.813313 62.54492 
L 344.111997 62.3014 
L 343.411522 62.025812 
L 342.711047 61.748571 
L 342.009731 61.45908 
L 341.309255 61.167208 
L 340.60878 60.926805 
L 339.907464 60.678228 
L 339.206989 60.419816 
L 338.506514 60.150547 
L 337.805198 59.834418 
L 337.104722 59.501675 
L 336.404247 59.146078 
L 335.702931 58.781106 
L 335.002456 58.397042 
L 334.301981 57.991145 
L 333.600665 57.592297 
L 332.900189 57.209459 
L 332.199714 56.852484 
L 331.498398 56.514089 
L 330.797923 56.19384 
L 330.097448 55.894569 
L 329.396132 55.677985 
L 328.695656 55.464965 
L 327.995181 55.241943 
L 327.293865 55.004365 
L 326.59339 54.752286 
L 325.892915 54.535883 
L 325.191599 54.316855 
L 324.491124 54.103504 
L 323.790648 53.898986 
L 323.089332 53.700263 
L 322.388857 53.502053 
L 321.688382 53.300125 
L 320.987066 53.124072 
L 320.286591 52.936685 
L 319.586115 52.730196 
L 318.884799 52.512034 
L 318.184324 52.282516 
L 317.483849 52.041155 
L 316.782533 51.800601 
L 316.082058 51.563194 
L 315.381582 51.350558 
L 314.680266 51.131276 
L 313.979791 50.906205 
L 313.279316 50.683712 
L 312.578 50.438741 
L 311.877525 50.17942 
L 311.177049 49.943273 
L 310.475733 49.691404 
L 309.775258 49.425529 
L 309.074783 49.157006 
L 308.373467 48.921077 
L 307.672992 48.718608 
L 306.972516 48.541914 
L 306.2712 48.391704 
L 305.570725 48.270676 
L 304.87025 48.178989 
L 304.168934 48.109789 
L 303.468459 48.049824 
L 302.767983 47.987619 
L 302.066667 47.916067 
L 301.366192 47.842515 
L 300.665717 47.777707 
L 299.964401 47.726505 
L 299.263926 47.688019 
L 298.56345 47.65672 
L 297.862134 47.61544 
L 297.161659 47.567978 
L 296.461184 47.511669 
L 295.759868 47.464165 
L 295.059393 47.393738 
L 294.358917 47.279976 
L 293.657601 47.135988 
L 292.957126 46.970702 
L 292.256651 46.784638 
L 291.555335 46.596746 
L 290.85486 46.404315 
L 290.154385 46.208086 
L 289.453068 46.006417 
L 288.752593 45.801253 
L 288.052118 45.599407 
L 287.350802 45.433951 
L 286.650327 45.265727 
L 285.949852 45.065853 
L 285.248535 44.829462 
L 284.54806 44.571969 
L 283.847585 44.306776 
L 283.146269 44.037173 
L 282.445794 43.782764 
L 281.745319 43.542628 
L 281.044002 43.30802 
L 280.343527 43.079928 
L 279.643052 42.872006 
L 278.941736 42.687037 
L 278.241261 42.508482 
L 277.540786 42.336955 
L 276.839469 42.163864 
L 276.138994 41.987641 
L 275.438519 41.826182 
L 274.737203 41.681933 
L 274.036728 41.571061 
L 273.336253 41.485115 
L 272.634937 41.410761 
L 271.934461 41.340938 
L 271.233986 41.275933 
L 270.53267 41.215665 
L 269.832195 41.16051 
L 269.13172 41.099747 
L 268.430404 41.036511 
L 267.729928 40.945053 
L 267.029453 40.85058 
L 266.328137 40.763228 
L 265.627662 40.678131 
L 264.927187 40.570752 
L 264.225871 40.45504 
L 263.525395 40.339337 
L 262.82492 40.221547 
L 262.123604 40.153981 
L 261.423129 40.07297 
L 260.722654 39.968084 
L 260.021338 39.830688 
L 259.320862 39.645711 
L 258.620387 39.436542 
L 257.919071 39.228564 
L 257.218596 39.060568 
L 256.518121 38.907743 
L 255.816805 38.75642 
L 255.116329 38.613142 
L 254.415854 38.479504 
L 253.714538 38.325663 
L 253.014063 38.175463 
L 252.313588 38.014054 
L 251.612272 37.837684 
L 250.911796 37.653753 
L 250.211321 37.474619 
L 249.510005 37.30973 
L 248.80953 37.159972 
L 248.109055 37.028587 
L 247.407739 36.907963 
L 246.707263 36.799245 
L 246.006788 36.709681 
L 245.305472 36.671623 
L 244.604997 36.655931 
L 243.904522 36.659653 
L 243.203206 36.664426 
L 242.50273 36.676163 
L 241.802255 36.69406 
L 241.100939 36.730118 
L 240.400464 36.779879 
L 239.699989 36.866529 
L 238.998673 36.953853 
L 238.298198 37.057675 
L 237.597722 37.188009 
L 236.896406 37.349301 
L 236.195931 37.518293 
L 235.495456 37.638443 
L 234.79414 37.73638 
L 234.093665 37.796151 
L 233.393189 37.841762 
L 232.691873 37.903916 
L 231.991398 37.966014 
L 231.290923 38.049976 
L 230.589607 38.141268 
L 229.889132 38.246487 
L 229.188656 38.373042 
L 228.48734 38.526795 
L 227.786865 38.668375 
L 227.08639 38.812865 
L 226.385074 38.949975 
L 225.684599 39.065952 
L 224.984123 39.203754 
L 224.282807 39.371969 
L 223.582332 39.525065 
L 222.881857 39.679699 
L 222.180541 39.830516 
L 221.480066 39.981284 
L 220.77959 40.143486 
L 220.078274 40.320224 
L 219.377799 40.50181 
L 218.677324 40.672268 
L 217.976008 40.824214 
L 217.275533 40.968553 
L 216.575057 41.104 
L 215.873741 41.248455 
L 215.173266 41.401718 
L 214.472791 41.587392 
L 213.771475 41.768958 
L 213.071 41.960762 
L 212.370524 42.168521 
L 211.669208 42.323188 
L 210.968733 42.474771 
L 210.268258 42.600359 
L 209.566942 42.712811 
L 208.866467 42.808224 
L 208.165991 42.866902 
L 207.464675 42.844358 
L 206.7642 42.846881 
L 206.063725 42.84933 
L 205.362409 42.83654 
L 204.661934 42.823174 
L 203.961458 42.817691 
L 203.260142 42.816027 
L 202.559667 42.83696 
L 201.859192 42.864337 
L 201.157876 42.878264 
L 200.457401 42.8821 
L 199.756926 42.894297 
L 199.055609 42.912554 
L 198.355134 42.90076 
L 197.654659 42.898535 
L 196.953343 42.9188 
L 196.252868 42.947475 
L 195.552393 42.994059 
L 194.851076 43.067313 
L 194.150601 43.159195 
L 193.450126 43.253191 
L 192.74881 43.320668 
L 192.048335 43.36907 
L 191.34786 43.411984 
L 190.646543 43.475397 
L 189.946068 43.52601 
L 189.245593 43.587479 
L 188.544277 43.608801 
L 187.843802 43.635066 
L 187.143327 43.652381 
L 186.44201 43.667513 
L 185.741535 43.680756 
L 185.04106 43.662378 
L 184.339744 43.619503 
L 183.639269 43.536108 
L 182.938794 43.397812 
L 182.237478 43.23387 
L 181.537002 43.069512 
L 180.836527 42.947881 
L 180.135211 42.802257 
L 179.434736 42.606275 
L 178.734261 42.428828 
L 178.032945 42.355325 
L 177.332469 42.235357 
L 176.631994 42.128142 
L 175.930678 42.063916 
L 175.230203 41.963712 
L 174.529728 41.880657 
L 173.828412 41.907421 
L 173.127936 41.881831 
L 172.427461 41.850634 
L 171.726145 42.243727 
L 171.02567 42.186916 
z
" clip-path="url(#p74f2cefaf8)" style="fill: #67a9cf; fill-opacity: 0.25"/>
   </g>
   <g id="PolyCollection_3">
    <path d="M 171.02567 42.33246 
L 171.02567 44.14268 
L 171.726145 44.448352 
L 172.427461 44.666792 
L 173.127936 45.167362 
L 173.828412 45.647128 
L 174.529728 45.889378 
L 175.230203 46.125507 
L 175.930678 46.356394 
L 176.631994 46.582725 
L 177.332469 46.805054 
L 178.032945 47.023825 
L 178.734261 47.239406 
L 179.434736 47.511094 
L 180.135211 47.780019 
L 180.836527 48.046423 
L 181.537002 48.310519 
L 182.237478 48.572484 
L 182.938794 48.832486 
L 183.639269 49.090656 
L 184.339744 49.347126 
L 185.04106 49.602003 
L 185.741535 49.855388 
L 186.44201 50.107369 
L 187.143327 50.358032 
L 187.843802 50.626293 
L 188.544277 50.893438 
L 189.245593 51.159527 
L 189.946068 51.424607 
L 190.646543 51.688728 
L 191.34786 51.951932 
L 192.048335 52.214262 
L 192.74881 52.475753 
L 193.450126 52.736443 
L 194.150601 52.996362 
L 194.851076 53.255542 
L 195.552393 53.514013 
L 196.252868 53.791957 
L 196.953343 54.069223 
L 197.654659 54.345836 
L 198.355134 54.621822 
L 199.055609 54.897198 
L 199.756926 55.111021 
L 200.457401 55.324281 
L 201.157876 55.536993 
L 201.859192 55.749178 
L 202.559667 55.960851 
L 203.260142 56.172027 
L 203.961458 56.382723 
L 204.661934 56.586246 
L 205.362409 56.789306 
L 206.063725 56.99191 
L 206.7642 57.194076 
L 207.464675 57.395809 
L 208.165991 57.59713 
L 208.866467 57.727837 
L 209.566942 57.858149 
L 210.268258 57.98808 
L 210.968733 58.117635 
L 211.669208 58.246829 
L 212.370524 58.375666 
L 213.071 58.435314 
L 213.771475 58.494631 
L 214.472791 58.553635 
L 215.173266 58.61233 
L 215.873741 58.67072 
L 216.575057 58.728813 
L 217.275533 58.786614 
L 217.976008 58.844132 
L 218.677324 58.90137 
L 219.377799 58.958334 
L 220.078274 59.015035 
L 220.77959 59.071473 
L 221.480066 59.140655 
L 222.180541 59.20958 
L 222.881857 59.278251 
L 223.582332 59.346674 
L 224.282807 59.41485 
L 224.984123 59.482788 
L 225.684599 59.55049 
L 226.385074 59.617959 
L 227.08639 59.685201 
L 227.786865 59.752217 
L 228.48734 59.81902 
L 229.188656 59.885603 
L 229.889132 59.970825 
L 230.589607 60.055829 
L 231.290923 60.140617 
L 231.991398 60.225197 
L 232.691873 60.309568 
L 233.393189 60.393737 
L 234.093665 60.477705 
L 234.79414 60.561475 
L 235.495456 60.645054 
L 236.195931 60.728441 
L 236.896406 60.811639 
L 237.597722 60.894653 
L 238.298198 60.983326 
L 238.998673 61.071843 
L 239.699989 61.160193 
L 240.400464 61.24839 
L 241.100939 61.33643 
L 241.802255 61.424317 
L 242.50273 61.512052 
L 243.203206 61.599637 
L 243.904522 61.687077 
L 244.604997 61.774371 
L 245.305472 61.861523 
L 246.006788 61.948529 
L 246.707263 62.052482 
L 247.407739 62.156292 
L 248.109055 62.259959 
L 248.80953 62.363492 
L 249.510005 62.466888 
L 250.211321 62.570155 
L 250.911796 62.673285 
L 251.612272 62.776288 
L 252.313588 62.879158 
L 253.014063 62.981906 
L 253.714538 63.084526 
L 254.415854 63.187022 
L 255.116329 63.27704 
L 255.816805 63.366939 
L 256.518121 63.456726 
L 257.218596 63.546398 
L 257.919071 63.63596 
L 258.620387 63.747779 
L 259.320862 63.859492 
L 260.021338 63.97181 
L 260.722654 64.084027 
L 261.423129 64.196151 
L 262.123604 64.308174 
L 262.82492 64.420097 
L 263.525395 64.600647 
L 264.225871 64.788656 
L 264.927187 64.982708 
L 265.627662 65.173195 
L 266.328137 65.355505 
L 267.029453 65.534355 
L 267.729928 65.712966 
L 268.430404 65.908929 
L 269.13172 66.108819 
L 269.832195 66.326105 
L 270.53267 66.541789 
L 271.233986 66.751191 
L 271.934461 66.95373 
L 272.634937 67.152983 
L 273.336253 67.352086 
L 274.036728 67.54658 
L 274.737203 67.733971 
L 275.438519 67.916904 
L 276.138994 68.097349 
L 276.839469 68.279547 
L 277.540786 68.462318 
L 278.241261 68.644475 
L 278.941736 68.821279 
L 279.643052 68.992067 
L 280.343527 69.160075 
L 281.044002 69.32587 
L 281.745319 69.485607 
L 282.445794 69.639924 
L 283.146269 69.788501 
L 283.847585 69.933549 
L 284.54806 70.076628 
L 285.248535 70.228345 
L 285.949852 70.392108 
L 286.650327 70.562254 
L 287.350802 70.736695 
L 288.052118 70.907551 
L 288.752593 71.110575 
L 289.453068 71.317359 
L 290.154385 71.52477 
L 290.85486 71.730706 
L 291.555335 71.934931 
L 292.256651 72.142669 
L 292.957126 72.35698 
L 293.657601 72.585946 
L 294.358917 72.824182 
L 295.059393 73.071474 
L 295.759868 73.323567 
L 296.461184 73.580824 
L 297.161659 73.858803 
L 297.862134 74.144562 
L 298.56345 74.437814 
L 299.263926 74.729726 
L 299.964401 75.019528 
L 300.665717 75.305851 
L 301.366192 75.591297 
L 302.066667 75.880916 
L 302.767983 76.173771 
L 303.468459 76.465965 
L 304.168934 76.755973 
L 304.87025 77.04387 
L 305.570725 77.33746 
L 306.2712 77.629171 
L 306.972516 77.917515 
L 307.672992 78.200603 
L 308.373467 78.479465 
L 309.074783 78.75568 
L 309.775258 79.029365 
L 310.475733 79.307484 
L 311.177049 79.589637 
L 311.877525 79.873659 
L 312.578 80.17522 
L 313.279316 80.473087 
L 313.979791 80.752626 
L 314.680266 81.035717 
L 315.381582 81.318031 
L 316.082058 81.594463 
L 316.782533 81.86995 
L 317.483849 82.146686 
L 318.184324 82.424438 
L 318.884799 82.710347 
L 319.586115 83.004024 
L 320.286591 83.306564 
L 320.987066 83.609545 
L 321.688382 83.916393 
L 322.388857 84.262167 
L 323.089332 84.615575 
L 323.790648 84.970355 
L 324.491124 85.317538 
L 325.191599 85.655358 
L 325.892915 85.989906 
L 326.59339 86.322351 
L 327.293865 86.700539 
L 327.995181 87.080222 
L 328.695656 87.460064 
L 329.396132 87.836948 
L 330.097448 88.212833 
L 330.797923 88.648923 
L 331.498398 89.083908 
L 332.199714 89.512409 
L 332.900189 89.93268 
L 333.600665 90.349526 
L 334.301981 90.760664 
L 335.002456 91.169399 
L 335.702931 91.581252 
L 336.404247 91.997347 
L 337.104722 92.410102 
L 337.805198 92.817477 
L 338.506514 93.222313 
L 339.206989 93.605473 
L 339.907464 93.99001 
L 340.60878 94.374173 
L 341.309255 94.757177 
L 342.009731 95.180983 
L 342.711047 95.604067 
L 343.411522 96.011675 
L 344.111997 96.426797 
L 344.813313 96.843663 
L 345.513788 97.267713 
L 346.214264 97.696133 
L 346.91558 98.126745 
L 347.616055 98.577796 
L 348.31653 99.032058 
L 349.017846 99.487053 
L 349.718321 99.936236 
L 350.418797 100.381855 
L 351.120113 100.82485 
L 351.820588 101.267352 
L 352.521063 101.713906 
L 353.222379 102.165829 
L 353.922854 102.622019 
L 354.62333 103.082862 
L 355.324646 103.543678 
L 356.025121 104.019364 
L 356.725596 104.500466 
L 357.426912 104.982974 
L 358.127387 105.460821 
L 358.827863 105.938585 
L 359.529179 106.415919 
L 360.229654 106.89344 
L 360.930129 107.374986 
L 361.631445 107.861248 
L 362.33192 108.34527 
L 363.032395 108.827822 
L 363.733712 109.307745 
L 364.434187 109.653947 
L 365.134662 109.982786 
L 365.835978 110.306325 
L 366.536453 110.629008 
L 367.236928 110.947902 
L 367.938245 111.261248 
L 368.63872 111.568463 
L 369.339195 111.877211 
L 370.040511 112.186079 
L 370.740986 112.499631 
L 371.441461 112.808889 
L 372.142778 113.111942 
L 372.843253 113.311769 
L 373.543728 113.510397 
L 374.245044 113.704896 
L 374.945519 113.890264 
L 375.645994 114.067158 
L 376.347311 114.232062 
L 377.047786 114.396061 
L 377.748261 114.556423 
L 378.449577 114.716224 
L 379.150052 114.873716 
L 379.850527 115.022463 
L 380.551843 115.170497 
L 381.252319 115.39308 
L 381.952794 115.623396 
L 382.65411 115.856583 
L 383.354585 116.089633 
L 384.05506 116.253766 
L 384.756376 116.423704 
L 385.456852 116.603711 
L 386.157327 116.792863 
L 386.858643 116.990123 
L 387.559118 117.193893 
L 388.259593 117.395502 
L 388.960909 117.602957 
L 389.661385 117.991245 
L 390.36186 118.370925 
L 391.063176 118.738694 
L 391.763651 119.099527 
L 392.464126 119.458941 
L 393.165442 119.821996 
L 393.865918 120.185528 
L 394.566393 120.685799 
L 395.267709 121.196277 
L 395.968184 121.716094 
L 396.668659 122.239005 
L 397.369975 122.76727 
L 398.070451 123.309583 
L 398.770926 123.751608 
L 399.472242 124.167064 
L 400.172717 124.578245 
L 400.873192 124.990145 
L 401.574508 125.402892 
L 402.274984 125.815507 
L 402.975459 126.227991 
L 403.676775 126.640343 
L 404.37725 127.049108 
L 405.077725 127.457745 
L 405.779041 127.86775 
L 406.479517 128.27762 
L 407.179992 128.531962 
L 407.881308 128.78608 
L 408.581783 129.039972 
L 409.282258 129.293648 
L 409.983574 129.547099 
L 410.68405 129.800342 
L 411.384525 130.053368 
L 412.085841 130.306185 
L 412.786316 130.558792 
L 413.486791 130.811195 
L 414.188107 131.06339 
L 414.188107 102.006802 
L 414.188107 102.006802 
L 413.486791 101.86293 
L 412.786316 101.719261 
L 412.085841 101.575801 
L 411.384525 101.432546 
L 410.68405 101.289505 
L 409.983574 101.146675 
L 409.282258 101.004059 
L 408.581783 100.861663 
L 407.881308 100.719488 
L 407.179992 100.577533 
L 406.479517 100.435809 
L 405.779041 100.110553 
L 405.077725 99.785427 
L 404.37725 99.461241 
L 403.676775 99.137179 
L 402.975459 98.809354 
L 402.274984 98.481661 
L 401.574508 98.1541 
L 400.873192 97.82667 
L 400.172717 97.500521 
L 399.472242 97.175661 
L 398.770926 96.847014 
L 398.070451 96.483901 
L 397.369975 96.016238 
L 396.668659 95.550141 
L 395.968184 95.089904 
L 395.267709 94.632497 
L 394.566393 94.189107 
L 393.865918 93.751684 
L 393.165442 93.444831 
L 392.464126 93.137062 
L 391.763651 92.832046 
L 391.063176 92.525752 
L 390.36186 92.210807 
L 389.661385 91.885497 
L 388.960909 91.551432 
L 388.259593 91.397376 
L 387.559118 91.251075 
L 386.858643 91.101384 
L 386.157327 90.960457 
L 385.456852 90.828588 
L 384.756376 90.706422 
L 384.05506 90.594096 
L 383.354585 90.487991 
L 382.65411 90.312058 
L 381.952794 90.136324 
L 381.252319 89.962176 
L 380.551843 89.793645 
L 379.850527 89.697294 
L 379.150052 89.600174 
L 378.449577 89.493373 
L 377.748261 89.383341 
L 377.047786 89.271919 
L 376.347311 89.156181 
L 375.645994 89.039654 
L 374.945519 88.91284 
L 374.245044 88.778667 
L 373.543728 88.637563 
L 372.843253 88.492207 
L 372.142778 88.346811 
L 371.441461 88.096988 
L 370.740986 87.841403 
L 370.040511 87.580516 
L 369.339195 87.321444 
L 368.63872 87.062481 
L 367.938245 86.803412 
L 367.236928 86.537344 
L 366.536453 86.265406 
L 365.835978 85.98964 
L 365.134662 85.712964 
L 364.434187 85.428864 
L 363.733712 85.12489 
L 363.032395 84.687114 
L 362.33192 84.24668 
L 361.631445 83.804694 
L 360.930129 83.360523 
L 360.229654 82.92245 
L 359.529179 82.488589 
L 358.827863 82.054404 
L 358.127387 81.619575 
L 357.426912 81.184719 
L 356.725596 80.745184 
L 356.025121 80.306991 
L 355.324646 79.877706 
L 354.62333 79.465179 
L 353.922854 79.052799 
L 353.222379 78.64504 
L 352.521063 78.241537 
L 351.820588 77.84264 
L 351.120113 77.446727 
L 350.418797 77.050298 
L 349.718321 76.65074 
L 349.017846 76.246894 
L 348.31653 75.83698 
L 347.616055 75.427935 
L 346.91558 75.022369 
L 346.214264 74.636108 
L 345.513788 74.252866 
L 344.813313 73.875338 
L 344.111997 73.505126 
L 343.411522 73.1369 
L 342.711047 72.774618 
L 342.009731 72.400025 
L 341.309255 72.02913 
L 340.60878 71.702164 
L 339.907464 71.375118 
L 339.206989 71.049334 
L 338.506514 70.727827 
L 337.805198 70.378688 
L 337.104722 70.027054 
L 336.404247 69.666448 
L 335.702931 69.301224 
L 335.002456 68.939633 
L 334.301981 68.584264 
L 333.600665 68.223976 
L 332.900189 67.858385 
L 332.199714 67.489435 
L 331.498398 67.111855 
L 330.797923 66.728585 
L 330.097448 66.343766 
L 329.396132 66.019981 
L 328.695656 65.695515 
L 327.995181 65.368996 
L 327.293865 65.043036 
L 326.59339 64.719103 
L 325.892915 64.450142 
L 325.191599 64.17983 
L 324.491124 63.907212 
L 323.790648 63.627566 
L 323.089332 63.34158 
L 322.388857 63.058616 
L 321.688382 62.783922 
L 320.987066 62.549509 
L 320.286591 62.31819 
L 319.586115 62.088924 
L 318.884799 61.866607 
L 318.184324 61.650396 
L 317.483849 61.441142 
L 316.782533 61.232074 
L 316.082058 61.023857 
L 315.381582 60.815176 
L 314.680266 60.60313 
L 313.979791 60.390731 
L 313.279316 60.179656 
L 312.578 59.945153 
L 311.877525 59.70847 
L 311.177049 59.492111 
L 310.475733 59.276454 
L 309.775258 59.06448 
L 309.074783 58.856644 
L 308.373467 58.64666 
L 307.672992 58.433477 
L 306.972516 58.215728 
L 306.2712 57.991083 
L 305.570725 57.759736 
L 304.87025 57.523307 
L 304.168934 57.290844 
L 303.468459 57.055272 
L 302.767983 56.815836 
L 302.066667 56.574768 
L 301.366192 56.338087 
L 300.665717 56.106529 
L 299.964401 55.874609 
L 299.263926 55.639292 
L 298.56345 55.401981 
L 297.862134 55.163734 
L 297.161659 54.933295 
L 296.461184 54.709697 
L 295.759868 54.50902 
L 295.059393 54.31485 
L 294.358917 54.126579 
L 293.657601 53.94771 
L 292.957126 53.778679 
L 292.256651 53.621602 
L 291.555335 53.472419 
L 290.85486 53.327839 
L 290.154385 53.180551 
L 289.453068 53.031157 
L 288.752593 52.882857 
L 288.052118 52.74057 
L 287.350802 52.628037 
L 286.650327 52.51236 
L 285.949852 52.4013 
L 285.248535 52.295916 
L 284.54806 52.202139 
L 283.847585 52.115552 
L 283.146269 52.027721 
L 282.445794 51.937259 
L 281.745319 51.842007 
L 281.044002 51.741631 
L 280.343527 51.635701 
L 279.643052 51.528974 
L 278.941736 51.420047 
L 278.241261 51.305576 
L 277.540786 51.1868 
L 276.839469 51.067788 
L 276.138994 50.949601 
L 275.438519 50.834214 
L 274.737203 50.716313 
L 274.036728 50.593327 
L 273.336253 50.463459 
L 272.634937 50.328494 
L 271.934461 50.193657 
L 271.233986 50.055848 
L 270.53267 49.909289 
L 269.832195 49.758137 
L 269.13172 49.606146 
L 268.430404 49.473076 
L 267.729928 49.344124 
L 267.029453 49.233242 
L 266.328137 49.122703 
L 265.627662 49.00934 
L 264.927187 48.88752 
L 264.225871 48.762952 
L 263.525395 48.645465 
L 262.82492 48.535524 
L 262.123604 48.478782 
L 261.423129 48.422138 
L 260.722654 48.365591 
L 260.021338 48.309143 
L 259.320862 48.252795 
L 258.620387 48.199034 
L 257.919071 48.14538 
L 257.218596 48.114438 
L 256.518121 48.083606 
L 255.816805 48.052889 
L 255.116329 48.022285 
L 254.415854 47.991798 
L 253.714538 47.950423 
L 253.014063 47.909176 
L 252.313588 47.868053 
L 251.612272 47.827056 
L 250.911796 47.786188 
L 250.211321 47.745452 
L 249.510005 47.704847 
L 248.80953 47.664377 
L 248.109055 47.624038 
L 247.407739 47.583839 
L 246.707263 47.543777 
L 246.006788 47.503858 
L 245.305472 47.48044 
L 244.604997 47.457168 
L 243.904522 47.434039 
L 243.203206 47.411049 
L 242.50273 47.38821 
L 241.802255 47.365522 
L 241.100939 47.342985 
L 240.400464 47.320596 
L 239.699989 47.298369 
L 238.998673 47.276295 
L 238.298198 47.254383 
L 237.597722 47.232633 
L 236.896406 47.220299 
L 236.195931 47.208154 
L 235.495456 47.196193 
L 234.79414 47.184424 
L 234.093665 47.172847 
L 233.393189 47.161473 
L 232.691873 47.150293 
L 231.991398 47.139317 
L 231.290923 47.128548 
L 230.589607 47.117994 
L 229.889132 47.107651 
L 229.188656 47.097525 
L 228.48734 47.104747 
L 227.786865 47.112184 
L 227.08639 47.11984 
L 226.385074 47.12772 
L 225.684599 47.135829 
L 224.984123 47.144165 
L 224.282807 47.152742 
L 223.582332 47.161558 
L 222.881857 47.170615 
L 222.180541 47.179924 
L 221.480066 47.189489 
L 220.77959 47.199311 
L 220.078274 47.221231 
L 219.377799 47.243414 
L 218.677324 47.265867 
L 217.976008 47.288588 
L 217.275533 47.311594 
L 216.575057 47.334877 
L 215.873741 47.358453 
L 215.173266 47.382331 
L 214.472791 47.406508 
L 213.771475 47.430995 
L 213.071 47.4558 
L 212.370524 47.480931 
L 211.669208 47.439336 
L 210.968733 47.398098 
L 210.268258 47.357222 
L 209.566942 47.316721 
L 208.866467 47.276602 
L 208.165991 47.236872 
L 207.464675 47.127608 
L 206.7642 47.018761 
L 206.063725 46.910342 
L 205.362409 46.802361 
L 204.661934 46.694835 
L 203.961458 46.587774 
L 203.260142 46.473248 
L 202.559667 46.359201 
L 201.859192 46.245652 
L 201.157876 46.132615 
L 200.457401 46.020104 
L 199.756926 45.908142 
L 199.055609 45.796742 
L 198.355134 45.62534 
L 197.654659 45.454546 
L 196.953343 45.284381 
L 196.252868 45.114873 
L 195.552393 44.946037 
L 194.851076 44.796509 
L 194.150601 44.647693 
L 193.450126 44.499612 
L 192.74881 44.352302 
L 192.048335 44.205798 
L 191.34786 44.060127 
L 190.646543 43.915337 
L 189.946068 43.771457 
L 189.245593 43.628542 
L 188.544277 43.486631 
L 187.843802 43.345781 
L 187.143327 43.206041 
L 186.44201 43.090257 
L 185.741535 42.975791 
L 185.04106 42.86273 
L 184.339744 42.75116 
L 183.639269 42.641183 
L 182.938794 42.532906 
L 182.237478 42.426461 
L 181.537002 42.321979 
L 180.836527 42.219628 
L 180.135211 42.119586 
L 179.434736 42.022064 
L 178.734261 41.927305 
L 178.032945 41.889418 
L 177.332469 41.854717 
L 176.631994 41.823572 
L 175.930678 41.796437 
L 175.230203 41.77385 
L 174.529728 41.756506 
L 173.828412 41.745288 
L 173.127936 41.627938 
L 172.427461 41.531398 
L 171.726145 41.888313 
L 171.02567 42.33246 
z
" clip-path="url(#p74f2cefaf8)" style="fill: #02818a; fill-opacity: 0.25"/>
   </g>
   <g id="matplotlib.axis_1">
    <g id="xtick_1">
     <g id="line2d_1">
      <defs>
       <path id="m6008cf8ce4" d="M 0 0 
L 0 3.5 
" style="stroke: #000000; stroke-width: 0.8"/>
      </defs>
      <g>
       <use xlink:href="#m6008cf8ce4" x="70.116878" y="186.84327" style="stroke: #000000; stroke-width: 0.8"/>
      </g>
     </g>
     <g id="text_1">
      <!-- 1980 -->
      <g transform="translate(57.391878 201.441708) scale(0.1 -0.1)">
       <defs>
        <path id="DejaVuSans-31" d="M 794 531 
L 1825 531 
L 1825 4091 
L 703 3866 
L 703 4441 
L 1819 4666 
L 2450 4666 
L 2450 531 
L 3481 531 
L 3481 0 
L 794 0 
L 794 531 
z
" transform="scale(0.015625)"/>
        <path id="DejaVuSans-39" d="M 703 97 
L 703 672 
Q 941 559 1184 500 
Q 1428 441 1663 441 
Q 2288 441 2617 861 
Q 2947 1281 2994 2138 
Q 2813 1869 2534 1725 
Q 2256 1581 1919 1581 
Q 1219 1581 811 2004 
Q 403 2428 403 3163 
Q 403 3881 828 4315 
Q 1253 4750 1959 4750 
Q 2769 4750 3195 4129 
Q 3622 3509 3622 2328 
Q 3622 1225 3098 567 
Q 2575 -91 1691 -91 
Q 1453 -91 1209 -44 
Q 966 3 703 97 
z
M 1959 2075 
Q 2384 2075 2632 2365 
Q 2881 2656 2881 3163 
Q 2881 3666 2632 3958 
Q 2384 4250 1959 4250 
Q 1534 4250 1286 3958 
Q 1038 3666 1038 3163 
Q 1038 2656 1286 2365 
Q 1534 2075 1959 2075 
z
" transform="scale(0.015625)"/>
        <path id="DejaVuSans-38" d="M 2034 2216 
Q 1584 2216 1326 1975 
Q 1069 1734 1069 1313 
Q 1069 891 1326 650 
Q 1584 409 2034 409 
Q 2484 409 2743 651 
Q 3003 894 3003 1313 
Q 3003 1734 2745 1975 
Q 2488 2216 2034 2216 
z
M 1403 2484 
Q 997 2584 770 2862 
Q 544 3141 544 3541 
Q 544 4100 942 4425 
Q 1341 4750 2034 4750 
Q 2731 4750 3128 4425 
Q 3525 4100 3525 3541 
Q 3525 3141 3298 2862 
Q 3072 2584 2669 2484 
Q 3125 2378 3379 2068 
Q 3634 1759 3634 1313 
Q 3634 634 3220 271 
Q 2806 -91 2034 -91 
Q 1263 -91 848 271 
Q 434 634 434 1313 
Q 434 1759 690 2068 
Q 947 2378 1403 2484 
z
M 1172 3481 
Q 1172 3119 1398 2916 
Q 1625 2713 2034 2713 
Q 2441 2713 2670 2916 
Q 2900 3119 2900 3481 
Q 2900 3844 2670 4047 
Q 2441 4250 2034 4250 
Q 1625 4250 1398 4047 
Q 1172 3844 1172 3481 
z
" transform="scale(0.015625)"/>
        <path id="DejaVuSans-30" d="M 2034 4250 
Q 1547 4250 1301 3770 
Q 1056 3291 1056 2328 
Q 1056 1369 1301 889 
Q 1547 409 2034 409 
Q 2525 409 2770 889 
Q 3016 1369 3016 2328 
Q 3016 3291 2770 3770 
Q 2525 4250 2034 4250 
z
M 2034 4750 
Q 2819 4750 3233 4129 
Q 3647 3509 3647 2328 
Q 3647 1150 3233 529 
Q 2819 -91 2034 -91 
Q 1250 -91 836 529 
Q 422 1150 422 2328 
Q 422 3509 836 4129 
Q 1250 4750 2034 4750 
z
" transform="scale(0.015625)"/>
       </defs>
       <use xlink:href="#DejaVuSans-31"/>
       <use xlink:href="#DejaVuSans-39" x="63.623047"/>
       <use xlink:href="#DejaVuSans-38" x="127.246094"/>
       <use xlink:href="#DejaVuSans-30" x="190.869141"/>
      </g>
     </g>
    </g>
    <g id="xtick_2">
     <g id="line2d_2">
      <g>
       <use xlink:href="#m6008cf8ce4" x="112.162208" y="186.84327" style="stroke: #000000; stroke-width: 0.8"/>
      </g>
     </g>
     <g id="text_2">
      <!-- 1985 -->
      <g transform="translate(99.437208 201.441708) scale(0.1 -0.1)">
       <defs>
        <path id="DejaVuSans-35" d="M 691 4666 
L 3169 4666 
L 3169 4134 
L 1269 4134 
L 1269 2991 
Q 1406 3038 1543 3061 
Q 1681 3084 1819 3084 
Q 2600 3084 3056 2656 
Q 3513 2228 3513 1497 
Q 3513 744 3044 326 
Q 2575 -91 1722 -91 
Q 1428 -91 1123 -41 
Q 819 9 494 109 
L 494 744 
Q 775 591 1075 516 
Q 1375 441 1709 441 
Q 2250 441 2565 725 
Q 2881 1009 2881 1497 
Q 2881 1984 2565 2268 
Q 2250 2553 1709 2553 
Q 1456 2553 1204 2497 
Q 953 2441 691 2322 
L 691 4666 
z
" transform="scale(0.015625)"/>
       </defs>
       <use xlink:href="#DejaVuSans-31"/>
       <use xlink:href="#DejaVuSans-39" x="63.623047"/>
       <use xlink:href="#DejaVuSans-38" x="127.246094"/>
       <use xlink:href="#DejaVuSans-35" x="190.869141"/>
      </g>
     </g>
    </g>
    <g id="xtick_3">
     <g id="line2d_3">
      <g>
       <use xlink:href="#m6008cf8ce4" x="154.207538" y="186.84327" style="stroke: #000000; stroke-width: 0.8"/>
      </g>
     </g>
     <g id="text_3">
      <!-- 1990 -->
      <g transform="translate(141.482538 201.441708) scale(0.1 -0.1)">
       <use xlink:href="#DejaVuSans-31"/>
       <use xlink:href="#DejaVuSans-39" x="63.623047"/>
       <use xlink:href="#DejaVuSans-39" x="127.246094"/>
       <use xlink:href="#DejaVuSans-30" x="190.869141"/>
      </g>
     </g>
    </g>
    <g id="xtick_4">
     <g id="line2d_4">
      <g>
       <use xlink:href="#m6008cf8ce4" x="196.252868" y="186.84327" style="stroke: #000000; stroke-width: 0.8"/>
      </g>
     </g>
     <g id="text_4">
      <!-- 1995 -->
      <g transform="translate(183.527868 201.441708) scale(0.1 -0.1)">
       <use xlink:href="#DejaVuSans-31"/>
       <use xlink:href="#DejaVuSans-39" x="63.623047"/>
       <use xlink:href="#DejaVuSans-39" x="127.246094"/>
       <use xlink:href="#DejaVuSans-35" x="190.869141"/>
      </g>
     </g>
    </g>
    <g id="xtick_5">
     <g id="line2d_5">
      <g>
       <use xlink:href="#m6008cf8ce4" x="238.298198" y="186.84327" style="stroke: #000000; stroke-width: 0.8"/>
      </g>
     </g>
     <g id="text_5">
      <!-- 2000 -->
      <g transform="translate(225.573198 201.441708) scale(0.1 -0.1)">
       <defs>
        <path id="DejaVuSans-32" d="M 1228 531 
L 3431 531 
L 3431 0 
L 469 0 
L 469 531 
Q 828 903 1448 1529 
Q 2069 2156 2228 2338 
Q 2531 2678 2651 2914 
Q 2772 3150 2772 3378 
Q 2772 3750 2511 3984 
Q 2250 4219 1831 4219 
Q 1534 4219 1204 4116 
Q 875 4013 500 3803 
L 500 4441 
Q 881 4594 1212 4672 
Q 1544 4750 1819 4750 
Q 2544 4750 2975 4387 
Q 3406 4025 3406 3419 
Q 3406 3131 3298 2873 
Q 3191 2616 2906 2266 
Q 2828 2175 2409 1742 
Q 1991 1309 1228 531 
z
" transform="scale(0.015625)"/>
       </defs>
       <use xlink:href="#DejaVuSans-32"/>
       <use xlink:href="#DejaVuSans-30" x="63.623047"/>
       <use xlink:href="#DejaVuSans-30" x="127.246094"/>
       <use xlink:href="#DejaVuSans-30" x="190.869141"/>
      </g>
     </g>
    </g>
    <g id="xtick_6">
     <g id="line2d_6">
      <g>
       <use xlink:href="#m6008cf8ce4" x="280.343527" y="186.84327" style="stroke: #000000; stroke-width: 0.8"/>
      </g>
     </g>
     <g id="text_6">
      <!-- 2005 -->
      <g transform="translate(267.618527 201.441708) scale(0.1 -0.1)">
       <use xlink:href="#DejaVuSans-32"/>
       <use xlink:href="#DejaVuSans-30" x="63.623047"/>
       <use xlink:href="#DejaVuSans-30" x="127.246094"/>
       <use xlink:href="#DejaVuSans-35" x="190.869141"/>
      </g>
     </g>
    </g>
    <g id="xtick_7">
     <g id="line2d_7">
      <g>
       <use xlink:href="#m6008cf8ce4" x="322.388857" y="186.84327" style="stroke: #000000; stroke-width: 0.8"/>
      </g>
     </g>
     <g id="text_7">
      <!-- 2010 -->
      <g transform="translate(309.663857 201.441708) scale(0.1 -0.1)">
       <use xlink:href="#DejaVuSans-32"/>
       <use xlink:href="#DejaVuSans-30" x="63.623047"/>
       <use xlink:href="#DejaVuSans-31" x="127.246094"/>
       <use xlink:href="#DejaVuSans-30" x="190.869141"/>
      </g>
     </g>
    </g>
    <g id="xtick_8">
     <g id="line2d_8">
      <g>
       <use xlink:href="#m6008cf8ce4" x="364.434187" y="186.84327" style="stroke: #000000; stroke-width: 0.8"/>
      </g>
     </g>
     <g id="text_8">
      <!-- 2015 -->
      <g transform="translate(351.709187 201.441708) scale(0.1 -0.1)">
       <use xlink:href="#DejaVuSans-32"/>
       <use xlink:href="#DejaVuSans-30" x="63.623047"/>
       <use xlink:href="#DejaVuSans-31" x="127.246094"/>
       <use xlink:href="#DejaVuSans-35" x="190.869141"/>
      </g>
     </g>
    </g>
    <g id="xtick_9">
     <g id="line2d_9">
      <g>
       <use xlink:href="#m6008cf8ce4" x="406.479517" y="186.84327" style="stroke: #000000; stroke-width: 0.8"/>
      </g>
     </g>
     <g id="text_9">
      <!-- 2020 -->
      <g transform="translate(393.754517 201.441708) scale(0.1 -0.1)">
       <use xlink:href="#DejaVuSans-32"/>
       <use xlink:href="#DejaVuSans-30" x="63.623047"/>
       <use xlink:href="#DejaVuSans-32" x="127.246094"/>
       <use xlink:href="#DejaVuSans-30" x="190.869141"/>
      </g>
     </g>
    </g>
    <g id="text_10">
     <!-- Year -->
     <g transform="translate(227.710698 215.119833) scale(0.1 -0.1)">
      <defs>
       <path id="DejaVuSans-59" d="M -13 4666 
L 666 4666 
L 1959 2747 
L 3244 4666 
L 3922 4666 
L 2272 2222 
L 2272 0 
L 1638 0 
L 1638 2222 
L -13 4666 
z
" transform="scale(0.015625)"/>
       <path id="DejaVuSans-65" d="M 3597 1894 
L 3597 1613 
L 953 1613 
Q 991 1019 1311 708 
Q 1631 397 2203 397 
Q 2534 397 2845 478 
Q 3156 559 3463 722 
L 3463 178 
Q 3153 47 2828 -22 
Q 2503 -91 2169 -91 
Q 1331 -91 842 396 
Q 353 884 353 1716 
Q 353 2575 817 3079 
Q 1281 3584 2069 3584 
Q 2775 3584 3186 3129 
Q 3597 2675 3597 1894 
z
M 3022 2063 
Q 3016 2534 2758 2815 
Q 2500 3097 2075 3097 
Q 1594 3097 1305 2825 
Q 1016 2553 972 2059 
L 3022 2063 
z
" transform="scale(0.015625)"/>
       <path id="DejaVuSans-61" d="M 2194 1759 
Q 1497 1759 1228 1600 
Q 959 1441 959 1056 
Q 959 750 1161 570 
Q 1363 391 1709 391 
Q 2188 391 2477 730 
Q 2766 1069 2766 1631 
L 2766 1759 
L 2194 1759 
z
M 3341 1997 
L 3341 0 
L 2766 0 
L 2766 531 
Q 2569 213 2275 61 
Q 1981 -91 1556 -91 
Q 1019 -91 701 211 
Q 384 513 384 1019 
Q 384 1609 779 1909 
Q 1175 2209 1959 2209 
L 2766 2209 
L 2766 2266 
Q 2766 2663 2505 2880 
Q 2244 3097 1772 3097 
Q 1472 3097 1187 3025 
Q 903 2953 641 2809 
L 641 3341 
Q 956 3463 1253 3523 
Q 1550 3584 1831 3584 
Q 2591 3584 2966 3190 
Q 3341 2797 3341 1997 
z
" transform="scale(0.015625)"/>
       <path id="DejaVuSans-72" d="M 2631 2963 
Q 2534 3019 2420 3045 
Q 2306 3072 2169 3072 
Q 1681 3072 1420 2755 
Q 1159 2438 1159 1844 
L 1159 0 
L 581 0 
L 581 3500 
L 1159 3500 
L 1159 2956 
Q 1341 3275 1631 3429 
Q 1922 3584 2338 3584 
Q 2397 3584 2469 3576 
Q 2541 3569 2628 3553 
L 2631 2963 
z
" transform="scale(0.015625)"/>
      </defs>
      <use xlink:href="#DejaVuSans-59"/>
      <use xlink:href="#DejaVuSans-65" x="47.833984"/>
      <use xlink:href="#DejaVuSans-61" x="109.357422"/>
      <use xlink:href="#DejaVuSans-72" x="170.636719"/>
     </g>
    </g>
   </g>
   <g id="matplotlib.axis_2">
    <g id="ytick_1">
     <g id="line2d_10">
      <defs>
       <path id="m3c745fedd3" d="M 0 0 
L -3.5 0 
" style="stroke: #000000; stroke-width: 0.8"/>
      </defs>
      <g>
       <use xlink:href="#m3c745fedd3" x="61.707813" y="186.84327" style="stroke: #000000; stroke-width: 0.8"/>
      </g>
     </g>
     <g id="text_11">
      <!-- 5000 -->
      <g transform="translate(20.878125 190.642489) scale(0.1 -0.1)">
       <defs>
        <path id="DejaVuSans-2212" d="M 678 2272 
L 4684 2272 
L 4684 1741 
L 678 1741 
L 678 2272 
z
" transform="scale(0.015625)"/>
       </defs>
       <use xlink:href="#DejaVuSans-2212"/>
       <use xlink:href="#DejaVuSans-35" x="83.789062"/>
       <use xlink:href="#DejaVuSans-30" x="147.412109"/>
       <use xlink:href="#DejaVuSans-30" x="211.035156"/>
       <use xlink:href="#DejaVuSans-30" x="274.658203"/>
      </g>
     </g>
    </g>
    <g id="ytick_2">
     <g id="line2d_11">
      <g>
       <use xlink:href="#m3c745fedd3" x="61.707813" y="159.422413" style="stroke: #000000; stroke-width: 0.8"/>
      </g>
     </g>
     <g id="text_12">
      <!-- 4000 -->
      <g transform="translate(20.878125 163.221631) scale(0.1 -0.1)">
       <defs>
        <path id="DejaVuSans-34" d="M 2419 4116 
L 825 1625 
L 2419 1625 
L 2419 4116 
z
M 2253 4666 
L 3047 4666 
L 3047 1625 
L 3713 1625 
L 3713 1100 
L 3047 1100 
L 3047 0 
L 2419 0 
L 2419 1100 
L 313 1100 
L 313 1709 
L 2253 4666 
z
" transform="scale(0.015625)"/>
       </defs>
       <use xlink:href="#DejaVuSans-2212"/>
       <use xlink:href="#DejaVuSans-34" x="83.789062"/>
       <use xlink:href="#DejaVuSans-30" x="147.412109"/>
       <use xlink:href="#DejaVuSans-30" x="211.035156"/>
       <use xlink:href="#DejaVuSans-30" x="274.658203"/>
      </g>
     </g>
    </g>
    <g id="ytick_3">
     <g id="line2d_12">
      <g>
       <use xlink:href="#m3c745fedd3" x="61.707813" y="132.001555" style="stroke: #000000; stroke-width: 0.8"/>
      </g>
     </g>
     <g id="text_13">
      <!-- 3000 -->
      <g transform="translate(20.878125 135.800774) scale(0.1 -0.1)">
       <defs>
        <path id="DejaVuSans-33" d="M 2597 2516 
Q 3050 2419 3304 2112 
Q 3559 1806 3559 1356 
Q 3559 666 3084 287 
Q 2609 -91 1734 -91 
Q 1441 -91 1130 -33 
Q 819 25 488 141 
L 488 750 
Q 750 597 1062 519 
Q 1375 441 1716 441 
Q 2309 441 2620 675 
Q 2931 909 2931 1356 
Q 2931 1769 2642 2001 
Q 2353 2234 1838 2234 
L 1294 2234 
L 1294 2753 
L 1863 2753 
Q 2328 2753 2575 2939 
Q 2822 3125 2822 3475 
Q 2822 3834 2567 4026 
Q 2313 4219 1838 4219 
Q 1578 4219 1281 4162 
Q 984 4106 628 3988 
L 628 4550 
Q 988 4650 1302 4700 
Q 1616 4750 1894 4750 
Q 2613 4750 3031 4423 
Q 3450 4097 3450 3541 
Q 3450 3153 3228 2886 
Q 3006 2619 2597 2516 
z
" transform="scale(0.015625)"/>
       </defs>
       <use xlink:href="#DejaVuSans-2212"/>
       <use xlink:href="#DejaVuSans-33" x="83.789062"/>
       <use xlink:href="#DejaVuSans-30" x="147.412109"/>
       <use xlink:href="#DejaVuSans-30" x="211.035156"/>
       <use xlink:href="#DejaVuSans-30" x="274.658203"/>
      </g>
     </g>
    </g>
    <g id="ytick_4">
     <g id="line2d_13">
      <g>
       <use xlink:href="#m3c745fedd3" x="61.707813" y="104.580698" style="stroke: #000000; stroke-width: 0.8"/>
      </g>
     </g>
     <g id="text_14">
      <!-- 2000 -->
      <g transform="translate(20.878125 108.379916) scale(0.1 -0.1)">
       <use xlink:href="#DejaVuSans-2212"/>
       <use xlink:href="#DejaVuSans-32" x="83.789062"/>
       <use xlink:href="#DejaVuSans-30" x="147.412109"/>
       <use xlink:href="#DejaVuSans-30" x="211.035156"/>
       <use xlink:href="#DejaVuSans-30" x="274.658203"/>
      </g>
     </g>
    </g>
    <g id="ytick_5">
     <g id="line2d_14">
      <g>
       <use xlink:href="#m3c745fedd3" x="61.707813" y="77.15984" style="stroke: #000000; stroke-width: 0.8"/>
      </g>
     </g>
     <g id="text_15">
      <!-- 1000 -->
      <g transform="translate(20.878125 80.959059) scale(0.1 -0.1)">
       <use xlink:href="#DejaVuSans-2212"/>
       <use xlink:href="#DejaVuSans-31" x="83.789062"/>
       <use xlink:href="#DejaVuSans-30" x="147.412109"/>
       <use xlink:href="#DejaVuSans-30" x="211.035156"/>
       <use xlink:href="#DejaVuSans-30" x="274.658203"/>
      </g>
     </g>
    </g>
    <g id="ytick_6">
     <g id="line2d_15">
      <g>
       <use xlink:href="#m3c745fedd3" x="61.707813" y="49.738983" style="stroke: #000000; stroke-width: 0.8"/>
      </g>
     </g>
     <g id="text_16">
      <!-- 0 -->
      <g transform="translate(48.345313 53.538201) scale(0.1 -0.1)">
       <use xlink:href="#DejaVuSans-30"/>
      </g>
     </g>
    </g>
    <g id="ytick_7">
     <g id="line2d_16">
      <g>
       <use xlink:href="#m3c745fedd3" x="61.707813" y="22.318125" style="stroke: #000000; stroke-width: 0.8"/>
      </g>
     </g>
     <g id="text_17">
      <!-- 1000 -->
      <g transform="translate(29.257812 26.117344) scale(0.1 -0.1)">
       <use xlink:href="#DejaVuSans-31"/>
       <use xlink:href="#DejaVuSans-30" x="63.623047"/>
       <use xlink:href="#DejaVuSans-30" x="127.246094"/>
       <use xlink:href="#DejaVuSans-30" x="190.869141"/>
      </g>
     </g>
    </g>
    <g id="text_18">
     <!-- Mass change [Gt] -->
     <g transform="translate(14.798438 148.483823) rotate(-90) scale(0.1 -0.1)">
      <defs>
       <path id="DejaVuSans-4d" d="M 628 4666 
L 1569 4666 
L 2759 1491 
L 3956 4666 
L 4897 4666 
L 4897 0 
L 4281 0 
L 4281 4097 
L 3078 897 
L 2444 897 
L 1241 4097 
L 1241 0 
L 628 0 
L 628 4666 
z
" transform="scale(0.015625)"/>
       <path id="DejaVuSans-73" d="M 2834 3397 
L 2834 2853 
Q 2591 2978 2328 3040 
Q 2066 3103 1784 3103 
Q 1356 3103 1142 2972 
Q 928 2841 928 2578 
Q 928 2378 1081 2264 
Q 1234 2150 1697 2047 
L 1894 2003 
Q 2506 1872 2764 1633 
Q 3022 1394 3022 966 
Q 3022 478 2636 193 
Q 2250 -91 1575 -91 
Q 1294 -91 989 -36 
Q 684 19 347 128 
L 347 722 
Q 666 556 975 473 
Q 1284 391 1588 391 
Q 1994 391 2212 530 
Q 2431 669 2431 922 
Q 2431 1156 2273 1281 
Q 2116 1406 1581 1522 
L 1381 1569 
Q 847 1681 609 1914 
Q 372 2147 372 2553 
Q 372 3047 722 3315 
Q 1072 3584 1716 3584 
Q 2034 3584 2315 3537 
Q 2597 3491 2834 3397 
z
" transform="scale(0.015625)"/>
       <path id="DejaVuSans-20" transform="scale(0.015625)"/>
       <path id="DejaVuSans-63" d="M 3122 3366 
L 3122 2828 
Q 2878 2963 2633 3030 
Q 2388 3097 2138 3097 
Q 1578 3097 1268 2742 
Q 959 2388 959 1747 
Q 959 1106 1268 751 
Q 1578 397 2138 397 
Q 2388 397 2633 464 
Q 2878 531 3122 666 
L 3122 134 
Q 2881 22 2623 -34 
Q 2366 -91 2075 -91 
Q 1284 -91 818 406 
Q 353 903 353 1747 
Q 353 2603 823 3093 
Q 1294 3584 2113 3584 
Q 2378 3584 2631 3529 
Q 2884 3475 3122 3366 
z
" transform="scale(0.015625)"/>
       <path id="DejaVuSans-68" d="M 3513 2113 
L 3513 0 
L 2938 0 
L 2938 2094 
Q 2938 2591 2744 2837 
Q 2550 3084 2163 3084 
Q 1697 3084 1428 2787 
Q 1159 2491 1159 1978 
L 1159 0 
L 581 0 
L 581 4863 
L 1159 4863 
L 1159 2956 
Q 1366 3272 1645 3428 
Q 1925 3584 2291 3584 
Q 2894 3584 3203 3211 
Q 3513 2838 3513 2113 
z
" transform="scale(0.015625)"/>
       <path id="DejaVuSans-6e" d="M 3513 2113 
L 3513 0 
L 2938 0 
L 2938 2094 
Q 2938 2591 2744 2837 
Q 2550 3084 2163 3084 
Q 1697 3084 1428 2787 
Q 1159 2491 1159 1978 
L 1159 0 
L 581 0 
L 581 3500 
L 1159 3500 
L 1159 2956 
Q 1366 3272 1645 3428 
Q 1925 3584 2291 3584 
Q 2894 3584 3203 3211 
Q 3513 2838 3513 2113 
z
" transform="scale(0.015625)"/>
       <path id="DejaVuSans-67" d="M 2906 1791 
Q 2906 2416 2648 2759 
Q 2391 3103 1925 3103 
Q 1463 3103 1205 2759 
Q 947 2416 947 1791 
Q 947 1169 1205 825 
Q 1463 481 1925 481 
Q 2391 481 2648 825 
Q 2906 1169 2906 1791 
z
M 3481 434 
Q 3481 -459 3084 -895 
Q 2688 -1331 1869 -1331 
Q 1566 -1331 1297 -1286 
Q 1028 -1241 775 -1147 
L 775 -588 
Q 1028 -725 1275 -790 
Q 1522 -856 1778 -856 
Q 2344 -856 2625 -561 
Q 2906 -266 2906 331 
L 2906 616 
Q 2728 306 2450 153 
Q 2172 0 1784 0 
Q 1141 0 747 490 
Q 353 981 353 1791 
Q 353 2603 747 3093 
Q 1141 3584 1784 3584 
Q 2172 3584 2450 3431 
Q 2728 3278 2906 2969 
L 2906 3500 
L 3481 3500 
L 3481 434 
z
" transform="scale(0.015625)"/>
       <path id="DejaVuSans-5b" d="M 550 4863 
L 1875 4863 
L 1875 4416 
L 1125 4416 
L 1125 -397 
L 1875 -397 
L 1875 -844 
L 550 -844 
L 550 4863 
z
" transform="scale(0.015625)"/>
       <path id="DejaVuSans-47" d="M 3809 666 
L 3809 1919 
L 2778 1919 
L 2778 2438 
L 4434 2438 
L 4434 434 
Q 4069 175 3628 42 
Q 3188 -91 2688 -91 
Q 1594 -91 976 548 
Q 359 1188 359 2328 
Q 359 3472 976 4111 
Q 1594 4750 2688 4750 
Q 3144 4750 3555 4637 
Q 3966 4525 4313 4306 
L 4313 3634 
Q 3963 3931 3569 4081 
Q 3175 4231 2741 4231 
Q 1884 4231 1454 3753 
Q 1025 3275 1025 2328 
Q 1025 1384 1454 906 
Q 1884 428 2741 428 
Q 3075 428 3337 486 
Q 3600 544 3809 666 
z
" transform="scale(0.015625)"/>
       <path id="DejaVuSans-74" d="M 1172 4494 
L 1172 3500 
L 2356 3500 
L 2356 3053 
L 1172 3053 
L 1172 1153 
Q 1172 725 1289 603 
Q 1406 481 1766 481 
L 2356 481 
L 2356 0 
L 1766 0 
Q 1100 0 847 248 
Q 594 497 594 1153 
L 594 3053 
L 172 3053 
L 172 3500 
L 594 3500 
L 594 4494 
L 1172 4494 
z
" transform="scale(0.015625)"/>
       <path id="DejaVuSans-5d" d="M 1947 4863 
L 1947 -844 
L 622 -844 
L 622 -397 
L 1369 -397 
L 1369 4416 
L 622 4416 
L 622 4863 
L 1947 4863 
z
" transform="scale(0.015625)"/>
      </defs>
      <use xlink:href="#DejaVuSans-4d"/>
      <use xlink:href="#DejaVuSans-61" x="86.279297"/>
      <use xlink:href="#DejaVuSans-73" x="147.558594"/>
      <use xlink:href="#DejaVuSans-73" x="199.658203"/>
      <use xlink:href="#DejaVuSans-20" x="251.757812"/>
      <use xlink:href="#DejaVuSans-63" x="283.544922"/>
      <use xlink:href="#DejaVuSans-68" x="338.525391"/>
      <use xlink:href="#DejaVuSans-61" x="401.904297"/>
      <use xlink:href="#DejaVuSans-6e" x="463.183594"/>
      <use xlink:href="#DejaVuSans-67" x="526.5625"/>
      <use xlink:href="#DejaVuSans-65" x="590.039062"/>
      <use xlink:href="#DejaVuSans-20" x="651.5625"/>
      <use xlink:href="#DejaVuSans-5b" x="683.349609"/>
      <use xlink:href="#DejaVuSans-47" x="722.363281"/>
      <use xlink:href="#DejaVuSans-74" x="799.853516"/>
      <use xlink:href="#DejaVuSans-5d" x="839.0625"/>
     </g>
    </g>
   </g>
   <g id="line2d_17">
    <path d="M 61.707813 49.466141 
L 77.124433 43.567023 
L 79.927455 42.617914 
L 82.029722 41.678731 
L 84.131988 40.716919 
L 86.93501 39.755826 
L 93.24181 37.773953 
L 103.052387 36.566529 
L 105.154653 36.461606 
L 107.25692 36.115756 
L 110.760697 35.356534 
L 118.469008 34.083192 
L 120.571274 34.09851 
L 124.775807 34.401916 
L 126.177318 34.631763 
L 128.279585 35.271577 
L 133.184873 36.994693 
L 135.28714 37.737471 
L 140.192428 39.704709 
L 143.696206 40.622066 
L 147.900739 41.63887 
L 152.806027 42.557158 
L 155.609049 43.134336 
L 157.711315 43.297058 
L 160.514337 43.439662 
L 164.71887 43.87724 
L 166.821137 43.778687 
L 171.02567 43.23757 
L 173.127936 42.783594 
L 178.033225 41.451821 
L 182.938513 40.653001 
L 184.340024 40.509622 
L 185.741535 40.54946 
L 187.843802 40.901078 
L 194.150601 42.368277 
L 197.654379 43.352097 
L 199.756645 43.67682 
L 203.260423 44.103998 
L 206.7642 44.543475 
L 210.267978 44.908529 
L 216.574777 46.202695 
L 219.377799 46.601269 
L 224.283088 47.528409 
L 228.487621 48.112013 
L 231.290643 48.576895 
L 234.093665 48.777787 
L 236.195931 49.035876 
L 239.699708 49.691036 
L 241.801975 49.85038 
L 245.305752 49.851519 
L 247.408019 49.704172 
L 249.510285 49.360391 
L 255.116329 48.18894 
L 257.919351 47.586368 
L 260.722373 46.959481 
L 262.82464 46.833778 
L 269.131439 46.889509 
L 274.036728 47.335034 
L 276.138994 47.189655 
L 281.745038 46.432953 
L 284.54806 45.667886 
L 286.650327 45.209235 
L 290.154104 44.868277 
L 293.657882 44.602137 
L 295.059393 44.695349 
L 297.161659 45.10514 
L 302.066948 46.300721 
L 306.271481 47.202676 
L 307.672992 47.306332 
L 309.775258 47.192901 
L 312.57828 46.987443 
L 318.184324 46.751136 
L 320.286591 46.704873 
L 322.388857 46.876331 
L 325.892635 47.212505 
L 328.695656 47.460637 
L 332.199434 47.825243 
L 334.3017 47.73756 
L 337.104722 47.588229 
L 339.907744 47.742523 
L 345.513788 48.410924 
L 348.31681 49.2215 
L 355.324365 51.447487 
L 358.127387 52.435498 
L 365.835698 54.447896 
L 367.237209 54.590753 
L 370.040231 54.506023 
L 373.544008 54.281243 
L 375.646275 53.879609 
L 379.150052 53.055698 
L 382.65383 52.666685 
L 386.157607 52.412416 
L 387.559118 52.489468 
L 389.661385 52.847097 
L 392.464407 53.328614 
L 395.968184 53.742973 
L 398.771206 54.175401 
L 400.873473 54.214881 
L 405.778761 53.765795 
L 408.581783 53.391917 
L 412.085561 52.567551 
L 423.297648 49.839662 
L 423.297648 49.839662 
" clip-path="url(#p74f2cefaf8)" style="fill: none; stroke: #d0d1e6; stroke-width: 1.5; stroke-linecap: square"/>
   </g>
   <g id="line2d_18">
    <path d="M 171.02567 43.23757 
L 172.427461 43.375208 
L 174.529728 44.700041 
L 177.332469 45.977878 
L 181.537002 47.683295 
L 184.339744 48.777092 
L 185.741535 49.103701 
L 188.544277 49.37163 
L 194.851076 49.686556 
L 196.953343 49.728426 
L 199.055609 49.989702 
L 208.866467 51.030442 
L 210.968733 50.938014 
L 213.071 50.588723 
L 215.173266 50.211438 
L 220.77959 49.482151 
L 224.282807 48.992959 
L 228.48734 48.587441 
L 230.589607 48.342309 
L 232.691873 48.263122 
L 235.495456 48.239978 
L 241.100939 47.758718 
L 243.904522 47.931407 
L 246.707263 48.262839 
L 248.80953 48.752621 
L 258.620387 51.809634 
L 260.722654 52.502899 
L 267.029453 53.806579 
L 270.53267 54.422761 
L 274.036728 54.972488 
L 276.138994 55.571389 
L 282.445794 57.758732 
L 287.350802 59.799576 
L 290.85486 60.963385 
L 294.358917 62.086238 
L 296.461184 62.442544 
L 304.87025 63.570562 
L 306.972516 64.030685 
L 309.074783 64.784264 
L 313.979791 66.852776 
L 318.184324 68.52385 
L 320.987066 69.57501 
L 324.491124 70.732811 
L 330.097448 72.867776 
L 332.199714 73.913248 
L 335.002456 75.617003 
L 337.104722 76.867917 
L 339.206989 77.884999 
L 343.411522 79.744195 
L 345.513788 80.586935 
L 353.222379 83.012676 
L 357.426912 84.101552 
L 360.229654 85.175998 
L 363.733712 86.488657 
L 366.536453 87.142268 
L 368.63872 87.981594 
L 372.843253 89.779791 
L 374.945519 90.596493 
L 379.150052 92.418815 
L 381.952794 93.388141 
L 384.05506 94.119267 
L 386.858643 94.852047 
L 390.36186 95.539439 
L 393.165442 96.474214 
L 393.865918 96.748759 
L 398.070451 99.038597 
L 400.873192 100.431094 
L 407.179992 104.180213 
L 409.282258 105.136898 
L 414.188107 107.716593 
L 414.188107 107.716593 
" clip-path="url(#p74f2cefaf8)" style="fill: none; stroke: #67a9cf; stroke-width: 1.5; stroke-linecap: square"/>
   </g>
   <g id="line2d_19">
    <path d="M 171.02567 43.23757 
L 172.427461 43.099095 
L 173.828412 43.696208 
L 179.434736 44.766579 
L 190.646543 47.802032 
L 202.559667 51.160026 
L 208.165991 52.417001 
L 213.071 52.945557 
L 226.385074 53.37284 
L 233.393189 53.777605 
L 246.006788 54.726194 
L 263.525395 56.623056 
L 271.233986 58.40352 
L 277.540786 59.824559 
L 282.445794 60.788591 
L 288.052118 61.824061 
L 294.358917 63.47538 
L 297.862134 64.654148 
L 309.074783 68.806162 
L 318.884799 72.288477 
L 322.388857 73.660392 
L 330.097448 77.2783 
L 335.702931 80.441238 
L 339.907464 82.682564 
L 343.411522 84.574288 
L 348.31653 87.434519 
L 360.229654 94.907945 
L 364.434187 97.541406 
L 370.040511 99.883298 
L 372.142778 100.729376 
L 377.047786 101.83399 
L 381.952794 102.87986 
L 384.05506 103.423931 
L 387.559118 104.222484 
L 388.960909 104.577195 
L 393.165442 106.633413 
L 393.865918 106.968606 
L 399.472242 110.671362 
L 406.479517 114.356714 
L 414.188107 116.535096 
L 414.188107 116.535096 
" clip-path="url(#p74f2cefaf8)" style="fill: none; stroke: #02818a; stroke-width: 1.5; stroke-linecap: square"/>
   </g>
   <g id="patch_3">
    <path d="M 61.707813 186.84327 
L 61.707813 22.318125 
" style="fill: none; stroke: #000000; stroke-width: 0.8; stroke-linejoin: miter; stroke-linecap: square"/>
   </g>
   <g id="patch_4">
    <path d="M 414.888583 186.84327 
L 414.888583 22.318125 
" style="fill: none; stroke: #000000; stroke-width: 0.8; stroke-linejoin: miter; stroke-linecap: square"/>
   </g>
   <g id="patch_5">
    <path d="M 61.707813 186.84327 
L 414.888583 186.84327 
" style="fill: none; stroke: #000000; stroke-width: 0.8; stroke-linejoin: miter; stroke-linecap: square"/>
   </g>
   <g id="patch_6">
    <path d="M 61.707813 22.318125 
L 414.888583 22.318125 
" style="fill: none; stroke: #000000; stroke-width: 0.8; stroke-linejoin: miter; stroke-linecap: square"/>
   </g>
   <g id="text_19">
    <!-- Antarctica -->
    <g transform="translate(207.736635 16.318125) scale(0.12 -0.12)">
     <defs>
      <path id="DejaVuSans-41" d="M 2188 4044 
L 1331 1722 
L 3047 1722 
L 2188 4044 
z
M 1831 4666 
L 2547 4666 
L 4325 0 
L 3669 0 
L 3244 1197 
L 1141 1197 
L 716 0 
L 50 0 
L 1831 4666 
z
" transform="scale(0.015625)"/>
      <path id="DejaVuSans-69" d="M 603 3500 
L 1178 3500 
L 1178 0 
L 603 0 
L 603 3500 
z
M 603 4863 
L 1178 4863 
L 1178 4134 
L 603 4134 
L 603 4863 
z
" transform="scale(0.015625)"/>
     </defs>
     <use xlink:href="#DejaVuSans-41"/>
     <use xlink:href="#DejaVuSans-6e" x="68.408203"/>
     <use xlink:href="#DejaVuSans-74" x="131.787109"/>
     <use xlink:href="#DejaVuSans-61" x="170.996094"/>
     <use xlink:href="#DejaVuSans-72" x="232.275391"/>
     <use xlink:href="#DejaVuSans-63" x="271.138672"/>
     <use xlink:href="#DejaVuSans-74" x="326.119141"/>
     <use xlink:href="#DejaVuSans-69" x="365.328125"/>
     <use xlink:href="#DejaVuSans-63" x="393.111328"/>
     <use xlink:href="#DejaVuSans-61" x="448.091797"/>
    </g>
   </g>
   <g id="legend_1">
    <g id="patch_7">
     <path d="M 421.888583 128.097885 
L 503.19952 128.097885 
Q 505.19952 128.097885 505.19952 126.097885 
L 505.19952 83.06351 
Q 505.19952 81.06351 503.19952 81.06351 
L 421.888583 81.06351 
Q 419.888583 81.06351 419.888583 83.06351 
L 419.888583 126.097885 
Q 419.888583 128.097885 421.888583 128.097885 
z
" style="fill: #ffffff; opacity: 0.8; stroke: #cccccc; stroke-linejoin: miter"/>
    </g>
    <g id="line2d_20">
     <path d="M 423.888583 89.161948 
L 433.888583 89.161948 
L 443.888583 89.161948 
" style="fill: none; stroke: #d0d1e6; stroke-width: 1.5; stroke-linecap: square"/>
    </g>
    <g id="text_20">
     <!-- Surface -->
     <g transform="translate(451.888583 92.661948) scale(0.1 -0.1)">
      <defs>
       <path id="DejaVuSans-53" d="M 3425 4513 
L 3425 3897 
Q 3066 4069 2747 4153 
Q 2428 4238 2131 4238 
Q 1616 4238 1336 4038 
Q 1056 3838 1056 3469 
Q 1056 3159 1242 3001 
Q 1428 2844 1947 2747 
L 2328 2669 
Q 3034 2534 3370 2195 
Q 3706 1856 3706 1288 
Q 3706 609 3251 259 
Q 2797 -91 1919 -91 
Q 1588 -91 1214 -16 
Q 841 59 441 206 
L 441 856 
Q 825 641 1194 531 
Q 1563 422 1919 422 
Q 2459 422 2753 634 
Q 3047 847 3047 1241 
Q 3047 1584 2836 1778 
Q 2625 1972 2144 2069 
L 1759 2144 
Q 1053 2284 737 2584 
Q 422 2884 422 3419 
Q 422 4038 858 4394 
Q 1294 4750 2059 4750 
Q 2388 4750 2728 4690 
Q 3069 4631 3425 4513 
z
" transform="scale(0.015625)"/>
       <path id="DejaVuSans-75" d="M 544 1381 
L 544 3500 
L 1119 3500 
L 1119 1403 
Q 1119 906 1312 657 
Q 1506 409 1894 409 
Q 2359 409 2629 706 
Q 2900 1003 2900 1516 
L 2900 3500 
L 3475 3500 
L 3475 0 
L 2900 0 
L 2900 538 
Q 2691 219 2414 64 
Q 2138 -91 1772 -91 
Q 1169 -91 856 284 
Q 544 659 544 1381 
z
M 1991 3584 
L 1991 3584 
z
" transform="scale(0.015625)"/>
       <path id="DejaVuSans-66" d="M 2375 4863 
L 2375 4384 
L 1825 4384 
Q 1516 4384 1395 4259 
Q 1275 4134 1275 3809 
L 1275 3500 
L 2222 3500 
L 2222 3053 
L 1275 3053 
L 1275 0 
L 697 0 
L 697 3053 
L 147 3053 
L 147 3500 
L 697 3500 
L 697 3744 
Q 697 4328 969 4595 
Q 1241 4863 1831 4863 
L 2375 4863 
z
" transform="scale(0.015625)"/>
      </defs>
      <use xlink:href="#DejaVuSans-53"/>
      <use xlink:href="#DejaVuSans-75" x="63.476562"/>
      <use xlink:href="#DejaVuSans-72" x="126.855469"/>
      <use xlink:href="#DejaVuSans-66" x="167.96875"/>
      <use xlink:href="#DejaVuSans-61" x="203.173828"/>
      <use xlink:href="#DejaVuSans-63" x="264.453125"/>
      <use xlink:href="#DejaVuSans-65" x="319.433594"/>
     </g>
    </g>
    <g id="line2d_21">
     <path d="M 423.888583 103.840073 
L 433.888583 103.840073 
L 443.888583 103.840073 
" style="fill: none; stroke: #67a9cf; stroke-width: 1.5; stroke-linecap: square"/>
    </g>
    <g id="text_21">
     <!-- Dynamics -->
     <g transform="translate(451.888583 107.340073) scale(0.1 -0.1)">
      <defs>
       <path id="DejaVuSans-44" d="M 1259 4147 
L 1259 519 
L 2022 519 
Q 2988 519 3436 956 
Q 3884 1394 3884 2338 
Q 3884 3275 3436 3711 
Q 2988 4147 2022 4147 
L 1259 4147 
z
M 628 4666 
L 1925 4666 
Q 3281 4666 3915 4102 
Q 4550 3538 4550 2338 
Q 4550 1131 3912 565 
Q 3275 0 1925 0 
L 628 0 
L 628 4666 
z
" transform="scale(0.015625)"/>
       <path id="DejaVuSans-79" d="M 2059 -325 
Q 1816 -950 1584 -1140 
Q 1353 -1331 966 -1331 
L 506 -1331 
L 506 -850 
L 844 -850 
Q 1081 -850 1212 -737 
Q 1344 -625 1503 -206 
L 1606 56 
L 191 3500 
L 800 3500 
L 1894 763 
L 2988 3500 
L 3597 3500 
L 2059 -325 
z
" transform="scale(0.015625)"/>
       <path id="DejaVuSans-6d" d="M 3328 2828 
Q 3544 3216 3844 3400 
Q 4144 3584 4550 3584 
Q 5097 3584 5394 3201 
Q 5691 2819 5691 2113 
L 5691 0 
L 5113 0 
L 5113 2094 
Q 5113 2597 4934 2840 
Q 4756 3084 4391 3084 
Q 3944 3084 3684 2787 
Q 3425 2491 3425 1978 
L 3425 0 
L 2847 0 
L 2847 2094 
Q 2847 2600 2669 2842 
Q 2491 3084 2119 3084 
Q 1678 3084 1418 2786 
Q 1159 2488 1159 1978 
L 1159 0 
L 581 0 
L 581 3500 
L 1159 3500 
L 1159 2956 
Q 1356 3278 1631 3431 
Q 1906 3584 2284 3584 
Q 2666 3584 2933 3390 
Q 3200 3197 3328 2828 
z
" transform="scale(0.015625)"/>
      </defs>
      <use xlink:href="#DejaVuSans-44"/>
      <use xlink:href="#DejaVuSans-79" x="77.001953"/>
      <use xlink:href="#DejaVuSans-6e" x="136.181641"/>
      <use xlink:href="#DejaVuSans-61" x="199.560547"/>
      <use xlink:href="#DejaVuSans-6d" x="260.839844"/>
      <use xlink:href="#DejaVuSans-69" x="358.251953"/>
      <use xlink:href="#DejaVuSans-63" x="386.035156"/>
      <use xlink:href="#DejaVuSans-73" x="441.015625"/>
     </g>
    </g>
    <g id="line2d_22">
     <path d="M 423.888583 118.518198 
L 433.888583 118.518198 
L 443.888583 118.518198 
" style="fill: none; stroke: #02818a; stroke-width: 1.5; stroke-linecap: square"/>
    </g>
    <g id="text_22">
     <!-- Total -->
     <g transform="translate(451.888583 122.018198) scale(0.1 -0.1)">
      <defs>
       <path id="DejaVuSans-54" d="M -19 4666 
L 3928 4666 
L 3928 4134 
L 2272 4134 
L 2272 0 
L 1638 0 
L 1638 4134 
L -19 4134 
L -19 4666 
z
" transform="scale(0.015625)"/>
       <path id="DejaVuSans-6f" d="M 1959 3097 
Q 1497 3097 1228 2736 
Q 959 2375 959 1747 
Q 959 1119 1226 758 
Q 1494 397 1959 397 
Q 2419 397 2687 759 
Q 2956 1122 2956 1747 
Q 2956 2369 2687 2733 
Q 2419 3097 1959 3097 
z
M 1959 3584 
Q 2709 3584 3137 3096 
Q 3566 2609 3566 1747 
Q 3566 888 3137 398 
Q 2709 -91 1959 -91 
Q 1206 -91 779 398 
Q 353 888 353 1747 
Q 353 2609 779 3096 
Q 1206 3584 1959 3584 
z
" transform="scale(0.015625)"/>
       <path id="DejaVuSans-6c" d="M 603 4863 
L 1178 4863 
L 1178 0 
L 603 0 
L 603 4863 
z
" transform="scale(0.015625)"/>
      </defs>
      <use xlink:href="#DejaVuSans-54"/>
      <use xlink:href="#DejaVuSans-6f" x="44.083984"/>
      <use xlink:href="#DejaVuSans-74" x="105.265625"/>
      <use xlink:href="#DejaVuSans-61" x="144.474609"/>
      <use xlink:href="#DejaVuSans-6c" x="205.753906"/>
     </g>
    </g>
   </g>
  </g>
 </g>
 <defs>
  <clipPath id="p74f2cefaf8">
   <rect x="61.707813" y="22.318125" width="353.18077" height="164.525145"/>
  </clipPath>
 </defs>
</svg>
