<?xml version="1.0" encoding="utf-8" standalone="no"?>
<!DOCTYPE svg PUBLIC "-//W3C//DTD SVG 1.1//EN"
  "http://www.w3.org/Graphics/SVG/1.1/DTD/svg11.dtd">
<svg xmlns:xlink="http://www.w3.org/1999/xlink" width="512.39952pt" height="224.39952pt" viewBox="0 0 512.39952 224.39952" xmlns="http://www.w3.org/2000/svg" version="1.1">
 <metadata>
  <rdf:RDF xmlns:dc="http://purl.org/dc/elements/1.1/" xmlns:cc="http://creativecommons.org/ns#" xmlns:rdf="http://www.w3.org/1999/02/22-rdf-syntax-ns#">
   <cc:Work>
    <dc:type rdf:resource="http://purl.org/dc/dcmitype/StillImage"/>
    <dc:date>2023-01-26T12:39:16.165799</dc:date>
    <dc:format>image/svg+xml</dc:format>
    <dc:creator>
     <cc:Agent>
      <dc:title>Matplotlib v3.6.2, https://matplotlib.org/</dc:title>
     </cc:Agent>
    </dc:creator>
   </cc:Work>
  </rdf:RDF>
 </metadata>
 <defs>
  <style type="text/css">*{stroke-linejoin: round; stroke-linecap: butt}</style>
 </defs>
 <g id="figure_1">
  <g id="patch_1">
   <path d="M 0 224.39952 
L 512.39952 224.39952 
L 512.39952 0 
L 0 0 
z
" style="fill: #ffffff"/>
  </g>
  <g id="axes_1">
   <g id="patch_2">
    <path d="M 61.707813 186.84327 
L 414.888583 186.84327 
L 414.888583 10.999219 
L 61.707813 10.999219 
z
" style="fill: #ffffff"/>
   </g>
   <g id="PolyCollection_1">
    <path d="M 61.707813 37.717161 
L 61.707813 42.312735 
L 62.408568 42.021122 
L 63.109323 42.046777 
L 63.810079 42.715313 
L 64.510834 42.875691 
L 65.21159 43.161359 
L 65.912345 43.189362 
L 66.613101 43.227446 
L 67.313856 43.291221 
L 68.014612 43.238552 
L 68.715367 43.180522 
L 69.416123 43.121427 
L 70.116878 42.901308 
L 70.817634 42.737274 
L 71.518389 42.499149 
L 72.219145 42.311121 
L 72.9199 42.112852 
L 73.620656 41.932676 
L 74.321411 41.732868 
L 75.022167 41.528849 
L 75.722922 41.331584 
L 76.423678 41.137075 
L 77.124433 40.956389 
L 77.825189 40.759896 
L 78.525944 40.548575 
L 79.2267 40.313817 
L 79.927455 40.070319 
L 80.628211 39.822566 
L 81.328966 39.570565 
L 82.029722 39.29149 
L 82.730477 39.050542 
L 83.431233 38.806162 
L 84.131988 38.565608 
L 84.832744 38.348473 
L 85.533499 38.140572 
L 86.234255 37.935561 
L 86.93501 37.728861 
L 87.635766 37.50891 
L 88.336521 37.281599 
L 89.037277 37.066792 
L 89.738032 36.850466 
L 90.438788 36.660237 
L 91.139543 36.519339 
L 91.840299 36.380548 
L 92.541054 36.251847 
L 93.24181 36.167389 
L 93.942565 36.130521 
L 94.643321 36.090191 
L 95.344076 36.047892 
L 96.044832 35.999502 
L 96.745587 35.946106 
L 97.446343 35.893305 
L 98.147098 35.838543 
L 98.847854 35.76082 
L 99.548609 35.67728 
L 100.249365 35.583749 
L 100.95012 35.516852 
L 101.650876 35.512051 
L 102.351631 35.514707 
L 103.052387 35.516716 
L 103.753142 35.522268 
L 104.453898 35.510216 
L 105.154653 35.481501 
L 105.855409 35.467822 
L 106.556164 35.416031 
L 107.25692 35.348725 
L 107.957675 35.222586 
L 108.658431 35.091181 
L 109.359186 34.976844 
L 110.059942 34.880459 
L 110.760697 34.793597 
L 111.461453 34.701601 
L 112.162208 34.601006 
L 112.862964 34.499343 
L 113.563719 34.395924 
L 114.264475 34.299434 
L 114.96523 34.205534 
L 115.665986 34.103672 
L 116.366741 34.015652 
L 117.067497 33.959868 
L 117.768252 33.925778 
L 118.469008 33.923516 
L 119.169763 33.94652 
L 119.870519 33.995647 
L 120.571274 34.052039 
L 121.27203 34.111456 
L 121.972785 34.190459 
L 122.673541 34.284565 
L 123.374296 34.392891 
L 124.075052 34.491329 
L 124.775807 34.600953 
L 125.476563 34.75503 
L 126.177318 34.94839 
L 126.878074 35.181 
L 127.578829 35.469401 
L 128.279585 35.765058 
L 128.98034 36.060836 
L 129.681096 36.365877 
L 130.381851 36.677123 
L 131.082607 36.984515 
L 131.783362 37.268187 
L 132.484118 37.539875 
L 133.184873 37.822293 
L 133.885629 38.103984 
L 134.586384 38.409038 
L 135.28714 38.733263 
L 135.987895 39.076991 
L 136.688651 39.420549 
L 137.389406 39.755111 
L 138.090162 40.092764 
L 138.790917 40.42499 
L 139.491673 40.74605 
L 140.192428 41.055993 
L 140.893184 41.326245 
L 141.593939 41.557065 
L 142.294695 41.786507 
L 142.99545 42.029697 
L 143.696206 42.271899 
L 144.396961 42.496436 
L 145.097717 42.710452 
L 145.798472 42.916055 
L 146.499228 43.110668 
L 147.199983 43.296524 
L 147.900739 43.483809 
L 148.601494 43.652165 
L 149.30225 43.808201 
L 150.003005 43.957769 
L 150.70376 44.136277 
L 151.404516 44.328936 
L 152.105271 44.547581 
L 152.806027 44.759109 
L 153.506782 44.955576 
L 154.207538 45.1395 
L 154.908293 45.315285 
L 155.609049 45.467082 
L 156.309804 45.587925 
L 157.01056 45.68298 
L 157.711315 45.751418 
L 158.412071 45.793794 
L 159.112826 45.859489 
L 159.813582 45.944745 
L 160.514337 46.062299 
L 161.215093 46.179479 
L 161.915848 46.298539 
L 162.616604 46.414091 
L 163.317359 46.518846 
L 164.018115 46.610526 
L 164.71887 46.690555 
L 165.419626 46.748777 
L 166.120381 46.758227 
L 166.821137 46.732675 
L 167.521892 46.696047 
L 168.222648 46.652714 
L 168.923403 46.598898 
L 169.624159 46.53388 
L 170.324914 46.448723 
L 171.02567 46.341383 
L 171.726425 46.219179 
L 172.427181 46.076412 
L 173.127936 45.918599 
L 173.828692 45.763409 
L 174.529447 45.584932 
L 175.230203 45.395588 
L 175.930958 45.21693 
L 176.631714 45.073766 
L 177.332469 44.942034 
L 178.033225 44.822103 
L 178.73398 44.728303 
L 179.434736 44.624377 
L 180.135491 44.518243 
L 180.836247 44.43447 
L 181.537002 44.362838 
L 182.237758 44.275655 
L 182.938513 44.192201 
L 183.639269 44.132156 
L 184.340024 44.119942 
L 185.04078 44.157767 
L 185.741535 44.239644 
L 186.442291 44.364286 
L 187.143046 44.508833 
L 187.843802 44.677832 
L 188.544557 44.85988 
L 189.245313 45.042135 
L 189.946068 45.241485 
L 190.646824 45.433542 
L 191.347579 45.631118 
L 192.048335 45.821246 
L 192.74909 46.024012 
L 193.449846 46.249699 
L 194.150601 46.497809 
L 194.851357 46.748595 
L 195.552112 46.990188 
L 196.252868 47.226951 
L 196.953623 47.446266 
L 197.654379 47.647698 
L 198.355134 47.821538 
L 199.05589 47.97602 
L 199.756645 48.101265 
L 200.457401 48.217168 
L 201.158156 48.3292 
L 201.858912 48.454897 
L 202.559667 48.596381 
L 203.260423 48.7381 
L 203.961178 48.866856 
L 204.661934 48.985246 
L 205.362689 49.093899 
L 206.063445 49.198012 
L 206.7642 49.307299 
L 207.464956 49.412225 
L 208.165711 49.500022 
L 208.866467 49.598746 
L 209.567222 49.731724 
L 210.267978 49.890499 
L 210.968733 50.071727 
L 211.669489 50.280947 
L 212.370244 50.496262 
L 213.071 50.69951 
L 213.771755 50.887003 
L 214.472511 51.060062 
L 215.173266 51.226465 
L 215.874022 51.362375 
L 216.574777 51.486604 
L 217.275533 51.603129 
L 217.976288 51.729622 
L 218.677044 51.869731 
L 219.377799 52.030766 
L 220.078555 52.204949 
L 220.77931 52.377739 
L 221.480066 52.549246 
L 222.180821 52.71049 
L 222.881577 52.867366 
L 223.582332 53.022685 
L 224.283088 53.172401 
L 224.983843 53.327507 
L 225.684599 53.457874 
L 226.385354 53.574487 
L 227.08611 53.713008 
L 227.786865 53.862649 
L 228.487621 54.013262 
L 229.188376 54.174941 
L 229.889132 54.328256 
L 230.589887 54.461381 
L 231.290643 54.578203 
L 231.991398 54.68328 
L 232.692154 54.765334 
L 233.392909 54.843001 
L 234.093665 54.907547 
L 234.79442 54.988975 
L 235.495176 55.109162 
L 236.195931 55.256195 
L 236.896687 55.448614 
L 237.597442 55.637706 
L 238.298197 55.805581 
L 238.998953 55.948503 
L 239.699708 56.072139 
L 240.400464 56.188738 
L 241.101219 56.269737 
L 241.801975 56.334529 
L 242.50273 56.380246 
L 243.203486 56.418186 
L 243.904241 56.449804 
L 244.604997 56.480084 
L 245.305752 56.492629 
L 246.006508 56.482875 
L 246.707263 56.439454 
L 247.408019 56.375584 
L 248.108774 56.296547 
L 248.80953 56.202774 
L 249.510285 56.0882 
L 250.211041 55.955966 
L 250.911796 55.809675 
L 251.612552 55.660258 
L 252.313307 55.520805 
L 253.014063 55.39774 
L 253.714818 55.286176 
L 254.415574 55.172441 
L 255.116329 55.065427 
L 255.817085 54.949999 
L 256.51784 54.82575 
L 257.218596 54.696931 
L 257.919351 54.551504 
L 258.620107 54.389016 
L 259.320862 54.226911 
L 260.021618 54.093242 
L 260.722373 54.009088 
L 261.423129 53.961487 
L 262.123884 53.941405 
L 262.82464 53.937746 
L 263.525395 53.94568 
L 264.226151 53.958563 
L 264.926906 53.977046 
L 265.627662 53.999807 
L 266.328417 54.034659 
L 267.029173 54.065163 
L 267.729928 54.091316 
L 268.430684 54.139439 
L 269.131439 54.22082 
L 269.832195 54.324732 
L 270.53295 54.435008 
L 271.233706 54.536593 
L 271.934461 54.626479 
L 272.635217 54.706701 
L 273.335972 54.779786 
L 274.036728 54.833321 
L 274.737483 54.851857 
L 275.438239 54.830171 
L 276.138994 54.786902 
L 276.83975 54.731354 
L 277.540505 54.680152 
L 278.241261 54.631192 
L 278.942016 54.571533 
L 279.642772 54.499296 
L 280.343527 54.401245 
L 281.044283 54.280498 
L 281.745038 54.145399 
L 282.445794 53.9973 
L 283.146549 53.828185 
L 283.847305 53.639897 
L 284.54806 53.454173 
L 285.248816 53.286121 
L 285.949571 53.152923 
L 286.650327 53.06431 
L 287.351082 53.013118 
L 288.051838 52.964109 
L 288.752593 52.911353 
L 289.453349 52.859684 
L 290.154104 52.812662 
L 290.85486 52.768611 
L 291.555615 52.725504 
L 292.256371 52.690688 
L 292.957126 52.666601 
L 293.657882 52.679082 
L 294.358637 52.725321 
L 295.059393 52.814477 
L 295.760148 52.954487 
L 296.460904 53.125976 
L 297.161659 53.313384 
L 297.862415 53.51924 
L 298.56317 53.739131 
L 299.263926 53.966993 
L 299.964681 54.184457 
L 300.665437 54.384476 
L 301.366192 54.56968 
L 302.066948 54.7515 
L 302.767703 54.940281 
L 303.468459 55.138083 
L 304.169214 55.335017 
L 304.86997 55.519342 
L 305.570725 55.684364 
L 306.271481 55.814032 
L 306.972236 55.905569 
L 307.672992 55.960754 
L 308.373747 55.98246 
L 309.074503 55.965207 
L 309.775258 55.911408 
L 310.476014 55.864122 
L 311.176769 55.835207 
L 311.877525 55.824359 
L 312.57828 55.81035 
L 313.279036 55.809414 
L 313.979791 55.810947 
L 314.680547 55.810722 
L 315.381302 55.814601 
L 316.082058 55.819893 
L 316.782813 55.799741 
L 317.483569 55.776828 
L 318.184324 55.753474 
L 318.88508 55.750197 
L 319.585835 55.76664 
L 320.286591 55.804076 
L 320.987346 55.863056 
L 321.688102 55.938774 
L 322.388857 56.029225 
L 323.089613 56.132602 
L 323.790368 56.237595 
L 324.491124 56.329247 
L 325.191879 56.403223 
L 325.892635 56.468847 
L 326.59339 56.535681 
L 327.294145 56.618198 
L 327.994901 56.72124 
L 328.695656 56.840383 
L 329.396412 56.96779 
L 330.097167 57.09111 
L 330.797923 57.191456 
L 331.498678 57.268322 
L 332.199434 57.318914 
L 332.900189 57.340631 
L 333.600945 57.330853 
L 334.3017 57.29807 
L 335.002456 57.254145 
L 335.703211 57.23713 
L 336.403967 57.245773 
L 337.104722 57.260665 
L 337.805478 57.292059 
L 338.506233 57.337502 
L 339.206989 57.406515 
L 339.907744 57.488201 
L 340.6085 57.581793 
L 341.309255 57.683762 
L 342.010011 57.776449 
L 342.710766 57.874069 
L 343.411522 57.971599 
L 344.112277 58.079495 
L 344.813033 58.223127 
L 345.513788 58.401264 
L 346.214544 58.605982 
L 346.915299 58.828264 
L 347.616055 59.062869 
L 348.31681 59.309056 
L 349.017566 59.554945 
L 349.718321 59.796054 
L 350.419077 60.023349 
L 351.119832 60.239406 
L 351.820588 60.462136 
L 352.521343 60.703123 
L 353.222099 60.976647 
L 353.922854 61.286415 
L 354.62361 61.601653 
L 355.324365 61.91483 
L 356.025121 62.215316 
L 356.725876 62.502027 
L 357.426632 62.773235 
L 358.127387 63.024698 
L 358.828143 63.257673 
L 359.528898 63.477554 
L 360.229654 63.683116 
L 360.930409 63.894374 
L 361.631165 64.124094 
L 362.33192 64.364852 
L 363.032676 64.611345 
L 363.733431 64.842144 
L 364.434187 65.048698 
L 365.134942 65.232298 
L 365.835698 65.387607 
L 366.536453 65.515421 
L 367.237209 65.595006 
L 367.937964 65.636073 
L 368.63872 65.63078 
L 369.339475 65.616401 
L 370.040231 65.610618 
L 370.740986 65.609321 
L 371.441742 65.598275 
L 372.142497 65.573542 
L 372.843253 65.528085 
L 373.544008 65.456768 
L 374.244764 65.361452 
L 374.945519 65.239833 
L 375.646275 65.08815 
L 376.34703 64.930032 
L 377.047786 64.758509 
L 377.748541 64.59909 
L 378.449297 64.46513 
L 379.150052 64.363377 
L 379.850808 64.286128 
L 380.551563 64.21119 
L 381.252319 64.1381 
L 381.953074 64.076109 
L 382.65383 64.026943 
L 383.354585 63.987452 
L 384.055341 63.942941 
L 384.756096 63.908287 
L 385.456852 63.879958 
L 386.157607 63.879357 
L 386.858363 63.923833 
L 387.559118 64.00919 
L 388.259874 64.125747 
L 388.960629 64.277249 
L 389.661385 64.43595 
L 390.36214 64.593904 
L 391.062896 64.750442 
L 391.763651 64.901855 
L 392.464407 65.024913 
L 393.165162 65.120639 
L 393.865918 65.20602 
L 394.566673 65.308982 
L 395.267429 65.431016 
L 395.968184 65.572823 
L 396.66894 65.731672 
L 397.369695 65.880179 
L 398.070451 66.001398 
L 398.771206 66.094576 
L 399.471962 66.160089 
L 400.172717 66.198201 
L 400.873473 66.197788 
L 401.574228 66.163892 
L 402.274984 66.113467 
L 402.975739 66.062485 
L 403.676495 66.020988 
L 404.37725 65.981144 
L 405.078006 65.937019 
L 405.778761 65.882807 
L 406.479517 65.814412 
L 407.180272 65.732773 
L 407.881028 65.640745 
L 408.581783 65.542383 
L 409.282539 65.421275 
L 409.983294 65.270653 
L 410.68405 65.121505 
L 411.384805 64.974134 
L 412.085561 64.81182 
L 412.786316 64.64782 
L 413.487072 64.486077 
L 414.187827 64.319502 
L 414.888582 64.149883 
L 415.589338 63.979898 
L 416.290093 63.809922 
L 416.990849 63.651129 
L 417.691604 63.492283 
L 418.39236 63.334532 
L 419.093115 63.175943 
L 419.793871 63.017842 
L 420.494626 62.858997 
L 421.195382 62.697131 
L 421.896137 62.562175 
L 422.596893 62.418552 
L 423.297648 62.274692 
L 423.297648 18.553641 
L 423.297648 18.553641 
L 422.596893 18.774225 
L 421.896137 18.995047 
L 421.195382 19.224537 
L 420.494626 19.427116 
L 419.793871 19.632716 
L 419.093115 19.83906 
L 418.39236 20.044916 
L 417.691604 20.25161 
L 416.990849 20.457209 
L 416.290093 20.662862 
L 415.589338 20.85733 
L 414.888582 21.051791 
L 414.187827 21.246616 
L 413.487072 21.444487 
L 412.786316 21.647189 
L 412.085561 21.847634 
L 411.384805 22.049765 
L 410.68405 22.266839 
L 409.983294 22.482136 
L 409.282539 22.695959 
L 408.581783 22.879232 
L 407.881028 23.035406 
L 407.180272 23.159511 
L 406.479517 23.256117 
L 405.778761 23.338007 
L 405.078006 23.415967 
L 404.37725 23.497895 
L 403.676495 23.586757 
L 402.975739 23.691692 
L 402.274984 23.804442 
L 401.574228 23.908925 
L 400.873473 23.982991 
L 400.172717 24.026227 
L 399.471962 24.036105 
L 398.771206 24.00181 
L 398.070451 23.924646 
L 397.369695 23.820507 
L 396.66894 23.70787 
L 395.968184 23.599208 
L 395.267429 23.494189 
L 394.566673 23.409518 
L 393.865918 23.355606 
L 393.165162 23.311346 
L 392.464407 23.261386 
L 391.763651 23.188712 
L 391.062896 23.093298 
L 390.36214 22.966428 
L 389.661385 22.821062 
L 388.960629 22.681247 
L 388.259874 22.568817 
L 387.559118 22.483356 
L 386.858363 22.444321 
L 386.157607 22.448482 
L 385.456852 22.491115 
L 384.756096 22.5665 
L 384.055341 22.662389 
L 383.354585 22.752183 
L 382.65383 22.84442 
L 381.953074 22.929069 
L 381.252319 23.009035 
L 380.551563 23.097521 
L 379.850808 23.204994 
L 379.150052 23.339538 
L 378.449297 23.49422 
L 377.748541 23.676469 
L 377.047786 23.89597 
L 376.34703 24.136656 
L 375.646275 24.375954 
L 374.945519 24.572739 
L 374.244764 24.738354 
L 373.544008 24.865866 
L 372.843253 24.962396 
L 372.142497 25.039638 
L 371.441742 25.094342 
L 370.740986 25.138082 
L 370.040231 25.192504 
L 369.339475 25.2525 
L 368.63872 25.312192 
L 367.937964 25.359187 
L 367.237209 25.389235 
L 366.536453 25.365692 
L 365.835698 25.291264 
L 365.134942 25.163107 
L 364.434187 24.999305 
L 363.733431 24.80498 
L 363.032676 24.596317 
L 362.33192 24.391068 
L 361.631165 24.190127 
L 360.930409 24.004878 
L 360.229654 23.835571 
L 359.528898 23.679194 
L 358.828143 23.526739 
L 358.127387 23.352482 
L 357.426632 23.143 
L 356.725876 22.89817 
L 356.025121 22.629845 
L 355.324365 22.350382 
L 354.62361 22.064699 
L 353.922854 21.788718 
L 353.222099 21.541808 
L 352.521343 21.312254 
L 351.820588 21.111123 
L 351.119832 20.932939 
L 350.419077 20.765134 
L 349.718321 20.592246 
L 349.017566 20.407418 
L 348.31681 20.197898 
L 347.616055 19.97514 
L 346.915299 19.754445 
L 346.214544 19.550727 
L 345.513788 19.373006 
L 344.813033 19.234102 
L 344.112277 19.134205 
L 343.411522 19.068917 
L 342.710766 19.035682 
L 342.010011 19.008925 
L 341.309255 18.965669 
L 340.6085 18.91627 
L 339.907744 18.857299 
L 339.206989 18.805276 
L 338.506233 18.771102 
L 337.805478 18.75008 
L 337.104722 18.755017 
L 336.403967 18.785042 
L 335.703211 18.855379 
L 335.002456 18.94719 
L 334.3017 19.03682 
L 333.600945 19.12188 
L 332.900189 19.181064 
L 332.199434 19.203407 
L 331.498678 19.183861 
L 330.797923 19.128315 
L 330.097167 19.052533 
L 329.396412 18.97393 
L 328.695656 18.902558 
L 327.994901 18.842288 
L 327.294145 18.795722 
L 326.59339 18.767215 
L 325.892635 18.743688 
L 325.191879 18.717711 
L 324.491124 18.679426 
L 323.790368 18.626351 
L 323.089613 18.550958 
L 322.388857 18.464706 
L 321.688102 18.391703 
L 320.987346 18.343916 
L 320.286591 18.323348 
L 319.585835 18.336881 
L 318.88508 18.38802 
L 318.184324 18.472841 
L 317.483569 18.565476 
L 316.782813 18.653897 
L 316.082058 18.720729 
L 315.381302 18.784359 
L 314.680547 18.826145 
L 313.979791 18.854297 
L 313.279036 18.88371 
L 312.57828 18.921096 
L 311.877525 18.969714 
L 311.176769 19.053934 
L 310.476014 19.154768 
L 309.775258 19.259221 
L 309.074503 19.34772 
L 308.373747 19.419539 
L 307.672992 19.452347 
L 306.972236 19.437363 
L 306.271481 19.377493 
L 305.570725 19.270148 
L 304.86997 19.133344 
L 304.169214 18.975443 
L 303.468459 18.816142 
L 302.767703 18.661029 
L 302.066948 18.512011 
L 301.366192 18.37711 
L 300.665437 18.2525 
L 299.964681 18.118238 
L 299.263926 17.961681 
L 298.56317 17.782729 
L 297.862415 17.585055 
L 297.161659 17.394459 
L 296.460904 17.229479 
L 295.760148 17.105071 
L 295.059393 17.017399 
L 294.358637 16.959841 
L 293.657882 16.953543 
L 292.957126 17.005879 
L 292.256371 17.089291 
L 291.555615 17.192303 
L 290.85486 17.294358 
L 290.154104 17.388866 
L 289.453349 17.470592 
L 288.752593 17.546116 
L 288.051838 17.625756 
L 287.351082 17.727258 
L 286.650327 17.866046 
L 285.949571 18.028459 
L 285.248816 18.224649 
L 284.54806 18.456593 
L 283.847305 18.714395 
L 283.146549 18.964548 
L 282.445794 19.195046 
L 281.745038 19.400772 
L 281.044283 19.573475 
L 280.343527 19.712134 
L 279.642772 19.831377 
L 278.942016 19.938861 
L 278.241261 20.0347 
L 277.540505 20.140145 
L 276.83975 20.257347 
L 276.138994 20.376791 
L 275.438239 20.494426 
L 274.737483 20.586007 
L 274.036728 20.641133 
L 273.335972 20.652662 
L 272.635217 20.622857 
L 271.934461 20.561754 
L 271.233706 20.485802 
L 270.53295 20.409523 
L 269.832195 20.346949 
L 269.131439 20.301282 
L 268.430684 20.281235 
L 267.729928 20.28021 
L 267.029173 20.297219 
L 266.328417 20.336374 
L 265.627662 20.38349 
L 264.926906 20.414079 
L 264.226151 20.434497 
L 263.525395 20.448028 
L 262.82464 20.465224 
L 262.123884 20.494824 
L 261.423129 20.557221 
L 260.722373 20.662585 
L 260.021618 20.817782 
L 259.320862 21.005444 
L 258.620107 21.227179 
L 257.919351 21.460199 
L 257.218596 21.687071 
L 256.51784 21.892403 
L 255.817085 22.069216 
L 255.116329 22.234332 
L 254.415574 22.400331 
L 253.714818 22.554443 
L 253.014063 22.717678 
L 252.313307 22.887811 
L 251.612552 23.075977 
L 250.911796 23.285881 
L 250.211041 23.504783 
L 249.510285 23.715646 
L 248.80953 23.89711 
L 248.108774 24.04858 
L 247.408019 24.163126 
L 246.707263 24.246084 
L 246.006508 24.309706 
L 245.305752 24.36105 
L 244.604997 24.398999 
L 243.904241 24.436369 
L 243.203486 24.469477 
L 242.50273 24.501327 
L 241.801975 24.516715 
L 241.101219 24.513486 
L 240.400464 24.483665 
L 239.699708 24.438492 
L 238.998953 24.349522 
L 238.298197 24.231326 
L 237.597442 24.099629 
L 236.896687 23.96623 
L 236.195931 23.85397 
L 235.495176 23.749494 
L 234.79442 23.686729 
L 234.093665 23.650928 
L 233.392909 23.639578 
L 232.692154 23.636225 
L 231.991398 23.604886 
L 231.290643 23.550845 
L 230.589887 23.465189 
L 229.889132 23.355704 
L 229.188376 23.240177 
L 228.487621 23.122057 
L 227.786865 23.005061 
L 227.08611 22.906399 
L 226.385354 22.831769 
L 225.684599 22.774408 
L 224.983843 22.742542 
L 224.283088 22.71541 
L 223.582332 22.645613 
L 222.881577 22.552027 
L 222.180821 22.432826 
L 221.480066 22.290854 
L 220.77931 22.147148 
L 220.078555 22.005111 
L 219.377799 21.875194 
L 218.677044 21.761904 
L 217.976288 21.672432 
L 217.275533 21.615084 
L 216.574777 21.567367 
L 215.874022 21.5167 
L 215.173266 21.444383 
L 214.472511 21.35375 
L 213.771755 21.217465 
L 213.071 21.054189 
L 212.370244 20.876633 
L 211.669489 20.698468 
L 210.968733 20.534123 
L 210.267978 20.397069 
L 209.567222 20.306886 
L 208.866467 20.263057 
L 208.165711 20.235526 
L 207.464956 20.213771 
L 206.7642 20.199933 
L 206.063445 20.166312 
L 205.362689 20.105277 
L 204.661934 20.024539 
L 203.961178 19.930749 
L 203.260423 19.829706 
L 202.559667 19.743315 
L 201.858912 19.673083 
L 201.158156 19.619555 
L 200.457401 19.583951 
L 199.756645 19.553409 
L 199.05589 19.503417 
L 198.355134 19.429267 
L 197.654379 19.312849 
L 196.953623 19.159124 
L 196.252868 18.96718 
L 195.552112 18.761237 
L 194.851357 18.555198 
L 194.150601 18.359729 
L 193.449846 18.174223 
L 192.74909 17.997431 
L 192.048335 17.846214 
L 191.347579 17.71762 
L 190.646824 17.604058 
L 189.946068 17.478246 
L 189.245313 17.349121 
L 188.544557 17.192492 
L 187.843802 17.043431 
L 187.143046 16.909124 
L 186.442291 16.797386 
L 185.741535 16.73 
L 185.04078 16.715002 
L 184.340024 16.764545 
L 183.639269 16.867423 
L 182.938513 16.998774 
L 182.237758 17.144207 
L 181.537002 17.293116 
L 180.836247 17.455247 
L 180.135491 17.608519 
L 179.434736 17.74756 
L 178.73398 17.900499 
L 178.033225 18.076424 
L 177.332469 18.25096 
L 176.631714 18.452954 
L 175.930958 18.701879 
L 175.230203 18.970963 
L 174.529447 19.255924 
L 173.828692 19.546553 
L 173.127936 19.826719 
L 172.427181 20.049106 
L 171.726425 20.227115 
L 171.02567 20.374352 
L 170.324914 20.504713 
L 169.624159 20.636923 
L 168.923403 20.770333 
L 168.222648 20.897907 
L 167.521892 21.020761 
L 166.821137 21.139749 
L 166.120381 21.243975 
L 165.419626 21.327824 
L 164.71887 21.392536 
L 164.018115 21.411574 
L 163.317359 21.377565 
L 162.616604 21.310009 
L 161.915848 21.232207 
L 161.215093 21.153638 
L 160.514337 21.085427 
L 159.813582 21.05577 
L 159.112826 21.04841 
L 158.412071 21.072816 
L 157.711315 21.091478 
L 157.01056 21.109793 
L 156.309804 21.092737 
L 155.609049 21.02798 
L 154.908293 20.926248 
L 154.207538 20.800858 
L 153.506782 20.655421 
L 152.806027 20.50218 
L 152.105271 20.35593 
L 151.404516 20.233421 
L 150.70376 20.127674 
L 150.003005 20.051479 
L 149.30225 19.976138 
L 148.601494 19.903116 
L 147.900739 19.814553 
L 147.199983 19.704575 
L 146.499228 19.554508 
L 145.798472 19.38106 
L 145.097717 19.199579 
L 144.396961 19.020523 
L 143.696206 18.852949 
L 142.99545 18.707183 
L 142.294695 18.572908 
L 141.593939 18.429437 
L 140.893184 18.271197 
L 140.192428 18.107917 
L 139.491673 17.915993 
L 138.790917 17.673766 
L 138.090162 17.396739 
L 137.389406 17.095377 
L 136.688651 16.785567 
L 135.987895 16.495302 
L 135.28714 16.225488 
L 134.586384 15.970805 
L 133.885629 15.746972 
L 133.184873 15.548701 
L 132.484118 15.371553 
L 131.783362 15.171672 
L 131.082607 14.953811 
L 130.381851 14.722611 
L 129.681096 14.463338 
L 128.98034 14.187889 
L 128.279585 13.922612 
L 127.578829 13.698246 
L 126.878074 13.523616 
L 126.177318 13.371615 
L 125.476563 13.27693 
L 124.775807 13.227733 
L 124.075052 13.196485 
L 123.374296 13.183662 
L 122.673541 13.182637 
L 121.972785 13.169228 
L 121.27203 13.149137 
L 120.571274 13.128088 
L 119.870519 13.132584 
L 119.169763 13.165583 
L 118.469008 13.223869 
L 117.768252 13.318665 
L 117.067497 13.464585 
L 116.366741 13.666885 
L 115.665986 13.884949 
L 114.96523 14.099176 
L 114.264475 14.299675 
L 113.563719 14.469791 
L 112.862964 14.61838 
L 112.162208 14.764789 
L 111.461453 14.91274 
L 110.760697 15.075677 
L 110.059942 15.257935 
L 109.359186 15.459883 
L 108.658431 15.682625 
L 107.957675 15.913888 
L 107.25692 16.143456 
L 106.556164 16.387331 
L 105.855409 16.582702 
L 105.154653 16.749969 
L 104.453898 16.843318 
L 103.753142 16.899321 
L 103.052387 16.939038 
L 102.351631 16.9839 
L 101.650876 17.074406 
L 100.95012 17.220332 
L 100.249365 17.377082 
L 99.548609 17.559556 
L 98.847854 17.770207 
L 98.147098 17.974314 
L 97.446343 18.165078 
L 96.745587 18.314314 
L 96.044832 18.423714 
L 95.344076 18.510915 
L 94.643321 18.598586 
L 93.942565 18.707844 
L 93.24181 18.869346 
L 92.541054 19.055521 
L 91.840299 19.293832 
L 91.139543 19.61438 
L 90.438788 19.998024 
L 89.738032 20.361302 
L 89.037277 20.692509 
L 88.336521 20.99993 
L 87.635766 21.27523 
L 86.93501 21.544318 
L 86.234255 21.821679 
L 85.533499 22.104449 
L 84.832744 22.412738 
L 84.131988 22.761997 
L 83.431233 23.154108 
L 82.730477 23.60501 
L 82.029722 24.092079 
L 81.328966 24.529745 
L 80.628211 24.948976 
L 79.927455 25.320842 
L 79.2267 25.647148 
L 78.525944 25.932367 
L 77.825189 26.199217 
L 77.124433 26.463583 
L 76.423678 26.756766 
L 75.722922 27.067677 
L 75.022167 27.419765 
L 74.321411 27.798971 
L 73.620656 28.182389 
L 72.9199 28.585438 
L 72.219145 28.970395 
L 71.518389 29.365592 
L 70.817634 29.710693 
L 70.116878 30.129883 
L 69.416123 30.49299 
L 68.715367 31.01712 
L 68.014612 31.542316 
L 67.313856 32.072872 
L 66.613101 32.719872 
L 65.912345 33.341182 
L 65.21159 33.95241 
L 64.510834 34.821304 
L 63.810079 35.564907 
L 63.109323 36.816669 
L 62.408568 37.425549 
L 61.707813 37.717161 
z
" clip-path="url(#pddd2e86820)" style="fill: #d0d1e6; fill-opacity: 0.25"/>
   </g>
   <g id="PolyCollection_2">
    <path d="M 171.02567 32.234931 
L 171.02567 34.480804 
L 171.726145 34.541524 
L 172.427461 35.134435 
L 173.127936 36.119485 
L 173.828412 37.165683 
L 174.529728 37.934304 
L 175.230203 38.590748 
L 175.930678 39.202302 
L 176.631994 39.796656 
L 177.332469 40.2867 
L 178.032945 40.723856 
L 178.734261 41.18593 
L 179.434736 41.644797 
L 180.135211 42.072164 
L 180.836527 42.545224 
L 181.537002 43.040646 
L 182.237478 43.49273 
L 182.938794 43.938054 
L 183.639269 44.373296 
L 184.339744 44.790913 
L 185.04106 45.148464 
L 185.741535 45.423604 
L 186.44201 45.637387 
L 187.143327 45.788933 
L 187.843802 45.940201 
L 188.544277 46.073231 
L 189.245593 46.193204 
L 189.946068 46.366494 
L 190.646543 46.538788 
L 191.34786 46.731492 
L 192.048335 46.894703 
L 192.74881 47.028521 
L 193.450126 47.134228 
L 194.150601 47.237141 
L 194.851076 47.325158 
L 195.552393 47.391887 
L 196.252868 47.476484 
L 196.953343 47.57339 
L 197.654659 47.717408 
L 198.355134 47.902288 
L 199.055609 48.138566 
L 199.756926 48.330439 
L 200.457401 48.544625 
L 201.157876 48.748686 
L 201.859192 48.931943 
L 202.559667 49.097082 
L 203.260142 49.238941 
L 203.961458 49.35496 
L 204.661934 49.468873 
L 205.362409 49.597149 
L 206.063725 49.750285 
L 206.7642 49.941947 
L 207.464675 50.157831 
L 208.165991 50.356137 
L 208.866467 50.474754 
L 209.566942 50.582083 
L 210.268258 50.635471 
L 210.968733 50.633574 
L 211.669208 50.604178 
L 212.370524 50.558165 
L 213.071 50.436302 
L 213.771475 50.327423 
L 214.472791 50.249025 
L 215.173266 50.227327 
L 215.873741 50.219797 
L 216.575057 50.236184 
L 217.275533 50.253596 
L 217.976008 50.260915 
L 218.677324 50.230622 
L 219.377799 50.175371 
L 220.078274 50.10224 
L 220.77959 50.0132 
L 221.480066 49.934794 
L 222.180541 49.856165 
L 222.881857 49.804727 
L 223.582332 49.78454 
L 224.282807 49.792101 
L 224.984123 49.853099 
L 225.684599 49.901592 
L 226.385074 49.915022 
L 227.08639 49.911858 
L 227.786865 49.881432 
L 228.48734 49.828589 
L 229.188656 49.776567 
L 229.889132 49.744894 
L 230.589607 49.716646 
L 231.290923 49.713648 
L 231.991398 49.746174 
L 232.691873 49.801057 
L 233.393189 49.888374 
L 234.093665 49.963133 
L 234.79414 50.011693 
L 235.495456 50.035321 
L 236.195931 50.014134 
L 236.896406 49.991979 
L 237.597722 49.943783 
L 238.298198 49.901534 
L 238.998673 49.869403 
L 239.699989 49.868151 
L 240.400464 49.917011 
L 241.100939 49.977398 
L 241.802255 50.065938 
L 242.50273 50.172759 
L 243.203206 50.297236 
L 243.904522 50.42185 
L 244.604997 50.550939 
L 245.305472 50.677594 
L 246.006788 50.816039 
L 246.707263 50.981122 
L 247.407739 51.165519 
L 248.109055 51.383946 
L 248.80953 51.642533 
L 249.510005 51.932276 
L 250.211321 52.252907 
L 250.911796 52.580409 
L 251.612272 52.896912 
L 252.313588 53.189794 
L 253.014063 53.464246 
L 253.714538 53.732278 
L 254.415854 53.989466 
L 255.116329 54.248443 
L 255.816805 54.504647 
L 256.518121 54.77277 
L 257.218596 55.072377 
L 257.919071 55.393917 
L 258.620387 55.743996 
L 259.320862 56.081134 
L 260.021338 56.385032 
L 260.722654 56.657804 
L 261.423129 56.878941 
L 262.123604 57.055107 
L 262.82492 57.196422 
L 263.525395 57.390262 
L 264.225871 57.593764 
L 264.927187 57.812567 
L 265.627662 58.03942 
L 266.328137 58.27675 
L 267.029453 58.501336 
L 267.729928 58.70063 
L 268.430404 58.900999 
L 269.13172 59.087853 
L 269.832195 59.268012 
L 270.53267 59.428283 
L 271.233986 59.566458 
L 271.934461 59.694903 
L 272.634937 59.836026 
L 273.336253 60.010716 
L 274.036728 60.223528 
L 274.737203 60.473347 
L 275.438519 60.753976 
L 276.138994 61.058497 
L 276.839469 61.366196 
L 277.540786 61.672142 
L 278.241261 61.964858 
L 278.941736 62.24083 
L 279.643052 62.521817 
L 280.343527 62.810517 
L 281.044002 63.116561 
L 281.745319 63.451622 
L 282.445794 63.815527 
L 283.146269 64.198715 
L 283.847585 64.597907 
L 284.54806 65.003458 
L 285.248535 65.39063 
L 285.949852 65.755025 
L 286.650327 66.092981 
L 287.350802 66.41324 
L 288.052118 66.689799 
L 288.752593 66.975529 
L 289.453068 67.262953 
L 290.154385 67.557514 
L 290.85486 67.863869 
L 291.555335 68.17616 
L 292.256651 68.494646 
L 292.957126 68.800223 
L 293.657601 69.088796 
L 294.358917 69.328169 
L 295.059393 69.525391 
L 295.759868 69.699406 
L 296.461184 69.842176 
L 297.161659 69.965685 
L 297.862134 70.07022 
L 298.56345 70.1766 
L 299.263926 70.301963 
L 299.964401 70.448055 
L 300.665717 70.612948 
L 301.366192 70.786442 
L 302.066667 70.953614 
L 302.767983 71.109995 
L 303.468459 71.258799 
L 304.168934 71.400211 
L 304.87025 71.540189 
L 305.570725 71.706848 
L 306.2712 71.899525 
L 306.972516 72.135855 
L 307.672992 72.412125 
L 308.373467 72.73273 
L 309.074783 73.089291 
L 309.775258 73.459238 
L 310.475733 73.85062 
L 311.177049 74.243229 
L 311.877525 74.620711 
L 312.578 74.981451 
L 313.279316 75.326945 
L 313.979791 75.641393 
L 314.680266 75.958791 
L 315.381582 76.290698 
L 316.082058 76.640258 
L 316.782533 76.990486 
L 317.483849 77.363944 
L 318.184324 77.742474 
L 318.884799 78.121928 
L 319.586115 78.474945 
L 320.286591 78.798746 
L 320.987066 79.089976 
L 321.688382 79.356805 
L 322.388857 79.640684 
L 323.089332 79.91936 
L 323.790648 80.211429 
L 324.491124 80.51807 
L 325.191599 80.830215 
L 325.892915 81.150988 
L 326.59339 81.472117 
L 327.293865 81.842095 
L 327.995181 82.192753 
L 328.695656 82.529932 
L 329.396132 82.853079 
L 330.097448 83.167475 
L 330.797923 83.548877 
L 331.498398 83.948732 
L 332.199714 84.378455 
L 332.900189 84.841063 
L 333.600665 85.337114 
L 334.301981 85.853169 
L 335.002456 86.369572 
L 335.702931 86.894568 
L 336.404247 87.401256 
L 337.104722 87.862889 
L 337.805198 88.292029 
L 338.506514 88.693529 
L 339.206989 89.055694 
L 339.907464 89.404987 
L 340.60878 89.74688 
L 341.309255 90.097387 
L 342.009731 90.498867 
L 342.711047 90.917634 
L 343.411522 91.313416 
L 344.111997 91.68292 
L 344.813313 92.020345 
L 345.513788 92.326356 
L 346.214264 92.59873 
L 346.91558 92.847329 
L 347.616055 93.099858 
L 348.31653 93.354395 
L 349.017846 93.623064 
L 349.718321 93.910203 
L 350.418797 94.20513 
L 351.120113 94.502233 
L 351.820588 94.788537 
L 352.521063 95.055605 
L 353.222379 95.299966 
L 353.922854 95.531899 
L 354.62333 95.739531 
L 355.324646 95.937453 
L 356.025121 96.158396 
L 356.725596 96.397468 
L 357.426912 96.660335 
L 358.127387 96.953649 
L 358.827863 97.282182 
L 359.529179 97.631925 
L 360.229654 97.977652 
L 360.930129 98.314988 
L 361.631445 98.642085 
L 362.33192 98.950619 
L 363.032395 99.2532 
L 363.733712 99.549529 
L 364.434187 99.717231 
L 365.134662 99.895594 
L 365.835978 100.103672 
L 366.536453 100.365264 
L 367.236928 100.673658 
L 367.938245 101.029518 
L 368.63872 101.39542 
L 369.339195 101.77506 
L 370.040511 102.155653 
L 370.740986 102.534132 
L 371.441461 102.897823 
L 372.142778 103.266439 
L 372.843253 103.546459 
L 373.543728 103.845545 
L 374.245044 104.1707 
L 374.945519 104.525348 
L 375.645994 104.901921 
L 376.347311 105.30848 
L 377.047786 105.714964 
L 377.748261 106.096001 
L 378.449577 106.439035 
L 379.150052 106.751774 
L 379.850527 107.034789 
L 380.551843 107.29045 
L 381.252319 107.605699 
L 381.952794 107.920366 
L 382.65411 108.242672 
L 383.354585 108.572859 
L 384.05506 108.826401 
L 384.756376 109.092592 
L 385.456852 109.348906 
L 386.157327 109.582661 
L 386.858643 109.786835 
L 387.559118 109.955654 
L 388.259593 110.074483 
L 388.960909 110.173929 
L 389.661385 110.438432 
L 390.36186 110.688487 
L 391.063176 110.944946 
L 391.763651 111.223589 
L 392.464126 111.524193 
L 393.165442 111.850933 
L 393.865918 112.18351 
L 394.566393 112.649625 
L 395.267709 113.095958 
L 395.968184 113.535908 
L 396.668659 113.973502 
L 397.369975 114.413456 
L 398.070451 114.870428 
L 398.770926 115.249306 
L 399.472242 115.63965 
L 400.172717 116.072282 
L 400.873192 116.53928 
L 401.574508 117.038106 
L 402.274984 117.566884 
L 402.975459 118.103644 
L 403.676775 118.632432 
L 404.37725 119.141455 
L 405.077725 119.64388 
L 405.779041 120.143839 
L 406.479517 120.64817 
L 407.179992 120.985931 
L 407.881308 121.360663 
L 408.581783 121.766612 
L 409.282258 122.199371 
L 409.983574 122.662483 
L 410.68405 123.126813 
L 411.384525 123.59264 
L 412.085841 124.044308 
L 412.786316 124.494273 
L 413.486791 124.946222 
L 414.188107 125.393542 
L 414.188107 79.15222 
L 414.188107 79.15222 
L 413.486791 78.811777 
L 412.786316 78.475963 
L 412.085841 78.138164 
L 411.384525 77.80207 
L 410.68405 77.480133 
L 409.983574 77.1567 
L 409.282258 76.832049 
L 408.581783 76.537109 
L 407.881308 76.265203 
L 407.179992 76.000485 
L 406.479517 75.736682 
L 405.779041 75.305027 
L 405.077725 74.887113 
L 404.37725 74.480242 
L 403.676775 74.077317 
L 402.975459 73.668574 
L 402.274984 73.250502 
L 401.574508 72.833273 
L 400.873192 72.433036 
L 400.172717 72.067561 
L 399.472242 71.741751 
L 398.770926 71.436602 
L 398.070451 71.125296 
L 397.369975 70.728168 
L 396.668659 70.366493 
L 395.968184 70.020812 
L 395.267709 69.663133 
L 394.566393 69.296678 
L 393.865918 68.917466 
L 393.165442 68.663178 
L 392.464126 68.418628 
L 391.763651 68.204823 
L 391.063176 68.017271 
L 390.36186 67.827453 
L 389.661385 67.627339 
L 388.960909 67.418307 
L 388.259593 67.395301 
L 387.559118 67.344304 
L 386.858643 67.25974 
L 386.157327 67.142771 
L 385.456852 66.990189 
L 384.756376 66.819826 
L 384.05506 66.653788 
L 383.354585 66.484196 
L 382.65411 66.245536 
L 381.952794 65.996972 
L 381.252319 65.737396 
L 380.551843 65.473045 
L 379.850527 65.285096 
L 379.150052 65.093537 
L 378.449577 64.867366 
L 377.748261 64.605793 
L 377.047786 64.317427 
L 376.347311 64.012723 
L 375.645994 63.721073 
L 374.945519 63.424576 
L 374.245044 63.150465 
L 373.543728 62.8941 
L 372.843253 62.657689 
L 372.142778 62.446037 
L 371.441461 62.144302 
L 370.740986 61.849509 
L 370.040511 61.558305 
L 369.339195 61.266109 
L 368.63872 60.964911 
L 367.938245 60.67328 
L 367.236928 60.42088 
L 366.536453 60.200928 
L 365.835978 60.025138 
L 365.134662 59.875174 
L 364.434187 59.745833 
L 363.733712 59.619507 
L 363.032395 59.374461 
L 362.33192 59.142299 
L 361.631445 58.902821 
L 360.930129 58.650438 
L 360.229654 58.385451 
L 359.529179 58.119037 
L 358.827863 57.86689 
L 358.127387 57.627279 
L 357.426912 57.406038 
L 356.725596 57.19947 
L 356.025121 57.011038 
L 355.324646 56.844697 
L 354.62333 56.708052 
L 353.922854 56.573607 
L 353.222379 56.438832 
L 352.521063 56.271992 
L 351.820588 56.07756 
L 351.120113 55.868685 
L 350.418797 55.652473 
L 349.718321 55.444261 
L 349.017846 55.245623 
L 348.31653 55.045286 
L 347.616055 54.846068 
L 346.91558 54.638348 
L 346.214264 54.439874 
L 345.513788 54.227189 
L 344.813313 53.993513 
L 344.111997 53.73324 
L 343.411522 53.438693 
L 342.711047 53.142378 
L 342.009731 52.83297 
L 341.309255 52.521018 
L 340.60878 52.264076 
L 339.907464 51.998398 
L 339.206989 51.722208 
L 338.506514 51.434414 
L 337.805198 51.096536 
L 337.104722 50.740902 
L 336.404247 50.36084 
L 335.702931 49.970759 
L 335.002456 49.560272 
L 334.301981 49.12645 
L 333.600665 48.700163 
L 332.900189 48.290987 
L 332.199714 47.909452 
L 331.498398 47.547777 
L 330.797923 47.205496 
L 330.097448 46.885636 
L 329.396132 46.654151 
L 328.695656 46.426476 
L 327.995181 46.188111 
L 327.293865 45.934188 
L 326.59339 45.664766 
L 325.892915 45.433475 
L 325.191599 45.199379 
L 324.491124 44.97135 
L 323.790648 44.752761 
L 323.089332 44.540367 
L 322.388857 44.328521 
L 321.688382 44.1127 
L 320.987066 43.924535 
L 320.286591 43.724257 
L 319.586115 43.503562 
L 318.884799 43.270391 
L 318.184324 43.025083 
L 317.483849 42.767117 
L 316.782533 42.510014 
L 316.082058 42.256273 
L 315.381582 42.029009 
L 314.680266 41.79464 
L 313.979791 41.554085 
L 313.279316 41.316285 
L 312.578 41.05446 
L 311.877525 40.777299 
L 311.177049 40.524905 
L 310.475733 40.255708 
L 309.775258 39.971542 
L 309.074783 39.684545 
L 308.373467 39.432385 
L 307.672992 39.215987 
L 306.972516 39.027137 
L 306.2712 38.866593 
L 305.570725 38.737238 
L 304.87025 38.639244 
L 304.168934 38.565283 
L 303.468459 38.501192 
L 302.767983 38.434708 
L 302.066667 38.358233 
L 301.366192 38.279621 
L 300.665717 38.210354 
L 299.964401 38.15563 
L 299.263926 38.114496 
L 298.56345 38.081044 
L 297.862134 38.036924 
L 297.161659 37.986197 
L 296.461184 37.926014 
L 295.759868 37.875241 
L 295.059393 37.79997 
L 294.358917 37.678381 
L 293.657601 37.524486 
L 292.957126 37.347829 
L 292.256651 37.148965 
L 291.555335 36.948147 
L 290.85486 36.742476 
L 290.154385 36.532747 
L 289.453068 36.317204 
L 288.752593 36.097925 
L 288.052118 35.882192 
L 287.350802 35.705354 
L 286.650327 35.525557 
L 285.949852 35.311932 
L 285.248535 35.059278 
L 284.54806 34.78407 
L 283.847585 34.500632 
L 283.146269 34.212481 
L 282.445794 33.94057 
L 281.745319 33.683913 
L 281.044002 33.433165 
L 280.343527 33.18938 
L 279.643052 32.967154 
L 278.941736 32.76946 
L 278.241261 32.578621 
L 277.540786 32.395293 
L 276.839469 32.210293 
L 276.138994 32.021947 
L 275.438519 31.84938 
L 274.737203 31.695207 
L 274.036728 31.576707 
L 273.336253 31.484849 
L 272.634937 31.405379 
L 271.934461 31.330752 
L 271.233986 31.261275 
L 270.53267 31.19686 
L 269.832195 31.137911 
L 269.13172 31.072968 
L 268.430404 31.005381 
L 267.729928 30.907632 
L 267.029453 30.806659 
L 266.328137 30.713297 
L 265.627662 30.622346 
L 264.927187 30.507579 
L 264.225871 30.383906 
L 263.525395 30.260244 
L 262.82492 30.13435 
L 262.123604 30.062136 
L 261.423129 29.975551 
L 260.722654 29.86345 
L 260.021338 29.716601 
L 259.320862 29.518898 
L 258.620387 29.295339 
L 257.919071 29.073053 
L 257.218596 28.893499 
L 256.518121 28.73016 
L 255.816805 28.568427 
L 255.116329 28.415291 
L 254.415854 28.272459 
L 253.714538 28.108034 
L 253.014063 27.947501 
L 252.313588 27.774987 
L 251.612272 27.586483 
L 250.911796 27.389898 
L 250.211321 27.198441 
L 249.510005 27.022208 
L 248.80953 26.862146 
L 248.109055 26.721723 
L 247.407739 26.5928 
L 246.707263 26.476602 
L 246.006788 26.380877 
L 245.305472 26.340201 
L 244.604997 26.323429 
L 243.904522 26.327407 
L 243.203206 26.332509 
L 242.50273 26.345053 
L 241.802255 26.364181 
L 241.100939 26.40272 
L 240.400464 26.455904 
L 239.699989 26.548515 
L 238.998673 26.641847 
L 238.298198 26.752812 
L 237.597722 26.892112 
L 236.896406 27.064501 
L 236.195931 27.245119 
L 235.495456 27.373535 
L 234.79414 27.47821 
L 234.093665 27.542093 
L 233.393189 27.590842 
L 232.691873 27.657272 
L 231.991398 27.723642 
L 231.290923 27.81338 
L 230.589607 27.910954 
L 229.889132 28.023411 
L 229.188656 28.158672 
L 228.48734 28.323004 
L 227.786865 28.474324 
L 227.08639 28.628754 
L 226.385074 28.775297 
L 225.684599 28.899253 
L 224.984123 29.046535 
L 224.282807 29.226324 
L 223.582332 29.389952 
L 222.881857 29.555224 
L 222.180541 29.716417 
L 221.480066 29.877558 
L 220.77959 30.050919 
L 220.078274 30.239816 
L 219.377799 30.433895 
L 218.677324 30.61608 
L 217.976008 30.778479 
L 217.275533 30.932748 
L 216.575057 31.077513 
L 215.873741 31.231907 
L 215.173266 31.395714 
L 214.472791 31.594162 
L 213.771475 31.788219 
L 213.071 31.993219 
L 212.370524 32.215271 
L 211.669208 32.380579 
L 210.968733 32.54259 
L 210.268258 32.676818 
L 209.566942 32.797006 
L 208.866467 32.898984 
L 208.165991 32.961698 
L 207.464675 32.937604 
L 206.7642 32.9403 
L 206.063725 32.942918 
L 205.362409 32.929248 
L 204.661934 32.914963 
L 203.961458 32.909102 
L 203.260142 32.907324 
L 202.559667 32.929697 
L 201.859192 32.958957 
L 201.157876 32.973842 
L 200.457401 32.977942 
L 199.756926 32.990978 
L 199.055609 33.010492 
L 198.355134 32.997886 
L 197.654659 32.995507 
L 196.953343 33.017167 
L 196.252868 33.047815 
L 195.552393 33.097603 
L 194.851076 33.175898 
L 194.150601 33.274101 
L 193.450126 33.374563 
L 192.74881 33.446682 
L 192.048335 33.498415 
L 191.34786 33.544281 
L 190.646543 33.612056 
L 189.946068 33.666151 
L 189.245593 33.731849 
L 188.544277 33.754639 
L 187.843802 33.782711 
L 187.143327 33.801217 
L 186.44201 33.81739 
L 185.741535 33.831544 
L 185.04106 33.811901 
L 184.339744 33.766077 
L 183.639269 33.676945 
L 182.938794 33.529134 
L 182.237478 33.353913 
L 181.537002 33.178247 
L 180.836527 33.048249 
L 180.135211 32.892607 
L 179.434736 32.683141 
L 178.734261 32.493487 
L 178.032945 32.414926 
L 177.332469 32.286705 
L 176.631994 32.172114 
L 175.930678 32.103469 
L 175.230203 31.996372 
L 174.529728 31.907602 
L 173.828412 31.936208 
L 173.127936 31.908857 
L 172.427461 31.875514 
L 171.726145 32.295651 
L 171.02567 32.234931 
z
" clip-path="url(#pddd2e86820)" style="fill: #67a9cf; fill-opacity: 0.25"/>
   </g>
   <g id="PolyCollection_3">
    <path d="M 171.02567 32.390488 
L 171.02567 34.325247 
L 171.726145 34.651948 
L 172.427461 34.885416 
L 173.127936 35.420425 
L 173.828412 35.933198 
L 174.529728 36.192113 
L 175.230203 36.444488 
L 175.930678 36.691258 
L 176.631994 36.933161 
L 177.332469 37.170785 
L 178.032945 37.404608 
L 178.734261 37.635019 
L 179.434736 37.925399 
L 180.135211 38.212825 
L 180.836527 38.497558 
L 181.537002 38.779823 
L 182.237478 39.05981 
L 182.938794 39.3377 
L 183.639269 39.613631 
L 184.339744 39.887746 
L 185.04106 40.160157 
L 185.741535 40.430975 
L 186.44201 40.700292 
L 187.143327 40.968199 
L 187.843802 41.254915 
L 188.544277 41.540439 
L 189.245593 41.824835 
L 189.946068 42.108152 
L 190.646543 42.390443 
L 191.34786 42.671755 
L 192.048335 42.952133 
L 192.74881 43.231614 
L 193.450126 43.510239 
L 194.150601 43.78804 
L 194.851076 44.06505 
L 195.552393 44.341304 
L 196.252868 44.638369 
L 196.953343 44.93471 
L 197.654659 45.230354 
L 198.355134 45.525326 
L 199.055609 45.819648 
L 199.756926 46.048181 
L 200.457401 46.276113 
L 201.157876 46.503459 
L 201.859192 46.730242 
L 202.559667 46.956477 
L 203.260142 47.182182 
L 203.961458 47.407374 
L 204.661934 47.624898 
L 205.362409 47.841928 
L 206.063725 48.058471 
L 206.7642 48.274546 
L 207.464675 48.490157 
L 208.165991 48.705328 
L 208.866467 48.845028 
L 209.566942 48.984305 
L 210.268258 49.123175 
L 210.968733 49.261643 
L 211.669208 49.399725 
L 212.370524 49.537425 
L 213.071 49.601178 
L 213.771475 49.664575 
L 214.472791 49.727639 
L 215.173266 49.790371 
L 215.873741 49.852778 
L 216.575057 49.914869 
L 217.275533 49.976646 
L 217.976008 50.038121 
L 218.677324 50.099297 
L 219.377799 50.16018 
L 220.078274 50.220782 
L 220.77959 50.281102 
L 221.480066 50.355044 
L 222.180541 50.428711 
L 222.881857 50.502106 
L 223.582332 50.575236 
L 224.282807 50.648103 
L 224.984123 50.720715 
L 225.684599 50.793075 
L 226.385074 50.865186 
L 227.08639 50.937053 
L 227.786865 51.00868 
L 228.48734 51.080079 
L 229.188656 51.151243 
L 229.889132 51.242327 
L 230.589607 51.33318 
L 231.290923 51.423801 
L 231.991398 51.5142 
L 232.691873 51.604375 
L 233.393189 51.694334 
L 234.093665 51.784079 
L 234.79414 51.873613 
L 235.495456 51.962942 
L 236.195931 52.052066 
L 236.896406 52.140987 
L 237.597722 52.229712 
L 238.298198 52.324486 
L 238.998673 52.419093 
L 239.699989 52.513521 
L 240.400464 52.607786 
L 241.100939 52.701883 
L 241.802255 52.795816 
L 242.50273 52.889587 
L 243.203206 52.983198 
L 243.904522 53.076653 
L 244.604997 53.169953 
L 245.305472 53.263101 
L 246.006788 53.356093 
L 246.707263 53.467197 
L 247.407739 53.578149 
L 248.109055 53.688948 
L 248.80953 53.799604 
L 249.510005 53.910113 
L 250.211321 54.020484 
L 250.911796 54.130709 
L 251.612272 54.240799 
L 252.313588 54.350746 
L 253.014063 54.460563 
L 253.714538 54.570243 
L 254.415854 54.679791 
L 255.116329 54.776001 
L 255.816805 54.872085 
L 256.518121 54.968049 
L 257.218596 55.06389 
L 257.919071 55.159614 
L 258.620387 55.279126 
L 259.320862 55.398524 
L 260.021338 55.51857 
L 260.722654 55.638508 
L 261.423129 55.758345 
L 262.123604 55.878075 
L 262.82492 55.997698 
L 263.525395 56.19067 
L 264.225871 56.391612 
L 264.927187 56.599015 
L 265.627662 56.802607 
L 266.328137 56.99746 
L 267.029453 57.188614 
L 267.729928 57.379513 
L 268.430404 57.588958 
L 269.13172 57.8026 
L 269.832195 58.034834 
L 270.53267 58.265357 
L 271.233986 58.489165 
L 271.934461 58.705638 
L 272.634937 58.9186 
L 273.336253 59.131401 
L 274.036728 59.339275 
L 274.737203 59.539558 
L 275.438519 59.735076 
L 276.138994 59.927936 
L 276.839469 60.122669 
L 277.540786 60.318014 
L 278.241261 60.512702 
L 278.941736 60.70167 
L 279.643052 60.884208 
L 280.343527 61.063774 
L 281.044002 61.240975 
L 281.745319 61.411702 
L 282.445794 61.576635 
L 283.146269 61.735434 
L 283.847585 61.890461 
L 284.54806 62.043384 
L 285.248535 62.205538 
L 285.949852 62.380568 
L 286.650327 62.56242 
L 287.350802 62.748861 
L 288.052118 62.931473 
L 288.752593 63.148464 
L 289.453068 63.369474 
L 290.154385 63.591154 
L 290.85486 63.811258 
L 291.555335 64.029534 
L 292.256651 64.251563 
L 292.957126 64.480618 
L 293.657601 64.725337 
L 294.358917 64.979962 
L 295.059393 65.244267 
L 295.759868 65.513704 
L 296.461184 65.78866 
L 297.161659 66.085763 
L 297.862134 66.391181 
L 298.56345 66.704608 
L 299.263926 67.016602 
L 299.964401 67.326343 
L 300.665717 67.632364 
L 301.366192 67.937448 
L 302.066667 68.246992 
L 302.767983 68.559994 
L 303.468459 68.872291 
L 304.168934 69.182251 
L 304.87025 69.489954 
L 305.570725 69.803742 
L 306.2712 70.115523 
L 306.972516 70.423704 
L 307.672992 70.726267 
L 308.373467 71.024314 
L 309.074783 71.319533 
L 309.775258 71.612046 
L 310.475733 71.909299 
L 311.177049 72.210863 
L 311.877525 72.514425 
L 312.578 72.836733 
L 313.279316 73.155093 
L 313.979791 73.453863 
L 314.680266 73.756429 
L 315.381582 74.058166 
L 316.082058 74.353616 
L 316.782533 74.648055 
L 317.483849 74.943831 
L 318.184324 75.240691 
L 318.884799 75.54627 
L 319.586115 75.860151 
L 320.286591 76.183505 
L 320.987066 76.507331 
L 321.688382 76.835289 
L 322.388857 77.204851 
L 323.089332 77.582573 
L 323.790648 77.96176 
L 324.491124 78.332829 
L 325.191599 78.69389 
L 325.892915 79.051454 
L 326.59339 79.406771 
L 327.293865 79.810977 
L 327.995181 80.216782 
L 328.695656 80.622756 
L 329.396132 81.025568 
L 330.097448 81.427313 
L 330.797923 81.893405 
L 331.498398 82.358316 
L 332.199714 82.816296 
L 332.900189 83.265481 
L 333.600665 83.711005 
L 334.301981 84.150428 
L 335.002456 84.587283 
L 335.702931 85.02747 
L 336.404247 85.472192 
L 337.104722 85.913343 
L 337.805198 86.348745 
L 338.506514 86.781433 
L 339.206989 87.190953 
L 339.907464 87.601945 
L 340.60878 88.012537 
L 341.309255 88.421891 
L 342.009731 88.874853 
L 342.711047 89.327045 
L 343.411522 89.762696 
L 344.111997 90.206377 
L 344.813313 90.651921 
L 345.513788 91.105145 
L 346.214264 91.56304 
L 346.91558 92.023276 
L 347.616055 92.505359 
L 348.31653 92.990873 
L 349.017846 93.47717 
L 349.718321 93.957256 
L 350.418797 94.433533 
L 351.120113 94.907005 
L 351.820588 95.379949 
L 352.521063 95.857225 
L 353.222379 96.340239 
L 353.922854 96.827814 
L 354.62333 97.320362 
L 355.324646 97.81288 
L 356.025121 98.321292 
L 356.725596 98.835493 
L 357.426912 99.351196 
L 358.127387 99.861918 
L 358.827863 100.372551 
L 359.529179 100.882725 
L 360.229654 101.393097 
L 360.930129 101.907772 
L 361.631445 102.427488 
L 362.33192 102.94481 
L 363.032395 103.46056 
L 363.733712 103.9735 
L 364.434187 104.34352 
L 365.134662 104.694983 
L 365.835978 105.04078 
L 366.536453 105.385663 
L 367.236928 105.726496 
L 367.938245 106.061399 
L 368.63872 106.38975 
L 369.339195 106.719739 
L 370.040511 107.049857 
L 370.740986 107.384981 
L 371.441461 107.715515 
L 372.142778 108.039416 
L 372.843253 108.252991 
L 373.543728 108.465284 
L 374.245044 108.673164 
L 374.945519 108.871285 
L 375.645994 109.060349 
L 376.347311 109.236598 
L 377.047786 109.411879 
L 377.748261 109.583274 
L 378.449577 109.754069 
L 379.150052 109.922396 
L 379.850527 110.081376 
L 380.551843 110.239595 
L 381.252319 110.477491 
L 381.952794 110.723652 
L 382.65411 110.972882 
L 383.354585 111.221965 
L 384.05506 111.39739 
L 384.756376 111.579019 
L 385.456852 111.77141 
L 386.157327 111.973575 
L 386.858643 112.184407 
L 387.559118 112.402195 
L 388.259593 112.617675 
L 388.960909 112.839402 
L 389.661385 113.254403 
L 390.36186 113.660204 
L 391.063176 114.053274 
L 391.763651 114.438932 
L 392.464126 114.823073 
L 393.165442 115.211105 
L 393.865918 115.599647 
L 394.566393 116.134336 
L 395.267709 116.679933 
L 395.968184 117.235512 
L 396.668659 117.794397 
L 397.369975 118.359006 
L 398.070451 118.938629 
L 398.770926 119.411064 
L 399.472242 119.855102 
L 400.172717 120.294572 
L 400.873192 120.734809 
L 401.574508 121.175952 
L 402.274984 121.616954 
L 402.975459 122.057816 
L 403.676775 122.498536 
L 404.37725 122.935424 
L 405.077725 123.372174 
L 405.779041 123.810386 
L 406.479517 124.248454 
L 407.179992 124.520295 
L 407.881308 124.791895 
L 408.581783 125.063254 
L 409.282258 125.334382 
L 409.983574 125.60527 
L 410.68405 125.875935 
L 411.384525 126.146369 
L 412.085841 126.416579 
L 412.786316 126.686564 
L 413.486791 126.956333 
L 414.188107 127.225878 
L 414.188107 96.170271 
L 414.188107 96.170271 
L 413.486791 96.016501 
L 412.786316 95.862949 
L 412.085841 95.709618 
L 411.384525 95.556508 
L 410.68405 95.403626 
L 409.983574 95.25097 
L 409.282258 95.098543 
L 408.581783 94.94635 
L 407.881308 94.794394 
L 407.179992 94.642673 
L 406.479517 94.491198 
L 405.779041 94.143566 
L 405.077725 93.796072 
L 404.37725 93.449583 
L 403.676775 93.103226 
L 402.975459 92.752848 
L 402.274984 92.40261 
L 401.574508 92.052513 
L 400.873192 91.702557 
L 400.172717 91.35397 
L 399.472242 91.00676 
L 398.770926 90.655503 
L 398.070451 90.267409 
L 397.369975 89.767572 
L 396.668659 89.269409 
L 395.968184 88.777509 
L 395.267709 88.288633 
L 394.566393 87.814739 
L 393.865918 87.347223 
L 393.165442 87.019259 
L 392.464126 86.690316 
L 391.763651 86.364316 
L 391.063176 86.03695 
L 390.36186 85.700338 
L 389.661385 85.352647 
L 388.960909 84.995599 
L 388.259593 84.830944 
L 387.559118 84.674578 
L 386.858643 84.514589 
L 386.157327 84.363967 
L 385.456852 84.223025 
L 384.756376 84.092455 
L 384.05506 83.9724 
L 383.354585 83.858995 
L 382.65411 83.67096 
L 381.952794 83.483135 
L 381.252319 83.297007 
L 380.551843 83.116881 
L 379.850527 83.013901 
L 379.150052 82.9101 
L 378.449577 82.795951 
L 377.748261 82.678349 
L 377.047786 82.559262 
L 376.347311 82.435561 
L 375.645994 82.311017 
L 374.945519 82.175479 
L 374.245044 82.032075 
L 373.543728 81.881263 
L 372.843253 81.725907 
L 372.142778 81.570508 
L 371.441461 81.303498 
L 370.740986 81.03033 
L 370.040511 80.751494 
L 369.339195 80.474598 
L 368.63872 80.19782 
L 367.938245 79.920927 
L 367.236928 79.636555 
L 366.536453 79.345908 
L 365.835978 79.05117 
L 365.134662 78.755459 
L 364.434187 78.451814 
L 363.733712 78.126928 
L 363.032395 77.659033 
L 362.33192 77.188299 
L 361.631445 76.715905 
L 360.930129 76.241176 
L 360.229654 75.772965 
L 359.529179 75.309255 
L 358.827863 74.8452 
L 358.127387 74.380456 
L 357.426912 73.915683 
L 356.725596 73.445909 
L 356.025121 72.977569 
L 355.324646 72.518751 
L 354.62333 72.077843 
L 353.922854 71.637092 
L 353.222379 71.201281 
L 352.521063 70.770017 
L 351.820588 70.343677 
L 351.120113 69.920526 
L 350.418797 69.496824 
L 349.718321 69.069778 
L 349.017846 68.638148 
L 348.31653 68.200033 
L 347.616055 67.762846 
L 346.91558 67.329379 
L 346.214264 66.916544 
L 345.513788 66.506936 
L 344.813313 66.103435 
L 344.111997 65.707754 
L 343.411522 65.314195 
L 342.711047 64.926989 
L 342.009731 64.526624 
L 341.309255 64.130213 
L 340.60878 63.780752 
L 339.907464 63.431207 
L 339.206989 63.083009 
L 338.506514 62.739383 
L 337.805198 62.366225 
L 337.104722 61.990399 
L 336.404247 61.604984 
L 335.702931 61.214634 
L 335.002456 60.828167 
L 334.301981 60.448349 
L 333.600665 60.063274 
L 332.900189 59.672531 
L 332.199714 59.278198 
L 331.498398 58.874642 
L 330.797923 58.465004 
L 330.097448 58.053711 
L 329.396132 57.70765 
L 328.695656 57.360862 
L 327.995181 57.011879 
L 327.293865 56.663494 
L 326.59339 56.317274 
L 325.892915 56.02981 
L 325.191599 55.740902 
L 324.491124 55.449528 
L 323.790648 55.150643 
L 323.089332 54.844982 
L 322.388857 54.542551 
L 321.688382 54.248959 
L 320.987066 53.998419 
L 320.286591 53.751185 
L 319.586115 53.506146 
L 318.884799 53.268534 
L 318.184324 53.037449 
L 317.483849 52.813799 
L 316.782533 52.590348 
L 316.082058 52.367805 
L 315.381582 52.144768 
L 314.680266 51.918134 
L 313.979791 51.691122 
L 313.279316 51.465526 
L 312.578 51.21489 
L 311.877525 50.961923 
L 311.177049 50.73068 
L 310.475733 50.500186 
L 309.775258 50.273629 
L 309.074783 50.051494 
L 308.373467 49.827064 
L 307.672992 49.599214 
L 306.972516 49.366484 
L 306.2712 49.126384 
L 305.570725 48.879121 
L 304.87025 48.626427 
L 304.168934 48.377971 
L 303.468459 48.126192 
L 302.767983 47.870283 
L 302.066667 47.61263 
L 301.366192 47.359667 
L 300.665717 47.112178 
L 299.964401 46.864303 
L 299.263926 46.612796 
L 298.56345 46.359158 
L 297.862134 46.104522 
L 297.161659 45.858228 
L 296.461184 45.619248 
L 295.759868 45.404765 
L 295.059393 45.197237 
L 294.358917 44.996012 
L 293.657601 44.804838 
L 292.957126 44.624178 
L 292.256651 44.456294 
L 291.555335 44.296848 
L 290.85486 44.142322 
L 290.154385 43.9849 
L 289.453068 43.825228 
L 288.752593 43.666725 
L 288.052118 43.514649 
L 287.350802 43.394375 
L 286.650327 43.270739 
L 285.949852 43.152038 
L 285.248535 43.039404 
L 284.54806 42.939176 
L 283.847585 42.846632 
L 283.146269 42.752758 
L 282.445794 42.656073 
L 281.745319 42.554268 
L 281.044002 42.446986 
L 280.343527 42.333769 
L 279.643052 42.219699 
L 278.941736 42.103278 
L 278.241261 41.980932 
L 277.540786 41.853984 
L 276.839469 41.726784 
L 276.138994 41.600467 
L 275.438519 41.477141 
L 274.737203 41.351129 
L 274.036728 41.219682 
L 273.336253 41.08088 
L 272.634937 40.936629 
L 271.934461 40.792516 
L 271.233986 40.645226 
L 270.53267 40.488584 
L 269.832195 40.327033 
L 269.13172 40.164586 
L 268.430404 40.02236 
L 267.729928 39.884536 
L 267.029453 39.766026 
L 266.328137 39.647883 
L 265.627662 39.52672 
L 264.927187 39.396519 
L 264.225871 39.263382 
L 263.525395 39.137812 
L 262.82492 39.020307 
L 262.123604 38.959661 
L 261.423129 38.899121 
L 260.722654 38.838683 
L 260.021338 38.778351 
L 259.320862 38.718128 
L 258.620387 38.660668 
L 257.919071 38.603322 
L 257.218596 38.570252 
L 256.518121 38.537298 
L 255.816805 38.504468 
L 255.116329 38.471758 
L 254.415854 38.439175 
L 253.714538 38.394953 
L 253.014063 38.350869 
L 252.313588 38.306916 
L 251.612272 38.263099 
L 250.911796 38.219419 
L 250.211321 38.17588 
L 249.510005 38.132482 
L 248.80953 38.089227 
L 248.109055 38.046113 
L 247.407739 38.003149 
L 246.707263 37.960331 
L 246.006788 37.917665 
L 245.305472 37.892637 
L 244.604997 37.867763 
L 243.904522 37.843043 
L 243.203206 37.818471 
L 242.50273 37.794061 
L 241.802255 37.769812 
L 241.100939 37.745725 
L 240.400464 37.721795 
L 239.699989 37.698039 
L 238.998673 37.674446 
L 238.298198 37.651027 
L 237.597722 37.62778 
L 236.896406 37.614598 
L 236.195931 37.601618 
L 235.495456 37.588834 
L 234.79414 37.576255 
L 234.093665 37.563881 
L 233.393189 37.551725 
L 232.691873 37.539776 
L 231.991398 37.528044 
L 231.290923 37.516535 
L 230.589607 37.505255 
L 229.889132 37.4942 
L 229.188656 37.483377 
L 228.48734 37.491097 
L 227.786865 37.499045 
L 227.08639 37.507227 
L 226.385074 37.51565 
L 225.684599 37.524317 
L 224.984123 37.533226 
L 224.282807 37.542393 
L 223.582332 37.551816 
L 222.881857 37.561496 
L 222.180541 37.571446 
L 221.480066 37.581668 
L 220.77959 37.592166 
L 220.078274 37.615594 
L 219.377799 37.639304 
L 218.677324 37.663301 
L 217.976008 37.687585 
L 217.275533 37.712174 
L 216.575057 37.737059 
L 215.873741 37.762257 
L 215.173266 37.787778 
L 214.472791 37.813618 
L 213.771475 37.83979 
L 213.071 37.866301 
L 212.370524 37.893161 
L 211.669208 37.848705 
L 210.968733 37.80463 
L 210.268258 37.760941 
L 209.566942 37.717654 
L 208.866467 37.674775 
L 208.165991 37.632311 
L 207.464675 37.51553 
L 206.7642 37.399195 
L 206.063725 37.283316 
L 205.362409 37.167907 
L 204.661934 37.052984 
L 203.961458 36.938557 
L 203.260142 36.816152 
L 202.559667 36.694259 
L 201.859192 36.572898 
L 201.157876 36.452084 
L 200.457401 36.331833 
L 199.756926 36.212168 
L 199.055609 36.093104 
L 198.355134 35.90991 
L 197.654659 35.727366 
L 196.953343 35.545494 
L 196.252868 35.364324 
L 195.552393 35.183873 
L 194.851076 35.024057 
L 194.150601 34.865004 
L 193.450126 34.706735 
L 192.74881 34.54929 
L 192.048335 34.392707 
L 191.34786 34.237015 
L 190.646543 34.082263 
L 189.946068 33.928484 
L 189.245593 33.775738 
L 188.544277 33.624063 
L 187.843802 33.473523 
L 187.143327 33.32417 
L 186.44201 33.20042 
L 185.741535 33.078079 
L 185.04106 32.957239 
L 184.339744 32.837993 
L 183.639269 32.72045 
L 182.938794 32.604725 
L 182.237478 32.490956 
L 181.537002 32.379287 
L 180.836527 32.269894 
L 180.135211 32.162969 
L 179.434736 32.058738 
L 178.734261 31.95746 
L 178.032945 31.916966 
L 177.332469 31.879878 
L 176.631994 31.846591 
L 175.930678 31.817588 
L 175.230203 31.793448 
L 174.529728 31.774911 
L 173.828412 31.762921 
L 173.127936 31.637497 
L 172.427461 31.534315 
L 171.726145 31.915785 
L 171.02567 32.390488 
z
" clip-path="url(#pddd2e86820)" style="fill: #02818a; fill-opacity: 0.25"/>
   </g>
   <g id="matplotlib.axis_1">
    <g id="xtick_1">
     <g id="line2d_1">
      <defs>
       <path id="ma9c4198d15" d="M 0 0 
L 0 3.5 
" style="stroke: #000000; stroke-width: 0.8"/>
      </defs>
      <g>
       <use xlink:href="#ma9c4198d15" x="70.116878" y="186.84327" style="stroke: #000000; stroke-width: 0.8"/>
      </g>
     </g>
     <g id="text_1">
      <!-- 1980 -->
      <g transform="translate(57.391878 201.441708) scale(0.1 -0.1)">
       <defs>
        <path id="DejaVuSans-31" d="M 794 531 
L 1825 531 
L 1825 4091 
L 703 3866 
L 703 4441 
L 1819 4666 
L 2450 4666 
L 2450 531 
L 3481 531 
L 3481 0 
L 794 0 
L 794 531 
z
" transform="scale(0.015625)"/>
        <path id="DejaVuSans-39" d="M 703 97 
L 703 672 
Q 941 559 1184 500 
Q 1428 441 1663 441 
Q 2288 441 2617 861 
Q 2947 1281 2994 2138 
Q 2813 1869 2534 1725 
Q 2256 1581 1919 1581 
Q 1219 1581 811 2004 
Q 403 2428 403 3163 
Q 403 3881 828 4315 
Q 1253 4750 1959 4750 
Q 2769 4750 3195 4129 
Q 3622 3509 3622 2328 
Q 3622 1225 3098 567 
Q 2575 -91 1691 -91 
Q 1453 -91 1209 -44 
Q 966 3 703 97 
z
M 1959 2075 
Q 2384 2075 2632 2365 
Q 2881 2656 2881 3163 
Q 2881 3666 2632 3958 
Q 2384 4250 1959 4250 
Q 1534 4250 1286 3958 
Q 1038 3666 1038 3163 
Q 1038 2656 1286 2365 
Q 1534 2075 1959 2075 
z
" transform="scale(0.015625)"/>
        <path id="DejaVuSans-38" d="M 2034 2216 
Q 1584 2216 1326 1975 
Q 1069 1734 1069 1313 
Q 1069 891 1326 650 
Q 1584 409 2034 409 
Q 2484 409 2743 651 
Q 3003 894 3003 1313 
Q 3003 1734 2745 1975 
Q 2488 2216 2034 2216 
z
M 1403 2484 
Q 997 2584 770 2862 
Q 544 3141 544 3541 
Q 544 4100 942 4425 
Q 1341 4750 2034 4750 
Q 2731 4750 3128 4425 
Q 3525 4100 3525 3541 
Q 3525 3141 3298 2862 
Q 3072 2584 2669 2484 
Q 3125 2378 3379 2068 
Q 3634 1759 3634 1313 
Q 3634 634 3220 271 
Q 2806 -91 2034 -91 
Q 1263 -91 848 271 
Q 434 634 434 1313 
Q 434 1759 690 2068 
Q 947 2378 1403 2484 
z
M 1172 3481 
Q 1172 3119 1398 2916 
Q 1625 2713 2034 2713 
Q 2441 2713 2670 2916 
Q 2900 3119 2900 3481 
Q 2900 3844 2670 4047 
Q 2441 4250 2034 4250 
Q 1625 4250 1398 4047 
Q 1172 3844 1172 3481 
z
" transform="scale(0.015625)"/>
        <path id="DejaVuSans-30" d="M 2034 4250 
Q 1547 4250 1301 3770 
Q 1056 3291 1056 2328 
Q 1056 1369 1301 889 
Q 1547 409 2034 409 
Q 2525 409 2770 889 
Q 3016 1369 3016 2328 
Q 3016 3291 2770 3770 
Q 2525 4250 2034 4250 
z
M 2034 4750 
Q 2819 4750 3233 4129 
Q 3647 3509 3647 2328 
Q 3647 1150 3233 529 
Q 2819 -91 2034 -91 
Q 1250 -91 836 529 
Q 422 1150 422 2328 
Q 422 3509 836 4129 
Q 1250 4750 2034 4750 
z
" transform="scale(0.015625)"/>
       </defs>
       <use xlink:href="#DejaVuSans-31"/>
       <use xlink:href="#DejaVuSans-39" x="63.623047"/>
       <use xlink:href="#DejaVuSans-38" x="127.246094"/>
       <use xlink:href="#DejaVuSans-30" x="190.869141"/>
      </g>
     </g>
    </g>
    <g id="xtick_2">
     <g id="line2d_2">
      <g>
       <use xlink:href="#ma9c4198d15" x="112.162208" y="186.84327" style="stroke: #000000; stroke-width: 0.8"/>
      </g>
     </g>
     <g id="text_2">
      <!-- 1985 -->
      <g transform="translate(99.437208 201.441708) scale(0.1 -0.1)">
       <defs>
        <path id="DejaVuSans-35" d="M 691 4666 
L 3169 4666 
L 3169 4134 
L 1269 4134 
L 1269 2991 
Q 1406 3038 1543 3061 
Q 1681 3084 1819 3084 
Q 2600 3084 3056 2656 
Q 3513 2228 3513 1497 
Q 3513 744 3044 326 
Q 2575 -91 1722 -91 
Q 1428 -91 1123 -41 
Q 819 9 494 109 
L 494 744 
Q 775 591 1075 516 
Q 1375 441 1709 441 
Q 2250 441 2565 725 
Q 2881 1009 2881 1497 
Q 2881 1984 2565 2268 
Q 2250 2553 1709 2553 
Q 1456 2553 1204 2497 
Q 953 2441 691 2322 
L 691 4666 
z
" transform="scale(0.015625)"/>
       </defs>
       <use xlink:href="#DejaVuSans-31"/>
       <use xlink:href="#DejaVuSans-39" x="63.623047"/>
       <use xlink:href="#DejaVuSans-38" x="127.246094"/>
       <use xlink:href="#DejaVuSans-35" x="190.869141"/>
      </g>
     </g>
    </g>
    <g id="xtick_3">
     <g id="line2d_3">
      <g>
       <use xlink:href="#ma9c4198d15" x="154.207538" y="186.84327" style="stroke: #000000; stroke-width: 0.8"/>
      </g>
     </g>
     <g id="text_3">
      <!-- 1990 -->
      <g transform="translate(141.482538 201.441708) scale(0.1 -0.1)">
       <use xlink:href="#DejaVuSans-31"/>
       <use xlink:href="#DejaVuSans-39" x="63.623047"/>
       <use xlink:href="#DejaVuSans-39" x="127.246094"/>
       <use xlink:href="#DejaVuSans-30" x="190.869141"/>
      </g>
     </g>
    </g>
    <g id="xtick_4">
     <g id="line2d_4">
      <g>
       <use xlink:href="#ma9c4198d15" x="196.252868" y="186.84327" style="stroke: #000000; stroke-width: 0.8"/>
      </g>
     </g>
     <g id="text_4">
      <!-- 1995 -->
      <g transform="translate(183.527868 201.441708) scale(0.1 -0.1)">
       <use xlink:href="#DejaVuSans-31"/>
       <use xlink:href="#DejaVuSans-39" x="63.623047"/>
       <use xlink:href="#DejaVuSans-39" x="127.246094"/>
       <use xlink:href="#DejaVuSans-35" x="190.869141"/>
      </g>
     </g>
    </g>
    <g id="xtick_5">
     <g id="line2d_5">
      <g>
       <use xlink:href="#ma9c4198d15" x="238.298198" y="186.84327" style="stroke: #000000; stroke-width: 0.8"/>
      </g>
     </g>
     <g id="text_5">
      <!-- 2000 -->
      <g transform="translate(225.573198 201.441708) scale(0.1 -0.1)">
       <defs>
        <path id="DejaVuSans-32" d="M 1228 531 
L 3431 531 
L 3431 0 
L 469 0 
L 469 531 
Q 828 903 1448 1529 
Q 2069 2156 2228 2338 
Q 2531 2678 2651 2914 
Q 2772 3150 2772 3378 
Q 2772 3750 2511 3984 
Q 2250 4219 1831 4219 
Q 1534 4219 1204 4116 
Q 875 4013 500 3803 
L 500 4441 
Q 881 4594 1212 4672 
Q 1544 4750 1819 4750 
Q 2544 4750 2975 4387 
Q 3406 4025 3406 3419 
Q 3406 3131 3298 2873 
Q 3191 2616 2906 2266 
Q 2828 2175 2409 1742 
Q 1991 1309 1228 531 
z
" transform="scale(0.015625)"/>
       </defs>
       <use xlink:href="#DejaVuSans-32"/>
       <use xlink:href="#DejaVuSans-30" x="63.623047"/>
       <use xlink:href="#DejaVuSans-30" x="127.246094"/>
       <use xlink:href="#DejaVuSans-30" x="190.869141"/>
      </g>
     </g>
    </g>
    <g id="xtick_6">
     <g id="line2d_6">
      <g>
       <use xlink:href="#ma9c4198d15" x="280.343527" y="186.84327" style="stroke: #000000; stroke-width: 0.8"/>
      </g>
     </g>
     <g id="text_6">
      <!-- 2005 -->
      <g transform="translate(267.618527 201.441708) scale(0.1 -0.1)">
       <use xlink:href="#DejaVuSans-32"/>
       <use xlink:href="#DejaVuSans-30" x="63.623047"/>
       <use xlink:href="#DejaVuSans-30" x="127.246094"/>
       <use xlink:href="#DejaVuSans-35" x="190.869141"/>
      </g>
     </g>
    </g>
    <g id="xtick_7">
     <g id="line2d_7">
      <g>
       <use xlink:href="#ma9c4198d15" x="322.388857" y="186.84327" style="stroke: #000000; stroke-width: 0.8"/>
      </g>
     </g>
     <g id="text_7">
      <!-- 2010 -->
      <g transform="translate(309.663857 201.441708) scale(0.1 -0.1)">
       <use xlink:href="#DejaVuSans-32"/>
       <use xlink:href="#DejaVuSans-30" x="63.623047"/>
       <use xlink:href="#DejaVuSans-31" x="127.246094"/>
       <use xlink:href="#DejaVuSans-30" x="190.869141"/>
      </g>
     </g>
    </g>
    <g id="xtick_8">
     <g id="line2d_8">
      <g>
       <use xlink:href="#ma9c4198d15" x="364.434187" y="186.84327" style="stroke: #000000; stroke-width: 0.8"/>
      </g>
     </g>
     <g id="text_8">
      <!-- 2015 -->
      <g transform="translate(351.709187 201.441708) scale(0.1 -0.1)">
       <use xlink:href="#DejaVuSans-32"/>
       <use xlink:href="#DejaVuSans-30" x="63.623047"/>
       <use xlink:href="#DejaVuSans-31" x="127.246094"/>
       <use xlink:href="#DejaVuSans-35" x="190.869141"/>
      </g>
     </g>
    </g>
    <g id="xtick_9">
     <g id="line2d_9">
      <g>
       <use xlink:href="#ma9c4198d15" x="406.479517" y="186.84327" style="stroke: #000000; stroke-width: 0.8"/>
      </g>
     </g>
     <g id="text_9">
      <!-- 2020 -->
      <g transform="translate(393.754517 201.441708) scale(0.1 -0.1)">
       <use xlink:href="#DejaVuSans-32"/>
       <use xlink:href="#DejaVuSans-30" x="63.623047"/>
       <use xlink:href="#DejaVuSans-32" x="127.246094"/>
       <use xlink:href="#DejaVuSans-30" x="190.869141"/>
      </g>
     </g>
    </g>
    <g id="text_10">
     <!-- Year -->
     <g transform="translate(227.710698 215.119833) scale(0.1 -0.1)">
      <defs>
       <path id="DejaVuSans-59" d="M -13 4666 
L 666 4666 
L 1959 2747 
L 3244 4666 
L 3922 4666 
L 2272 2222 
L 2272 0 
L 1638 0 
L 1638 2222 
L -13 4666 
z
" transform="scale(0.015625)"/>
       <path id="DejaVuSans-65" d="M 3597 1894 
L 3597 1613 
L 953 1613 
Q 991 1019 1311 708 
Q 1631 397 2203 397 
Q 2534 397 2845 478 
Q 3156 559 3463 722 
L 3463 178 
Q 3153 47 2828 -22 
Q 2503 -91 2169 -91 
Q 1331 -91 842 396 
Q 353 884 353 1716 
Q 353 2575 817 3079 
Q 1281 3584 2069 3584 
Q 2775 3584 3186 3129 
Q 3597 2675 3597 1894 
z
M 3022 2063 
Q 3016 2534 2758 2815 
Q 2500 3097 2075 3097 
Q 1594 3097 1305 2825 
Q 1016 2553 972 2059 
L 3022 2063 
z
" transform="scale(0.015625)"/>
       <path id="DejaVuSans-61" d="M 2194 1759 
Q 1497 1759 1228 1600 
Q 959 1441 959 1056 
Q 959 750 1161 570 
Q 1363 391 1709 391 
Q 2188 391 2477 730 
Q 2766 1069 2766 1631 
L 2766 1759 
L 2194 1759 
z
M 3341 1997 
L 3341 0 
L 2766 0 
L 2766 531 
Q 2569 213 2275 61 
Q 1981 -91 1556 -91 
Q 1019 -91 701 211 
Q 384 513 384 1019 
Q 384 1609 779 1909 
Q 1175 2209 1959 2209 
L 2766 2209 
L 2766 2266 
Q 2766 2663 2505 2880 
Q 2244 3097 1772 3097 
Q 1472 3097 1187 3025 
Q 903 2953 641 2809 
L 641 3341 
Q 956 3463 1253 3523 
Q 1550 3584 1831 3584 
Q 2591 3584 2966 3190 
Q 3341 2797 3341 1997 
z
" transform="scale(0.015625)"/>
       <path id="DejaVuSans-72" d="M 2631 2963 
Q 2534 3019 2420 3045 
Q 2306 3072 2169 3072 
Q 1681 3072 1420 2755 
Q 1159 2438 1159 1844 
L 1159 0 
L 581 0 
L 581 3500 
L 1159 3500 
L 1159 2956 
Q 1341 3275 1631 3429 
Q 1922 3584 2338 3584 
Q 2397 3584 2469 3576 
Q 2541 3569 2628 3553 
L 2631 2963 
z
" transform="scale(0.015625)"/>
      </defs>
      <use xlink:href="#DejaVuSans-59"/>
      <use xlink:href="#DejaVuSans-65" x="47.833984"/>
      <use xlink:href="#DejaVuSans-61" x="109.357422"/>
      <use xlink:href="#DejaVuSans-72" x="170.636719"/>
     </g>
    </g>
   </g>
   <g id="matplotlib.axis_2">
    <g id="ytick_1">
     <g id="line2d_10">
      <defs>
       <path id="m87806c09b1" d="M 0 0 
L -3.5 0 
" style="stroke: #000000; stroke-width: 0.8"/>
      </defs>
      <g>
       <use xlink:href="#m87806c09b1" x="61.707813" y="186.84327" style="stroke: #000000; stroke-width: 0.8"/>
      </g>
     </g>
     <g id="text_11">
      <!-- 5000 -->
      <g transform="translate(20.878125 190.642489) scale(0.1 -0.1)">
       <defs>
        <path id="DejaVuSans-2212" d="M 678 2272 
L 4684 2272 
L 4684 1741 
L 678 1741 
L 678 2272 
z
" transform="scale(0.015625)"/>
       </defs>
       <use xlink:href="#DejaVuSans-2212"/>
       <use xlink:href="#DejaVuSans-35" x="83.789062"/>
       <use xlink:href="#DejaVuSans-30" x="147.412109"/>
       <use xlink:href="#DejaVuSans-30" x="211.035156"/>
       <use xlink:href="#DejaVuSans-30" x="274.658203"/>
      </g>
     </g>
    </g>
    <g id="ytick_2">
     <g id="line2d_11">
      <g>
       <use xlink:href="#m87806c09b1" x="61.707813" y="157.535928" style="stroke: #000000; stroke-width: 0.8"/>
      </g>
     </g>
     <g id="text_12">
      <!-- 4000 -->
      <g transform="translate(20.878125 161.335147) scale(0.1 -0.1)">
       <defs>
        <path id="DejaVuSans-34" d="M 2419 4116 
L 825 1625 
L 2419 1625 
L 2419 4116 
z
M 2253 4666 
L 3047 4666 
L 3047 1625 
L 3713 1625 
L 3713 1100 
L 3047 1100 
L 3047 0 
L 2419 0 
L 2419 1100 
L 313 1100 
L 313 1709 
L 2253 4666 
z
" transform="scale(0.015625)"/>
       </defs>
       <use xlink:href="#DejaVuSans-2212"/>
       <use xlink:href="#DejaVuSans-34" x="83.789062"/>
       <use xlink:href="#DejaVuSans-30" x="147.412109"/>
       <use xlink:href="#DejaVuSans-30" x="211.035156"/>
       <use xlink:href="#DejaVuSans-30" x="274.658203"/>
      </g>
     </g>
    </g>
    <g id="ytick_3">
     <g id="line2d_12">
      <g>
       <use xlink:href="#m87806c09b1" x="61.707813" y="128.228586" style="stroke: #000000; stroke-width: 0.8"/>
      </g>
     </g>
     <g id="text_13">
      <!-- 3000 -->
      <g transform="translate(20.878125 132.027805) scale(0.1 -0.1)">
       <defs>
        <path id="DejaVuSans-33" d="M 2597 2516 
Q 3050 2419 3304 2112 
Q 3559 1806 3559 1356 
Q 3559 666 3084 287 
Q 2609 -91 1734 -91 
Q 1441 -91 1130 -33 
Q 819 25 488 141 
L 488 750 
Q 750 597 1062 519 
Q 1375 441 1716 441 
Q 2309 441 2620 675 
Q 2931 909 2931 1356 
Q 2931 1769 2642 2001 
Q 2353 2234 1838 2234 
L 1294 2234 
L 1294 2753 
L 1863 2753 
Q 2328 2753 2575 2939 
Q 2822 3125 2822 3475 
Q 2822 3834 2567 4026 
Q 2313 4219 1838 4219 
Q 1578 4219 1281 4162 
Q 984 4106 628 3988 
L 628 4550 
Q 988 4650 1302 4700 
Q 1616 4750 1894 4750 
Q 2613 4750 3031 4423 
Q 3450 4097 3450 3541 
Q 3450 3153 3228 2886 
Q 3006 2619 2597 2516 
z
" transform="scale(0.015625)"/>
       </defs>
       <use xlink:href="#DejaVuSans-2212"/>
       <use xlink:href="#DejaVuSans-33" x="83.789062"/>
       <use xlink:href="#DejaVuSans-30" x="147.412109"/>
       <use xlink:href="#DejaVuSans-30" x="211.035156"/>
       <use xlink:href="#DejaVuSans-30" x="274.658203"/>
      </g>
     </g>
    </g>
    <g id="ytick_4">
     <g id="line2d_13">
      <g>
       <use xlink:href="#m87806c09b1" x="61.707813" y="98.921244" style="stroke: #000000; stroke-width: 0.8"/>
      </g>
     </g>
     <g id="text_14">
      <!-- 2000 -->
      <g transform="translate(20.878125 102.720463) scale(0.1 -0.1)">
       <use xlink:href="#DejaVuSans-2212"/>
       <use xlink:href="#DejaVuSans-32" x="83.789062"/>
       <use xlink:href="#DejaVuSans-30" x="147.412109"/>
       <use xlink:href="#DejaVuSans-30" x="211.035156"/>
       <use xlink:href="#DejaVuSans-30" x="274.658203"/>
      </g>
     </g>
    </g>
    <g id="ytick_5">
     <g id="line2d_14">
      <g>
       <use xlink:href="#m87806c09b1" x="61.707813" y="69.613903" style="stroke: #000000; stroke-width: 0.8"/>
      </g>
     </g>
     <g id="text_15">
      <!-- 1000 -->
      <g transform="translate(20.878125 73.413121) scale(0.1 -0.1)">
       <use xlink:href="#DejaVuSans-2212"/>
       <use xlink:href="#DejaVuSans-31" x="83.789062"/>
       <use xlink:href="#DejaVuSans-30" x="147.412109"/>
       <use xlink:href="#DejaVuSans-30" x="211.035156"/>
       <use xlink:href="#DejaVuSans-30" x="274.658203"/>
      </g>
     </g>
    </g>
    <g id="ytick_6">
     <g id="line2d_15">
      <g>
       <use xlink:href="#m87806c09b1" x="61.707813" y="40.306561" style="stroke: #000000; stroke-width: 0.8"/>
      </g>
     </g>
     <g id="text_16">
      <!-- 0 -->
      <g transform="translate(48.345313 44.105779) scale(0.1 -0.1)">
       <use xlink:href="#DejaVuSans-30"/>
      </g>
     </g>
    </g>
    <g id="ytick_7">
     <g id="line2d_16">
      <g>
       <use xlink:href="#m87806c09b1" x="61.707813" y="10.999219" style="stroke: #000000; stroke-width: 0.8"/>
      </g>
     </g>
     <g id="text_17">
      <!-- 1000 -->
      <g transform="translate(29.257812 14.798437) scale(0.1 -0.1)">
       <use xlink:href="#DejaVuSans-31"/>
       <use xlink:href="#DejaVuSans-30" x="63.623047"/>
       <use xlink:href="#DejaVuSans-30" x="127.246094"/>
       <use xlink:href="#DejaVuSans-30" x="190.869141"/>
      </g>
     </g>
    </g>
    <g id="text_18">
     <!-- Mass change [Gt] -->
     <g transform="translate(14.798438 142.824369) rotate(-90) scale(0.1 -0.1)">
      <defs>
       <path id="DejaVuSans-4d" d="M 628 4666 
L 1569 4666 
L 2759 1491 
L 3956 4666 
L 4897 4666 
L 4897 0 
L 4281 0 
L 4281 4097 
L 3078 897 
L 2444 897 
L 1241 4097 
L 1241 0 
L 628 0 
L 628 4666 
z
" transform="scale(0.015625)"/>
       <path id="DejaVuSans-73" d="M 2834 3397 
L 2834 2853 
Q 2591 2978 2328 3040 
Q 2066 3103 1784 3103 
Q 1356 3103 1142 2972 
Q 928 2841 928 2578 
Q 928 2378 1081 2264 
Q 1234 2150 1697 2047 
L 1894 2003 
Q 2506 1872 2764 1633 
Q 3022 1394 3022 966 
Q 3022 478 2636 193 
Q 2250 -91 1575 -91 
Q 1294 -91 989 -36 
Q 684 19 347 128 
L 347 722 
Q 666 556 975 473 
Q 1284 391 1588 391 
Q 1994 391 2212 530 
Q 2431 669 2431 922 
Q 2431 1156 2273 1281 
Q 2116 1406 1581 1522 
L 1381 1569 
Q 847 1681 609 1914 
Q 372 2147 372 2553 
Q 372 3047 722 3315 
Q 1072 3584 1716 3584 
Q 2034 3584 2315 3537 
Q 2597 3491 2834 3397 
z
" transform="scale(0.015625)"/>
       <path id="DejaVuSans-20" transform="scale(0.015625)"/>
       <path id="DejaVuSans-63" d="M 3122 3366 
L 3122 2828 
Q 2878 2963 2633 3030 
Q 2388 3097 2138 3097 
Q 1578 3097 1268 2742 
Q 959 2388 959 1747 
Q 959 1106 1268 751 
Q 1578 397 2138 397 
Q 2388 397 2633 464 
Q 2878 531 3122 666 
L 3122 134 
Q 2881 22 2623 -34 
Q 2366 -91 2075 -91 
Q 1284 -91 818 406 
Q 353 903 353 1747 
Q 353 2603 823 3093 
Q 1294 3584 2113 3584 
Q 2378 3584 2631 3529 
Q 2884 3475 3122 3366 
z
" transform="scale(0.015625)"/>
       <path id="DejaVuSans-68" d="M 3513 2113 
L 3513 0 
L 2938 0 
L 2938 2094 
Q 2938 2591 2744 2837 
Q 2550 3084 2163 3084 
Q 1697 3084 1428 2787 
Q 1159 2491 1159 1978 
L 1159 0 
L 581 0 
L 581 4863 
L 1159 4863 
L 1159 2956 
Q 1366 3272 1645 3428 
Q 1925 3584 2291 3584 
Q 2894 3584 3203 3211 
Q 3513 2838 3513 2113 
z
" transform="scale(0.015625)"/>
       <path id="DejaVuSans-6e" d="M 3513 2113 
L 3513 0 
L 2938 0 
L 2938 2094 
Q 2938 2591 2744 2837 
Q 2550 3084 2163 3084 
Q 1697 3084 1428 2787 
Q 1159 2491 1159 1978 
L 1159 0 
L 581 0 
L 581 3500 
L 1159 3500 
L 1159 2956 
Q 1366 3272 1645 3428 
Q 1925 3584 2291 3584 
Q 2894 3584 3203 3211 
Q 3513 2838 3513 2113 
z
" transform="scale(0.015625)"/>
       <path id="DejaVuSans-67" d="M 2906 1791 
Q 2906 2416 2648 2759 
Q 2391 3103 1925 3103 
Q 1463 3103 1205 2759 
Q 947 2416 947 1791 
Q 947 1169 1205 825 
Q 1463 481 1925 481 
Q 2391 481 2648 825 
Q 2906 1169 2906 1791 
z
M 3481 434 
Q 3481 -459 3084 -895 
Q 2688 -1331 1869 -1331 
Q 1566 -1331 1297 -1286 
Q 1028 -1241 775 -1147 
L 775 -588 
Q 1028 -725 1275 -790 
Q 1522 -856 1778 -856 
Q 2344 -856 2625 -561 
Q 2906 -266 2906 331 
L 2906 616 
Q 2728 306 2450 153 
Q 2172 0 1784 0 
Q 1141 0 747 490 
Q 353 981 353 1791 
Q 353 2603 747 3093 
Q 1141 3584 1784 3584 
Q 2172 3584 2450 3431 
Q 2728 3278 2906 2969 
L 2906 3500 
L 3481 3500 
L 3481 434 
z
" transform="scale(0.015625)"/>
       <path id="DejaVuSans-5b" d="M 550 4863 
L 1875 4863 
L 1875 4416 
L 1125 4416 
L 1125 -397 
L 1875 -397 
L 1875 -844 
L 550 -844 
L 550 4863 
z
" transform="scale(0.015625)"/>
       <path id="DejaVuSans-47" d="M 3809 666 
L 3809 1919 
L 2778 1919 
L 2778 2438 
L 4434 2438 
L 4434 434 
Q 4069 175 3628 42 
Q 3188 -91 2688 -91 
Q 1594 -91 976 548 
Q 359 1188 359 2328 
Q 359 3472 976 4111 
Q 1594 4750 2688 4750 
Q 3144 4750 3555 4637 
Q 3966 4525 4313 4306 
L 4313 3634 
Q 3963 3931 3569 4081 
Q 3175 4231 2741 4231 
Q 1884 4231 1454 3753 
Q 1025 3275 1025 2328 
Q 1025 1384 1454 906 
Q 1884 428 2741 428 
Q 3075 428 3337 486 
Q 3600 544 3809 666 
z
" transform="scale(0.015625)"/>
       <path id="DejaVuSans-74" d="M 1172 4494 
L 1172 3500 
L 2356 3500 
L 2356 3053 
L 1172 3053 
L 1172 1153 
Q 1172 725 1289 603 
Q 1406 481 1766 481 
L 2356 481 
L 2356 0 
L 1766 0 
Q 1100 0 847 248 
Q 594 497 594 1153 
L 594 3053 
L 172 3053 
L 172 3500 
L 594 3500 
L 594 4494 
L 1172 4494 
z
" transform="scale(0.015625)"/>
       <path id="DejaVuSans-5d" d="M 1947 4863 
L 1947 -844 
L 622 -844 
L 622 -397 
L 1369 -397 
L 1369 4416 
L 622 4416 
L 622 4863 
L 1947 4863 
z
" transform="scale(0.015625)"/>
      </defs>
      <use xlink:href="#DejaVuSans-4d"/>
      <use xlink:href="#DejaVuSans-61" x="86.279297"/>
      <use xlink:href="#DejaVuSans-73" x="147.558594"/>
      <use xlink:href="#DejaVuSans-73" x="199.658203"/>
      <use xlink:href="#DejaVuSans-20" x="251.757812"/>
      <use xlink:href="#DejaVuSans-63" x="283.544922"/>
      <use xlink:href="#DejaVuSans-68" x="338.525391"/>
      <use xlink:href="#DejaVuSans-61" x="401.904297"/>
      <use xlink:href="#DejaVuSans-6e" x="463.183594"/>
      <use xlink:href="#DejaVuSans-67" x="526.5625"/>
      <use xlink:href="#DejaVuSans-65" x="590.039062"/>
      <use xlink:href="#DejaVuSans-20" x="651.5625"/>
      <use xlink:href="#DejaVuSans-5b" x="683.349609"/>
      <use xlink:href="#DejaVuSans-47" x="722.363281"/>
      <use xlink:href="#DejaVuSans-74" x="799.853516"/>
      <use xlink:href="#DejaVuSans-5d" x="839.0625"/>
     </g>
    </g>
   </g>
   <g id="line2d_17">
    <path d="M 61.707813 40.014948 
L 77.124433 33.709986 
L 79.927455 32.695581 
L 82.029722 31.691785 
L 84.131988 30.663802 
L 86.93501 29.636589 
L 93.24181 27.518368 
L 103.052387 26.227877 
L 105.154653 26.115735 
L 107.25692 25.746091 
L 110.760697 24.934637 
L 118.469008 23.573692 
L 120.571274 23.590064 
L 124.775807 23.914343 
L 126.177318 24.160003 
L 128.279585 24.843835 
L 132.484118 26.455714 
L 135.28714 27.479376 
L 140.192428 29.581955 
L 143.696206 30.562424 
L 147.900739 31.649181 
L 152.806027 32.630645 
L 155.609049 33.247531 
L 157.711315 33.421448 
L 160.514337 33.573863 
L 164.71887 34.041545 
L 166.821137 33.936212 
L 171.02567 33.357868 
L 173.127936 32.872659 
L 178.033225 31.449263 
L 182.938513 30.595487 
L 184.340024 30.442244 
L 185.741535 30.484822 
L 187.843802 30.860631 
L 194.150601 32.428769 
L 197.654379 33.480274 
L 199.756645 33.827337 
L 203.260423 34.283903 
L 206.7642 34.753616 
L 210.267978 35.143784 
L 216.574777 36.526986 
L 219.377799 36.95298 
L 224.283088 37.943906 
L 228.487621 38.56766 
L 231.290643 39.064524 
L 234.093665 39.279237 
L 236.195931 39.555083 
L 239.699708 40.255315 
L 241.801975 40.425622 
L 245.305752 40.42684 
L 247.408019 40.269355 
L 249.510285 39.901923 
L 254.415574 38.786386 
L 257.919351 38.005852 
L 260.021618 37.455512 
L 261.423129 37.259354 
L 264.226151 37.19653 
L 269.131439 37.261051 
L 274.036728 37.737227 
L 276.138994 37.581846 
L 281.745038 36.773085 
L 284.54806 35.955383 
L 286.650327 35.465178 
L 290.154104 35.100764 
L 293.657882 34.816313 
L 295.059393 34.915938 
L 297.161659 35.353921 
L 302.066948 36.631756 
L 306.271481 37.595763 
L 307.672992 37.706551 
L 309.775258 37.585315 
L 312.57828 37.365723 
L 318.184324 37.113158 
L 320.286591 37.063712 
L 322.388857 37.246966 
L 325.191879 37.560467 
L 328.695656 37.87147 
L 332.199434 38.261161 
L 334.3017 38.167445 
L 337.104722 38.007841 
L 339.206989 38.105895 
L 344.813033 38.728615 
L 346.915299 39.291354 
L 355.324365 42.132606 
L 358.127387 43.18859 
L 365.835698 45.339436 
L 367.237209 45.49212 
L 369.339475 45.43445 
L 373.544008 45.161317 
L 375.646275 44.732052 
L 379.150052 43.851458 
L 381.953074 43.502589 
L 386.157607 43.163919 
L 387.559118 43.246273 
L 389.661385 43.628506 
L 392.464407 44.14315 
L 395.968184 44.586015 
L 398.771206 45.048193 
L 400.873473 45.090389 
L 405.778761 44.610407 
L 408.581783 44.210807 
L 411.384805 43.51195 
L 423.297648 40.414166 
L 423.297648 40.414166 
" clip-path="url(#pddd2e86820)" style="fill: none; stroke: #d0d1e6; stroke-width: 1.5; stroke-linecap: square"/>
   </g>
   <g id="line2d_18">
    <path d="M 171.02567 33.357868 
L 172.427461 33.504974 
L 174.529728 34.920953 
L 177.332469 36.286702 
L 180.836527 37.796737 
L 184.339744 39.278495 
L 185.741535 39.627574 
L 187.843802 39.861456 
L 194.150601 40.255621 
L 196.953343 40.295278 
L 199.055609 40.574529 
L 208.866467 41.686869 
L 210.968733 41.588082 
L 213.071 41.214761 
L 215.173266 40.81152 
L 220.77959 40.032059 
L 224.282807 39.509212 
L 228.48734 39.075796 
L 230.589607 38.8138 
L 232.691873 38.729165 
L 235.495456 38.704428 
L 241.100939 38.190059 
L 243.904522 38.374628 
L 246.707263 38.728862 
L 248.80953 39.252339 
L 257.919071 42.233485 
L 260.722654 43.260627 
L 267.029453 44.653998 
L 270.53267 45.312571 
L 274.036728 45.900117 
L 276.138994 46.540222 
L 282.445794 48.878048 
L 287.350802 51.059297 
L 290.85486 52.303173 
L 294.358917 53.503275 
L 296.461184 53.884095 
L 304.87025 55.089717 
L 306.972516 55.581496 
L 309.074783 56.386918 
L 313.979791 58.597739 
L 318.184324 60.383778 
L 320.286591 61.261501 
L 326.59339 63.568441 
L 329.396132 64.753615 
L 330.797923 65.377187 
L 332.900189 66.566025 
L 338.506514 70.063971 
L 346.214264 73.519302 
L 351.120113 75.185459 
L 353.222379 75.869399 
L 357.426912 77.033186 
L 359.529179 77.875481 
L 363.032395 79.313831 
L 363.733712 79.584518 
L 366.536453 80.283096 
L 368.63872 81.180166 
L 372.843253 83.102074 
L 374.945519 83.974962 
L 379.150052 85.922656 
L 381.952794 86.958669 
L 384.05506 87.740094 
L 386.858643 88.523287 
L 390.36186 89.25797 
L 393.165442 90.257055 
L 393.865918 90.550488 
L 398.070451 92.997862 
L 400.873192 94.486158 
L 407.179992 98.493208 
L 409.282258 99.51571 
L 414.188107 102.272881 
L 414.188107 102.272881 
" clip-path="url(#pddd2e86820)" style="fill: none; stroke: #67a9cf; stroke-width: 1.5; stroke-linecap: square"/>
   </g>
   <g id="line2d_19">
    <path d="M 171.02567 33.357868 
L 172.427461 33.209866 
L 173.828412 33.848059 
L 179.434736 34.992068 
L 190.646543 38.236353 
L 202.559667 41.825368 
L 208.165991 43.16882 
L 213.071 43.733739 
L 226.385074 44.190418 
L 232.691873 44.572076 
L 246.006788 45.636879 
L 263.525395 47.664241 
L 271.233986 49.567196 
L 276.839469 50.924726 
L 282.445794 52.116354 
L 288.052118 53.223061 
L 294.358917 54.987987 
L 297.862134 56.247851 
L 309.074783 60.685513 
L 318.884799 64.407402 
L 322.388857 65.873701 
L 329.396132 69.366609 
L 330.797923 70.179205 
L 335.702931 73.121052 
L 339.907464 75.516576 
L 343.411522 77.538445 
L 348.31653 80.595453 
L 359.529179 88.09599 
L 364.434187 91.397667 
L 370.040511 93.900676 
L 372.142778 94.804962 
L 377.047786 95.98557 
L 381.952794 97.103394 
L 384.05506 97.684895 
L 387.559118 98.538387 
L 388.960909 98.9175 
L 393.165442 101.115182 
L 393.865918 101.473435 
L 399.472242 105.430931 
L 406.479517 109.369826 
L 414.188107 111.698075 
L 414.188107 111.698075 
" clip-path="url(#pddd2e86820)" style="fill: none; stroke: #02818a; stroke-width: 1.5; stroke-linecap: square"/>
   </g>
   <g id="patch_3">
    <path d="M 61.707813 186.84327 
L 61.707813 10.999219 
" style="fill: none; stroke: #000000; stroke-width: 0.8; stroke-linejoin: miter; stroke-linecap: square"/>
   </g>
   <g id="patch_4">
    <path d="M 414.888583 186.84327 
L 414.888583 10.999219 
" style="fill: none; stroke: #000000; stroke-width: 0.8; stroke-linejoin: miter; stroke-linecap: square"/>
   </g>
   <g id="patch_5">
    <path d="M 61.707813 186.84327 
L 414.888583 186.84327 
" style="fill: none; stroke: #000000; stroke-width: 0.8; stroke-linejoin: miter; stroke-linecap: square"/>
   </g>
   <g id="patch_6">
    <path d="M 61.707813 10.999219 
L 414.888583 10.999219 
" style="fill: none; stroke: #000000; stroke-width: 0.8; stroke-linejoin: miter; stroke-linecap: square"/>
   </g>
   <g id="legend_1">
    <g id="patch_7">
     <path d="M 421.888583 122.438432 
L 503.19952 122.438432 
Q 505.19952 122.438432 505.19952 120.438432 
L 505.19952 77.404057 
Q 505.19952 75.404057 503.19952 75.404057 
L 421.888583 75.404057 
Q 419.888583 75.404057 419.888583 77.404057 
L 419.888583 120.438432 
Q 419.888583 122.438432 421.888583 122.438432 
z
" style="fill: #ffffff; opacity: 0.8; stroke: #cccccc; stroke-linejoin: miter"/>
    </g>
    <g id="line2d_20">
     <path d="M 423.888583 83.502494 
L 433.888583 83.502494 
L 443.888583 83.502494 
" style="fill: none; stroke: #d0d1e6; stroke-width: 1.5; stroke-linecap: square"/>
    </g>
    <g id="text_19">
     <!-- Surface -->
     <g transform="translate(451.888583 87.002494) scale(0.1 -0.1)">
      <defs>
       <path id="DejaVuSans-53" d="M 3425 4513 
L 3425 3897 
Q 3066 4069 2747 4153 
Q 2428 4238 2131 4238 
Q 1616 4238 1336 4038 
Q 1056 3838 1056 3469 
Q 1056 3159 1242 3001 
Q 1428 2844 1947 2747 
L 2328 2669 
Q 3034 2534 3370 2195 
Q 3706 1856 3706 1288 
Q 3706 609 3251 259 
Q 2797 -91 1919 -91 
Q 1588 -91 1214 -16 
Q 841 59 441 206 
L 441 856 
Q 825 641 1194 531 
Q 1563 422 1919 422 
Q 2459 422 2753 634 
Q 3047 847 3047 1241 
Q 3047 1584 2836 1778 
Q 2625 1972 2144 2069 
L 1759 2144 
Q 1053 2284 737 2584 
Q 422 2884 422 3419 
Q 422 4038 858 4394 
Q 1294 4750 2059 4750 
Q 2388 4750 2728 4690 
Q 3069 4631 3425 4513 
z
" transform="scale(0.015625)"/>
       <path id="DejaVuSans-75" d="M 544 1381 
L 544 3500 
L 1119 3500 
L 1119 1403 
Q 1119 906 1312 657 
Q 1506 409 1894 409 
Q 2359 409 2629 706 
Q 2900 1003 2900 1516 
L 2900 3500 
L 3475 3500 
L 3475 0 
L 2900 0 
L 2900 538 
Q 2691 219 2414 64 
Q 2138 -91 1772 -91 
Q 1169 -91 856 284 
Q 544 659 544 1381 
z
M 1991 3584 
L 1991 3584 
z
" transform="scale(0.015625)"/>
       <path id="DejaVuSans-66" d="M 2375 4863 
L 2375 4384 
L 1825 4384 
Q 1516 4384 1395 4259 
Q 1275 4134 1275 3809 
L 1275 3500 
L 2222 3500 
L 2222 3053 
L 1275 3053 
L 1275 0 
L 697 0 
L 697 3053 
L 147 3053 
L 147 3500 
L 697 3500 
L 697 3744 
Q 697 4328 969 4595 
Q 1241 4863 1831 4863 
L 2375 4863 
z
" transform="scale(0.015625)"/>
      </defs>
      <use xlink:href="#DejaVuSans-53"/>
      <use xlink:href="#DejaVuSans-75" x="63.476562"/>
      <use xlink:href="#DejaVuSans-72" x="126.855469"/>
      <use xlink:href="#DejaVuSans-66" x="167.96875"/>
      <use xlink:href="#DejaVuSans-61" x="203.173828"/>
      <use xlink:href="#DejaVuSans-63" x="264.453125"/>
      <use xlink:href="#DejaVuSans-65" x="319.433594"/>
     </g>
    </g>
    <g id="line2d_21">
     <path d="M 423.888583 98.180619 
L 433.888583 98.180619 
L 443.888583 98.180619 
" style="fill: none; stroke: #67a9cf; stroke-width: 1.5; stroke-linecap: square"/>
    </g>
    <g id="text_20">
     <!-- Dynamics -->
     <g transform="translate(451.888583 101.680619) scale(0.1 -0.1)">
      <defs>
       <path id="DejaVuSans-44" d="M 1259 4147 
L 1259 519 
L 2022 519 
Q 2988 519 3436 956 
Q 3884 1394 3884 2338 
Q 3884 3275 3436 3711 
Q 2988 4147 2022 4147 
L 1259 4147 
z
M 628 4666 
L 1925 4666 
Q 3281 4666 3915 4102 
Q 4550 3538 4550 2338 
Q 4550 1131 3912 565 
Q 3275 0 1925 0 
L 628 0 
L 628 4666 
z
" transform="scale(0.015625)"/>
       <path id="DejaVuSans-79" d="M 2059 -325 
Q 1816 -950 1584 -1140 
Q 1353 -1331 966 -1331 
L 506 -1331 
L 506 -850 
L 844 -850 
Q 1081 -850 1212 -737 
Q 1344 -625 1503 -206 
L 1606 56 
L 191 3500 
L 800 3500 
L 1894 763 
L 2988 3500 
L 3597 3500 
L 2059 -325 
z
" transform="scale(0.015625)"/>
       <path id="DejaVuSans-6d" d="M 3328 2828 
Q 3544 3216 3844 3400 
Q 4144 3584 4550 3584 
Q 5097 3584 5394 3201 
Q 5691 2819 5691 2113 
L 5691 0 
L 5113 0 
L 5113 2094 
Q 5113 2597 4934 2840 
Q 4756 3084 4391 3084 
Q 3944 3084 3684 2787 
Q 3425 2491 3425 1978 
L 3425 0 
L 2847 0 
L 2847 2094 
Q 2847 2600 2669 2842 
Q 2491 3084 2119 3084 
Q 1678 3084 1418 2786 
Q 1159 2488 1159 1978 
L 1159 0 
L 581 0 
L 581 3500 
L 1159 3500 
L 1159 2956 
Q 1356 3278 1631 3431 
Q 1906 3584 2284 3584 
Q 2666 3584 2933 3390 
Q 3200 3197 3328 2828 
z
" transform="scale(0.015625)"/>
       <path id="DejaVuSans-69" d="M 603 3500 
L 1178 3500 
L 1178 0 
L 603 0 
L 603 3500 
z
M 603 4863 
L 1178 4863 
L 1178 4134 
L 603 4134 
L 603 4863 
z
" transform="scale(0.015625)"/>
      </defs>
      <use xlink:href="#DejaVuSans-44"/>
      <use xlink:href="#DejaVuSans-79" x="77.001953"/>
      <use xlink:href="#DejaVuSans-6e" x="136.181641"/>
      <use xlink:href="#DejaVuSans-61" x="199.560547"/>
      <use xlink:href="#DejaVuSans-6d" x="260.839844"/>
      <use xlink:href="#DejaVuSans-69" x="358.251953"/>
      <use xlink:href="#DejaVuSans-63" x="386.035156"/>
      <use xlink:href="#DejaVuSans-73" x="441.015625"/>
     </g>
    </g>
    <g id="line2d_22">
     <path d="M 423.888583 112.858744 
L 433.888583 112.858744 
L 443.888583 112.858744 
" style="fill: none; stroke: #02818a; stroke-width: 1.5; stroke-linecap: square"/>
    </g>
    <g id="text_21">
     <!-- Total -->
     <g transform="translate(451.888583 116.358744) scale(0.1 -0.1)">
      <defs>
       <path id="DejaVuSans-54" d="M -19 4666 
L 3928 4666 
L 3928 4134 
L 2272 4134 
L 2272 0 
L 1638 0 
L 1638 4134 
L -19 4134 
L -19 4666 
z
" transform="scale(0.015625)"/>
       <path id="DejaVuSans-6f" d="M 1959 3097 
Q 1497 3097 1228 2736 
Q 959 2375 959 1747 
Q 959 1119 1226 758 
Q 1494 397 1959 397 
Q 2419 397 2687 759 
Q 2956 1122 2956 1747 
Q 2956 2369 2687 2733 
Q 2419 3097 1959 3097 
z
M 1959 3584 
Q 2709 3584 3137 3096 
Q 3566 2609 3566 1747 
Q 3566 888 3137 398 
Q 2709 -91 1959 -91 
Q 1206 -91 779 398 
Q 353 888 353 1747 
Q 353 2609 779 3096 
Q 1206 3584 1959 3584 
z
" transform="scale(0.015625)"/>
       <path id="DejaVuSans-6c" d="M 603 4863 
L 1178 4863 
L 1178 0 
L 603 0 
L 603 4863 
z
" transform="scale(0.015625)"/>
      </defs>
      <use xlink:href="#DejaVuSans-54"/>
      <use xlink:href="#DejaVuSans-6f" x="44.083984"/>
      <use xlink:href="#DejaVuSans-74" x="105.265625"/>
      <use xlink:href="#DejaVuSans-61" x="144.474609"/>
      <use xlink:href="#DejaVuSans-6c" x="205.753906"/>
     </g>
    </g>
   </g>
  </g>
 </g>
 <defs>
  <clipPath id="pddd2e86820">
   <rect x="61.707813" y="10.999219" width="353.18077" height="175.844051"/>
  </clipPath>
 </defs>
</svg>
