<?xml version="1.0" encoding="utf-8" standalone="no"?>
<!DOCTYPE svg PUBLIC "-//W3C//DTD SVG 1.1//EN"
  "http://www.w3.org/Graphics/SVG/1.1/DTD/svg11.dtd">
<svg xmlns:xlink="http://www.w3.org/1999/xlink" width="512.39952pt" height="224.39952pt" viewBox="0 0 512.39952 224.39952" xmlns="http://www.w3.org/2000/svg" version="1.1">
 <metadata>
  <rdf:RDF xmlns:dc="http://purl.org/dc/elements/1.1/" xmlns:cc="http://creativecommons.org/ns#" xmlns:rdf="http://www.w3.org/1999/02/22-rdf-syntax-ns#">
   <cc:Work>
    <dc:type rdf:resource="http://purl.org/dc/dcmitype/StillImage"/>
    <dc:date>2023-01-30T12:49:53.210479</dc:date>
    <dc:format>image/svg+xml</dc:format>
    <dc:creator>
     <cc:Agent>
      <dc:title>Matplotlib v3.5.1, https://matplotlib.org/</dc:title>
     </cc:Agent>
    </dc:creator>
   </cc:Work>
  </rdf:RDF>
 </metadata>
 <defs>
  <style type="text/css">*{stroke-linejoin: round; stroke-linecap: butt}</style>
 </defs>
 <g id="figure_1">
  <g id="patch_1">
   <path d="M 0 224.39952 
L 512.39952 224.39952 
L 512.39952 0 
L 0 0 
z
" style="fill: #ffffff"/>
  </g>
  <g id="axes_1">
   <g id="patch_2">
    <path d="M 61.707813 186.84327 
L 414.888583 186.84327 
L 414.888583 22.318125 
L 61.707813 22.318125 
z
" style="fill: #ffffff"/>
   </g>
   <g id="PolyCollection_1">
    <path d="M 61.707813 49.382002 
L 61.707813 50.266515 
L 62.408568 50.351791 
L 63.109323 50.46213 
L 63.810079 50.676666 
L 64.510834 50.876846 
L 65.21159 50.990923 
L 65.912345 51.111196 
L 66.613101 51.243705 
L 67.313856 51.370627 
L 68.014612 51.497317 
L 68.715367 51.603531 
L 69.416123 51.7082 
L 70.116878 51.802485 
L 70.817634 51.894663 
L 71.518389 51.9824 
L 72.219145 52.072517 
L 72.9199 52.161894 
L 73.620656 52.249867 
L 74.321411 52.338596 
L 75.022167 52.425695 
L 75.722922 52.516275 
L 76.423678 52.610233 
L 77.124433 52.706371 
L 77.825189 52.797958 
L 78.525944 52.880585 
L 79.2267 52.959226 
L 79.927455 53.028962 
L 80.628211 53.088919 
L 81.328966 53.146069 
L 82.029722 53.18752 
L 82.730477 53.217488 
L 83.431233 53.238929 
L 84.131988 53.253555 
L 84.832744 53.264212 
L 85.533499 53.270245 
L 86.234255 53.273048 
L 86.93501 53.269698 
L 87.635766 53.259703 
L 88.336521 53.244947 
L 89.037277 53.225709 
L 89.738032 53.208381 
L 90.438788 53.186781 
L 91.139543 53.163596 
L 91.840299 53.130738 
L 92.541054 53.096967 
L 93.24181 53.067169 
L 93.942565 53.039136 
L 94.643321 53.002495 
L 95.344076 52.963841 
L 96.044832 52.925636 
L 96.745587 52.887062 
L 97.446343 52.846283 
L 98.147098 52.804021 
L 98.847854 52.765004 
L 99.548609 52.724244 
L 100.249365 52.682474 
L 100.95012 52.647974 
L 101.650876 52.613831 
L 102.351631 52.58104 
L 103.052387 52.551048 
L 103.753142 52.521956 
L 104.453898 52.490464 
L 105.154653 52.456875 
L 105.855409 52.424881 
L 106.556164 52.38823 
L 107.25692 52.343473 
L 107.957675 52.294971 
L 108.658431 52.251484 
L 109.359186 52.214844 
L 110.059942 52.181502 
L 110.760697 52.149197 
L 111.461453 52.117712 
L 112.162208 52.091229 
L 112.862964 52.070123 
L 113.563719 52.053847 
L 114.264475 52.03913 
L 114.96523 52.026759 
L 115.665986 52.014218 
L 116.366741 52.005892 
L 117.067497 52.008379 
L 117.768252 52.011977 
L 118.469008 52.022788 
L 119.169763 52.041653 
L 119.870519 52.062233 
L 120.571274 52.086712 
L 121.27203 52.118579 
L 121.972785 52.156291 
L 122.673541 52.198091 
L 123.374296 52.242227 
L 124.075052 52.285266 
L 124.775807 52.329689 
L 125.476563 52.376878 
L 126.177318 52.428189 
L 126.878074 52.484839 
L 127.578829 52.546072 
L 128.279585 52.60846 
L 128.98034 52.67039 
L 129.681096 52.733337 
L 130.381851 52.796582 
L 131.082607 52.85767 
L 131.783362 52.914966 
L 132.484118 52.965399 
L 133.184873 53.011163 
L 133.885629 53.054238 
L 134.586384 53.101993 
L 135.28714 53.148802 
L 135.987895 53.191627 
L 136.688651 53.234331 
L 137.389406 53.271466 
L 138.090162 53.301569 
L 138.790917 53.325944 
L 139.491673 53.345266 
L 140.192428 53.352854 
L 140.893184 53.349898 
L 141.593939 53.335722 
L 142.294695 53.314467 
L 142.99545 53.288851 
L 143.696206 53.259393 
L 144.396961 53.224829 
L 145.097717 53.185703 
L 145.798472 53.145067 
L 146.499228 53.104347 
L 147.199983 53.064449 
L 147.900739 53.027345 
L 148.601494 52.987164 
L 149.30225 52.954996 
L 150.003005 52.921124 
L 150.70376 52.887987 
L 151.404516 52.856882 
L 152.105271 52.830343 
L 152.806027 52.806344 
L 153.506782 52.783877 
L 154.207538 52.763296 
L 154.908293 52.747753 
L 155.609049 52.739997 
L 156.309804 52.738526 
L 157.01056 52.738369 
L 157.711315 52.739702 
L 158.412071 52.748638 
L 159.112826 52.765216 
L 159.813582 52.791754 
L 160.514337 52.829081 
L 161.215093 52.87444 
L 161.915848 52.929546 
L 162.616604 52.991083 
L 163.317359 53.059365 
L 164.018115 53.131567 
L 164.71887 53.203787 
L 165.419626 53.274272 
L 166.120381 53.341172 
L 166.821137 53.40288 
L 167.521892 53.462261 
L 168.222648 53.523969 
L 168.923403 53.584191 
L 169.624159 53.6401 
L 170.324914 53.694181 
L 171.02567 53.742875 
L 171.726425 53.788173 
L 172.427181 53.830298 
L 173.127936 53.869094 
L 173.828692 53.900669 
L 174.529447 53.926606 
L 175.230203 53.946082 
L 175.930958 53.962931 
L 176.631714 53.978292 
L 177.332469 53.99289 
L 178.033225 54.003521 
L 178.73398 54.016094 
L 179.434736 54.030543 
L 180.135491 54.041343 
L 180.836247 54.052546 
L 181.537002 54.064794 
L 182.237758 54.074423 
L 182.938513 54.08417 
L 183.639269 54.091565 
L 184.340024 54.098298 
L 185.04078 54.106458 
L 185.741535 54.116412 
L 186.442291 54.128135 
L 187.143046 54.140513 
L 187.843802 54.153749 
L 188.544557 54.169965 
L 189.245313 54.191923 
L 189.946068 54.2189 
L 190.646824 54.246667 
L 191.347579 54.272758 
L 192.048335 54.296577 
L 192.74909 54.320751 
L 193.449846 54.349791 
L 194.150601 54.382716 
L 194.851357 54.410944 
L 195.552112 54.440379 
L 196.252868 54.471525 
L 196.953623 54.502828 
L 197.654379 54.533001 
L 198.355134 54.559638 
L 199.05589 54.58136 
L 199.756645 54.597298 
L 200.457401 54.606661 
L 201.158156 54.610422 
L 201.858912 54.612721 
L 202.559667 54.615233 
L 203.260423 54.616821 
L 203.961178 54.611779 
L 204.661934 54.601781 
L 205.362689 54.589403 
L 206.063445 54.577018 
L 206.7642 54.562173 
L 207.464956 54.544808 
L 208.165711 54.528799 
L 208.866467 54.514374 
L 209.567222 54.507285 
L 210.267978 54.502594 
L 210.968733 54.502733 
L 211.669489 54.506737 
L 212.370244 54.508669 
L 213.071 54.506742 
L 213.771755 54.504912 
L 214.472511 54.503452 
L 215.173266 54.505354 
L 215.874022 54.503635 
L 216.574777 54.500166 
L 217.275533 54.495308 
L 217.976288 54.487627 
L 218.677044 54.481236 
L 219.377799 54.475985 
L 220.078555 54.469454 
L 220.77931 54.460014 
L 221.480066 54.447136 
L 222.180821 54.431538 
L 222.881577 54.415026 
L 223.582332 54.397174 
L 224.283088 54.383027 
L 224.983843 54.36059 
L 225.684599 54.327175 
L 226.385354 54.288869 
L 227.08611 54.247941 
L 227.786865 54.204815 
L 228.487621 54.15763 
L 229.188376 54.105639 
L 229.889132 54.047279 
L 230.589887 53.983447 
L 231.290643 53.915469 
L 231.991398 53.846477 
L 232.692154 53.778836 
L 233.392909 53.710456 
L 234.093665 53.642376 
L 234.79442 53.580164 
L 235.495176 53.526957 
L 236.195931 53.48253 
L 236.896687 53.450694 
L 237.597442 53.424803 
L 238.298197 53.403913 
L 238.998953 53.38659 
L 239.699708 53.375229 
L 240.400464 53.367797 
L 241.101219 53.35942 
L 241.801975 53.350556 
L 242.50273 53.340038 
L 243.203486 53.329737 
L 243.904241 53.319908 
L 244.604997 53.309315 
L 245.305752 53.298534 
L 246.006508 53.287252 
L 246.707263 53.274892 
L 247.408019 53.26248 
L 248.108774 53.249021 
L 248.80953 53.235417 
L 249.510285 53.222217 
L 250.211041 53.211666 
L 250.911796 53.201719 
L 251.612552 53.189784 
L 252.313307 53.18347 
L 253.014063 53.182511 
L 253.714818 53.185195 
L 254.415574 53.18255 
L 255.116329 53.179969 
L 255.817085 53.175356 
L 256.51784 53.168256 
L 257.218596 53.157033 
L 257.919351 53.141655 
L 258.620107 53.123721 
L 259.320862 53.104494 
L 260.021618 53.088996 
L 260.722373 53.081593 
L 261.423129 53.077042 
L 262.123884 53.077273 
L 262.82464 53.081194 
L 263.525395 53.088045 
L 264.226151 53.098903 
L 264.926906 53.113668 
L 265.627662 53.128432 
L 266.328417 53.139996 
L 267.029173 53.145231 
L 267.729928 53.143196 
L 268.430684 53.137384 
L 269.131439 53.130702 
L 269.832195 53.118992 
L 270.53295 53.101859 
L 271.233706 53.080247 
L 271.934461 53.055385 
L 272.635217 53.030544 
L 273.335972 53.006294 
L 274.036728 52.980714 
L 274.737483 52.953926 
L 275.438239 52.92516 
L 276.138994 52.894961 
L 276.83975 52.866821 
L 277.540505 52.841189 
L 278.241261 52.814293 
L 278.942016 52.788314 
L 279.642772 52.762011 
L 280.343527 52.73261 
L 281.044283 52.699359 
L 281.745038 52.665312 
L 282.445794 52.62957 
L 283.146549 52.589588 
L 283.847305 52.544409 
L 284.54806 52.497815 
L 285.248816 52.452842 
L 285.949571 52.414122 
L 286.650327 52.379923 
L 287.351082 52.353757 
L 288.051838 52.331711 
L 288.752593 52.311974 
L 289.453349 52.299777 
L 290.154104 52.293699 
L 290.85486 52.292499 
L 291.555615 52.293784 
L 292.256371 52.298973 
L 292.957126 52.307733 
L 293.657882 52.318903 
L 294.358637 52.330402 
L 295.059393 52.345893 
L 295.760148 52.368261 
L 296.460904 52.392561 
L 297.161659 52.416931 
L 297.862415 52.44401 
L 298.56317 52.473566 
L 299.263926 52.503261 
L 299.964681 52.531023 
L 300.665437 52.556025 
L 301.366192 52.577615 
L 302.066948 52.596712 
L 302.767703 52.61628 
L 303.468459 52.637962 
L 304.169214 52.659717 
L 304.86997 52.677094 
L 305.570725 52.69058 
L 306.271481 52.699992 
L 306.972236 52.707315 
L 307.672992 52.711521 
L 308.373747 52.710605 
L 309.074503 52.706417 
L 309.775258 52.698958 
L 310.476014 52.689142 
L 311.176769 52.679538 
L 311.877525 52.675495 
L 312.57828 52.672933 
L 313.279036 52.669162 
L 313.979791 52.666237 
L 314.680547 52.661602 
L 315.381302 52.65612 
L 316.082058 52.650995 
L 316.782813 52.642296 
L 317.483569 52.627996 
L 318.184324 52.609289 
L 318.88508 52.588898 
L 319.585835 52.569056 
L 320.286591 52.550415 
L 320.987346 52.533495 
L 321.688102 52.517094 
L 322.388857 52.500628 
L 323.089613 52.485565 
L 323.790368 52.472789 
L 324.491124 52.461739 
L 325.191879 52.450259 
L 325.892635 52.43987 
L 326.59339 52.426751 
L 327.294145 52.414234 
L 327.994901 52.399127 
L 328.695656 52.385179 
L 329.396412 52.374993 
L 330.097167 52.366499 
L 330.797923 52.354657 
L 331.498678 52.343161 
L 332.199434 52.334974 
L 332.900189 52.329466 
L 333.600945 52.323099 
L 334.3017 52.320287 
L 335.002456 52.321619 
L 335.703211 52.328928 
L 336.403967 52.345607 
L 337.104722 52.372518 
L 337.805478 52.407181 
L 338.506233 52.447018 
L 339.206989 52.490797 
L 339.907744 52.536248 
L 340.6085 52.582966 
L 341.309255 52.632244 
L 342.010011 52.678704 
L 342.710766 52.721745 
L 343.411522 52.760492 
L 344.112277 52.797866 
L 344.813033 52.83661 
L 345.513788 52.876062 
L 346.214544 52.914921 
L 346.915299 52.951049 
L 347.616055 52.985247 
L 348.31681 53.01778 
L 349.017566 53.049685 
L 349.718321 53.083262 
L 350.419077 53.117939 
L 351.119832 53.14822 
L 351.820588 53.175476 
L 352.521343 53.201978 
L 353.222099 53.230228 
L 353.922854 53.26218 
L 354.62361 53.292804 
L 355.324365 53.321469 
L 356.025121 53.348361 
L 356.725876 53.375427 
L 357.426632 53.402717 
L 358.127387 53.42891 
L 358.828143 53.453697 
L 359.528898 53.477045 
L 360.229654 53.499044 
L 360.930409 53.523794 
L 361.631165 53.549826 
L 362.33192 53.575822 
L 363.032676 53.601772 
L 363.733431 53.622799 
L 364.434187 53.635813 
L 365.134942 53.641931 
L 365.835698 53.64117 
L 366.536453 53.633398 
L 367.237209 53.61601 
L 367.937964 53.584709 
L 368.63872 53.542869 
L 369.339475 53.496044 
L 370.040231 53.447931 
L 370.740986 53.398405 
L 371.441742 53.347185 
L 372.142497 53.292989 
L 372.843253 53.235065 
L 373.544008 53.173404 
L 374.244764 53.108232 
L 374.945519 53.041134 
L 375.646275 52.969345 
L 376.34703 52.895627 
L 377.047786 52.82023 
L 377.748541 52.74521 
L 378.449297 52.670378 
L 379.150052 52.603762 
L 379.850808 52.539458 
L 380.551563 52.47172 
L 381.252319 52.405108 
L 381.953074 52.34131 
L 382.65383 52.281089 
L 383.354585 52.226037 
L 384.055341 52.173372 
L 384.756096 52.121895 
L 385.456852 52.073864 
L 386.157607 52.030741 
L 386.858363 51.99594 
L 387.559118 51.971496 
L 388.259874 51.952347 
L 388.960629 51.938943 
L 389.661385 51.928708 
L 390.36214 51.921015 
L 391.062896 51.916451 
L 391.763651 51.91649 
L 392.464407 51.913987 
L 393.165162 51.909056 
L 393.865918 51.902644 
L 394.566673 51.89992 
L 395.267429 51.901262 
L 395.968184 51.906845 
L 396.66894 51.913619 
L 397.369695 51.922798 
L 398.070451 51.933003 
L 398.771206 51.943653 
L 399.471962 51.955705 
L 400.172717 51.970606 
L 400.873473 51.987263 
L 401.574228 52.003264 
L 402.274984 52.016669 
L 402.975739 52.030009 
L 403.676495 52.043939 
L 404.37725 52.057574 
L 405.078006 52.071318 
L 405.778761 52.081487 
L 406.479517 52.084561 
L 407.180272 52.08176 
L 407.881028 52.07449 
L 408.581783 52.060935 
L 409.282539 52.039388 
L 409.983294 52.004859 
L 410.68405 51.971183 
L 411.384805 51.937007 
L 412.085561 51.90206 
L 412.786316 51.86771 
L 413.487072 51.833406 
L 414.187827 51.801769 
L 414.888582 51.769764 
L 415.589338 51.734923 
L 416.290093 51.701959 
L 416.990849 51.670228 
L 417.691604 51.637767 
L 418.39236 51.60821 
L 419.093115 51.576787 
L 419.793871 51.542585 
L 420.494626 51.50794 
L 421.195382 51.474986 
L 421.896137 51.44172 
L 422.596893 51.409783 
L 423.297648 51.382203 
L 423.297648 45.782166 
L 423.297648 45.782166 
L 422.596893 45.827395 
L 421.896137 45.868267 
L 421.195382 45.907809 
L 420.494626 45.947664 
L 419.793871 45.985827 
L 419.093115 46.024433 
L 418.39236 46.065819 
L 417.691604 46.109071 
L 416.990849 46.149418 
L 416.290093 46.190495 
L 415.589338 46.230341 
L 414.888582 46.268308 
L 414.187827 46.309111 
L 413.487072 46.350282 
L 412.786316 46.388787 
L 412.085561 46.427245 
L 411.384805 46.465107 
L 410.68405 46.50374 
L 409.983294 46.542872 
L 409.282539 46.581152 
L 408.581783 46.611361 
L 407.881028 46.63105 
L 407.180272 46.642163 
L 406.479517 46.646096 
L 405.778761 46.644945 
L 405.078006 46.641109 
L 404.37725 46.633952 
L 403.676495 46.623516 
L 402.975739 46.612704 
L 402.274984 46.602966 
L 401.574228 46.593375 
L 400.873473 46.583373 
L 400.172717 46.572903 
L 399.471962 46.562242 
L 398.771206 46.551162 
L 398.070451 46.542112 
L 397.369695 46.535829 
L 396.66894 46.531749 
L 395.968184 46.529571 
L 395.267429 46.530715 
L 394.566673 46.535899 
L 393.865918 46.545656 
L 393.165162 46.556656 
L 392.464407 46.567426 
L 391.763651 46.575218 
L 391.062896 46.582629 
L 390.36214 46.589767 
L 389.661385 46.599464 
L 388.960629 46.61231 
L 388.259874 46.630292 
L 387.559118 46.653946 
L 386.858363 46.686711 
L 386.157607 46.72579 
L 385.456852 46.772898 
L 384.756096 46.826042 
L 384.055341 46.882378 
L 383.354585 46.942501 
L 382.65383 47.004985 
L 381.953074 47.067146 
L 381.252319 47.131779 
L 380.551563 47.200135 
L 379.850808 47.27293 
L 379.150052 47.352672 
L 378.449297 47.434549 
L 377.748541 47.515324 
L 377.047786 47.602064 
L 376.34703 47.68991 
L 375.646275 47.775414 
L 374.945519 47.854663 
L 374.244764 47.930099 
L 373.544008 47.999409 
L 372.843253 48.064505 
L 372.142497 48.126662 
L 371.441742 48.186354 
L 370.740986 48.243697 
L 370.040231 48.298126 
L 369.339475 48.350627 
L 368.63872 48.399703 
L 367.937964 48.443961 
L 367.237209 48.481225 
L 366.536453 48.509373 
L 365.835698 48.523478 
L 365.134942 48.526942 
L 364.434187 48.522723 
L 363.733431 48.51085 
L 363.032676 48.494804 
L 362.33192 48.475138 
L 361.631165 48.452311 
L 360.930409 48.431986 
L 360.229654 48.415755 
L 359.528898 48.399647 
L 358.828143 48.383777 
L 358.127387 48.365438 
L 357.426632 48.343488 
L 356.725876 48.318879 
L 356.025121 48.292918 
L 355.324365 48.267015 
L 354.62361 48.241532 
L 353.922854 48.215649 
L 353.222099 48.190847 
L 352.521343 48.165767 
L 351.820588 48.142649 
L 351.119832 48.120819 
L 350.419077 48.099569 
L 349.718321 48.078265 
L 349.017566 48.052717 
L 348.31681 48.023497 
L 347.616055 47.992036 
L 346.915299 47.958895 
L 346.214544 47.924392 
L 345.513788 47.890981 
L 344.813033 47.858343 
L 344.112277 47.825116 
L 343.411522 47.791492 
L 342.710766 47.757426 
L 342.010011 47.720462 
L 341.309255 47.678957 
L 340.6085 47.636545 
L 339.907744 47.592224 
L 339.206989 47.54978 
L 338.506233 47.510518 
L 337.805478 47.475744 
L 337.104722 47.446742 
L 336.403967 47.424771 
L 335.703211 47.410718 
L 335.002456 47.405571 
L 334.3017 47.408633 
L 333.600945 47.416367 
L 332.900189 47.424837 
L 332.199434 47.435892 
L 331.498678 47.447096 
L 330.797923 47.459897 
L 330.097167 47.477109 
L 329.396412 47.500542 
L 328.695656 47.524552 
L 327.994901 47.546455 
L 327.294145 47.569052 
L 326.59339 47.595464 
L 325.892635 47.618805 
L 325.191879 47.640605 
L 324.491124 47.657584 
L 323.790368 47.672398 
L 323.089613 47.687327 
L 322.388857 47.704446 
L 321.688102 47.72316 
L 320.987346 47.743509 
L 320.286591 47.76663 
L 319.585835 47.791254 
L 318.88508 47.81513 
L 318.184324 47.838432 
L 317.483569 47.860427 
L 316.782813 47.878808 
L 316.082058 47.892776 
L 315.381302 47.903106 
L 314.680547 47.910897 
L 313.979791 47.919154 
L 313.279036 47.928662 
L 312.57828 47.938374 
L 311.877525 47.953005 
L 311.176769 47.971027 
L 310.476014 47.986948 
L 309.775258 48.00344 
L 309.074503 48.018932 
L 308.373747 48.030821 
L 307.672992 48.036361 
L 306.972236 48.038567 
L 306.271481 48.037751 
L 305.570725 48.031852 
L 304.86997 48.021573 
L 304.169214 48.008317 
L 303.468459 47.996347 
L 302.767703 47.982681 
L 302.066948 47.966245 
L 301.366192 47.948679 
L 300.665437 47.930296 
L 299.964681 47.909508 
L 299.263926 47.884562 
L 298.56317 47.856942 
L 297.862415 47.830162 
L 297.161659 47.805624 
L 296.460904 47.783859 
L 295.760148 47.76685 
L 295.059393 47.754178 
L 294.358637 47.741869 
L 293.657882 47.733331 
L 292.957126 47.733799 
L 292.256371 47.740369 
L 291.555615 47.748509 
L 290.85486 47.756295 
L 290.154104 47.765878 
L 289.453349 47.778784 
L 288.752593 47.796717 
L 288.051838 47.819812 
L 287.351082 47.851103 
L 286.650327 47.888713 
L 285.949571 47.929207 
L 285.248816 47.975242 
L 284.54806 48.022754 
L 283.847305 48.072415 
L 283.146549 48.121343 
L 282.445794 48.168145 
L 281.745038 48.212001 
L 281.044283 48.252259 
L 280.343527 48.287865 
L 279.642772 48.322757 
L 278.942016 48.357323 
L 278.241261 48.390719 
L 277.540505 48.424015 
L 276.83975 48.461425 
L 276.138994 48.499825 
L 275.438239 48.537908 
L 274.737483 48.575931 
L 274.036728 48.610905 
L 273.335972 48.64241 
L 272.635217 48.671407 
L 271.934461 48.697526 
L 271.233706 48.723668 
L 270.53295 48.750104 
L 269.832195 48.774588 
L 269.131439 48.796453 
L 268.430684 48.814328 
L 267.729928 48.825164 
L 267.029173 48.830469 
L 266.328417 48.831321 
L 265.627662 48.827538 
L 264.926906 48.81987 
L 264.226151 48.811473 
L 263.525395 48.803645 
L 262.82464 48.799585 
L 262.123884 48.798985 
L 261.423129 48.803482 
L 260.722373 48.814038 
L 260.021618 48.832643 
L 259.320862 48.852358 
L 258.620107 48.873793 
L 257.919351 48.896189 
L 257.218596 48.915711 
L 256.51784 48.932491 
L 255.817085 48.946574 
L 255.116329 48.95795 
L 254.415574 48.970112 
L 253.714818 48.982296 
L 253.014063 49.000374 
L 252.313307 49.017045 
L 251.612552 49.03245 
L 250.911796 49.047417 
L 250.211041 49.067861 
L 249.510285 49.088486 
L 248.80953 49.105874 
L 248.108774 49.122366 
L 247.408019 49.137817 
L 246.707263 49.152148 
L 246.006508 49.166784 
L 245.305752 49.181615 
L 244.604997 49.195322 
L 243.904241 49.209806 
L 243.203486 49.227159 
L 242.50273 49.246486 
L 241.801975 49.265797 
L 241.101219 49.284311 
L 240.400464 49.300169 
L 239.699708 49.315939 
L 238.998953 49.33287 
L 238.298197 49.354355 
L 237.597442 49.383791 
L 236.896687 49.418968 
L 236.195931 49.461268 
L 235.495176 49.509369 
L 234.79442 49.56946 
L 234.093665 49.638939 
L 233.392909 49.716192 
L 232.692154 49.799808 
L 231.991398 49.8843 
L 231.290643 49.963694 
L 230.589887 50.036754 
L 229.889132 50.104372 
L 229.188376 50.166917 
L 228.487621 50.224423 
L 227.786865 50.27804 
L 227.08611 50.328743 
L 226.385354 50.375986 
L 225.684599 50.420639 
L 224.983843 50.462054 
L 224.283088 50.503351 
L 223.582332 50.541244 
L 222.881577 50.567315 
L 222.180821 50.589673 
L 221.480066 50.606698 
L 220.77931 50.620632 
L 220.078555 50.632513 
L 219.377799 50.643016 
L 218.677044 50.653344 
L 217.976288 50.663959 
L 217.275533 50.675744 
L 216.574777 50.690862 
L 215.874022 50.704165 
L 215.173266 50.713986 
L 214.472511 50.723548 
L 213.771755 50.72926 
L 213.071 50.735847 
L 212.370244 50.741938 
L 211.669489 50.750074 
L 210.968733 50.758969 
L 210.267978 50.768143 
L 209.567222 50.780929 
L 208.866467 50.800099 
L 208.165711 50.820227 
L 207.464956 50.84335 
L 206.7642 50.865874 
L 206.063445 50.88799 
L 205.362689 50.907121 
L 204.661934 50.923444 
L 203.961178 50.938682 
L 203.260423 50.952064 
L 202.559667 50.964698 
L 201.858912 50.971297 
L 201.158156 50.972769 
L 200.457401 50.971158 
L 199.756645 50.967643 
L 199.05589 50.959304 
L 198.355134 50.944016 
L 197.654379 50.92424 
L 196.953623 50.902684 
L 196.252868 50.879451 
L 195.552112 50.855447 
L 194.851357 50.830307 
L 194.150601 50.805243 
L 193.449846 50.787367 
L 192.74909 50.768219 
L 192.048335 50.747334 
L 191.347579 50.726352 
L 190.646824 50.705688 
L 189.946068 50.686459 
L 189.245313 50.668598 
L 188.544557 50.651623 
L 187.843802 50.637828 
L 187.143046 50.629078 
L 186.442291 50.62424 
L 185.741535 50.621626 
L 185.04078 50.620302 
L 184.340024 50.619418 
L 183.639269 50.618719 
L 182.938513 50.619331 
L 182.237758 50.620096 
L 181.537002 50.61775 
L 180.836247 50.615001 
L 180.135491 50.608087 
L 179.434736 50.602744 
L 178.73398 50.604403 
L 178.033225 50.604589 
L 177.332469 50.599716 
L 176.631714 50.594519 
L 175.930958 50.586232 
L 175.230203 50.574614 
L 174.529447 50.558857 
L 173.828692 50.539034 
L 173.127936 50.512684 
L 172.427181 50.481804 
L 171.726425 50.443708 
L 171.02567 50.401016 
L 170.324914 50.355812 
L 169.624159 50.311088 
L 168.923403 50.263544 
L 168.222648 50.215117 
L 167.521892 50.163884 
L 166.821137 50.108342 
L 166.120381 50.050129 
L 165.419626 49.988546 
L 164.71887 49.923345 
L 164.018115 49.85551 
L 163.317359 49.788596 
L 162.616604 49.724595 
L 161.915848 49.666384 
L 161.215093 49.617351 
L 160.514337 49.577589 
L 159.813582 49.549964 
L 159.112826 49.530676 
L 158.412071 49.520968 
L 157.711315 49.519401 
L 157.01056 49.520834 
L 156.309804 49.528055 
L 155.609049 49.540767 
L 154.908293 49.555254 
L 154.207538 49.572509 
L 153.506782 49.596354 
L 152.806027 49.628327 
L 152.105271 49.667743 
L 151.404516 49.713244 
L 150.70376 49.762156 
L 150.003005 49.815623 
L 149.30225 49.871801 
L 148.601494 49.929353 
L 147.900739 49.977414 
L 147.199983 50.02698 
L 146.499228 50.071784 
L 145.798472 50.11605 
L 145.097717 50.16007 
L 144.396961 50.2032 
L 143.696206 50.245877 
L 142.99545 50.284597 
L 142.294695 50.317701 
L 141.593939 50.345877 
L 140.893184 50.368386 
L 140.192428 50.383736 
L 139.491673 50.386735 
L 138.790917 50.379942 
L 138.090162 50.361694 
L 137.389406 50.335821 
L 136.688651 50.307039 
L 135.987895 50.276681 
L 135.28714 50.242444 
L 134.586384 50.209091 
L 133.885629 50.174739 
L 133.184873 50.134688 
L 132.484118 50.092784 
L 131.783362 50.047716 
L 131.082607 49.9987 
L 130.381851 49.943345 
L 129.681096 49.885225 
L 128.98034 49.825102 
L 128.279585 49.766151 
L 127.578829 49.713131 
L 126.878074 49.665187 
L 126.177318 49.619572 
L 125.476563 49.575634 
L 124.775807 49.533809 
L 124.075052 49.493342 
L 123.374296 49.453241 
L 122.673541 49.416092 
L 121.972785 49.37937 
L 121.27203 49.344703 
L 120.571274 49.316293 
L 119.870519 49.296359 
L 119.169763 49.287136 
L 118.469008 49.28856 
L 117.768252 49.293016 
L 117.067497 49.303103 
L 116.366741 49.324241 
L 115.665986 49.342482 
L 114.96523 49.360626 
L 114.264475 49.38037 
L 113.563719 49.400501 
L 112.862964 49.424548 
L 112.162208 49.451961 
L 111.461453 49.484298 
L 110.760697 49.522606 
L 110.059942 49.57044 
L 109.359186 49.62707 
L 108.658431 49.688993 
L 107.957675 49.749345 
L 107.25692 49.804869 
L 106.556164 49.858614 
L 105.855409 49.90973 
L 105.154653 49.954251 
L 104.453898 49.991104 
L 103.753142 50.027198 
L 103.052387 50.064939 
L 102.351631 50.104954 
L 101.650876 50.147981 
L 100.95012 50.197852 
L 100.249365 50.256497 
L 99.548609 50.313328 
L 98.847854 50.373117 
L 98.147098 50.432854 
L 97.446343 50.485335 
L 96.745587 50.532928 
L 96.044832 50.577543 
L 95.344076 50.619712 
L 94.643321 50.661293 
L 93.942565 50.705017 
L 93.24181 50.756514 
L 92.541054 50.805684 
L 91.840299 50.852088 
L 91.139543 50.899618 
L 90.438788 50.952522 
L 89.738032 50.99951 
L 89.037277 51.039877 
L 88.336521 51.06785 
L 87.635766 51.090032 
L 86.93501 51.107039 
L 86.234255 51.120906 
L 85.533499 51.130832 
L 84.832744 51.134988 
L 84.131988 51.135254 
L 83.431233 51.130244 
L 82.730477 51.120903 
L 82.029722 51.105489 
L 81.328966 51.082703 
L 80.628211 51.053343 
L 79.927455 51.003655 
L 79.2267 50.943731 
L 78.525944 50.87668 
L 77.825189 50.799534 
L 77.124433 50.7196 
L 76.423678 50.63653 
L 75.722922 50.549279 
L 75.022167 50.463306 
L 74.321411 50.379853 
L 73.620656 50.29803 
L 72.9199 50.215451 
L 72.219145 50.134277 
L 71.518389 50.053842 
L 70.817634 49.971027 
L 70.116878 49.892653 
L 69.416123 49.816387 
L 68.715367 49.750504 
L 68.014612 49.686166 
L 67.313856 49.642304 
L 66.613101 49.598675 
L 65.912345 49.560632 
L 65.21159 49.510352 
L 64.510834 49.453878 
L 63.810079 49.483506 
L 63.109323 49.527491 
L 62.408568 49.467277 
L 61.707813 49.382002 
z
" clip-path="url(#p48c19a0627)" style="fill: #d0d1e6; fill-opacity: 0.25"/>
   </g>
   <g id="PolyCollection_2">
    <path d="M 171.02567 51.804054 
L 171.02567 52.339836 
L 171.726145 52.339868 
L 172.427461 52.457882 
L 173.127936 52.536748 
L 173.828412 52.571116 
L 174.529728 52.612175 
L 175.230203 52.653132 
L 175.930678 52.697417 
L 176.631994 52.744493 
L 177.332469 52.794413 
L 178.032945 52.840442 
L 178.734261 52.89447 
L 179.434736 52.946861 
L 180.135211 52.985028 
L 180.836527 53.020217 
L 181.537002 53.061269 
L 182.237478 53.100854 
L 182.938794 53.144147 
L 183.639269 53.185511 
L 184.339744 53.2242 
L 185.04106 53.262617 
L 185.741535 53.300514 
L 186.44201 53.336732 
L 187.143327 53.369739 
L 187.843802 53.395778 
L 188.544277 53.415871 
L 189.245593 53.433186 
L 189.946068 53.450335 
L 190.646543 53.465583 
L 191.34786 53.478326 
L 192.048335 53.489905 
L 192.74881 53.501456 
L 193.450126 53.515853 
L 194.150601 53.532178 
L 194.851076 53.53875 
L 195.552393 53.545258 
L 196.252868 53.554965 
L 196.953343 53.565359 
L 197.654659 53.577277 
L 198.355134 53.590486 
L 199.055609 53.607921 
L 199.756926 53.623118 
L 200.457401 53.642682 
L 201.157876 53.663535 
L 201.859192 53.687535 
L 202.559667 53.717111 
L 203.260142 53.753065 
L 203.961458 53.788949 
L 204.661934 53.825055 
L 205.362409 53.861998 
L 206.063725 53.901869 
L 206.7642 53.944626 
L 207.464675 53.987491 
L 208.165991 54.030976 
L 208.866467 54.061151 
L 209.566942 54.090626 
L 210.268258 54.113317 
L 210.968733 54.132336 
L 211.669208 54.151126 
L 212.370524 54.168866 
L 213.071 54.177446 
L 213.771475 54.186458 
L 214.472791 54.194486 
L 215.173266 54.206529 
L 215.873741 54.218599 
L 216.575057 54.234094 
L 217.275533 54.251302 
L 217.976008 54.264927 
L 218.677324 54.277309 
L 219.377799 54.289346 
L 220.078274 54.301464 
L 220.77959 54.314873 
L 221.480066 54.326471 
L 222.180541 54.341109 
L 222.881857 54.361046 
L 223.582332 54.384625 
L 224.282807 54.41993 
L 224.984123 54.458501 
L 225.684599 54.497118 
L 226.385074 54.538908 
L 227.08639 54.583221 
L 227.786865 54.630912 
L 228.48734 54.681462 
L 229.188656 54.73585 
L 229.889132 54.795515 
L 230.589607 54.860205 
L 231.290923 54.930258 
L 231.991398 55.006464 
L 232.691873 55.087527 
L 233.393189 55.167663 
L 234.093665 55.241523 
L 234.79414 55.307603 
L 235.495456 55.364249 
L 236.195931 55.408957 
L 236.896406 55.447578 
L 237.597722 55.479055 
L 238.298198 55.517093 
L 238.998673 55.547301 
L 239.699989 55.572853 
L 240.400464 55.597075 
L 241.100939 55.62137 
L 241.802255 55.648169 
L 242.50273 55.67575 
L 243.203206 55.703281 
L 243.904522 55.728863 
L 244.604997 55.751715 
L 245.305472 55.773805 
L 246.006788 55.796951 
L 246.707263 55.826874 
L 247.407739 55.85648 
L 248.109055 55.887171 
L 248.80953 55.91882 
L 249.510005 55.951253 
L 250.211321 55.986515 
L 250.911796 56.021521 
L 251.612272 56.051487 
L 252.313588 56.081458 
L 253.014063 56.112202 
L 253.714538 56.143953 
L 254.415854 56.170519 
L 255.116329 56.213617 
L 255.816805 56.255507 
L 256.518121 56.300055 
L 257.218596 56.347371 
L 257.919071 56.397506 
L 258.620387 56.45486 
L 259.320862 56.511055 
L 260.021338 56.583987 
L 260.722654 56.65505 
L 261.423129 56.718439 
L 262.123604 56.775846 
L 262.82492 56.828246 
L 263.525395 56.877744 
L 264.225871 56.92402 
L 264.927187 56.970803 
L 265.627662 57.017911 
L 266.328137 57.067634 
L 267.029453 57.121587 
L 267.729928 57.179448 
L 268.430404 57.245071 
L 269.13172 57.317223 
L 269.832195 57.396032 
L 270.53267 57.477168 
L 271.233986 57.558183 
L 271.934461 57.633413 
L 272.634937 57.709411 
L 273.336253 57.78916 
L 274.036728 57.872126 
L 274.737203 57.95801 
L 275.438519 58.046216 
L 276.138994 58.135024 
L 276.839469 58.224759 
L 277.540786 58.31296 
L 278.241261 58.397449 
L 278.941736 58.481615 
L 279.643052 58.567091 
L 280.343527 58.652981 
L 281.044002 58.739598 
L 281.745319 58.82925 
L 282.445794 58.921755 
L 283.146269 59.017004 
L 283.847585 59.11415 
L 284.54806 59.21183 
L 285.248535 59.307296 
L 285.949852 59.402138 
L 286.650327 59.492444 
L 287.350802 59.581139 
L 288.052118 59.66428 
L 288.752593 59.743299 
L 289.453068 59.818451 
L 290.154385 59.889497 
L 290.85486 59.957841 
L 291.555335 60.024721 
L 292.256651 60.092365 
L 292.957126 60.158686 
L 293.657601 60.221131 
L 294.358917 60.276953 
L 295.059393 60.330088 
L 295.759868 60.382182 
L 296.461184 60.430455 
L 297.161659 60.481866 
L 297.862134 60.531305 
L 298.56345 60.579592 
L 299.263926 60.627837 
L 299.964401 60.677921 
L 300.665717 60.731586 
L 301.366192 60.787673 
L 302.066667 60.845222 
L 302.767983 60.903978 
L 303.468459 60.964833 
L 304.168934 61.026486 
L 304.87025 61.087398 
L 305.570725 61.148204 
L 306.2712 61.212815 
L 306.972516 61.281605 
L 307.672992 61.352386 
L 308.373467 61.425724 
L 309.074783 61.50438 
L 309.775258 61.586354 
L 310.475733 61.669477 
L 311.177049 61.752514 
L 311.877525 61.836515 
L 312.578 61.905868 
L 313.279316 61.970845 
L 313.979791 62.03778 
L 314.680266 62.1043 
L 315.381582 62.17037 
L 316.082058 62.238067 
L 316.782533 62.309505 
L 317.483849 62.384638 
L 318.184324 62.461739 
L 318.884799 62.541578 
L 319.586115 62.622023 
L 320.286591 62.703865 
L 320.987066 62.768204 
L 321.688382 62.829881 
L 322.388857 62.875667 
L 323.089332 62.920415 
L 323.790648 62.96308 
L 324.491124 63.005741 
L 325.191599 63.050357 
L 325.892915 63.098574 
L 326.59339 63.14767 
L 327.293865 63.204105 
L 327.995181 63.257566 
L 328.695656 63.310525 
L 329.396132 63.364571 
L 330.097448 63.41744 
L 330.797923 63.46934 
L 331.498398 63.520801 
L 332.199714 63.57092 
L 332.900189 63.620859 
L 333.600665 63.668795 
L 334.301981 63.715093 
L 335.002456 63.757114 
L 335.702931 63.792503 
L 336.404247 63.820246 
L 337.104722 63.84082 
L 337.805198 63.854451 
L 338.506514 63.862034 
L 339.206989 63.865679 
L 339.907464 63.867704 
L 340.60878 63.868256 
L 341.309255 63.870355 
L 342.009731 63.878836 
L 342.711047 63.890465 
L 343.411522 63.906542 
L 344.111997 63.922685 
L 344.813313 63.938874 
L 345.513788 63.955318 
L 346.214264 63.971008 
L 346.91558 63.985806 
L 347.616055 63.996875 
L 348.31653 64.009378 
L 349.017846 64.022979 
L 349.718321 64.037809 
L 350.418797 64.055115 
L 351.120113 64.072546 
L 351.820588 64.089381 
L 352.521063 64.105188 
L 353.222379 64.119407 
L 353.922854 64.133527 
L 354.62333 64.146643 
L 355.324646 64.160251 
L 356.025121 64.163393 
L 356.725596 64.165387 
L 357.426912 64.168209 
L 358.127387 64.173335 
L 358.827863 64.181721 
L 359.529179 64.191965 
L 360.229654 64.201932 
L 360.930129 64.211702 
L 361.631445 64.218451 
L 362.33192 64.22275 
L 363.032395 64.22929 
L 363.733712 64.237992 
L 364.434187 64.23103 
L 365.134662 64.228873 
L 365.835978 64.233498 
L 366.536453 64.24821 
L 367.236928 64.275344 
L 367.938245 64.311094 
L 368.63872 64.353798 
L 369.339195 64.401386 
L 370.040511 64.452114 
L 370.740986 64.50406 
L 371.441461 64.558589 
L 372.142778 64.615203 
L 372.843253 64.666814 
L 373.543728 64.720627 
L 374.245044 64.777712 
L 374.945519 64.838512 
L 375.645994 64.900789 
L 376.347311 64.965865 
L 377.047786 65.032756 
L 377.748261 65.097992 
L 378.449577 65.157855 
L 379.150052 65.217035 
L 379.850527 65.271971 
L 380.551843 65.32246 
L 381.252319 65.395534 
L 381.952794 65.468301 
L 382.65411 65.539843 
L 383.354585 65.611681 
L 384.05506 65.678945 
L 384.756376 65.743297 
L 385.456852 65.805471 
L 386.157327 65.862996 
L 386.858643 65.913324 
L 387.559118 65.958135 
L 388.259593 65.993865 
L 388.960909 66.023923 
L 389.661385 66.067397 
L 390.36186 66.108412 
L 391.063176 66.147704 
L 391.763651 66.18667 
L 392.464126 66.226584 
L 393.165442 66.270018 
L 393.865918 66.313625 
L 394.566393 66.415679 
L 395.267709 66.516297 
L 395.968184 66.613821 
L 396.668659 66.709595 
L 397.369975 66.809784 
L 398.070451 66.93574 
L 398.770926 67.058298 
L 399.472242 67.176914 
L 400.172717 67.295145 
L 400.873192 67.413512 
L 401.574508 67.531808 
L 402.274984 67.650917 
L 402.975459 67.769906 
L 403.676775 67.8879 
L 404.37725 68.006151 
L 405.077725 68.127072 
L 405.779041 68.251264 
L 406.479517 68.378962 
L 407.179992 68.468516 
L 407.881308 68.563571 
L 408.581783 68.666773 
L 409.282258 68.780022 
L 409.983574 68.90224 
L 410.68405 69.024989 
L 411.384525 69.147416 
L 412.085841 69.269351 
L 412.786316 69.391656 
L 413.486791 69.513983 
L 414.188107 69.637982 
L 414.188107 60.912226 
L 414.188107 60.912226 
L 413.486791 60.802928 
L 412.786316 60.691958 
L 412.085841 60.580966 
L 411.384525 60.469604 
L 410.68405 60.358735 
L 409.983574 60.248187 
L 409.282258 60.137108 
L 408.581783 60.038113 
L 407.881308 59.947582 
L 407.179992 59.863765 
L 406.479517 59.786099 
L 405.779041 59.670807 
L 405.077725 59.561791 
L 404.37725 59.456229 
L 403.676775 59.351164 
L 402.975459 59.246322 
L 402.274984 59.140812 
L 401.574508 59.035338 
L 400.873192 58.932058 
L 400.172717 58.828862 
L 399.472242 58.724605 
L 398.770926 58.617921 
L 398.070451 58.508022 
L 397.369975 58.396374 
L 396.668659 58.31131 
L 395.968184 58.230555 
L 395.267709 58.149413 
L 394.566393 58.065045 
L 393.865918 57.975405 
L 393.165442 57.942699 
L 392.464126 57.911407 
L 391.763651 57.883381 
L 391.063176 57.857745 
L 390.36186 57.828819 
L 389.661385 57.798088 
L 388.960909 57.765711 
L 388.259593 57.74809 
L 387.559118 57.724978 
L 386.858643 57.696972 
L 386.157327 57.661507 
L 385.456852 57.619354 
L 384.756376 57.573833 
L 384.05506 57.526329 
L 383.354585 57.477568 
L 382.65411 57.424258 
L 381.952794 57.367316 
L 381.252319 57.306835 
L 380.551843 57.246972 
L 379.850527 57.211607 
L 379.150052 57.176722 
L 378.449577 57.137302 
L 377.748261 57.091029 
L 377.047786 57.043126 
L 376.347311 56.994065 
L 375.645994 56.947084 
L 374.945519 56.900905 
L 374.245044 56.857817 
L 373.543728 56.815998 
L 372.843253 56.777044 
L 372.142778 56.740983 
L 371.441461 56.700908 
L 370.740986 56.663269 
L 370.040511 56.626878 
L 369.339195 56.591369 
L 368.63872 56.557322 
L 367.938245 56.527563 
L 367.236928 56.506701 
L 366.536453 56.498156 
L 365.835978 56.499125 
L 365.134662 56.507449 
L 364.434187 56.521583 
L 363.733712 56.539929 
L 363.032395 56.544629 
L 362.33192 56.552258 
L 361.631445 56.560089 
L 360.930129 56.567389 
L 360.229654 56.57359 
L 359.529179 56.577864 
L 358.827863 56.583152 
L 358.127387 56.589651 
L 357.426912 56.597832 
L 356.725596 56.607296 
L 356.025121 56.616979 
L 355.324646 56.628783 
L 354.62333 56.631649 
L 353.922854 56.636278 
L 353.222379 56.641433 
L 352.521063 56.643636 
L 351.820588 56.644373 
L 351.120113 56.645784 
L 350.418797 56.64937 
L 349.718321 56.656403 
L 349.017846 56.662852 
L 348.31653 56.667425 
L 347.616055 56.672292 
L 346.91558 56.678291 
L 346.214264 56.681264 
L 345.513788 56.686127 
L 344.813313 56.691236 
L 344.111997 56.695864 
L 343.411522 56.699056 
L 342.711047 56.704463 
L 342.009731 56.715473 
L 341.309255 56.731207 
L 340.60878 56.754433 
L 339.907464 56.775923 
L 339.206989 56.796161 
L 338.506514 56.814663 
L 337.805198 56.829797 
L 337.104722 56.839374 
L 336.404247 56.841103 
L 335.702931 56.833092 
L 335.002456 56.816392 
L 334.301981 56.794468 
L 333.600665 56.768842 
L 332.900189 56.739562 
L 332.199714 56.71066 
L 331.498398 56.679615 
L 330.797923 56.645786 
L 330.097448 56.608086 
L 329.396132 56.576417 
L 328.695656 56.542924 
L 327.995181 56.506244 
L 327.293865 56.468526 
L 326.59339 56.433039 
L 325.892915 56.402754 
L 325.191599 56.374535 
L 324.491124 56.345742 
L 323.790648 56.31748 
L 323.089332 56.287952 
L 322.388857 56.256273 
L 321.688382 56.222722 
L 320.987066 56.174552 
L 320.286591 56.125931 
L 319.586115 56.05978 
L 318.884799 55.993754 
L 318.184324 55.92768 
L 317.483849 55.864082 
L 316.782533 55.802829 
L 316.082058 55.746205 
L 315.381582 55.693349 
L 314.680266 55.64001 
L 313.979791 55.587116 
L 313.279316 55.535996 
L 312.578 55.486407 
L 311.877525 55.436859 
L 311.177049 55.374129 
L 310.475733 55.306675 
L 309.775258 55.239351 
L 309.074783 55.174282 
L 308.373467 55.112527 
L 307.672992 55.05415 
L 306.972516 55.000407 
L 306.2712 54.949629 
L 305.570725 54.900978 
L 304.87025 54.855964 
L 304.168934 54.811554 
L 303.468459 54.770508 
L 302.767983 54.728984 
L 302.066667 54.686041 
L 301.366192 54.64343 
L 300.665717 54.603691 
L 299.964401 54.567085 
L 299.263926 54.532984 
L 298.56345 54.500701 
L 297.862134 54.469511 
L 297.161659 54.437184 
L 296.461184 54.402973 
L 295.759868 54.3756 
L 295.059393 54.346373 
L 294.358917 54.311008 
L 293.657601 54.272735 
L 292.957126 54.234129 
L 292.256651 54.194543 
L 291.555335 54.15186 
L 290.85486 54.106416 
L 290.154385 54.05909 
L 289.453068 54.007848 
L 288.752593 53.951527 
L 288.052118 53.889276 
L 287.350802 53.82744 
L 286.650327 53.76191 
L 285.949852 53.690733 
L 285.248535 53.615772 
L 284.54806 53.536593 
L 283.847585 53.455747 
L 283.146269 53.3761 
L 282.445794 53.300836 
L 281.745319 53.22896 
L 281.044002 53.157552 
L 280.343527 53.086102 
L 279.643052 53.017955 
L 278.941736 52.95246 
L 278.241261 52.887663 
L 277.540786 52.821788 
L 276.839469 52.756625 
L 276.138994 52.688699 
L 275.438519 52.619829 
L 274.737203 52.552875 
L 274.036728 52.487563 
L 273.336253 52.423351 
L 272.634937 52.361175 
L 271.934461 52.300021 
L 271.233986 52.238726 
L 270.53267 52.17523 
L 269.832195 52.113828 
L 269.13172 52.056579 
L 268.430404 52.007034 
L 267.729928 51.959122 
L 267.029453 51.917255 
L 266.328137 51.881634 
L 265.627662 51.851296 
L 264.927187 51.823115 
L 264.225871 51.794643 
L 263.525395 51.763915 
L 262.82492 51.728493 
L 262.123604 51.690652 
L 261.423129 51.649031 
L 260.722654 51.60255 
L 260.021338 51.552843 
L 259.320862 51.4958 
L 258.620387 51.453835 
L 257.919071 51.41336 
L 257.218596 51.379888 
L 256.518121 51.350493 
L 255.816805 51.325151 
L 255.116329 51.302343 
L 254.415854 51.281992 
L 253.714538 51.278222 
L 253.014063 51.279073 
L 252.313588 51.276682 
L 251.612272 51.269427 
L 250.911796 51.256986 
L 250.211321 51.246094 
L 249.510005 51.234674 
L 248.80953 51.221013 
L 248.109055 51.207059 
L 247.407739 51.193335 
L 246.707263 51.180692 
L 246.006788 51.168114 
L 245.305472 51.163512 
L 244.604997 51.159481 
L 243.904522 51.155623 
L 243.203206 51.152389 
L 242.50273 51.148659 
L 241.802255 51.144777 
L 241.100939 51.142565 
L 240.400464 51.140992 
L 239.699989 51.140379 
L 238.998673 51.136006 
L 238.298198 51.125772 
L 237.597722 51.111852 
L 236.896406 51.105298 
L 236.195931 51.092821 
L 235.495456 51.068041 
L 234.79414 51.034426 
L 234.093665 50.991853 
L 233.393189 50.943419 
L 232.691873 50.894598 
L 231.991398 50.846567 
L 231.290923 50.797425 
L 230.589607 50.749478 
L 229.889132 50.705758 
L 229.188656 50.667556 
L 228.48734 50.636032 
L 227.786865 50.609363 
L 227.08639 50.586809 
L 226.385074 50.566535 
L 225.684599 50.548951 
L 224.984123 50.536323 
L 224.282807 50.534743 
L 223.582332 50.541594 
L 222.881857 50.544834 
L 222.180541 50.549484 
L 221.480066 50.555084 
L 220.77959 50.563453 
L 220.078274 50.571543 
L 219.377799 50.582629 
L 218.677324 50.595088 
L 217.976008 50.606465 
L 217.275533 50.616626 
L 216.575057 50.62986 
L 215.873741 50.644585 
L 215.173266 50.661115 
L 214.472791 50.681499 
L 213.771475 50.698357 
L 213.071 50.714953 
L 212.370524 50.731517 
L 211.669208 50.745613 
L 210.968733 50.762072 
L 210.268258 50.774616 
L 209.566942 50.782388 
L 208.866467 50.788164 
L 208.165991 50.786346 
L 207.464675 50.773083 
L 206.7642 50.758443 
L 206.063725 50.746623 
L 205.362409 50.737361 
L 204.661934 50.727987 
L 203.961458 50.721243 
L 203.260142 50.71874 
L 202.559667 50.723684 
L 201.859192 50.729211 
L 201.157876 50.734075 
L 200.457401 50.740337 
L 199.756926 50.752816 
L 199.055609 50.772328 
L 198.355134 50.788507 
L 197.654659 50.809864 
L 196.953343 50.835246 
L 196.252868 50.861911 
L 195.552393 50.888504 
L 194.851076 50.914894 
L 194.150601 50.940065 
L 193.450126 50.972498 
L 192.74881 51.00039 
L 192.048335 51.022307 
L 191.34786 51.043995 
L 190.646543 51.0688 
L 189.946068 51.096351 
L 189.245593 51.123645 
L 188.544277 51.1452 
L 187.843802 51.160611 
L 187.143327 51.173943 
L 186.44201 51.185991 
L 185.741535 51.198372 
L 185.04106 51.209373 
L 184.339744 51.21866 
L 183.639269 51.226606 
L 182.938794 51.236579 
L 182.237478 51.250679 
L 181.537002 51.264065 
L 180.836527 51.281939 
L 180.135211 51.29707 
L 179.434736 51.313207 
L 178.734261 51.340213 
L 178.032945 51.361971 
L 177.332469 51.378845 
L 176.631994 51.403904 
L 175.930678 51.429971 
L 175.230203 51.458065 
L 174.529728 51.489597 
L 173.828412 51.531758 
L 173.127936 51.584704 
L 172.427461 51.693901 
L 171.726145 51.804085 
L 171.02567 51.804054 
z
" clip-path="url(#p48c19a0627)" style="fill: #67a9cf; fill-opacity: 0.25"/>
   </g>
   <g id="PolyCollection_3">
    <path d="M 171.02567 51.812311 
L 171.02567 52.33158 
L 171.726145 52.483149 
L 172.427461 52.609699 
L 173.127936 52.666419 
L 173.828412 52.720512 
L 174.529728 52.776066 
L 175.230203 52.829737 
L 175.930678 52.881815 
L 176.631994 52.932519 
L 177.332469 52.982024 
L 178.032945 53.030472 
L 178.734261 53.077973 
L 179.434736 53.121388 
L 180.135211 53.16403 
L 180.836527 53.205976 
L 181.537002 53.247283 
L 182.237478 53.287997 
L 182.938794 53.328169 
L 183.639269 53.367833 
L 184.339744 53.407029 
L 185.04106 53.445782 
L 185.741535 53.484122 
L 186.44201 53.522075 
L 187.143327 53.559664 
L 187.843802 53.595169 
L 188.544277 53.630344 
L 189.245593 53.665212 
L 189.946068 53.699787 
L 190.646543 53.734083 
L 191.34786 53.768112 
L 192.048335 53.801886 
L 192.74881 53.835419 
L 193.450126 53.868719 
L 194.150601 53.901797 
L 194.851076 53.934661 
L 195.552393 53.967324 
L 196.252868 54.00157 
L 196.953343 54.03563 
L 197.654659 54.069503 
L 198.355134 54.103206 
L 199.055609 54.136733 
L 199.756926 54.160905 
L 200.457401 54.184917 
L 201.157876 54.208776 
L 201.859192 54.232487 
L 202.559667 54.256058 
L 203.260142 54.279489 
L 203.961458 54.302786 
L 204.661934 54.324777 
L 205.362409 54.34664 
L 206.063725 54.368382 
L 206.7642 54.390003 
L 207.464675 54.411512 
L 208.165991 54.432903 
L 208.866467 54.444061 
L 209.566942 54.455114 
L 210.268258 54.466063 
L 210.968733 54.476911 
L 211.669208 54.487657 
L 212.370524 54.498307 
L 213.071 54.502144 
L 213.771475 54.505889 
L 214.472791 54.509542 
L 215.173266 54.513106 
L 215.873741 54.516583 
L 216.575057 54.519978 
L 217.275533 54.523291 
L 217.976008 54.526523 
L 218.677324 54.529674 
L 219.377799 54.532751 
L 220.078274 54.535748 
L 220.77959 54.538676 
L 221.480066 54.537736 
L 222.180541 54.536727 
L 222.881857 54.535646 
L 223.582332 54.534497 
L 224.282807 54.533285 
L 224.984123 54.532002 
L 225.684599 54.530656 
L 226.385074 54.529244 
L 227.08639 54.527774 
L 227.786865 54.526241 
L 228.48734 54.524645 
L 229.188656 54.522994 
L 229.889132 54.521555 
L 230.589607 54.520058 
L 231.290923 54.518506 
L 231.991398 54.516899 
L 232.691873 54.515237 
L 233.393189 54.513523 
L 234.093665 54.511755 
L 234.79414 54.509934 
L 235.495456 54.508066 
L 236.195931 54.506147 
L 236.896406 54.504175 
L 237.597722 54.502157 
L 238.298198 54.512426 
L 238.998673 54.522646 
L 239.699989 54.532822 
L 240.400464 54.542954 
L 241.100939 54.553039 
L 241.802255 54.563081 
L 242.50273 54.573076 
L 243.203206 54.58303 
L 243.904522 54.592939 
L 244.604997 54.602808 
L 245.305472 54.612636 
L 246.006788 54.622422 
L 246.707263 54.639102 
L 247.407739 54.655747 
L 248.109055 54.672348 
L 248.80953 54.688912 
L 249.510005 54.705439 
L 250.211321 54.721927 
L 250.911796 54.738377 
L 251.612272 54.754791 
L 252.313588 54.77117 
L 253.014063 54.787512 
L 253.714538 54.80382 
L 254.415854 54.820088 
L 255.116329 54.852245 
L 255.816805 54.884371 
L 256.518121 54.916467 
L 257.218596 54.948536 
L 257.919071 54.980574 
L 258.620387 55.016584 
L 259.320862 55.052562 
L 260.021338 55.106924 
L 260.722654 55.161267 
L 261.423129 55.215582 
L 262.123604 55.269875 
L 262.82492 55.32415 
L 263.525395 55.379704 
L 264.225871 55.435177 
L 264.927187 55.492023 
L 265.627662 55.548466 
L 266.328137 55.603968 
L 267.029453 55.65875 
L 267.729928 55.712901 
L 268.430404 55.769198 
L 269.13172 55.825523 
L 269.832195 55.884813 
L 270.53267 55.943247 
L 271.233986 55.999048 
L 271.934461 56.049908 
L 272.634937 56.101048 
L 273.336253 56.153562 
L 274.036728 56.206786 
L 274.737203 56.259579 
L 275.438519 56.311731 
L 276.138994 56.364379 
L 276.839469 56.417904 
L 277.540786 56.470986 
L 278.241261 56.523963 
L 278.941736 56.576614 
L 279.643052 56.629522 
L 280.343527 56.682206 
L 281.044002 56.734629 
L 281.745319 56.786342 
L 282.445794 56.837301 
L 283.146269 56.887706 
L 283.847585 56.937516 
L 284.54806 56.987038 
L 285.248535 57.036412 
L 285.949852 57.087264 
L 286.650327 57.138996 
L 287.350802 57.192489 
L 288.052118 57.246618 
L 288.752593 57.304273 
L 289.453068 57.363452 
L 290.154385 57.423628 
L 290.85486 57.484529 
L 291.555335 57.546051 
L 292.256651 57.608496 
L 292.957126 57.67129 
L 293.657601 57.736154 
L 294.358917 57.802233 
L 295.059393 57.86946 
L 295.759868 57.936647 
L 296.461184 58.004069 
L 297.161659 58.078863 
L 297.862134 58.154358 
L 298.56345 58.230708 
L 299.263926 58.307753 
L 299.964401 58.384334 
L 300.665717 58.460525 
L 301.366192 58.5365 
L 302.066667 58.612793 
L 302.767983 58.68944 
L 303.468459 58.766081 
L 304.168934 58.84215 
L 304.87025 58.917968 
L 305.570725 58.990568 
L 306.2712 59.062558 
L 306.972516 59.133595 
L 307.672992 59.2036 
L 308.373467 59.27278 
L 309.074783 59.34136 
L 309.775258 59.409761 
L 310.475733 59.47822 
L 311.177049 59.547121 
L 311.877525 59.615843 
L 312.578 59.673155 
L 313.279316 59.730125 
L 313.979791 59.789367 
L 314.680266 59.849096 
L 315.381582 59.908626 
L 316.082058 59.967598 
L 316.782533 60.026676 
L 317.483849 60.085033 
L 318.184324 60.141852 
L 318.884799 60.199682 
L 319.586115 60.257697 
L 320.286591 60.316627 
L 320.987066 60.359315 
L 321.688382 60.402073 
L 322.388857 60.430925 
L 323.089332 60.459821 
L 323.790648 60.488895 
L 324.491124 60.518356 
L 325.191599 60.547721 
L 325.892915 60.576546 
L 326.59339 60.604417 
L 327.293865 60.636982 
L 327.995181 60.669909 
L 328.695656 60.703033 
L 329.396132 60.73585 
L 330.097448 60.768229 
L 330.797923 60.808302 
L 331.498398 60.84872 
L 332.199714 60.889616 
L 332.900189 60.93081 
L 333.600665 60.972056 
L 334.301981 61.012683 
L 335.002456 61.053828 
L 335.702931 61.096553 
L 336.404247 61.140791 
L 337.104722 61.185882 
L 337.805198 61.230929 
L 338.506514 61.275534 
L 339.206989 61.321384 
L 339.907464 61.368093 
L 340.60878 61.415114 
L 341.309255 61.462487 
L 342.009731 61.513569 
L 342.711047 61.564495 
L 343.411522 61.615972 
L 344.111997 61.667839 
L 344.813313 61.719406 
L 345.513788 61.770889 
L 346.214264 61.822111 
L 346.91558 61.872818 
L 347.616055 61.918668 
L 348.31653 61.963957 
L 349.017846 62.008203 
L 349.718321 62.050807 
L 350.418797 62.092569 
L 351.120113 62.133703 
L 351.820588 62.174217 
L 352.521063 62.214836 
L 353.222379 62.255879 
L 353.922854 62.297169 
L 354.62333 62.337963 
L 355.324646 62.378672 
L 356.025121 62.407061 
L 356.725596 62.435801 
L 357.426912 62.464481 
L 358.127387 62.493141 
L 358.827863 62.521741 
L 359.529179 62.549792 
L 360.229654 62.577646 
L 360.930129 62.605849 
L 361.631445 62.634545 
L 362.33192 62.662972 
L 363.032395 62.69107 
L 363.733712 62.717753 
L 364.434187 62.723737 
L 365.134662 62.727208 
L 365.835978 62.72989 
L 366.536453 62.732451 
L 367.236928 62.733855 
L 367.938245 62.734436 
L 368.63872 62.734584 
L 369.339195 62.734576 
L 370.040511 62.734507 
L 370.740986 62.734129 
L 371.441461 62.7334 
L 372.142778 62.732179 
L 372.843253 62.723251 
L 373.543728 62.713509 
L 374.245044 62.702795 
L 374.945519 62.689951 
L 375.645994 62.674667 
L 376.347311 62.65669 
L 377.047786 62.638636 
L 377.748261 62.619943 
L 378.449577 62.600875 
L 379.150052 62.581699 
L 379.850527 62.561432 
L 380.551843 62.541086 
L 381.252319 62.546866 
L 381.952794 62.556993 
L 382.65411 62.56797 
L 383.354585 62.579681 
L 384.05506 62.589221 
L 384.756376 62.598958 
L 385.456852 62.609616 
L 386.157327 62.621336 
L 386.858643 62.6339 
L 387.559118 62.64732 
L 388.259593 62.660825 
L 388.960909 62.674415 
L 389.661385 62.705995 
L 390.36186 62.738209 
L 391.063176 62.771399 
L 391.763651 62.804921 
L 392.464126 62.838592 
L 393.165442 62.872703 
L 393.865918 62.906721 
L 394.566393 63.0033 
L 395.267709 63.10085 
L 395.968184 63.199384 
L 396.668659 63.298979 
L 397.369975 63.40506 
L 398.070451 63.53883 
L 398.770926 63.671442 
L 399.472242 63.802169 
L 400.172717 63.932678 
L 400.873192 64.063492 
L 401.574508 64.193752 
L 402.274984 64.324007 
L 402.975459 64.454245 
L 403.676775 64.584472 
L 404.37725 64.71462 
L 405.077725 64.844756 
L 405.779041 64.974819 
L 406.479517 65.104873 
L 407.179992 65.190199 
L 407.881308 65.275519 
L 408.581783 65.360831 
L 409.282258 65.446137 
L 409.983574 65.531435 
L 410.68405 65.616725 
L 411.384525 65.702009 
L 412.085841 65.787288 
L 412.786316 65.872559 
L 413.486791 65.957824 
L 414.188107 66.043083 
L 414.188107 58.474115 
L 414.188107 58.474115 
L 413.486791 58.398886 
L 412.786316 58.323662 
L 412.085841 58.248444 
L 411.384525 58.173234 
L 410.68405 58.09803 
L 409.983574 58.022836 
L 409.282258 57.947646 
L 408.581783 57.872463 
L 407.881308 57.797286 
L 407.179992 57.722117 
L 406.479517 57.646954 
L 405.779041 57.529793 
L 405.077725 57.412645 
L 404.37725 57.295397 
L 403.676775 57.178159 
L 402.975459 57.060808 
L 402.274984 56.943469 
L 401.574508 56.826141 
L 400.873192 56.708823 
L 400.172717 56.590947 
L 399.472242 56.473407 
L 398.770926 56.3557 
L 398.070451 56.236156 
L 397.369975 56.115839 
L 396.668659 56.023403 
L 395.968184 55.937518 
L 395.267709 55.852947 
L 394.566393 55.769355 
L 393.865918 55.686722 
L 393.165442 55.661835 
L 392.464126 55.63692 
L 391.763651 55.612946 
L 391.063176 55.589241 
L 390.36186 55.565917 
L 389.661385 55.543771 
L 388.960909 55.522583 
L 388.259593 55.51988 
L 387.559118 55.517343 
L 386.858643 55.515155 
L 386.157327 55.515808 
L 385.456852 55.518078 
L 384.756376 55.522216 
L 384.05506 55.527911 
L 383.354585 55.534215 
L 382.65411 55.538315 
L 381.952794 55.543187 
L 381.252319 55.548499 
L 380.551843 55.556308 
L 379.850527 55.590645 
L 379.150052 55.624605 
L 378.449577 55.655319 
L 377.748261 55.685724 
L 377.047786 55.715648 
L 376.347311 55.74489 
L 375.645994 55.774076 
L 374.945519 55.801371 
L 374.245044 55.827174 
L 373.543728 55.852042 
L 372.843253 55.876285 
L 372.142778 55.899768 
L 371.441461 55.915746 
L 370.740986 55.931409 
L 370.040511 55.94665 
L 369.339195 55.960961 
L 368.63872 55.975217 
L 367.938245 55.988998 
L 367.236928 56.001535 
L 366.536453 56.012794 
L 365.835978 56.023494 
L 365.134662 56.034095 
L 364.434187 56.043522 
L 363.733712 56.049928 
L 363.032395 56.035534 
L 362.33192 56.019107 
L 361.631445 56.00224 
L 360.930129 55.985132 
L 360.229654 55.968786 
L 359.529179 55.952839 
L 358.827863 55.936715 
L 358.127387 55.920306 
L 357.426912 55.903876 
L 356.725596 55.8873 
L 356.025121 55.870697 
L 355.324646 55.854954 
L 354.62333 55.830775 
L 353.922854 55.806576 
L 353.222379 55.782144 
L 352.521063 55.757843 
L 351.820588 55.733771 
L 351.120113 55.709775 
L 350.418797 55.685537 
L 349.718321 55.661045 
L 349.017846 55.636139 
L 348.31653 55.610231 
L 347.616055 55.583891 
L 346.91558 55.557334 
L 346.214264 55.525586 
L 345.513788 55.493706 
L 344.813313 55.461764 
L 344.111997 55.429802 
L 343.411522 55.397717 
L 342.711047 55.365714 
L 342.009731 55.336017 
L 341.309255 55.306384 
L 340.60878 55.283197 
L 339.907464 55.260114 
L 339.206989 55.23714 
L 338.506514 55.214806 
L 337.805198 55.192351 
L 337.104722 55.16968 
L 336.404247 55.147046 
L 335.702931 55.1248 
L 335.002456 55.102976 
L 334.301981 55.081908 
L 333.600665 55.061156 
L 332.900189 55.040026 
L 332.199714 55.018936 
L 331.498398 54.998063 
L 330.797923 54.977487 
L 330.097448 54.957014 
L 329.396132 54.936783 
L 328.695656 54.916256 
L 327.995181 54.895592 
L 327.293865 54.875043 
L 326.59339 54.854614 
L 325.892915 54.839565 
L 325.191599 54.824144 
L 324.491124 54.808555 
L 323.790648 54.792958 
L 323.089332 54.777545 
L 322.388857 54.762195 
L 321.688382 54.746894 
L 320.987066 54.716553 
L 320.286591 54.686324 
L 319.586115 54.640523 
L 318.884799 54.595786 
L 318.184324 54.551397 
L 317.483849 54.508217 
L 316.782533 54.462869 
L 316.082058 54.416558 
L 315.381582 54.37043 
L 314.680266 54.32382 
L 313.979791 54.277029 
L 313.279316 54.230647 
L 312.578 54.186538 
L 311.877525 54.142141 
L 311.177049 54.086197 
L 310.475733 54.030129 
L 309.775258 53.974448 
L 309.074783 53.918759 
L 308.373467 53.863007 
L 307.672992 53.806929 
L 306.972516 53.750409 
L 306.2712 53.693736 
L 305.570725 53.637155 
L 304.87025 53.580169 
L 304.168934 53.520035 
L 303.468459 53.459679 
L 302.767983 53.398591 
L 302.066667 53.337536 
L 301.366192 53.277004 
L 300.665717 53.21718 
L 299.964401 53.157315 
L 299.263926 53.097 
L 298.56345 53.036205 
L 297.862134 52.97674 
L 297.161659 52.91885 
L 296.461184 52.861885 
L 295.759868 52.812352 
L 295.059393 52.763181 
L 294.358917 52.714106 
L 293.657601 52.666054 
L 292.957126 52.619167 
L 292.256651 52.573862 
L 291.555335 52.528933 
L 290.85486 52.484632 
L 290.154385 52.440649 
L 289.453068 52.397519 
L 288.752593 52.355356 
L 288.052118 52.314571 
L 287.350802 52.277059 
L 286.650327 52.240101 
L 285.949852 52.205046 
L 285.248535 52.17085 
L 284.54806 52.138065 
L 283.847585 52.105314 
L 283.146269 52.072439 
L 282.445794 52.039112 
L 281.745319 52.005291 
L 281.044002 51.97025 
L 280.343527 51.933462 
L 279.643052 51.896403 
L 278.941736 51.859206 
L 278.241261 51.822273 
L 277.540786 51.785074 
L 276.839469 51.747836 
L 276.138994 51.710242 
L 275.438519 51.673493 
L 274.737203 51.637273 
L 274.036728 51.60063 
L 273.336253 51.56376 
L 272.634937 51.5276 
L 271.934461 51.492545 
L 271.233986 51.457885 
L 270.53267 51.417226 
L 269.832195 51.374734 
L 269.13172 51.331541 
L 268.430404 51.290731 
L 267.729928 51.25014 
L 267.029453 51.211904 
L 266.328137 51.172725 
L 265.627662 51.132819 
L 264.927187 51.091546 
L 264.225871 51.049973 
L 263.525395 51.009752 
L 262.82492 50.969476 
L 262.123604 50.928989 
L 261.423129 50.888521 
L 260.722654 50.848076 
L 260.021338 50.807652 
L 259.320862 50.767253 
L 258.620387 50.745736 
L 257.919071 50.724243 
L 257.218596 50.707577 
L 256.518121 50.69094 
L 255.816805 50.674326 
L 255.116329 50.657748 
L 254.415854 50.641194 
L 253.714538 50.641959 
L 253.014063 50.642757 
L 252.313588 50.643596 
L 251.612272 50.644465 
L 250.911796 50.645375 
L 250.211321 50.646321 
L 249.510005 50.6473 
L 248.80953 50.648323 
L 248.109055 50.649379 
L 247.407739 50.650476 
L 246.707263 50.651611 
L 246.006788 50.652787 
L 245.305472 50.660939 
L 244.604997 50.669133 
L 243.904522 50.677367 
L 243.203206 50.685648 
L 242.50273 50.693968 
L 241.802255 50.702328 
L 241.100939 50.710736 
L 240.400464 50.719187 
L 239.699989 50.727684 
L 238.998673 50.736226 
L 238.298198 50.744817 
L 237.597722 50.753452 
L 236.896406 50.774473 
L 236.195931 50.79554 
L 235.495456 50.81666 
L 234.79414 50.837826 
L 234.093665 50.859044 
L 233.393189 50.880314 
L 232.691873 50.90164 
L 231.991398 50.923017 
L 231.290923 50.944449 
L 230.589607 50.965936 
L 229.889132 50.987478 
L 229.188656 51.009077 
L 228.48734 51.031008 
L 227.786865 51.053 
L 227.08639 51.075049 
L 226.385074 51.097161 
L 225.684599 51.119337 
L 224.984123 51.141572 
L 224.282807 51.163876 
L 223.582332 51.186246 
L 222.881857 51.208679 
L 222.180541 51.231186 
L 221.480066 51.253759 
L 220.77959 51.276406 
L 220.078274 51.295332 
L 219.377799 51.314332 
L 218.677324 51.333411 
L 217.976008 51.352565 
L 217.275533 51.3718 
L 216.575057 51.39111 
L 215.873741 51.410508 
L 215.173266 51.429987 
L 214.472791 51.449555 
L 213.771475 51.46921 
L 213.071 51.488953 
L 212.370524 51.508792 
L 211.669208 51.522004 
L 210.968733 51.535311 
L 210.268258 51.548714 
L 209.566942 51.562225 
L 208.866467 51.575839 
L 208.165991 51.589558 
L 207.464675 51.593333 
L 206.7642 51.597222 
L 206.063725 51.601228 
L 205.362409 51.605355 
L 204.661934 51.609602 
L 203.961458 51.613979 
L 203.260142 51.617313 
L 202.559667 51.620782 
L 201.859192 51.624385 
L 201.157876 51.628133 
L 200.457401 51.63203 
L 199.756926 51.63608 
L 199.055609 51.640289 
L 198.355134 51.635553 
L 197.654659 51.630988 
L 196.953343 51.626598 
L 196.252868 51.622394 
L 195.552393 51.618377 
L 194.851076 51.616342 
L 194.150601 51.614513 
L 193.450126 51.612898 
L 192.74881 51.611505 
L 192.048335 51.610345 
L 191.34786 51.609427 
L 190.646543 51.608763 
L 189.946068 51.608366 
L 189.245593 51.608248 
L 188.544277 51.608423 
L 187.843802 51.608906 
L 187.143327 51.609717 
L 186.44201 51.609131 
L 185.741535 51.608909 
L 185.04106 51.609079 
L 184.339744 51.609657 
L 183.639269 51.610677 
L 182.938794 51.612166 
L 182.237478 51.614162 
L 181.537002 51.616702 
L 180.836527 51.619833 
L 180.135211 51.623603 
L 179.434736 51.628076 
L 178.734261 51.633316 
L 178.032945 51.636159 
L 177.332469 51.639949 
L 176.631994 51.644797 
L 175.930678 51.650843 
L 175.230203 51.658263 
L 174.529728 51.667277 
L 173.828412 51.678174 
L 173.127936 51.692918 
L 172.427461 51.710294 
L 171.726145 51.748791 
L 171.02567 51.812311 
z
" clip-path="url(#p48c19a0627)" style="fill: #02818a; fill-opacity: 0.25"/>
   </g>
   <g id="matplotlib.axis_1">
    <g id="xtick_1">
     <g id="line2d_1">
      <defs>
       <path id="m4f47b9ebd4" d="M 0 0 
L 0 3.5 
" style="stroke: #000000; stroke-width: 0.8"/>
      </defs>
      <g>
       <use xlink:href="#m4f47b9ebd4" x="70.116878" y="186.84327" style="stroke: #000000; stroke-width: 0.8"/>
      </g>
     </g>
     <g id="text_1">
      <!-- 1980 -->
      <g transform="translate(57.391878 201.441708)scale(0.1 -0.1)">
       <defs>
        <path id="DejaVuSans-31" d="M 794 531 
L 1825 531 
L 1825 4091 
L 703 3866 
L 703 4441 
L 1819 4666 
L 2450 4666 
L 2450 531 
L 3481 531 
L 3481 0 
L 794 0 
L 794 531 
z
" transform="scale(0.015625)"/>
        <path id="DejaVuSans-39" d="M 703 97 
L 703 672 
Q 941 559 1184 500 
Q 1428 441 1663 441 
Q 2288 441 2617 861 
Q 2947 1281 2994 2138 
Q 2813 1869 2534 1725 
Q 2256 1581 1919 1581 
Q 1219 1581 811 2004 
Q 403 2428 403 3163 
Q 403 3881 828 4315 
Q 1253 4750 1959 4750 
Q 2769 4750 3195 4129 
Q 3622 3509 3622 2328 
Q 3622 1225 3098 567 
Q 2575 -91 1691 -91 
Q 1453 -91 1209 -44 
Q 966 3 703 97 
z
M 1959 2075 
Q 2384 2075 2632 2365 
Q 2881 2656 2881 3163 
Q 2881 3666 2632 3958 
Q 2384 4250 1959 4250 
Q 1534 4250 1286 3958 
Q 1038 3666 1038 3163 
Q 1038 2656 1286 2365 
Q 1534 2075 1959 2075 
z
" transform="scale(0.015625)"/>
        <path id="DejaVuSans-38" d="M 2034 2216 
Q 1584 2216 1326 1975 
Q 1069 1734 1069 1313 
Q 1069 891 1326 650 
Q 1584 409 2034 409 
Q 2484 409 2743 651 
Q 3003 894 3003 1313 
Q 3003 1734 2745 1975 
Q 2488 2216 2034 2216 
z
M 1403 2484 
Q 997 2584 770 2862 
Q 544 3141 544 3541 
Q 544 4100 942 4425 
Q 1341 4750 2034 4750 
Q 2731 4750 3128 4425 
Q 3525 4100 3525 3541 
Q 3525 3141 3298 2862 
Q 3072 2584 2669 2484 
Q 3125 2378 3379 2068 
Q 3634 1759 3634 1313 
Q 3634 634 3220 271 
Q 2806 -91 2034 -91 
Q 1263 -91 848 271 
Q 434 634 434 1313 
Q 434 1759 690 2068 
Q 947 2378 1403 2484 
z
M 1172 3481 
Q 1172 3119 1398 2916 
Q 1625 2713 2034 2713 
Q 2441 2713 2670 2916 
Q 2900 3119 2900 3481 
Q 2900 3844 2670 4047 
Q 2441 4250 2034 4250 
Q 1625 4250 1398 4047 
Q 1172 3844 1172 3481 
z
" transform="scale(0.015625)"/>
        <path id="DejaVuSans-30" d="M 2034 4250 
Q 1547 4250 1301 3770 
Q 1056 3291 1056 2328 
Q 1056 1369 1301 889 
Q 1547 409 2034 409 
Q 2525 409 2770 889 
Q 3016 1369 3016 2328 
Q 3016 3291 2770 3770 
Q 2525 4250 2034 4250 
z
M 2034 4750 
Q 2819 4750 3233 4129 
Q 3647 3509 3647 2328 
Q 3647 1150 3233 529 
Q 2819 -91 2034 -91 
Q 1250 -91 836 529 
Q 422 1150 422 2328 
Q 422 3509 836 4129 
Q 1250 4750 2034 4750 
z
" transform="scale(0.015625)"/>
       </defs>
       <use xlink:href="#DejaVuSans-31"/>
       <use xlink:href="#DejaVuSans-39" x="63.623047"/>
       <use xlink:href="#DejaVuSans-38" x="127.246094"/>
       <use xlink:href="#DejaVuSans-30" x="190.869141"/>
      </g>
     </g>
    </g>
    <g id="xtick_2">
     <g id="line2d_2">
      <g>
       <use xlink:href="#m4f47b9ebd4" x="112.162208" y="186.84327" style="stroke: #000000; stroke-width: 0.8"/>
      </g>
     </g>
     <g id="text_2">
      <!-- 1985 -->
      <g transform="translate(99.437208 201.441708)scale(0.1 -0.1)">
       <defs>
        <path id="DejaVuSans-35" d="M 691 4666 
L 3169 4666 
L 3169 4134 
L 1269 4134 
L 1269 2991 
Q 1406 3038 1543 3061 
Q 1681 3084 1819 3084 
Q 2600 3084 3056 2656 
Q 3513 2228 3513 1497 
Q 3513 744 3044 326 
Q 2575 -91 1722 -91 
Q 1428 -91 1123 -41 
Q 819 9 494 109 
L 494 744 
Q 775 591 1075 516 
Q 1375 441 1709 441 
Q 2250 441 2565 725 
Q 2881 1009 2881 1497 
Q 2881 1984 2565 2268 
Q 2250 2553 1709 2553 
Q 1456 2553 1204 2497 
Q 953 2441 691 2322 
L 691 4666 
z
" transform="scale(0.015625)"/>
       </defs>
       <use xlink:href="#DejaVuSans-31"/>
       <use xlink:href="#DejaVuSans-39" x="63.623047"/>
       <use xlink:href="#DejaVuSans-38" x="127.246094"/>
       <use xlink:href="#DejaVuSans-35" x="190.869141"/>
      </g>
     </g>
    </g>
    <g id="xtick_3">
     <g id="line2d_3">
      <g>
       <use xlink:href="#m4f47b9ebd4" x="154.207538" y="186.84327" style="stroke: #000000; stroke-width: 0.8"/>
      </g>
     </g>
     <g id="text_3">
      <!-- 1990 -->
      <g transform="translate(141.482538 201.441708)scale(0.1 -0.1)">
       <use xlink:href="#DejaVuSans-31"/>
       <use xlink:href="#DejaVuSans-39" x="63.623047"/>
       <use xlink:href="#DejaVuSans-39" x="127.246094"/>
       <use xlink:href="#DejaVuSans-30" x="190.869141"/>
      </g>
     </g>
    </g>
    <g id="xtick_4">
     <g id="line2d_4">
      <g>
       <use xlink:href="#m4f47b9ebd4" x="196.252868" y="186.84327" style="stroke: #000000; stroke-width: 0.8"/>
      </g>
     </g>
     <g id="text_4">
      <!-- 1995 -->
      <g transform="translate(183.527868 201.441708)scale(0.1 -0.1)">
       <use xlink:href="#DejaVuSans-31"/>
       <use xlink:href="#DejaVuSans-39" x="63.623047"/>
       <use xlink:href="#DejaVuSans-39" x="127.246094"/>
       <use xlink:href="#DejaVuSans-35" x="190.869141"/>
      </g>
     </g>
    </g>
    <g id="xtick_5">
     <g id="line2d_5">
      <g>
       <use xlink:href="#m4f47b9ebd4" x="238.298198" y="186.84327" style="stroke: #000000; stroke-width: 0.8"/>
      </g>
     </g>
     <g id="text_5">
      <!-- 2000 -->
      <g transform="translate(225.573198 201.441708)scale(0.1 -0.1)">
       <defs>
        <path id="DejaVuSans-32" d="M 1228 531 
L 3431 531 
L 3431 0 
L 469 0 
L 469 531 
Q 828 903 1448 1529 
Q 2069 2156 2228 2338 
Q 2531 2678 2651 2914 
Q 2772 3150 2772 3378 
Q 2772 3750 2511 3984 
Q 2250 4219 1831 4219 
Q 1534 4219 1204 4116 
Q 875 4013 500 3803 
L 500 4441 
Q 881 4594 1212 4672 
Q 1544 4750 1819 4750 
Q 2544 4750 2975 4387 
Q 3406 4025 3406 3419 
Q 3406 3131 3298 2873 
Q 3191 2616 2906 2266 
Q 2828 2175 2409 1742 
Q 1991 1309 1228 531 
z
" transform="scale(0.015625)"/>
       </defs>
       <use xlink:href="#DejaVuSans-32"/>
       <use xlink:href="#DejaVuSans-30" x="63.623047"/>
       <use xlink:href="#DejaVuSans-30" x="127.246094"/>
       <use xlink:href="#DejaVuSans-30" x="190.869141"/>
      </g>
     </g>
    </g>
    <g id="xtick_6">
     <g id="line2d_6">
      <g>
       <use xlink:href="#m4f47b9ebd4" x="280.343527" y="186.84327" style="stroke: #000000; stroke-width: 0.8"/>
      </g>
     </g>
     <g id="text_6">
      <!-- 2005 -->
      <g transform="translate(267.618527 201.441708)scale(0.1 -0.1)">
       <use xlink:href="#DejaVuSans-32"/>
       <use xlink:href="#DejaVuSans-30" x="63.623047"/>
       <use xlink:href="#DejaVuSans-30" x="127.246094"/>
       <use xlink:href="#DejaVuSans-35" x="190.869141"/>
      </g>
     </g>
    </g>
    <g id="xtick_7">
     <g id="line2d_7">
      <g>
       <use xlink:href="#m4f47b9ebd4" x="322.388857" y="186.84327" style="stroke: #000000; stroke-width: 0.8"/>
      </g>
     </g>
     <g id="text_7">
      <!-- 2010 -->
      <g transform="translate(309.663857 201.441708)scale(0.1 -0.1)">
       <use xlink:href="#DejaVuSans-32"/>
       <use xlink:href="#DejaVuSans-30" x="63.623047"/>
       <use xlink:href="#DejaVuSans-31" x="127.246094"/>
       <use xlink:href="#DejaVuSans-30" x="190.869141"/>
      </g>
     </g>
    </g>
    <g id="xtick_8">
     <g id="line2d_8">
      <g>
       <use xlink:href="#m4f47b9ebd4" x="364.434187" y="186.84327" style="stroke: #000000; stroke-width: 0.8"/>
      </g>
     </g>
     <g id="text_8">
      <!-- 2015 -->
      <g transform="translate(351.709187 201.441708)scale(0.1 -0.1)">
       <use xlink:href="#DejaVuSans-32"/>
       <use xlink:href="#DejaVuSans-30" x="63.623047"/>
       <use xlink:href="#DejaVuSans-31" x="127.246094"/>
       <use xlink:href="#DejaVuSans-35" x="190.869141"/>
      </g>
     </g>
    </g>
    <g id="xtick_9">
     <g id="line2d_9">
      <g>
       <use xlink:href="#m4f47b9ebd4" x="406.479517" y="186.84327" style="stroke: #000000; stroke-width: 0.8"/>
      </g>
     </g>
     <g id="text_9">
      <!-- 2020 -->
      <g transform="translate(393.754517 201.441708)scale(0.1 -0.1)">
       <use xlink:href="#DejaVuSans-32"/>
       <use xlink:href="#DejaVuSans-30" x="63.623047"/>
       <use xlink:href="#DejaVuSans-32" x="127.246094"/>
       <use xlink:href="#DejaVuSans-30" x="190.869141"/>
      </g>
     </g>
    </g>
    <g id="text_10">
     <!-- Year -->
     <g transform="translate(227.710698 215.119833)scale(0.1 -0.1)">
      <defs>
       <path id="DejaVuSans-59" d="M -13 4666 
L 666 4666 
L 1959 2747 
L 3244 4666 
L 3922 4666 
L 2272 2222 
L 2272 0 
L 1638 0 
L 1638 2222 
L -13 4666 
z
" transform="scale(0.015625)"/>
       <path id="DejaVuSans-65" d="M 3597 1894 
L 3597 1613 
L 953 1613 
Q 991 1019 1311 708 
Q 1631 397 2203 397 
Q 2534 397 2845 478 
Q 3156 559 3463 722 
L 3463 178 
Q 3153 47 2828 -22 
Q 2503 -91 2169 -91 
Q 1331 -91 842 396 
Q 353 884 353 1716 
Q 353 2575 817 3079 
Q 1281 3584 2069 3584 
Q 2775 3584 3186 3129 
Q 3597 2675 3597 1894 
z
M 3022 2063 
Q 3016 2534 2758 2815 
Q 2500 3097 2075 3097 
Q 1594 3097 1305 2825 
Q 1016 2553 972 2059 
L 3022 2063 
z
" transform="scale(0.015625)"/>
       <path id="DejaVuSans-61" d="M 2194 1759 
Q 1497 1759 1228 1600 
Q 959 1441 959 1056 
Q 959 750 1161 570 
Q 1363 391 1709 391 
Q 2188 391 2477 730 
Q 2766 1069 2766 1631 
L 2766 1759 
L 2194 1759 
z
M 3341 1997 
L 3341 0 
L 2766 0 
L 2766 531 
Q 2569 213 2275 61 
Q 1981 -91 1556 -91 
Q 1019 -91 701 211 
Q 384 513 384 1019 
Q 384 1609 779 1909 
Q 1175 2209 1959 2209 
L 2766 2209 
L 2766 2266 
Q 2766 2663 2505 2880 
Q 2244 3097 1772 3097 
Q 1472 3097 1187 3025 
Q 903 2953 641 2809 
L 641 3341 
Q 956 3463 1253 3523 
Q 1550 3584 1831 3584 
Q 2591 3584 2966 3190 
Q 3341 2797 3341 1997 
z
" transform="scale(0.015625)"/>
       <path id="DejaVuSans-72" d="M 2631 2963 
Q 2534 3019 2420 3045 
Q 2306 3072 2169 3072 
Q 1681 3072 1420 2755 
Q 1159 2438 1159 1844 
L 1159 0 
L 581 0 
L 581 3500 
L 1159 3500 
L 1159 2956 
Q 1341 3275 1631 3429 
Q 1922 3584 2338 3584 
Q 2397 3584 2469 3576 
Q 2541 3569 2628 3553 
L 2631 2963 
z
" transform="scale(0.015625)"/>
      </defs>
      <use xlink:href="#DejaVuSans-59"/>
      <use xlink:href="#DejaVuSans-65" x="47.833984"/>
      <use xlink:href="#DejaVuSans-61" x="109.357422"/>
      <use xlink:href="#DejaVuSans-72" x="170.636719"/>
     </g>
    </g>
   </g>
   <g id="matplotlib.axis_2">
    <g id="ytick_1">
     <g id="line2d_10">
      <defs>
       <path id="m515c5b5c13" d="M 0 0 
L -3.5 0 
" style="stroke: #000000; stroke-width: 0.8"/>
      </defs>
      <g>
       <use xlink:href="#m515c5b5c13" x="61.707813" y="186.84327" style="stroke: #000000; stroke-width: 0.8"/>
      </g>
     </g>
     <g id="text_11">
      <!-- 5000 -->
      <g transform="translate(20.878125 190.642489)scale(0.1 -0.1)">
       <defs>
        <path id="DejaVuSans-2212" d="M 678 2272 
L 4684 2272 
L 4684 1741 
L 678 1741 
L 678 2272 
z
" transform="scale(0.015625)"/>
       </defs>
       <use xlink:href="#DejaVuSans-2212"/>
       <use xlink:href="#DejaVuSans-35" x="83.789062"/>
       <use xlink:href="#DejaVuSans-30" x="147.412109"/>
       <use xlink:href="#DejaVuSans-30" x="211.035156"/>
       <use xlink:href="#DejaVuSans-30" x="274.658203"/>
      </g>
     </g>
    </g>
    <g id="ytick_2">
     <g id="line2d_11">
      <g>
       <use xlink:href="#m515c5b5c13" x="61.707813" y="159.422413" style="stroke: #000000; stroke-width: 0.8"/>
      </g>
     </g>
     <g id="text_12">
      <!-- 4000 -->
      <g transform="translate(20.878125 163.221631)scale(0.1 -0.1)">
       <defs>
        <path id="DejaVuSans-34" d="M 2419 4116 
L 825 1625 
L 2419 1625 
L 2419 4116 
z
M 2253 4666 
L 3047 4666 
L 3047 1625 
L 3713 1625 
L 3713 1100 
L 3047 1100 
L 3047 0 
L 2419 0 
L 2419 1100 
L 313 1100 
L 313 1709 
L 2253 4666 
z
" transform="scale(0.015625)"/>
       </defs>
       <use xlink:href="#DejaVuSans-2212"/>
       <use xlink:href="#DejaVuSans-34" x="83.789062"/>
       <use xlink:href="#DejaVuSans-30" x="147.412109"/>
       <use xlink:href="#DejaVuSans-30" x="211.035156"/>
       <use xlink:href="#DejaVuSans-30" x="274.658203"/>
      </g>
     </g>
    </g>
    <g id="ytick_3">
     <g id="line2d_12">
      <g>
       <use xlink:href="#m515c5b5c13" x="61.707813" y="132.001555" style="stroke: #000000; stroke-width: 0.8"/>
      </g>
     </g>
     <g id="text_13">
      <!-- 3000 -->
      <g transform="translate(20.878125 135.800774)scale(0.1 -0.1)">
       <defs>
        <path id="DejaVuSans-33" d="M 2597 2516 
Q 3050 2419 3304 2112 
Q 3559 1806 3559 1356 
Q 3559 666 3084 287 
Q 2609 -91 1734 -91 
Q 1441 -91 1130 -33 
Q 819 25 488 141 
L 488 750 
Q 750 597 1062 519 
Q 1375 441 1716 441 
Q 2309 441 2620 675 
Q 2931 909 2931 1356 
Q 2931 1769 2642 2001 
Q 2353 2234 1838 2234 
L 1294 2234 
L 1294 2753 
L 1863 2753 
Q 2328 2753 2575 2939 
Q 2822 3125 2822 3475 
Q 2822 3834 2567 4026 
Q 2313 4219 1838 4219 
Q 1578 4219 1281 4162 
Q 984 4106 628 3988 
L 628 4550 
Q 988 4650 1302 4700 
Q 1616 4750 1894 4750 
Q 2613 4750 3031 4423 
Q 3450 4097 3450 3541 
Q 3450 3153 3228 2886 
Q 3006 2619 2597 2516 
z
" transform="scale(0.015625)"/>
       </defs>
       <use xlink:href="#DejaVuSans-2212"/>
       <use xlink:href="#DejaVuSans-33" x="83.789062"/>
       <use xlink:href="#DejaVuSans-30" x="147.412109"/>
       <use xlink:href="#DejaVuSans-30" x="211.035156"/>
       <use xlink:href="#DejaVuSans-30" x="274.658203"/>
      </g>
     </g>
    </g>
    <g id="ytick_4">
     <g id="line2d_13">
      <g>
       <use xlink:href="#m515c5b5c13" x="61.707813" y="104.580698" style="stroke: #000000; stroke-width: 0.8"/>
      </g>
     </g>
     <g id="text_14">
      <!-- 2000 -->
      <g transform="translate(20.878125 108.379916)scale(0.1 -0.1)">
       <use xlink:href="#DejaVuSans-2212"/>
       <use xlink:href="#DejaVuSans-32" x="83.789062"/>
       <use xlink:href="#DejaVuSans-30" x="147.412109"/>
       <use xlink:href="#DejaVuSans-30" x="211.035156"/>
       <use xlink:href="#DejaVuSans-30" x="274.658203"/>
      </g>
     </g>
    </g>
    <g id="ytick_5">
     <g id="line2d_14">
      <g>
       <use xlink:href="#m515c5b5c13" x="61.707813" y="77.15984" style="stroke: #000000; stroke-width: 0.8"/>
      </g>
     </g>
     <g id="text_15">
      <!-- 1000 -->
      <g transform="translate(20.878125 80.959059)scale(0.1 -0.1)">
       <use xlink:href="#DejaVuSans-2212"/>
       <use xlink:href="#DejaVuSans-31" x="83.789062"/>
       <use xlink:href="#DejaVuSans-30" x="147.412109"/>
       <use xlink:href="#DejaVuSans-30" x="211.035156"/>
       <use xlink:href="#DejaVuSans-30" x="274.658203"/>
      </g>
     </g>
    </g>
    <g id="ytick_6">
     <g id="line2d_15">
      <g>
       <use xlink:href="#m515c5b5c13" x="61.707813" y="49.738983" style="stroke: #000000; stroke-width: 0.8"/>
      </g>
     </g>
     <g id="text_16">
      <!-- 0 -->
      <g transform="translate(48.345313 53.538201)scale(0.1 -0.1)">
       <use xlink:href="#DejaVuSans-30"/>
      </g>
     </g>
    </g>
    <g id="ytick_7">
     <g id="line2d_16">
      <g>
       <use xlink:href="#m515c5b5c13" x="61.707813" y="22.318125" style="stroke: #000000; stroke-width: 0.8"/>
      </g>
     </g>
     <g id="text_17">
      <!-- 1000 -->
      <g transform="translate(29.257812 26.117344)scale(0.1 -0.1)">
       <use xlink:href="#DejaVuSans-31"/>
       <use xlink:href="#DejaVuSans-30" x="63.623047"/>
       <use xlink:href="#DejaVuSans-30" x="127.246094"/>
       <use xlink:href="#DejaVuSans-30" x="190.869141"/>
      </g>
     </g>
    </g>
    <g id="text_18">
     <!-- Mass change [Gt] -->
     <g transform="translate(14.798438 148.483823)rotate(-90)scale(0.1 -0.1)">
      <defs>
       <path id="DejaVuSans-4d" d="M 628 4666 
L 1569 4666 
L 2759 1491 
L 3956 4666 
L 4897 4666 
L 4897 0 
L 4281 0 
L 4281 4097 
L 3078 897 
L 2444 897 
L 1241 4097 
L 1241 0 
L 628 0 
L 628 4666 
z
" transform="scale(0.015625)"/>
       <path id="DejaVuSans-73" d="M 2834 3397 
L 2834 2853 
Q 2591 2978 2328 3040 
Q 2066 3103 1784 3103 
Q 1356 3103 1142 2972 
Q 928 2841 928 2578 
Q 928 2378 1081 2264 
Q 1234 2150 1697 2047 
L 1894 2003 
Q 2506 1872 2764 1633 
Q 3022 1394 3022 966 
Q 3022 478 2636 193 
Q 2250 -91 1575 -91 
Q 1294 -91 989 -36 
Q 684 19 347 128 
L 347 722 
Q 666 556 975 473 
Q 1284 391 1588 391 
Q 1994 391 2212 530 
Q 2431 669 2431 922 
Q 2431 1156 2273 1281 
Q 2116 1406 1581 1522 
L 1381 1569 
Q 847 1681 609 1914 
Q 372 2147 372 2553 
Q 372 3047 722 3315 
Q 1072 3584 1716 3584 
Q 2034 3584 2315 3537 
Q 2597 3491 2834 3397 
z
" transform="scale(0.015625)"/>
       <path id="DejaVuSans-20" transform="scale(0.015625)"/>
       <path id="DejaVuSans-63" d="M 3122 3366 
L 3122 2828 
Q 2878 2963 2633 3030 
Q 2388 3097 2138 3097 
Q 1578 3097 1268 2742 
Q 959 2388 959 1747 
Q 959 1106 1268 751 
Q 1578 397 2138 397 
Q 2388 397 2633 464 
Q 2878 531 3122 666 
L 3122 134 
Q 2881 22 2623 -34 
Q 2366 -91 2075 -91 
Q 1284 -91 818 406 
Q 353 903 353 1747 
Q 353 2603 823 3093 
Q 1294 3584 2113 3584 
Q 2378 3584 2631 3529 
Q 2884 3475 3122 3366 
z
" transform="scale(0.015625)"/>
       <path id="DejaVuSans-68" d="M 3513 2113 
L 3513 0 
L 2938 0 
L 2938 2094 
Q 2938 2591 2744 2837 
Q 2550 3084 2163 3084 
Q 1697 3084 1428 2787 
Q 1159 2491 1159 1978 
L 1159 0 
L 581 0 
L 581 4863 
L 1159 4863 
L 1159 2956 
Q 1366 3272 1645 3428 
Q 1925 3584 2291 3584 
Q 2894 3584 3203 3211 
Q 3513 2838 3513 2113 
z
" transform="scale(0.015625)"/>
       <path id="DejaVuSans-6e" d="M 3513 2113 
L 3513 0 
L 2938 0 
L 2938 2094 
Q 2938 2591 2744 2837 
Q 2550 3084 2163 3084 
Q 1697 3084 1428 2787 
Q 1159 2491 1159 1978 
L 1159 0 
L 581 0 
L 581 3500 
L 1159 3500 
L 1159 2956 
Q 1366 3272 1645 3428 
Q 1925 3584 2291 3584 
Q 2894 3584 3203 3211 
Q 3513 2838 3513 2113 
z
" transform="scale(0.015625)"/>
       <path id="DejaVuSans-67" d="M 2906 1791 
Q 2906 2416 2648 2759 
Q 2391 3103 1925 3103 
Q 1463 3103 1205 2759 
Q 947 2416 947 1791 
Q 947 1169 1205 825 
Q 1463 481 1925 481 
Q 2391 481 2648 825 
Q 2906 1169 2906 1791 
z
M 3481 434 
Q 3481 -459 3084 -895 
Q 2688 -1331 1869 -1331 
Q 1566 -1331 1297 -1286 
Q 1028 -1241 775 -1147 
L 775 -588 
Q 1028 -725 1275 -790 
Q 1522 -856 1778 -856 
Q 2344 -856 2625 -561 
Q 2906 -266 2906 331 
L 2906 616 
Q 2728 306 2450 153 
Q 2172 0 1784 0 
Q 1141 0 747 490 
Q 353 981 353 1791 
Q 353 2603 747 3093 
Q 1141 3584 1784 3584 
Q 2172 3584 2450 3431 
Q 2728 3278 2906 2969 
L 2906 3500 
L 3481 3500 
L 3481 434 
z
" transform="scale(0.015625)"/>
       <path id="DejaVuSans-5b" d="M 550 4863 
L 1875 4863 
L 1875 4416 
L 1125 4416 
L 1125 -397 
L 1875 -397 
L 1875 -844 
L 550 -844 
L 550 4863 
z
" transform="scale(0.015625)"/>
       <path id="DejaVuSans-47" d="M 3809 666 
L 3809 1919 
L 2778 1919 
L 2778 2438 
L 4434 2438 
L 4434 434 
Q 4069 175 3628 42 
Q 3188 -91 2688 -91 
Q 1594 -91 976 548 
Q 359 1188 359 2328 
Q 359 3472 976 4111 
Q 1594 4750 2688 4750 
Q 3144 4750 3555 4637 
Q 3966 4525 4313 4306 
L 4313 3634 
Q 3963 3931 3569 4081 
Q 3175 4231 2741 4231 
Q 1884 4231 1454 3753 
Q 1025 3275 1025 2328 
Q 1025 1384 1454 906 
Q 1884 428 2741 428 
Q 3075 428 3337 486 
Q 3600 544 3809 666 
z
" transform="scale(0.015625)"/>
       <path id="DejaVuSans-74" d="M 1172 4494 
L 1172 3500 
L 2356 3500 
L 2356 3053 
L 1172 3053 
L 1172 1153 
Q 1172 725 1289 603 
Q 1406 481 1766 481 
L 2356 481 
L 2356 0 
L 1766 0 
Q 1100 0 847 248 
Q 594 497 594 1153 
L 594 3053 
L 172 3053 
L 172 3500 
L 594 3500 
L 594 4494 
L 1172 4494 
z
" transform="scale(0.015625)"/>
       <path id="DejaVuSans-5d" d="M 1947 4863 
L 1947 -844 
L 622 -844 
L 622 -397 
L 1369 -397 
L 1369 4416 
L 622 4416 
L 622 4863 
L 1947 4863 
z
" transform="scale(0.015625)"/>
      </defs>
      <use xlink:href="#DejaVuSans-4d"/>
      <use xlink:href="#DejaVuSans-61" x="86.279297"/>
      <use xlink:href="#DejaVuSans-73" x="147.558594"/>
      <use xlink:href="#DejaVuSans-73" x="199.658203"/>
      <use xlink:href="#DejaVuSans-20" x="251.757812"/>
      <use xlink:href="#DejaVuSans-63" x="283.544922"/>
      <use xlink:href="#DejaVuSans-68" x="338.525391"/>
      <use xlink:href="#DejaVuSans-61" x="401.904297"/>
      <use xlink:href="#DejaVuSans-6e" x="463.183594"/>
      <use xlink:href="#DejaVuSans-67" x="526.5625"/>
      <use xlink:href="#DejaVuSans-65" x="590.039062"/>
      <use xlink:href="#DejaVuSans-20" x="651.5625"/>
      <use xlink:href="#DejaVuSans-5b" x="683.349609"/>
      <use xlink:href="#DejaVuSans-47" x="722.363281"/>
      <use xlink:href="#DejaVuSans-74" x="799.853516"/>
      <use xlink:href="#DejaVuSans-5d" x="839.0625"/>
     </g>
    </g>
   </g>
   <g id="line2d_17">
    <path d="M 61.707813 49.824258 
L 81.328966 52.114386 
L 85.533499 52.200539 
L 90.438788 52.069651 
L 108.658431 50.970239 
L 113.563719 50.727174 
L 119.870519 50.679296 
L 124.775807 50.931749 
L 140.893184 51.859142 
L 145.798472 51.630559 
L 155.609049 51.140382 
L 159.813582 51.170859 
L 163.317359 51.423981 
L 170.324914 52.024996 
L 175.230203 52.260348 
L 185.741535 52.369019 
L 192.74909 52.544485 
L 202.559667 52.789965 
L 220.77931 52.540323 
L 226.385354 52.332427 
L 231.290643 51.939581 
L 236.896687 51.434831 
L 242.50273 51.293262 
L 263.525395 50.945845 
L 269.832195 50.94679 
L 278.942016 50.572818 
L 293.657882 50.026117 
L 299.964681 50.220266 
L 307.672992 50.373941 
L 318.184324 50.223861 
L 332.199434 49.885433 
L 337.104722 49.90963 
L 365.134942 51.084437 
L 368.63872 50.971286 
L 374.945519 50.447898 
L 385.456852 49.423381 
L 388.960629 49.275626 
L 397.369695 49.229314 
L 409.983294 49.273865 
L 423.297648 48.582185 
L 423.297648 48.582185 
" clip-path="url(#p48c19a0627)" style="fill: none; stroke: #d0d1e6; stroke-width: 1.5; stroke-linecap: square"/>
   </g>
   <g id="line2d_18">
    <path d="M 171.02567 52.071945 
L 182.237478 52.175766 
L 191.34786 52.26116 
L 203.961458 52.255096 
L 213.071 52.4462 
L 224.282807 52.477337 
L 229.188656 52.701703 
L 239.699989 53.356616 
L 254.415854 53.726255 
L 260.021338 54.068415 
L 264.927187 54.396959 
L 269.832195 54.75493 
L 283.847585 56.284948 
L 289.453068 56.913149 
L 296.461184 57.416714 
L 307.672992 58.203268 
L 324.491124 59.675741 
L 338.506514 60.338348 
L 348.31653 60.338402 
L 370.740986 60.583664 
L 381.952794 61.417809 
L 387.559118 61.841556 
L 394.566393 62.240362 
L 400.873192 63.172785 
L 414.188107 65.275104 
L 414.188107 65.275104 
" clip-path="url(#p48c19a0627)" style="fill: none; stroke: #67a9cf; stroke-width: 1.5; stroke-linecap: square"/>
   </g>
   <g id="line2d_19">
    <path d="M 171.02567 52.071945 
L 175.230203 52.244 
L 197.654659 52.850245 
L 206.7642 52.993612 
L 214.472791 52.979548 
L 249.510005 52.67637 
L 258.620387 52.88116 
L 262.82492 53.146813 
L 300.665717 55.838853 
L 314.680266 57.086458 
L 323.089332 57.618683 
L 336.404247 58.143919 
L 363.733712 59.38384 
L 373.543728 59.282775 
L 386.157327 59.068572 
L 391.763651 59.208934 
L 394.566393 59.386327 
L 398.770926 60.013571 
L 407.881308 61.536402 
L 414.188107 62.258599 
L 414.188107 62.258599 
" clip-path="url(#p48c19a0627)" style="fill: none; stroke: #02818a; stroke-width: 1.5; stroke-linecap: square"/>
   </g>
   <g id="patch_3">
    <path d="M 61.707813 186.84327 
L 61.707813 22.318125 
" style="fill: none; stroke: #000000; stroke-width: 0.8; stroke-linejoin: miter; stroke-linecap: square"/>
   </g>
   <g id="patch_4">
    <path d="M 414.888583 186.84327 
L 414.888583 22.318125 
" style="fill: none; stroke: #000000; stroke-width: 0.8; stroke-linejoin: miter; stroke-linecap: square"/>
   </g>
   <g id="patch_5">
    <path d="M 61.707813 186.84327 
L 414.888583 186.84327 
" style="fill: none; stroke: #000000; stroke-width: 0.8; stroke-linejoin: miter; stroke-linecap: square"/>
   </g>
   <g id="patch_6">
    <path d="M 61.707813 22.318125 
L 414.888583 22.318125 
" style="fill: none; stroke: #000000; stroke-width: 0.8; stroke-linejoin: miter; stroke-linecap: square"/>
   </g>
   <g id="text_19">
    <!-- Antarctic Peninsula -->
    <g transform="translate(180.870698 16.318125)scale(0.12 -0.12)">
     <defs>
      <path id="DejaVuSans-41" d="M 2188 4044 
L 1331 1722 
L 3047 1722 
L 2188 4044 
z
M 1831 4666 
L 2547 4666 
L 4325 0 
L 3669 0 
L 3244 1197 
L 1141 1197 
L 716 0 
L 50 0 
L 1831 4666 
z
" transform="scale(0.015625)"/>
      <path id="DejaVuSans-69" d="M 603 3500 
L 1178 3500 
L 1178 0 
L 603 0 
L 603 3500 
z
M 603 4863 
L 1178 4863 
L 1178 4134 
L 603 4134 
L 603 4863 
z
" transform="scale(0.015625)"/>
      <path id="DejaVuSans-50" d="M 1259 4147 
L 1259 2394 
L 2053 2394 
Q 2494 2394 2734 2622 
Q 2975 2850 2975 3272 
Q 2975 3691 2734 3919 
Q 2494 4147 2053 4147 
L 1259 4147 
z
M 628 4666 
L 2053 4666 
Q 2838 4666 3239 4311 
Q 3641 3956 3641 3272 
Q 3641 2581 3239 2228 
Q 2838 1875 2053 1875 
L 1259 1875 
L 1259 0 
L 628 0 
L 628 4666 
z
" transform="scale(0.015625)"/>
      <path id="DejaVuSans-75" d="M 544 1381 
L 544 3500 
L 1119 3500 
L 1119 1403 
Q 1119 906 1312 657 
Q 1506 409 1894 409 
Q 2359 409 2629 706 
Q 2900 1003 2900 1516 
L 2900 3500 
L 3475 3500 
L 3475 0 
L 2900 0 
L 2900 538 
Q 2691 219 2414 64 
Q 2138 -91 1772 -91 
Q 1169 -91 856 284 
Q 544 659 544 1381 
z
M 1991 3584 
L 1991 3584 
z
" transform="scale(0.015625)"/>
      <path id="DejaVuSans-6c" d="M 603 4863 
L 1178 4863 
L 1178 0 
L 603 0 
L 603 4863 
z
" transform="scale(0.015625)"/>
     </defs>
     <use xlink:href="#DejaVuSans-41"/>
     <use xlink:href="#DejaVuSans-6e" x="68.408203"/>
     <use xlink:href="#DejaVuSans-74" x="131.787109"/>
     <use xlink:href="#DejaVuSans-61" x="170.996094"/>
     <use xlink:href="#DejaVuSans-72" x="232.275391"/>
     <use xlink:href="#DejaVuSans-63" x="271.138672"/>
     <use xlink:href="#DejaVuSans-74" x="326.119141"/>
     <use xlink:href="#DejaVuSans-69" x="365.328125"/>
     <use xlink:href="#DejaVuSans-63" x="393.111328"/>
     <use xlink:href="#DejaVuSans-20" x="448.091797"/>
     <use xlink:href="#DejaVuSans-50" x="479.878906"/>
     <use xlink:href="#DejaVuSans-65" x="536.556641"/>
     <use xlink:href="#DejaVuSans-6e" x="598.080078"/>
     <use xlink:href="#DejaVuSans-69" x="661.458984"/>
     <use xlink:href="#DejaVuSans-6e" x="689.242188"/>
     <use xlink:href="#DejaVuSans-73" x="752.621094"/>
     <use xlink:href="#DejaVuSans-75" x="804.720703"/>
     <use xlink:href="#DejaVuSans-6c" x="868.099609"/>
     <use xlink:href="#DejaVuSans-61" x="895.882812"/>
    </g>
   </g>
   <g id="legend_1">
    <g id="patch_7">
     <path d="M 421.888583 128.097885 
L 503.19952 128.097885 
Q 505.19952 128.097885 505.19952 126.097885 
L 505.19952 83.06351 
Q 505.19952 81.06351 503.19952 81.06351 
L 421.888583 81.06351 
Q 419.888583 81.06351 419.888583 83.06351 
L 419.888583 126.097885 
Q 419.888583 128.097885 421.888583 128.097885 
z
" style="fill: #ffffff; opacity: 0.8; stroke: #cccccc; stroke-linejoin: miter"/>
    </g>
    <g id="line2d_20">
     <path d="M 423.888583 89.161948 
L 433.888583 89.161948 
L 443.888583 89.161948 
" style="fill: none; stroke: #d0d1e6; stroke-width: 1.5; stroke-linecap: square"/>
    </g>
    <g id="text_20">
     <!-- Surface -->
     <g transform="translate(451.888583 92.661948)scale(0.1 -0.1)">
      <defs>
       <path id="DejaVuSans-53" d="M 3425 4513 
L 3425 3897 
Q 3066 4069 2747 4153 
Q 2428 4238 2131 4238 
Q 1616 4238 1336 4038 
Q 1056 3838 1056 3469 
Q 1056 3159 1242 3001 
Q 1428 2844 1947 2747 
L 2328 2669 
Q 3034 2534 3370 2195 
Q 3706 1856 3706 1288 
Q 3706 609 3251 259 
Q 2797 -91 1919 -91 
Q 1588 -91 1214 -16 
Q 841 59 441 206 
L 441 856 
Q 825 641 1194 531 
Q 1563 422 1919 422 
Q 2459 422 2753 634 
Q 3047 847 3047 1241 
Q 3047 1584 2836 1778 
Q 2625 1972 2144 2069 
L 1759 2144 
Q 1053 2284 737 2584 
Q 422 2884 422 3419 
Q 422 4038 858 4394 
Q 1294 4750 2059 4750 
Q 2388 4750 2728 4690 
Q 3069 4631 3425 4513 
z
" transform="scale(0.015625)"/>
       <path id="DejaVuSans-66" d="M 2375 4863 
L 2375 4384 
L 1825 4384 
Q 1516 4384 1395 4259 
Q 1275 4134 1275 3809 
L 1275 3500 
L 2222 3500 
L 2222 3053 
L 1275 3053 
L 1275 0 
L 697 0 
L 697 3053 
L 147 3053 
L 147 3500 
L 697 3500 
L 697 3744 
Q 697 4328 969 4595 
Q 1241 4863 1831 4863 
L 2375 4863 
z
" transform="scale(0.015625)"/>
      </defs>
      <use xlink:href="#DejaVuSans-53"/>
      <use xlink:href="#DejaVuSans-75" x="63.476562"/>
      <use xlink:href="#DejaVuSans-72" x="126.855469"/>
      <use xlink:href="#DejaVuSans-66" x="167.96875"/>
      <use xlink:href="#DejaVuSans-61" x="203.173828"/>
      <use xlink:href="#DejaVuSans-63" x="264.453125"/>
      <use xlink:href="#DejaVuSans-65" x="319.433594"/>
     </g>
    </g>
    <g id="line2d_21">
     <path d="M 423.888583 103.840073 
L 433.888583 103.840073 
L 443.888583 103.840073 
" style="fill: none; stroke: #67a9cf; stroke-width: 1.5; stroke-linecap: square"/>
    </g>
    <g id="text_21">
     <!-- Dynamics -->
     <g transform="translate(451.888583 107.340073)scale(0.1 -0.1)">
      <defs>
       <path id="DejaVuSans-44" d="M 1259 4147 
L 1259 519 
L 2022 519 
Q 2988 519 3436 956 
Q 3884 1394 3884 2338 
Q 3884 3275 3436 3711 
Q 2988 4147 2022 4147 
L 1259 4147 
z
M 628 4666 
L 1925 4666 
Q 3281 4666 3915 4102 
Q 4550 3538 4550 2338 
Q 4550 1131 3912 565 
Q 3275 0 1925 0 
L 628 0 
L 628 4666 
z
" transform="scale(0.015625)"/>
       <path id="DejaVuSans-79" d="M 2059 -325 
Q 1816 -950 1584 -1140 
Q 1353 -1331 966 -1331 
L 506 -1331 
L 506 -850 
L 844 -850 
Q 1081 -850 1212 -737 
Q 1344 -625 1503 -206 
L 1606 56 
L 191 3500 
L 800 3500 
L 1894 763 
L 2988 3500 
L 3597 3500 
L 2059 -325 
z
" transform="scale(0.015625)"/>
       <path id="DejaVuSans-6d" d="M 3328 2828 
Q 3544 3216 3844 3400 
Q 4144 3584 4550 3584 
Q 5097 3584 5394 3201 
Q 5691 2819 5691 2113 
L 5691 0 
L 5113 0 
L 5113 2094 
Q 5113 2597 4934 2840 
Q 4756 3084 4391 3084 
Q 3944 3084 3684 2787 
Q 3425 2491 3425 1978 
L 3425 0 
L 2847 0 
L 2847 2094 
Q 2847 2600 2669 2842 
Q 2491 3084 2119 3084 
Q 1678 3084 1418 2786 
Q 1159 2488 1159 1978 
L 1159 0 
L 581 0 
L 581 3500 
L 1159 3500 
L 1159 2956 
Q 1356 3278 1631 3431 
Q 1906 3584 2284 3584 
Q 2666 3584 2933 3390 
Q 3200 3197 3328 2828 
z
" transform="scale(0.015625)"/>
      </defs>
      <use xlink:href="#DejaVuSans-44"/>
      <use xlink:href="#DejaVuSans-79" x="77.001953"/>
      <use xlink:href="#DejaVuSans-6e" x="136.181641"/>
      <use xlink:href="#DejaVuSans-61" x="199.560547"/>
      <use xlink:href="#DejaVuSans-6d" x="260.839844"/>
      <use xlink:href="#DejaVuSans-69" x="358.251953"/>
      <use xlink:href="#DejaVuSans-63" x="386.035156"/>
      <use xlink:href="#DejaVuSans-73" x="441.015625"/>
     </g>
    </g>
    <g id="line2d_22">
     <path d="M 423.888583 118.518198 
L 433.888583 118.518198 
L 443.888583 118.518198 
" style="fill: none; stroke: #02818a; stroke-width: 1.5; stroke-linecap: square"/>
    </g>
    <g id="text_22">
     <!-- Total -->
     <g transform="translate(451.888583 122.018198)scale(0.1 -0.1)">
      <defs>
       <path id="DejaVuSans-54" d="M -19 4666 
L 3928 4666 
L 3928 4134 
L 2272 4134 
L 2272 0 
L 1638 0 
L 1638 4134 
L -19 4134 
L -19 4666 
z
" transform="scale(0.015625)"/>
       <path id="DejaVuSans-6f" d="M 1959 3097 
Q 1497 3097 1228 2736 
Q 959 2375 959 1747 
Q 959 1119 1226 758 
Q 1494 397 1959 397 
Q 2419 397 2687 759 
Q 2956 1122 2956 1747 
Q 2956 2369 2687 2733 
Q 2419 3097 1959 3097 
z
M 1959 3584 
Q 2709 3584 3137 3096 
Q 3566 2609 3566 1747 
Q 3566 888 3137 398 
Q 2709 -91 1959 -91 
Q 1206 -91 779 398 
Q 353 888 353 1747 
Q 353 2609 779 3096 
Q 1206 3584 1959 3584 
z
" transform="scale(0.015625)"/>
      </defs>
      <use xlink:href="#DejaVuSans-54"/>
      <use xlink:href="#DejaVuSans-6f" x="44.083984"/>
      <use xlink:href="#DejaVuSans-74" x="105.265625"/>
      <use xlink:href="#DejaVuSans-61" x="144.474609"/>
      <use xlink:href="#DejaVuSans-6c" x="205.753906"/>
     </g>
    </g>
   </g>
  </g>
 </g>
 <defs>
  <clipPath id="p48c19a0627">
   <rect x="61.707813" y="22.318125" width="353.18077" height="164.525145"/>
  </clipPath>
 </defs>
</svg>
