<?xml version="1.0" encoding="utf-8" standalone="no"?>
<!DOCTYPE svg PUBLIC "-//W3C//DTD SVG 1.1//EN"
  "http://www.w3.org/Graphics/SVG/1.1/DTD/svg11.dtd">
<svg xmlns:xlink="http://www.w3.org/1999/xlink" width="512.39952pt" height="224.39952pt" viewBox="0 0 512.39952 224.39952" xmlns="http://www.w3.org/2000/svg" version="1.1">
 <metadata>
  <rdf:RDF xmlns:dc="http://purl.org/dc/elements/1.1/" xmlns:cc="http://creativecommons.org/ns#" xmlns:rdf="http://www.w3.org/1999/02/22-rdf-syntax-ns#">
   <cc:Work>
    <dc:type rdf:resource="http://purl.org/dc/dcmitype/StillImage"/>
    <dc:date>2023-02-06T11:00:47.633334</dc:date>
    <dc:format>image/svg+xml</dc:format>
    <dc:creator>
     <cc:Agent>
      <dc:title>Matplotlib v3.6.2, https://matplotlib.org/</dc:title>
     </cc:Agent>
    </dc:creator>
   </cc:Work>
  </rdf:RDF>
 </metadata>
 <defs>
  <style type="text/css">*{stroke-linejoin: round; stroke-linecap: butt}</style>
 </defs>
 <g id="figure_1">
  <g id="patch_1">
   <path d="M 0 224.39952 
L 512.39952 224.39952 
L 512.39952 0 
L 0 0 
z
" style="fill: #ffffff"/>
  </g>
  <g id="axes_1">
   <g id="patch_2">
    <path d="M 61.707813 186.84327 
L 414.888583 186.84327 
L 414.888583 22.318125 
L 61.707813 22.318125 
z
" style="fill: #ffffff"/>
   </g>
   <g id="PolyCollection_1">
    <path d="M 61.707813 48.719508 
L 61.707813 50.754831 
L 62.408288 50.753018 
L 63.109604 51.172734 
L 63.810079 51.494371 
L 64.510554 51.76524 
L 65.21187 52.003664 
L 65.912345 52.219042 
L 66.612821 52.416956 
L 67.314137 52.601045 
L 68.014612 52.773835 
L 68.715087 52.937166 
L 69.416403 53.092426 
L 70.116878 53.065857 
L 70.817354 52.920089 
L 71.51867 52.774055 
L 72.219145 52.627761 
L 72.91962 52.481215 
L 73.620936 52.334423 
L 74.321411 52.18739 
L 75.021887 52.040122 
L 75.723203 51.892625 
L 76.423678 51.744904 
L 77.124153 51.596964 
L 77.825469 51.44881 
L 78.525944 50.996255 
L 79.22642 50.549744 
L 79.927736 50.102935 
L 80.628211 49.655835 
L 81.328686 49.208451 
L 82.030002 48.760791 
L 82.730477 48.312861 
L 83.430953 47.864668 
L 84.132269 47.416218 
L 84.832744 46.967517 
L 85.533219 46.51857 
L 86.234535 46.069383 
L 86.93501 45.947818 
L 87.635486 45.820802 
L 88.336802 45.69363 
L 89.037277 45.566304 
L 89.737752 45.438829 
L 90.439068 45.311205 
L 91.139543 45.183436 
L 91.840019 45.055524 
L 92.541335 44.927472 
L 93.24181 44.799282 
L 93.942285 44.670956 
L 94.643601 44.542496 
L 95.344076 44.620517 
L 96.044552 44.696199 
L 96.745868 44.771777 
L 97.446343 44.84725 
L 98.146818 44.922622 
L 98.848134 44.997892 
L 99.548609 45.073063 
L 100.249084 45.148135 
L 100.950401 45.223111 
L 101.650876 45.297991 
L 102.351351 45.372777 
L 103.052667 45.44747 
L 103.753142 45.374767 
L 104.453617 45.305171 
L 105.154934 45.235455 
L 105.855409 45.165623 
L 106.555884 45.095676 
L 107.2572 45.025614 
L 107.957675 44.955441 
L 108.65815 44.885157 
L 109.359467 44.814764 
L 110.059942 44.744264 
L 110.760417 44.673657 
L 111.461733 44.602946 
L 112.162208 44.581483 
L 112.862683 44.558602 
L 113.564 44.535632 
L 114.264475 44.512574 
L 114.96495 44.489428 
L 115.666266 44.466197 
L 116.366741 44.442881 
L 117.067216 44.419481 
L 117.768532 44.395998 
L 118.469008 44.372433 
L 119.169483 44.348788 
L 119.870799 44.325062 
L 120.571274 44.239805 
L 121.271749 44.154027 
L 121.973065 44.068176 
L 122.673541 43.982251 
L 123.374016 43.896254 
L 124.075332 43.810185 
L 124.775807 43.724045 
L 125.476282 43.637836 
L 126.177598 43.551557 
L 126.878074 43.465209 
L 127.578549 43.378793 
L 128.279865 43.292311 
L 128.98034 43.625811 
L 129.680815 43.954572 
L 130.382131 44.283296 
L 131.082607 44.611983 
L 131.783082 44.940633 
L 132.484398 45.269247 
L 133.184873 45.597825 
L 133.885348 45.926366 
L 134.586664 46.254873 
L 135.28714 46.583343 
L 135.987615 46.911779 
L 136.688931 47.24018 
L 137.389406 47.505075 
L 138.089881 47.770149 
L 138.791197 48.035188 
L 139.491673 48.300192 
L 140.192148 48.565162 
L 140.893464 48.830097 
L 141.593939 49.094998 
L 142.294414 49.359865 
L 142.99573 49.624698 
L 143.696206 49.889498 
L 144.396681 50.154265 
L 145.097997 50.418999 
L 145.798472 50.493017 
L 146.498947 50.570137 
L 147.200263 50.647209 
L 147.900739 50.724233 
L 148.601214 50.80121 
L 149.30253 50.878139 
L 150.003005 50.955021 
L 150.70348 51.031858 
L 151.404796 51.108648 
L 152.105271 51.185392 
L 152.805747 51.262091 
L 153.507063 51.338746 
L 154.207538 51.358693 
L 154.908013 51.378842 
L 155.609329 51.398946 
L 156.309804 51.419006 
L 157.01028 51.439021 
L 157.711596 51.458992 
L 158.412071 51.478919 
L 159.112546 51.498803 
L 159.813862 51.518644 
L 160.514337 51.538442 
L 161.214813 51.558198 
L 161.916129 51.577912 
L 162.616604 51.526224 
L 163.317079 51.47431 
L 164.018395 51.422355 
L 164.71887 51.37036 
L 165.419346 51.318326 
L 166.120662 51.266253 
L 166.821137 51.214141 
L 167.521612 51.16199 
L 168.222928 51.1098 
L 168.923403 51.057573 
L 169.623879 51.005308 
L 170.325195 50.953005 
L 171.02567 50.743515 
L 171.726145 50.53674 
L 172.427461 50.329914 
L 173.127936 50.123038 
L 173.828412 49.916111 
L 174.529728 49.709135 
L 175.230203 49.50211 
L 175.930678 49.295035 
L 176.631994 49.087913 
L 177.332469 48.880742 
L 178.032945 48.673523 
L 178.734261 48.466258 
L 179.434736 48.49609 
L 180.135211 48.523256 
L 180.836527 48.550389 
L 181.537002 48.577487 
L 182.237478 48.604553 
L 182.938794 48.631586 
L 183.639269 48.658587 
L 184.339744 48.685554 
L 185.04106 48.71249 
L 185.741535 48.739394 
L 186.44201 48.766265 
L 187.143327 48.793105 
L 187.843802 49.119203 
L 188.544277 49.442002 
L 189.245593 49.764781 
L 189.946068 50.087542 
L 190.646543 50.410285 
L 191.34786 50.733009 
L 192.048335 51.055714 
L 192.74881 51.378402 
L 193.450126 51.701071 
L 194.150601 52.023722 
L 194.851076 52.346354 
L 195.552393 52.668969 
L 196.252868 52.679483 
L 196.953343 52.692587 
L 197.654659 52.705664 
L 198.355134 52.718713 
L 199.055609 52.731737 
L 199.756926 52.744733 
L 200.457401 52.757704 
L 201.157876 52.770648 
L 201.859192 52.783567 
L 202.559667 52.796459 
L 203.260142 52.809326 
L 203.961458 52.822168 
L 204.661934 52.753142 
L 205.362409 52.685254 
L 206.063725 52.617337 
L 206.7642 52.54939 
L 207.464675 52.481414 
L 208.165991 52.413409 
L 208.866467 52.345375 
L 209.566942 52.277312 
L 210.268258 52.209221 
L 210.968733 52.141101 
L 211.669208 52.072953 
L 212.370524 52.004777 
L 213.071 52.321186 
L 213.771475 52.634067 
L 214.472791 52.946932 
L 215.173266 53.259781 
L 215.873741 53.572615 
L 216.575057 53.885433 
L 217.275533 54.198236 
L 217.976008 54.511023 
L 218.677324 54.823795 
L 219.377799 55.136552 
L 220.078274 55.449293 
L 220.77959 55.76202 
L 221.480066 55.742278 
L 222.180541 55.725952 
L 222.881857 55.709601 
L 223.582332 55.693223 
L 224.282807 55.676819 
L 224.984123 55.66039 
L 225.684599 55.643935 
L 226.385074 55.627454 
L 227.08639 55.610948 
L 227.786865 55.594418 
L 228.48734 55.577862 
L 229.188656 55.561281 
L 229.889132 55.82794 
L 230.589607 56.092103 
L 231.290923 56.356251 
L 231.991398 56.620381 
L 232.691873 56.884495 
L 233.393189 57.148593 
L 234.093665 57.412675 
L 234.79414 57.676741 
L 235.495456 57.94079 
L 236.195931 58.204824 
L 236.896406 58.468841 
L 237.597722 58.732843 
L 238.298198 58.945243 
L 238.998673 59.158706 
L 239.699989 59.372151 
L 240.400464 59.585577 
L 241.100939 59.798984 
L 241.802255 60.012372 
L 242.50273 60.225742 
L 243.203206 60.439093 
L 243.904522 60.652426 
L 244.604997 60.865741 
L 245.305472 61.079038 
L 246.006788 61.292316 
L 246.707263 61.063422 
L 247.407739 60.837586 
L 248.109055 60.611721 
L 248.80953 60.385829 
L 249.510005 60.159908 
L 250.211321 59.93396 
L 250.911796 59.707984 
L 251.612272 59.481981 
L 252.313588 59.255951 
L 253.014063 59.029893 
L 253.714538 58.803809 
L 254.415854 58.577697 
L 255.116329 58.51293 
L 255.816805 58.446109 
L 256.518121 58.379268 
L 257.218596 58.312408 
L 257.919071 58.245529 
L 258.620387 58.17863 
L 259.320862 58.111711 
L 260.021338 58.044774 
L 260.722654 57.977817 
L 261.423129 57.910841 
L 262.123604 57.843847 
L 262.82492 57.776834 
L 263.525395 57.997504 
L 264.225871 58.216407 
L 264.927187 58.435296 
L 265.627662 58.654172 
L 266.328137 58.873034 
L 267.029453 59.091882 
L 267.729928 59.310717 
L 268.430404 59.529538 
L 269.13172 59.748346 
L 269.832195 59.967141 
L 270.53267 60.185922 
L 271.233986 60.40469 
L 271.934461 60.387844 
L 272.634937 60.373874 
L 273.336253 60.359884 
L 274.036728 60.345872 
L 274.737203 60.331839 
L 275.438519 60.317785 
L 276.138994 60.30371 
L 276.839469 60.289615 
L 277.540786 60.275499 
L 278.241261 60.261362 
L 278.941736 60.247204 
L 279.643052 60.233027 
L 280.343527 60.122575 
L 281.044002 60.013082 
L 281.745319 59.903566 
L 282.445794 59.794027 
L 283.146269 59.684465 
L 283.847585 59.57488 
L 284.54806 59.465272 
L 285.248535 59.355642 
L 285.949852 59.245989 
L 286.650327 59.136314 
L 287.350802 59.026616 
L 288.052118 58.916896 
L 288.752593 58.982333 
L 289.453068 59.044943 
L 290.154385 59.107539 
L 290.85486 59.170122 
L 291.555335 59.23269 
L 292.256651 59.295245 
L 292.957126 59.357785 
L 293.657601 59.420312 
L 294.358917 59.482826 
L 295.059393 59.545326 
L 295.759868 59.607812 
L 296.461184 59.670285 
L 297.161659 59.903515 
L 297.862134 60.135613 
L 298.56345 60.3677 
L 299.263926 60.599776 
L 299.964401 60.831842 
L 300.665717 61.063897 
L 301.366192 61.295941 
L 302.066667 61.527975 
L 302.767983 61.759998 
L 303.468459 61.992011 
L 304.168934 62.224013 
L 304.87025 62.456005 
L 305.570725 62.546265 
L 306.2712 62.63781 
L 306.972516 62.729342 
L 307.672992 62.820861 
L 308.373467 62.912366 
L 309.074783 63.003858 
L 309.775258 63.095337 
L 310.475733 63.186803 
L 311.177049 63.278256 
L 311.877525 63.369696 
L 312.578 63.461123 
L 313.279316 63.552538 
L 313.979791 63.172837 
L 314.680266 62.795795 
L 315.381582 62.418733 
L 316.082058 62.041651 
L 316.782533 61.66455 
L 317.483849 61.287429 
L 318.184324 60.910289 
L 318.884799 60.533129 
L 319.586115 60.15595 
L 320.286591 59.778752 
L 320.987066 59.401535 
L 321.688382 59.024298 
L 322.388857 59.130881 
L 323.089332 59.234773 
L 323.790648 59.338653 
L 324.491124 59.442521 
L 325.191599 59.546377 
L 325.892915 59.650221 
L 326.59339 59.754053 
L 327.293865 59.857874 
L 327.995181 59.961682 
L 328.695656 60.06548 
L 329.396132 60.169265 
L 330.097448 60.273039 
L 330.797923 60.097074 
L 331.498398 59.921659 
L 332.199714 59.74623 
L 332.900189 59.570789 
L 333.600665 59.395335 
L 334.301981 59.219868 
L 335.002456 59.044389 
L 335.702931 58.868897 
L 336.404247 58.693393 
L 337.104722 58.517876 
L 337.805198 58.342347 
L 338.506514 58.166806 
L 339.206989 58.309746 
L 339.907464 58.451226 
L 340.60878 58.592698 
L 341.309255 58.73416 
L 342.009731 58.875613 
L 342.711047 59.017056 
L 343.411522 59.158491 
L 344.111997 59.299917 
L 344.813313 59.441333 
L 345.513788 59.582741 
L 346.214264 59.724139 
L 346.91558 59.865529 
L 347.616055 59.846355 
L 348.31653 59.828358 
L 349.017846 59.810349 
L 349.718321 59.792329 
L 350.418797 59.774298 
L 351.120113 59.756256 
L 351.820588 59.738202 
L 352.521063 59.720137 
L 353.222379 59.702062 
L 353.922854 59.683975 
L 354.62333 59.665877 
L 355.324646 59.647768 
L 356.025121 60.075855 
L 356.725596 60.501646 
L 357.426912 60.92743 
L 358.127387 61.353208 
L 358.827863 61.778979 
L 359.529179 62.204743 
L 360.229654 62.630501 
L 360.930129 63.056253 
L 361.631445 63.481998 
L 362.33192 63.907736 
L 363.032395 64.333468 
L 363.733712 64.759193 
L 364.434187 64.76419 
L 365.134662 64.771536 
L 365.835978 64.778872 
L 366.536453 64.786196 
L 367.236928 64.79351 
L 367.938245 64.800814 
L 368.63872 64.808106 
L 369.339195 64.815388 
L 370.040511 64.82266 
L 370.740986 64.829921 
L 371.441461 64.837172 
L 372.142778 64.844412 
L 372.843253 64.832394 
L 373.543728 64.820392 
L 374.245044 64.80838 
L 374.945519 64.796357 
L 375.645994 64.784324 
L 376.347311 64.77228 
L 377.047786 64.760226 
L 377.748261 64.748162 
L 378.449577 64.736088 
L 379.150052 64.724003 
L 379.850527 64.711909 
L 380.551843 64.699804 
L 381.252319 64.7655 
L 381.952794 64.830501 
L 382.65411 64.895493 
L 383.354585 64.960476 
L 384.05506 65.02545 
L 384.756376 65.090416 
L 385.456852 65.155373 
L 386.157327 65.220322 
L 386.858643 65.285262 
L 387.559118 65.350193 
L 388.259593 65.415116 
L 388.960909 65.48003 
L 389.661385 65.554469 
L 390.36186 65.628649 
L 391.063176 65.70282 
L 391.763651 65.776983 
L 392.464126 65.851138 
L 393.165442 65.925285 
L 393.865918 65.999425 
L 394.566393 66.073556 
L 395.267709 66.14768 
L 395.968184 66.221795 
L 396.668659 66.295903 
L 397.369975 66.370003 
L 398.070451 66.574204 
L 398.770926 66.778142 
L 399.472242 66.982073 
L 400.172717 67.185997 
L 400.873192 67.389913 
L 401.574508 67.593822 
L 402.274984 67.797724 
L 402.975459 68.001619 
L 403.676775 68.205507 
L 404.37725 68.409387 
L 405.077725 68.61326 
L 405.779041 68.817126 
L 406.479517 68.692645 
L 407.179992 68.570591 
L 407.881308 68.448525 
L 408.581783 68.326448 
L 409.282258 68.204359 
L 409.983574 68.082259 
L 410.68405 67.960147 
L 411.384525 67.838023 
L 412.085841 67.715888 
L 412.786316 67.593742 
L 413.486791 67.471584 
L 414.188107 67.349415 
L 414.188107 46.189758 
L 414.188107 46.189758 
L 413.486791 46.333819 
L 412.786316 46.477891 
L 412.085841 46.621974 
L 411.384525 46.766069 
L 410.68405 46.910175 
L 409.983574 47.054292 
L 409.282258 47.198421 
L 408.581783 47.342562 
L 407.881308 47.486714 
L 407.179992 47.630878 
L 406.479517 47.775054 
L 405.779041 47.916802 
L 405.077725 47.730218 
L 404.37725 47.543641 
L 403.676775 47.357071 
L 402.975459 47.170508 
L 402.274984 46.983952 
L 401.574508 46.797404 
L 400.873192 46.610863 
L 400.172717 46.424329 
L 399.472242 46.237802 
L 398.770926 46.051283 
L 398.070451 45.864771 
L 397.369975 45.678521 
L 396.668659 45.622388 
L 395.968184 45.566261 
L 395.267709 45.510143 
L 394.566393 45.454033 
L 393.865918 45.39793 
L 393.165442 45.341836 
L 392.464126 45.285749 
L 391.763651 45.22967 
L 391.063176 45.173599 
L 390.36186 45.117536 
L 389.661385 45.061482 
L 388.960909 45.005687 
L 388.259593 44.959435 
L 387.559118 44.913191 
L 386.858643 44.866956 
L 386.157327 44.820729 
L 385.456852 44.774511 
L 384.756376 44.728302 
L 384.05506 44.682101 
L 383.354585 44.635909 
L 382.65411 44.589725 
L 381.952794 44.54355 
L 381.252319 44.497384 
L 380.551843 44.451914 
L 379.850527 44.484265 
L 379.150052 44.516626 
L 378.449577 44.548998 
L 377.748261 44.581379 
L 377.047786 44.613771 
L 376.347311 44.646173 
L 375.645994 44.678586 
L 374.945519 44.711008 
L 374.245044 44.743442 
L 373.543728 44.775885 
L 372.843253 44.808339 
L 372.142778 44.840778 
L 371.441461 44.85398 
L 370.740986 44.867192 
L 370.040511 44.880415 
L 369.339195 44.893649 
L 368.63872 44.906893 
L 367.938245 44.920148 
L 367.236928 44.933413 
L 366.536453 44.946689 
L 365.835978 44.959976 
L 365.134662 44.973273 
L 364.434187 44.986582 
L 363.733712 44.99754 
L 363.032395 44.587783 
L 362.33192 44.178032 
L 361.631445 43.768287 
L 360.930129 43.358549 
L 360.229654 42.948817 
L 359.529179 42.539092 
L 358.827863 42.129374 
L 358.127387 41.719662 
L 357.426912 41.309957 
L 356.725596 40.900258 
L 356.025121 40.490566 
L 355.324646 40.083169 
L 354.62333 40.121991 
L 353.922854 40.160823 
L 353.222379 40.199667 
L 352.521063 40.238521 
L 351.820588 40.277387 
L 351.120113 40.316264 
L 350.418797 40.355152 
L 349.718321 40.394051 
L 349.017846 40.432961 
L 348.31653 40.471883 
L 347.616055 40.510816 
L 346.91558 40.548572 
L 346.214264 40.425783 
L 345.513788 40.303003 
L 344.813313 40.180232 
L 344.111997 40.057471 
L 343.411522 39.934718 
L 342.711047 39.811974 
L 342.009731 39.689239 
L 341.309255 39.566514 
L 340.60878 39.443797 
L 339.907464 39.32109 
L 339.206989 39.198392 
L 338.506514 39.077154 
L 337.805198 39.274423 
L 337.104722 39.471704 
L 336.404247 39.668997 
L 335.702931 39.866303 
L 335.002456 40.063621 
L 334.301981 40.260952 
L 333.600665 40.458296 
L 332.900189 40.655652 
L 332.199714 40.853021 
L 331.498398 41.050402 
L 330.797923 41.247797 
L 330.097448 41.444642 
L 329.396132 41.361773 
L 328.695656 41.278915 
L 327.995181 41.196069 
L 327.293865 41.113235 
L 326.59339 41.030413 
L 325.892915 40.947602 
L 325.191599 40.864803 
L 324.491124 40.782016 
L 323.790648 40.699241 
L 323.089332 40.616478 
L 322.388857 40.533727 
L 321.688382 40.453667 
L 320.987066 40.857464 
L 320.286591 41.26128 
L 319.586115 41.665115 
L 318.884799 42.068969 
L 318.184324 42.472843 
L 317.483849 42.876736 
L 316.782533 43.280648 
L 316.082058 43.68458 
L 315.381582 44.088532 
L 314.680266 44.492503 
L 313.979791 44.896494 
L 313.279316 45.297827 
L 312.578 45.22807 
L 311.877525 45.158327 
L 311.177049 45.088596 
L 310.475733 45.018878 
L 309.775258 44.949173 
L 309.074783 44.879481 
L 308.373467 44.809803 
L 307.672992 44.740137 
L 306.972516 44.670485 
L 306.2712 44.600846 
L 305.570725 44.53122 
L 304.87025 44.46031 
L 304.168934 44.247689 
L 303.468459 44.035079 
L 302.767983 43.822479 
L 302.066667 43.60989 
L 301.366192 43.397311 
L 300.665717 43.184743 
L 299.964401 42.972185 
L 299.263926 42.759638 
L 298.56345 42.547102 
L 297.862134 42.334577 
L 297.161659 42.122062 
L 296.461184 41.91068 
L 295.759868 41.870081 
L 295.059393 41.829497 
L 294.358917 41.788925 
L 293.657601 41.748368 
L 292.957126 41.707824 
L 292.256651 41.667293 
L 291.555335 41.626777 
L 290.85486 41.586274 
L 290.154385 41.545785 
L 289.453068 41.50531 
L 288.752593 41.464849 
L 288.052118 41.427216 
L 287.350802 41.564784 
L 286.650327 41.702375 
L 285.949852 41.839988 
L 285.248535 41.977623 
L 284.54806 42.115281 
L 283.847585 42.252962 
L 283.146269 42.390665 
L 282.445794 42.528391 
L 281.745319 42.666141 
L 281.044002 42.803913 
L 280.343527 42.941709 
L 279.643052 43.078546 
L 278.941736 43.119149 
L 278.241261 43.159773 
L 277.540786 43.200418 
L 276.839469 43.241083 
L 276.138994 43.281768 
L 275.438519 43.322475 
L 274.737203 43.363202 
L 274.036728 43.403951 
L 273.336253 43.44472 
L 272.634937 43.485511 
L 271.934461 43.526323 
L 271.233986 43.564258 
L 270.53267 43.366605 
L 269.832195 43.168965 
L 269.13172 42.971339 
L 268.430404 42.773725 
L 267.729928 42.576126 
L 267.029453 42.378539 
L 266.328137 42.180967 
L 265.627662 41.983408 
L 264.927187 41.785862 
L 264.225871 41.58833 
L 263.525395 41.390812 
L 262.82492 41.195062 
L 262.123604 41.287032 
L 261.423129 41.379022 
L 260.722654 41.471031 
L 260.021338 41.563059 
L 259.320862 41.655106 
L 258.620387 41.747172 
L 257.919071 41.839257 
L 257.218596 41.931361 
L 256.518121 42.023486 
L 255.816805 42.115629 
L 255.116329 42.207792 
L 254.415854 42.30201 
L 253.714538 42.557625 
L 253.014063 42.813267 
L 252.313588 43.068936 
L 251.612272 43.324632 
L 250.911796 43.580355 
L 250.211321 43.836106 
L 249.510005 44.091884 
L 248.80953 44.34769 
L 248.109055 44.603524 
L 247.407739 44.859386 
L 246.707263 45.115276 
L 246.006788 45.368108 
L 245.305472 45.178803 
L 244.604997 44.989516 
L 243.904522 44.800247 
L 243.203206 44.610997 
L 242.50273 44.421765 
L 241.802255 44.232551 
L 241.100939 44.043356 
L 240.400464 43.854179 
L 239.699989 43.665021 
L 238.998673 43.475882 
L 238.298198 43.286761 
L 237.597722 43.096578 
L 236.896406 42.854824 
L 236.195931 42.613085 
L 235.495456 42.371363 
L 234.79414 42.129657 
L 234.093665 41.887967 
L 233.393189 41.646293 
L 232.691873 41.404635 
L 231.991398 41.162994 
L 231.290923 40.921369 
L 230.589607 40.67976 
L 229.889132 40.438168 
L 229.188656 40.199071 
L 228.48734 40.243265 
L 227.786865 40.287483 
L 227.08639 40.331726 
L 226.385074 40.375994 
L 225.684599 40.420288 
L 224.984123 40.464607 
L 224.282807 40.508952 
L 223.582332 40.553322 
L 222.881857 40.597719 
L 222.180541 40.642141 
L 221.480066 40.686589 
L 220.77959 40.727622 
L 220.078274 40.436216 
L 219.377799 40.144826 
L 218.677324 39.853451 
L 217.976008 39.562091 
L 217.275533 39.270747 
L 216.575057 38.979418 
L 215.873741 38.688104 
L 215.173266 38.396806 
L 214.472791 38.105524 
L 213.771475 37.814258 
L 213.071 37.523007 
L 212.370524 37.235284 
L 211.669208 37.332203 
L 210.968733 37.42915 
L 210.268258 37.526125 
L 209.566942 37.623128 
L 208.866467 37.72016 
L 208.165991 37.817221 
L 207.464675 37.914311 
L 206.7642 38.01143 
L 206.063725 38.108578 
L 205.362409 38.205755 
L 204.661934 38.302963 
L 203.961458 38.399032 
L 203.260142 38.413284 
L 202.559667 38.427562 
L 201.859192 38.441866 
L 201.157876 38.456196 
L 200.457401 38.470552 
L 199.756926 38.484934 
L 199.055609 38.499342 
L 198.355134 38.513776 
L 197.654659 38.528237 
L 196.953343 38.542725 
L 196.252868 38.55724 
L 195.552393 38.569166 
L 194.851076 38.269026 
L 194.150601 37.968905 
L 193.450126 37.668802 
L 192.74881 37.368717 
L 192.048335 37.06865 
L 191.34786 36.768601 
L 190.646543 36.468571 
L 189.946068 36.16856 
L 189.245593 35.868567 
L 188.544277 35.568592 
L 187.843802 35.268637 
L 187.143327 34.97198 
L 186.44201 34.974644 
L 185.741535 34.97734 
L 185.04106 34.980067 
L 184.339744 34.982826 
L 183.639269 34.985618 
L 182.938794 34.988442 
L 182.237478 34.991299 
L 181.537002 34.994188 
L 180.836527 34.997111 
L 180.135211 35.000067 
L 179.434736 35.003057 
L 178.734261 35.008714 
L 178.032945 35.251563 
L 177.332469 35.494459 
L 176.631994 35.737403 
L 175.930678 35.980395 
L 175.230203 36.223435 
L 174.529728 36.466525 
L 173.828412 36.709663 
L 173.127936 36.952851 
L 172.427461 37.19609 
L 171.726145 37.439378 
L 171.02567 37.682718 
L 170.325195 37.923343 
L 169.623879 38.006857 
L 168.923403 38.090407 
L 168.222928 38.173996 
L 167.521612 38.257623 
L 166.821137 38.341288 
L 166.120662 38.424992 
L 165.419346 38.508734 
L 164.71887 38.592516 
L 164.018395 38.676338 
L 163.317079 38.760199 
L 162.616604 38.844101 
L 161.916129 38.928229 
L 161.214813 38.94104 
L 160.514337 38.953893 
L 159.813862 38.966788 
L 159.112546 38.979726 
L 158.412071 38.992707 
L 157.711596 39.005731 
L 157.01028 39.018799 
L 156.309804 39.031911 
L 155.609329 39.045067 
L 154.908013 39.058269 
L 154.207538 39.071515 
L 153.507063 39.084559 
L 152.805747 39.040985 
L 152.105271 38.997456 
L 151.404796 38.953973 
L 150.70348 38.910534 
L 150.003005 38.867142 
L 149.30253 38.823797 
L 148.601214 38.780498 
L 147.900739 38.737246 
L 147.200263 38.694042 
L 146.498947 38.650886 
L 145.798472 38.607778 
L 145.097997 38.561567 
L 144.396681 38.324706 
L 143.696206 38.087877 
L 142.99573 37.851082 
L 142.294414 37.61432 
L 141.593939 37.377591 
L 140.893464 37.140897 
L 140.192148 36.904236 
L 139.491673 36.66761 
L 138.791197 36.431019 
L 138.089881 36.194462 
L 137.389406 35.95794 
L 136.688931 35.721241 
L 135.987615 35.421105 
L 135.28714 35.121005 
L 134.586664 34.820939 
L 133.885348 34.520909 
L 133.184873 34.220914 
L 132.484398 33.920955 
L 131.783082 33.621033 
L 131.082607 33.321147 
L 130.382131 33.021298 
L 129.680815 32.721485 
L 128.98034 32.42171 
L 128.279865 32.126674 
L 127.578549 32.251753 
L 126.878074 32.3769 
L 126.177598 32.502114 
L 125.476282 32.627397 
L 124.775807 32.752749 
L 124.075332 32.878171 
L 123.374016 33.003664 
L 122.673541 33.129229 
L 121.973065 33.254866 
L 121.271749 33.380576 
L 120.571274 33.50636 
L 119.870799 33.632665 
L 119.169483 33.697597 
L 118.469008 33.762609 
L 117.768532 33.827701 
L 117.067216 33.892876 
L 116.366741 33.958134 
L 115.666266 34.023475 
L 114.96495 34.088902 
L 114.264475 34.154414 
L 113.564 34.220013 
L 112.862683 34.285701 
L 112.162208 34.351477 
L 111.461733 34.418672 
L 110.760417 34.53532 
L 110.059942 34.652072 
L 109.359467 34.768931 
L 108.65815 34.885897 
L 107.957675 35.002972 
L 107.2572 35.120158 
L 106.555884 35.237455 
L 105.855409 35.354867 
L 105.154934 35.472393 
L 104.453617 35.590037 
L 103.753142 35.7078 
L 103.052667 35.822456 
L 102.351351 35.7899 
L 101.650876 35.757437 
L 100.950401 35.725068 
L 100.249084 35.692795 
L 99.548609 35.660619 
L 98.848134 35.628541 
L 98.146818 35.596563 
L 97.446343 35.564685 
L 96.745868 35.53291 
L 96.044552 35.501239 
L 95.344076 35.469673 
L 94.643601 35.440444 
L 93.942285 35.617959 
L 93.24181 35.795607 
L 92.541335 35.973391 
L 91.840019 36.151313 
L 91.139543 36.329376 
L 90.439068 36.507581 
L 89.737752 36.685932 
L 89.037277 36.86443 
L 88.336802 37.043079 
L 87.635486 37.221881 
L 86.93501 37.400839 
L 86.234535 37.585248 
L 85.533219 38.097746 
L 84.832744 38.610484 
L 84.132269 39.123468 
L 83.430953 39.636702 
L 82.730477 40.150194 
L 82.030002 40.663949 
L 81.328686 41.177974 
L 80.628211 41.692275 
L 79.927736 42.20686 
L 79.22642 42.721735 
L 78.525944 43.23691 
L 77.825469 43.746039 
L 77.124153 43.951185 
L 76.423678 44.156545 
L 75.723203 44.362124 
L 75.021887 44.567927 
L 74.321411 44.77396 
L 73.620936 44.980227 
L 72.91962 45.186735 
L 72.219145 45.393489 
L 71.51867 45.600496 
L 70.817354 45.807762 
L 70.116878 46.015293 
L 69.416403 46.342025 
L 68.715087 46.500911 
L 68.014612 46.667868 
L 67.314137 46.844284 
L 66.612821 47.031999 
L 65.912345 47.23354 
L 65.21187 47.452544 
L 64.510554 47.694595 
L 63.810079 47.969089 
L 63.109604 48.294353 
L 62.408288 48.717695 
L 61.707813 48.719508 
z
" clip-path="url(#pd787a5ecee)" style="fill: #d0d1e6; fill-opacity: 0.25"/>
   </g>
   <g id="PolyCollection_2">
    <path d="M 171.02567 43.325387 
L 171.02567 45.100847 
L 171.726145 45.224904 
L 172.427461 45.716671 
L 173.127936 46.415859 
L 173.828412 47.065903 
L 174.529728 47.542377 
L 175.230203 47.949247 
L 175.930678 48.347862 
L 176.631994 48.739562 
L 177.332469 49.125362 
L 178.032945 49.506048 
L 178.734261 49.882247 
L 179.434736 50.078734 
L 180.135211 50.267348 
L 180.836527 50.453021 
L 181.537002 50.636014 
L 182.237478 50.816551 
L 182.938794 50.994828 
L 183.639269 51.171014 
L 184.339744 51.345259 
L 185.04106 51.517697 
L 185.741535 51.688445 
L 186.44201 51.85761 
L 187.143327 52.025287 
L 187.843802 51.890732 
L 188.544277 51.747461 
L 189.245593 51.603185 
L 189.946068 51.45795 
L 190.646543 51.311799 
L 191.34786 51.164774 
L 192.048335 51.016912 
L 192.74881 50.868246 
L 193.450126 50.718811 
L 194.150601 50.568635 
L 194.851076 50.417748 
L 195.552393 50.266176 
L 196.252868 50.417505 
L 196.953343 50.573143 
L 197.654659 50.728048 
L 198.355134 50.882247 
L 199.055609 51.035766 
L 199.756926 51.138838 
L 200.457401 51.241165 
L 201.157876 51.342883 
L 201.859192 51.444011 
L 202.559667 51.544569 
L 203.260142 51.644573 
L 203.961458 51.744043 
L 204.661934 51.905586 
L 205.362409 52.068764 
L 206.063725 52.231411 
L 206.7642 52.393542 
L 207.464675 52.555173 
L 208.165991 52.716318 
L 208.866467 52.81971 
L 209.566942 52.922567 
L 210.268258 53.024978 
L 210.968733 53.126954 
L 211.669208 53.228509 
L 212.370524 53.329651 
L 213.071 53.011509 
L 213.771475 52.687596 
L 214.472791 52.363384 
L 215.173266 52.038877 
L 215.873741 51.714083 
L 216.575057 51.389007 
L 217.275533 51.063655 
L 217.976008 50.738032 
L 218.677324 50.412144 
L 219.377799 50.085997 
L 220.078274 49.759594 
L 220.77959 49.432942 
L 221.480066 49.45449 
L 222.180541 49.480295 
L 222.881857 49.505806 
L 223.582332 49.531028 
L 224.282807 49.555968 
L 224.984123 49.580631 
L 225.684599 49.605022 
L 226.385074 49.629147 
L 227.08639 49.653011 
L 227.786865 49.676618 
L 228.48734 49.699973 
L 229.188656 49.723082 
L 229.889132 49.473263 
L 230.589607 49.220965 
L 231.290923 48.968458 
L 231.991398 48.715747 
L 232.691873 48.462833 
L 233.393189 48.209721 
L 234.093665 47.956414 
L 234.79414 47.702914 
L 235.495456 47.449225 
L 236.195931 47.19535 
L 236.896406 46.941291 
L 237.597722 46.687051 
L 238.298198 46.486535 
L 238.998673 46.285762 
L 239.699989 46.084817 
L 240.400464 45.883702 
L 241.100939 45.68242 
L 241.802255 45.480974 
L 242.50273 45.279365 
L 243.203206 45.077596 
L 243.904522 44.875669 
L 244.604997 44.673587 
L 245.305472 44.471351 
L 246.006788 44.268963 
L 246.707263 44.491136 
L 247.407739 44.71675 
L 248.109055 44.942186 
L 248.80953 45.167446 
L 249.510005 45.392533 
L 250.211321 45.617449 
L 250.911796 45.842196 
L 251.612272 46.066777 
L 252.313588 46.291193 
L 253.014063 46.515448 
L 253.714538 46.739544 
L 254.415854 46.963482 
L 255.116329 47.017849 
L 255.816805 47.069774 
L 256.518121 47.121566 
L 257.218596 47.173228 
L 257.919071 47.224761 
L 258.620387 47.282038 
L 259.320862 47.339183 
L 260.021338 47.378787 
L 260.722654 47.417562 
L 261.423129 47.456222 
L 262.123604 47.494766 
L 262.82492 47.533197 
L 263.525395 47.322262 
L 264.225871 47.120546 
L 264.927187 46.926273 
L 265.627662 46.72915 
L 266.328137 46.526775 
L 267.029453 46.323298 
L 267.729928 46.120889 
L 268.430404 45.927403 
L 269.13172 45.736341 
L 269.832195 45.522874 
L 270.53267 45.306527 
L 271.233986 45.08672 
L 271.934461 45.102447 
L 272.634937 45.119662 
L 273.336253 45.135716 
L 274.036728 45.148702 
L 274.737203 45.158785 
L 275.438519 45.167092 
L 276.138994 45.174302 
L 276.839469 45.183373 
L 277.540786 45.193822 
L 278.241261 45.203699 
L 278.941736 45.210794 
L 279.643052 45.213614 
L 280.343527 45.31481 
L 281.044002 45.416629 
L 281.745319 45.514548 
L 282.445794 45.608489 
L 283.146269 45.699158 
L 283.847585 45.787494 
L 284.54806 45.87397 
L 285.248535 45.964554 
L 285.949852 46.061157 
L 286.650327 46.159497 
L 287.350802 46.257844 
L 288.052118 46.352459 
L 288.752593 46.28827 
L 289.453068 46.225856 
L 290.154385 46.162687 
L 290.85486 46.097437 
L 291.555335 46.029995 
L 292.256651 45.965174 
L 292.957126 45.904018 
L 293.657601 45.849174 
L 294.358917 45.800608 
L 295.059393 45.756564 
L 295.759868 45.714777 
L 296.461184 45.67514 
L 297.161659 45.462997 
L 297.862134 45.253044 
L 298.56345 45.04733 
L 299.263926 44.841612 
L 299.964401 44.636767 
L 300.665717 44.430687 
L 301.366192 44.22419 
L 302.066667 44.020572 
L 302.767983 43.818489 
L 303.468459 43.613466 
L 304.168934 43.404765 
L 304.87025 43.192905 
L 305.570725 43.107725 
L 306.2712 43.019654 
L 306.972516 42.927837 
L 307.672992 42.831486 
L 308.373467 42.730766 
L 309.074783 42.625826 
L 309.775258 42.517281 
L 310.475733 42.408895 
L 311.177049 42.299651 
L 311.877525 42.18779 
L 312.578 42.091243 
L 313.279316 41.989235 
L 313.979791 42.322879 
L 314.680266 42.659035 
L 315.381582 42.994698 
L 316.082058 43.326279 
L 316.782533 43.655822 
L 317.483849 43.985893 
L 318.184324 44.316261 
L 318.884799 44.647945 
L 319.586115 44.981318 
L 320.286591 45.316624 
L 320.987066 45.652719 
L 321.688382 45.98839 
L 322.388857 45.859648 
L 323.089332 45.730491 
L 323.790648 45.60172 
L 324.491124 45.471526 
L 325.191599 45.34128 
L 325.892915 45.211132 
L 326.59339 45.081857 
L 327.293865 44.968106 
L 327.995181 44.855048 
L 328.695656 44.742272 
L 329.396132 44.629797 
L 330.097448 44.518462 
L 330.797923 44.733387 
L 331.498398 44.948852 
L 332.199714 45.160734 
L 332.900189 45.367317 
L 333.600665 45.572037 
L 334.301981 45.773731 
L 335.002456 45.972935 
L 335.702931 46.176063 
L 336.404247 46.379099 
L 337.104722 46.578739 
L 337.805198 46.77493 
L 338.506514 46.972326 
L 339.206989 46.846581 
L 339.907464 46.724092 
L 340.60878 46.601233 
L 341.309255 46.47844 
L 342.009731 46.368909 
L 342.711047 46.260345 
L 343.411522 46.15239 
L 344.111997 46.047847 
L 344.813313 45.945204 
L 345.513788 45.845293 
L 346.214264 45.746658 
L 346.91558 45.648771 
L 347.616055 45.733733 
L 348.31653 45.821822 
L 349.017846 45.911924 
L 349.718321 46.002181 
L 350.418797 46.094289 
L 351.120113 46.187972 
L 351.820588 46.281905 
L 352.521063 46.378356 
L 353.222379 46.478335 
L 353.922854 46.581383 
L 354.62333 46.68873 
L 355.324646 46.796288 
L 356.025121 46.501669 
L 356.725596 46.209481 
L 357.426912 45.918526 
L 358.127387 45.624828 
L 358.827863 45.331304 
L 359.529179 45.038668 
L 360.229654 44.747388 
L 360.930129 44.460399 
L 361.631445 44.177837 
L 362.33192 43.893721 
L 363.032395 43.610478 
L 363.733712 43.328975 
L 364.434187 43.412869 
L 365.134662 43.489385 
L 365.835978 43.563562 
L 366.536453 43.638139 
L 367.236928 43.711199 
L 367.938245 43.78199 
L 368.63872 43.849982 
L 369.339195 43.918834 
L 370.040511 43.988575 
L 370.740986 44.060026 
L 371.441461 44.129644 
L 372.142778 44.195589 
L 372.843253 44.205666 
L 373.543728 44.216546 
L 374.245044 44.224331 
L 374.945519 44.228845 
L 375.645994 44.231442 
L 376.347311 44.233307 
L 377.047786 44.235365 
L 377.748261 44.236872 
L 378.449577 44.239311 
L 379.150052 44.242178 
L 379.850527 44.243542 
L 380.551843 44.244975 
L 381.252319 44.146375 
L 381.952794 44.040242 
L 382.65411 43.933856 
L 383.354585 43.824347 
L 384.05506 43.650776 
L 384.756376 43.47953 
L 385.456852 43.312021 
L 386.157327 43.148445 
L 386.858643 42.987677 
L 387.559118 42.826781 
L 388.259593 42.66319 
L 388.960909 42.500858 
L 389.661385 42.467407 
L 390.36186 42.428034 
L 391.063176 42.378706 
L 391.763651 42.325269 
L 392.464126 42.272281 
L 393.165442 42.222624 
L 393.865918 42.175211 
L 394.566393 42.096417 
L 395.267709 42.026684 
L 395.968184 41.969218 
L 396.668659 41.916465 
L 397.369975 41.871653 
L 398.070451 41.726426 
L 398.770926 41.69691 
L 399.472242 41.658733 
L 400.172717 41.620229 
L 400.873192 41.581265 
L 401.574508 41.543364 
L 402.274984 41.505291 
L 402.975459 41.467112 
L 403.676775 41.428828 
L 404.37725 41.388025 
L 405.077725 41.347297 
L 405.779041 41.308087 
L 406.479517 41.597394 
L 407.179992 41.822806 
L 407.881308 42.062533 
L 408.581783 42.302054 
L 409.282258 42.541371 
L 409.983574 42.780486 
L 410.68405 43.019401 
L 411.384525 43.25812 
L 412.085841 43.496643 
L 412.786316 43.734973 
L 413.486791 43.973113 
L 414.188107 44.211063 
L 414.188107 14.804807 
L 414.188107 14.804807 
L 413.486791 14.671857 
L 412.786316 14.539096 
L 412.085841 14.406526 
L 411.384525 14.274149 
L 410.68405 14.141967 
L 409.983574 14.009982 
L 409.282258 13.878196 
L 408.581783 13.746613 
L 407.881308 13.615233 
L 407.179992 13.48406 
L 406.479517 13.338571 
L 405.779041 13.125797 
L 405.077725 13.241186 
L 404.37725 13.358299 
L 403.676775 13.475337 
L 402.975459 13.590064 
L 402.274984 13.704896 
L 401.574508 13.819834 
L 400.873192 13.934944 
L 400.172717 14.051615 
L 399.472242 14.168146 
L 398.770926 14.277885 
L 398.070451 14.362434 
L 397.369975 14.564155 
L 396.668659 14.666013 
L 395.968184 14.775508 
L 395.267709 14.894264 
L 394.566393 15.021027 
L 393.865918 15.152448 
L 393.165442 15.251326 
L 392.464126 15.351721 
L 391.763651 15.455859 
L 391.063176 15.560504 
L 390.36186 15.66336 
L 389.661385 15.756898 
L 388.960909 15.843782 
L 388.259593 16.059916 
L 387.559118 16.275831 
L 386.858643 16.489254 
L 386.157327 16.702561 
L 385.456852 16.918275 
L 384.756376 17.137013 
L 384.05506 17.35994 
L 383.354585 17.585121 
L 382.65411 17.74674 
L 381.952794 17.904716 
L 381.252319 18.0626 
L 380.551843 18.214186 
L 379.850527 18.265776 
L 379.150052 18.317002 
L 378.449577 18.36588 
L 377.748261 18.414528 
L 377.047786 18.463381 
L 376.347311 18.511721 
L 375.645994 18.559719 
L 374.945519 18.606572 
L 374.245044 18.652585 
L 373.543728 18.695296 
L 372.843253 18.736086 
L 372.142778 18.777539 
L 371.441461 18.7635 
L 370.740986 18.745465 
L 370.040511 18.722868 
L 369.339195 18.701977 
L 368.63872 18.680606 
L 367.938245 18.660006 
L 367.236928 18.636649 
L 366.536453 18.610846 
L 365.835978 18.583498 
L 365.134662 18.554826 
L 364.434187 18.52172 
L 363.733712 18.477466 
L 363.032395 18.798624 
L 362.33192 19.121498 
L 361.631445 19.445281 
L 360.930129 19.768824 
L 360.229654 20.097063 
L 359.529179 20.429155 
L 358.827863 20.762412 
L 358.127387 21.096599 
L 357.426912 21.43084 
L 356.725596 21.762141 
L 356.025121 22.097723 
L 355.324646 22.440404 
L 354.62333 22.381065 
L 353.922854 22.321815 
L 353.222379 22.266823 
L 352.521063 22.214278 
L 351.820588 22.16437 
L 351.120113 22.116951 
L 350.418797 22.069576 
L 349.718321 22.023458 
L 349.017846 21.979297 
L 348.31653 21.935371 
L 347.616055 21.893568 
L 346.91558 21.852028 
L 346.214264 21.993822 
L 345.513788 22.137377 
L 344.813313 22.282836 
L 344.111997 22.431293 
L 343.411522 22.580587 
L 342.711047 22.735592 
L 342.009731 22.895417 
L 341.309255 23.058395 
L 340.60878 23.235669 
L 339.907464 23.414711 
L 339.206989 23.596279 
L 338.506514 23.777995 
L 337.805198 23.636582 
L 337.104722 23.492851 
L 336.404247 23.344538 
L 335.702931 23.192612 
L 335.002456 23.043882 
L 334.301981 22.896589 
L 333.600665 22.747159 
L 332.900189 22.594864 
L 332.199714 22.440512 
L 331.498398 22.281864 
L 330.797923 22.119328 
L 330.097448 21.956872 
L 329.396132 22.12061 
L 328.695656 22.285687 
L 327.995181 22.451418 
L 327.293865 22.618015 
L 326.59339 22.786712 
L 325.892915 22.971033 
L 325.191599 23.155998 
L 324.491124 23.34142 
L 323.790648 23.526786 
L 323.089332 23.712411 
L 322.388857 23.899674 
L 321.688382 24.090424 
L 320.987066 23.817108 
L 320.286591 23.543628 
L 319.586115 23.271073 
L 318.884799 23.00039 
L 318.184324 22.731315 
L 317.483849 22.463404 
L 316.782533 22.195822 
L 316.082058 21.929237 
L 315.381582 21.662764 
L 314.680266 21.39302 
L 313.979791 21.121706 
L 313.279316 20.849957 
L 312.578 21.016283 
L 311.877525 21.17872 
L 311.177049 21.356497 
L 310.475733 21.53133 
L 309.775258 21.705312 
L 309.074783 21.879944 
L 308.373467 22.050596 
L 307.672992 22.216873 
L 306.972516 22.377117 
L 306.2712 22.529584 
L 305.570725 22.675422 
L 304.87025 22.814896 
L 304.168934 23.080176 
L 303.468459 23.340779 
L 302.767983 23.596925 
L 302.066667 23.851413 
L 301.366192 24.1083 
L 300.665717 24.368501 
L 299.964401 24.628394 
L 299.263926 24.887463 
L 298.56345 25.147914 
L 297.862134 25.408044 
L 297.161659 25.671298 
L 296.461184 25.940238 
L 295.759868 26.03731 
L 295.059393 26.137029 
L 294.358917 26.239007 
L 293.657601 26.345997 
L 292.957126 26.457326 
L 292.256651 26.576645 
L 291.555335 26.700856 
L 290.85486 26.826835 
L 290.154385 26.949888 
L 289.453068 27.071184 
L 288.752593 27.193783 
L 288.052118 27.321227 
L 287.350802 27.290294 
L 286.650327 27.256149 
L 285.949852 27.221873 
L 285.248535 27.189525 
L 284.54806 27.162418 
L 283.847585 27.140114 
L 283.146269 27.116639 
L 282.445794 27.091393 
L 281.745319 27.063254 
L 281.044002 27.031849 
L 280.343527 26.997778 
L 279.643052 26.962924 
L 278.941736 27.026494 
L 278.241261 27.086425 
L 277.540786 27.1439 
L 276.839469 27.201043 
L 276.138994 27.260634 
L 275.438519 27.322318 
L 274.737203 27.383058 
L 274.036728 27.442739 
L 273.336253 27.499492 
L 272.634937 27.553499 
L 271.934461 27.606683 
L 271.233986 27.654277 
L 270.53267 27.938524 
L 269.832195 28.219733 
L 269.13172 28.49937 
L 268.430404 28.756654 
L 267.729928 29.016848 
L 267.029453 29.286427 
L 266.328137 29.557535 
L 265.627662 29.827291 
L 264.927187 30.092352 
L 264.225871 30.355642 
L 263.525395 30.626446 
L 262.82492 30.898433 
L 262.123604 30.921279 
L 261.423129 30.94424 
L 260.722654 30.967315 
L 260.021338 30.990506 
L 259.320862 31.014526 
L 258.620387 31.021252 
L 257.919071 31.028111 
L 257.218596 31.04097 
L 256.518121 31.053957 
L 255.816805 31.067075 
L 255.116329 31.080326 
L 254.415854 31.096018 
L 253.714538 30.942451 
L 253.014063 30.78904 
L 252.313588 30.63579 
L 251.612272 30.482701 
L 250.911796 30.329776 
L 250.211321 30.177017 
L 249.510005 30.024427 
L 248.80953 29.872008 
L 248.109055 29.719762 
L 247.407739 29.567693 
L 246.707263 29.415801 
L 246.006788 29.260469 
L 245.305472 29.529995 
L 244.604997 29.799673 
L 243.904522 30.069504 
L 243.203206 30.339492 
L 242.50273 30.609637 
L 241.802255 30.879942 
L 241.100939 31.15041 
L 240.400464 31.421042 
L 239.699989 31.691842 
L 238.998673 31.962811 
L 238.298198 32.233951 
L 237.597722 32.505349 
L 236.896406 32.830827 
L 236.195931 33.156485 
L 235.495456 33.482327 
L 234.79414 33.808355 
L 234.093665 34.134572 
L 233.393189 34.460982 
L 232.691873 34.787587 
L 231.991398 35.114391 
L 231.290923 35.441396 
L 230.589607 35.768607 
L 229.889132 36.096026 
L 229.188656 36.425924 
L 228.48734 36.483379 
L 227.786865 36.541082 
L 227.08639 36.599036 
L 226.385074 36.657247 
L 225.684599 36.715719 
L 224.984123 36.774457 
L 224.282807 36.833467 
L 223.582332 36.892753 
L 222.881857 36.952323 
L 222.180541 37.01218 
L 221.480066 37.072332 
L 220.77959 37.128228 
L 220.078274 37.532815 
L 219.377799 37.937651 
L 218.677324 38.342743 
L 217.976008 38.748095 
L 217.275533 39.153711 
L 216.575057 39.559598 
L 215.873741 39.965762 
L 215.173266 40.372207 
L 214.472791 40.778939 
L 213.771475 41.185966 
L 213.071 41.593293 
L 212.370524 42.00639 
L 211.669208 42.001006 
L 210.968733 41.996033 
L 210.268258 41.991483 
L 209.566942 41.987368 
L 208.866467 41.983698 
L 208.165991 41.980563 
L 207.464675 41.920621 
L 206.7642 41.861165 
L 206.063725 41.80221 
L 205.362409 41.74377 
L 204.661934 41.685861 
L 203.961458 41.626317 
L 203.260142 41.629886 
L 202.559667 41.633991 
L 201.859192 41.638649 
L 201.157876 41.643877 
L 200.457401 41.649695 
L 199.756926 41.656122 
L 199.055609 41.663294 
L 198.355134 41.621331 
L 197.654659 41.580048 
L 196.953343 41.539471 
L 196.252868 41.499626 
L 195.552393 41.455472 
L 194.851076 41.715539 
L 194.150601 41.976291 
L 193.450126 42.237755 
L 192.74881 42.499958 
L 192.048335 42.762932 
L 191.34786 43.026709 
L 190.646543 43.291323 
L 189.946068 43.556812 
L 189.245593 43.823216 
L 188.544277 44.090578 
L 187.843802 44.358947 
L 187.143327 44.63603 
L 186.44201 44.613684 
L 185.741535 44.592827 
L 185.04106 44.573552 
L 184.339744 44.555967 
L 183.639269 44.54019 
L 182.938794 44.526353 
L 182.237478 44.514607 
L 181.537002 44.505121 
L 180.836527 44.498092 
L 180.135211 44.493742 
L 179.434736 44.492334 
L 178.734261 44.498797 
L 178.032945 44.333504 
L 177.332469 44.172698 
L 176.631994 44.017005 
L 175.930678 43.867213 
L 175.230203 43.724335 
L 174.529728 43.589713 
L 173.828412 43.524694 
L 173.127936 43.340671 
L 172.427461 43.205791 
L 171.726145 43.449444 
L 171.02567 43.325387 
z
" clip-path="url(#pd787a5ecee)" style="fill: #67a9cf; fill-opacity: 0.25"/>
   </g>
   <g id="PolyCollection_3">
    <path d="M 171.02567 43.472205 
L 171.02567 44.954028 
L 171.726145 45.159921 
L 172.427461 45.294412 
L 173.127936 45.679093 
L 173.828412 46.041369 
L 174.529728 46.180807 
L 175.230203 46.315446 
L 175.930678 46.445956 
L 176.631994 46.572862 
L 177.332469 46.696588 
L 178.032945 46.817484 
L 178.734261 46.935835 
L 179.434736 47.115584 
L 180.135211 47.293104 
L 180.836527 47.468587 
L 181.537002 47.642199 
L 182.237478 47.814087 
L 182.938794 47.984373 
L 183.639269 48.153179 
L 184.339744 48.320602 
L 185.04106 48.486723 
L 185.741535 48.651632 
L 186.44201 48.8154 
L 187.143327 48.978086 
L 187.843802 49.136348 
L 188.544277 49.293711 
L 189.245593 49.450215 
L 189.946068 49.605905 
L 190.646543 49.76082 
L 191.34786 49.914991 
L 192.048335 50.068451 
L 192.74881 50.221235 
L 193.450126 50.373363 
L 194.150601 50.524866 
L 194.851076 50.675774 
L 195.552393 50.826101 
L 196.252868 50.968423 
L 196.953343 51.110189 
L 197.654659 51.251412 
L 198.355134 51.392111 
L 199.055609 51.532306 
L 199.756926 51.622087 
L 200.457401 51.711397 
L 201.157876 51.800251 
L 201.859192 51.88867 
L 202.559667 51.976666 
L 203.260142 52.064246 
L 203.961458 52.151428 
L 204.661934 52.219609 
L 205.362409 52.287405 
L 206.063725 52.354819 
L 206.7642 52.421863 
L 207.464675 52.488556 
L 208.165991 52.554898 
L 208.866467 52.563527 
L 209.566942 52.571825 
L 210.268258 52.579807 
L 210.968733 52.587474 
L 211.669208 52.594839 
L 212.370524 52.601906 
L 213.071 52.573317 
L 213.771475 52.544464 
L 214.472791 52.515352 
L 215.173266 52.485984 
L 215.873741 52.456367 
L 216.575057 52.426505 
L 217.275533 52.396405 
L 217.976008 52.366075 
L 218.677324 52.335517 
L 219.377799 52.304732 
L 220.078274 52.27373 
L 220.77959 52.242514 
L 221.480066 52.227512 
L 222.180541 52.212296 
L 222.881857 52.196878 
L 223.582332 52.18125 
L 224.282807 52.165423 
L 224.984123 52.149404 
L 225.684599 52.133187 
L 226.385074 52.116781 
L 227.08639 52.100192 
L 227.786865 52.083416 
L 228.48734 52.066461 
L 229.188656 52.049334 
L 229.889132 52.043351 
L 230.589607 52.037195 
L 231.290923 52.030861 
L 231.991398 52.024351 
L 232.691873 52.017677 
L 233.393189 52.010833 
L 234.093665 52.003821 
L 234.79414 51.99665 
L 235.495456 51.989324 
L 236.195931 51.981838 
L 236.896406 51.974193 
L 237.597722 51.966403 
L 238.298198 51.959188 
L 238.998673 51.951839 
L 239.699989 51.944364 
L 240.400464 51.936758 
L 241.100939 51.929028 
L 241.802255 51.921177 
L 242.50273 51.913198 
L 243.203206 51.9051 
L 243.904522 51.896882 
L 244.604997 51.888546 
L 245.305472 51.880093 
L 246.006788 51.871526 
L 246.707263 51.845836 
L 247.407739 51.820027 
L 248.109055 51.794109 
L 248.80953 51.768076 
L 249.510005 51.74193 
L 250.211321 51.715677 
L 250.911796 51.689315 
L 251.612272 51.662843 
L 252.313588 51.636269 
L 253.014063 51.609589 
L 253.714538 51.582807 
L 254.415854 51.555923 
L 255.116329 51.520616 
L 255.816805 51.48521 
L 256.518121 51.449709 
L 257.218596 51.414114 
L 257.919071 51.378423 
L 258.620387 51.348504 
L 259.320862 51.318492 
L 260.021338 51.27008 
L 260.722654 51.221586 
L 261.423129 51.17301 
L 262.123604 51.124352 
L 262.82492 51.075614 
L 263.525395 51.072675 
L 264.225871 51.074934 
L 264.927187 51.084029 
L 265.627662 51.090504 
L 266.328137 51.092204 
L 267.029453 51.092423 
L 267.729928 51.09369 
L 268.430404 51.103844 
L 269.13172 51.116669 
L 269.832195 51.106331 
L 270.53267 51.093539 
L 271.233986 51.076826 
L 271.934461 51.06161 
L 272.634937 51.04419 
L 273.336253 51.025637 
L 274.036728 51.004257 
L 274.737203 50.979572 
L 275.438519 50.953435 
L 276.138994 50.92619 
L 276.839469 50.90031 
L 277.540786 50.876245 
L 278.241261 50.851586 
L 278.941736 50.823965 
L 279.643052 50.792414 
L 280.343527 50.762794 
L 281.044002 50.732379 
L 281.745319 50.6983 
L 282.445794 50.660421 
L 283.146269 50.619164 
L 283.847585 50.575488 
L 284.54806 50.529912 
L 285.248535 50.489345 
L 285.949852 50.454348 
L 286.650327 50.421328 
L 287.350802 50.387976 
L 288.052118 50.350944 
L 288.752593 50.331859 
L 289.453068 50.31482 
L 290.154385 50.29789 
L 290.85486 50.279534 
L 291.555335 50.259199 
L 292.256651 50.240314 
L 292.957126 50.224685 
L 293.657601 50.217465 
L 294.358917 50.215276 
L 295.059393 50.217887 
L 295.759868 50.222477 
L 296.461184 50.229094 
L 297.161659 50.233388 
L 297.862134 50.242352 
L 298.56345 50.255218 
L 299.263926 50.267628 
L 299.964401 50.28093 
L 300.665717 50.29316 
L 301.366192 50.304778 
L 302.066667 50.318974 
L 302.767983 50.334354 
L 303.468459 50.347947 
L 304.168934 50.358452 
L 304.87025 50.365614 
L 305.570725 50.358073 
L 306.2712 50.347749 
L 306.972516 50.334305 
L 307.672992 50.315779 
L 308.373467 50.292181 
L 309.074783 50.264543 
L 309.775258 50.232831 
L 310.475733 50.201544 
L 311.177049 50.169637 
L 311.877525 50.134955 
L 312.578 50.114645 
L 313.279316 50.088162 
L 313.979791 50.026432 
L 314.680266 49.96646 
L 315.381582 49.904993 
L 316.082058 49.838544 
L 316.782533 49.77088 
L 317.483849 49.704001 
L 318.184324 49.637571 
L 318.884799 49.572474 
L 319.586115 49.509104 
L 320.286591 49.447591 
L 320.987066 49.386813 
L 321.688382 49.325563 
L 322.388857 49.284338 
L 323.089332 49.24389 
L 323.790648 49.203422 
L 324.491124 49.1624 
L 325.191599 49.121127 
L 325.892915 49.080294 
L 326.59339 49.04018 
L 327.293865 49.014783 
L 327.995181 48.990442 
L 328.695656 48.966478 
L 329.396132 48.942888 
L 330.097448 48.920603 
L 330.797923 48.944547 
L 331.498398 48.969015 
L 332.199714 48.989147 
L 332.900189 49.004626 
L 333.600665 49.018071 
L 334.301981 49.028376 
L 335.002456 49.037943 
L 335.702931 49.04816 
L 336.404247 49.060093 
L 337.104722 49.069252 
L 337.805198 49.076623 
L 338.506514 49.08345 
L 339.206989 49.089085 
L 339.907464 49.094633 
L 340.60878 49.100207 
L 341.309255 49.106067 
L 342.009731 49.12436 
L 342.711047 49.142101 
L 343.411522 49.161139 
L 344.111997 49.185418 
L 344.813313 49.210916 
L 345.513788 49.238905 
L 346.214264 49.267869 
L 346.91558 49.297799 
L 347.616055 49.350872 
L 348.31653 49.405593 
L 349.017846 49.462355 
L 349.718321 49.519266 
L 350.418797 49.578295 
L 351.120113 49.638895 
L 351.820588 49.699677 
L 352.521063 49.76354 
L 353.222379 49.830891 
L 353.922854 49.90105 
L 354.62333 49.975582 
L 355.324646 50.050186 
L 356.025121 50.168291 
L 356.725596 50.289272 
L 357.426912 50.413143 
L 358.127387 50.53426 
L 358.827863 50.655477 
L 359.529179 50.77773 
L 360.229654 50.901533 
L 360.930129 51.029248 
L 361.631445 51.160715 
L 362.33192 51.291279 
L 363.032395 51.422757 
L 363.733712 51.555962 
L 364.434187 51.633881 
L 365.134662 51.703864 
L 365.835978 51.771547 
L 366.536453 51.838808 
L 367.236928 51.904667 
L 367.938245 51.96816 
L 368.63872 52.028947 
L 369.339195 52.091425 
L 370.040511 52.154126 
L 370.740986 52.220251 
L 371.441461 52.283399 
L 372.142778 52.342493 
L 372.843253 52.32674 
L 373.543728 52.311009 
L 374.245044 52.292804 
L 374.945519 52.270659 
L 375.645994 52.247411 
L 376.347311 52.223575 
L 377.047786 52.199658 
L 377.748261 52.175676 
L 378.449577 52.152689 
L 379.150052 52.130341 
L 379.850527 52.106356 
L 380.551843 52.082215 
L 381.252319 52.03578 
L 381.952794 51.982342 
L 382.65411 51.929069 
L 383.354585 51.872113 
L 384.05506 51.751404 
L 384.756376 51.632715 
L 385.456852 51.518568 
L 386.157327 51.40816 
L 386.858643 51.300364 
L 387.559118 51.192331 
L 388.259593 51.082634 
L 388.960909 50.973241 
L 389.661385 51.003152 
L 390.36186 51.026388 
L 391.063176 51.038563 
L 391.763651 51.047763 
L 392.464126 51.057195 
L 393.165442 51.070632 
L 393.865918 51.086673 
L 394.566393 51.073486 
L 395.267709 51.069804 
L 395.968184 51.073453 
L 396.668659 51.084287 
L 397.369975 51.102577 
L 398.070451 51.150177 
L 398.770926 51.324434 
L 399.472242 51.485751 
L 400.172717 51.6433 
L 400.873192 51.800238 
L 401.574508 51.958267 
L 402.274984 52.116164 
L 402.975459 52.273922 
L 403.676775 52.431551 
L 404.37725 52.586849 
L 405.077725 52.742015 
L 405.779041 52.899016 
L 406.479517 53.055885 
L 407.179992 53.164691 
L 407.881308 53.273223 
L 408.581783 53.381486 
L 409.282258 53.489486 
L 409.983574 53.597222 
L 410.68405 53.704701 
L 411.384525 53.811928 
L 412.085841 53.918899 
L 412.786316 54.025627 
L 413.486791 54.13211 
L 414.188107 54.238352 
L 414.188107 29.890462 
L 414.188107 29.890462 
L 413.486791 29.892034 
L 412.786316 29.893846 
L 412.085841 29.895903 
L 411.384525 29.898203 
L 410.68405 29.900759 
L 409.983574 29.903567 
L 409.282258 29.906633 
L 408.581783 29.909961 
L 407.881308 29.913554 
L 407.179992 29.917414 
L 406.479517 29.921549 
L 405.779041 29.842566 
L 405.077725 29.763715 
L 404.37725 29.68627 
L 403.676775 29.608963 
L 402.975459 29.529149 
L 402.274984 29.449469 
L 401.574508 29.369924 
L 400.873192 29.290516 
L 400.172717 29.212638 
L 399.472242 29.134774 
L 398.770926 29.053553 
L 398.070451 28.951424 
L 397.369975 28.955524 
L 396.668659 28.990249 
L 395.968184 29.0331 
L 395.267709 29.082734 
L 394.566393 29.145317 
L 393.865918 29.212112 
L 393.165442 29.24421 
L 392.464126 29.277461 
L 391.763651 29.313788 
L 391.063176 29.350836 
L 390.36186 29.384959 
L 389.661385 29.410872 
L 388.960909 29.430883 
L 388.259593 29.588789 
L 387.559118 29.747433 
L 386.858643 29.902552 
L 386.157327 30.057667 
L 385.456852 30.21538 
L 384.756376 30.376313 
L 384.05506 30.54063 
L 383.354585 30.707505 
L 382.65411 30.810512 
L 381.952794 30.910433 
L 381.252319 31.00985 
L 380.551843 31.102434 
L 379.850527 31.172906 
L 379.150052 31.243238 
L 378.449577 31.311356 
L 377.748261 31.379034 
L 377.047786 31.446857 
L 376.347311 31.513676 
L 375.645994 31.580426 
L 374.945519 31.645891 
L 374.245044 31.709705 
L 373.543728 31.770878 
L 372.843253 31.829512 
L 372.142778 31.889594 
L 371.441461 31.874669 
L 370.740986 31.856124 
L 370.040511 31.834163 
L 369.339195 31.812193 
L 368.63872 31.790407 
L 367.938245 31.768564 
L 367.236928 31.743871 
L 366.536453 31.716829 
L 365.835978 31.688127 
L 365.134662 31.658927 
L 364.434187 31.625248 
L 363.733712 31.58098 
L 363.032395 31.481366 
L 362.33192 31.383479 
L 361.631445 31.286456 
L 360.930129 31.188547 
L 360.229654 31.096007 
L 359.529179 31.007698 
L 358.827863 30.920362 
L 358.127387 30.833806 
L 357.426912 30.747381 
L 356.725596 30.658022 
L 356.025121 30.571289 
L 355.324646 30.491212 
L 354.62333 30.455848 
L 353.922854 30.420713 
L 353.222379 30.389761 
L 352.521063 30.361523 
L 351.820588 30.335955 
L 351.120113 30.312319 
L 350.418797 30.288786 
L 349.718321 30.266523 
L 349.017846 30.245944 
L 348.31653 30.225608 
L 347.616055 30.207368 
L 346.91558 30.190869 
L 346.214264 30.196301 
L 345.513788 30.20328 
L 344.813313 30.212457 
L 344.111997 30.224876 
L 343.411522 30.238817 
L 342.711047 30.256632 
L 342.009731 30.278585 
L 341.309255 30.305208 
L 340.60878 30.346962 
L 339.907464 30.390257 
L 339.206989 30.43568 
L 338.506514 30.484601 
L 337.805198 30.525431 
L 337.104722 30.56569 
L 336.404247 30.599703 
L 335.702931 30.629482 
L 335.002456 30.660654 
L 334.301981 30.696534 
L 333.600665 30.728523 
L 332.900189 30.757762 
L 332.199714 30.78512 
L 331.498398 30.807528 
L 330.797923 30.826808 
L 330.097448 30.846178 
L 329.396132 30.912325 
L 328.695656 30.979646 
L 327.995181 31.047543 
L 327.293865 31.116213 
L 326.59339 31.186624 
L 325.892915 31.273464 
L 325.191599 31.361103 
L 324.491124 31.44885 
L 323.790648 31.536745 
L 323.089332 31.624031 
L 322.388857 31.71336 
L 321.688382 31.804984 
L 320.987066 31.915783 
L 320.286591 32.026462 
L 319.586115 32.138123 
L 318.884799 32.251727 
L 318.184324 32.366906 
L 317.483849 32.483231 
L 316.782533 32.599731 
L 316.082058 32.716972 
L 315.381582 32.833502 
L 314.680266 32.94766 
L 313.979791 33.061251 
L 313.279316 33.175163 
L 312.578 33.255846 
L 311.877525 33.333346 
L 311.177049 33.427131 
L 310.475733 33.518129 
L 309.775258 33.608042 
L 309.074783 33.698337 
L 308.373467 33.785121 
L 307.672992 33.867345 
L 306.972516 33.944244 
L 306.2712 34.013912 
L 305.570725 34.076325 
L 304.87025 34.132269 
L 304.168934 34.171958 
L 303.468459 34.207158 
L 302.767983 34.237307 
L 302.066667 34.264643 
L 301.366192 34.294732 
L 300.665717 34.328435 
L 299.964401 34.362026 
L 299.263926 34.394632 
L 298.56345 34.428595 
L 297.862134 34.462696 
L 297.161659 34.500254 
L 296.461184 34.541018 
L 295.759868 34.581275 
L 295.059393 34.624298 
L 294.358917 34.66986 
L 293.657601 34.720156 
L 292.957126 34.776037 
L 292.256651 34.83781 
L 291.555335 34.90489 
L 290.85486 34.974901 
L 290.154385 35.04178 
L 289.453068 35.106241 
L 288.752593 35.171147 
L 288.052118 35.240625 
L 287.350802 35.325331 
L 286.650327 35.406774 
L 285.949852 35.488428 
L 285.248535 35.571768 
L 284.54806 35.660798 
L 283.847585 35.75373 
L 283.146269 35.84553 
L 282.445794 35.935651 
L 281.745319 36.022975 
L 281.044002 36.106861 
L 280.343527 36.187846 
L 279.643052 36.269467 
L 278.941736 36.353446 
L 278.241261 36.433441 
L 277.540786 36.51116 
L 276.839469 36.588575 
L 276.138994 36.667996 
L 275.438519 36.750007 
L 274.737203 36.831079 
L 274.036728 36.910775 
L 273.336253 36.987946 
L 272.634937 37.062124 
L 271.934461 37.135456 
L 271.233986 37.206885 
L 270.53267 37.277809 
L 269.832195 37.34615 
L 269.13172 37.412497 
L 268.430404 37.457245 
L 267.729928 37.504659 
L 267.029453 37.561491 
L 266.328137 37.619876 
L 265.627662 37.677284 
L 264.927187 37.729523 
L 264.225871 37.779761 
L 263.525395 37.838118 
L 262.82492 37.90168 
L 262.123604 37.996342 
L 261.423129 38.091084 
L 260.722654 38.185908 
L 260.021338 38.280814 
L 259.320862 38.375803 
L 258.620387 38.454355 
L 257.919071 38.533001 
L 257.218596 38.617622 
L 256.518121 38.702339 
L 255.816805 38.787143 
L 255.116329 38.872049 
L 254.415854 38.957054 
L 253.714538 39.034386 
L 253.014063 39.111825 
L 252.313588 39.189366 
L 251.612272 39.267014 
L 250.911796 39.344763 
L 250.211321 39.422622 
L 249.510005 39.50059 
L 248.80953 39.578665 
L 248.109055 39.656853 
L 247.407739 39.735151 
L 246.707263 39.813563 
L 246.006788 39.892094 
L 245.305472 39.952859 
L 244.604997 40.013736 
L 243.904522 40.074731 
L 243.203206 40.135844 
L 242.50273 40.197077 
L 241.802255 40.258429 
L 241.100939 40.319903 
L 240.400464 40.381504 
L 239.699989 40.443229 
L 238.998673 40.505085 
L 238.298198 40.567067 
L 237.597722 40.629183 
L 236.896406 40.695352 
L 236.195931 40.761673 
L 235.495456 40.828146 
L 234.79414 40.894779 
L 234.093665 40.961568 
L 233.393189 41.028521 
L 232.691873 41.095637 
L 231.991398 41.162922 
L 231.290923 41.230377 
L 230.589607 41.298003 
L 229.889132 41.365806 
L 229.188656 41.433788 
L 228.48734 41.511778 
L 227.786865 41.589947 
L 227.08639 41.668294 
L 226.385074 41.746822 
L 225.684599 41.825539 
L 224.984123 41.904445 
L 224.282807 41.983543 
L 223.582332 42.062839 
L 222.881857 42.142335 
L 222.180541 42.222033 
L 221.480066 42.30194 
L 220.77959 42.382062 
L 220.078274 42.477952 
L 219.377799 42.574057 
L 218.677324 42.670378 
L 217.976008 42.766927 
L 217.275533 42.863703 
L 216.575057 42.96071 
L 215.873741 43.057961 
L 215.173266 43.15545 
L 214.472791 43.253189 
L 213.771475 43.351183 
L 213.071 43.449438 
L 212.370524 43.547955 
L 211.669208 43.613593 
L 210.968733 43.679523 
L 210.268258 43.745761 
L 209.566942 43.812309 
L 208.866467 43.879177 
L 208.165991 43.946372 
L 207.464675 43.956721 
L 206.7642 43.96742 
L 206.063725 43.978476 
L 205.362409 43.989897 
L 204.661934 44.001699 
L 203.961458 44.013888 
L 203.260142 44.006583 
L 202.559667 43.999675 
L 201.859192 43.993179 
L 201.157876 43.987111 
L 200.457401 43.981479 
L 199.756926 43.976302 
L 199.055609 43.971591 
L 198.355134 43.917717 
L 197.654659 43.864343 
L 196.953343 43.811497 
L 196.252868 43.759189 
L 195.552393 43.707443 
L 194.851076 43.646657 
L 194.150601 43.586446 
L 193.450126 43.526836 
L 192.74881 43.467851 
L 192.048335 43.409516 
L 191.34786 43.351863 
L 190.646543 43.294921 
L 189.946068 43.238717 
L 189.245593 43.183293 
L 188.544277 43.128685 
L 187.843802 43.074929 
L 187.143327 43.022078 
L 186.44201 42.970568 
L 185.741535 42.920136 
L 185.04106 42.870844 
L 184.339744 42.82277 
L 183.639269 42.775992 
L 182.938794 42.730597 
L 182.237478 42.686688 
L 181.537002 42.644375 
L 180.836527 42.603787 
L 180.135211 42.565074 
L 179.434736 42.528393 
L 178.734261 42.493947 
L 178.032945 42.520921 
L 177.332469 42.550434 
L 176.631994 42.582782 
L 175.930678 42.618311 
L 175.230203 42.657444 
L 174.529728 42.700706 
L 173.828412 42.748766 
L 173.127936 42.72709 
L 172.427461 42.727819 
L 171.726145 43.064309 
L 171.02567 43.472205 
z
" clip-path="url(#pd787a5ecee)" style="fill: #02818a; fill-opacity: 0.25"/>
   </g>
   <g id="matplotlib.axis_1">
    <g id="xtick_1">
     <g id="line2d_1">
      <defs>
       <path id="m20204d6fa3" d="M 0 0 
L 0 3.5 
" style="stroke: #000000; stroke-width: 0.8"/>
      </defs>
      <g>
       <use xlink:href="#m20204d6fa3" x="70.116878" y="186.84327" style="stroke: #000000; stroke-width: 0.8"/>
      </g>
     </g>
     <g id="text_1">
      <!-- 1980 -->
      <g transform="translate(57.391878 201.441708) scale(0.1 -0.1)">
       <defs>
        <path id="DejaVuSans-31" d="M 794 531 
L 1825 531 
L 1825 4091 
L 703 3866 
L 703 4441 
L 1819 4666 
L 2450 4666 
L 2450 531 
L 3481 531 
L 3481 0 
L 794 0 
L 794 531 
z
" transform="scale(0.015625)"/>
        <path id="DejaVuSans-39" d="M 703 97 
L 703 672 
Q 941 559 1184 500 
Q 1428 441 1663 441 
Q 2288 441 2617 861 
Q 2947 1281 2994 2138 
Q 2813 1869 2534 1725 
Q 2256 1581 1919 1581 
Q 1219 1581 811 2004 
Q 403 2428 403 3163 
Q 403 3881 828 4315 
Q 1253 4750 1959 4750 
Q 2769 4750 3195 4129 
Q 3622 3509 3622 2328 
Q 3622 1225 3098 567 
Q 2575 -91 1691 -91 
Q 1453 -91 1209 -44 
Q 966 3 703 97 
z
M 1959 2075 
Q 2384 2075 2632 2365 
Q 2881 2656 2881 3163 
Q 2881 3666 2632 3958 
Q 2384 4250 1959 4250 
Q 1534 4250 1286 3958 
Q 1038 3666 1038 3163 
Q 1038 2656 1286 2365 
Q 1534 2075 1959 2075 
z
" transform="scale(0.015625)"/>
        <path id="DejaVuSans-38" d="M 2034 2216 
Q 1584 2216 1326 1975 
Q 1069 1734 1069 1313 
Q 1069 891 1326 650 
Q 1584 409 2034 409 
Q 2484 409 2743 651 
Q 3003 894 3003 1313 
Q 3003 1734 2745 1975 
Q 2488 2216 2034 2216 
z
M 1403 2484 
Q 997 2584 770 2862 
Q 544 3141 544 3541 
Q 544 4100 942 4425 
Q 1341 4750 2034 4750 
Q 2731 4750 3128 4425 
Q 3525 4100 3525 3541 
Q 3525 3141 3298 2862 
Q 3072 2584 2669 2484 
Q 3125 2378 3379 2068 
Q 3634 1759 3634 1313 
Q 3634 634 3220 271 
Q 2806 -91 2034 -91 
Q 1263 -91 848 271 
Q 434 634 434 1313 
Q 434 1759 690 2068 
Q 947 2378 1403 2484 
z
M 1172 3481 
Q 1172 3119 1398 2916 
Q 1625 2713 2034 2713 
Q 2441 2713 2670 2916 
Q 2900 3119 2900 3481 
Q 2900 3844 2670 4047 
Q 2441 4250 2034 4250 
Q 1625 4250 1398 4047 
Q 1172 3844 1172 3481 
z
" transform="scale(0.015625)"/>
        <path id="DejaVuSans-30" d="M 2034 4250 
Q 1547 4250 1301 3770 
Q 1056 3291 1056 2328 
Q 1056 1369 1301 889 
Q 1547 409 2034 409 
Q 2525 409 2770 889 
Q 3016 1369 3016 2328 
Q 3016 3291 2770 3770 
Q 2525 4250 2034 4250 
z
M 2034 4750 
Q 2819 4750 3233 4129 
Q 3647 3509 3647 2328 
Q 3647 1150 3233 529 
Q 2819 -91 2034 -91 
Q 1250 -91 836 529 
Q 422 1150 422 2328 
Q 422 3509 836 4129 
Q 1250 4750 2034 4750 
z
" transform="scale(0.015625)"/>
       </defs>
       <use xlink:href="#DejaVuSans-31"/>
       <use xlink:href="#DejaVuSans-39" x="63.623047"/>
       <use xlink:href="#DejaVuSans-38" x="127.246094"/>
       <use xlink:href="#DejaVuSans-30" x="190.869141"/>
      </g>
     </g>
    </g>
    <g id="xtick_2">
     <g id="line2d_2">
      <g>
       <use xlink:href="#m20204d6fa3" x="112.162208" y="186.84327" style="stroke: #000000; stroke-width: 0.8"/>
      </g>
     </g>
     <g id="text_2">
      <!-- 1985 -->
      <g transform="translate(99.437208 201.441708) scale(0.1 -0.1)">
       <defs>
        <path id="DejaVuSans-35" d="M 691 4666 
L 3169 4666 
L 3169 4134 
L 1269 4134 
L 1269 2991 
Q 1406 3038 1543 3061 
Q 1681 3084 1819 3084 
Q 2600 3084 3056 2656 
Q 3513 2228 3513 1497 
Q 3513 744 3044 326 
Q 2575 -91 1722 -91 
Q 1428 -91 1123 -41 
Q 819 9 494 109 
L 494 744 
Q 775 591 1075 516 
Q 1375 441 1709 441 
Q 2250 441 2565 725 
Q 2881 1009 2881 1497 
Q 2881 1984 2565 2268 
Q 2250 2553 1709 2553 
Q 1456 2553 1204 2497 
Q 953 2441 691 2322 
L 691 4666 
z
" transform="scale(0.015625)"/>
       </defs>
       <use xlink:href="#DejaVuSans-31"/>
       <use xlink:href="#DejaVuSans-39" x="63.623047"/>
       <use xlink:href="#DejaVuSans-38" x="127.246094"/>
       <use xlink:href="#DejaVuSans-35" x="190.869141"/>
      </g>
     </g>
    </g>
    <g id="xtick_3">
     <g id="line2d_3">
      <g>
       <use xlink:href="#m20204d6fa3" x="154.207538" y="186.84327" style="stroke: #000000; stroke-width: 0.8"/>
      </g>
     </g>
     <g id="text_3">
      <!-- 1990 -->
      <g transform="translate(141.482538 201.441708) scale(0.1 -0.1)">
       <use xlink:href="#DejaVuSans-31"/>
       <use xlink:href="#DejaVuSans-39" x="63.623047"/>
       <use xlink:href="#DejaVuSans-39" x="127.246094"/>
       <use xlink:href="#DejaVuSans-30" x="190.869141"/>
      </g>
     </g>
    </g>
    <g id="xtick_4">
     <g id="line2d_4">
      <g>
       <use xlink:href="#m20204d6fa3" x="196.252868" y="186.84327" style="stroke: #000000; stroke-width: 0.8"/>
      </g>
     </g>
     <g id="text_4">
      <!-- 1995 -->
      <g transform="translate(183.527868 201.441708) scale(0.1 -0.1)">
       <use xlink:href="#DejaVuSans-31"/>
       <use xlink:href="#DejaVuSans-39" x="63.623047"/>
       <use xlink:href="#DejaVuSans-39" x="127.246094"/>
       <use xlink:href="#DejaVuSans-35" x="190.869141"/>
      </g>
     </g>
    </g>
    <g id="xtick_5">
     <g id="line2d_5">
      <g>
       <use xlink:href="#m20204d6fa3" x="238.298198" y="186.84327" style="stroke: #000000; stroke-width: 0.8"/>
      </g>
     </g>
     <g id="text_5">
      <!-- 2000 -->
      <g transform="translate(225.573198 201.441708) scale(0.1 -0.1)">
       <defs>
        <path id="DejaVuSans-32" d="M 1228 531 
L 3431 531 
L 3431 0 
L 469 0 
L 469 531 
Q 828 903 1448 1529 
Q 2069 2156 2228 2338 
Q 2531 2678 2651 2914 
Q 2772 3150 2772 3378 
Q 2772 3750 2511 3984 
Q 2250 4219 1831 4219 
Q 1534 4219 1204 4116 
Q 875 4013 500 3803 
L 500 4441 
Q 881 4594 1212 4672 
Q 1544 4750 1819 4750 
Q 2544 4750 2975 4387 
Q 3406 4025 3406 3419 
Q 3406 3131 3298 2873 
Q 3191 2616 2906 2266 
Q 2828 2175 2409 1742 
Q 1991 1309 1228 531 
z
" transform="scale(0.015625)"/>
       </defs>
       <use xlink:href="#DejaVuSans-32"/>
       <use xlink:href="#DejaVuSans-30" x="63.623047"/>
       <use xlink:href="#DejaVuSans-30" x="127.246094"/>
       <use xlink:href="#DejaVuSans-30" x="190.869141"/>
      </g>
     </g>
    </g>
    <g id="xtick_6">
     <g id="line2d_6">
      <g>
       <use xlink:href="#m20204d6fa3" x="280.343527" y="186.84327" style="stroke: #000000; stroke-width: 0.8"/>
      </g>
     </g>
     <g id="text_6">
      <!-- 2005 -->
      <g transform="translate(267.618527 201.441708) scale(0.1 -0.1)">
       <use xlink:href="#DejaVuSans-32"/>
       <use xlink:href="#DejaVuSans-30" x="63.623047"/>
       <use xlink:href="#DejaVuSans-30" x="127.246094"/>
       <use xlink:href="#DejaVuSans-35" x="190.869141"/>
      </g>
     </g>
    </g>
    <g id="xtick_7">
     <g id="line2d_7">
      <g>
       <use xlink:href="#m20204d6fa3" x="322.388857" y="186.84327" style="stroke: #000000; stroke-width: 0.8"/>
      </g>
     </g>
     <g id="text_7">
      <!-- 2010 -->
      <g transform="translate(309.663857 201.441708) scale(0.1 -0.1)">
       <use xlink:href="#DejaVuSans-32"/>
       <use xlink:href="#DejaVuSans-30" x="63.623047"/>
       <use xlink:href="#DejaVuSans-31" x="127.246094"/>
       <use xlink:href="#DejaVuSans-30" x="190.869141"/>
      </g>
     </g>
    </g>
    <g id="xtick_8">
     <g id="line2d_8">
      <g>
       <use xlink:href="#m20204d6fa3" x="364.434187" y="186.84327" style="stroke: #000000; stroke-width: 0.8"/>
      </g>
     </g>
     <g id="text_8">
      <!-- 2015 -->
      <g transform="translate(351.709187 201.441708) scale(0.1 -0.1)">
       <use xlink:href="#DejaVuSans-32"/>
       <use xlink:href="#DejaVuSans-30" x="63.623047"/>
       <use xlink:href="#DejaVuSans-31" x="127.246094"/>
       <use xlink:href="#DejaVuSans-35" x="190.869141"/>
      </g>
     </g>
    </g>
    <g id="xtick_9">
     <g id="line2d_9">
      <g>
       <use xlink:href="#m20204d6fa3" x="406.479517" y="186.84327" style="stroke: #000000; stroke-width: 0.8"/>
      </g>
     </g>
     <g id="text_9">
      <!-- 2020 -->
      <g transform="translate(393.754517 201.441708) scale(0.1 -0.1)">
       <use xlink:href="#DejaVuSans-32"/>
       <use xlink:href="#DejaVuSans-30" x="63.623047"/>
       <use xlink:href="#DejaVuSans-32" x="127.246094"/>
       <use xlink:href="#DejaVuSans-30" x="190.869141"/>
      </g>
     </g>
    </g>
    <g id="text_10">
     <!-- Year -->
     <g transform="translate(227.710698 215.119833) scale(0.1 -0.1)">
      <defs>
       <path id="DejaVuSans-59" d="M -13 4666 
L 666 4666 
L 1959 2747 
L 3244 4666 
L 3922 4666 
L 2272 2222 
L 2272 0 
L 1638 0 
L 1638 2222 
L -13 4666 
z
" transform="scale(0.015625)"/>
       <path id="DejaVuSans-65" d="M 3597 1894 
L 3597 1613 
L 953 1613 
Q 991 1019 1311 708 
Q 1631 397 2203 397 
Q 2534 397 2845 478 
Q 3156 559 3463 722 
L 3463 178 
Q 3153 47 2828 -22 
Q 2503 -91 2169 -91 
Q 1331 -91 842 396 
Q 353 884 353 1716 
Q 353 2575 817 3079 
Q 1281 3584 2069 3584 
Q 2775 3584 3186 3129 
Q 3597 2675 3597 1894 
z
M 3022 2063 
Q 3016 2534 2758 2815 
Q 2500 3097 2075 3097 
Q 1594 3097 1305 2825 
Q 1016 2553 972 2059 
L 3022 2063 
z
" transform="scale(0.015625)"/>
       <path id="DejaVuSans-61" d="M 2194 1759 
Q 1497 1759 1228 1600 
Q 959 1441 959 1056 
Q 959 750 1161 570 
Q 1363 391 1709 391 
Q 2188 391 2477 730 
Q 2766 1069 2766 1631 
L 2766 1759 
L 2194 1759 
z
M 3341 1997 
L 3341 0 
L 2766 0 
L 2766 531 
Q 2569 213 2275 61 
Q 1981 -91 1556 -91 
Q 1019 -91 701 211 
Q 384 513 384 1019 
Q 384 1609 779 1909 
Q 1175 2209 1959 2209 
L 2766 2209 
L 2766 2266 
Q 2766 2663 2505 2880 
Q 2244 3097 1772 3097 
Q 1472 3097 1187 3025 
Q 903 2953 641 2809 
L 641 3341 
Q 956 3463 1253 3523 
Q 1550 3584 1831 3584 
Q 2591 3584 2966 3190 
Q 3341 2797 3341 1997 
z
" transform="scale(0.015625)"/>
       <path id="DejaVuSans-72" d="M 2631 2963 
Q 2534 3019 2420 3045 
Q 2306 3072 2169 3072 
Q 1681 3072 1420 2755 
Q 1159 2438 1159 1844 
L 1159 0 
L 581 0 
L 581 3500 
L 1159 3500 
L 1159 2956 
Q 1341 3275 1631 3429 
Q 1922 3584 2338 3584 
Q 2397 3584 2469 3576 
Q 2541 3569 2628 3553 
L 2631 2963 
z
" transform="scale(0.015625)"/>
      </defs>
      <use xlink:href="#DejaVuSans-59"/>
      <use xlink:href="#DejaVuSans-65" x="47.833984"/>
      <use xlink:href="#DejaVuSans-61" x="109.357422"/>
      <use xlink:href="#DejaVuSans-72" x="170.636719"/>
     </g>
    </g>
   </g>
   <g id="matplotlib.axis_2">
    <g id="ytick_1">
     <g id="line2d_10">
      <defs>
       <path id="m1ab7c969ec" d="M 0 0 
L -3.5 0 
" style="stroke: #000000; stroke-width: 0.8"/>
      </defs>
      <g>
       <use xlink:href="#m1ab7c969ec" x="61.707813" y="186.84327" style="stroke: #000000; stroke-width: 0.8"/>
      </g>
     </g>
     <g id="text_11">
      <!-- 5000 -->
      <g transform="translate(20.878125 190.642489) scale(0.1 -0.1)">
       <defs>
        <path id="DejaVuSans-2212" d="M 678 2272 
L 4684 2272 
L 4684 1741 
L 678 1741 
L 678 2272 
z
" transform="scale(0.015625)"/>
       </defs>
       <use xlink:href="#DejaVuSans-2212"/>
       <use xlink:href="#DejaVuSans-35" x="83.789062"/>
       <use xlink:href="#DejaVuSans-30" x="147.412109"/>
       <use xlink:href="#DejaVuSans-30" x="211.035156"/>
       <use xlink:href="#DejaVuSans-30" x="274.658203"/>
      </g>
     </g>
    </g>
    <g id="ytick_2">
     <g id="line2d_11">
      <g>
       <use xlink:href="#m1ab7c969ec" x="61.707813" y="159.422413" style="stroke: #000000; stroke-width: 0.8"/>
      </g>
     </g>
     <g id="text_12">
      <!-- 4000 -->
      <g transform="translate(20.878125 163.221631) scale(0.1 -0.1)">
       <defs>
        <path id="DejaVuSans-34" d="M 2419 4116 
L 825 1625 
L 2419 1625 
L 2419 4116 
z
M 2253 4666 
L 3047 4666 
L 3047 1625 
L 3713 1625 
L 3713 1100 
L 3047 1100 
L 3047 0 
L 2419 0 
L 2419 1100 
L 313 1100 
L 313 1709 
L 2253 4666 
z
" transform="scale(0.015625)"/>
       </defs>
       <use xlink:href="#DejaVuSans-2212"/>
       <use xlink:href="#DejaVuSans-34" x="83.789062"/>
       <use xlink:href="#DejaVuSans-30" x="147.412109"/>
       <use xlink:href="#DejaVuSans-30" x="211.035156"/>
       <use xlink:href="#DejaVuSans-30" x="274.658203"/>
      </g>
     </g>
    </g>
    <g id="ytick_3">
     <g id="line2d_12">
      <g>
       <use xlink:href="#m1ab7c969ec" x="61.707813" y="132.001555" style="stroke: #000000; stroke-width: 0.8"/>
      </g>
     </g>
     <g id="text_13">
      <!-- 3000 -->
      <g transform="translate(20.878125 135.800774) scale(0.1 -0.1)">
       <defs>
        <path id="DejaVuSans-33" d="M 2597 2516 
Q 3050 2419 3304 2112 
Q 3559 1806 3559 1356 
Q 3559 666 3084 287 
Q 2609 -91 1734 -91 
Q 1441 -91 1130 -33 
Q 819 25 488 141 
L 488 750 
Q 750 597 1062 519 
Q 1375 441 1716 441 
Q 2309 441 2620 675 
Q 2931 909 2931 1356 
Q 2931 1769 2642 2001 
Q 2353 2234 1838 2234 
L 1294 2234 
L 1294 2753 
L 1863 2753 
Q 2328 2753 2575 2939 
Q 2822 3125 2822 3475 
Q 2822 3834 2567 4026 
Q 2313 4219 1838 4219 
Q 1578 4219 1281 4162 
Q 984 4106 628 3988 
L 628 4550 
Q 988 4650 1302 4700 
Q 1616 4750 1894 4750 
Q 2613 4750 3031 4423 
Q 3450 4097 3450 3541 
Q 3450 3153 3228 2886 
Q 3006 2619 2597 2516 
z
" transform="scale(0.015625)"/>
       </defs>
       <use xlink:href="#DejaVuSans-2212"/>
       <use xlink:href="#DejaVuSans-33" x="83.789062"/>
       <use xlink:href="#DejaVuSans-30" x="147.412109"/>
       <use xlink:href="#DejaVuSans-30" x="211.035156"/>
       <use xlink:href="#DejaVuSans-30" x="274.658203"/>
      </g>
     </g>
    </g>
    <g id="ytick_4">
     <g id="line2d_13">
      <g>
       <use xlink:href="#m1ab7c969ec" x="61.707813" y="104.580698" style="stroke: #000000; stroke-width: 0.8"/>
      </g>
     </g>
     <g id="text_14">
      <!-- 2000 -->
      <g transform="translate(20.878125 108.379916) scale(0.1 -0.1)">
       <use xlink:href="#DejaVuSans-2212"/>
       <use xlink:href="#DejaVuSans-32" x="83.789062"/>
       <use xlink:href="#DejaVuSans-30" x="147.412109"/>
       <use xlink:href="#DejaVuSans-30" x="211.035156"/>
       <use xlink:href="#DejaVuSans-30" x="274.658203"/>
      </g>
     </g>
    </g>
    <g id="ytick_5">
     <g id="line2d_14">
      <g>
       <use xlink:href="#m1ab7c969ec" x="61.707813" y="77.15984" style="stroke: #000000; stroke-width: 0.8"/>
      </g>
     </g>
     <g id="text_15">
      <!-- 1000 -->
      <g transform="translate(20.878125 80.959059) scale(0.1 -0.1)">
       <use xlink:href="#DejaVuSans-2212"/>
       <use xlink:href="#DejaVuSans-31" x="83.789062"/>
       <use xlink:href="#DejaVuSans-30" x="147.412109"/>
       <use xlink:href="#DejaVuSans-30" x="211.035156"/>
       <use xlink:href="#DejaVuSans-30" x="274.658203"/>
      </g>
     </g>
    </g>
    <g id="ytick_6">
     <g id="line2d_15">
      <g>
       <use xlink:href="#m1ab7c969ec" x="61.707813" y="49.738983" style="stroke: #000000; stroke-width: 0.8"/>
      </g>
     </g>
     <g id="text_16">
      <!-- 0 -->
      <g transform="translate(48.345313 53.538201) scale(0.1 -0.1)">
       <use xlink:href="#DejaVuSans-30"/>
      </g>
     </g>
    </g>
    <g id="ytick_7">
     <g id="line2d_16">
      <g>
       <use xlink:href="#m1ab7c969ec" x="61.707813" y="22.318125" style="stroke: #000000; stroke-width: 0.8"/>
      </g>
     </g>
     <g id="text_17">
      <!-- 1000 -->
      <g transform="translate(29.257812 26.117344) scale(0.1 -0.1)">
       <use xlink:href="#DejaVuSans-31"/>
       <use xlink:href="#DejaVuSans-30" x="63.623047"/>
       <use xlink:href="#DejaVuSans-30" x="127.246094"/>
       <use xlink:href="#DejaVuSans-30" x="190.869141"/>
      </g>
     </g>
    </g>
    <g id="text_18">
     <!-- Mass change [Gt] -->
     <g transform="translate(14.798438 148.483823) rotate(-90) scale(0.1 -0.1)">
      <defs>
       <path id="DejaVuSans-4d" d="M 628 4666 
L 1569 4666 
L 2759 1491 
L 3956 4666 
L 4897 4666 
L 4897 0 
L 4281 0 
L 4281 4097 
L 3078 897 
L 2444 897 
L 1241 4097 
L 1241 0 
L 628 0 
L 628 4666 
z
" transform="scale(0.015625)"/>
       <path id="DejaVuSans-73" d="M 2834 3397 
L 2834 2853 
Q 2591 2978 2328 3040 
Q 2066 3103 1784 3103 
Q 1356 3103 1142 2972 
Q 928 2841 928 2578 
Q 928 2378 1081 2264 
Q 1234 2150 1697 2047 
L 1894 2003 
Q 2506 1872 2764 1633 
Q 3022 1394 3022 966 
Q 3022 478 2636 193 
Q 2250 -91 1575 -91 
Q 1294 -91 989 -36 
Q 684 19 347 128 
L 347 722 
Q 666 556 975 473 
Q 1284 391 1588 391 
Q 1994 391 2212 530 
Q 2431 669 2431 922 
Q 2431 1156 2273 1281 
Q 2116 1406 1581 1522 
L 1381 1569 
Q 847 1681 609 1914 
Q 372 2147 372 2553 
Q 372 3047 722 3315 
Q 1072 3584 1716 3584 
Q 2034 3584 2315 3537 
Q 2597 3491 2834 3397 
z
" transform="scale(0.015625)"/>
       <path id="DejaVuSans-20" transform="scale(0.015625)"/>
       <path id="DejaVuSans-63" d="M 3122 3366 
L 3122 2828 
Q 2878 2963 2633 3030 
Q 2388 3097 2138 3097 
Q 1578 3097 1268 2742 
Q 959 2388 959 1747 
Q 959 1106 1268 751 
Q 1578 397 2138 397 
Q 2388 397 2633 464 
Q 2878 531 3122 666 
L 3122 134 
Q 2881 22 2623 -34 
Q 2366 -91 2075 -91 
Q 1284 -91 818 406 
Q 353 903 353 1747 
Q 353 2603 823 3093 
Q 1294 3584 2113 3584 
Q 2378 3584 2631 3529 
Q 2884 3475 3122 3366 
z
" transform="scale(0.015625)"/>
       <path id="DejaVuSans-68" d="M 3513 2113 
L 3513 0 
L 2938 0 
L 2938 2094 
Q 2938 2591 2744 2837 
Q 2550 3084 2163 3084 
Q 1697 3084 1428 2787 
Q 1159 2491 1159 1978 
L 1159 0 
L 581 0 
L 581 4863 
L 1159 4863 
L 1159 2956 
Q 1366 3272 1645 3428 
Q 1925 3584 2291 3584 
Q 2894 3584 3203 3211 
Q 3513 2838 3513 2113 
z
" transform="scale(0.015625)"/>
       <path id="DejaVuSans-6e" d="M 3513 2113 
L 3513 0 
L 2938 0 
L 2938 2094 
Q 2938 2591 2744 2837 
Q 2550 3084 2163 3084 
Q 1697 3084 1428 2787 
Q 1159 2491 1159 1978 
L 1159 0 
L 581 0 
L 581 3500 
L 1159 3500 
L 1159 2956 
Q 1366 3272 1645 3428 
Q 1925 3584 2291 3584 
Q 2894 3584 3203 3211 
Q 3513 2838 3513 2113 
z
" transform="scale(0.015625)"/>
       <path id="DejaVuSans-67" d="M 2906 1791 
Q 2906 2416 2648 2759 
Q 2391 3103 1925 3103 
Q 1463 3103 1205 2759 
Q 947 2416 947 1791 
Q 947 1169 1205 825 
Q 1463 481 1925 481 
Q 2391 481 2648 825 
Q 2906 1169 2906 1791 
z
M 3481 434 
Q 3481 -459 3084 -895 
Q 2688 -1331 1869 -1331 
Q 1566 -1331 1297 -1286 
Q 1028 -1241 775 -1147 
L 775 -588 
Q 1028 -725 1275 -790 
Q 1522 -856 1778 -856 
Q 2344 -856 2625 -561 
Q 2906 -266 2906 331 
L 2906 616 
Q 2728 306 2450 153 
Q 2172 0 1784 0 
Q 1141 0 747 490 
Q 353 981 353 1791 
Q 353 2603 747 3093 
Q 1141 3584 1784 3584 
Q 2172 3584 2450 3431 
Q 2728 3278 2906 2969 
L 2906 3500 
L 3481 3500 
L 3481 434 
z
" transform="scale(0.015625)"/>
       <path id="DejaVuSans-5b" d="M 550 4863 
L 1875 4863 
L 1875 4416 
L 1125 4416 
L 1125 -397 
L 1875 -397 
L 1875 -844 
L 550 -844 
L 550 4863 
z
" transform="scale(0.015625)"/>
       <path id="DejaVuSans-47" d="M 3809 666 
L 3809 1919 
L 2778 1919 
L 2778 2438 
L 4434 2438 
L 4434 434 
Q 4069 175 3628 42 
Q 3188 -91 2688 -91 
Q 1594 -91 976 548 
Q 359 1188 359 2328 
Q 359 3472 976 4111 
Q 1594 4750 2688 4750 
Q 3144 4750 3555 4637 
Q 3966 4525 4313 4306 
L 4313 3634 
Q 3963 3931 3569 4081 
Q 3175 4231 2741 4231 
Q 1884 4231 1454 3753 
Q 1025 3275 1025 2328 
Q 1025 1384 1454 906 
Q 1884 428 2741 428 
Q 3075 428 3337 486 
Q 3600 544 3809 666 
z
" transform="scale(0.015625)"/>
       <path id="DejaVuSans-74" d="M 1172 4494 
L 1172 3500 
L 2356 3500 
L 2356 3053 
L 1172 3053 
L 1172 1153 
Q 1172 725 1289 603 
Q 1406 481 1766 481 
L 2356 481 
L 2356 0 
L 1766 0 
Q 1100 0 847 248 
Q 594 497 594 1153 
L 594 3053 
L 172 3053 
L 172 3500 
L 594 3500 
L 594 4494 
L 1172 4494 
z
" transform="scale(0.015625)"/>
       <path id="DejaVuSans-5d" d="M 1947 4863 
L 1947 -844 
L 622 -844 
L 622 -397 
L 1369 -397 
L 1369 4416 
L 622 4416 
L 622 4863 
L 1947 4863 
z
" transform="scale(0.015625)"/>
      </defs>
      <use xlink:href="#DejaVuSans-4d"/>
      <use xlink:href="#DejaVuSans-61" x="86.279297"/>
      <use xlink:href="#DejaVuSans-73" x="147.558594"/>
      <use xlink:href="#DejaVuSans-73" x="199.658203"/>
      <use xlink:href="#DejaVuSans-20" x="251.757812"/>
      <use xlink:href="#DejaVuSans-63" x="283.544922"/>
      <use xlink:href="#DejaVuSans-68" x="338.525391"/>
      <use xlink:href="#DejaVuSans-61" x="401.904297"/>
      <use xlink:href="#DejaVuSans-6e" x="463.183594"/>
      <use xlink:href="#DejaVuSans-67" x="526.5625"/>
      <use xlink:href="#DejaVuSans-65" x="590.039062"/>
      <use xlink:href="#DejaVuSans-20" x="651.5625"/>
      <use xlink:href="#DejaVuSans-5b" x="683.349609"/>
      <use xlink:href="#DejaVuSans-47" x="722.363281"/>
      <use xlink:href="#DejaVuSans-74" x="799.853516"/>
      <use xlink:href="#DejaVuSans-5d" x="839.0625"/>
     </g>
    </g>
   </g>
   <g id="line2d_17">
    <path d="M 61.707813 49.737169 
L 69.416403 49.717225 
L 77.825469 47.597425 
L 86.234535 41.827316 
L 94.643601 39.99147 
L 103.052667 40.634963 
L 112.862683 39.422151 
L 120.571274 38.873083 
L 128.279865 37.709492 
L 137.389406 41.731508 
L 145.097997 44.490283 
L 154.207538 45.215104 
L 162.616604 45.185163 
L 170.325195 44.438174 
L 178.734261 41.737486 
L 187.143327 41.882543 
L 195.552393 45.619067 
L 204.661934 45.528052 
L 212.370524 44.620031 
L 220.77959 48.244821 
L 229.188656 47.880176 
L 238.998673 51.317294 
L 246.006788 53.330212 
L 254.415854 50.439854 
L 262.82492 49.485948 
L 271.233986 51.984474 
L 280.343527 51.532142 
L 288.052118 50.172056 
L 296.461184 50.790482 
L 304.87025 53.458157 
L 313.279316 54.425182 
L 321.688382 49.738983 
L 330.097448 50.85884 
L 338.506514 48.62198 
L 346.91558 50.207051 
L 355.324646 49.865469 
L 363.733712 54.878367 
L 375.645994 54.731455 
L 381.252319 54.631442 
L 396.668659 55.959145 
L 397.369975 56.024262 
L 405.779041 58.366964 
L 414.188107 56.769587 
L 414.188107 56.769587 
" clip-path="url(#pd787a5ecee)" style="fill: none; stroke: #d0d1e6; stroke-width: 1.5; stroke-linecap: square"/>
   </g>
   <g id="line2d_18">
    <path d="M 171.02567 44.213117 
L 172.427461 44.461231 
L 173.828412 45.295299 
L 178.734261 47.190522 
L 187.143327 48.330659 
L 195.552393 45.860824 
L 200.457401 46.44543 
L 204.661934 46.795723 
L 208.866467 47.401704 
L 212.370524 47.66802 
L 220.77959 43.280585 
L 229.188656 43.074503 
L 238.998673 39.124286 
L 246.006788 36.764716 
L 254.415854 39.02975 
L 262.82492 39.215815 
L 271.233986 36.370498 
L 281.044002 36.224239 
L 288.052118 36.836843 
L 295.759868 35.876043 
L 296.461184 35.807689 
L 304.87025 33.003901 
L 309.775258 32.111297 
L 313.279316 31.419596 
L 321.688382 35.039407 
L 329.396132 33.375204 
L 330.097448 33.237667 
L 337.805198 35.205756 
L 338.506514 35.37516 
L 344.111997 34.23957 
L 346.91558 33.7504 
L 355.324646 34.618346 
L 363.733712 30.90322 
L 369.339195 31.310406 
L 372.843253 31.470876 
L 380.551843 31.229581 
L 384.05506 30.505358 
L 388.960909 29.17232 
L 393.865918 28.66383 
L 399.472242 27.91344 
L 405.779041 27.216942 
L 407.179992 27.653433 
L 414.188107 29.507935 
L 414.188107 29.507935 
" clip-path="url(#pd787a5ecee)" style="fill: none; stroke: #67a9cf; stroke-width: 1.5; stroke-linecap: square"/>
   </g>
   <g id="line2d_19">
    <path d="M 171.02567 44.213117 
L 172.427461 44.011115 
L 173.828412 44.395068 
L 179.434736 44.821989 
L 199.055609 47.751948 
L 207.464675 48.222638 
L 208.866467 48.221352 
L 214.472791 47.88427 
L 224.984123 47.026924 
L 236.195931 46.371755 
L 252.313588 45.412818 
L 261.423129 44.632047 
L 264.225871 44.427348 
L 271.934461 44.098533 
L 281.745319 43.360638 
L 291.555335 42.582045 
L 296.461184 42.385056 
L 309.074783 41.98144 
L 316.082058 41.277758 
L 323.790648 40.370084 
L 330.097448 39.883391 
L 337.805198 39.801027 
L 345.513788 39.721092 
L 349.718321 39.892895 
L 356.025121 40.36979 
L 365.835978 41.729837 
L 372.142778 42.116044 
L 381.252319 41.522815 
L 384.05506 41.146017 
L 388.960909 40.202062 
L 393.865918 40.149392 
L 397.369975 40.02905 
L 398.070451 40.050801 
L 402.274984 40.782817 
L 407.179992 41.541053 
L 414.188107 42.064407 
L 414.188107 42.064407 
" clip-path="url(#pd787a5ecee)" style="fill: none; stroke: #02818a; stroke-width: 1.5; stroke-linecap: square"/>
   </g>
   <g id="patch_3">
    <path d="M 61.707813 186.84327 
L 61.707813 22.318125 
" style="fill: none; stroke: #000000; stroke-width: 0.8; stroke-linejoin: miter; stroke-linecap: square"/>
   </g>
   <g id="patch_4">
    <path d="M 414.888583 186.84327 
L 414.888583 22.318125 
" style="fill: none; stroke: #000000; stroke-width: 0.8; stroke-linejoin: miter; stroke-linecap: square"/>
   </g>
   <g id="patch_5">
    <path d="M 61.707813 186.84327 
L 414.888583 186.84327 
" style="fill: none; stroke: #000000; stroke-width: 0.8; stroke-linejoin: miter; stroke-linecap: square"/>
   </g>
   <g id="patch_6">
    <path d="M 61.707813 22.318125 
L 414.888583 22.318125 
" style="fill: none; stroke: #000000; stroke-width: 0.8; stroke-linejoin: miter; stroke-linecap: square"/>
   </g>
   <g id="text_19">
    <!-- East Antarctica -->
    <g transform="translate(192.883823 16.318125) scale(0.12 -0.12)">
     <defs>
      <path id="DejaVuSans-45" d="M 628 4666 
L 3578 4666 
L 3578 4134 
L 1259 4134 
L 1259 2753 
L 3481 2753 
L 3481 2222 
L 1259 2222 
L 1259 531 
L 3634 531 
L 3634 0 
L 628 0 
L 628 4666 
z
" transform="scale(0.015625)"/>
      <path id="DejaVuSans-41" d="M 2188 4044 
L 1331 1722 
L 3047 1722 
L 2188 4044 
z
M 1831 4666 
L 2547 4666 
L 4325 0 
L 3669 0 
L 3244 1197 
L 1141 1197 
L 716 0 
L 50 0 
L 1831 4666 
z
" transform="scale(0.015625)"/>
      <path id="DejaVuSans-69" d="M 603 3500 
L 1178 3500 
L 1178 0 
L 603 0 
L 603 3500 
z
M 603 4863 
L 1178 4863 
L 1178 4134 
L 603 4134 
L 603 4863 
z
" transform="scale(0.015625)"/>
     </defs>
     <use xlink:href="#DejaVuSans-45"/>
     <use xlink:href="#DejaVuSans-61" x="63.183594"/>
     <use xlink:href="#DejaVuSans-73" x="124.462891"/>
     <use xlink:href="#DejaVuSans-74" x="176.5625"/>
     <use xlink:href="#DejaVuSans-20" x="215.771484"/>
     <use xlink:href="#DejaVuSans-41" x="247.558594"/>
     <use xlink:href="#DejaVuSans-6e" x="315.966797"/>
     <use xlink:href="#DejaVuSans-74" x="379.345703"/>
     <use xlink:href="#DejaVuSans-61" x="418.554688"/>
     <use xlink:href="#DejaVuSans-72" x="479.833984"/>
     <use xlink:href="#DejaVuSans-63" x="518.697266"/>
     <use xlink:href="#DejaVuSans-74" x="573.677734"/>
     <use xlink:href="#DejaVuSans-69" x="612.886719"/>
     <use xlink:href="#DejaVuSans-63" x="640.669922"/>
     <use xlink:href="#DejaVuSans-61" x="695.650391"/>
    </g>
   </g>
   <g id="legend_1">
    <g id="patch_7">
     <path d="M 421.888583 128.097885 
L 503.19952 128.097885 
Q 505.19952 128.097885 505.19952 126.097885 
L 505.19952 83.06351 
Q 505.19952 81.06351 503.19952 81.06351 
L 421.888583 81.06351 
Q 419.888583 81.06351 419.888583 83.06351 
L 419.888583 126.097885 
Q 419.888583 128.097885 421.888583 128.097885 
z
" style="fill: #ffffff; opacity: 0.8; stroke: #cccccc; stroke-linejoin: miter"/>
    </g>
    <g id="line2d_20">
     <path d="M 423.888583 89.161948 
L 433.888583 89.161948 
L 443.888583 89.161948 
" style="fill: none; stroke: #d0d1e6; stroke-width: 1.5; stroke-linecap: square"/>
    </g>
    <g id="text_20">
     <!-- Surface -->
     <g transform="translate(451.888583 92.661948) scale(0.1 -0.1)">
      <defs>
       <path id="DejaVuSans-53" d="M 3425 4513 
L 3425 3897 
Q 3066 4069 2747 4153 
Q 2428 4238 2131 4238 
Q 1616 4238 1336 4038 
Q 1056 3838 1056 3469 
Q 1056 3159 1242 3001 
Q 1428 2844 1947 2747 
L 2328 2669 
Q 3034 2534 3370 2195 
Q 3706 1856 3706 1288 
Q 3706 609 3251 259 
Q 2797 -91 1919 -91 
Q 1588 -91 1214 -16 
Q 841 59 441 206 
L 441 856 
Q 825 641 1194 531 
Q 1563 422 1919 422 
Q 2459 422 2753 634 
Q 3047 847 3047 1241 
Q 3047 1584 2836 1778 
Q 2625 1972 2144 2069 
L 1759 2144 
Q 1053 2284 737 2584 
Q 422 2884 422 3419 
Q 422 4038 858 4394 
Q 1294 4750 2059 4750 
Q 2388 4750 2728 4690 
Q 3069 4631 3425 4513 
z
" transform="scale(0.015625)"/>
       <path id="DejaVuSans-75" d="M 544 1381 
L 544 3500 
L 1119 3500 
L 1119 1403 
Q 1119 906 1312 657 
Q 1506 409 1894 409 
Q 2359 409 2629 706 
Q 2900 1003 2900 1516 
L 2900 3500 
L 3475 3500 
L 3475 0 
L 2900 0 
L 2900 538 
Q 2691 219 2414 64 
Q 2138 -91 1772 -91 
Q 1169 -91 856 284 
Q 544 659 544 1381 
z
M 1991 3584 
L 1991 3584 
z
" transform="scale(0.015625)"/>
       <path id="DejaVuSans-66" d="M 2375 4863 
L 2375 4384 
L 1825 4384 
Q 1516 4384 1395 4259 
Q 1275 4134 1275 3809 
L 1275 3500 
L 2222 3500 
L 2222 3053 
L 1275 3053 
L 1275 0 
L 697 0 
L 697 3053 
L 147 3053 
L 147 3500 
L 697 3500 
L 697 3744 
Q 697 4328 969 4595 
Q 1241 4863 1831 4863 
L 2375 4863 
z
" transform="scale(0.015625)"/>
      </defs>
      <use xlink:href="#DejaVuSans-53"/>
      <use xlink:href="#DejaVuSans-75" x="63.476562"/>
      <use xlink:href="#DejaVuSans-72" x="126.855469"/>
      <use xlink:href="#DejaVuSans-66" x="167.96875"/>
      <use xlink:href="#DejaVuSans-61" x="203.173828"/>
      <use xlink:href="#DejaVuSans-63" x="264.453125"/>
      <use xlink:href="#DejaVuSans-65" x="319.433594"/>
     </g>
    </g>
    <g id="line2d_21">
     <path d="M 423.888583 103.840073 
L 433.888583 103.840073 
L 443.888583 103.840073 
" style="fill: none; stroke: #67a9cf; stroke-width: 1.5; stroke-linecap: square"/>
    </g>
    <g id="text_21">
     <!-- Dynamics -->
     <g transform="translate(451.888583 107.340073) scale(0.1 -0.1)">
      <defs>
       <path id="DejaVuSans-44" d="M 1259 4147 
L 1259 519 
L 2022 519 
Q 2988 519 3436 956 
Q 3884 1394 3884 2338 
Q 3884 3275 3436 3711 
Q 2988 4147 2022 4147 
L 1259 4147 
z
M 628 4666 
L 1925 4666 
Q 3281 4666 3915 4102 
Q 4550 3538 4550 2338 
Q 4550 1131 3912 565 
Q 3275 0 1925 0 
L 628 0 
L 628 4666 
z
" transform="scale(0.015625)"/>
       <path id="DejaVuSans-79" d="M 2059 -325 
Q 1816 -950 1584 -1140 
Q 1353 -1331 966 -1331 
L 506 -1331 
L 506 -850 
L 844 -850 
Q 1081 -850 1212 -737 
Q 1344 -625 1503 -206 
L 1606 56 
L 191 3500 
L 800 3500 
L 1894 763 
L 2988 3500 
L 3597 3500 
L 2059 -325 
z
" transform="scale(0.015625)"/>
       <path id="DejaVuSans-6d" d="M 3328 2828 
Q 3544 3216 3844 3400 
Q 4144 3584 4550 3584 
Q 5097 3584 5394 3201 
Q 5691 2819 5691 2113 
L 5691 0 
L 5113 0 
L 5113 2094 
Q 5113 2597 4934 2840 
Q 4756 3084 4391 3084 
Q 3944 3084 3684 2787 
Q 3425 2491 3425 1978 
L 3425 0 
L 2847 0 
L 2847 2094 
Q 2847 2600 2669 2842 
Q 2491 3084 2119 3084 
Q 1678 3084 1418 2786 
Q 1159 2488 1159 1978 
L 1159 0 
L 581 0 
L 581 3500 
L 1159 3500 
L 1159 2956 
Q 1356 3278 1631 3431 
Q 1906 3584 2284 3584 
Q 2666 3584 2933 3390 
Q 3200 3197 3328 2828 
z
" transform="scale(0.015625)"/>
      </defs>
      <use xlink:href="#DejaVuSans-44"/>
      <use xlink:href="#DejaVuSans-79" x="77.001953"/>
      <use xlink:href="#DejaVuSans-6e" x="136.181641"/>
      <use xlink:href="#DejaVuSans-61" x="199.560547"/>
      <use xlink:href="#DejaVuSans-6d" x="260.839844"/>
      <use xlink:href="#DejaVuSans-69" x="358.251953"/>
      <use xlink:href="#DejaVuSans-63" x="386.035156"/>
      <use xlink:href="#DejaVuSans-73" x="441.015625"/>
     </g>
    </g>
    <g id="line2d_22">
     <path d="M 423.888583 118.518198 
L 433.888583 118.518198 
L 443.888583 118.518198 
" style="fill: none; stroke: #02818a; stroke-width: 1.5; stroke-linecap: square"/>
    </g>
    <g id="text_22">
     <!-- Total -->
     <g transform="translate(451.888583 122.018198) scale(0.1 -0.1)">
      <defs>
       <path id="DejaVuSans-54" d="M -19 4666 
L 3928 4666 
L 3928 4134 
L 2272 4134 
L 2272 0 
L 1638 0 
L 1638 4134 
L -19 4134 
L -19 4666 
z
" transform="scale(0.015625)"/>
       <path id="DejaVuSans-6f" d="M 1959 3097 
Q 1497 3097 1228 2736 
Q 959 2375 959 1747 
Q 959 1119 1226 758 
Q 1494 397 1959 397 
Q 2419 397 2687 759 
Q 2956 1122 2956 1747 
Q 2956 2369 2687 2733 
Q 2419 3097 1959 3097 
z
M 1959 3584 
Q 2709 3584 3137 3096 
Q 3566 2609 3566 1747 
Q 3566 888 3137 398 
Q 2709 -91 1959 -91 
Q 1206 -91 779 398 
Q 353 888 353 1747 
Q 353 2609 779 3096 
Q 1206 3584 1959 3584 
z
" transform="scale(0.015625)"/>
       <path id="DejaVuSans-6c" d="M 603 4863 
L 1178 4863 
L 1178 0 
L 603 0 
L 603 4863 
z
" transform="scale(0.015625)"/>
      </defs>
      <use xlink:href="#DejaVuSans-54"/>
      <use xlink:href="#DejaVuSans-6f" x="44.083984"/>
      <use xlink:href="#DejaVuSans-74" x="105.265625"/>
      <use xlink:href="#DejaVuSans-61" x="144.474609"/>
      <use xlink:href="#DejaVuSans-6c" x="205.753906"/>
     </g>
    </g>
   </g>
  </g>
 </g>
 <defs>
  <clipPath id="pd787a5ecee">
   <rect x="61.707813" y="22.318125" width="353.18077" height="164.525145"/>
  </clipPath>
 </defs>
</svg>
