<?xml version="1.0" encoding="utf-8" standalone="no"?>
<!DOCTYPE svg PUBLIC "-//W3C//DTD SVG 1.1//EN"
  "http://www.w3.org/Graphics/SVG/1.1/DTD/svg11.dtd">
<svg xmlns:xlink="http://www.w3.org/1999/xlink" width="512.39952pt" height="224.39952pt" viewBox="0 0 512.39952 224.39952" xmlns="http://www.w3.org/2000/svg" version="1.1">
 <metadata>
  <rdf:RDF xmlns:dc="http://purl.org/dc/elements/1.1/" xmlns:cc="http://creativecommons.org/ns#" xmlns:rdf="http://www.w3.org/1999/02/22-rdf-syntax-ns#">
   <cc:Work>
    <dc:type rdf:resource="http://purl.org/dc/dcmitype/StillImage"/>
    <dc:date>2023-01-24T14:46:14.467691</dc:date>
    <dc:format>image/svg+xml</dc:format>
    <dc:creator>
     <cc:Agent>
      <dc:title>Matplotlib v3.6.2, https://matplotlib.org/</dc:title>
     </cc:Agent>
    </dc:creator>
   </cc:Work>
  </rdf:RDF>
 </metadata>
 <defs>
  <style type="text/css">*{stroke-linejoin: round; stroke-linecap: butt}</style>
 </defs>
 <g id="figure_1">
  <g id="patch_1">
   <path d="M 0 224.39952 
L 512.39952 224.39952 
L 512.39952 0 
L 0 0 
z
" style="fill: #ffffff"/>
  </g>
  <g id="axes_1">
   <g id="patch_2">
    <path d="M 61.707813 186.84327 
L 414.888583 186.84327 
L 414.888583 10.999219 
L 61.707813 10.999219 
z
" style="fill: #ffffff"/>
   </g>
   <g id="PolyCollection_1">
    <path d="M 61.707813 37.801728 
L 61.707813 42.397301 
L 62.408568 42.190255 
L 63.109323 42.300476 
L 63.810079 43.053579 
L 64.510834 43.298523 
L 65.21159 43.668758 
L 65.912345 43.781328 
L 66.613101 43.903979 
L 67.313856 44.05232 
L 68.014612 44.084217 
L 68.715367 44.110754 
L 69.416123 44.136226 
L 70.116878 44.000673 
L 70.817634 43.921206 
L 71.518389 43.767647 
L 72.219145 43.664186 
L 72.9199 43.550483 
L 73.620656 43.454874 
L 74.321411 43.339633 
L 75.022167 43.220181 
L 75.722922 43.08559 
L 76.423678 42.926753 
L 77.124433 42.76082 
L 77.825189 42.567289 
L 78.525944 42.362433 
L 79.2267 42.150423 
L 79.927455 41.950891 
L 80.628211 41.769535 
L 81.328966 41.608513 
L 82.029722 41.442928 
L 82.730477 41.321648 
L 83.431233 41.181724 
L 84.131988 41.016052 
L 84.832744 40.842879 
L 85.533499 40.656454 
L 86.234255 40.461683 
L 86.93501 40.266719 
L 87.635766 40.064968 
L 88.336521 39.86691 
L 89.037277 39.695688 
L 89.738032 39.540526 
L 90.438788 39.419809 
L 91.139543 39.339746 
L 91.840299 39.235357 
L 92.541054 39.10117 
L 93.24181 38.969255 
L 93.942565 38.85489 
L 94.643321 38.718564 
L 95.344076 38.576092 
L 96.044832 38.43551 
L 96.745587 38.308144 
L 97.446343 38.205099 
L 98.147098 38.125561 
L 98.847854 38.044646 
L 99.548609 37.967328 
L 100.249365 37.874197 
L 100.95012 37.784868 
L 101.650876 37.724655 
L 102.351631 37.644011 
L 103.052387 37.543737 
L 103.753142 37.44596 
L 104.453898 37.350558 
L 105.154653 37.268293 
L 105.855409 37.233102 
L 106.556164 37.195317 
L 107.25692 37.176292 
L 107.957675 37.122999 
L 108.658431 37.070447 
L 109.359186 37.025169 
L 110.059942 36.982107 
L 110.760697 36.93826 
L 111.461453 36.887115 
L 112.162208 36.829637 
L 112.862964 36.776898 
L 113.563719 36.731026 
L 114.264475 36.70649 
L 114.96523 36.705874 
L 115.665986 36.715793 
L 116.366741 36.74237 
L 117.067497 36.785449 
L 117.768252 36.820193 
L 118.469008 36.854908 
L 119.169763 36.893995 
L 119.870519 36.943898 
L 120.571274 36.994054 
L 121.27203 37.044273 
L 121.972785 37.116467 
L 122.673541 37.211581 
L 123.374296 37.332181 
L 124.075052 37.454197 
L 124.775807 37.584938 
L 125.476563 37.741331 
L 126.177318 37.906944 
L 126.878074 38.075485 
L 127.578829 38.272133 
L 128.279585 38.458601 
L 128.98034 38.635085 
L 129.681096 38.82077 
L 130.381851 39.026408 
L 131.082607 39.2519 
L 131.783362 39.478936 
L 132.484118 39.714908 
L 133.184873 39.972845 
L 133.885629 40.224513 
L 134.586384 40.479076 
L 135.28714 40.731089 
L 135.987895 40.987923 
L 136.688651 41.236496 
L 137.389406 41.472436 
L 138.090162 41.715311 
L 138.790917 41.968355 
L 139.491673 42.23336 
L 140.192428 42.517354 
L 140.893184 42.794362 
L 141.593939 43.05181 
L 142.294695 43.312735 
L 142.99545 43.581252 
L 143.696206 43.839128 
L 144.396961 44.072364 
L 145.097717 44.28919 
L 145.798472 44.494743 
L 146.499228 44.692765 
L 147.199983 44.892006 
L 147.900739 45.105946 
L 148.601494 45.315134 
L 149.30225 45.519986 
L 150.003005 45.714386 
L 150.70376 45.916565 
L 151.404516 46.104561 
L 152.105271 46.290454 
L 152.806027 46.453941 
L 153.506782 46.599341 
L 154.207538 46.735317 
L 154.908293 46.870041 
L 155.609049 46.99726 
L 156.309804 47.119938 
L 157.01056 47.245665 
L 157.711315 47.367567 
L 158.412071 47.468133 
L 159.112826 47.574554 
L 159.813582 47.666017 
L 160.514337 47.753361 
L 161.215093 47.81183 
L 161.915848 47.856447 
L 162.616604 47.889995 
L 163.317359 47.913558 
L 164.018115 47.937599 
L 164.71887 47.972749 
L 165.419626 48.010459 
L 166.120381 48.024292 
L 166.821137 48.02221 
L 167.521892 48.013828 
L 168.222648 47.996439 
L 168.923403 47.969355 
L 169.624159 47.933763 
L 170.324914 47.882666 
L 171.02567 47.815678 
L 171.726425 47.746707 
L 172.427181 47.68067 
L 173.127936 47.62785 
L 173.828692 47.604531 
L 174.529447 47.574892 
L 175.230203 47.537801 
L 175.930958 47.499642 
L 176.631714 47.471355 
L 177.332469 47.428279 
L 178.033225 47.381091 
L 178.73398 47.352167 
L 179.434736 47.312042 
L 180.135491 47.270094 
L 180.836247 47.253518 
L 181.537002 47.255341 
L 182.237758 47.25132 
L 182.938513 47.256379 
L 183.639269 47.275338 
L 184.340024 47.313425 
L 185.04078 47.359319 
L 185.741535 47.404356 
L 186.442291 47.453893 
L 187.143046 47.500429 
L 187.843802 47.556856 
L 188.544557 47.621052 
L 189.245313 47.689836 
L 189.946068 47.788855 
L 190.646824 47.893459 
L 191.347579 48.014207 
L 192.048335 48.130651 
L 192.74909 48.248618 
L 193.449846 48.371294 
L 194.150601 48.50641 
L 194.851357 48.643114 
L 195.552112 48.774865 
L 196.252868 48.90895 
L 196.953623 49.045721 
L 197.654379 49.196716 
L 198.355134 49.356188 
L 199.05589 49.53019 
L 199.756645 49.704174 
L 200.457401 49.885118 
L 201.158156 50.062671 
L 201.858912 50.238368 
L 202.559667 50.413196 
L 203.260423 50.57907 
L 203.961178 50.729614 
L 204.661934 50.876708 
L 205.362689 51.023316 
L 206.063445 51.175141 
L 206.7642 51.340859 
L 207.464956 51.512075 
L 208.165711 51.668794 
L 208.866467 51.826244 
L 209.567222 51.990901 
L 210.267978 52.14378 
L 210.968733 52.283351 
L 211.669489 52.422698 
L 212.370244 52.558056 
L 213.071 52.687783 
L 213.771755 52.81699 
L 214.472511 52.952843 
L 215.173266 53.108664 
L 215.874022 53.258906 
L 216.574777 53.414679 
L 217.275533 53.568771 
L 217.976288 53.723818 
L 218.677044 53.870351 
L 219.377799 54.015955 
L 220.078555 54.160046 
L 220.77931 54.297305 
L 221.480066 54.432692 
L 222.180821 54.563115 
L 222.881577 54.701912 
L 223.582332 54.851821 
L 224.283088 55.009897 
L 224.983843 55.191042 
L 225.684599 55.356466 
L 226.385354 55.501136 
L 227.08611 55.646881 
L 227.786865 55.784827 
L 228.487621 55.912768 
L 229.188376 56.044327 
L 229.889132 56.171517 
L 230.589887 56.289772 
L 231.290643 56.409322 
L 231.991398 56.535597 
L 232.692154 56.657804 
L 233.392909 56.787233 
L 234.093665 56.900883 
L 234.79442 57.004883 
L 235.495176 57.10853 
L 236.195931 57.198221 
L 236.896687 57.299851 
L 237.597442 57.382086 
L 238.298197 57.447269 
L 238.998953 57.499399 
L 239.699708 57.549093 
L 240.400464 57.609656 
L 241.101219 57.652575 
L 241.801975 57.693151 
L 242.50273 57.725894 
L 243.203486 57.755453 
L 243.904241 57.775213 
L 244.604997 57.789443 
L 245.305752 57.788243 
L 246.006508 57.775845 
L 246.707263 57.746135 
L 247.408019 57.709483 
L 248.108774 57.67495 
L 248.80953 57.645647 
L 249.510285 57.615321 
L 250.211041 57.585488 
L 250.911796 57.547705 
L 251.612552 57.499571 
L 252.313307 57.441914 
L 253.014063 57.380455 
L 253.714818 57.318942 
L 254.415574 57.250072 
L 255.116329 57.189441 
L 255.817085 57.123868 
L 256.51784 57.060331 
L 257.218596 57.010197 
L 257.919351 56.964706 
L 258.620107 56.916511 
L 259.320862 56.866185 
L 260.021618 56.816831 
L 260.722373 56.780002 
L 261.423129 56.740652 
L 262.123884 56.697568 
L 262.82464 56.6499 
L 263.525395 56.605018 
L 264.226151 56.563616 
L 264.926906 56.531017 
L 265.627662 56.507854 
L 266.328417 56.500928 
L 267.029173 56.489505 
L 267.729928 56.466057 
L 268.430684 56.44535 
L 269.131439 56.432056 
L 269.832195 56.417123 
L 270.53295 56.396645 
L 271.233706 56.36459 
L 271.934461 56.326253 
L 272.635217 56.28968 
L 273.335972 56.264093 
L 274.036728 56.248149 
L 274.737483 56.235142 
L 275.438239 56.218758 
L 276.138994 56.202981 
L 276.83975 56.18026 
L 277.540505 56.156832 
L 278.241261 56.126886 
L 278.942016 56.084971 
L 279.642772 56.040744 
L 280.343527 55.987696 
L 281.044283 55.931387 
L 281.745038 55.883689 
L 282.445794 55.845323 
L 283.146549 55.808795 
L 283.847305 55.773269 
L 284.54806 55.744489 
L 285.248816 55.714208 
L 285.949571 55.687019 
L 286.650327 55.669606 
L 287.351082 55.664157 
L 288.051838 55.64686 
L 288.752593 55.622973 
L 289.453349 55.604111 
L 290.154104 55.597501 
L 290.85486 55.6058 
L 291.555615 55.625389 
L 292.256371 55.65671 
L 292.957126 55.690845 
L 293.657882 55.734936 
L 294.358637 55.773484 
L 295.059393 55.814238 
L 295.760148 55.871251 
L 296.460904 55.931031 
L 297.161659 55.983337 
L 297.862415 56.036243 
L 298.56317 56.096075 
L 299.263926 56.172027 
L 299.964681 56.256143 
L 300.665437 56.344454 
L 301.366192 56.43174 
L 302.066948 56.513641 
L 302.767703 56.593336 
L 303.468459 56.675756 
L 304.169214 56.756762 
L 304.86997 56.832972 
L 305.570725 56.910446 
L 306.271481 56.984856 
L 306.972236 57.063267 
L 307.672992 57.144733 
L 308.373747 57.231651 
L 309.074503 57.316537 
L 309.775258 57.389095 
L 310.476014 57.470263 
L 311.176769 57.555935 
L 311.877525 57.639039 
L 312.57828 57.699121 
L 313.279036 57.756489 
L 313.979791 57.807733 
L 314.680547 57.85442 
L 315.381302 57.907119 
L 316.082058 57.968834 
L 316.782813 58.017017 
L 317.483569 58.072427 
L 318.184324 58.127776 
L 318.88508 58.187509 
L 319.585835 58.238809 
L 320.286591 58.280675 
L 320.987346 58.315277 
L 321.688102 58.343836 
L 322.388857 58.366755 
L 323.089613 58.389633 
L 323.790368 58.419344 
L 324.491124 58.454489 
L 325.191879 58.489301 
L 325.892635 58.527328 
L 326.59339 58.568642 
L 327.294145 58.617126 
L 327.994901 58.669095 
L 328.695656 58.724909 
L 329.396412 58.782215 
L 330.097167 58.836958 
L 330.797923 58.8849 
L 331.498678 58.934646 
L 332.199434 58.992884 
L 332.900189 59.061493 
L 333.600945 59.136847 
L 334.3017 59.217843 
L 335.002456 59.299754 
L 335.703211 59.400264 
L 336.403967 59.506745 
L 337.104722 59.600016 
L 337.805478 59.692898 
L 338.506233 59.783824 
L 339.206989 59.884019 
L 339.907744 59.985939 
L 340.6085 60.094937 
L 341.309255 60.217818 
L 342.010011 60.344369 
L 342.710766 60.487087 
L 343.411522 60.632035 
L 344.112277 60.771747 
L 344.813033 60.917892 
L 345.513788 61.067979 
L 346.214544 61.21836 
L 346.915299 61.371137 
L 347.616055 61.528396 
L 348.31681 61.697296 
L 349.017566 61.879463 
L 349.718321 62.078206 
L 350.419077 62.282357 
L 351.119832 62.489338 
L 351.820588 62.699646 
L 352.521343 62.911743 
L 353.222099 63.128866 
L 353.922854 63.357251 
L 354.62361 63.574541 
L 355.324365 63.785495 
L 356.025121 63.991638 
L 356.725876 64.193922 
L 357.426632 64.396766 
L 358.127387 64.603116 
L 358.828143 64.812658 
L 359.528898 65.02048 
L 360.229654 65.212163 
L 360.930409 65.3922 
L 361.631165 65.564653 
L 362.33192 65.72536 
L 363.032676 65.876875 
L 363.733431 66.008437 
L 364.434187 66.124195 
L 365.134942 66.232445 
L 365.835698 66.332967 
L 366.536453 66.435229 
L 367.237209 66.527525 
L 367.937964 66.616204 
L 368.63872 66.679325 
L 369.339475 66.733954 
L 370.040231 66.783351 
L 370.740986 66.82318 
L 371.441742 66.844561 
L 372.142497 66.857059 
L 372.843253 66.86348 
L 373.544008 66.860147 
L 374.244764 66.85442 
L 374.945519 66.84939 
L 375.646275 66.840505 
L 376.34703 66.84619 
L 377.047786 66.84343 
L 377.748541 66.834707 
L 378.449297 66.819475 
L 379.150052 66.806563 
L 379.850808 66.796453 
L 380.551563 66.77525 
L 381.252319 66.747346 
L 381.953074 66.72326 
L 382.65383 66.711135 
L 383.354585 66.711425 
L 384.055341 66.712186 
L 384.756096 66.7254 
L 385.456852 66.736255 
L 386.157607 66.749432 
L 386.858363 66.770608 
L 387.559118 66.795108 
L 388.259874 66.816376 
L 388.960629 66.845865 
L 389.661385 66.869283 
L 390.36214 66.893124 
L 391.062896 66.928494 
L 391.763651 66.979389 
L 392.464407 67.029249 
L 393.165162 67.077991 
L 393.865918 67.125109 
L 394.566673 67.176347 
L 395.267429 67.221239 
L 395.968184 67.264699 
L 396.66894 67.313153 
L 397.369695 67.352087 
L 398.070451 67.378377 
L 398.771206 67.399912 
L 399.471962 67.42371 
L 400.172717 67.44996 
L 400.873473 67.467093 
L 401.574228 67.475808 
L 402.274984 67.484004 
L 402.975739 67.488544 
L 403.676495 67.486589 
L 404.37725 67.470434 
L 405.078006 67.442161 
L 405.778761 67.401015 
L 406.479517 67.349611 
L 407.180272 67.294211 
L 407.881028 67.242604 
L 408.581783 67.198809 
L 409.282539 67.151904 
L 409.983294 67.100163 
L 410.68405 67.049895 
L 411.384805 67.001404 
L 412.085561 66.937971 
L 412.786316 66.872851 
L 413.487072 66.809988 
L 414.187827 66.742294 
L 414.888582 66.671555 
L 415.589338 66.600451 
L 416.290093 66.529354 
L 416.990849 66.469442 
L 417.691604 66.409476 
L 418.39236 66.350606 
L 419.093115 66.290897 
L 419.793871 66.231676 
L 420.494626 66.171712 
L 421.195382 66.108726 
L 421.896137 66.072651 
L 422.596893 66.027908 
L 423.297648 65.982928 
L 423.297648 22.261877 
L 423.297648 22.261877 
L 422.596893 22.383581 
L 421.896137 22.505523 
L 421.195382 22.636132 
L 420.494626 22.739831 
L 419.793871 22.846551 
L 419.093115 22.954014 
L 418.39236 23.06099 
L 417.691604 23.168804 
L 416.990849 23.275522 
L 416.290093 23.382295 
L 415.589338 23.477883 
L 414.888582 23.573463 
L 414.187827 23.669408 
L 413.487072 23.768398 
L 412.786316 23.87222 
L 412.085561 23.973784 
L 411.384805 24.077035 
L 410.68405 24.195229 
L 409.983294 24.311645 
L 409.282539 24.426588 
L 408.581783 24.535657 
L 407.881028 24.637264 
L 407.180272 24.720949 
L 406.479517 24.791316 
L 405.778761 24.856216 
L 405.078006 24.921108 
L 404.37725 24.987185 
L 403.676495 25.052358 
L 402.975739 25.11775 
L 402.274984 25.174979 
L 401.574228 25.220841 
L 400.873473 25.252296 
L 400.172717 25.277986 
L 399.471962 25.299726 
L 398.771206 25.307146 
L 398.070451 25.301625 
L 397.369695 25.292415 
L 396.66894 25.289351 
L 395.968184 25.291084 
L 395.267429 25.284411 
L 394.566673 25.276883 
L 393.865918 25.274694 
L 393.165162 25.268698 
L 392.464407 25.265722 
L 391.763651 25.266245 
L 391.062896 25.27135 
L 390.36214 25.265648 
L 389.661385 25.254394 
L 388.960629 25.249863 
L 388.259874 25.259445 
L 387.559118 25.269273 
L 386.858363 25.291095 
L 386.157607 25.318556 
L 385.456852 25.347412 
L 384.756096 25.383613 
L 384.055341 25.431635 
L 383.354585 25.476157 
L 382.65383 25.528611 
L 381.953074 25.57622 
L 381.252319 25.618282 
L 380.551563 25.66158 
L 379.850808 25.715319 
L 379.150052 25.782724 
L 378.449297 25.848566 
L 377.748541 25.912086 
L 377.047786 25.980891 
L 376.34703 26.052815 
L 375.646275 26.128309 
L 374.945519 26.182295 
L 374.244764 26.231322 
L 373.544008 26.269245 
L 372.843253 26.297791 
L 372.142497 26.323155 
L 371.441742 26.340628 
L 370.740986 26.351941 
L 370.040231 26.365238 
L 369.339475 26.370052 
L 368.63872 26.360737 
L 367.937964 26.339317 
L 367.237209 26.321753 
L 366.536453 26.285499 
L 365.835698 26.236625 
L 365.134942 26.163253 
L 364.434187 26.074802 
L 363.733431 25.971273 
L 363.032676 25.861846 
L 362.33192 25.751576 
L 361.631165 25.630687 
L 360.930409 25.502704 
L 360.229654 25.364617 
L 359.528898 25.22212 
L 358.828143 25.081723 
L 358.127387 24.9309 
L 357.426632 24.766531 
L 356.725876 24.590064 
L 356.025121 24.406168 
L 355.324365 24.221047 
L 354.62361 24.037588 
L 353.922854 23.859554 
L 353.222099 23.694027 
L 352.521343 23.520875 
L 351.820588 23.348633 
L 351.119832 23.182871 
L 350.419077 23.024143 
L 349.718321 22.874398 
L 349.017566 22.731936 
L 348.31681 22.586138 
L 347.616055 22.440667 
L 346.915299 22.297318 
L 346.214544 22.163104 
L 345.513788 22.039721 
L 344.813033 21.928867 
L 344.112277 21.826456 
L 343.411522 21.729352 
L 342.710766 21.6487 
L 342.010011 21.576845 
L 341.309255 21.499724 
L 340.6085 21.429413 
L 339.907744 21.355037 
L 339.206989 21.28278 
L 338.506233 21.217425 
L 337.805478 21.150919 
L 337.104722 21.094367 
L 336.403967 21.046015 
L 335.703211 21.018513 
L 335.002456 20.992799 
L 334.3017 20.956593 
L 333.600945 20.927874 
L 332.900189 20.901926 
L 332.199434 20.877376 
L 331.498678 20.850185 
L 330.797923 20.821759 
L 330.097167 20.798382 
L 329.396412 20.788355 
L 328.695656 20.787083 
L 327.994901 20.790144 
L 327.294145 20.79465 
L 326.59339 20.800176 
L 325.892635 20.80217 
L 325.191879 20.803789 
L 324.491124 20.804668 
L 323.790368 20.8081 
L 323.089613 20.807988 
L 322.388857 20.802235 
L 321.688102 20.796766 
L 320.987346 20.796138 
L 320.286591 20.799946 
L 319.585835 20.809051 
L 318.88508 20.825332 
L 318.184324 20.847142 
L 317.483569 20.861075 
L 316.782813 20.871173 
L 316.082058 20.869669 
L 315.381302 20.876877 
L 314.680547 20.869843 
L 313.979791 20.851083 
L 313.279036 20.830784 
L 312.57828 20.809867 
L 311.877525 20.784394 
L 311.176769 20.774662 
L 310.476014 20.76091 
L 309.775258 20.736908 
L 309.074503 20.69905 
L 308.373747 20.66873 
L 307.672992 20.636327 
L 306.972236 20.595061 
L 306.271481 20.548317 
L 305.570725 20.496231 
L 304.86997 20.446974 
L 304.169214 20.397188 
L 303.468459 20.353815 
L 302.767703 20.314084 
L 302.066948 20.274152 
L 301.366192 20.23917 
L 300.665437 20.212477 
L 299.964681 20.189925 
L 299.263926 20.166715 
L 298.56317 20.139674 
L 297.862415 20.102058 
L 297.161659 20.064412 
L 296.460904 20.034534 
L 295.760148 20.021834 
L 295.059393 20.017159 
L 294.358637 20.008004 
L 293.657882 20.009397 
L 292.957126 20.030123 
L 292.256371 20.055313 
L 291.555615 20.092188 
L 290.85486 20.131546 
L 290.154104 20.173705 
L 289.453349 20.215018 
L 288.752593 20.257736 
L 288.051838 20.308506 
L 287.351082 20.378297 
L 286.650327 20.471341 
L 285.949571 20.562555 
L 285.248816 20.652736 
L 284.54806 20.746909 
L 283.847305 20.847767 
L 283.146549 20.945157 
L 282.445794 21.043068 
L 281.745038 21.139062 
L 281.044283 21.224364 
L 280.343527 21.298584 
L 279.642772 21.372825 
L 278.942016 21.452299 
L 278.241261 21.530393 
L 277.540505 21.616825 
L 276.83975 21.706253 
L 276.138994 21.792871 
L 275.438239 21.883013 
L 274.737483 21.969292 
L 274.036728 22.055962 
L 273.335972 22.13697 
L 272.635217 22.205835 
L 271.934461 22.261528 
L 271.233706 22.313799 
L 270.53295 22.37116 
L 269.832195 22.43934 
L 269.131439 22.512518 
L 268.430684 22.587146 
L 267.729928 22.65495 
L 267.029173 22.721561 
L 266.328417 22.802643 
L 265.627662 22.891538 
L 264.926906 22.96805 
L 264.226151 23.03955 
L 263.525395 23.107366 
L 262.82464 23.177377 
L 262.123884 23.250987 
L 261.423129 23.336387 
L 260.722373 23.433499 
L 260.021618 23.54137 
L 259.320862 23.644718 
L 258.620107 23.754675 
L 257.919351 23.873401 
L 257.218596 24.000338 
L 256.51784 24.126984 
L 255.817085 24.243085 
L 255.116329 24.358347 
L 254.415574 24.477962 
L 253.714818 24.587209 
L 253.014063 24.700393 
L 252.313307 24.80892 
L 251.612552 24.91529 
L 250.911796 25.023912 
L 250.211041 25.134305 
L 249.510285 25.242767 
L 248.80953 25.339982 
L 248.108774 25.426983 
L 247.408019 25.497025 
L 246.707263 25.552765 
L 246.006508 25.602677 
L 245.305752 25.656664 
L 244.604997 25.708358 
L 243.904241 25.761779 
L 243.203486 25.806743 
L 242.50273 25.846975 
L 241.801975 25.875338 
L 241.101219 25.896323 
L 240.400464 25.904583 
L 239.699708 25.915446 
L 238.998953 25.900418 
L 238.298197 25.873013 
L 237.597442 25.844009 
L 236.896687 25.817466 
L 236.195931 25.795996 
L 235.495176 25.748862 
L 234.79442 25.702637 
L 234.093665 25.644263 
L 233.392909 25.58381 
L 232.692154 25.528695 
L 231.991398 25.457203 
L 231.290643 25.381964 
L 230.589887 25.29358 
L 229.889132 25.198964 
L 229.188376 25.109563 
L 228.487621 25.021563 
L 227.786865 24.927238 
L 227.08611 24.840272 
L 226.385354 24.758418 
L 225.684599 24.673 
L 224.983843 24.606078 
L 224.283088 24.552906 
L 223.582332 24.47475 
L 222.881577 24.386574 
L 222.180821 24.285452 
L 221.480066 24.1743 
L 220.77931 24.066714 
L 220.078555 23.960208 
L 219.377799 23.860383 
L 218.677044 23.762524 
L 217.976288 23.666628 
L 217.275533 23.580726 
L 216.574777 23.495443 
L 215.874022 23.41323 
L 215.173266 23.326582 
L 214.472511 23.24653 
L 213.771755 23.147452 
L 213.071 23.042461 
L 212.370244 22.938427 
L 211.669489 22.840219 
L 210.968733 22.745747 
L 210.267978 22.65035 
L 209.567222 22.566064 
L 208.866467 22.490555 
L 208.165711 22.404298 
L 207.464956 22.313621 
L 206.7642 22.233492 
L 206.063445 22.143441 
L 205.362689 22.034693 
L 204.661934 21.916002 
L 203.961178 21.793507 
L 203.260423 21.670676 
L 202.559667 21.56013 
L 201.858912 21.456554 
L 201.158156 21.353026 
L 200.457401 21.2519 
L 199.756645 21.156318 
L 199.05589 21.057587 
L 198.355134 20.963916 
L 197.654379 20.861867 
L 196.953623 20.75858 
L 196.252868 20.649178 
L 195.552112 20.545914 
L 194.851357 20.449717 
L 194.150601 20.36833 
L 193.449846 20.295818 
L 192.74909 20.222037 
L 192.048335 20.15562 
L 191.347579 20.100709 
L 190.646824 20.063976 
L 189.946068 20.025616 
L 189.245313 19.996822 
L 188.544557 19.953664 
L 187.843802 19.922455 
L 187.143046 19.90072 
L 186.442291 19.886993 
L 185.741535 19.894712 
L 185.04078 19.916553 
L 184.340024 19.958028 
L 183.639269 20.010604 
L 182.938513 20.062952 
L 182.237758 20.119872 
L 181.537002 20.18562 
L 180.836247 20.274296 
L 180.135491 20.36037 
L 179.434736 20.435225 
L 178.73398 20.524363 
L 178.033225 20.635412 
L 177.332469 20.737206 
L 176.631714 20.850543 
L 175.930958 20.98459 
L 175.230203 21.113176 
L 174.529447 21.245885 
L 173.828692 21.387675 
L 173.127936 21.53597 
L 172.427181 21.653364 
L 171.726425 21.754644 
L 171.02567 21.848647 
L 170.324914 21.938656 
L 169.624159 22.036807 
L 168.923403 22.14079 
L 168.222648 22.241632 
L 167.521892 22.338543 
L 166.821137 22.429284 
L 166.120381 22.51004 
L 165.419626 22.589506 
L 164.71887 22.67473 
L 164.018115 22.738647 
L 163.317359 22.772276 
L 162.616604 22.785913 
L 161.915848 22.790114 
L 161.215093 22.785989 
L 160.514337 22.776488 
L 159.813582 22.777042 
L 159.112826 22.763475 
L 158.412071 22.747156 
L 157.711315 22.707627 
L 157.01056 22.672478 
L 156.309804 22.62475 
L 155.609049 22.558158 
L 154.908293 22.481004 
L 154.207538 22.396675 
L 153.506782 22.299186 
L 152.806027 22.197011 
L 152.105271 22.098802 
L 151.404516 22.009047 
L 150.70376 21.907962 
L 150.003005 21.808096 
L 149.30225 21.687923 
L 148.601494 21.566085 
L 147.900739 21.43669 
L 147.199983 21.300057 
L 146.499228 21.136605 
L 145.798472 20.959748 
L 145.097717 20.778316 
L 144.396961 20.59645 
L 143.696206 20.420177 
L 142.99545 20.258738 
L 142.294695 20.099136 
L 141.593939 19.924181 
L 140.893184 19.739315 
L 140.192428 19.569278 
L 139.491673 19.403302 
L 138.790917 19.217131 
L 138.090162 19.019286 
L 137.389406 18.812701 
L 136.688651 18.601515 
L 135.987895 18.406235 
L 135.28714 18.223314 
L 134.586384 18.040843 
L 133.885629 17.867501 
L 133.184873 17.699253 
L 132.484118 17.546585 
L 131.783362 17.382421 
L 131.082607 17.221195 
L 130.381851 17.071897 
L 129.681096 16.91823 
L 128.98034 16.762138 
L 128.279585 16.616155 
L 127.578829 16.500979 
L 126.878074 16.418101 
L 126.177318 16.330169 
L 125.476563 16.263232 
L 124.775807 16.211717 
L 124.075052 16.159353 
L 123.374296 16.122952 
L 122.673541 16.109653 
L 121.972785 16.095236 
L 121.27203 16.081954 
L 120.571274 16.070103 
L 119.870519 16.080835 
L 119.169763 16.113058 
L 118.469008 16.155261 
L 117.768252 16.21308 
L 117.067497 16.290166 
L 116.366741 16.393603 
L 115.665986 16.497071 
L 114.96523 16.599516 
L 114.264475 16.70673 
L 113.563719 16.804893 
L 112.862964 16.895934 
L 112.162208 16.993421 
L 111.461453 17.098254 
L 110.760697 17.22034 
L 110.059942 17.359582 
L 109.359186 17.508207 
L 108.658431 17.661891 
L 107.957675 17.814302 
L 107.25692 17.971024 
L 106.556164 18.166617 
L 105.855409 18.347981 
L 105.154653 18.536761 
L 104.453898 18.68366 
L 103.753142 18.823013 
L 103.052387 18.966059 
L 102.351631 19.113204 
L 101.650876 19.28701 
L 100.95012 19.488347 
L 100.249365 19.66753 
L 99.548609 19.849604 
L 98.847854 20.054033 
L 98.147098 20.261333 
L 97.446343 20.476873 
L 96.745587 20.676352 
L 96.044832 20.859722 
L 95.344076 21.039114 
L 94.643321 21.226959 
L 93.942565 21.432214 
L 93.24181 21.671211 
L 92.541054 21.904843 
L 91.840299 22.14864 
L 91.139543 22.434788 
L 90.438788 22.757596 
L 89.738032 23.051362 
L 89.037277 23.321405 
L 88.336521 23.585241 
L 87.635766 23.831288 
L 86.93501 24.082176 
L 86.234255 24.347801 
L 85.533499 24.620331 
L 84.832744 24.907145 
L 84.131988 25.212441 
L 83.431233 25.52967 
L 82.730477 25.876115 
L 82.029722 26.243517 
L 81.328966 26.567692 
L 80.628211 26.895945 
L 79.927455 27.201414 
L 79.2267 27.483754 
L 78.525944 27.746226 
L 77.825189 28.00661 
L 77.124433 28.268013 
L 76.423678 28.546444 
L 75.722922 28.821682 
L 75.022167 29.111096 
L 74.321411 29.405736 
L 73.620656 29.704587 
L 72.9199 30.02307 
L 72.219145 30.32346 
L 71.518389 30.634091 
L 70.817634 30.894625 
L 70.116878 31.229249 
L 69.416123 31.507788 
L 68.715367 31.947352 
L 68.014612 32.387981 
L 67.313856 32.833971 
L 66.613101 33.396404 
L 65.912345 33.933148 
L 65.21159 34.459809 
L 64.510834 35.244137 
L 63.810079 35.903173 
L 63.109323 37.070368 
L 62.408568 37.594682 
L 61.707813 37.801728 
z
" clip-path="url(#pcd03febf15)" style="fill: #d0d1e6; fill-opacity: 0.25"/>
   </g>
   <g id="PolyCollection_2">
    <path d="M 171.02567 33.709226 
L 171.02567 35.955099 
L 171.726145 35.962584 
L 172.427461 36.478766 
L 173.127936 37.358823 
L 173.828412 38.27315 
L 174.529728 38.892933 
L 175.230203 39.397125 
L 175.930678 39.86818 
L 176.631994 40.347657 
L 177.332469 40.749044 
L 178.032945 41.113457 
L 178.734261 41.510654 
L 179.434736 41.905721 
L 180.135211 42.268903 
L 180.836527 42.674764 
L 181.537002 43.096732 
L 182.237478 43.465654 
L 182.938794 43.822465 
L 183.639269 44.178704 
L 184.339744 44.54602 
L 185.04106 44.895502 
L 185.741535 45.207482 
L 186.44201 45.49637 
L 187.143327 45.745926 
L 187.843802 46.009766 
L 188.544277 46.260648 
L 189.245593 46.494092 
L 189.946068 46.767713 
L 190.646543 47.027459 
L 191.34786 47.296993 
L 192.048335 47.533887 
L 192.74881 47.752504 
L 193.450126 47.961223 
L 194.150601 48.17713 
L 194.851076 48.379228 
L 195.552393 48.5558 
L 196.252868 48.743075 
L 196.953343 48.922524 
L 197.654659 49.11698 
L 198.355134 49.316227 
L 199.055609 49.532985 
L 199.756926 49.676119 
L 200.457401 49.825265 
L 201.157876 49.963804 
L 201.859192 50.097061 
L 202.559667 50.228857 
L 203.260142 50.346561 
L 203.961458 50.440792 
L 204.661934 50.526 
L 205.362409 50.616322 
L 206.063725 50.721745 
L 206.7642 50.856977 
L 207.464675 51.00657 
L 208.165991 51.135954 
L 208.866467 51.195845 
L 209.566942 51.271495 
L 210.268258 51.330779 
L 210.968733 51.37054 
L 211.669208 51.411017 
L 212.370524 51.44496 
L 213.071 51.396619 
L 213.771475 51.346025 
L 214.472791 51.304834 
L 215.173266 51.293718 
L 215.873741 51.271856 
L 216.575057 51.256698 
L 217.275533 51.236544 
L 217.976008 51.215308 
L 218.677324 51.178592 
L 219.377799 51.138772 
L 220.078274 51.095733 
L 220.77959 51.042223 
L 221.480066 50.999937 
L 222.180541 50.952129 
L 222.881857 50.91877 
L 223.582332 50.903993 
L 224.282807 50.903195 
L 224.984123 50.938152 
L 225.684599 50.95159 
L 226.385074 50.936962 
L 227.08639 50.926575 
L 227.786865 50.907844 
L 228.48734 50.877673 
L 229.188656 50.855771 
L 229.889132 50.850223 
L 230.589607 50.836845 
L 231.290923 50.831118 
L 231.991398 50.842446 
L 232.691873 50.857177 
L 233.393189 50.892731 
L 234.093665 50.918386 
L 234.79414 50.944375 
L 235.495456 50.984543 
L 236.195931 51.020697 
L 236.896406 51.089332 
L 237.597722 51.147992 
L 238.298198 51.208435 
L 238.998673 51.267096 
L 239.699989 51.339786 
L 240.400464 51.444683 
L 241.100939 51.54315 
L 241.802255 51.655904 
L 242.50273 51.7757 
L 243.203206 51.908559 
L 243.904522 52.04503 
L 244.604997 52.19017 
L 245.305472 52.330569 
L 246.006788 52.471657 
L 246.707263 52.623031 
L 247.407739 52.78021 
L 248.109055 52.954132 
L 248.80953 53.14825 
L 249.510005 53.353744 
L 250.211321 53.571974 
L 250.911796 53.790968 
L 251.612272 54.006188 
L 252.313588 54.217274 
L 253.014063 54.43012 
L 253.714538 54.648102 
L 254.415854 54.860425 
L 255.116329 55.073018 
L 255.816805 55.279367 
L 256.518121 55.486778 
L 257.218596 55.7077 
L 257.919071 55.929304 
L 258.620387 56.16509 
L 259.320862 56.390448 
L 260.021338 56.610033 
L 260.722654 56.83548 
L 261.423129 57.048365 
L 262.123604 57.247533 
L 262.82492 57.432858 
L 263.525395 57.679514 
L 264.225871 57.937301 
L 264.927187 58.207185 
L 265.627662 58.479962 
L 266.328137 58.75907 
L 267.029453 59.025584 
L 267.729928 59.274479 
L 268.430404 59.543677 
L 269.13172 59.825206 
L 269.832195 60.12421 
L 270.53267 60.415235 
L 271.233986 60.68705 
L 271.934461 60.943718 
L 272.634937 61.201636 
L 273.336253 61.474998 
L 274.036728 61.757289 
L 274.737203 62.038652 
L 275.438519 62.313978 
L 276.138994 62.591007 
L 276.839469 62.865879 
L 277.540786 63.144051 
L 278.241261 63.417753 
L 278.941736 63.675981 
L 279.643052 63.928958 
L 280.343527 64.172655 
L 281.044002 64.414261 
L 281.745319 64.661922 
L 282.445794 64.916094 
L 283.146269 65.166695 
L 283.847585 65.413125 
L 284.54806 65.661731 
L 285.248535 65.911133 
L 285.949852 66.169518 
L 286.650327 66.436274 
L 287.350802 66.71079 
L 288.052118 66.955639 
L 288.752593 67.212498 
L 289.453068 67.467116 
L 290.154385 67.721264 
L 290.85486 67.97527 
L 291.555335 68.224864 
L 292.256651 68.477213 
L 292.957126 68.724568 
L 293.657601 68.981532 
L 294.358917 69.228596 
L 295.059393 69.47422 
L 295.759868 69.731232 
L 296.461184 69.98571 
L 297.161659 70.244321 
L 297.862134 70.501806 
L 298.56345 70.768245 
L 299.263926 71.045519 
L 299.964401 71.324958 
L 300.665717 71.601561 
L 301.366192 71.872971 
L 302.066667 72.140063 
L 302.767983 72.405529 
L 303.468459 72.669715 
L 304.168934 72.927056 
L 304.87025 73.175149 
L 305.570725 73.429355 
L 306.2712 73.67729 
L 306.972516 73.926746 
L 307.672992 74.176735 
L 308.373467 74.432128 
L 309.074783 74.686551 
L 309.775258 74.93014 
L 310.475733 75.193068 
L 311.177049 75.471091 
L 311.877525 75.75462 
L 312.578 76.041269 
L 313.279316 76.32846 
L 313.979791 76.593196 
L 314.680266 76.863683 
L 315.381582 77.146769 
L 316.082058 77.439907 
L 316.782533 77.721799 
L 317.483849 78.016934 
L 318.184324 78.316762 
L 318.884799 78.633205 
L 319.586115 78.951365 
L 320.286591 79.270736 
L 320.987066 79.586344 
L 321.688382 79.900332 
L 322.388857 80.251744 
L 323.089332 80.610919 
L 323.790648 80.97827 
L 324.491124 81.341418 
L 325.191599 81.692726 
L 325.892915 82.041096 
L 326.59339 82.387746 
L 327.293865 82.791756 
L 327.995181 83.193487 
L 328.695656 83.593996 
L 329.396132 83.987243 
L 330.097448 84.370216 
L 330.797923 84.804023 
L 331.498398 85.230998 
L 332.199714 85.653075 
L 332.900189 86.06879 
L 333.600665 86.47971 
L 334.301981 86.881986 
L 335.002456 87.272553 
L 335.702931 87.680023 
L 336.404247 88.088872 
L 337.104722 88.472128 
L 337.805198 88.83978 
L 338.506514 89.195796 
L 339.206989 89.526779 
L 339.907464 89.855838 
L 340.60878 90.182326 
L 341.309255 90.51192 
L 342.009731 90.879535 
L 342.711047 91.253205 
L 343.411522 91.60157 
L 344.111997 91.939258 
L 344.813313 92.27417 
L 345.513788 92.60823 
L 346.214264 92.934942 
L 346.91558 93.253045 
L 347.616055 93.582921 
L 348.31653 93.914745 
L 349.017846 94.247136 
L 349.718321 94.576641 
L 350.418797 94.894711 
L 351.120113 95.200891 
L 351.820588 95.499617 
L 352.521063 95.795573 
L 353.222379 96.096336 
L 353.922854 96.409653 
L 354.62333 96.715232 
L 355.324646 97.015377 
L 356.025121 97.330663 
L 356.725596 97.654164 
L 357.426912 97.985393 
L 358.127387 98.32382 
L 358.827863 98.675788 
L 359.529179 99.037589 
L 360.229654 99.397195 
L 360.930129 99.765751 
L 361.631445 100.150115 
L 362.33192 100.538701 
L 363.032395 100.93626 
L 363.733712 101.331826 
L 364.434187 101.590323 
L 365.134662 101.844036 
L 365.835978 102.106901 
L 366.536453 102.394046 
L 367.236928 102.689729 
L 367.938245 102.997977 
L 368.63872 103.295464 
L 369.339195 103.606096 
L 370.040511 103.931509 
L 370.740986 104.268862 
L 371.441461 104.600127 
L 372.142778 104.931511 
L 372.843253 105.159654 
L 373.543728 105.390754 
L 374.245044 105.626322 
L 374.945519 105.864381 
L 375.645994 106.098155 
L 376.347311 106.340911 
L 377.047786 106.578632 
L 377.748261 106.808973 
L 378.449577 107.033279 
L 379.150052 107.257177 
L 379.850527 107.473053 
L 380.551843 107.67498 
L 381.252319 107.945042 
L 381.952794 108.221805 
L 382.65411 108.50707 
L 383.354585 108.797475 
L 384.05506 109.005744 
L 384.756376 109.224068 
L 385.456852 109.441198 
L 386.157327 109.661176 
L 386.858643 109.88865 
L 387.559118 110.118326 
L 388.259593 110.332444 
L 388.960909 110.553902 
L 389.661385 110.953689 
L 390.36186 111.337857 
L 391.063176 111.715483 
L 391.763651 112.094645 
L 392.464126 112.468446 
L 393.165442 112.84217 
L 393.865918 113.213011 
L 394.566393 113.73085 
L 395.267709 114.254325 
L 395.968184 114.792622 
L 396.668659 115.340611 
L 397.369975 115.890138 
L 398.070451 116.442038 
L 398.770926 116.89256 
L 399.472242 117.324618 
L 400.172717 117.769111 
L 400.873192 118.218565 
L 401.574508 118.674779 
L 402.274984 119.144937 
L 402.975459 119.626174 
L 403.676775 120.115421 
L 404.37725 120.600754 
L 405.077725 121.087328 
L 405.779041 121.574219 
L 406.479517 122.061561 
L 407.179992 122.373082 
L 407.881308 122.707394 
L 408.581783 123.058775 
L 409.282258 123.417331 
L 409.983574 123.781563 
L 410.68405 124.147012 
L 411.384525 124.513959 
L 412.085841 124.866747 
L 412.786316 125.217831 
L 413.486791 125.5709 
L 414.188107 125.91934 
L 414.188107 79.678018 
L 414.188107 79.678018 
L 413.486791 79.436455 
L 412.786316 79.199521 
L 412.085841 78.960603 
L 411.384525 78.723389 
L 410.68405 78.500333 
L 409.983574 78.275779 
L 409.282258 78.050009 
L 408.581783 77.829273 
L 407.881308 77.611934 
L 407.179992 77.387636 
L 406.479517 77.150073 
L 405.779041 76.735408 
L 405.077725 76.330561 
L 404.37725 75.939542 
L 403.676775 75.560305 
L 402.975459 75.191105 
L 402.274984 74.828555 
L 401.574508 74.469946 
L 400.873192 74.112321 
L 400.172717 73.764391 
L 399.472242 73.426719 
L 398.770926 73.079856 
L 398.070451 72.696906 
L 397.369975 72.20485 
L 396.668659 71.733602 
L 395.968184 71.277525 
L 395.267709 70.8215 
L 394.566393 70.377903 
L 393.865918 69.946967 
L 393.165442 69.654415 
L 392.464126 69.362882 
L 391.763651 69.075879 
L 391.063176 68.787809 
L 390.36186 68.476823 
L 389.661385 68.142596 
L 388.960909 67.79828 
L 388.259593 67.653261 
L 387.559118 67.506976 
L 386.858643 67.361555 
L 386.157327 67.221286 
L 385.456852 67.082481 
L 384.756376 66.951302 
L 384.05506 66.833132 
L 383.354585 66.708812 
L 382.65411 66.509934 
L 381.952794 66.298411 
L 381.252319 66.076738 
L 380.551843 65.857574 
L 379.850527 65.72336 
L 379.150052 65.59894 
L 378.449577 65.46161 
L 377.748261 65.318765 
L 377.047786 65.181096 
L 376.347311 65.045154 
L 375.645994 64.917308 
L 374.945519 64.763609 
L 374.245044 64.606086 
L 373.543728 64.43931 
L 372.843253 64.270883 
L 372.142778 64.111109 
L 371.441461 63.846606 
L 370.740986 63.584239 
L 370.040511 63.334161 
L 369.339195 63.097146 
L 368.63872 62.864955 
L 367.938245 62.641739 
L 367.236928 62.436952 
L 366.536453 62.22971 
L 365.835978 62.028367 
L 365.134662 61.823617 
L 364.434187 61.618925 
L 363.733712 61.401803 
L 363.032395 61.057521 
L 362.33192 60.730381 
L 361.631445 60.410851 
L 360.930129 60.101201 
L 360.229654 59.804994 
L 359.529179 59.5247 
L 358.827863 59.260496 
L 358.127387 58.99745 
L 357.426912 58.731097 
L 356.725596 58.456165 
L 356.025121 58.183305 
L 355.324646 57.922621 
L 354.62333 57.683753 
L 353.922854 57.451361 
L 353.222379 57.235202 
L 352.521063 57.011961 
L 351.820588 56.78864 
L 351.120113 56.567343 
L 350.418797 56.342054 
L 349.718321 56.110699 
L 349.017846 55.869694 
L 348.31653 55.605636 
L 347.616055 55.32913 
L 346.91558 55.044064 
L 346.214264 54.776086 
L 345.513788 54.509063 
L 344.813313 54.247338 
L 344.111997 53.989578 
L 343.411522 53.726847 
L 342.711047 53.477949 
L 342.009731 53.213639 
L 341.309255 52.935552 
L 340.60878 52.699522 
L 339.907464 52.44925 
L 339.206989 52.193294 
L 338.506514 51.936681 
L 337.805198 51.644286 
L 337.104722 51.350141 
L 336.404247 51.048457 
L 335.702931 50.756215 
L 335.002456 50.463253 
L 334.301981 50.155267 
L 333.600665 49.842758 
L 332.900189 49.518714 
L 332.199714 49.184072 
L 331.498398 48.830043 
L 330.797923 48.460642 
L 330.097448 48.088377 
L 329.396132 47.788315 
L 328.695656 47.49054 
L 327.995181 47.188845 
L 327.293865 46.883849 
L 326.59339 46.580395 
L 325.892915 46.323583 
L 325.191599 46.06189 
L 324.491124 45.794697 
L 323.790648 45.519602 
L 323.089332 45.231926 
L 322.388857 44.939581 
L 321.688382 44.656227 
L 320.987066 44.420903 
L 320.286591 44.196247 
L 319.586115 43.979983 
L 318.884799 43.781668 
L 318.184324 43.599371 
L 317.483849 43.420107 
L 316.782533 43.241327 
L 316.082058 43.055922 
L 315.381582 42.88508 
L 314.680266 42.699532 
L 313.979791 42.505888 
L 313.279316 42.3178 
L 312.578 42.114278 
L 311.877525 41.911209 
L 311.177049 41.752767 
L 310.475733 41.598157 
L 309.775258 41.442445 
L 309.074783 41.281805 
L 308.373467 41.131784 
L 307.672992 40.980597 
L 306.972516 40.818029 
L 306.2712 40.644359 
L 305.570725 40.459745 
L 304.87025 40.274203 
L 304.168934 40.092127 
L 303.468459 39.912108 
L 302.767983 39.730242 
L 302.066667 39.544682 
L 301.366192 39.36615 
L 300.665717 39.198966 
L 299.964401 39.032533 
L 299.263926 38.858051 
L 298.56345 38.672689 
L 297.862134 38.468511 
L 297.161659 38.264833 
L 296.461184 38.069548 
L 295.759868 37.907067 
L 295.059393 37.748798 
L 294.358917 37.578807 
L 293.657601 37.417222 
L 292.957126 37.272174 
L 292.256651 37.131532 
L 291.555335 36.996851 
L 290.85486 36.853877 
L 290.154385 36.696497 
L 289.453068 36.521367 
L 288.752593 36.334895 
L 288.052118 36.148032 
L 287.350802 36.002905 
L 286.650327 35.86885 
L 285.949852 35.726425 
L 285.248535 35.579781 
L 284.54806 35.442343 
L 283.847585 35.31585 
L 283.146269 35.180461 
L 282.445794 35.041137 
L 281.745319 34.894212 
L 281.044002 34.730865 
L 280.343527 34.551519 
L 279.643052 34.374295 
L 278.941736 34.204611 
L 278.241261 34.031516 
L 277.540786 33.867202 
L 276.839469 33.709977 
L 276.138994 33.554457 
L 275.438519 33.409381 
L 274.737203 33.260512 
L 274.036728 33.110468 
L 273.336253 32.94913 
L 272.634937 32.77099 
L 271.934461 32.579567 
L 271.233986 32.381867 
L 270.53267 32.183813 
L 269.832195 31.99411 
L 269.13172 31.810322 
L 268.430404 31.64806 
L 267.729928 31.48148 
L 267.029453 31.330906 
L 266.328137 31.195617 
L 265.627662 31.062888 
L 264.927187 30.902198 
L 264.225871 30.727443 
L 263.525395 30.549496 
L 262.82492 30.370786 
L 262.123604 30.254562 
L 261.423129 30.144975 
L 260.722654 30.041125 
L 260.021338 29.941602 
L 259.320862 29.828212 
L 258.620387 29.716432 
L 257.919071 29.60844 
L 257.218596 29.528822 
L 256.518121 29.444169 
L 255.816805 29.343147 
L 255.116329 29.239866 
L 254.415854 29.143418 
L 253.714538 29.023857 
L 253.014063 28.913375 
L 252.313588 28.802468 
L 251.612272 28.69576 
L 250.911796 28.600457 
L 250.211321 28.517508 
L 249.510005 28.443676 
L 248.80953 28.367864 
L 248.109055 28.291909 
L 247.407739 28.20749 
L 246.707263 28.118511 
L 246.006788 28.036495 
L 245.305472 27.993176 
L 244.604997 27.96266 
L 243.904522 27.950587 
L 243.203206 27.943831 
L 242.50273 27.947995 
L 241.802255 27.954148 
L 241.100939 27.968472 
L 240.400464 27.983576 
L 239.699989 28.02015 
L 238.998673 28.03954 
L 238.298198 28.059714 
L 237.597722 28.096321 
L 236.896406 28.161854 
L 236.195931 28.251683 
L 235.495456 28.322757 
L 234.79414 28.410891 
L 234.093665 28.497346 
L 233.393189 28.595199 
L 232.691873 28.713392 
L 231.991398 28.819914 
L 231.290923 28.930851 
L 230.589607 29.031152 
L 229.889132 29.128739 
L 229.188656 29.237876 
L 228.48734 29.372088 
L 227.786865 29.500736 
L 227.08639 29.643471 
L 226.385074 29.797237 
L 225.684599 29.949251 
L 224.984123 30.131589 
L 224.282807 30.337418 
L 223.582332 30.509404 
L 222.881857 30.669267 
L 222.180541 30.812382 
L 221.480066 30.942701 
L 220.77959 31.079942 
L 220.078274 31.233309 
L 219.377799 31.397295 
L 218.677324 31.56405 
L 217.976008 31.732872 
L 217.275533 31.915696 
L 216.575057 32.098027 
L 215.873741 32.283966 
L 215.173266 32.462104 
L 214.472791 32.649971 
L 213.771475 32.806821 
L 213.071 32.953536 
L 212.370524 33.102066 
L 211.669208 33.187417 
L 210.968733 33.279556 
L 210.268258 33.372126 
L 209.566942 33.486418 
L 208.866467 33.620075 
L 208.165991 33.741516 
L 207.464675 33.786343 
L 206.7642 33.855329 
L 206.063725 33.914378 
L 205.362409 33.948421 
L 204.661934 33.97209 
L 203.961458 33.994935 
L 203.260142 34.014944 
L 202.559667 34.061471 
L 201.859192 34.124075 
L 201.157876 34.188961 
L 200.457401 34.258582 
L 199.756926 34.336658 
L 199.055609 34.404911 
L 198.355134 34.411825 
L 197.654659 34.395079 
L 196.953343 34.366301 
L 196.252868 34.314407 
L 195.552393 34.261516 
L 194.851076 34.229968 
L 194.150601 34.21409 
L 193.450126 34.201558 
L 192.74881 34.170665 
L 192.048335 34.137599 
L 191.34786 34.109782 
L 190.646543 34.100728 
L 189.946068 34.06737 
L 189.245593 34.032737 
L 188.544277 33.942056 
L 187.843802 33.852276 
L 187.143327 33.75821 
L 186.44201 33.676372 
L 185.741535 33.615422 
L 185.04106 33.558939 
L 184.339744 33.521184 
L 183.639269 33.482353 
L 182.938794 33.413545 
L 182.237478 33.326837 
L 181.537002 33.234333 
L 180.836527 33.17779 
L 180.135211 33.089345 
L 179.434736 32.944065 
L 178.734261 32.818211 
L 178.032945 32.804527 
L 177.332469 32.749049 
L 176.631994 32.723115 
L 175.930678 32.769347 
L 175.230203 32.802748 
L 174.529728 32.866231 
L 173.828412 33.043676 
L 173.127936 33.148196 
L 172.427461 33.219845 
L 171.726145 33.716711 
L 171.02567 33.709226 
z
" clip-path="url(#pcd03febf15)" style="fill: #67a9cf; fill-opacity: 0.25"/>
   </g>
   <g id="PolyCollection_3">
    <path d="M 171.02567 33.864783 
L 171.02567 35.799542 
L 171.726145 36.126243 
L 172.427461 36.359711 
L 173.127936 36.894719 
L 173.828412 37.407492 
L 174.529728 37.666408 
L 175.230203 37.918782 
L 175.930678 38.165553 
L 176.631994 38.407456 
L 177.332469 38.64508 
L 178.032945 38.878902 
L 178.734261 39.109314 
L 179.434736 39.399694 
L 180.135211 39.68712 
L 180.836527 39.971852 
L 181.537002 40.254117 
L 182.237478 40.534105 
L 182.938794 40.811994 
L 183.639269 41.087926 
L 184.339744 41.36204 
L 185.04106 41.634452 
L 185.741535 41.905269 
L 186.44201 42.174586 
L 187.143327 42.442494 
L 187.843802 42.72921 
L 188.544277 43.014734 
L 189.245593 43.29913 
L 189.946068 43.582447 
L 190.646543 43.864738 
L 191.34786 44.14605 
L 192.048335 44.426428 
L 192.74881 44.705908 
L 193.450126 44.984533 
L 194.150601 45.262335 
L 194.851076 45.539345 
L 195.552393 45.815599 
L 196.252868 46.112664 
L 196.953343 46.409005 
L 197.654659 46.704649 
L 198.355134 46.999621 
L 199.055609 47.293943 
L 199.756926 47.522476 
L 200.457401 47.750408 
L 201.157876 47.977754 
L 201.859192 48.204537 
L 202.559667 48.430772 
L 203.260142 48.656476 
L 203.961458 48.881668 
L 204.661934 49.099193 
L 205.362409 49.316223 
L 206.063725 49.532766 
L 206.7642 49.74884 
L 207.464675 49.964451 
L 208.165991 50.179623 
L 208.866467 50.319322 
L 209.566942 50.4586 
L 210.268258 50.597469 
L 210.968733 50.735938 
L 211.669208 50.874019 
L 212.370524 51.01172 
L 213.071 51.075472 
L 213.771475 51.13887 
L 214.472791 51.201933 
L 215.173266 51.264666 
L 215.873741 51.327073 
L 216.575057 51.389163 
L 217.275533 51.45094 
L 217.976008 51.512415 
L 218.677324 51.573592 
L 219.377799 51.634475 
L 220.078274 51.695076 
L 220.77959 51.755397 
L 221.480066 51.829339 
L 222.180541 51.903006 
L 222.881857 51.9764 
L 223.582332 52.049531 
L 224.282807 52.122398 
L 224.984123 52.19501 
L 225.684599 52.26737 
L 226.385074 52.33948 
L 227.08639 52.411348 
L 227.786865 52.482975 
L 228.48734 52.554373 
L 229.188656 52.625538 
L 229.889132 52.716622 
L 230.589607 52.807475 
L 231.290923 52.898096 
L 231.991398 52.988494 
L 232.691873 53.07867 
L 233.393189 53.168629 
L 234.093665 53.258374 
L 234.79414 53.347908 
L 235.495456 53.437237 
L 236.195931 53.52636 
L 236.896406 53.615282 
L 237.597722 53.704007 
L 238.298198 53.798781 
L 238.998673 53.893388 
L 239.699989 53.987816 
L 240.400464 54.08208 
L 241.100939 54.176177 
L 241.802255 54.27011 
L 242.50273 54.363882 
L 243.203206 54.457493 
L 243.904522 54.550948 
L 244.604997 54.644248 
L 245.305472 54.737395 
L 246.006788 54.830387 
L 246.707263 54.941492 
L 247.407739 55.052443 
L 248.109055 55.163243 
L 248.80953 55.273898 
L 249.510005 55.384408 
L 250.211321 55.494779 
L 250.911796 55.605004 
L 251.612272 55.715094 
L 252.313588 55.825041 
L 253.014063 55.934858 
L 253.714538 56.044538 
L 254.415854 56.154086 
L 255.116329 56.250296 
L 255.816805 56.34638 
L 256.518121 56.442344 
L 257.218596 56.538185 
L 257.919071 56.633909 
L 258.620387 56.753421 
L 259.320862 56.872819 
L 260.021338 56.992865 
L 260.722654 57.112802 
L 261.423129 57.23264 
L 262.123604 57.352369 
L 262.82492 57.471993 
L 263.525395 57.664964 
L 264.225871 57.865907 
L 264.927187 58.073309 
L 265.627662 58.276902 
L 266.328137 58.471754 
L 267.029453 58.662909 
L 267.729928 58.853808 
L 268.430404 59.063253 
L 269.13172 59.276894 
L 269.832195 59.509129 
L 270.53267 59.739652 
L 271.233986 59.96346 
L 271.934461 60.179933 
L 272.634937 60.392895 
L 273.336253 60.605695 
L 274.036728 60.813569 
L 274.737203 61.013853 
L 275.438519 61.209371 
L 276.138994 61.402231 
L 276.839469 61.596963 
L 277.540786 61.792308 
L 278.241261 61.986997 
L 278.941736 62.175965 
L 279.643052 62.358503 
L 280.343527 62.538069 
L 281.044002 62.71527 
L 281.745319 62.885997 
L 282.445794 63.05093 
L 283.146269 63.209729 
L 283.847585 63.364756 
L 284.54806 63.517679 
L 285.248535 63.679833 
L 285.949852 63.854862 
L 286.650327 64.036715 
L 287.350802 64.223156 
L 288.052118 64.405767 
L 288.752593 64.622759 
L 289.453068 64.843768 
L 290.154385 65.065449 
L 290.85486 65.285553 
L 291.555335 65.503828 
L 292.256651 65.725858 
L 292.957126 65.954912 
L 293.657601 66.199632 
L 294.358917 66.454257 
L 295.059393 66.718562 
L 295.759868 66.987999 
L 296.461184 67.262955 
L 297.161659 67.560058 
L 297.862134 67.865475 
L 298.56345 68.178903 
L 299.263926 68.490897 
L 299.964401 68.800638 
L 300.665717 69.106659 
L 301.366192 69.411743 
L 302.066667 69.721287 
L 302.767983 70.034289 
L 303.468459 70.346585 
L 304.168934 70.656546 
L 304.87025 70.964249 
L 305.570725 71.278037 
L 306.2712 71.589817 
L 306.972516 71.897999 
L 307.672992 72.200562 
L 308.373467 72.498609 
L 309.074783 72.793827 
L 309.775258 73.086341 
L 310.475733 73.383594 
L 311.177049 73.685157 
L 311.877525 73.98872 
L 312.578 74.311027 
L 313.279316 74.629387 
L 313.979791 74.928158 
L 314.680266 75.230724 
L 315.381582 75.532461 
L 316.082058 75.827911 
L 316.782533 76.12235 
L 317.483849 76.418126 
L 318.184324 76.714986 
L 318.884799 77.020564 
L 319.586115 77.334446 
L 320.286591 77.6578 
L 320.987066 77.981625 
L 321.688382 78.309583 
L 322.388857 78.679146 
L 323.089332 79.056868 
L 323.790648 79.436055 
L 324.491124 79.807124 
L 325.191599 80.168185 
L 325.892915 80.525749 
L 326.59339 80.881065 
L 327.293865 81.285272 
L 327.995181 81.691076 
L 328.695656 82.09705 
L 329.396132 82.499862 
L 330.097448 82.901607 
L 330.797923 83.367699 
L 331.498398 83.832611 
L 332.199714 84.290591 
L 332.900189 84.739775 
L 333.600665 85.1853 
L 334.301981 85.624722 
L 335.002456 86.061578 
L 335.702931 86.501765 
L 336.404247 86.946486 
L 337.104722 87.387638 
L 337.805198 87.82304 
L 338.506514 88.255727 
L 339.206989 88.665248 
L 339.907464 89.076239 
L 340.60878 89.486832 
L 341.309255 89.896185 
L 342.009731 90.349148 
L 342.711047 90.80134 
L 343.411522 91.23699 
L 344.111997 91.680671 
L 344.813313 92.126216 
L 345.513788 92.57944 
L 346.214264 93.037335 
L 346.91558 93.497571 
L 347.616055 93.979654 
L 348.31653 94.465168 
L 349.017846 94.951464 
L 349.718321 95.431551 
L 350.418797 95.907827 
L 351.120113 96.381299 
L 351.820588 96.854244 
L 352.521063 97.33152 
L 353.222379 97.814534 
L 353.922854 98.302108 
L 354.62333 98.794656 
L 355.324646 99.287175 
L 356.025121 99.795587 
L 356.725596 100.309787 
L 357.426912 100.825491 
L 358.127387 101.336212 
L 358.827863 101.846846 
L 359.529179 102.357019 
L 360.229654 102.867392 
L 360.930129 103.382067 
L 361.631445 103.901783 
L 362.33192 104.419105 
L 363.032395 104.934855 
L 363.733712 105.447795 
L 364.434187 105.817815 
L 365.134662 106.169277 
L 365.835978 106.515075 
L 366.536453 106.859958 
L 367.236928 107.20079 
L 367.938245 107.535694 
L 368.63872 107.864045 
L 369.339195 108.194034 
L 370.040511 108.524152 
L 370.740986 108.859275 
L 371.441461 109.189809 
L 372.142778 109.513711 
L 372.843253 109.727285 
L 373.543728 109.939579 
L 374.245044 110.147459 
L 374.945519 110.34558 
L 375.645994 110.534644 
L 376.347311 110.710893 
L 377.047786 110.886174 
L 377.748261 111.057569 
L 378.449577 111.228364 
L 379.150052 111.39669 
L 379.850527 111.555671 
L 380.551843 111.713889 
L 381.252319 111.951786 
L 381.952794 112.197947 
L 382.65411 112.447177 
L 383.354585 112.69626 
L 384.05506 112.871685 
L 384.756376 113.053314 
L 385.456852 113.245705 
L 386.157327 113.44787 
L 386.858643 113.658701 
L 387.559118 113.87649 
L 388.259593 114.091969 
L 388.960909 114.313697 
L 389.661385 114.728698 
L 390.36186 115.134499 
L 391.063176 115.527569 
L 391.763651 115.913227 
L 392.464126 116.297367 
L 393.165442 116.685399 
L 393.865918 117.073941 
L 394.566393 117.60863 
L 395.267709 118.154228 
L 395.968184 118.709807 
L 396.668659 119.268692 
L 397.369975 119.833301 
L 398.070451 120.412924 
L 398.770926 120.885358 
L 399.472242 121.329397 
L 400.172717 121.768866 
L 400.873192 122.209104 
L 401.574508 122.650246 
L 402.274984 123.091249 
L 402.975459 123.53211 
L 403.676775 123.972831 
L 404.37725 124.409719 
L 405.077725 124.846468 
L 405.779041 125.284681 
L 406.479517 125.722749 
L 407.179992 125.994589 
L 407.881308 126.266189 
L 408.581783 126.537549 
L 409.282258 126.808677 
L 409.983574 127.079565 
L 410.68405 127.35023 
L 411.384525 127.620663 
L 412.085841 127.890874 
L 412.786316 128.160859 
L 413.486791 128.430627 
L 414.188107 128.700173 
L 414.188107 97.644566 
L 414.188107 97.644566 
L 413.486791 97.490796 
L 412.786316 97.337243 
L 412.085841 97.183913 
L 411.384525 97.030803 
L 410.68405 96.877921 
L 409.983574 96.725265 
L 409.282258 96.572837 
L 408.581783 96.420644 
L 407.881308 96.268689 
L 407.179992 96.116968 
L 406.479517 95.965493 
L 405.779041 95.617861 
L 405.077725 95.270366 
L 404.37725 94.923877 
L 403.676775 94.57752 
L 402.975459 94.227142 
L 402.274984 93.876905 
L 401.574508 93.526808 
L 400.873192 93.176852 
L 400.172717 92.828265 
L 399.472242 92.481055 
L 398.770926 92.129798 
L 398.070451 91.741704 
L 397.369975 91.241867 
L 396.668659 90.743704 
L 395.968184 90.251804 
L 395.267709 89.762928 
L 394.566393 89.289034 
L 393.865918 88.821517 
L 393.165442 88.493554 
L 392.464126 88.164611 
L 391.763651 87.838611 
L 391.063176 87.511245 
L 390.36186 87.174632 
L 389.661385 86.826942 
L 388.960909 86.469893 
L 388.259593 86.305239 
L 387.559118 86.148872 
L 386.858643 85.988884 
L 386.157327 85.838261 
L 385.456852 85.69732 
L 384.756376 85.566749 
L 384.05506 85.446695 
L 383.354585 85.33329 
L 382.65411 85.145254 
L 381.952794 84.957429 
L 381.252319 84.771301 
L 380.551843 84.591175 
L 379.850527 84.488195 
L 379.150052 84.384395 
L 378.449577 84.270245 
L 377.748261 84.152644 
L 377.047786 84.033556 
L 376.347311 83.909856 
L 375.645994 83.785312 
L 374.945519 83.649774 
L 374.245044 83.50637 
L 373.543728 83.355557 
L 372.843253 83.200202 
L 372.142778 83.044803 
L 371.441461 82.777793 
L 370.740986 82.504625 
L 370.040511 82.225789 
L 369.339195 81.948893 
L 368.63872 81.672114 
L 367.938245 81.395222 
L 367.236928 81.11085 
L 366.536453 80.820203 
L 365.835978 80.525465 
L 365.134662 80.229754 
L 364.434187 79.926109 
L 363.733712 79.601222 
L 363.032395 79.133328 
L 362.33192 78.662593 
L 361.631445 78.1902 
L 360.930129 77.715471 
L 360.229654 77.24726 
L 359.529179 76.78355 
L 358.827863 76.319495 
L 358.127387 75.854751 
L 357.426912 75.389977 
L 356.725596 74.920204 
L 356.025121 74.451864 
L 355.324646 73.993046 
L 354.62333 73.552137 
L 353.922854 73.111387 
L 353.222379 72.675575 
L 352.521063 72.244312 
L 351.820588 71.817972 
L 351.120113 71.394821 
L 350.418797 70.971119 
L 349.718321 70.544073 
L 349.017846 70.112443 
L 348.31653 69.674328 
L 347.616055 69.237141 
L 346.91558 68.803674 
L 346.214264 68.390839 
L 345.513788 67.981231 
L 344.813313 67.57773 
L 344.111997 67.182049 
L 343.411522 66.788489 
L 342.711047 66.401284 
L 342.009731 66.000919 
L 341.309255 65.604508 
L 340.60878 65.255047 
L 339.907464 64.905501 
L 339.206989 64.557304 
L 338.506514 64.213678 
L 337.805198 63.840519 
L 337.104722 63.464694 
L 336.404247 63.079279 
L 335.702931 62.688928 
L 335.002456 62.302461 
L 334.301981 61.922644 
L 333.600665 61.537569 
L 332.900189 61.146826 
L 332.199714 60.752493 
L 331.498398 60.348937 
L 330.797923 59.939299 
L 330.097448 59.528006 
L 329.396132 59.181945 
L 328.695656 58.835157 
L 327.995181 58.486174 
L 327.293865 58.137788 
L 326.59339 57.791569 
L 325.892915 57.504105 
L 325.191599 57.215196 
L 324.491124 56.923823 
L 323.790648 56.624938 
L 323.089332 56.319277 
L 322.388857 56.016845 
L 321.688382 55.723253 
L 320.987066 55.472714 
L 320.286591 55.22548 
L 319.586115 54.980441 
L 318.884799 54.742829 
L 318.184324 54.511743 
L 317.483849 54.288093 
L 316.782533 54.064642 
L 316.082058 53.8421 
L 315.381582 53.619062 
L 314.680266 53.392429 
L 313.979791 53.165417 
L 313.279316 52.939821 
L 312.578 52.689184 
L 311.877525 52.436218 
L 311.177049 52.204974 
L 310.475733 51.974481 
L 309.775258 51.747923 
L 309.074783 51.525788 
L 308.373467 51.301359 
L 307.672992 51.073509 
L 306.972516 50.840779 
L 306.2712 50.600679 
L 305.570725 50.353416 
L 304.87025 50.100722 
L 304.168934 49.852266 
L 303.468459 49.600486 
L 302.767983 49.344578 
L 302.066667 49.086925 
L 301.366192 48.833962 
L 300.665717 48.586473 
L 299.964401 48.338597 
L 299.263926 48.087091 
L 298.56345 47.833453 
L 297.862134 47.578816 
L 297.161659 47.332523 
L 296.461184 47.093542 
L 295.759868 46.879059 
L 295.059393 46.671531 
L 294.358917 46.470307 
L 293.657601 46.279132 
L 292.957126 46.098473 
L 292.256651 45.930589 
L 291.555335 45.771142 
L 290.85486 45.616616 
L 290.154385 45.459195 
L 289.453068 45.299523 
L 288.752593 45.14102 
L 288.052118 44.988944 
L 287.350802 44.86867 
L 286.650327 44.745034 
L 285.949852 44.626333 
L 285.248535 44.513699 
L 284.54806 44.413471 
L 283.847585 44.320927 
L 283.146269 44.227053 
L 282.445794 44.130368 
L 281.745319 44.028563 
L 281.044002 43.92128 
L 280.343527 43.808063 
L 279.643052 43.693993 
L 278.941736 43.577573 
L 278.241261 43.455226 
L 277.540786 43.328279 
L 276.839469 43.201079 
L 276.138994 43.074761 
L 275.438519 42.951436 
L 274.737203 42.825423 
L 274.036728 42.693977 
L 273.336253 42.555174 
L 272.634937 42.410924 
L 271.934461 42.266811 
L 271.233986 42.119521 
L 270.53267 41.962879 
L 269.832195 41.801328 
L 269.13172 41.63888 
L 268.430404 41.496655 
L 267.729928 41.358831 
L 267.029453 41.240321 
L 266.328137 41.122177 
L 265.627662 41.001015 
L 264.927187 40.870814 
L 264.225871 40.737677 
L 263.525395 40.612106 
L 262.82492 40.494602 
L 262.123604 40.433956 
L 261.423129 40.373416 
L 260.722654 40.312978 
L 260.021338 40.252646 
L 259.320862 40.192422 
L 258.620387 40.134962 
L 257.919071 40.077617 
L 257.218596 40.044546 
L 256.518121 40.011593 
L 255.816805 39.978763 
L 255.116329 39.946053 
L 254.415854 39.913469 
L 253.714538 39.869247 
L 253.014063 39.825163 
L 252.313588 39.781211 
L 251.612272 39.737394 
L 250.911796 39.693714 
L 250.211321 39.650175 
L 249.510005 39.606777 
L 248.80953 39.563522 
L 248.109055 39.520408 
L 247.407739 39.477443 
L 246.707263 39.434625 
L 246.006788 39.39196 
L 245.305472 39.366931 
L 244.604997 39.342058 
L 243.904522 39.317337 
L 243.203206 39.292766 
L 242.50273 39.268356 
L 241.802255 39.244107 
L 241.100939 39.220019 
L 240.400464 39.19609 
L 239.699989 39.172333 
L 238.998673 39.148741 
L 238.298198 39.125322 
L 237.597722 39.102075 
L 236.896406 39.088892 
L 236.195931 39.075912 
L 235.495456 39.063128 
L 234.79414 39.05055 
L 234.093665 39.038176 
L 233.393189 39.026019 
L 232.691873 39.014071 
L 231.991398 39.002339 
L 231.290923 38.99083 
L 230.589607 38.97955 
L 229.889132 38.968495 
L 229.188656 38.957672 
L 228.48734 38.965391 
L 227.786865 38.97334 
L 227.08639 38.981522 
L 226.385074 38.989945 
L 225.684599 38.998611 
L 224.984123 39.007521 
L 224.282807 39.016688 
L 223.582332 39.02611 
L 222.881857 39.035791 
L 222.180541 39.04574 
L 221.480066 39.055963 
L 220.77959 39.066461 
L 220.078274 39.089889 
L 219.377799 39.113599 
L 218.677324 39.137595 
L 217.976008 39.16188 
L 217.275533 39.186468 
L 216.575057 39.211353 
L 215.873741 39.236552 
L 215.173266 39.262073 
L 214.472791 39.287913 
L 213.771475 39.314084 
L 213.071 39.340596 
L 212.370524 39.367456 
L 211.669208 39.323 
L 210.968733 39.278924 
L 210.268258 39.235236 
L 209.566942 39.191949 
L 208.866467 39.149069 
L 208.165991 39.106606 
L 207.464675 38.989825 
L 206.7642 38.873489 
L 206.063725 38.757611 
L 205.362409 38.642202 
L 204.661934 38.527279 
L 203.961458 38.412851 
L 203.260142 38.290446 
L 202.559667 38.168554 
L 201.859192 38.047192 
L 201.157876 37.926379 
L 200.457401 37.806128 
L 199.756926 37.686463 
L 199.055609 37.567399 
L 198.355134 37.384205 
L 197.654659 37.201661 
L 196.953343 37.019788 
L 196.252868 36.838619 
L 195.552393 36.658168 
L 194.851076 36.498352 
L 194.150601 36.339298 
L 193.450126 36.18103 
L 192.74881 36.023585 
L 192.048335 35.867002 
L 191.34786 35.711309 
L 190.646543 35.556558 
L 189.946068 35.402779 
L 189.245593 35.250032 
L 188.544277 35.098358 
L 187.843802 34.947818 
L 187.143327 34.798465 
L 186.44201 34.674714 
L 185.741535 34.552374 
L 185.04106 34.431534 
L 184.339744 34.312288 
L 183.639269 34.194745 
L 182.938794 34.079019 
L 182.237478 33.965251 
L 181.537002 33.853581 
L 180.836527 33.744189 
L 180.135211 33.637264 
L 179.434736 33.533032 
L 178.734261 33.431755 
L 178.032945 33.391261 
L 177.332469 33.354173 
L 176.631994 33.320885 
L 175.930678 33.291883 
L 175.230203 33.267742 
L 174.529728 33.249205 
L 173.828412 33.237216 
L 173.127936 33.111792 
L 172.427461 33.00861 
L 171.726145 33.39008 
L 171.02567 33.864783 
z
" clip-path="url(#pcd03febf15)" style="fill: #02818a; fill-opacity: 0.25"/>
   </g>
   <g id="matplotlib.axis_1">
    <g id="xtick_1">
     <g id="line2d_1">
      <defs>
       <path id="maa5f2d92f7" d="M 0 0 
L 0 3.5 
" style="stroke: #000000; stroke-width: 0.8"/>
      </defs>
      <g>
       <use xlink:href="#maa5f2d92f7" x="70.116878" y="186.84327" style="stroke: #000000; stroke-width: 0.8"/>
      </g>
     </g>
     <g id="text_1">
      <!-- 1980 -->
      <g transform="translate(57.391878 201.441708) scale(0.1 -0.1)">
       <defs>
        <path id="DejaVuSans-31" d="M 794 531 
L 1825 531 
L 1825 4091 
L 703 3866 
L 703 4441 
L 1819 4666 
L 2450 4666 
L 2450 531 
L 3481 531 
L 3481 0 
L 794 0 
L 794 531 
z
" transform="scale(0.015625)"/>
        <path id="DejaVuSans-39" d="M 703 97 
L 703 672 
Q 941 559 1184 500 
Q 1428 441 1663 441 
Q 2288 441 2617 861 
Q 2947 1281 2994 2138 
Q 2813 1869 2534 1725 
Q 2256 1581 1919 1581 
Q 1219 1581 811 2004 
Q 403 2428 403 3163 
Q 403 3881 828 4315 
Q 1253 4750 1959 4750 
Q 2769 4750 3195 4129 
Q 3622 3509 3622 2328 
Q 3622 1225 3098 567 
Q 2575 -91 1691 -91 
Q 1453 -91 1209 -44 
Q 966 3 703 97 
z
M 1959 2075 
Q 2384 2075 2632 2365 
Q 2881 2656 2881 3163 
Q 2881 3666 2632 3958 
Q 2384 4250 1959 4250 
Q 1534 4250 1286 3958 
Q 1038 3666 1038 3163 
Q 1038 2656 1286 2365 
Q 1534 2075 1959 2075 
z
" transform="scale(0.015625)"/>
        <path id="DejaVuSans-38" d="M 2034 2216 
Q 1584 2216 1326 1975 
Q 1069 1734 1069 1313 
Q 1069 891 1326 650 
Q 1584 409 2034 409 
Q 2484 409 2743 651 
Q 3003 894 3003 1313 
Q 3003 1734 2745 1975 
Q 2488 2216 2034 2216 
z
M 1403 2484 
Q 997 2584 770 2862 
Q 544 3141 544 3541 
Q 544 4100 942 4425 
Q 1341 4750 2034 4750 
Q 2731 4750 3128 4425 
Q 3525 4100 3525 3541 
Q 3525 3141 3298 2862 
Q 3072 2584 2669 2484 
Q 3125 2378 3379 2068 
Q 3634 1759 3634 1313 
Q 3634 634 3220 271 
Q 2806 -91 2034 -91 
Q 1263 -91 848 271 
Q 434 634 434 1313 
Q 434 1759 690 2068 
Q 947 2378 1403 2484 
z
M 1172 3481 
Q 1172 3119 1398 2916 
Q 1625 2713 2034 2713 
Q 2441 2713 2670 2916 
Q 2900 3119 2900 3481 
Q 2900 3844 2670 4047 
Q 2441 4250 2034 4250 
Q 1625 4250 1398 4047 
Q 1172 3844 1172 3481 
z
" transform="scale(0.015625)"/>
        <path id="DejaVuSans-30" d="M 2034 4250 
Q 1547 4250 1301 3770 
Q 1056 3291 1056 2328 
Q 1056 1369 1301 889 
Q 1547 409 2034 409 
Q 2525 409 2770 889 
Q 3016 1369 3016 2328 
Q 3016 3291 2770 3770 
Q 2525 4250 2034 4250 
z
M 2034 4750 
Q 2819 4750 3233 4129 
Q 3647 3509 3647 2328 
Q 3647 1150 3233 529 
Q 2819 -91 2034 -91 
Q 1250 -91 836 529 
Q 422 1150 422 2328 
Q 422 3509 836 4129 
Q 1250 4750 2034 4750 
z
" transform="scale(0.015625)"/>
       </defs>
       <use xlink:href="#DejaVuSans-31"/>
       <use xlink:href="#DejaVuSans-39" x="63.623047"/>
       <use xlink:href="#DejaVuSans-38" x="127.246094"/>
       <use xlink:href="#DejaVuSans-30" x="190.869141"/>
      </g>
     </g>
    </g>
    <g id="xtick_2">
     <g id="line2d_2">
      <g>
       <use xlink:href="#maa5f2d92f7" x="112.162208" y="186.84327" style="stroke: #000000; stroke-width: 0.8"/>
      </g>
     </g>
     <g id="text_2">
      <!-- 1985 -->
      <g transform="translate(99.437208 201.441708) scale(0.1 -0.1)">
       <defs>
        <path id="DejaVuSans-35" d="M 691 4666 
L 3169 4666 
L 3169 4134 
L 1269 4134 
L 1269 2991 
Q 1406 3038 1543 3061 
Q 1681 3084 1819 3084 
Q 2600 3084 3056 2656 
Q 3513 2228 3513 1497 
Q 3513 744 3044 326 
Q 2575 -91 1722 -91 
Q 1428 -91 1123 -41 
Q 819 9 494 109 
L 494 744 
Q 775 591 1075 516 
Q 1375 441 1709 441 
Q 2250 441 2565 725 
Q 2881 1009 2881 1497 
Q 2881 1984 2565 2268 
Q 2250 2553 1709 2553 
Q 1456 2553 1204 2497 
Q 953 2441 691 2322 
L 691 4666 
z
" transform="scale(0.015625)"/>
       </defs>
       <use xlink:href="#DejaVuSans-31"/>
       <use xlink:href="#DejaVuSans-39" x="63.623047"/>
       <use xlink:href="#DejaVuSans-38" x="127.246094"/>
       <use xlink:href="#DejaVuSans-35" x="190.869141"/>
      </g>
     </g>
    </g>
    <g id="xtick_3">
     <g id="line2d_3">
      <g>
       <use xlink:href="#maa5f2d92f7" x="154.207538" y="186.84327" style="stroke: #000000; stroke-width: 0.8"/>
      </g>
     </g>
     <g id="text_3">
      <!-- 1990 -->
      <g transform="translate(141.482538 201.441708) scale(0.1 -0.1)">
       <use xlink:href="#DejaVuSans-31"/>
       <use xlink:href="#DejaVuSans-39" x="63.623047"/>
       <use xlink:href="#DejaVuSans-39" x="127.246094"/>
       <use xlink:href="#DejaVuSans-30" x="190.869141"/>
      </g>
     </g>
    </g>
    <g id="xtick_4">
     <g id="line2d_4">
      <g>
       <use xlink:href="#maa5f2d92f7" x="196.252868" y="186.84327" style="stroke: #000000; stroke-width: 0.8"/>
      </g>
     </g>
     <g id="text_4">
      <!-- 1995 -->
      <g transform="translate(183.527868 201.441708) scale(0.1 -0.1)">
       <use xlink:href="#DejaVuSans-31"/>
       <use xlink:href="#DejaVuSans-39" x="63.623047"/>
       <use xlink:href="#DejaVuSans-39" x="127.246094"/>
       <use xlink:href="#DejaVuSans-35" x="190.869141"/>
      </g>
     </g>
    </g>
    <g id="xtick_5">
     <g id="line2d_5">
      <g>
       <use xlink:href="#maa5f2d92f7" x="238.298198" y="186.84327" style="stroke: #000000; stroke-width: 0.8"/>
      </g>
     </g>
     <g id="text_5">
      <!-- 2000 -->
      <g transform="translate(225.573198 201.441708) scale(0.1 -0.1)">
       <defs>
        <path id="DejaVuSans-32" d="M 1228 531 
L 3431 531 
L 3431 0 
L 469 0 
L 469 531 
Q 828 903 1448 1529 
Q 2069 2156 2228 2338 
Q 2531 2678 2651 2914 
Q 2772 3150 2772 3378 
Q 2772 3750 2511 3984 
Q 2250 4219 1831 4219 
Q 1534 4219 1204 4116 
Q 875 4013 500 3803 
L 500 4441 
Q 881 4594 1212 4672 
Q 1544 4750 1819 4750 
Q 2544 4750 2975 4387 
Q 3406 4025 3406 3419 
Q 3406 3131 3298 2873 
Q 3191 2616 2906 2266 
Q 2828 2175 2409 1742 
Q 1991 1309 1228 531 
z
" transform="scale(0.015625)"/>
       </defs>
       <use xlink:href="#DejaVuSans-32"/>
       <use xlink:href="#DejaVuSans-30" x="63.623047"/>
       <use xlink:href="#DejaVuSans-30" x="127.246094"/>
       <use xlink:href="#DejaVuSans-30" x="190.869141"/>
      </g>
     </g>
    </g>
    <g id="xtick_6">
     <g id="line2d_6">
      <g>
       <use xlink:href="#maa5f2d92f7" x="280.343527" y="186.84327" style="stroke: #000000; stroke-width: 0.8"/>
      </g>
     </g>
     <g id="text_6">
      <!-- 2005 -->
      <g transform="translate(267.618527 201.441708) scale(0.1 -0.1)">
       <use xlink:href="#DejaVuSans-32"/>
       <use xlink:href="#DejaVuSans-30" x="63.623047"/>
       <use xlink:href="#DejaVuSans-30" x="127.246094"/>
       <use xlink:href="#DejaVuSans-35" x="190.869141"/>
      </g>
     </g>
    </g>
    <g id="xtick_7">
     <g id="line2d_7">
      <g>
       <use xlink:href="#maa5f2d92f7" x="322.388857" y="186.84327" style="stroke: #000000; stroke-width: 0.8"/>
      </g>
     </g>
     <g id="text_7">
      <!-- 2010 -->
      <g transform="translate(309.663857 201.441708) scale(0.1 -0.1)">
       <use xlink:href="#DejaVuSans-32"/>
       <use xlink:href="#DejaVuSans-30" x="63.623047"/>
       <use xlink:href="#DejaVuSans-31" x="127.246094"/>
       <use xlink:href="#DejaVuSans-30" x="190.869141"/>
      </g>
     </g>
    </g>
    <g id="xtick_8">
     <g id="line2d_8">
      <g>
       <use xlink:href="#maa5f2d92f7" x="364.434187" y="186.84327" style="stroke: #000000; stroke-width: 0.8"/>
      </g>
     </g>
     <g id="text_8">
      <!-- 2015 -->
      <g transform="translate(351.709187 201.441708) scale(0.1 -0.1)">
       <use xlink:href="#DejaVuSans-32"/>
       <use xlink:href="#DejaVuSans-30" x="63.623047"/>
       <use xlink:href="#DejaVuSans-31" x="127.246094"/>
       <use xlink:href="#DejaVuSans-35" x="190.869141"/>
      </g>
     </g>
    </g>
    <g id="xtick_9">
     <g id="line2d_9">
      <g>
       <use xlink:href="#maa5f2d92f7" x="406.479517" y="186.84327" style="stroke: #000000; stroke-width: 0.8"/>
      </g>
     </g>
     <g id="text_9">
      <!-- 2020 -->
      <g transform="translate(393.754517 201.441708) scale(0.1 -0.1)">
       <use xlink:href="#DejaVuSans-32"/>
       <use xlink:href="#DejaVuSans-30" x="63.623047"/>
       <use xlink:href="#DejaVuSans-32" x="127.246094"/>
       <use xlink:href="#DejaVuSans-30" x="190.869141"/>
      </g>
     </g>
    </g>
    <g id="text_10">
     <!-- Year -->
     <g transform="translate(227.710698 215.119833) scale(0.1 -0.1)">
      <defs>
       <path id="DejaVuSans-59" d="M -13 4666 
L 666 4666 
L 1959 2747 
L 3244 4666 
L 3922 4666 
L 2272 2222 
L 2272 0 
L 1638 0 
L 1638 2222 
L -13 4666 
z
" transform="scale(0.015625)"/>
       <path id="DejaVuSans-65" d="M 3597 1894 
L 3597 1613 
L 953 1613 
Q 991 1019 1311 708 
Q 1631 397 2203 397 
Q 2534 397 2845 478 
Q 3156 559 3463 722 
L 3463 178 
Q 3153 47 2828 -22 
Q 2503 -91 2169 -91 
Q 1331 -91 842 396 
Q 353 884 353 1716 
Q 353 2575 817 3079 
Q 1281 3584 2069 3584 
Q 2775 3584 3186 3129 
Q 3597 2675 3597 1894 
z
M 3022 2063 
Q 3016 2534 2758 2815 
Q 2500 3097 2075 3097 
Q 1594 3097 1305 2825 
Q 1016 2553 972 2059 
L 3022 2063 
z
" transform="scale(0.015625)"/>
       <path id="DejaVuSans-61" d="M 2194 1759 
Q 1497 1759 1228 1600 
Q 959 1441 959 1056 
Q 959 750 1161 570 
Q 1363 391 1709 391 
Q 2188 391 2477 730 
Q 2766 1069 2766 1631 
L 2766 1759 
L 2194 1759 
z
M 3341 1997 
L 3341 0 
L 2766 0 
L 2766 531 
Q 2569 213 2275 61 
Q 1981 -91 1556 -91 
Q 1019 -91 701 211 
Q 384 513 384 1019 
Q 384 1609 779 1909 
Q 1175 2209 1959 2209 
L 2766 2209 
L 2766 2266 
Q 2766 2663 2505 2880 
Q 2244 3097 1772 3097 
Q 1472 3097 1187 3025 
Q 903 2953 641 2809 
L 641 3341 
Q 956 3463 1253 3523 
Q 1550 3584 1831 3584 
Q 2591 3584 2966 3190 
Q 3341 2797 3341 1997 
z
" transform="scale(0.015625)"/>
       <path id="DejaVuSans-72" d="M 2631 2963 
Q 2534 3019 2420 3045 
Q 2306 3072 2169 3072 
Q 1681 3072 1420 2755 
Q 1159 2438 1159 1844 
L 1159 0 
L 581 0 
L 581 3500 
L 1159 3500 
L 1159 2956 
Q 1341 3275 1631 3429 
Q 1922 3584 2338 3584 
Q 2397 3584 2469 3576 
Q 2541 3569 2628 3553 
L 2631 2963 
z
" transform="scale(0.015625)"/>
      </defs>
      <use xlink:href="#DejaVuSans-59"/>
      <use xlink:href="#DejaVuSans-65" x="47.833984"/>
      <use xlink:href="#DejaVuSans-61" x="109.357422"/>
      <use xlink:href="#DejaVuSans-72" x="170.636719"/>
     </g>
    </g>
   </g>
   <g id="matplotlib.axis_2">
    <g id="ytick_1">
     <g id="line2d_10">
      <defs>
       <path id="m49cbd8757c" d="M 0 0 
L -3.5 0 
" style="stroke: #000000; stroke-width: 0.8"/>
      </defs>
      <g>
       <use xlink:href="#m49cbd8757c" x="61.707813" y="186.84327" style="stroke: #000000; stroke-width: 0.8"/>
      </g>
     </g>
     <g id="text_11">
      <!-- 5000 -->
      <g transform="translate(20.878125 190.642489) scale(0.1 -0.1)">
       <defs>
        <path id="DejaVuSans-2212" d="M 678 2272 
L 4684 2272 
L 4684 1741 
L 678 1741 
L 678 2272 
z
" transform="scale(0.015625)"/>
       </defs>
       <use xlink:href="#DejaVuSans-2212"/>
       <use xlink:href="#DejaVuSans-35" x="83.789062"/>
       <use xlink:href="#DejaVuSans-30" x="147.412109"/>
       <use xlink:href="#DejaVuSans-30" x="211.035156"/>
       <use xlink:href="#DejaVuSans-30" x="274.658203"/>
      </g>
     </g>
    </g>
    <g id="ytick_2">
     <g id="line2d_11">
      <g>
       <use xlink:href="#m49cbd8757c" x="61.707813" y="157.535928" style="stroke: #000000; stroke-width: 0.8"/>
      </g>
     </g>
     <g id="text_12">
      <!-- 4000 -->
      <g transform="translate(20.878125 161.335147) scale(0.1 -0.1)">
       <defs>
        <path id="DejaVuSans-34" d="M 2419 4116 
L 825 1625 
L 2419 1625 
L 2419 4116 
z
M 2253 4666 
L 3047 4666 
L 3047 1625 
L 3713 1625 
L 3713 1100 
L 3047 1100 
L 3047 0 
L 2419 0 
L 2419 1100 
L 313 1100 
L 313 1709 
L 2253 4666 
z
" transform="scale(0.015625)"/>
       </defs>
       <use xlink:href="#DejaVuSans-2212"/>
       <use xlink:href="#DejaVuSans-34" x="83.789062"/>
       <use xlink:href="#DejaVuSans-30" x="147.412109"/>
       <use xlink:href="#DejaVuSans-30" x="211.035156"/>
       <use xlink:href="#DejaVuSans-30" x="274.658203"/>
      </g>
     </g>
    </g>
    <g id="ytick_3">
     <g id="line2d_12">
      <g>
       <use xlink:href="#m49cbd8757c" x="61.707813" y="128.228586" style="stroke: #000000; stroke-width: 0.8"/>
      </g>
     </g>
     <g id="text_13">
      <!-- 3000 -->
      <g transform="translate(20.878125 132.027805) scale(0.1 -0.1)">
       <defs>
        <path id="DejaVuSans-33" d="M 2597 2516 
Q 3050 2419 3304 2112 
Q 3559 1806 3559 1356 
Q 3559 666 3084 287 
Q 2609 -91 1734 -91 
Q 1441 -91 1130 -33 
Q 819 25 488 141 
L 488 750 
Q 750 597 1062 519 
Q 1375 441 1716 441 
Q 2309 441 2620 675 
Q 2931 909 2931 1356 
Q 2931 1769 2642 2001 
Q 2353 2234 1838 2234 
L 1294 2234 
L 1294 2753 
L 1863 2753 
Q 2328 2753 2575 2939 
Q 2822 3125 2822 3475 
Q 2822 3834 2567 4026 
Q 2313 4219 1838 4219 
Q 1578 4219 1281 4162 
Q 984 4106 628 3988 
L 628 4550 
Q 988 4650 1302 4700 
Q 1616 4750 1894 4750 
Q 2613 4750 3031 4423 
Q 3450 4097 3450 3541 
Q 3450 3153 3228 2886 
Q 3006 2619 2597 2516 
z
" transform="scale(0.015625)"/>
       </defs>
       <use xlink:href="#DejaVuSans-2212"/>
       <use xlink:href="#DejaVuSans-33" x="83.789062"/>
       <use xlink:href="#DejaVuSans-30" x="147.412109"/>
       <use xlink:href="#DejaVuSans-30" x="211.035156"/>
       <use xlink:href="#DejaVuSans-30" x="274.658203"/>
      </g>
     </g>
    </g>
    <g id="ytick_4">
     <g id="line2d_13">
      <g>
       <use xlink:href="#m49cbd8757c" x="61.707813" y="98.921244" style="stroke: #000000; stroke-width: 0.8"/>
      </g>
     </g>
     <g id="text_14">
      <!-- 2000 -->
      <g transform="translate(20.878125 102.720463) scale(0.1 -0.1)">
       <use xlink:href="#DejaVuSans-2212"/>
       <use xlink:href="#DejaVuSans-32" x="83.789062"/>
       <use xlink:href="#DejaVuSans-30" x="147.412109"/>
       <use xlink:href="#DejaVuSans-30" x="211.035156"/>
       <use xlink:href="#DejaVuSans-30" x="274.658203"/>
      </g>
     </g>
    </g>
    <g id="ytick_5">
     <g id="line2d_14">
      <g>
       <use xlink:href="#m49cbd8757c" x="61.707813" y="69.613903" style="stroke: #000000; stroke-width: 0.8"/>
      </g>
     </g>
     <g id="text_15">
      <!-- 1000 -->
      <g transform="translate(20.878125 73.413121) scale(0.1 -0.1)">
       <use xlink:href="#DejaVuSans-2212"/>
       <use xlink:href="#DejaVuSans-31" x="83.789062"/>
       <use xlink:href="#DejaVuSans-30" x="147.412109"/>
       <use xlink:href="#DejaVuSans-30" x="211.035156"/>
       <use xlink:href="#DejaVuSans-30" x="274.658203"/>
      </g>
     </g>
    </g>
    <g id="ytick_6">
     <g id="line2d_15">
      <g>
       <use xlink:href="#m49cbd8757c" x="61.707813" y="40.306561" style="stroke: #000000; stroke-width: 0.8"/>
      </g>
     </g>
     <g id="text_16">
      <!-- 0 -->
      <g transform="translate(48.345313 44.105779) scale(0.1 -0.1)">
       <use xlink:href="#DejaVuSans-30"/>
      </g>
     </g>
    </g>
    <g id="ytick_7">
     <g id="line2d_16">
      <g>
       <use xlink:href="#m49cbd8757c" x="61.707813" y="10.999219" style="stroke: #000000; stroke-width: 0.8"/>
      </g>
     </g>
     <g id="text_17">
      <!-- 1000 -->
      <g transform="translate(29.257812 14.798437) scale(0.1 -0.1)">
       <use xlink:href="#DejaVuSans-31"/>
       <use xlink:href="#DejaVuSans-30" x="63.623047"/>
       <use xlink:href="#DejaVuSans-30" x="127.246094"/>
       <use xlink:href="#DejaVuSans-30" x="190.869141"/>
      </g>
     </g>
    </g>
    <g id="text_18">
     <!-- Mass change [Gt] -->
     <g transform="translate(14.798438 142.824369) rotate(-90) scale(0.1 -0.1)">
      <defs>
       <path id="DejaVuSans-4d" d="M 628 4666 
L 1569 4666 
L 2759 1491 
L 3956 4666 
L 4897 4666 
L 4897 0 
L 4281 0 
L 4281 4097 
L 3078 897 
L 2444 897 
L 1241 4097 
L 1241 0 
L 628 0 
L 628 4666 
z
" transform="scale(0.015625)"/>
       <path id="DejaVuSans-73" d="M 2834 3397 
L 2834 2853 
Q 2591 2978 2328 3040 
Q 2066 3103 1784 3103 
Q 1356 3103 1142 2972 
Q 928 2841 928 2578 
Q 928 2378 1081 2264 
Q 1234 2150 1697 2047 
L 1894 2003 
Q 2506 1872 2764 1633 
Q 3022 1394 3022 966 
Q 3022 478 2636 193 
Q 2250 -91 1575 -91 
Q 1294 -91 989 -36 
Q 684 19 347 128 
L 347 722 
Q 666 556 975 473 
Q 1284 391 1588 391 
Q 1994 391 2212 530 
Q 2431 669 2431 922 
Q 2431 1156 2273 1281 
Q 2116 1406 1581 1522 
L 1381 1569 
Q 847 1681 609 1914 
Q 372 2147 372 2553 
Q 372 3047 722 3315 
Q 1072 3584 1716 3584 
Q 2034 3584 2315 3537 
Q 2597 3491 2834 3397 
z
" transform="scale(0.015625)"/>
       <path id="DejaVuSans-20" transform="scale(0.015625)"/>
       <path id="DejaVuSans-63" d="M 3122 3366 
L 3122 2828 
Q 2878 2963 2633 3030 
Q 2388 3097 2138 3097 
Q 1578 3097 1268 2742 
Q 959 2388 959 1747 
Q 959 1106 1268 751 
Q 1578 397 2138 397 
Q 2388 397 2633 464 
Q 2878 531 3122 666 
L 3122 134 
Q 2881 22 2623 -34 
Q 2366 -91 2075 -91 
Q 1284 -91 818 406 
Q 353 903 353 1747 
Q 353 2603 823 3093 
Q 1294 3584 2113 3584 
Q 2378 3584 2631 3529 
Q 2884 3475 3122 3366 
z
" transform="scale(0.015625)"/>
       <path id="DejaVuSans-68" d="M 3513 2113 
L 3513 0 
L 2938 0 
L 2938 2094 
Q 2938 2591 2744 2837 
Q 2550 3084 2163 3084 
Q 1697 3084 1428 2787 
Q 1159 2491 1159 1978 
L 1159 0 
L 581 0 
L 581 4863 
L 1159 4863 
L 1159 2956 
Q 1366 3272 1645 3428 
Q 1925 3584 2291 3584 
Q 2894 3584 3203 3211 
Q 3513 2838 3513 2113 
z
" transform="scale(0.015625)"/>
       <path id="DejaVuSans-6e" d="M 3513 2113 
L 3513 0 
L 2938 0 
L 2938 2094 
Q 2938 2591 2744 2837 
Q 2550 3084 2163 3084 
Q 1697 3084 1428 2787 
Q 1159 2491 1159 1978 
L 1159 0 
L 581 0 
L 581 3500 
L 1159 3500 
L 1159 2956 
Q 1366 3272 1645 3428 
Q 1925 3584 2291 3584 
Q 2894 3584 3203 3211 
Q 3513 2838 3513 2113 
z
" transform="scale(0.015625)"/>
       <path id="DejaVuSans-67" d="M 2906 1791 
Q 2906 2416 2648 2759 
Q 2391 3103 1925 3103 
Q 1463 3103 1205 2759 
Q 947 2416 947 1791 
Q 947 1169 1205 825 
Q 1463 481 1925 481 
Q 2391 481 2648 825 
Q 2906 1169 2906 1791 
z
M 3481 434 
Q 3481 -459 3084 -895 
Q 2688 -1331 1869 -1331 
Q 1566 -1331 1297 -1286 
Q 1028 -1241 775 -1147 
L 775 -588 
Q 1028 -725 1275 -790 
Q 1522 -856 1778 -856 
Q 2344 -856 2625 -561 
Q 2906 -266 2906 331 
L 2906 616 
Q 2728 306 2450 153 
Q 2172 0 1784 0 
Q 1141 0 747 490 
Q 353 981 353 1791 
Q 353 2603 747 3093 
Q 1141 3584 1784 3584 
Q 2172 3584 2450 3431 
Q 2728 3278 2906 2969 
L 2906 3500 
L 3481 3500 
L 3481 434 
z
" transform="scale(0.015625)"/>
       <path id="DejaVuSans-5b" d="M 550 4863 
L 1875 4863 
L 1875 4416 
L 1125 4416 
L 1125 -397 
L 1875 -397 
L 1875 -844 
L 550 -844 
L 550 4863 
z
" transform="scale(0.015625)"/>
       <path id="DejaVuSans-47" d="M 3809 666 
L 3809 1919 
L 2778 1919 
L 2778 2438 
L 4434 2438 
L 4434 434 
Q 4069 175 3628 42 
Q 3188 -91 2688 -91 
Q 1594 -91 976 548 
Q 359 1188 359 2328 
Q 359 3472 976 4111 
Q 1594 4750 2688 4750 
Q 3144 4750 3555 4637 
Q 3966 4525 4313 4306 
L 4313 3634 
Q 3963 3931 3569 4081 
Q 3175 4231 2741 4231 
Q 1884 4231 1454 3753 
Q 1025 3275 1025 2328 
Q 1025 1384 1454 906 
Q 1884 428 2741 428 
Q 3075 428 3337 486 
Q 3600 544 3809 666 
z
" transform="scale(0.015625)"/>
       <path id="DejaVuSans-74" d="M 1172 4494 
L 1172 3500 
L 2356 3500 
L 2356 3053 
L 1172 3053 
L 1172 1153 
Q 1172 725 1289 603 
Q 1406 481 1766 481 
L 2356 481 
L 2356 0 
L 1766 0 
Q 1100 0 847 248 
Q 594 497 594 1153 
L 594 3053 
L 172 3053 
L 172 3500 
L 594 3500 
L 594 4494 
L 1172 4494 
z
" transform="scale(0.015625)"/>
       <path id="DejaVuSans-5d" d="M 1947 4863 
L 1947 -844 
L 622 -844 
L 622 -397 
L 1369 -397 
L 1369 4416 
L 622 4416 
L 622 4863 
L 1947 4863 
z
" transform="scale(0.015625)"/>
      </defs>
      <use xlink:href="#DejaVuSans-4d"/>
      <use xlink:href="#DejaVuSans-61" x="86.279297"/>
      <use xlink:href="#DejaVuSans-73" x="147.558594"/>
      <use xlink:href="#DejaVuSans-73" x="199.658203"/>
      <use xlink:href="#DejaVuSans-20" x="251.757812"/>
      <use xlink:href="#DejaVuSans-63" x="283.544922"/>
      <use xlink:href="#DejaVuSans-68" x="338.525391"/>
      <use xlink:href="#DejaVuSans-61" x="401.904297"/>
      <use xlink:href="#DejaVuSans-6e" x="463.183594"/>
      <use xlink:href="#DejaVuSans-67" x="526.5625"/>
      <use xlink:href="#DejaVuSans-65" x="590.039062"/>
      <use xlink:href="#DejaVuSans-20" x="651.5625"/>
      <use xlink:href="#DejaVuSans-5b" x="683.349609"/>
      <use xlink:href="#DejaVuSans-47" x="722.363281"/>
      <use xlink:href="#DejaVuSans-74" x="799.853516"/>
      <use xlink:href="#DejaVuSans-5d" x="839.0625"/>
     </g>
    </g>
   </g>
   <g id="line2d_17">
    <path d="M 61.707813 40.099515 
L 79.2267 34.817089 
L 89.738032 31.295944 
L 93.942565 30.143552 
L 98.847854 29.049339 
L 104.453898 28.017109 
L 110.760697 27.0793 
L 114.96523 26.652695 
L 118.469008 26.505085 
L 121.972785 26.605852 
L 124.775807 26.898328 
L 127.578829 27.386556 
L 131.082607 28.236547 
L 135.987895 29.697079 
L 146.499228 32.914685 
L 150.70376 33.912263 
L 154.908293 34.675523 
L 158.412071 35.107645 
L 161.915848 35.323281 
L 165.419626 35.299982 
L 168.923403 35.055073 
L 175.230203 34.325489 
L 180.836247 33.763907 
L 184.340024 33.635726 
L 187.843802 33.739655 
L 191.347579 34.057458 
L 195.552112 34.660389 
L 201.158156 35.707848 
L 209.567222 37.278483 
L 232.692154 41.093249 
L 236.896687 41.558659 
L 241.101219 41.774449 
L 245.305752 41.722454 
L 249.510285 41.429044 
L 255.116329 40.773894 
L 262.123884 39.974277 
L 269.131439 39.472287 
L 279.642772 38.706785 
L 289.453349 37.909564 
L 293.657882 37.872167 
L 297.862415 38.069151 
L 305.570725 38.703338 
L 313.279036 39.293636 
L 320.286591 39.54031 
L 331.498678 39.892415 
L 336.403967 40.27638 
L 341.309255 40.858771 
L 345.513788 41.55385 
L 349.718321 42.476302 
L 355.324365 44.003271 
L 360.229654 45.28839 
L 363.733431 45.989855 
L 366.536453 46.360364 
L 370.040231 46.574295 
L 374.244764 46.542871 
L 388.960629 46.047864 
L 403.676495 46.269474 
L 407.881028 45.939934 
L 416.290093 44.955824 
L 423.297648 44.122403 
L 423.297648 44.122403 
" clip-path="url(#pcd03febf15)" style="fill: none; stroke: #d0d1e6; stroke-width: 1.5; stroke-linecap: square"/>
   </g>
   <g id="line2d_18">
    <path d="M 171.02567 34.832162 
L 172.427461 34.849305 
L 173.828412 35.658413 
L 187.143327 39.752068 
L 190.646543 40.564094 
L 194.851076 41.304598 
L 200.457401 42.041924 
L 209.566942 42.378956 
L 213.071 42.175078 
L 227.786865 40.20429 
L 231.991398 39.83118 
L 236.195931 39.63619 
L 239.699989 39.679968 
L 243.203206 39.926195 
L 246.707263 40.370771 
L 250.911796 41.195713 
L 262.82492 43.901822 
L 272.634937 46.986313 
L 280.343527 49.362087 
L 287.350802 51.356848 
L 295.059393 53.611509 
L 299.964401 55.178745 
L 319.586115 61.465674 
L 323.089332 62.921422 
L 330.797923 66.632332 
L 334.301981 68.518627 
L 339.206989 70.860036 
L 354.62333 77.199492 
L 358.127387 78.660635 
L 361.631445 80.280483 
L 364.434187 81.604624 
L 368.63872 83.080209 
L 373.543728 84.915032 
L 379.150052 86.428059 
L 381.252319 87.01089 
L 384.05506 87.919438 
L 388.960909 89.176091 
L 392.464126 90.915664 
L 393.865918 91.579989 
L 397.369975 94.047494 
L 398.770926 94.986208 
L 402.975459 97.40864 
L 407.179992 99.880359 
L 413.486791 102.503678 
L 414.188107 102.798679 
L 414.188107 102.798679 
" clip-path="url(#pcd03febf15)" style="fill: none; stroke: #67a9cf; stroke-width: 1.5; stroke-linecap: square"/>
   </g>
   <g id="line2d_19">
    <path d="M 171.02567 34.832162 
L 172.427461 34.68416 
L 173.828412 35.322354 
L 179.434736 36.466363 
L 190.646543 39.710648 
L 202.559667 43.299663 
L 208.165991 44.643114 
L 213.071 45.208034 
L 226.385074 45.664713 
L 232.691873 46.04637 
L 246.006788 47.111174 
L 263.525395 49.138535 
L 271.233986 51.04149 
L 276.839469 52.399021 
L 282.445794 53.590649 
L 288.052118 54.697356 
L 294.358917 56.462282 
L 297.862134 57.722146 
L 309.074783 62.159808 
L 318.884799 65.881697 
L 322.388857 67.347996 
L 329.396132 70.840903 
L 330.797923 71.653499 
L 335.702931 74.595347 
L 339.907464 76.99087 
L 343.411522 79.01274 
L 348.31653 82.069748 
L 359.529179 89.570285 
L 364.434187 92.871962 
L 370.040511 95.37497 
L 372.142778 96.279257 
L 377.047786 97.459865 
L 381.952794 98.577688 
L 384.05506 99.15919 
L 387.559118 100.012681 
L 388.960909 100.391795 
L 393.165442 102.589476 
L 393.865918 102.947729 
L 399.472242 106.905226 
L 406.479517 110.844121 
L 414.188107 113.172369 
L 414.188107 113.172369 
" clip-path="url(#pcd03febf15)" style="fill: none; stroke: #02818a; stroke-width: 1.5; stroke-linecap: square"/>
   </g>
   <g id="patch_3">
    <path d="M 61.707813 186.84327 
L 61.707813 10.999219 
" style="fill: none; stroke: #000000; stroke-width: 0.8; stroke-linejoin: miter; stroke-linecap: square"/>
   </g>
   <g id="patch_4">
    <path d="M 414.888583 186.84327 
L 414.888583 10.999219 
" style="fill: none; stroke: #000000; stroke-width: 0.8; stroke-linejoin: miter; stroke-linecap: square"/>
   </g>
   <g id="patch_5">
    <path d="M 61.707813 186.84327 
L 414.888583 186.84327 
" style="fill: none; stroke: #000000; stroke-width: 0.8; stroke-linejoin: miter; stroke-linecap: square"/>
   </g>
   <g id="patch_6">
    <path d="M 61.707813 10.999219 
L 414.888583 10.999219 
" style="fill: none; stroke: #000000; stroke-width: 0.8; stroke-linejoin: miter; stroke-linecap: square"/>
   </g>
   <g id="legend_1">
    <g id="patch_7">
     <path d="M 421.888583 122.438432 
L 503.19952 122.438432 
Q 505.19952 122.438432 505.19952 120.438432 
L 505.19952 77.404057 
Q 505.19952 75.404057 503.19952 75.404057 
L 421.888583 75.404057 
Q 419.888583 75.404057 419.888583 77.404057 
L 419.888583 120.438432 
Q 419.888583 122.438432 421.888583 122.438432 
z
" style="fill: #ffffff; opacity: 0.8; stroke: #cccccc; stroke-linejoin: miter"/>
    </g>
    <g id="line2d_20">
     <path d="M 423.888583 83.502494 
L 433.888583 83.502494 
L 443.888583 83.502494 
" style="fill: none; stroke: #d0d1e6; stroke-width: 1.5; stroke-linecap: square"/>
    </g>
    <g id="text_19">
     <!-- Surface -->
     <g transform="translate(451.888583 87.002494) scale(0.1 -0.1)">
      <defs>
       <path id="DejaVuSans-53" d="M 3425 4513 
L 3425 3897 
Q 3066 4069 2747 4153 
Q 2428 4238 2131 4238 
Q 1616 4238 1336 4038 
Q 1056 3838 1056 3469 
Q 1056 3159 1242 3001 
Q 1428 2844 1947 2747 
L 2328 2669 
Q 3034 2534 3370 2195 
Q 3706 1856 3706 1288 
Q 3706 609 3251 259 
Q 2797 -91 1919 -91 
Q 1588 -91 1214 -16 
Q 841 59 441 206 
L 441 856 
Q 825 641 1194 531 
Q 1563 422 1919 422 
Q 2459 422 2753 634 
Q 3047 847 3047 1241 
Q 3047 1584 2836 1778 
Q 2625 1972 2144 2069 
L 1759 2144 
Q 1053 2284 737 2584 
Q 422 2884 422 3419 
Q 422 4038 858 4394 
Q 1294 4750 2059 4750 
Q 2388 4750 2728 4690 
Q 3069 4631 3425 4513 
z
" transform="scale(0.015625)"/>
       <path id="DejaVuSans-75" d="M 544 1381 
L 544 3500 
L 1119 3500 
L 1119 1403 
Q 1119 906 1312 657 
Q 1506 409 1894 409 
Q 2359 409 2629 706 
Q 2900 1003 2900 1516 
L 2900 3500 
L 3475 3500 
L 3475 0 
L 2900 0 
L 2900 538 
Q 2691 219 2414 64 
Q 2138 -91 1772 -91 
Q 1169 -91 856 284 
Q 544 659 544 1381 
z
M 1991 3584 
L 1991 3584 
z
" transform="scale(0.015625)"/>
       <path id="DejaVuSans-66" d="M 2375 4863 
L 2375 4384 
L 1825 4384 
Q 1516 4384 1395 4259 
Q 1275 4134 1275 3809 
L 1275 3500 
L 2222 3500 
L 2222 3053 
L 1275 3053 
L 1275 0 
L 697 0 
L 697 3053 
L 147 3053 
L 147 3500 
L 697 3500 
L 697 3744 
Q 697 4328 969 4595 
Q 1241 4863 1831 4863 
L 2375 4863 
z
" transform="scale(0.015625)"/>
      </defs>
      <use xlink:href="#DejaVuSans-53"/>
      <use xlink:href="#DejaVuSans-75" x="63.476562"/>
      <use xlink:href="#DejaVuSans-72" x="126.855469"/>
      <use xlink:href="#DejaVuSans-66" x="167.96875"/>
      <use xlink:href="#DejaVuSans-61" x="203.173828"/>
      <use xlink:href="#DejaVuSans-63" x="264.453125"/>
      <use xlink:href="#DejaVuSans-65" x="319.433594"/>
     </g>
    </g>
    <g id="line2d_21">
     <path d="M 423.888583 98.180619 
L 433.888583 98.180619 
L 443.888583 98.180619 
" style="fill: none; stroke: #67a9cf; stroke-width: 1.5; stroke-linecap: square"/>
    </g>
    <g id="text_20">
     <!-- Dynamics -->
     <g transform="translate(451.888583 101.680619) scale(0.1 -0.1)">
      <defs>
       <path id="DejaVuSans-44" d="M 1259 4147 
L 1259 519 
L 2022 519 
Q 2988 519 3436 956 
Q 3884 1394 3884 2338 
Q 3884 3275 3436 3711 
Q 2988 4147 2022 4147 
L 1259 4147 
z
M 628 4666 
L 1925 4666 
Q 3281 4666 3915 4102 
Q 4550 3538 4550 2338 
Q 4550 1131 3912 565 
Q 3275 0 1925 0 
L 628 0 
L 628 4666 
z
" transform="scale(0.015625)"/>
       <path id="DejaVuSans-79" d="M 2059 -325 
Q 1816 -950 1584 -1140 
Q 1353 -1331 966 -1331 
L 506 -1331 
L 506 -850 
L 844 -850 
Q 1081 -850 1212 -737 
Q 1344 -625 1503 -206 
L 1606 56 
L 191 3500 
L 800 3500 
L 1894 763 
L 2988 3500 
L 3597 3500 
L 2059 -325 
z
" transform="scale(0.015625)"/>
       <path id="DejaVuSans-6d" d="M 3328 2828 
Q 3544 3216 3844 3400 
Q 4144 3584 4550 3584 
Q 5097 3584 5394 3201 
Q 5691 2819 5691 2113 
L 5691 0 
L 5113 0 
L 5113 2094 
Q 5113 2597 4934 2840 
Q 4756 3084 4391 3084 
Q 3944 3084 3684 2787 
Q 3425 2491 3425 1978 
L 3425 0 
L 2847 0 
L 2847 2094 
Q 2847 2600 2669 2842 
Q 2491 3084 2119 3084 
Q 1678 3084 1418 2786 
Q 1159 2488 1159 1978 
L 1159 0 
L 581 0 
L 581 3500 
L 1159 3500 
L 1159 2956 
Q 1356 3278 1631 3431 
Q 1906 3584 2284 3584 
Q 2666 3584 2933 3390 
Q 3200 3197 3328 2828 
z
" transform="scale(0.015625)"/>
       <path id="DejaVuSans-69" d="M 603 3500 
L 1178 3500 
L 1178 0 
L 603 0 
L 603 3500 
z
M 603 4863 
L 1178 4863 
L 1178 4134 
L 603 4134 
L 603 4863 
z
" transform="scale(0.015625)"/>
      </defs>
      <use xlink:href="#DejaVuSans-44"/>
      <use xlink:href="#DejaVuSans-79" x="77.001953"/>
      <use xlink:href="#DejaVuSans-6e" x="136.181641"/>
      <use xlink:href="#DejaVuSans-61" x="199.560547"/>
      <use xlink:href="#DejaVuSans-6d" x="260.839844"/>
      <use xlink:href="#DejaVuSans-69" x="358.251953"/>
      <use xlink:href="#DejaVuSans-63" x="386.035156"/>
      <use xlink:href="#DejaVuSans-73" x="441.015625"/>
     </g>
    </g>
    <g id="line2d_22">
     <path d="M 423.888583 112.858744 
L 433.888583 112.858744 
L 443.888583 112.858744 
" style="fill: none; stroke: #02818a; stroke-width: 1.5; stroke-linecap: square"/>
    </g>
    <g id="text_21">
     <!-- Total -->
     <g transform="translate(451.888583 116.358744) scale(0.1 -0.1)">
      <defs>
       <path id="DejaVuSans-54" d="M -19 4666 
L 3928 4666 
L 3928 4134 
L 2272 4134 
L 2272 0 
L 1638 0 
L 1638 4134 
L -19 4134 
L -19 4666 
z
" transform="scale(0.015625)"/>
       <path id="DejaVuSans-6f" d="M 1959 3097 
Q 1497 3097 1228 2736 
Q 959 2375 959 1747 
Q 959 1119 1226 758 
Q 1494 397 1959 397 
Q 2419 397 2687 759 
Q 2956 1122 2956 1747 
Q 2956 2369 2687 2733 
Q 2419 3097 1959 3097 
z
M 1959 3584 
Q 2709 3584 3137 3096 
Q 3566 2609 3566 1747 
Q 3566 888 3137 398 
Q 2709 -91 1959 -91 
Q 1206 -91 779 398 
Q 353 888 353 1747 
Q 353 2609 779 3096 
Q 1206 3584 1959 3584 
z
" transform="scale(0.015625)"/>
       <path id="DejaVuSans-6c" d="M 603 4863 
L 1178 4863 
L 1178 0 
L 603 0 
L 603 4863 
z
" transform="scale(0.015625)"/>
      </defs>
      <use xlink:href="#DejaVuSans-54"/>
      <use xlink:href="#DejaVuSans-6f" x="44.083984"/>
      <use xlink:href="#DejaVuSans-74" x="105.265625"/>
      <use xlink:href="#DejaVuSans-61" x="144.474609"/>
      <use xlink:href="#DejaVuSans-6c" x="205.753906"/>
     </g>
    </g>
   </g>
  </g>
 </g>
 <defs>
  <clipPath id="pcd03febf15">
   <rect x="61.707813" y="10.999219" width="353.18077" height="175.844051"/>
  </clipPath>
 </defs>
</svg>
