<?xml version="1.0" encoding="utf-8" standalone="no"?>
<!DOCTYPE svg PUBLIC "-//W3C//DTD SVG 1.1//EN"
  "http://www.w3.org/Graphics/SVG/1.1/DTD/svg11.dtd">
<svg xmlns:xlink="http://www.w3.org/1999/xlink" width="512.39952pt" height="224.39952pt" viewBox="0 0 512.39952 224.39952" xmlns="http://www.w3.org/2000/svg" version="1.1">
 <metadata>
  <rdf:RDF xmlns:dc="http://purl.org/dc/elements/1.1/" xmlns:cc="http://creativecommons.org/ns#" xmlns:rdf="http://www.w3.org/1999/02/22-rdf-syntax-ns#">
   <cc:Work>
    <dc:type rdf:resource="http://purl.org/dc/dcmitype/StillImage"/>
    <dc:date>2023-02-06T11:00:40.433597</dc:date>
    <dc:format>image/svg+xml</dc:format>
    <dc:creator>
     <cc:Agent>
      <dc:title>Matplotlib v3.6.2, https://matplotlib.org/</dc:title>
     </cc:Agent>
    </dc:creator>
   </cc:Work>
  </rdf:RDF>
 </metadata>
 <defs>
  <style type="text/css">*{stroke-linejoin: round; stroke-linecap: butt}</style>
 </defs>
 <g id="figure_1">
  <g id="patch_1">
   <path d="M 0 224.39952 
L 512.39952 224.39952 
L 512.39952 0 
L 0 0 
z
" style="fill: #ffffff"/>
  </g>
  <g id="axes_1">
   <g id="patch_2">
    <path d="M 61.707813 186.84327 
L 414.888583 186.84327 
L 414.888583 22.318125 
L 61.707813 22.318125 
z
" style="fill: #ffffff"/>
   </g>
   <g id="PolyCollection_1">
    <path d="M 61.707813 49.467659 
L 61.707813 49.964478 
L 62.408288 49.941565 
L 63.109604 50.021546 
L 63.810079 50.077586 
L 64.510554 50.121233 
L 65.21187 50.156961 
L 65.912345 50.187063 
L 66.612821 50.212903 
L 67.314137 50.235368 
L 68.014612 50.255074 
L 68.715087 50.272472 
L 69.416403 50.287899 
L 70.116878 50.487728 
L 70.817354 50.65512 
L 71.51867 50.822492 
L 72.219145 50.989844 
L 72.91962 51.157177 
L 73.620936 51.32449 
L 74.321411 51.491784 
L 75.021887 51.659059 
L 75.723203 51.826315 
L 76.423678 51.993553 
L 77.124153 52.160773 
L 77.825469 52.327975 
L 78.525944 52.353108 
L 79.22642 52.381376 
L 79.927736 52.409589 
L 80.628211 52.437748 
L 81.328686 52.465855 
L 82.030002 52.493911 
L 82.730477 52.521916 
L 83.430953 52.549872 
L 84.132269 52.57778 
L 84.832744 52.605641 
L 85.533219 52.633456 
L 86.234535 52.661226 
L 86.93501 52.6156 
L 87.635486 52.571018 
L 88.336802 52.526377 
L 89.037277 52.48168 
L 89.737752 52.436928 
L 90.439068 52.392122 
L 91.139543 52.347264 
L 91.840019 52.302353 
L 92.541335 52.257392 
L 93.24181 52.212381 
L 93.942285 52.167321 
L 94.643601 52.122214 
L 95.344076 52.063057 
L 96.044552 52.003504 
L 96.745868 51.943911 
L 97.446343 51.884278 
L 98.146818 51.824606 
L 98.848134 51.764896 
L 99.548609 51.705148 
L 100.249084 51.645362 
L 100.950401 51.58554 
L 101.650876 51.525683 
L 102.351351 51.46579 
L 103.052667 51.405862 
L 103.753142 51.371038 
L 104.453617 51.336197 
L 105.154934 51.301324 
L 105.855409 51.266417 
L 106.555884 51.231478 
L 107.2572 51.196508 
L 107.957675 51.161506 
L 108.65815 51.126474 
L 109.359467 51.091411 
L 110.059942 51.056319 
L 110.760417 51.021197 
L 111.461733 50.986047 
L 112.162208 50.94806 
L 112.862683 50.909594 
L 113.564 50.871105 
L 114.264475 50.832593 
L 114.96495 50.794058 
L 115.666266 50.7555 
L 116.366741 50.716919 
L 117.067216 50.678316 
L 117.768532 50.639692 
L 118.469008 50.601046 
L 119.169483 50.562378 
L 119.870799 50.523689 
L 120.571274 50.623586 
L 121.271749 50.721437 
L 121.973065 50.819281 
L 122.673541 50.917118 
L 123.374016 51.014947 
L 124.075332 51.112769 
L 124.775807 51.210584 
L 125.476282 51.308391 
L 126.177598 51.406191 
L 126.878074 51.503984 
L 127.578549 51.60177 
L 128.279865 51.699548 
L 128.98034 51.749783 
L 129.680815 51.800897 
L 130.382131 51.852 
L 131.082607 51.903091 
L 131.783082 51.954171 
L 132.484398 52.005239 
L 133.184873 52.056297 
L 133.885348 52.107343 
L 134.586664 52.158379 
L 135.28714 52.209403 
L 135.987615 52.260417 
L 136.688931 52.31142 
L 137.389406 52.356762 
L 138.089881 52.402314 
L 138.791197 52.447855 
L 139.491673 52.493384 
L 140.192148 52.538901 
L 140.893464 52.584407 
L 141.593939 52.629902 
L 142.294414 52.675386 
L 142.99573 52.720859 
L 143.696206 52.766321 
L 144.396681 52.811771 
L 145.097997 52.857212 
L 145.798472 52.721149 
L 146.498947 52.587725 
L 147.200263 52.454272 
L 147.900739 52.320789 
L 148.601214 52.187277 
L 149.30253 52.053737 
L 150.003005 51.920168 
L 150.70348 51.786572 
L 151.404796 51.652949 
L 152.105271 51.519298 
L 152.805747 51.385621 
L 153.507063 51.251917 
L 154.207538 51.311872 
L 154.908013 51.368996 
L 155.609329 51.426111 
L 156.309804 51.483219 
L 157.01028 51.54032 
L 157.711596 51.597413 
L 158.412071 51.654498 
L 159.112546 51.711576 
L 159.813862 51.768647 
L 160.514337 51.825711 
L 161.214813 51.882767 
L 161.916129 51.939816 
L 162.616604 52.006659 
L 163.317079 52.073305 
L 164.018395 52.139945 
L 164.71887 52.206578 
L 165.419346 52.273206 
L 166.120662 52.339827 
L 166.821137 52.406442 
L 167.521612 52.473051 
L 168.222928 52.539654 
L 168.923403 52.606251 
L 169.623879 52.672842 
L 170.325195 52.739427 
L 171.02567 52.755366 
L 171.726145 52.772028 
L 172.427461 52.788682 
L 173.127936 52.805327 
L 173.828412 52.821962 
L 174.529728 52.838589 
L 175.230203 52.855208 
L 175.930678 52.871817 
L 176.631994 52.888418 
L 177.332469 52.905011 
L 178.032945 52.921595 
L 178.734261 52.938171 
L 179.434736 52.945034 
L 180.135211 52.951897 
L 180.836527 52.958752 
L 181.537002 52.965599 
L 182.237478 52.972437 
L 182.938794 52.979268 
L 183.639269 52.98609 
L 184.339744 52.992904 
L 185.04106 52.999711 
L 185.741535 53.006509 
L 186.44201 53.0133 
L 187.143327 53.020082 
L 187.843802 53.068434 
L 188.544277 53.11662 
L 189.245593 53.164798 
L 189.946068 53.212969 
L 190.646543 53.261133 
L 191.34786 53.309291 
L 192.048335 53.357442 
L 192.74881 53.405585 
L 193.450126 53.453723 
L 194.150601 53.501853 
L 194.851076 53.549977 
L 195.552393 53.598094 
L 196.252868 53.60749 
L 196.953343 53.61701 
L 197.654659 53.626523 
L 198.355134 53.636029 
L 199.055609 53.645528 
L 199.756926 53.655021 
L 200.457401 53.664506 
L 201.157876 53.673985 
L 201.859192 53.683457 
L 202.559667 53.692922 
L 203.260142 53.70238 
L 203.961458 53.711832 
L 204.661934 53.66841 
L 205.362409 53.625616 
L 206.063725 53.582812 
L 206.7642 53.539999 
L 207.464675 53.497177 
L 208.165991 53.454346 
L 208.866467 53.411506 
L 209.566942 53.368658 
L 210.268258 53.3258 
L 210.968733 53.282933 
L 211.669208 53.240058 
L 212.370524 53.197174 
L 213.071 53.293763 
L 213.771475 53.389062 
L 214.472791 53.484357 
L 215.173266 53.579648 
L 215.873741 53.674936 
L 216.575057 53.770219 
L 217.275533 53.865499 
L 217.976008 53.960775 
L 218.677324 54.056047 
L 219.377799 54.151315 
L 220.078274 54.24658 
L 220.77959 54.341841 
L 221.480066 54.25526 
L 222.180541 54.170362 
L 222.881857 54.085454 
L 223.582332 54.000536 
L 224.282807 53.915608 
L 224.984123 53.830671 
L 225.684599 53.745724 
L 226.385074 53.660767 
L 227.08639 53.575801 
L 227.786865 53.490825 
L 228.48734 53.405839 
L 229.188656 53.320845 
L 229.889132 53.232202 
L 230.589607 53.143916 
L 231.290923 53.05562 
L 231.991398 52.967312 
L 232.691873 52.878995 
L 233.393189 52.790666 
L 234.093665 52.702327 
L 234.79414 52.613977 
L 235.495456 52.525617 
L 236.195931 52.437247 
L 236.896406 52.348866 
L 237.597722 52.260475 
L 238.298198 52.287095 
L 238.998673 52.312238 
L 239.699989 52.337376 
L 240.400464 52.36251 
L 241.100939 52.38764 
L 241.802255 52.412765 
L 242.50273 52.437886 
L 243.203206 52.463003 
L 243.904522 52.488115 
L 244.604997 52.513223 
L 245.305472 52.538327 
L 246.006788 52.563426 
L 246.707263 52.470834 
L 247.407739 52.379517 
L 248.109055 52.288192 
L 248.80953 52.196857 
L 249.510005 52.105514 
L 250.211321 52.014162 
L 250.911796 51.922802 
L 251.612272 51.831433 
L 252.313588 51.740056 
L 253.014063 51.64867 
L 253.714538 51.557276 
L 254.415854 51.465873 
L 255.116329 51.543816 
L 255.816805 51.620146 
L 256.518121 51.696474 
L 257.218596 51.772799 
L 257.919071 51.84912 
L 258.620387 51.925439 
L 259.320862 52.001755 
L 260.021338 52.078068 
L 260.722654 52.154378 
L 261.423129 52.230685 
L 262.123604 52.306989 
L 262.82492 52.38329 
L 263.525395 52.386059 
L 264.225871 52.389318 
L 264.927187 52.392573 
L 265.627662 52.395824 
L 266.328137 52.399071 
L 267.029453 52.402314 
L 267.729928 52.405553 
L 268.430404 52.408787 
L 269.13172 52.412018 
L 269.832195 52.415244 
L 270.53267 52.418467 
L 271.233986 52.421686 
L 271.934461 52.344498 
L 272.634937 52.268192 
L 273.336253 52.191878 
L 274.036728 52.115558 
L 274.737203 52.039232 
L 275.438519 51.962899 
L 276.138994 51.886559 
L 276.839469 51.810212 
L 277.540786 51.733859 
L 278.241261 51.6575 
L 278.941736 51.581134 
L 279.643052 51.504761 
L 280.343527 51.514814 
L 281.044002 51.524286 
L 281.745319 51.533754 
L 282.445794 51.543218 
L 283.146269 51.552676 
L 283.847585 51.562131 
L 284.54806 51.571581 
L 285.248535 51.581026 
L 285.949852 51.590468 
L 286.650327 51.599904 
L 287.350802 51.609337 
L 288.052118 51.618765 
L 288.752593 51.559819 
L 289.453068 51.501584 
L 290.154385 51.443343 
L 290.85486 51.385095 
L 291.555335 51.32684 
L 292.256651 51.26858 
L 292.957126 51.210312 
L 293.657601 51.152039 
L 294.358917 51.093759 
L 295.059393 51.035472 
L 295.759868 50.97718 
L 296.461184 50.918881 
L 297.161659 51.033387 
L 297.862134 51.146179 
L 298.56345 51.258969 
L 299.263926 51.371758 
L 299.964401 51.484544 
L 300.665717 51.597329 
L 301.366192 51.710113 
L 302.066667 51.822894 
L 302.767983 51.935674 
L 303.468459 52.048452 
L 304.168934 52.161228 
L 304.87025 52.274003 
L 305.570725 52.161391 
L 306.2712 52.050583 
L 306.972516 51.939769 
L 307.672992 51.828948 
L 308.373467 51.718122 
L 309.074783 51.607288 
L 309.775258 51.496449 
L 310.475733 51.385604 
L 311.177049 51.274752 
L 311.877525 51.163894 
L 312.578 51.053031 
L 313.279316 50.942161 
L 313.979791 51.034801 
L 314.680266 51.125758 
L 315.381582 51.216713 
L 316.082058 51.307666 
L 316.782533 51.398618 
L 317.483849 51.489568 
L 318.184324 51.580516 
L 318.884799 51.671462 
L 319.586115 51.762407 
L 320.286591 51.853349 
L 320.987066 51.94429 
L 321.688382 52.03523 
L 322.388857 51.907922 
L 323.089332 51.782522 
L 323.790648 51.657114 
L 324.491124 51.5317 
L 325.191599 51.40628 
L 325.892915 51.280853 
L 326.59339 51.15542 
L 327.293865 51.02998 
L 327.995181 50.904534 
L 328.695656 50.779081 
L 329.396132 50.653623 
L 330.097448 50.528157 
L 330.797923 50.616146 
L 331.498398 50.702344 
L 332.199714 50.788539 
L 332.900189 50.874734 
L 333.600665 50.960926 
L 334.301981 51.047117 
L 335.002456 51.133305 
L 335.702931 51.219493 
L 336.404247 51.305678 
L 337.104722 51.391862 
L 337.805198 51.478043 
L 338.506514 51.564224 
L 339.206989 51.634453 
L 339.907464 51.704689 
L 340.60878 51.774924 
L 341.309255 51.845157 
L 342.009731 51.915389 
L 342.711047 51.985618 
L 343.411522 52.055846 
L 344.111997 52.126073 
L 344.813313 52.196297 
L 345.513788 52.26652 
L 346.214264 52.336741 
L 346.91558 52.406961 
L 347.616055 52.423598 
L 348.31653 52.440649 
L 349.017846 52.457697 
L 349.718321 52.474743 
L 350.418797 52.491786 
L 351.120113 52.508827 
L 351.820588 52.525866 
L 352.521063 52.542902 
L 353.222379 52.559935 
L 353.922854 52.576967 
L 354.62333 52.593996 
L 355.324646 52.611022 
L 356.025121 52.622351 
L 356.725596 52.633687 
L 357.426912 52.64502 
L 358.127387 52.656352 
L 358.827863 52.667681 
L 359.529179 52.679008 
L 360.229654 52.690332 
L 360.930129 52.701654 
L 361.631445 52.712974 
L 362.33192 52.724291 
L 363.032395 52.735606 
L 363.733712 52.746919 
L 364.434187 52.754347 
L 365.134662 52.761857 
L 365.835978 52.769365 
L 366.536453 52.776871 
L 367.236928 52.784374 
L 367.938245 52.791875 
L 368.63872 52.799374 
L 369.339195 52.80687 
L 370.040511 52.814363 
L 370.740986 52.821854 
L 371.441461 52.829343 
L 372.142778 52.836829 
L 372.843253 52.680873 
L 373.543728 52.526415 
L 374.245044 52.371951 
L 374.945519 52.21748 
L 375.645994 52.063003 
L 376.347311 51.90852 
L 377.047786 51.754032 
L 377.748261 51.599537 
L 378.449577 51.445036 
L 379.150052 51.290529 
L 379.850527 51.136016 
L 380.551843 50.981497 
L 381.252319 50.984838 
L 381.952794 50.986696 
L 382.65411 50.988551 
L 383.354585 50.990404 
L 384.05506 50.992255 
L 384.756376 50.994104 
L 385.456852 50.99595 
L 386.157327 50.997794 
L 386.858643 50.999636 
L 387.559118 51.001476 
L 388.259593 51.003314 
L 388.960909 51.005149 
L 389.661385 50.97348 
L 390.36186 50.942041 
L 391.063176 50.910599 
L 391.763651 50.879154 
L 392.464126 50.847707 
L 393.165442 50.816257 
L 393.865918 50.784805 
L 394.566393 50.75335 
L 395.267709 50.721893 
L 395.968184 50.690433 
L 396.668659 50.65897 
L 397.369975 50.627505 
L 398.070451 50.68887 
L 398.770926 50.749589 
L 399.472242 50.810306 
L 400.172717 50.871022 
L 400.873192 50.931736 
L 401.574508 50.992449 
L 402.274984 51.053161 
L 402.975459 51.113871 
L 403.676775 51.174579 
L 404.37725 51.235287 
L 405.077725 51.295993 
L 405.779041 51.356698 
L 406.479517 51.32977 
L 407.179992 51.303675 
L 407.881308 51.277577 
L 408.581783 51.251476 
L 409.282258 51.225373 
L 409.983574 51.199266 
L 410.68405 51.173157 
L 411.384525 51.147045 
L 412.085841 51.12093 
L 412.786316 51.094812 
L 413.486791 51.068691 
L 414.188107 51.042568 
L 414.188107 45.76515 
L 414.188107 45.76515 
L 413.486791 45.796669 
L 412.786316 45.828192 
L 412.085841 45.859717 
L 411.384525 45.891244 
L 410.68405 45.922775 
L 409.983574 45.954308 
L 409.282258 45.985844 
L 408.581783 46.017383 
L 407.881308 46.048925 
L 407.179992 46.08047 
L 406.479517 46.112017 
L 405.779041 46.142733 
L 405.077725 46.08582 
L 404.37725 46.028908 
L 403.676775 45.971997 
L 402.975459 45.915088 
L 402.274984 45.85818 
L 401.574508 45.801273 
L 400.873192 45.744368 
L 400.172717 45.687465 
L 399.472242 45.630562 
L 398.770926 45.573661 
L 398.070451 45.516762 
L 397.369975 45.460509 
L 396.668659 45.497092 
L 395.968184 45.533677 
L 395.267709 45.570264 
L 394.566393 45.606854 
L 393.865918 45.643447 
L 393.165442 45.680042 
L 392.464126 45.71664 
L 391.763651 45.75324 
L 391.063176 45.789843 
L 390.36186 45.826449 
L 389.661385 45.863057 
L 388.960909 45.899436 
L 388.259593 45.902315 
L 387.559118 45.905197 
L 386.858643 45.90808 
L 386.157327 45.910966 
L 385.456852 45.913854 
L 384.756376 45.916744 
L 384.05506 45.919636 
L 383.354585 45.922531 
L 382.65411 45.925428 
L 381.952794 45.928327 
L 381.252319 45.931228 
L 380.551843 45.935613 
L 379.850527 46.09787 
L 379.150052 46.260134 
L 378.449577 46.422403 
L 377.748261 46.584679 
L 377.047786 46.74696 
L 376.347311 46.909248 
L 375.645994 47.071541 
L 374.945519 47.233841 
L 374.245044 47.396147 
L 373.543728 47.558459 
L 372.843253 47.720778 
L 372.142778 47.881598 
L 371.441461 47.87898 
L 370.740986 47.876364 
L 370.040511 47.873751 
L 369.339195 47.87114 
L 368.63872 47.868532 
L 367.938245 47.865926 
L 367.236928 47.863322 
L 366.536453 47.860721 
L 365.835978 47.858123 
L 365.134662 47.855527 
L 364.434187 47.852933 
L 363.733712 47.850257 
L 363.032395 47.8437 
L 362.33192 47.837146 
L 361.631445 47.830595 
L 360.930129 47.824045 
L 360.229654 47.817498 
L 359.529179 47.810954 
L 358.827863 47.804411 
L 358.127387 47.797871 
L 357.426912 47.791334 
L 356.725596 47.784798 
L 356.025121 47.778265 
L 355.324646 47.771725 
L 354.62333 47.759491 
L 353.922854 47.747259 
L 353.222379 47.73503 
L 352.521063 47.722803 
L 351.820588 47.710579 
L 351.120113 47.698357 
L 350.418797 47.686137 
L 349.718321 47.67392 
L 349.017846 47.661705 
L 348.31653 47.649492 
L 347.616055 47.637283 
L 346.91558 47.62466 
L 346.214264 47.558459 
L 345.513788 47.49226 
L 344.813313 47.426063 
L 344.111997 47.359867 
L 343.411522 47.293673 
L 342.711047 47.227481 
L 342.009731 47.161291 
L 341.309255 47.095102 
L 340.60878 47.028915 
L 339.907464 46.962729 
L 339.206989 46.896546 
L 338.506514 46.830355 
L 337.805198 46.748216 
L 337.104722 46.666079 
L 336.404247 46.583944 
L 335.702931 46.501811 
L 335.002456 46.419679 
L 334.301981 46.33755 
L 333.600665 46.255422 
L 332.900189 46.173295 
L 332.199714 46.091171 
L 331.498398 46.009048 
L 330.797923 45.926927 
L 330.097448 45.846597 
L 329.396132 45.979732 
L 328.695656 46.112874 
L 327.995181 46.246023 
L 327.293865 46.379177 
L 326.59339 46.512339 
L 325.892915 46.645506 
L 325.191599 46.77868 
L 324.491124 46.911861 
L 323.790648 47.045048 
L 323.089332 47.178242 
L 322.388857 47.311442 
L 321.688382 47.442735 
L 320.987066 47.355785 
L 320.286591 47.268837 
L 319.586115 47.18189 
L 318.884799 47.094945 
L 318.184324 47.008002 
L 317.483849 46.921061 
L 316.782533 46.834121 
L 316.082058 46.747183 
L 315.381582 46.660247 
L 314.680266 46.573313 
L 313.979791 46.486381 
L 313.279316 46.401131 
L 312.578 46.519403 
L 311.877525 46.637682 
L 311.177049 46.755966 
L 310.475733 46.874257 
L 309.775258 46.992554 
L 309.074783 47.110857 
L 308.373467 47.229166 
L 307.672992 47.347481 
L 306.972516 47.465803 
L 306.2712 47.58413 
L 305.570725 47.702465 
L 304.87025 47.818995 
L 304.168934 47.710142 
L 303.468459 47.601291 
L 302.767983 47.492442 
L 302.066667 47.383595 
L 301.366192 47.274749 
L 300.665717 47.165905 
L 299.964401 47.057063 
L 299.263926 46.948222 
L 298.56345 46.839384 
L 297.862134 46.730547 
L 297.161659 46.621712 
L 296.461184 46.51459 
L 295.759868 46.580286 
L 295.059393 46.645988 
L 294.358917 46.711696 
L 293.657601 46.77741 
L 292.957126 46.84313 
L 292.256651 46.908857 
L 291.555335 46.974591 
L 290.85486 47.040331 
L 290.154385 47.106077 
L 289.453068 47.17183 
L 288.752593 47.237589 
L 288.052118 47.302638 
L 287.350802 47.299322 
L 286.650327 47.29601 
L 285.949852 47.292702 
L 285.248535 47.289399 
L 284.54806 47.286101 
L 283.847585 47.282807 
L 283.146269 47.279517 
L 282.445794 47.276231 
L 281.745319 47.27295 
L 281.044002 47.269674 
L 280.343527 47.266402 
L 279.643052 47.263711 
L 278.941736 47.347457 
L 278.241261 47.43121 
L 277.540786 47.514969 
L 276.839469 47.598735 
L 276.138994 47.682507 
L 275.438519 47.766286 
L 274.737203 47.850072 
L 274.036728 47.933864 
L 273.336253 48.017663 
L 272.634937 48.101468 
L 271.934461 48.185281 
L 271.233986 48.268212 
L 270.53267 48.270745 
L 269.832195 48.273282 
L 269.13172 48.275824 
L 268.430404 48.278369 
L 267.729928 48.280918 
L 267.029453 48.283472 
L 266.328137 48.286029 
L 265.627662 48.288591 
L 264.927187 48.291156 
L 264.225871 48.293726 
L 263.525395 48.2963 
L 262.82492 48.298383 
L 262.123604 48.226939 
L 261.423129 48.155498 
L 260.722654 48.08406 
L 260.021338 48.012625 
L 259.320862 47.941193 
L 258.620387 47.869764 
L 257.919071 47.798337 
L 257.218596 47.726914 
L 256.518121 47.655494 
L 255.816805 47.584076 
L 255.116329 47.512662 
L 254.415854 47.442859 
L 253.714538 47.542417 
L 253.014063 47.641984 
L 252.313588 47.741559 
L 251.612272 47.841143 
L 250.911796 47.940735 
L 250.211321 48.040335 
L 249.510005 48.139944 
L 248.80953 48.239562 
L 248.109055 48.339188 
L 247.407739 48.438823 
L 246.707263 48.538467 
L 246.006788 48.636835 
L 245.305472 48.617521 
L 244.604997 48.598211 
L 243.904522 48.578906 
L 243.203206 48.559605 
L 242.50273 48.540308 
L 241.802255 48.521015 
L 241.100939 48.501727 
L 240.400464 48.482443 
L 239.699989 48.463164 
L 238.998673 48.443889 
L 238.298198 48.424618 
L 237.597722 48.406824 
L 236.896406 48.50406 
L 236.195931 48.601307 
L 235.495456 48.698563 
L 234.79414 48.79583 
L 234.093665 48.893108 
L 233.393189 48.990396 
L 232.691873 49.087694 
L 231.991398 49.185003 
L 231.290923 49.282323 
L 230.589607 49.379654 
L 229.889132 49.476995 
L 229.188656 49.573979 
L 228.48734 49.667333 
L 227.786865 49.760697 
L 227.08639 49.85407 
L 226.385074 49.947452 
L 225.684599 50.040844 
L 224.984123 50.134246 
L 224.282807 50.227657 
L 223.582332 50.321078 
L 222.881857 50.414509 
L 222.180541 50.50795 
L 221.480066 50.601401 
L 220.77959 50.693169 
L 220.078274 50.603102 
L 219.377799 50.513039 
L 218.677324 50.42298 
L 217.976008 50.332924 
L 217.275533 50.242872 
L 216.575057 50.152824 
L 215.873741 50.06278 
L 215.173266 49.972739 
L 214.472791 49.882703 
L 213.771475 49.79267 
L 213.071 49.702641 
L 212.370524 49.613902 
L 211.669208 49.664653 
L 210.968733 49.715413 
L 210.268258 49.766181 
L 209.566942 49.816959 
L 208.866467 49.867745 
L 208.165991 49.91854 
L 207.464675 49.969344 
L 206.7642 50.020157 
L 206.063725 50.070979 
L 205.362409 50.121811 
L 204.661934 50.172651 
L 203.961458 50.222864 
L 203.260142 50.220218 
L 202.559667 50.217578 
L 201.859192 50.214944 
L 201.157876 50.212317 
L 200.457401 50.209697 
L 199.756926 50.207084 
L 199.055609 50.204478 
L 198.355134 50.201879 
L 197.654659 50.199286 
L 196.953343 50.196701 
L 196.252868 50.194123 
L 195.552393 50.19142 
L 194.851076 50.150009 
L 194.150601 50.108605 
L 193.450126 50.067207 
L 192.74881 50.025817 
L 192.048335 49.984433 
L 191.34786 49.943055 
L 190.646543 49.901685 
L 189.946068 49.860321 
L 189.245593 49.818965 
L 188.544277 49.777615 
L 187.843802 49.736272 
L 187.143327 49.695097 
L 186.44201 49.695506 
L 185.741535 49.695923 
L 185.04106 49.696348 
L 184.339744 49.696781 
L 183.639269 49.697221 
L 182.938794 49.69767 
L 182.237478 49.698127 
L 181.537002 49.698592 
L 180.836527 49.699065 
L 180.135211 49.699547 
L 179.434736 49.700036 
L 178.734261 49.700526 
L 178.032945 49.691321 
L 177.332469 49.682124 
L 176.631994 49.672936 
L 175.930678 49.663756 
L 175.230203 49.654585 
L 174.529728 49.645422 
L 173.828412 49.636268 
L 173.127936 49.627123 
L 172.427461 49.617987 
L 171.726145 49.60886 
L 171.02567 49.599741 
L 170.325195 49.589899 
L 169.623879 49.529422 
L 168.923403 49.468952 
L 168.222928 49.408487 
L 167.521612 49.348028 
L 166.821137 49.287575 
L 166.120662 49.227129 
L 165.419346 49.166688 
L 164.71887 49.106254 
L 164.018395 49.045826 
L 163.317079 48.985404 
L 162.616604 48.924988 
L 161.916129 48.864769 
L 161.214813 48.814358 
L 160.514337 48.763954 
L 159.813862 48.713557 
L 159.112546 48.663167 
L 158.412071 48.612785 
L 157.711596 48.56241 
L 157.01028 48.512043 
L 156.309804 48.461683 
L 155.609329 48.411331 
L 154.908013 48.360986 
L 154.207538 48.310649 
L 153.507063 48.263144 
L 152.805747 48.40935 
L 152.105271 48.555582 
L 151.404796 48.701841 
L 150.70348 48.848127 
L 150.003005 48.994441 
L 149.30253 49.140782 
L 148.601214 49.287151 
L 147.900739 49.433549 
L 147.200263 49.579976 
L 146.498947 49.726432 
L 145.798472 49.872918 
L 145.097997 50.016765 
L 144.396681 49.979131 
L 143.696206 49.941508 
L 142.99573 49.903896 
L 142.294414 49.866294 
L 141.593939 49.828704 
L 140.893464 49.791125 
L 140.192148 49.753557 
L 139.491673 49.716001 
L 138.791197 49.678456 
L 138.089881 49.640922 
L 137.389406 49.6034 
L 136.688931 49.565668 
L 135.987615 49.522295 
L 135.28714 49.478932 
L 134.586664 49.43558 
L 133.885348 49.39224 
L 133.184873 49.34891 
L 132.484398 49.305591 
L 131.783082 49.262283 
L 131.082607 49.218986 
L 130.382131 49.175701 
L 129.680815 49.132427 
L 128.98034 49.089165 
L 128.279865 49.045023 
L 127.578549 48.953351 
L 126.878074 48.861687 
L 126.177598 48.770029 
L 125.476282 48.678379 
L 124.775807 48.586735 
L 124.075332 48.4951 
L 123.374016 48.403471 
L 122.673541 48.31185 
L 121.973065 48.220236 
L 121.271749 48.128629 
L 120.571274 48.037031 
L 119.870799 47.947477 
L 119.169483 47.996549 
L 118.469008 48.045643 
L 117.768532 48.094758 
L 117.067216 48.143895 
L 116.366741 48.193054 
L 115.666266 48.242235 
L 114.96495 48.291438 
L 114.264475 48.340664 
L 113.564 48.389913 
L 112.862683 48.439186 
L 112.162208 48.488482 
L 111.461733 48.538257 
L 110.760417 48.585253 
L 110.059942 48.632277 
L 109.359467 48.679332 
L 108.65815 48.726416 
L 107.957675 48.77353 
L 107.2572 48.820675 
L 106.555884 48.867851 
L 105.855409 48.915059 
L 105.154934 48.962299 
L 104.453617 49.009572 
L 103.753142 49.056878 
L 103.052667 49.1042 
L 102.351351 49.176695 
L 101.650876 49.249225 
L 100.950401 49.321789 
L 100.249084 49.39439 
L 99.548609 49.467027 
L 98.848134 49.539701 
L 98.146818 49.612413 
L 97.446343 49.685164 
L 96.745868 49.757953 
L 96.044552 49.830783 
L 95.344076 49.903653 
L 94.643601 49.976918 
L 93.942285 50.036226 
L 93.24181 50.095581 
L 92.541335 50.154986 
L 91.840019 50.21444 
L 91.139543 50.273944 
L 90.439068 50.333501 
L 89.737752 50.39311 
L 89.037277 50.452773 
L 88.336802 50.512491 
L 87.635486 50.572266 
L 86.93501 50.632099 
L 86.234535 50.690889 
L 85.533219 50.676372 
L 84.832744 50.661901 
L 84.132269 50.647476 
L 83.430953 50.633098 
L 82.730477 50.618768 
L 82.030002 50.604488 
L 81.328686 50.590257 
L 80.628211 50.576078 
L 79.927736 50.561951 
L 79.22642 50.547878 
L 78.525944 50.53386 
L 77.825469 50.516708 
L 77.124153 50.357522 
L 76.423678 50.198355 
L 75.723203 50.039205 
L 75.021887 49.880074 
L 74.321411 49.720962 
L 73.620936 49.561869 
L 72.91962 49.402794 
L 72.219145 49.24374 
L 71.51867 49.084704 
L 70.817354 48.925689 
L 70.116878 48.766695 
L 69.416403 48.640136 
L 68.715087 48.701391 
L 68.014612 48.764616 
L 67.314137 48.83015 
L 66.612821 48.898442 
L 65.912345 48.970109 
L 65.21187 49.046039 
L 64.510554 49.127594 
L 63.810079 49.217069 
L 63.109604 49.318937 
L 62.408288 49.444745 
L 61.707813 49.467659 
z
" clip-path="url(#pc70b39be37)" style="fill: #d0d1e6; fill-opacity: 0.25"/>
   </g>
   <g id="PolyCollection_2">
    <path d="M 171.02567 50.895901 
L 171.02567 51.459206 
L 171.726145 51.490342 
L 172.427461 51.638141 
L 173.127936 51.734444 
L 173.828412 51.786864 
L 174.529728 51.838333 
L 175.230203 51.887781 
L 175.930678 51.934782 
L 176.631994 51.979738 
L 177.332469 52.022949 
L 178.032945 52.06465 
L 178.734261 52.105028 
L 179.434736 52.150694 
L 180.135211 52.195327 
L 180.836527 52.239013 
L 181.537002 52.281841 
L 182.237478 52.323885 
L 182.938794 52.36521 
L 183.639269 52.405872 
L 184.339744 52.445921 
L 185.04106 52.4854 
L 185.741535 52.524348 
L 186.44201 52.562799 
L 187.143327 52.600783 
L 187.843802 52.595011 
L 188.544277 52.588591 
L 189.245593 52.581789 
L 189.946068 52.574625 
L 190.646543 52.567118 
L 191.34786 52.559284 
L 192.048335 52.551139 
L 192.74881 52.542697 
L 193.450126 52.533972 
L 194.150601 52.524975 
L 194.851076 52.51572 
L 195.552393 52.506215 
L 196.252868 52.536972 
L 196.953343 52.567664 
L 197.654659 52.59813 
L 198.355134 52.628381 
L 199.055609 52.658422 
L 199.756926 52.679111 
L 200.457401 52.699567 
L 201.157876 52.719836 
L 201.859192 52.739925 
L 202.559667 52.759839 
L 203.260142 52.779583 
L 203.961458 52.799164 
L 204.661934 52.870279 
L 205.362409 52.941953 
L 206.063725 53.013464 
L 206.7642 53.084815 
L 207.464675 53.156012 
L 208.165991 53.22706 
L 208.866467 53.287874 
L 209.566942 53.348517 
L 210.268258 53.409023 
L 210.968733 53.469396 
L 211.669208 53.529639 
L 212.370524 53.589755 
L 213.071 53.503545 
L 213.771475 53.415888 
L 214.472791 53.328135 
L 215.173266 53.240286 
L 215.873741 53.152345 
L 216.575057 53.064314 
L 217.275533 52.976193 
L 217.976008 52.887986 
L 218.677324 52.799694 
L 219.377799 52.711319 
L 220.078274 52.622861 
L 220.77959 52.534324 
L 221.480066 52.623755 
L 222.180541 52.714746 
L 222.881857 52.80564 
L 223.582332 52.896438 
L 224.282807 52.987143 
L 224.984123 53.077757 
L 225.684599 53.16828 
L 226.385074 53.258716 
L 227.08639 53.349066 
L 227.786865 53.439331 
L 228.48734 53.529514 
L 229.188656 53.619616 
L 229.889132 53.713549 
L 230.589607 53.807743 
L 231.290923 53.901855 
L 231.991398 53.995888 
L 232.691873 54.089843 
L 233.393189 54.183721 
L 234.093665 54.277525 
L 234.79414 54.371254 
L 235.495456 54.464911 
L 236.195931 54.558497 
L 236.896406 54.652012 
L 237.597722 54.745459 
L 238.298198 54.736154 
L 238.998673 54.725487 
L 239.699989 54.714768 
L 240.400464 54.703998 
L 241.100939 54.693177 
L 241.802255 54.682306 
L 242.50273 54.671386 
L 243.203206 54.660417 
L 243.904522 54.6494 
L 244.604997 54.638336 
L 245.305472 54.627225 
L 246.006788 54.616069 
L 246.707263 54.72949 
L 247.407739 54.843954 
L 248.109055 54.958364 
L 248.80953 55.072721 
L 249.510005 55.187025 
L 250.211321 55.301277 
L 250.911796 55.415478 
L 251.612272 55.529628 
L 252.313588 55.643729 
L 253.014063 55.75778 
L 253.714538 55.871784 
L 254.415854 55.985739 
L 255.116329 55.946895 
L 255.816805 55.906096 
L 256.518121 55.865266 
L 257.218596 55.824405 
L 257.919071 55.783514 
L 258.620387 55.746988 
L 259.320862 55.710086 
L 260.021338 55.691789 
L 260.722654 55.673272 
L 261.423129 55.654729 
L 262.123604 55.636161 
L 262.82492 55.617568 
L 263.525395 55.673015 
L 264.225871 55.729424 
L 264.927187 55.787179 
L 265.627662 55.844586 
L 266.328137 55.900781 
L 267.029453 55.956429 
L 267.729928 56.011285 
L 268.430404 56.068519 
L 269.13172 56.125781 
L 269.832195 56.185625 
L 270.53267 56.24493 
L 271.233986 56.301934 
L 271.934461 56.433516 
L 272.634937 56.566577 
L 273.336253 56.700817 
L 274.036728 56.83587 
L 274.737203 56.970579 
L 275.438519 57.104659 
L 276.138994 57.239147 
L 276.839469 57.37447 
L 277.540786 57.509398 
L 278.241261 57.644199 
L 278.941736 57.778672 
L 279.643052 57.913364 
L 280.343527 57.96143 
L 281.044002 58.008743 
L 281.745319 58.054824 
L 282.445794 58.100356 
L 283.146269 58.145554 
L 283.847585 58.190198 
L 284.54806 58.234563 
L 285.248535 58.278798 
L 285.949852 58.32439 
L 286.650327 58.370875 
L 287.350802 58.419191 
L 288.052118 58.468035 
L 288.752593 58.588676 
L 289.453068 58.711405 
L 290.154385 58.835171 
L 290.85486 58.959726 
L 291.555335 59.084689 
L 292.256651 59.210546 
L 292.957126 59.336879 
L 293.657601 59.465021 
L 294.358917 59.594549 
L 295.059393 59.725175 
L 295.759868 59.855874 
L 296.461184 59.986804 
L 297.161659 59.952259 
L 297.862134 59.91724 
L 298.56345 59.883336 
L 299.263926 59.850138 
L 299.964401 59.81619 
L 300.665717 59.781833 
L 301.366192 59.747369 
L 302.066667 59.713338 
L 302.767983 59.679579 
L 303.468459 59.645758 
L 304.168934 59.611265 
L 304.87025 59.576608 
L 305.570725 59.764134 
L 306.2712 59.95242 
L 306.972516 60.140176 
L 307.672992 60.326881 
L 308.373467 60.512569 
L 309.074783 60.697619 
L 309.775258 60.882421 
L 310.475733 61.067192 
L 311.177049 61.252394 
L 311.877525 61.437461 
L 312.578 61.611019 
L 313.279316 61.784315 
L 313.979791 61.756334 
L 314.680266 61.727603 
L 315.381582 61.698711 
L 316.082058 61.669292 
L 316.782533 61.639983 
L 317.483849 61.609797 
L 318.184324 61.577856 
L 318.884799 61.547297 
L 319.586115 61.516919 
L 320.286591 61.487453 
L 320.987066 61.442019 
L 321.688382 61.396383 
L 322.388857 61.554501 
L 323.089332 61.714484 
L 323.790648 61.874578 
L 324.491124 62.034999 
L 325.191599 62.195445 
L 325.892915 62.355494 
L 326.59339 62.51471 
L 327.293865 62.678705 
L 327.995181 62.842638 
L 328.695656 63.006824 
L 329.396132 63.170815 
L 330.097448 63.33436 
L 330.797923 63.288343 
L 331.498398 63.244508 
L 332.199714 63.201166 
L 332.900189 63.158157 
L 333.600665 63.115232 
L 334.301981 63.07181 
L 335.002456 63.028705 
L 335.702931 62.986849 
L 336.404247 62.946321 
L 337.104722 62.906885 
L 337.805198 62.867645 
L 338.506514 62.828042 
L 339.206989 62.804855 
L 339.907464 62.783011 
L 340.60878 62.761475 
L 341.309255 62.740259 
L 342.009731 62.724228 
L 342.711047 62.706968 
L 343.411522 62.691042 
L 344.111997 62.67459 
L 344.813313 62.658062 
L 345.513788 62.641404 
L 346.214264 62.624551 
L 346.91558 62.607294 
L 347.616055 62.638428 
L 348.31653 62.669587 
L 349.017846 62.699855 
L 349.718321 62.728534 
L 350.418797 62.756308 
L 351.120113 62.783453 
L 351.820588 62.809999 
L 352.521063 62.836471 
L 353.222379 62.863279 
L 353.922854 62.890359 
L 354.62333 62.917121 
L 355.324646 62.943718 
L 356.025121 62.965598 
L 356.725596 62.986397 
L 357.426912 63.006927 
L 358.127387 63.027357 
L 358.827863 63.047802 
L 359.529179 63.067809 
L 360.229654 63.08751 
L 360.930129 63.107574 
L 361.631445 63.128242 
L 362.33192 63.148534 
L 363.032395 63.168428 
L 363.733712 63.186643 
L 364.434187 63.188258 
L 365.134662 63.187204 
L 365.835978 63.185383 
L 366.536453 63.18362 
L 367.236928 63.180987 
L 367.938245 63.177039 
L 368.63872 63.172448 
L 369.339195 63.167893 
L 370.040511 63.163417 
L 370.740986 63.158317 
L 371.441461 63.153096 
L 372.142778 63.147503 
L 372.843253 63.297663 
L 373.543728 63.447897 
L 374.245044 63.597301 
L 374.945519 63.745016 
L 375.645994 63.890236 
L 376.347311 64.032745 
L 377.047786 64.174836 
L 377.748261 64.316247 
L 378.449577 64.457246 
L 379.150052 64.598074 
L 379.850527 64.736819 
L 380.551843 64.876269 
L 381.252319 64.884299 
L 381.952794 64.894645 
L 382.65411 64.906432 
L 383.354585 64.919154 
L 384.05506 64.929669 
L 384.756376 64.940601 
L 385.456852 64.95259 
L 386.157327 64.965763 
L 386.858643 64.979814 
L 387.559118 64.995375 
L 388.259593 65.010283 
L 388.960909 65.0252 
L 389.661385 65.091822 
L 390.36186 65.159164 
L 391.063176 65.227441 
L 391.763651 65.295986 
L 392.464126 65.36471 
L 393.165442 65.434074 
L 393.865918 65.503153 
L 394.566393 65.632357 
L 395.267709 65.764624 
L 395.968184 65.897871 
L 396.668659 66.032306 
L 397.369975 66.173147 
L 398.070451 66.248912 
L 398.770926 66.323225 
L 399.472242 66.395509 
L 400.172717 66.467578 
L 400.873192 66.539945 
L 401.574508 66.611739 
L 402.274984 66.683537 
L 402.975459 66.755324 
L 403.676775 66.8271 
L 404.37725 66.898769 
L 405.077725 66.970451 
L 405.779041 67.042035 
L 406.479517 67.20126 
L 407.179992 67.317622 
L 407.881308 67.43279 
L 408.581783 67.54795 
L 409.282258 67.6631 
L 409.983574 67.778242 
L 410.68405 67.893376 
L 411.384525 68.008501 
L 412.085841 68.123617 
L 412.786316 68.238725 
L 413.486791 68.353825 
L 414.188107 68.468916 
L 414.188107 59.806887 
L 414.188107 59.806887 
L 413.486791 59.703847 
L 412.786316 59.600815 
L 412.085841 59.497792 
L 411.384525 59.394778 
L 410.68405 59.291771 
L 409.983574 59.188774 
L 409.282258 59.085785 
L 408.581783 58.982804 
L 407.881308 58.879833 
L 407.179992 58.77687 
L 406.479517 58.675101 
L 405.779041 58.529471 
L 405.077725 58.47146 
L 404.37725 58.413374 
L 403.676775 58.355276 
L 402.975459 58.297092 
L 402.274984 58.238918 
L 401.574508 58.180756 
L 400.873192 58.12259 
L 400.172717 58.063884 
L 399.472242 58.005521 
L 398.770926 57.946992 
L 398.070451 57.886766 
L 397.369975 57.826057 
L 396.668659 57.700337 
L 395.968184 57.581245 
L 395.267709 57.46334 
L 394.566393 57.346415 
L 393.865918 57.228358 
L 393.165442 57.170489 
L 392.464126 57.112779 
L 391.763651 57.055811 
L 391.063176 56.999078 
L 390.36186 56.942791 
L 389.661385 56.887731 
L 388.960909 56.833533 
L 388.259593 56.831115 
L 387.559118 56.82894 
L 386.858643 56.827849 
L 386.157327 56.828945 
L 385.456852 56.831627 
L 384.756376 56.836052 
L 384.05506 56.841897 
L 383.354585 56.84813 
L 382.65411 56.852197 
L 381.952794 56.856839 
L 381.252319 56.861325 
L 380.551843 56.870341 
L 379.850527 56.747693 
L 379.150052 56.623889 
L 378.449577 56.497832 
L 377.748261 56.371525 
L 377.047786 56.244781 
L 376.347311 56.117387 
L 375.645994 55.990284 
L 374.945519 55.861309 
L 374.245044 55.730894 
L 373.543728 55.599102 
L 372.843253 55.466546 
L 372.142778 55.332339 
L 371.441461 55.354049 
L 370.740986 55.375328 
L 370.040511 55.39595 
L 369.339195 55.415956 
L 368.63872 55.435772 
L 367.938245 55.45492 
L 367.236928 55.473029 
L 366.536453 55.490358 
L 365.835978 55.506833 
L 365.134662 55.52304 
L 364.434187 55.538043 
L 363.733712 55.550183 
L 363.032395 55.545193 
L 362.33192 55.538429 
L 361.631445 55.5313 
L 360.930129 55.524031 
L 360.229654 55.517415 
L 359.529179 55.511184 
L 358.827863 55.504884 
L 358.127387 55.498187 
L 357.426912 55.491399 
L 356.725596 55.48454 
L 356.025121 55.477869 
L 355.324646 55.473486 
L 354.62333 55.464452 
L 353.922854 55.455482 
L 353.222379 55.446103 
L 352.521063 55.436826 
L 351.820588 55.427869 
L 351.120113 55.419165 
L 350.418797 55.410196 
L 349.718321 55.400975 
L 349.017846 55.39141 
L 348.31653 55.380785 
L 347.616055 55.369574 
L 346.91558 55.35756 
L 346.214264 55.394266 
L 345.513788 55.430737 
L 344.813313 55.467074 
L 344.111997 55.503434 
L 343.411522 55.539452 
L 342.711047 55.576464 
L 342.009731 55.615001 
L 341.309255 55.654677 
L 340.60878 55.699318 
L 339.907464 55.744102 
L 339.206989 55.788997 
L 338.506514 55.834046 
L 337.805198 55.8957 
L 337.104722 55.957061 
L 336.404247 56.018216 
L 335.702931 56.07952 
L 335.002456 56.141439 
L 334.301981 56.204438 
L 333.600665 56.267957 
L 332.900189 56.330972 
L 332.199714 56.394002 
L 331.498398 56.457206 
L 330.797923 56.520696 
L 330.097448 56.582453 
L 329.396132 56.434787 
L 328.695656 56.286833 
L 327.995181 56.13863 
L 327.293865 55.990487 
L 326.59339 55.842888 
L 325.892915 55.700583 
L 325.191599 55.557782 
L 324.491124 55.414678 
L 323.790648 55.271438 
L 323.089332 55.128444 
L 322.388857 54.985581 
L 321.688382 54.840942 
L 320.987066 54.900098 
L 320.286591 54.959633 
L 319.586115 55.00333 
L 318.884799 55.048089 
L 318.184324 55.093198 
L 317.483849 55.139151 
L 316.782533 55.183149 
L 316.082058 55.226335 
L 315.381582 55.269707 
L 314.680266 55.312569 
L 313.979791 55.355205 
L 313.279316 55.399492 
L 312.578 55.242561 
L 311.877525 55.085269 
L 311.177049 54.916528 
L 310.475733 54.747623 
L 309.775258 54.579113 
L 309.074783 54.410681 
L 308.373467 54.242253 
L 307.672992 54.073541 
L 306.972516 53.904579 
L 306.2712 53.735486 
L 305.570725 53.566056 
L 304.87025 53.394856 
L 304.168934 53.445871 
L 303.468459 53.496581 
L 302.767983 53.546661 
L 302.066667 53.596825 
L 301.366192 53.647599 
L 300.665717 53.698963 
L 299.964401 53.750173 
L 299.263926 53.800958 
L 298.56345 53.851546 
L 297.862134 53.903455 
L 297.161659 53.95668 
L 296.461184 54.012005 
L 295.759868 53.901986 
L 295.059393 53.792331 
L 294.358917 53.682662 
L 293.657601 53.574063 
L 292.957126 53.466459 
L 292.256651 53.360701 
L 291.555335 53.255187 
L 290.85486 53.150331 
L 290.154385 53.046007 
L 289.453068 52.942473 
L 288.752593 52.839866 
L 288.052118 52.738074 
L 287.350802 52.708022 
L 286.650327 52.678633 
L 285.949852 52.651073 
L 285.248535 52.624361 
L 284.54806 52.599181 
L 283.847585 52.574018 
L 283.146269 52.548721 
L 282.445794 52.522933 
L 281.745319 52.496426 
L 281.044002 52.468497 
L 280.343527 52.439343 
L 279.643052 52.410411 
L 278.941736 52.294882 
L 278.241261 52.179649 
L 277.540786 52.064158 
L 276.839469 51.948645 
L 276.138994 51.832729 
L 275.438519 51.717702 
L 274.737203 51.603292 
L 274.036728 51.488448 
L 273.336253 51.373289 
L 272.634937 51.258733 
L 271.934461 51.145484 
L 271.233986 51.031426 
L 270.53267 50.992651 
L 269.832195 50.951721 
L 269.13172 50.909766 
L 268.430404 50.870574 
L 267.729928 50.831606 
L 267.029453 50.79476 
L 266.328137 50.757136 
L 265.627662 50.718609 
L 264.927187 50.678982 
L 264.225871 50.639003 
L 263.525395 50.600408 
L 262.82492 50.560709 
L 262.123604 50.595099 
L 261.423129 50.629514 
L 260.722654 50.663954 
L 260.021338 50.698419 
L 259.320862 50.733105 
L 258.620387 50.786451 
L 257.919071 50.840172 
L 257.218596 50.898318 
L 256.518121 50.956495 
L 255.816805 51.014702 
L 255.116329 51.07294 
L 254.415854 51.133134 
L 253.714538 51.040622 
L 253.014063 50.948159 
L 252.313588 50.855743 
L 251.612272 50.763377 
L 250.911796 50.671061 
L 250.211321 50.578795 
L 249.510005 50.48658 
L 248.80953 50.394417 
L 248.109055 50.302307 
L 247.407739 50.21025 
L 246.707263 50.118248 
L 246.006788 50.025202 
L 245.305472 50.056826 
L 244.604997 50.088495 
L 243.904522 50.120211 
L 243.203206 50.151974 
L 242.50273 50.183785 
L 241.802255 50.215645 
L 241.100939 50.247555 
L 240.400464 50.279514 
L 239.699989 50.311524 
L 238.998673 50.343585 
L 238.298198 50.375699 
L 237.597722 50.409174 
L 236.896406 50.340032 
L 236.195931 50.270959 
L 235.495456 50.201956 
L 234.79414 50.133025 
L 234.093665 50.064166 
L 233.393189 49.99538 
L 232.691873 49.92667 
L 231.991398 49.858037 
L 231.290923 49.789481 
L 230.589607 49.721005 
L 229.889132 49.65261 
L 229.188656 49.583955 
L 228.48734 49.519292 
L 227.786865 49.45471 
L 227.08639 49.390211 
L 226.385074 49.325796 
L 225.684599 49.261468 
L 224.984123 49.197227 
L 224.282807 49.133075 
L 223.582332 49.069016 
L 222.881857 49.005049 
L 222.180541 48.941178 
L 221.480066 48.877405 
L 220.77959 48.812071 
L 220.078274 48.924863 
L 219.377799 49.037735 
L 218.677324 49.150689 
L 217.976008 49.263726 
L 217.275533 49.376848 
L 216.575057 49.490057 
L 215.873741 49.603355 
L 215.173266 49.716743 
L 214.472791 49.830224 
L 213.771475 49.9438 
L 213.071 50.057472 
L 212.370524 50.172592 
L 211.669208 50.141632 
L 210.968733 50.1108 
L 210.268258 50.080097 
L 209.566942 50.049528 
L 208.866467 50.019096 
L 208.165991 49.988835 
L 207.464675 49.948631 
L 206.7642 49.908577 
L 206.063725 49.868678 
L 205.362409 49.828937 
L 204.661934 49.78936 
L 203.961458 49.749224 
L 203.260142 49.760941 
L 202.559667 49.772821 
L 201.859192 49.784871 
L 201.157876 49.797095 
L 200.457401 49.8095 
L 199.756926 49.822091 
L 199.055609 49.834916 
L 198.355134 49.838791 
L 197.654659 49.842875 
L 196.953343 49.847176 
L 196.252868 49.851701 
L 195.552393 49.856292 
L 194.851076 49.901622 
L 194.150601 49.947201 
L 193.450126 49.99304 
L 192.74881 50.03915 
L 192.048335 50.085543 
L 191.34786 50.132233 
L 190.646543 50.179234 
L 189.946068 50.226562 
L 189.245593 50.274233 
L 188.544277 50.322266 
L 187.843802 50.370681 
L 187.143327 50.419744 
L 186.44201 50.425928 
L 185.741535 50.432577 
L 185.04106 50.439724 
L 184.339744 50.447402 
L 183.639269 50.45565 
L 182.938794 50.464512 
L 182.237478 50.474036 
L 181.537002 50.484279 
L 180.836527 50.495306 
L 180.135211 50.507191 
L 179.434736 50.520023 
L 178.734261 50.533888 
L 178.032945 50.555389 
L 177.332469 50.578214 
L 176.631994 50.602548 
L 175.930678 50.628627 
L 175.230203 50.656752 
L 174.529728 50.687323 
L 173.828412 50.719915 
L 173.127936 50.75877 
L 172.427461 50.841507 
L 171.726145 50.927036 
L 171.02567 50.895901 
z
" clip-path="url(#pc70b39be37)" style="fill: #67a9cf; fill-opacity: 0.25"/>
   </g>
   <g id="PolyCollection_3">
    <path d="M 171.02567 50.917919 
L 171.02567 51.437188 
L 171.726145 51.588757 
L 172.427461 51.715307 
L 173.127936 51.772027 
L 173.828412 51.82612 
L 174.529728 51.881675 
L 175.230203 51.935345 
L 175.930678 51.987423 
L 176.631994 52.038127 
L 177.332469 52.087633 
L 178.032945 52.13608 
L 178.734261 52.183581 
L 179.434736 52.226996 
L 180.135211 52.269639 
L 180.836527 52.311584 
L 181.537002 52.352891 
L 182.237478 52.393606 
L 182.938794 52.433777 
L 183.639269 52.473441 
L 184.339744 52.512637 
L 185.04106 52.551391 
L 185.741535 52.58973 
L 186.44201 52.627684 
L 187.143327 52.665272 
L 187.843802 52.700777 
L 188.544277 52.735952 
L 189.245593 52.770821 
L 189.946068 52.805396 
L 190.646543 52.839691 
L 191.34786 52.87372 
L 192.048335 52.907494 
L 192.74881 52.941027 
L 193.450126 52.974327 
L 194.150601 53.007405 
L 194.851076 53.040269 
L 195.552393 53.072933 
L 196.252868 53.107178 
L 196.953343 53.141238 
L 197.654659 53.175111 
L 198.355134 53.208814 
L 199.055609 53.242341 
L 199.756926 53.266513 
L 200.457401 53.290525 
L 201.157876 53.314384 
L 201.859192 53.338095 
L 202.559667 53.361666 
L 203.260142 53.385097 
L 203.961458 53.408394 
L 204.661934 53.430385 
L 205.362409 53.452248 
L 206.063725 53.47399 
L 206.7642 53.495611 
L 207.464675 53.51712 
L 208.165991 53.538511 
L 208.866467 53.549669 
L 209.566942 53.560722 
L 210.268258 53.571671 
L 210.968733 53.582519 
L 211.669208 53.593265 
L 212.370524 53.603916 
L 213.071 53.607752 
L 213.771475 53.611497 
L 214.472791 53.61515 
L 215.173266 53.618715 
L 215.873741 53.622192 
L 216.575057 53.625586 
L 217.275533 53.628899 
L 217.976008 53.632132 
L 218.677324 53.635282 
L 219.377799 53.638359 
L 220.078274 53.641356 
L 220.77959 53.644285 
L 221.480066 53.643344 
L 222.180541 53.642335 
L 222.881857 53.641255 
L 223.582332 53.640106 
L 224.282807 53.638894 
L 224.984123 53.63761 
L 225.684599 53.636264 
L 226.385074 53.634852 
L 227.08639 53.633382 
L 227.786865 53.631849 
L 228.48734 53.630253 
L 229.188656 53.628603 
L 229.889132 53.627163 
L 230.589607 53.625666 
L 231.290923 53.624114 
L 231.991398 53.622507 
L 232.691873 53.620845 
L 233.393189 53.619131 
L 234.093665 53.617363 
L 234.79414 53.615542 
L 235.495456 53.613675 
L 236.195931 53.611755 
L 236.896406 53.609784 
L 237.597722 53.607765 
L 238.298198 53.618035 
L 238.998673 53.628254 
L 239.699989 53.63843 
L 240.400464 53.648562 
L 241.100939 53.658648 
L 241.802255 53.668689 
L 242.50273 53.678684 
L 243.203206 53.688638 
L 243.904522 53.698548 
L 244.604997 53.708416 
L 245.305472 53.718244 
L 246.006788 53.728031 
L 246.707263 53.744711 
L 247.407739 53.761355 
L 248.109055 53.777956 
L 248.80953 53.794521 
L 249.510005 53.811047 
L 250.211321 53.827535 
L 250.911796 53.843985 
L 251.612272 53.860399 
L 252.313588 53.876778 
L 253.014063 53.893121 
L 253.714538 53.909428 
L 254.415854 53.925697 
L 255.116329 53.957853 
L 255.816805 53.989979 
L 256.518121 54.022075 
L 257.218596 54.054144 
L 257.919071 54.086183 
L 258.620387 54.122192 
L 259.320862 54.158171 
L 260.021338 54.212532 
L 260.722654 54.266875 
L 261.423129 54.32119 
L 262.123604 54.375484 
L 262.82492 54.429758 
L 263.525395 54.485312 
L 264.225871 54.540785 
L 264.927187 54.597631 
L 265.627662 54.654074 
L 266.328137 54.709577 
L 267.029453 54.764358 
L 267.729928 54.818509 
L 268.430404 54.874806 
L 269.13172 54.931132 
L 269.832195 54.990421 
L 270.53267 55.048855 
L 271.233986 55.104656 
L 271.934461 55.155517 
L 272.634937 55.206656 
L 273.336253 55.25917 
L 274.036728 55.312394 
L 274.737203 55.365187 
L 275.438519 55.417339 
L 276.138994 55.469987 
L 276.839469 55.523513 
L 277.540786 55.576594 
L 278.241261 55.629571 
L 278.941736 55.682222 
L 279.643052 55.73513 
L 280.343527 55.787814 
L 281.044002 55.840237 
L 281.745319 55.89195 
L 282.445794 55.942909 
L 283.146269 55.993314 
L 283.847585 56.043124 
L 284.54806 56.092646 
L 285.248535 56.14202 
L 285.949852 56.192872 
L 286.650327 56.244604 
L 287.350802 56.298097 
L 288.052118 56.352226 
L 288.752593 56.409881 
L 289.453068 56.469061 
L 290.154385 56.529236 
L 290.85486 56.590137 
L 291.555335 56.651659 
L 292.256651 56.714104 
L 292.957126 56.776898 
L 293.657601 56.841762 
L 294.358917 56.907841 
L 295.059393 56.975069 
L 295.759868 57.042255 
L 296.461184 57.109678 
L 297.161659 57.184471 
L 297.862134 57.259966 
L 298.56345 57.336317 
L 299.263926 57.413361 
L 299.964401 57.489942 
L 300.665717 57.566133 
L 301.366192 57.642108 
L 302.066667 57.718402 
L 302.767983 57.795048 
L 303.468459 57.87169 
L 304.168934 57.947758 
L 304.87025 58.023576 
L 305.570725 58.096176 
L 306.2712 58.168167 
L 306.972516 58.239203 
L 307.672992 58.309209 
L 308.373467 58.378389 
L 309.074783 58.446968 
L 309.775258 58.51537 
L 310.475733 58.583828 
L 311.177049 58.652729 
L 311.877525 58.721451 
L 312.578 58.778763 
L 313.279316 58.835733 
L 313.979791 58.894976 
L 314.680266 58.954704 
L 315.381582 59.014234 
L 316.082058 59.073206 
L 316.782533 59.132284 
L 317.483849 59.190641 
L 318.184324 59.24746 
L 318.884799 59.30529 
L 319.586115 59.363305 
L 320.286591 59.422235 
L 320.987066 59.464924 
L 321.688382 59.507681 
L 322.388857 59.536533 
L 323.089332 59.565429 
L 323.790648 59.594504 
L 324.491124 59.623965 
L 325.191599 59.65333 
L 325.892915 59.682154 
L 326.59339 59.710025 
L 327.293865 59.74259 
L 327.995181 59.775517 
L 328.695656 59.808641 
L 329.396132 59.841459 
L 330.097448 59.873837 
L 330.797923 59.91391 
L 331.498398 59.954328 
L 332.199714 59.995224 
L 332.900189 60.036418 
L 333.600665 60.077665 
L 334.301981 60.118291 
L 335.002456 60.159436 
L 335.702931 60.202161 
L 336.404247 60.246399 
L 337.104722 60.29149 
L 337.805198 60.336537 
L 338.506514 60.381142 
L 339.206989 60.426993 
L 339.907464 60.473701 
L 340.60878 60.520723 
L 341.309255 60.568095 
L 342.009731 60.619177 
L 342.711047 60.670103 
L 343.411522 60.72158 
L 344.111997 60.773447 
L 344.813313 60.825015 
L 345.513788 60.876497 
L 346.214264 60.927719 
L 346.91558 60.978426 
L 347.616055 61.024277 
L 348.31653 61.069565 
L 349.017846 61.113811 
L 349.718321 61.156415 
L 350.418797 61.198177 
L 351.120113 61.239311 
L 351.820588 61.279825 
L 352.521063 61.320444 
L 353.222379 61.361487 
L 353.922854 61.402778 
L 354.62333 61.443572 
L 355.324646 61.484281 
L 356.025121 61.512669 
L 356.725596 61.541409 
L 357.426912 61.570089 
L 358.127387 61.598749 
L 358.827863 61.627349 
L 359.529179 61.6554 
L 360.229654 61.683255 
L 360.930129 61.711457 
L 361.631445 61.740153 
L 362.33192 61.76858 
L 363.032395 61.796678 
L 363.733712 61.823361 
L 364.434187 61.829345 
L 365.134662 61.832816 
L 365.835978 61.835498 
L 366.536453 61.838059 
L 367.236928 61.839463 
L 367.938245 61.840044 
L 368.63872 61.840192 
L 369.339195 61.840184 
L 370.040511 61.840116 
L 370.740986 61.839737 
L 371.441461 61.839008 
L 372.142778 61.837788 
L 372.843253 61.828859 
L 373.543728 61.819117 
L 374.245044 61.808403 
L 374.945519 61.795559 
L 375.645994 61.780275 
L 376.347311 61.762298 
L 377.047786 61.744244 
L 377.748261 61.725551 
L 378.449577 61.706483 
L 379.150052 61.687307 
L 379.850527 61.667041 
L 380.551843 61.646694 
L 381.252319 61.652475 
L 381.952794 61.662601 
L 382.65411 61.673578 
L 383.354585 61.685289 
L 384.05506 61.694829 
L 384.756376 61.704566 
L 385.456852 61.715225 
L 386.157327 61.726944 
L 386.858643 61.739508 
L 387.559118 61.752928 
L 388.259593 61.766433 
L 388.960909 61.780023 
L 389.661385 61.811603 
L 390.36186 61.843817 
L 391.063176 61.877008 
L 391.763651 61.91053 
L 392.464126 61.9442 
L 393.165442 61.978311 
L 393.865918 62.01233 
L 394.566393 62.108909 
L 395.267709 62.206458 
L 395.968184 62.304992 
L 396.668659 62.404588 
L 397.369975 62.510668 
L 398.070451 62.644438 
L 398.770926 62.777051 
L 399.472242 62.907777 
L 400.172717 63.038286 
L 400.873192 63.1691 
L 401.574508 63.29936 
L 402.274984 63.429615 
L 402.975459 63.559853 
L 403.676775 63.69008 
L 404.37725 63.820228 
L 405.077725 63.950364 
L 405.779041 64.080427 
L 406.479517 64.210481 
L 407.179992 64.295807 
L 407.881308 64.381127 
L 408.581783 64.466439 
L 409.282258 64.551745 
L 409.983574 64.637043 
L 410.68405 64.722333 
L 411.384525 64.807617 
L 412.085841 64.892896 
L 412.786316 64.978167 
L 413.486791 65.063432 
L 414.188107 65.148692 
L 414.188107 57.579723 
L 414.188107 57.579723 
L 413.486791 57.504494 
L 412.786316 57.429271 
L 412.085841 57.354052 
L 411.384525 57.278842 
L 410.68405 57.203638 
L 409.983574 57.128445 
L 409.282258 57.053254 
L 408.581783 56.978071 
L 407.881308 56.902894 
L 407.179992 56.827725 
L 406.479517 56.752562 
L 405.779041 56.635401 
L 405.077725 56.518254 
L 404.37725 56.401005 
L 403.676775 56.283767 
L 402.975459 56.166417 
L 402.274984 56.049077 
L 401.574508 55.931749 
L 400.873192 55.814432 
L 400.172717 55.696555 
L 399.472242 55.579015 
L 398.770926 55.461308 
L 398.070451 55.341764 
L 397.369975 55.221447 
L 396.668659 55.129012 
L 395.968184 55.043127 
L 395.267709 54.958555 
L 394.566393 54.874963 
L 393.865918 54.79233 
L 393.165442 54.767443 
L 392.464126 54.742528 
L 391.763651 54.718554 
L 391.063176 54.694849 
L 390.36186 54.671525 
L 389.661385 54.64938 
L 388.960909 54.628192 
L 388.259593 54.625488 
L 387.559118 54.622951 
L 386.858643 54.620763 
L 386.157327 54.621416 
L 385.456852 54.623686 
L 384.756376 54.627824 
L 384.05506 54.633519 
L 383.354585 54.639823 
L 382.65411 54.643923 
L 381.952794 54.648796 
L 381.252319 54.654107 
L 380.551843 54.661916 
L 379.850527 54.696253 
L 379.150052 54.730214 
L 378.449577 54.760928 
L 377.748261 54.791332 
L 377.047786 54.821256 
L 376.347311 54.850498 
L 375.645994 54.879685 
L 374.945519 54.906979 
L 374.245044 54.932782 
L 373.543728 54.95765 
L 372.843253 54.981893 
L 372.142778 55.005376 
L 371.441461 55.021355 
L 370.740986 55.037017 
L 370.040511 55.052258 
L 369.339195 55.066569 
L 368.63872 55.080825 
L 367.938245 55.094607 
L 367.236928 55.107143 
L 366.536453 55.118402 
L 365.835978 55.129102 
L 365.134662 55.139703 
L 364.434187 55.14913 
L 363.733712 55.155536 
L 363.032395 55.141143 
L 362.33192 55.124715 
L 361.631445 55.107848 
L 360.930129 55.09074 
L 360.229654 55.074395 
L 359.529179 55.058447 
L 358.827863 55.042323 
L 358.127387 55.025915 
L 357.426912 55.009484 
L 356.725596 54.992908 
L 356.025121 54.976305 
L 355.324646 54.960562 
L 354.62333 54.936383 
L 353.922854 54.912184 
L 353.222379 54.887752 
L 352.521063 54.863452 
L 351.820588 54.839379 
L 351.120113 54.815383 
L 350.418797 54.791145 
L 349.718321 54.766653 
L 349.017846 54.741747 
L 348.31653 54.71584 
L 347.616055 54.689499 
L 346.91558 54.662942 
L 346.214264 54.631194 
L 345.513788 54.599315 
L 344.813313 54.567372 
L 344.111997 54.53541 
L 343.411522 54.503325 
L 342.711047 54.471322 
L 342.009731 54.441625 
L 341.309255 54.411992 
L 340.60878 54.388805 
L 339.907464 54.365722 
L 339.206989 54.342749 
L 338.506514 54.320414 
L 337.805198 54.297959 
L 337.104722 54.275288 
L 336.404247 54.252655 
L 335.702931 54.230408 
L 335.002456 54.208584 
L 334.301981 54.187516 
L 333.600665 54.166764 
L 332.900189 54.145634 
L 332.199714 54.124544 
L 331.498398 54.103672 
L 330.797923 54.083095 
L 330.097448 54.062623 
L 329.396132 54.042392 
L 328.695656 54.021864 
L 327.995181 54.0012 
L 327.293865 53.980651 
L 326.59339 53.960222 
L 325.892915 53.945174 
L 325.191599 53.929752 
L 324.491124 53.914163 
L 323.790648 53.898566 
L 323.089332 53.883153 
L 322.388857 53.867803 
L 321.688382 53.852502 
L 320.987066 53.822161 
L 320.286591 53.791932 
L 319.586115 53.746131 
L 318.884799 53.701394 
L 318.184324 53.657005 
L 317.483849 53.613825 
L 316.782533 53.568477 
L 316.082058 53.522166 
L 315.381582 53.476038 
L 314.680266 53.429428 
L 313.979791 53.382637 
L 313.279316 53.336255 
L 312.578 53.292146 
L 311.877525 53.247749 
L 311.177049 53.191805 
L 310.475733 53.135737 
L 309.775258 53.080057 
L 309.074783 53.024368 
L 308.373467 52.968615 
L 307.672992 52.912537 
L 306.972516 52.856017 
L 306.2712 52.799344 
L 305.570725 52.742764 
L 304.87025 52.685777 
L 304.168934 52.625644 
L 303.468459 52.565288 
L 302.767983 52.504199 
L 302.066667 52.443144 
L 301.366192 52.382612 
L 300.665717 52.322788 
L 299.964401 52.262923 
L 299.263926 52.202608 
L 298.56345 52.141813 
L 297.862134 52.082349 
L 297.161659 52.024458 
L 296.461184 51.967494 
L 295.759868 51.917961 
L 295.059393 51.86879 
L 294.358917 51.819714 
L 293.657601 51.771662 
L 292.957126 51.724775 
L 292.256651 51.67947 
L 291.555335 51.634541 
L 290.85486 51.59024 
L 290.154385 51.546257 
L 289.453068 51.503127 
L 288.752593 51.460965 
L 288.052118 51.420179 
L 287.350802 51.382667 
L 286.650327 51.345709 
L 285.949852 51.310654 
L 285.248535 51.276458 
L 284.54806 51.243673 
L 283.847585 51.210922 
L 283.146269 51.178047 
L 282.445794 51.14472 
L 281.745319 51.110899 
L 281.044002 51.075858 
L 280.343527 51.03907 
L 279.643052 51.002011 
L 278.941736 50.964814 
L 278.241261 50.927881 
L 277.540786 50.890682 
L 276.839469 50.853445 
L 276.138994 50.815851 
L 275.438519 50.779101 
L 274.737203 50.742881 
L 274.036728 50.706238 
L 273.336253 50.669368 
L 272.634937 50.633208 
L 271.934461 50.598154 
L 271.233986 50.563494 
L 270.53267 50.522834 
L 269.832195 50.480343 
L 269.13172 50.437149 
L 268.430404 50.396339 
L 267.729928 50.355748 
L 267.029453 50.317512 
L 266.328137 50.278333 
L 265.627662 50.238428 
L 264.927187 50.197154 
L 264.225871 50.155581 
L 263.525395 50.11536 
L 262.82492 50.075084 
L 262.123604 50.034597 
L 261.423129 49.99413 
L 260.722654 49.953684 
L 260.021338 49.91326 
L 259.320862 49.872861 
L 258.620387 49.851344 
L 257.919071 49.829851 
L 257.218596 49.813185 
L 256.518121 49.796549 
L 255.816805 49.779934 
L 255.116329 49.763356 
L 254.415854 49.746802 
L 253.714538 49.747567 
L 253.014063 49.748365 
L 252.313588 49.749204 
L 251.612272 49.750073 
L 250.911796 49.750983 
L 250.211321 49.751929 
L 249.510005 49.752908 
L 248.80953 49.753931 
L 248.109055 49.754987 
L 247.407739 49.756084 
L 246.707263 49.757219 
L 246.006788 49.758395 
L 245.305472 49.766548 
L 244.604997 49.774741 
L 243.904522 49.782975 
L 243.203206 49.791256 
L 242.50273 49.799576 
L 241.802255 49.807937 
L 241.100939 49.816344 
L 240.400464 49.824795 
L 239.699989 49.833293 
L 238.998673 49.841834 
L 238.298198 49.850425 
L 237.597722 49.85906 
L 236.896406 49.880081 
L 236.195931 49.901148 
L 235.495456 49.922268 
L 234.79414 49.943434 
L 234.093665 49.964652 
L 233.393189 49.985923 
L 232.691873 50.007248 
L 231.991398 50.028625 
L 231.290923 50.050057 
L 230.589607 50.071544 
L 229.889132 50.093086 
L 229.188656 50.114685 
L 228.48734 50.136617 
L 227.786865 50.158608 
L 227.08639 50.180657 
L 226.385074 50.202769 
L 225.684599 50.224945 
L 224.984123 50.24718 
L 224.282807 50.269484 
L 223.582332 50.291854 
L 222.881857 50.314287 
L 222.180541 50.336794 
L 221.480066 50.359367 
L 220.77959 50.382014 
L 220.078274 50.40094 
L 219.377799 50.41994 
L 218.677324 50.439019 
L 217.976008 50.458173 
L 217.275533 50.477409 
L 216.575057 50.496718 
L 215.873741 50.516116 
L 215.173266 50.535596 
L 214.472791 50.555163 
L 213.771475 50.574818 
L 213.071 50.594561 
L 212.370524 50.6144 
L 211.669208 50.627612 
L 210.968733 50.640919 
L 210.268258 50.654322 
L 209.566942 50.667833 
L 208.866467 50.681447 
L 208.165991 50.695166 
L 207.464675 50.698942 
L 206.7642 50.70283 
L 206.063725 50.706836 
L 205.362409 50.710963 
L 204.661934 50.71521 
L 203.961458 50.719587 
L 203.260142 50.722921 
L 202.559667 50.72639 
L 201.859192 50.729993 
L 201.157876 50.733741 
L 200.457401 50.737638 
L 199.756926 50.741688 
L 199.055609 50.745897 
L 198.355134 50.741162 
L 197.654659 50.736596 
L 196.953343 50.732206 
L 196.252868 50.728002 
L 195.552393 50.723985 
L 194.851076 50.721951 
L 194.150601 50.720122 
L 193.450126 50.718506 
L 192.74881 50.717113 
L 192.048335 50.715954 
L 191.34786 50.715035 
L 190.646543 50.714371 
L 189.946068 50.713974 
L 189.245593 50.713856 
L 188.544277 50.714031 
L 187.843802 50.714514 
L 187.143327 50.715326 
L 186.44201 50.714739 
L 185.741535 50.714517 
L 185.04106 50.714687 
L 184.339744 50.715265 
L 183.639269 50.716285 
L 182.938794 50.717774 
L 182.237478 50.719771 
L 181.537002 50.72231 
L 180.836527 50.725441 
L 180.135211 50.729212 
L 179.434736 50.733684 
L 178.734261 50.738924 
L 178.032945 50.741768 
L 177.332469 50.745557 
L 176.631994 50.750405 
L 175.930678 50.756451 
L 175.230203 50.763872 
L 174.529728 50.772885 
L 173.828412 50.783782 
L 173.127936 50.798526 
L 172.427461 50.815903 
L 171.726145 50.854399 
L 171.02567 50.917919 
z
" clip-path="url(#pc70b39be37)" style="fill: #02818a; fill-opacity: 0.25"/>
   </g>
   <g id="matplotlib.axis_1">
    <g id="xtick_1">
     <g id="line2d_1">
      <defs>
       <path id="mccda0ecdf0" d="M 0 0 
L 0 3.5 
" style="stroke: #000000; stroke-width: 0.8"/>
      </defs>
      <g>
       <use xlink:href="#mccda0ecdf0" x="70.116878" y="186.84327" style="stroke: #000000; stroke-width: 0.8"/>
      </g>
     </g>
     <g id="text_1">
      <!-- 1980 -->
      <g transform="translate(57.391878 201.441708) scale(0.1 -0.1)">
       <defs>
        <path id="DejaVuSans-31" d="M 794 531 
L 1825 531 
L 1825 4091 
L 703 3866 
L 703 4441 
L 1819 4666 
L 2450 4666 
L 2450 531 
L 3481 531 
L 3481 0 
L 794 0 
L 794 531 
z
" transform="scale(0.015625)"/>
        <path id="DejaVuSans-39" d="M 703 97 
L 703 672 
Q 941 559 1184 500 
Q 1428 441 1663 441 
Q 2288 441 2617 861 
Q 2947 1281 2994 2138 
Q 2813 1869 2534 1725 
Q 2256 1581 1919 1581 
Q 1219 1581 811 2004 
Q 403 2428 403 3163 
Q 403 3881 828 4315 
Q 1253 4750 1959 4750 
Q 2769 4750 3195 4129 
Q 3622 3509 3622 2328 
Q 3622 1225 3098 567 
Q 2575 -91 1691 -91 
Q 1453 -91 1209 -44 
Q 966 3 703 97 
z
M 1959 2075 
Q 2384 2075 2632 2365 
Q 2881 2656 2881 3163 
Q 2881 3666 2632 3958 
Q 2384 4250 1959 4250 
Q 1534 4250 1286 3958 
Q 1038 3666 1038 3163 
Q 1038 2656 1286 2365 
Q 1534 2075 1959 2075 
z
" transform="scale(0.015625)"/>
        <path id="DejaVuSans-38" d="M 2034 2216 
Q 1584 2216 1326 1975 
Q 1069 1734 1069 1313 
Q 1069 891 1326 650 
Q 1584 409 2034 409 
Q 2484 409 2743 651 
Q 3003 894 3003 1313 
Q 3003 1734 2745 1975 
Q 2488 2216 2034 2216 
z
M 1403 2484 
Q 997 2584 770 2862 
Q 544 3141 544 3541 
Q 544 4100 942 4425 
Q 1341 4750 2034 4750 
Q 2731 4750 3128 4425 
Q 3525 4100 3525 3541 
Q 3525 3141 3298 2862 
Q 3072 2584 2669 2484 
Q 3125 2378 3379 2068 
Q 3634 1759 3634 1313 
Q 3634 634 3220 271 
Q 2806 -91 2034 -91 
Q 1263 -91 848 271 
Q 434 634 434 1313 
Q 434 1759 690 2068 
Q 947 2378 1403 2484 
z
M 1172 3481 
Q 1172 3119 1398 2916 
Q 1625 2713 2034 2713 
Q 2441 2713 2670 2916 
Q 2900 3119 2900 3481 
Q 2900 3844 2670 4047 
Q 2441 4250 2034 4250 
Q 1625 4250 1398 4047 
Q 1172 3844 1172 3481 
z
" transform="scale(0.015625)"/>
        <path id="DejaVuSans-30" d="M 2034 4250 
Q 1547 4250 1301 3770 
Q 1056 3291 1056 2328 
Q 1056 1369 1301 889 
Q 1547 409 2034 409 
Q 2525 409 2770 889 
Q 3016 1369 3016 2328 
Q 3016 3291 2770 3770 
Q 2525 4250 2034 4250 
z
M 2034 4750 
Q 2819 4750 3233 4129 
Q 3647 3509 3647 2328 
Q 3647 1150 3233 529 
Q 2819 -91 2034 -91 
Q 1250 -91 836 529 
Q 422 1150 422 2328 
Q 422 3509 836 4129 
Q 1250 4750 2034 4750 
z
" transform="scale(0.015625)"/>
       </defs>
       <use xlink:href="#DejaVuSans-31"/>
       <use xlink:href="#DejaVuSans-39" x="63.623047"/>
       <use xlink:href="#DejaVuSans-38" x="127.246094"/>
       <use xlink:href="#DejaVuSans-30" x="190.869141"/>
      </g>
     </g>
    </g>
    <g id="xtick_2">
     <g id="line2d_2">
      <g>
       <use xlink:href="#mccda0ecdf0" x="112.162208" y="186.84327" style="stroke: #000000; stroke-width: 0.8"/>
      </g>
     </g>
     <g id="text_2">
      <!-- 1985 -->
      <g transform="translate(99.437208 201.441708) scale(0.1 -0.1)">
       <defs>
        <path id="DejaVuSans-35" d="M 691 4666 
L 3169 4666 
L 3169 4134 
L 1269 4134 
L 1269 2991 
Q 1406 3038 1543 3061 
Q 1681 3084 1819 3084 
Q 2600 3084 3056 2656 
Q 3513 2228 3513 1497 
Q 3513 744 3044 326 
Q 2575 -91 1722 -91 
Q 1428 -91 1123 -41 
Q 819 9 494 109 
L 494 744 
Q 775 591 1075 516 
Q 1375 441 1709 441 
Q 2250 441 2565 725 
Q 2881 1009 2881 1497 
Q 2881 1984 2565 2268 
Q 2250 2553 1709 2553 
Q 1456 2553 1204 2497 
Q 953 2441 691 2322 
L 691 4666 
z
" transform="scale(0.015625)"/>
       </defs>
       <use xlink:href="#DejaVuSans-31"/>
       <use xlink:href="#DejaVuSans-39" x="63.623047"/>
       <use xlink:href="#DejaVuSans-38" x="127.246094"/>
       <use xlink:href="#DejaVuSans-35" x="190.869141"/>
      </g>
     </g>
    </g>
    <g id="xtick_3">
     <g id="line2d_3">
      <g>
       <use xlink:href="#mccda0ecdf0" x="154.207538" y="186.84327" style="stroke: #000000; stroke-width: 0.8"/>
      </g>
     </g>
     <g id="text_3">
      <!-- 1990 -->
      <g transform="translate(141.482538 201.441708) scale(0.1 -0.1)">
       <use xlink:href="#DejaVuSans-31"/>
       <use xlink:href="#DejaVuSans-39" x="63.623047"/>
       <use xlink:href="#DejaVuSans-39" x="127.246094"/>
       <use xlink:href="#DejaVuSans-30" x="190.869141"/>
      </g>
     </g>
    </g>
    <g id="xtick_4">
     <g id="line2d_4">
      <g>
       <use xlink:href="#mccda0ecdf0" x="196.252868" y="186.84327" style="stroke: #000000; stroke-width: 0.8"/>
      </g>
     </g>
     <g id="text_4">
      <!-- 1995 -->
      <g transform="translate(183.527868 201.441708) scale(0.1 -0.1)">
       <use xlink:href="#DejaVuSans-31"/>
       <use xlink:href="#DejaVuSans-39" x="63.623047"/>
       <use xlink:href="#DejaVuSans-39" x="127.246094"/>
       <use xlink:href="#DejaVuSans-35" x="190.869141"/>
      </g>
     </g>
    </g>
    <g id="xtick_5">
     <g id="line2d_5">
      <g>
       <use xlink:href="#mccda0ecdf0" x="238.298198" y="186.84327" style="stroke: #000000; stroke-width: 0.8"/>
      </g>
     </g>
     <g id="text_5">
      <!-- 2000 -->
      <g transform="translate(225.573198 201.441708) scale(0.1 -0.1)">
       <defs>
        <path id="DejaVuSans-32" d="M 1228 531 
L 3431 531 
L 3431 0 
L 469 0 
L 469 531 
Q 828 903 1448 1529 
Q 2069 2156 2228 2338 
Q 2531 2678 2651 2914 
Q 2772 3150 2772 3378 
Q 2772 3750 2511 3984 
Q 2250 4219 1831 4219 
Q 1534 4219 1204 4116 
Q 875 4013 500 3803 
L 500 4441 
Q 881 4594 1212 4672 
Q 1544 4750 1819 4750 
Q 2544 4750 2975 4387 
Q 3406 4025 3406 3419 
Q 3406 3131 3298 2873 
Q 3191 2616 2906 2266 
Q 2828 2175 2409 1742 
Q 1991 1309 1228 531 
z
" transform="scale(0.015625)"/>
       </defs>
       <use xlink:href="#DejaVuSans-32"/>
       <use xlink:href="#DejaVuSans-30" x="63.623047"/>
       <use xlink:href="#DejaVuSans-30" x="127.246094"/>
       <use xlink:href="#DejaVuSans-30" x="190.869141"/>
      </g>
     </g>
    </g>
    <g id="xtick_6">
     <g id="line2d_6">
      <g>
       <use xlink:href="#mccda0ecdf0" x="280.343527" y="186.84327" style="stroke: #000000; stroke-width: 0.8"/>
      </g>
     </g>
     <g id="text_6">
      <!-- 2005 -->
      <g transform="translate(267.618527 201.441708) scale(0.1 -0.1)">
       <use xlink:href="#DejaVuSans-32"/>
       <use xlink:href="#DejaVuSans-30" x="63.623047"/>
       <use xlink:href="#DejaVuSans-30" x="127.246094"/>
       <use xlink:href="#DejaVuSans-35" x="190.869141"/>
      </g>
     </g>
    </g>
    <g id="xtick_7">
     <g id="line2d_7">
      <g>
       <use xlink:href="#mccda0ecdf0" x="322.388857" y="186.84327" style="stroke: #000000; stroke-width: 0.8"/>
      </g>
     </g>
     <g id="text_7">
      <!-- 2010 -->
      <g transform="translate(309.663857 201.441708) scale(0.1 -0.1)">
       <use xlink:href="#DejaVuSans-32"/>
       <use xlink:href="#DejaVuSans-30" x="63.623047"/>
       <use xlink:href="#DejaVuSans-31" x="127.246094"/>
       <use xlink:href="#DejaVuSans-30" x="190.869141"/>
      </g>
     </g>
    </g>
    <g id="xtick_8">
     <g id="line2d_8">
      <g>
       <use xlink:href="#mccda0ecdf0" x="364.434187" y="186.84327" style="stroke: #000000; stroke-width: 0.8"/>
      </g>
     </g>
     <g id="text_8">
      <!-- 2015 -->
      <g transform="translate(351.709187 201.441708) scale(0.1 -0.1)">
       <use xlink:href="#DejaVuSans-32"/>
       <use xlink:href="#DejaVuSans-30" x="63.623047"/>
       <use xlink:href="#DejaVuSans-31" x="127.246094"/>
       <use xlink:href="#DejaVuSans-35" x="190.869141"/>
      </g>
     </g>
    </g>
    <g id="xtick_9">
     <g id="line2d_9">
      <g>
       <use xlink:href="#mccda0ecdf0" x="406.479517" y="186.84327" style="stroke: #000000; stroke-width: 0.8"/>
      </g>
     </g>
     <g id="text_9">
      <!-- 2020 -->
      <g transform="translate(393.754517 201.441708) scale(0.1 -0.1)">
       <use xlink:href="#DejaVuSans-32"/>
       <use xlink:href="#DejaVuSans-30" x="63.623047"/>
       <use xlink:href="#DejaVuSans-32" x="127.246094"/>
       <use xlink:href="#DejaVuSans-30" x="190.869141"/>
      </g>
     </g>
    </g>
    <g id="text_10">
     <!-- Year -->
     <g transform="translate(227.710698 215.119833) scale(0.1 -0.1)">
      <defs>
       <path id="DejaVuSans-59" d="M -13 4666 
L 666 4666 
L 1959 2747 
L 3244 4666 
L 3922 4666 
L 2272 2222 
L 2272 0 
L 1638 0 
L 1638 2222 
L -13 4666 
z
" transform="scale(0.015625)"/>
       <path id="DejaVuSans-65" d="M 3597 1894 
L 3597 1613 
L 953 1613 
Q 991 1019 1311 708 
Q 1631 397 2203 397 
Q 2534 397 2845 478 
Q 3156 559 3463 722 
L 3463 178 
Q 3153 47 2828 -22 
Q 2503 -91 2169 -91 
Q 1331 -91 842 396 
Q 353 884 353 1716 
Q 353 2575 817 3079 
Q 1281 3584 2069 3584 
Q 2775 3584 3186 3129 
Q 3597 2675 3597 1894 
z
M 3022 2063 
Q 3016 2534 2758 2815 
Q 2500 3097 2075 3097 
Q 1594 3097 1305 2825 
Q 1016 2553 972 2059 
L 3022 2063 
z
" transform="scale(0.015625)"/>
       <path id="DejaVuSans-61" d="M 2194 1759 
Q 1497 1759 1228 1600 
Q 959 1441 959 1056 
Q 959 750 1161 570 
Q 1363 391 1709 391 
Q 2188 391 2477 730 
Q 2766 1069 2766 1631 
L 2766 1759 
L 2194 1759 
z
M 3341 1997 
L 3341 0 
L 2766 0 
L 2766 531 
Q 2569 213 2275 61 
Q 1981 -91 1556 -91 
Q 1019 -91 701 211 
Q 384 513 384 1019 
Q 384 1609 779 1909 
Q 1175 2209 1959 2209 
L 2766 2209 
L 2766 2266 
Q 2766 2663 2505 2880 
Q 2244 3097 1772 3097 
Q 1472 3097 1187 3025 
Q 903 2953 641 2809 
L 641 3341 
Q 956 3463 1253 3523 
Q 1550 3584 1831 3584 
Q 2591 3584 2966 3190 
Q 3341 2797 3341 1997 
z
" transform="scale(0.015625)"/>
       <path id="DejaVuSans-72" d="M 2631 2963 
Q 2534 3019 2420 3045 
Q 2306 3072 2169 3072 
Q 1681 3072 1420 2755 
Q 1159 2438 1159 1844 
L 1159 0 
L 581 0 
L 581 3500 
L 1159 3500 
L 1159 2956 
Q 1341 3275 1631 3429 
Q 1922 3584 2338 3584 
Q 2397 3584 2469 3576 
Q 2541 3569 2628 3553 
L 2631 2963 
z
" transform="scale(0.015625)"/>
      </defs>
      <use xlink:href="#DejaVuSans-59"/>
      <use xlink:href="#DejaVuSans-65" x="47.833984"/>
      <use xlink:href="#DejaVuSans-61" x="109.357422"/>
      <use xlink:href="#DejaVuSans-72" x="170.636719"/>
     </g>
    </g>
   </g>
   <g id="matplotlib.axis_2">
    <g id="ytick_1">
     <g id="line2d_10">
      <defs>
       <path id="m0e9354d11a" d="M 0 0 
L -3.5 0 
" style="stroke: #000000; stroke-width: 0.8"/>
      </defs>
      <g>
       <use xlink:href="#m0e9354d11a" x="61.707813" y="186.84327" style="stroke: #000000; stroke-width: 0.8"/>
      </g>
     </g>
     <g id="text_11">
      <!-- 5000 -->
      <g transform="translate(20.878125 190.642489) scale(0.1 -0.1)">
       <defs>
        <path id="DejaVuSans-2212" d="M 678 2272 
L 4684 2272 
L 4684 1741 
L 678 1741 
L 678 2272 
z
" transform="scale(0.015625)"/>
       </defs>
       <use xlink:href="#DejaVuSans-2212"/>
       <use xlink:href="#DejaVuSans-35" x="83.789062"/>
       <use xlink:href="#DejaVuSans-30" x="147.412109"/>
       <use xlink:href="#DejaVuSans-30" x="211.035156"/>
       <use xlink:href="#DejaVuSans-30" x="274.658203"/>
      </g>
     </g>
    </g>
    <g id="ytick_2">
     <g id="line2d_11">
      <g>
       <use xlink:href="#m0e9354d11a" x="61.707813" y="159.422413" style="stroke: #000000; stroke-width: 0.8"/>
      </g>
     </g>
     <g id="text_12">
      <!-- 4000 -->
      <g transform="translate(20.878125 163.221631) scale(0.1 -0.1)">
       <defs>
        <path id="DejaVuSans-34" d="M 2419 4116 
L 825 1625 
L 2419 1625 
L 2419 4116 
z
M 2253 4666 
L 3047 4666 
L 3047 1625 
L 3713 1625 
L 3713 1100 
L 3047 1100 
L 3047 0 
L 2419 0 
L 2419 1100 
L 313 1100 
L 313 1709 
L 2253 4666 
z
" transform="scale(0.015625)"/>
       </defs>
       <use xlink:href="#DejaVuSans-2212"/>
       <use xlink:href="#DejaVuSans-34" x="83.789062"/>
       <use xlink:href="#DejaVuSans-30" x="147.412109"/>
       <use xlink:href="#DejaVuSans-30" x="211.035156"/>
       <use xlink:href="#DejaVuSans-30" x="274.658203"/>
      </g>
     </g>
    </g>
    <g id="ytick_3">
     <g id="line2d_12">
      <g>
       <use xlink:href="#m0e9354d11a" x="61.707813" y="132.001555" style="stroke: #000000; stroke-width: 0.8"/>
      </g>
     </g>
     <g id="text_13">
      <!-- 3000 -->
      <g transform="translate(20.878125 135.800774) scale(0.1 -0.1)">
       <defs>
        <path id="DejaVuSans-33" d="M 2597 2516 
Q 3050 2419 3304 2112 
Q 3559 1806 3559 1356 
Q 3559 666 3084 287 
Q 2609 -91 1734 -91 
Q 1441 -91 1130 -33 
Q 819 25 488 141 
L 488 750 
Q 750 597 1062 519 
Q 1375 441 1716 441 
Q 2309 441 2620 675 
Q 2931 909 2931 1356 
Q 2931 1769 2642 2001 
Q 2353 2234 1838 2234 
L 1294 2234 
L 1294 2753 
L 1863 2753 
Q 2328 2753 2575 2939 
Q 2822 3125 2822 3475 
Q 2822 3834 2567 4026 
Q 2313 4219 1838 4219 
Q 1578 4219 1281 4162 
Q 984 4106 628 3988 
L 628 4550 
Q 988 4650 1302 4700 
Q 1616 4750 1894 4750 
Q 2613 4750 3031 4423 
Q 3450 4097 3450 3541 
Q 3450 3153 3228 2886 
Q 3006 2619 2597 2516 
z
" transform="scale(0.015625)"/>
       </defs>
       <use xlink:href="#DejaVuSans-2212"/>
       <use xlink:href="#DejaVuSans-33" x="83.789062"/>
       <use xlink:href="#DejaVuSans-30" x="147.412109"/>
       <use xlink:href="#DejaVuSans-30" x="211.035156"/>
       <use xlink:href="#DejaVuSans-30" x="274.658203"/>
      </g>
     </g>
    </g>
    <g id="ytick_4">
     <g id="line2d_13">
      <g>
       <use xlink:href="#m0e9354d11a" x="61.707813" y="104.580698" style="stroke: #000000; stroke-width: 0.8"/>
      </g>
     </g>
     <g id="text_14">
      <!-- 2000 -->
      <g transform="translate(20.878125 108.379916) scale(0.1 -0.1)">
       <use xlink:href="#DejaVuSans-2212"/>
       <use xlink:href="#DejaVuSans-32" x="83.789062"/>
       <use xlink:href="#DejaVuSans-30" x="147.412109"/>
       <use xlink:href="#DejaVuSans-30" x="211.035156"/>
       <use xlink:href="#DejaVuSans-30" x="274.658203"/>
      </g>
     </g>
    </g>
    <g id="ytick_5">
     <g id="line2d_14">
      <g>
       <use xlink:href="#m0e9354d11a" x="61.707813" y="77.15984" style="stroke: #000000; stroke-width: 0.8"/>
      </g>
     </g>
     <g id="text_15">
      <!-- 1000 -->
      <g transform="translate(20.878125 80.959059) scale(0.1 -0.1)">
       <use xlink:href="#DejaVuSans-2212"/>
       <use xlink:href="#DejaVuSans-31" x="83.789062"/>
       <use xlink:href="#DejaVuSans-30" x="147.412109"/>
       <use xlink:href="#DejaVuSans-30" x="211.035156"/>
       <use xlink:href="#DejaVuSans-30" x="274.658203"/>
      </g>
     </g>
    </g>
    <g id="ytick_6">
     <g id="line2d_15">
      <g>
       <use xlink:href="#m0e9354d11a" x="61.707813" y="49.738983" style="stroke: #000000; stroke-width: 0.8"/>
      </g>
     </g>
     <g id="text_16">
      <!-- 0 -->
      <g transform="translate(48.345313 53.538201) scale(0.1 -0.1)">
       <use xlink:href="#DejaVuSans-30"/>
      </g>
     </g>
    </g>
    <g id="ytick_7">
     <g id="line2d_16">
      <g>
       <use xlink:href="#m0e9354d11a" x="61.707813" y="22.318125" style="stroke: #000000; stroke-width: 0.8"/>
      </g>
     </g>
     <g id="text_17">
      <!-- 1000 -->
      <g transform="translate(29.257812 26.117344) scale(0.1 -0.1)">
       <use xlink:href="#DejaVuSans-31"/>
       <use xlink:href="#DejaVuSans-30" x="63.623047"/>
       <use xlink:href="#DejaVuSans-30" x="127.246094"/>
       <use xlink:href="#DejaVuSans-30" x="190.869141"/>
      </g>
     </g>
    </g>
    <g id="text_18">
     <!-- Mass change [Gt] -->
     <g transform="translate(14.798438 148.483823) rotate(-90) scale(0.1 -0.1)">
      <defs>
       <path id="DejaVuSans-4d" d="M 628 4666 
L 1569 4666 
L 2759 1491 
L 3956 4666 
L 4897 4666 
L 4897 0 
L 4281 0 
L 4281 4097 
L 3078 897 
L 2444 897 
L 1241 4097 
L 1241 0 
L 628 0 
L 628 4666 
z
" transform="scale(0.015625)"/>
       <path id="DejaVuSans-73" d="M 2834 3397 
L 2834 2853 
Q 2591 2978 2328 3040 
Q 2066 3103 1784 3103 
Q 1356 3103 1142 2972 
Q 928 2841 928 2578 
Q 928 2378 1081 2264 
Q 1234 2150 1697 2047 
L 1894 2003 
Q 2506 1872 2764 1633 
Q 3022 1394 3022 966 
Q 3022 478 2636 193 
Q 2250 -91 1575 -91 
Q 1294 -91 989 -36 
Q 684 19 347 128 
L 347 722 
Q 666 556 975 473 
Q 1284 391 1588 391 
Q 1994 391 2212 530 
Q 2431 669 2431 922 
Q 2431 1156 2273 1281 
Q 2116 1406 1581 1522 
L 1381 1569 
Q 847 1681 609 1914 
Q 372 2147 372 2553 
Q 372 3047 722 3315 
Q 1072 3584 1716 3584 
Q 2034 3584 2315 3537 
Q 2597 3491 2834 3397 
z
" transform="scale(0.015625)"/>
       <path id="DejaVuSans-20" transform="scale(0.015625)"/>
       <path id="DejaVuSans-63" d="M 3122 3366 
L 3122 2828 
Q 2878 2963 2633 3030 
Q 2388 3097 2138 3097 
Q 1578 3097 1268 2742 
Q 959 2388 959 1747 
Q 959 1106 1268 751 
Q 1578 397 2138 397 
Q 2388 397 2633 464 
Q 2878 531 3122 666 
L 3122 134 
Q 2881 22 2623 -34 
Q 2366 -91 2075 -91 
Q 1284 -91 818 406 
Q 353 903 353 1747 
Q 353 2603 823 3093 
Q 1294 3584 2113 3584 
Q 2378 3584 2631 3529 
Q 2884 3475 3122 3366 
z
" transform="scale(0.015625)"/>
       <path id="DejaVuSans-68" d="M 3513 2113 
L 3513 0 
L 2938 0 
L 2938 2094 
Q 2938 2591 2744 2837 
Q 2550 3084 2163 3084 
Q 1697 3084 1428 2787 
Q 1159 2491 1159 1978 
L 1159 0 
L 581 0 
L 581 4863 
L 1159 4863 
L 1159 2956 
Q 1366 3272 1645 3428 
Q 1925 3584 2291 3584 
Q 2894 3584 3203 3211 
Q 3513 2838 3513 2113 
z
" transform="scale(0.015625)"/>
       <path id="DejaVuSans-6e" d="M 3513 2113 
L 3513 0 
L 2938 0 
L 2938 2094 
Q 2938 2591 2744 2837 
Q 2550 3084 2163 3084 
Q 1697 3084 1428 2787 
Q 1159 2491 1159 1978 
L 1159 0 
L 581 0 
L 581 3500 
L 1159 3500 
L 1159 2956 
Q 1366 3272 1645 3428 
Q 1925 3584 2291 3584 
Q 2894 3584 3203 3211 
Q 3513 2838 3513 2113 
z
" transform="scale(0.015625)"/>
       <path id="DejaVuSans-67" d="M 2906 1791 
Q 2906 2416 2648 2759 
Q 2391 3103 1925 3103 
Q 1463 3103 1205 2759 
Q 947 2416 947 1791 
Q 947 1169 1205 825 
Q 1463 481 1925 481 
Q 2391 481 2648 825 
Q 2906 1169 2906 1791 
z
M 3481 434 
Q 3481 -459 3084 -895 
Q 2688 -1331 1869 -1331 
Q 1566 -1331 1297 -1286 
Q 1028 -1241 775 -1147 
L 775 -588 
Q 1028 -725 1275 -790 
Q 1522 -856 1778 -856 
Q 2344 -856 2625 -561 
Q 2906 -266 2906 331 
L 2906 616 
Q 2728 306 2450 153 
Q 2172 0 1784 0 
Q 1141 0 747 490 
Q 353 981 353 1791 
Q 353 2603 747 3093 
Q 1141 3584 1784 3584 
Q 2172 3584 2450 3431 
Q 2728 3278 2906 2969 
L 2906 3500 
L 3481 3500 
L 3481 434 
z
" transform="scale(0.015625)"/>
       <path id="DejaVuSans-5b" d="M 550 4863 
L 1875 4863 
L 1875 4416 
L 1125 4416 
L 1125 -397 
L 1875 -397 
L 1875 -844 
L 550 -844 
L 550 4863 
z
" transform="scale(0.015625)"/>
       <path id="DejaVuSans-47" d="M 3809 666 
L 3809 1919 
L 2778 1919 
L 2778 2438 
L 4434 2438 
L 4434 434 
Q 4069 175 3628 42 
Q 3188 -91 2688 -91 
Q 1594 -91 976 548 
Q 359 1188 359 2328 
Q 359 3472 976 4111 
Q 1594 4750 2688 4750 
Q 3144 4750 3555 4637 
Q 3966 4525 4313 4306 
L 4313 3634 
Q 3963 3931 3569 4081 
Q 3175 4231 2741 4231 
Q 1884 4231 1454 3753 
Q 1025 3275 1025 2328 
Q 1025 1384 1454 906 
Q 1884 428 2741 428 
Q 3075 428 3337 486 
Q 3600 544 3809 666 
z
" transform="scale(0.015625)"/>
       <path id="DejaVuSans-74" d="M 1172 4494 
L 1172 3500 
L 2356 3500 
L 2356 3053 
L 1172 3053 
L 1172 1153 
Q 1172 725 1289 603 
Q 1406 481 1766 481 
L 2356 481 
L 2356 0 
L 1766 0 
Q 1100 0 847 248 
Q 594 497 594 1153 
L 594 3053 
L 172 3053 
L 172 3500 
L 594 3500 
L 594 4494 
L 1172 4494 
z
" transform="scale(0.015625)"/>
       <path id="DejaVuSans-5d" d="M 1947 4863 
L 1947 -844 
L 622 -844 
L 622 -397 
L 1369 -397 
L 1369 4416 
L 622 4416 
L 622 4863 
L 1947 4863 
z
" transform="scale(0.015625)"/>
      </defs>
      <use xlink:href="#DejaVuSans-4d"/>
      <use xlink:href="#DejaVuSans-61" x="86.279297"/>
      <use xlink:href="#DejaVuSans-73" x="147.558594"/>
      <use xlink:href="#DejaVuSans-73" x="199.658203"/>
      <use xlink:href="#DejaVuSans-20" x="251.757812"/>
      <use xlink:href="#DejaVuSans-63" x="283.544922"/>
      <use xlink:href="#DejaVuSans-68" x="338.525391"/>
      <use xlink:href="#DejaVuSans-61" x="401.904297"/>
      <use xlink:href="#DejaVuSans-6e" x="463.183594"/>
      <use xlink:href="#DejaVuSans-67" x="526.5625"/>
      <use xlink:href="#DejaVuSans-65" x="590.039062"/>
      <use xlink:href="#DejaVuSans-20" x="651.5625"/>
      <use xlink:href="#DejaVuSans-5b" x="683.349609"/>
      <use xlink:href="#DejaVuSans-47" x="722.363281"/>
      <use xlink:href="#DejaVuSans-74" x="799.853516"/>
      <use xlink:href="#DejaVuSans-5d" x="839.0625"/>
     </g>
    </g>
   </g>
   <g id="line2d_17">
    <path d="M 61.707813 49.716069 
L 69.416403 49.464017 
L 77.825469 51.422341 
L 86.93501 51.62385 
L 99.548609 50.586087 
L 105.855409 50.090738 
L 120.571274 49.330308 
L 129.680815 50.466662 
L 145.097997 51.436988 
L 153.507063 49.75753 
L 169.623879 51.101132 
L 171.726145 51.190444 
L 186.44201 51.354403 
L 188.544277 51.447117 
L 196.953343 51.906855 
L 205.362409 51.873713 
L 212.370524 51.405538 
L 220.77959 52.517505 
L 238.298198 50.355856 
L 246.006788 50.600131 
L 254.415854 49.454366 
L 263.525395 50.341179 
L 271.934461 50.264889 
L 280.343527 49.390608 
L 288.752593 49.398704 
L 296.461184 48.716736 
L 304.87025 50.046499 
L 313.279316 48.671646 
L 321.688382 49.738983 
L 330.097448 48.187377 
L 342.711047 49.60655 
L 348.31653 50.045071 
L 366.536453 50.318796 
L 372.142778 50.359214 
L 380.551843 48.458555 
L 391.063176 48.350221 
L 398.070451 48.102816 
L 406.479517 48.720894 
L 414.188107 48.403859 
L 414.188107 48.403859 
" clip-path="url(#pc70b39be37)" style="fill: none; stroke: #d0d1e6; stroke-width: 1.5; stroke-linecap: square"/>
   </g>
   <g id="line2d_18">
    <path d="M 171.02567 51.177554 
L 175.230203 51.272266 
L 190.646543 51.373176 
L 196.953343 51.20742 
L 206.7642 51.496696 
L 212.370524 51.881173 
L 220.77959 50.673198 
L 238.298198 52.555926 
L 246.006788 52.320635 
L 254.415854 53.559436 
L 262.123604 53.11563 
L 263.525395 53.136711 
L 271.934461 53.7895 
L 280.343527 55.200387 
L 288.752593 55.714271 
L 297.161659 56.95447 
L 304.87025 56.485732 
L 313.279316 58.591903 
L 321.688382 58.118663 
L 330.097448 59.958406 
L 341.309255 59.197468 
L 348.31653 59.025186 
L 363.733712 59.368413 
L 372.843253 59.382105 
L 380.551843 60.873305 
L 388.960909 60.929367 
L 394.566393 61.489386 
L 398.770926 62.135109 
L 406.479517 62.938181 
L 414.188107 64.137901 
L 414.188107 64.137901 
" clip-path="url(#pc70b39be37)" style="fill: none; stroke: #67a9cf; stroke-width: 1.5; stroke-linecap: square"/>
   </g>
   <g id="line2d_19">
    <path d="M 171.02567 51.177554 
L 175.230203 51.349608 
L 197.654659 51.955853 
L 206.7642 52.099221 
L 214.472791 52.085157 
L 249.510005 51.781978 
L 258.620387 51.986768 
L 262.82492 52.252421 
L 300.665717 54.944461 
L 314.680266 56.192066 
L 323.089332 56.724291 
L 336.404247 57.249527 
L 363.733712 58.489449 
L 373.543728 58.388384 
L 386.157327 58.17418 
L 391.763651 58.314542 
L 394.566393 58.491936 
L 398.770926 59.11918 
L 407.881308 60.642011 
L 414.188107 61.364207 
L 414.188107 61.364207 
" clip-path="url(#pc70b39be37)" style="fill: none; stroke: #02818a; stroke-width: 1.5; stroke-linecap: square"/>
   </g>
   <g id="patch_3">
    <path d="M 61.707813 186.84327 
L 61.707813 22.318125 
" style="fill: none; stroke: #000000; stroke-width: 0.8; stroke-linejoin: miter; stroke-linecap: square"/>
   </g>
   <g id="patch_4">
    <path d="M 414.888583 186.84327 
L 414.888583 22.318125 
" style="fill: none; stroke: #000000; stroke-width: 0.8; stroke-linejoin: miter; stroke-linecap: square"/>
   </g>
   <g id="patch_5">
    <path d="M 61.707813 186.84327 
L 414.888583 186.84327 
" style="fill: none; stroke: #000000; stroke-width: 0.8; stroke-linejoin: miter; stroke-linecap: square"/>
   </g>
   <g id="patch_6">
    <path d="M 61.707813 22.318125 
L 414.888583 22.318125 
" style="fill: none; stroke: #000000; stroke-width: 0.8; stroke-linejoin: miter; stroke-linecap: square"/>
   </g>
   <g id="text_19">
    <!-- Antarctic Peninsula -->
    <g transform="translate(180.870698 16.318125) scale(0.12 -0.12)">
     <defs>
      <path id="DejaVuSans-41" d="M 2188 4044 
L 1331 1722 
L 3047 1722 
L 2188 4044 
z
M 1831 4666 
L 2547 4666 
L 4325 0 
L 3669 0 
L 3244 1197 
L 1141 1197 
L 716 0 
L 50 0 
L 1831 4666 
z
" transform="scale(0.015625)"/>
      <path id="DejaVuSans-69" d="M 603 3500 
L 1178 3500 
L 1178 0 
L 603 0 
L 603 3500 
z
M 603 4863 
L 1178 4863 
L 1178 4134 
L 603 4134 
L 603 4863 
z
" transform="scale(0.015625)"/>
      <path id="DejaVuSans-50" d="M 1259 4147 
L 1259 2394 
L 2053 2394 
Q 2494 2394 2734 2622 
Q 2975 2850 2975 3272 
Q 2975 3691 2734 3919 
Q 2494 4147 2053 4147 
L 1259 4147 
z
M 628 4666 
L 2053 4666 
Q 2838 4666 3239 4311 
Q 3641 3956 3641 3272 
Q 3641 2581 3239 2228 
Q 2838 1875 2053 1875 
L 1259 1875 
L 1259 0 
L 628 0 
L 628 4666 
z
" transform="scale(0.015625)"/>
      <path id="DejaVuSans-75" d="M 544 1381 
L 544 3500 
L 1119 3500 
L 1119 1403 
Q 1119 906 1312 657 
Q 1506 409 1894 409 
Q 2359 409 2629 706 
Q 2900 1003 2900 1516 
L 2900 3500 
L 3475 3500 
L 3475 0 
L 2900 0 
L 2900 538 
Q 2691 219 2414 64 
Q 2138 -91 1772 -91 
Q 1169 -91 856 284 
Q 544 659 544 1381 
z
M 1991 3584 
L 1991 3584 
z
" transform="scale(0.015625)"/>
      <path id="DejaVuSans-6c" d="M 603 4863 
L 1178 4863 
L 1178 0 
L 603 0 
L 603 4863 
z
" transform="scale(0.015625)"/>
     </defs>
     <use xlink:href="#DejaVuSans-41"/>
     <use xlink:href="#DejaVuSans-6e" x="68.408203"/>
     <use xlink:href="#DejaVuSans-74" x="131.787109"/>
     <use xlink:href="#DejaVuSans-61" x="170.996094"/>
     <use xlink:href="#DejaVuSans-72" x="232.275391"/>
     <use xlink:href="#DejaVuSans-63" x="271.138672"/>
     <use xlink:href="#DejaVuSans-74" x="326.119141"/>
     <use xlink:href="#DejaVuSans-69" x="365.328125"/>
     <use xlink:href="#DejaVuSans-63" x="393.111328"/>
     <use xlink:href="#DejaVuSans-20" x="448.091797"/>
     <use xlink:href="#DejaVuSans-50" x="479.878906"/>
     <use xlink:href="#DejaVuSans-65" x="536.556641"/>
     <use xlink:href="#DejaVuSans-6e" x="598.080078"/>
     <use xlink:href="#DejaVuSans-69" x="661.458984"/>
     <use xlink:href="#DejaVuSans-6e" x="689.242188"/>
     <use xlink:href="#DejaVuSans-73" x="752.621094"/>
     <use xlink:href="#DejaVuSans-75" x="804.720703"/>
     <use xlink:href="#DejaVuSans-6c" x="868.099609"/>
     <use xlink:href="#DejaVuSans-61" x="895.882812"/>
    </g>
   </g>
   <g id="legend_1">
    <g id="patch_7">
     <path d="M 421.888583 128.097885 
L 503.19952 128.097885 
Q 505.19952 128.097885 505.19952 126.097885 
L 505.19952 83.06351 
Q 505.19952 81.06351 503.19952 81.06351 
L 421.888583 81.06351 
Q 419.888583 81.06351 419.888583 83.06351 
L 419.888583 126.097885 
Q 419.888583 128.097885 421.888583 128.097885 
z
" style="fill: #ffffff; opacity: 0.8; stroke: #cccccc; stroke-linejoin: miter"/>
    </g>
    <g id="line2d_20">
     <path d="M 423.888583 89.161948 
L 433.888583 89.161948 
L 443.888583 89.161948 
" style="fill: none; stroke: #d0d1e6; stroke-width: 1.5; stroke-linecap: square"/>
    </g>
    <g id="text_20">
     <!-- Surface -->
     <g transform="translate(451.888583 92.661948) scale(0.1 -0.1)">
      <defs>
       <path id="DejaVuSans-53" d="M 3425 4513 
L 3425 3897 
Q 3066 4069 2747 4153 
Q 2428 4238 2131 4238 
Q 1616 4238 1336 4038 
Q 1056 3838 1056 3469 
Q 1056 3159 1242 3001 
Q 1428 2844 1947 2747 
L 2328 2669 
Q 3034 2534 3370 2195 
Q 3706 1856 3706 1288 
Q 3706 609 3251 259 
Q 2797 -91 1919 -91 
Q 1588 -91 1214 -16 
Q 841 59 441 206 
L 441 856 
Q 825 641 1194 531 
Q 1563 422 1919 422 
Q 2459 422 2753 634 
Q 3047 847 3047 1241 
Q 3047 1584 2836 1778 
Q 2625 1972 2144 2069 
L 1759 2144 
Q 1053 2284 737 2584 
Q 422 2884 422 3419 
Q 422 4038 858 4394 
Q 1294 4750 2059 4750 
Q 2388 4750 2728 4690 
Q 3069 4631 3425 4513 
z
" transform="scale(0.015625)"/>
       <path id="DejaVuSans-66" d="M 2375 4863 
L 2375 4384 
L 1825 4384 
Q 1516 4384 1395 4259 
Q 1275 4134 1275 3809 
L 1275 3500 
L 2222 3500 
L 2222 3053 
L 1275 3053 
L 1275 0 
L 697 0 
L 697 3053 
L 147 3053 
L 147 3500 
L 697 3500 
L 697 3744 
Q 697 4328 969 4595 
Q 1241 4863 1831 4863 
L 2375 4863 
z
" transform="scale(0.015625)"/>
      </defs>
      <use xlink:href="#DejaVuSans-53"/>
      <use xlink:href="#DejaVuSans-75" x="63.476562"/>
      <use xlink:href="#DejaVuSans-72" x="126.855469"/>
      <use xlink:href="#DejaVuSans-66" x="167.96875"/>
      <use xlink:href="#DejaVuSans-61" x="203.173828"/>
      <use xlink:href="#DejaVuSans-63" x="264.453125"/>
      <use xlink:href="#DejaVuSans-65" x="319.433594"/>
     </g>
    </g>
    <g id="line2d_21">
     <path d="M 423.888583 103.840073 
L 433.888583 103.840073 
L 443.888583 103.840073 
" style="fill: none; stroke: #67a9cf; stroke-width: 1.5; stroke-linecap: square"/>
    </g>
    <g id="text_21">
     <!-- Dynamics -->
     <g transform="translate(451.888583 107.340073) scale(0.1 -0.1)">
      <defs>
       <path id="DejaVuSans-44" d="M 1259 4147 
L 1259 519 
L 2022 519 
Q 2988 519 3436 956 
Q 3884 1394 3884 2338 
Q 3884 3275 3436 3711 
Q 2988 4147 2022 4147 
L 1259 4147 
z
M 628 4666 
L 1925 4666 
Q 3281 4666 3915 4102 
Q 4550 3538 4550 2338 
Q 4550 1131 3912 565 
Q 3275 0 1925 0 
L 628 0 
L 628 4666 
z
" transform="scale(0.015625)"/>
       <path id="DejaVuSans-79" d="M 2059 -325 
Q 1816 -950 1584 -1140 
Q 1353 -1331 966 -1331 
L 506 -1331 
L 506 -850 
L 844 -850 
Q 1081 -850 1212 -737 
Q 1344 -625 1503 -206 
L 1606 56 
L 191 3500 
L 800 3500 
L 1894 763 
L 2988 3500 
L 3597 3500 
L 2059 -325 
z
" transform="scale(0.015625)"/>
       <path id="DejaVuSans-6d" d="M 3328 2828 
Q 3544 3216 3844 3400 
Q 4144 3584 4550 3584 
Q 5097 3584 5394 3201 
Q 5691 2819 5691 2113 
L 5691 0 
L 5113 0 
L 5113 2094 
Q 5113 2597 4934 2840 
Q 4756 3084 4391 3084 
Q 3944 3084 3684 2787 
Q 3425 2491 3425 1978 
L 3425 0 
L 2847 0 
L 2847 2094 
Q 2847 2600 2669 2842 
Q 2491 3084 2119 3084 
Q 1678 3084 1418 2786 
Q 1159 2488 1159 1978 
L 1159 0 
L 581 0 
L 581 3500 
L 1159 3500 
L 1159 2956 
Q 1356 3278 1631 3431 
Q 1906 3584 2284 3584 
Q 2666 3584 2933 3390 
Q 3200 3197 3328 2828 
z
" transform="scale(0.015625)"/>
      </defs>
      <use xlink:href="#DejaVuSans-44"/>
      <use xlink:href="#DejaVuSans-79" x="77.001953"/>
      <use xlink:href="#DejaVuSans-6e" x="136.181641"/>
      <use xlink:href="#DejaVuSans-61" x="199.560547"/>
      <use xlink:href="#DejaVuSans-6d" x="260.839844"/>
      <use xlink:href="#DejaVuSans-69" x="358.251953"/>
      <use xlink:href="#DejaVuSans-63" x="386.035156"/>
      <use xlink:href="#DejaVuSans-73" x="441.015625"/>
     </g>
    </g>
    <g id="line2d_22">
     <path d="M 423.888583 118.518198 
L 433.888583 118.518198 
L 443.888583 118.518198 
" style="fill: none; stroke: #02818a; stroke-width: 1.5; stroke-linecap: square"/>
    </g>
    <g id="text_22">
     <!-- Total -->
     <g transform="translate(451.888583 122.018198) scale(0.1 -0.1)">
      <defs>
       <path id="DejaVuSans-54" d="M -19 4666 
L 3928 4666 
L 3928 4134 
L 2272 4134 
L 2272 0 
L 1638 0 
L 1638 4134 
L -19 4134 
L -19 4666 
z
" transform="scale(0.015625)"/>
       <path id="DejaVuSans-6f" d="M 1959 3097 
Q 1497 3097 1228 2736 
Q 959 2375 959 1747 
Q 959 1119 1226 758 
Q 1494 397 1959 397 
Q 2419 397 2687 759 
Q 2956 1122 2956 1747 
Q 2956 2369 2687 2733 
Q 2419 3097 1959 3097 
z
M 1959 3584 
Q 2709 3584 3137 3096 
Q 3566 2609 3566 1747 
Q 3566 888 3137 398 
Q 2709 -91 1959 -91 
Q 1206 -91 779 398 
Q 353 888 353 1747 
Q 353 2609 779 3096 
Q 1206 3584 1959 3584 
z
" transform="scale(0.015625)"/>
      </defs>
      <use xlink:href="#DejaVuSans-54"/>
      <use xlink:href="#DejaVuSans-6f" x="44.083984"/>
      <use xlink:href="#DejaVuSans-74" x="105.265625"/>
      <use xlink:href="#DejaVuSans-61" x="144.474609"/>
      <use xlink:href="#DejaVuSans-6c" x="205.753906"/>
     </g>
    </g>
   </g>
  </g>
 </g>
 <defs>
  <clipPath id="pc70b39be37">
   <rect x="61.707813" y="22.318125" width="353.18077" height="164.525145"/>
  </clipPath>
 </defs>
</svg>
