<?xml version="1.0" encoding="utf-8" standalone="no"?>
<!DOCTYPE svg PUBLIC "-//W3C//DTD SVG 1.1//EN"
  "http://www.w3.org/Graphics/SVG/1.1/DTD/svg11.dtd">
<svg xmlns:xlink="http://www.w3.org/1999/xlink" width="512.39952pt" height="224.39952pt" viewBox="0 0 512.39952 224.39952" xmlns="http://www.w3.org/2000/svg" version="1.1">
 <metadata>
  <rdf:RDF xmlns:dc="http://purl.org/dc/elements/1.1/" xmlns:cc="http://creativecommons.org/ns#" xmlns:rdf="http://www.w3.org/1999/02/22-rdf-syntax-ns#">
   <cc:Work>
    <dc:type rdf:resource="http://purl.org/dc/dcmitype/StillImage"/>
    <dc:date>2023-02-06T11:00:52.956867</dc:date>
    <dc:format>image/svg+xml</dc:format>
    <dc:creator>
     <cc:Agent>
      <dc:title>Matplotlib v3.6.2, https://matplotlib.org/</dc:title>
     </cc:Agent>
    </dc:creator>
   </cc:Work>
  </rdf:RDF>
 </metadata>
 <defs>
  <style type="text/css">*{stroke-linejoin: round; stroke-linecap: butt}</style>
 </defs>
 <g id="figure_1">
  <g id="patch_1">
   <path d="M 0 224.39952 
L 512.39952 224.39952 
L 512.39952 0 
L 0 0 
z
" style="fill: #ffffff"/>
  </g>
  <g id="axes_1">
   <g id="patch_2">
    <path d="M 61.707813 186.84327 
L 414.888583 186.84327 
L 414.888583 22.318125 
L 61.707813 22.318125 
z
" style="fill: #ffffff"/>
   </g>
   <g id="PolyCollection_1">
    <path d="M 61.707813 49.699362 
L 61.707813 50.326624 
L 62.408288 50.600634 
L 63.109604 51.004555 
L 63.810079 51.378249 
L 64.510554 51.736297 
L 65.21187 52.084345 
L 65.912345 52.425291 
L 66.612821 52.760856 
L 67.314137 53.092159 
L 68.014612 53.41998 
L 68.715087 53.744886 
L 69.416403 54.067304 
L 70.116878 53.919637 
L 70.817354 53.755933 
L 71.51867 53.591433 
L 72.219145 53.426196 
L 72.91962 53.260275 
L 73.620936 53.093717 
L 74.321411 52.926564 
L 75.021887 52.758852 
L 75.723203 52.590616 
L 76.423678 52.421885 
L 77.124153 52.252687 
L 77.825469 52.083048 
L 78.525944 52.110401 
L 79.22642 52.132735 
L 79.927736 52.154823 
L 80.628211 52.176674 
L 81.328686 52.198298 
L 82.030002 52.219703 
L 82.730477 52.240895 
L 83.430953 52.261884 
L 84.132269 52.282675 
L 84.832744 52.303276 
L 85.533219 52.323692 
L 86.234535 52.343929 
L 86.93501 52.369204 
L 87.635486 52.393206 
L 88.336802 52.417066 
L 89.037277 52.440788 
L 89.737752 52.464376 
L 90.439068 52.487833 
L 91.139543 52.511162 
L 91.840019 52.534368 
L 92.541335 52.557452 
L 93.24181 52.580418 
L 93.942285 52.603269 
L 94.643601 52.626008 
L 95.344076 52.736084 
L 96.044552 52.842621 
L 96.745868 52.949098 
L 97.446343 53.055518 
L 98.146818 53.161879 
L 98.848134 53.268184 
L 99.548609 53.374434 
L 100.249084 53.480629 
L 100.950401 53.58677 
L 101.650876 53.692858 
L 102.351351 53.798894 
L 103.052667 53.904878 
L 103.753142 53.786661 
L 104.453617 53.673006 
L 105.154934 53.559246 
L 105.855409 53.445382 
L 106.555884 53.331416 
L 107.2572 53.217352 
L 107.957675 53.10319 
L 108.65815 52.988933 
L 109.359467 52.874582 
L 110.059942 52.760141 
L 110.760417 52.64561 
L 111.461733 52.530991 
L 112.162208 52.435366 
L 112.862683 52.339844 
L 113.564 52.244237 
L 114.264475 52.148546 
L 114.96495 52.052774 
L 115.666266 51.956921 
L 116.366741 51.860988 
L 117.067216 51.764978 
L 117.768532 51.668892 
L 118.469008 51.572731 
L 119.169483 51.476496 
L 119.870799 51.380189 
L 120.571274 51.551522 
L 121.271749 51.718549 
L 121.973065 51.885546 
L 122.673541 52.052513 
L 123.374016 52.21945 
L 124.075332 52.386359 
L 124.775807 52.553238 
L 125.476282 52.720089 
L 126.177598 52.886912 
L 126.878074 53.053707 
L 127.578549 53.220474 
L 128.279865 53.387214 
L 128.98034 53.484782 
L 129.680815 53.583883 
L 130.382131 53.682945 
L 131.082607 53.781971 
L 131.783082 53.880959 
L 132.484398 53.979911 
L 133.184873 54.078826 
L 133.885348 54.177705 
L 134.586664 54.276549 
L 135.28714 54.375358 
L 135.987615 54.474133 
L 136.688931 54.572873 
L 137.389406 54.454791 
L 138.089881 54.339761 
L 138.791197 54.224672 
L 139.491673 54.109524 
L 140.192148 53.994319 
L 140.893464 53.879056 
L 141.593939 53.763738 
L 142.294414 53.648364 
L 142.99573 53.532936 
L 143.696206 53.417454 
L 144.396681 53.301919 
L 145.097997 53.186331 
L 145.798472 53.29304 
L 146.498947 53.396498 
L 147.200263 53.499929 
L 147.900739 53.603334 
L 148.601214 53.706714 
L 149.30253 53.810068 
L 150.003005 53.913398 
L 150.70348 54.016702 
L 151.404796 54.119981 
L 152.105271 54.223236 
L 152.805747 54.326466 
L 153.507063 54.429673 
L 154.207538 54.634833 
L 154.908013 54.838578 
L 155.609329 55.042306 
L 156.309804 55.246019 
L 157.01028 55.449716 
L 157.711596 55.653397 
L 158.412071 55.857063 
L 159.112546 56.060713 
L 159.813862 56.264349 
L 160.514337 56.467969 
L 161.214813 56.671573 
L 161.916129 56.875163 
L 162.616604 56.835796 
L 163.317079 56.799604 
L 164.018395 56.76338 
L 164.71887 56.727123 
L 165.419346 56.690834 
L 166.120662 56.654513 
L 166.821137 56.61816 
L 167.521612 56.581776 
L 168.222928 56.545361 
L 168.923403 56.508915 
L 169.623879 56.472439 
L 170.325195 56.435933 
L 171.02567 56.296605 
L 171.726145 56.159375 
L 172.427461 56.022101 
L 173.127936 55.884783 
L 173.828412 55.747422 
L 174.529728 55.610018 
L 175.230203 55.472572 
L 175.930678 55.335084 
L 176.631994 55.197555 
L 177.332469 55.059985 
L 178.032945 54.922374 
L 178.734261 54.784724 
L 179.434736 54.717458 
L 180.135211 54.64844 
L 180.836527 54.579394 
L 181.537002 54.510321 
L 182.237478 54.441221 
L 182.938794 54.372094 
L 183.639269 54.302941 
L 184.339744 54.233761 
L 185.04106 54.164556 
L 185.741535 54.095324 
L 186.44201 54.026068 
L 187.143327 53.956785 
L 187.843802 53.979289 
L 188.544277 54.001024 
L 189.245593 54.022738 
L 189.946068 54.044431 
L 190.646543 54.066105 
L 191.34786 54.087758 
L 192.048335 54.10939 
L 192.74881 54.131003 
L 193.450126 54.152597 
L 194.150601 54.17417 
L 194.851076 54.195724 
L 195.552393 54.217259 
L 196.252868 54.290404 
L 196.953343 54.363222 
L 197.654659 54.436021 
L 198.355134 54.508804 
L 199.055609 54.581569 
L 199.756926 54.654317 
L 200.457401 54.727049 
L 201.157876 54.799763 
L 201.859192 54.87246 
L 202.559667 54.945141 
L 203.260142 55.017806 
L 203.961458 55.090454 
L 204.661934 55.269047 
L 205.362409 55.446212 
L 206.063725 55.623367 
L 206.7642 55.800512 
L 207.464675 55.977646 
L 208.165991 56.154769 
L 208.866467 56.331883 
L 209.566942 56.508986 
L 210.268258 56.686079 
L 210.968733 56.863162 
L 211.669208 57.040235 
L 212.370524 57.217298 
L 213.071 57.129068 
L 213.771475 57.043655 
L 214.472791 56.95822 
L 215.173266 56.872763 
L 215.873741 56.787285 
L 216.575057 56.701785 
L 217.275533 56.616264 
L 217.976008 56.530722 
L 218.677324 56.44516 
L 219.377799 56.359576 
L 220.078274 56.273972 
L 220.77959 56.188348 
L 221.480066 56.150875 
L 222.180541 56.112999 
L 222.881857 56.075105 
L 223.582332 56.037193 
L 224.282807 55.999263 
L 224.984123 55.961315 
L 225.684599 55.92335 
L 226.385074 55.885367 
L 227.08639 55.847366 
L 227.786865 55.809348 
L 228.48734 55.771313 
L 229.188656 55.733261 
L 229.889132 55.737085 
L 230.589607 55.739611 
L 231.290923 55.742125 
L 231.991398 55.744627 
L 232.691873 55.747118 
L 233.393189 55.749597 
L 234.093665 55.752065 
L 234.79414 55.754521 
L 235.495456 55.756966 
L 236.195931 55.7594 
L 236.896406 55.761823 
L 237.597722 55.764234 
L 238.298198 55.65806 
L 238.998673 55.553423 
L 239.699989 55.44877 
L 240.400464 55.3441 
L 241.100939 55.239413 
L 241.802255 55.134709 
L 242.50273 55.029989 
L 243.203206 54.925252 
L 243.904522 54.820499 
L 244.604997 54.71573 
L 245.305472 54.610944 
L 246.006788 54.506143 
L 246.707263 54.626165 
L 247.407739 54.744162 
L 248.109055 54.862151 
L 248.80953 54.980131 
L 249.510005 55.098102 
L 250.211321 55.216065 
L 250.911796 55.33402 
L 251.612272 55.451966 
L 252.313588 55.569904 
L 253.014063 55.687833 
L 253.714538 55.805755 
L 254.415854 55.923668 
L 255.116329 55.835841 
L 255.816805 55.75033 
L 256.518121 55.664801 
L 257.218596 55.579257 
L 257.919071 55.493696 
L 258.620387 55.408119 
L 259.320862 55.322527 
L 260.021338 55.236918 
L 260.722654 55.151294 
L 261.423129 55.065654 
L 262.123604 54.979999 
L 262.82492 54.894328 
L 263.525395 54.896745 
L 264.225871 54.898111 
L 264.927187 54.899466 
L 265.627662 54.900809 
L 266.328137 54.902141 
L 267.029453 54.903462 
L 267.729928 54.904772 
L 268.430404 54.906071 
L 269.13172 54.907358 
L 269.832195 54.908635 
L 270.53267 54.909901 
L 271.233986 54.911155 
L 271.934461 54.889644 
L 272.634937 54.867974 
L 273.336253 54.846293 
L 274.036728 54.824603 
L 274.737203 54.802903 
L 275.438519 54.781192 
L 276.138994 54.759471 
L 276.839469 54.737741 
L 277.540786 54.716 
L 278.241261 54.694249 
L 278.941736 54.672489 
L 279.643052 54.650719 
L 280.343527 54.423635 
L 281.044002 54.198618 
L 281.745319 53.973584 
L 282.445794 53.748532 
L 283.146269 53.523464 
L 283.847585 53.298379 
L 284.54806 53.073277 
L 285.248535 52.848158 
L 285.949852 52.623023 
L 286.650327 52.397872 
L 287.350802 52.172704 
L 288.052118 51.94752 
L 288.752593 52.056767 
L 289.453068 52.163054 
L 290.154385 52.269334 
L 290.85486 52.375607 
L 291.555335 52.481874 
L 292.256651 52.588134 
L 292.957126 52.694388 
L 293.657601 52.800636 
L 294.358917 52.906877 
L 295.059393 53.013112 
L 295.759868 53.119341 
L 296.461184 53.225563 
L 297.161659 53.160349 
L 297.862134 53.096599 
L 298.56345 53.032839 
L 299.263926 52.969069 
L 299.964401 52.905288 
L 300.665717 52.841498 
L 301.366192 52.777697 
L 302.066667 52.713886 
L 302.767983 52.650065 
L 303.468459 52.586234 
L 304.168934 52.522393 
L 304.87025 52.458543 
L 305.570725 52.447334 
L 306.2712 52.435786 
L 306.972516 52.424229 
L 307.672992 52.412664 
L 308.373467 52.401089 
L 309.074783 52.389506 
L 309.775258 52.377914 
L 310.475733 52.366314 
L 311.177049 52.354705 
L 311.877525 52.343088 
L 312.578 52.331462 
L 313.279316 52.319828 
L 313.979791 52.473946 
L 314.680266 52.626987 
L 315.381582 52.780023 
L 316.082058 52.933053 
L 316.782533 53.086077 
L 317.483849 53.239095 
L 318.184324 53.392108 
L 318.884799 53.545116 
L 319.586115 53.698117 
L 320.286591 53.851114 
L 320.987066 54.004104 
L 321.688382 54.15709 
L 322.388857 54.324175 
L 323.089332 54.490806 
L 323.790648 54.657433 
L 324.491124 54.824055 
L 325.191599 54.990673 
L 325.892915 55.157286 
L 326.59339 55.323895 
L 327.293865 55.4905 
L 327.995181 55.6571 
L 328.695656 55.823695 
L 329.396132 55.990287 
L 330.097448 56.156874 
L 330.797923 56.219585 
L 331.498398 56.283285 
L 332.199714 56.346978 
L 332.900189 56.410664 
L 333.600665 56.474344 
L 334.301981 56.538018 
L 335.002456 56.601685 
L 335.702931 56.665346 
L 336.404247 56.729 
L 337.104722 56.792649 
L 337.805198 56.85629 
L 338.506514 56.919926 
L 339.206989 56.986514 
L 339.907464 57.052814 
L 340.60878 57.119108 
L 341.309255 57.185397 
L 342.009731 57.25168 
L 342.711047 57.317958 
L 343.411522 57.38423 
L 344.111997 57.450497 
L 344.813313 57.516758 
L 345.513788 57.583014 
L 346.214264 57.649264 
L 346.91558 57.715509 
L 347.616055 57.844042 
L 348.31653 57.972407 
L 349.017846 58.100767 
L 349.718321 58.229121 
L 350.418797 58.357471 
L 351.120113 58.485816 
L 351.820588 58.614155 
L 352.521063 58.74249 
L 353.222379 58.87082 
L 353.922854 58.999145 
L 354.62333 59.127465 
L 355.324646 59.25578 
L 356.025121 59.141988 
L 356.725596 59.029344 
L 357.426912 58.916693 
L 358.127387 58.804035 
L 358.827863 58.691369 
L 359.529179 58.578696 
L 360.229654 58.466015 
L 360.930129 58.353327 
L 361.631445 58.240632 
L 362.33192 58.127929 
L 363.032395 58.01522 
L 363.733712 57.902503 
L 364.434187 57.90601 
L 365.134662 57.908739 
L 365.835978 57.911463 
L 366.536453 57.914181 
L 367.236928 57.916894 
L 367.938245 57.919602 
L 368.63872 57.922304 
L 369.339195 57.925001 
L 370.040511 57.927693 
L 370.740986 57.93038 
L 371.441461 57.933061 
L 372.142778 57.935737 
L 372.843253 57.823125 
L 373.543728 57.711772 
L 374.245044 57.600411 
L 374.945519 57.489042 
L 375.645994 57.377665 
L 376.347311 57.26628 
L 377.047786 57.154887 
L 377.748261 57.043485 
L 378.449577 56.932076 
L 379.150052 56.820659 
L 379.850527 56.709234 
L 380.551843 56.597801 
L 381.252319 56.63796 
L 381.952794 56.676991 
L 382.65411 56.716017 
L 383.354585 56.755038 
L 384.05506 56.794054 
L 384.756376 56.833064 
L 385.456852 56.87207 
L 386.157327 56.91107 
L 386.858643 56.950065 
L 387.559118 56.989056 
L 388.259593 57.028041 
L 388.960909 57.067021 
L 389.661385 57.152631 
L 390.36186 57.237657 
L 391.063176 57.322679 
L 391.763651 57.407697 
L 392.464126 57.492711 
L 393.165442 57.577722 
L 393.865918 57.662728 
L 394.566393 57.74773 
L 395.267709 57.832729 
L 395.968184 57.917724 
L 396.668659 58.002715 
L 397.369975 58.087702 
L 398.070451 57.928559 
L 398.770926 57.770838 
L 399.472242 57.613111 
L 400.172717 57.455377 
L 400.873192 57.297636 
L 401.574508 57.139888 
L 402.274984 56.982134 
L 402.975459 56.824373 
L 403.676775 56.666606 
L 404.37725 56.508832 
L 405.077725 56.351052 
L 405.779041 56.193265 
L 406.479517 56.022603 
L 407.179992 55.852385 
L 407.881308 55.68216 
L 408.581783 55.511927 
L 409.282258 55.341686 
L 409.983574 55.171438 
L 410.68405 55.001183 
L 411.384525 54.830921 
L 412.085841 54.660651 
L 412.786316 54.490374 
L 413.486791 54.32009 
L 414.188107 54.149798 
L 414.188107 43.926245 
L 414.188107 43.926245 
L 413.486791 44.108677 
L 412.786316 44.291117 
L 412.085841 44.473563 
L 411.384525 44.656017 
L 410.68405 44.838479 
L 409.983574 45.020947 
L 409.282258 45.203423 
L 408.581783 45.385907 
L 407.881308 45.568397 
L 407.179992 45.750896 
L 406.479517 45.933401 
L 405.779041 46.115463 
L 405.077725 46.284663 
L 404.37725 46.453869 
L 403.676775 46.623081 
L 402.975459 46.7923 
L 402.274984 46.961526 
L 401.574508 47.130758 
L 400.873192 47.299996 
L 400.172717 47.469242 
L 399.472242 47.638494 
L 398.770926 47.807752 
L 398.070451 47.977018 
L 397.369975 48.144861 
L 396.668659 48.068583 
L 395.968184 47.992308 
L 395.267709 47.916037 
L 394.566393 47.83977 
L 393.865918 47.763507 
L 393.165442 47.687247 
L 392.464126 47.610992 
L 391.763651 47.53474 
L 391.063176 47.458493 
L 390.36186 47.382249 
L 389.661385 47.306009 
L 388.960909 47.230354 
L 388.259593 47.20134 
L 387.559118 47.172331 
L 386.858643 47.143327 
L 386.157327 47.114328 
L 385.456852 47.085335 
L 384.756376 47.056346 
L 384.05506 47.027363 
L 383.354585 46.998384 
L 382.65411 46.969411 
L 381.952794 46.940443 
L 381.252319 46.91148 
L 380.551843 46.883645 
L 379.850527 47.007416 
L 379.150052 47.131194 
L 378.449577 47.254981 
L 377.748261 47.378776 
L 377.047786 47.502578 
L 376.347311 47.626389 
L 375.645994 47.750207 
L 374.945519 47.874034 
L 374.245044 47.997868 
L 373.543728 48.121711 
L 372.843253 48.245562 
L 372.142778 48.368154 
L 371.441461 48.375468 
L 370.740986 48.382787 
L 370.040511 48.390112 
L 369.339195 48.397442 
L 368.63872 48.404777 
L 367.938245 48.412117 
L 367.236928 48.419463 
L 366.536453 48.426814 
L 365.835978 48.43417 
L 365.134662 48.441532 
L 364.434187 48.448899 
L 363.733712 48.457044 
L 363.032395 48.581428 
L 362.33192 48.705819 
L 361.631445 48.830217 
L 360.930129 48.954622 
L 360.229654 49.079035 
L 359.529179 49.203455 
L 358.827863 49.327882 
L 358.127387 49.452317 
L 357.426912 49.576759 
L 356.725596 49.701208 
L 356.025121 49.825665 
L 355.324646 49.948974 
L 354.62333 49.830184 
L 353.922854 49.7114 
L 353.222379 49.59262 
L 352.521063 49.473845 
L 351.820588 49.355075 
L 351.120113 49.236311 
L 350.418797 49.117551 
L 349.718321 48.998796 
L 349.017846 48.880046 
L 348.31653 48.761301 
L 347.616055 48.642561 
L 346.91558 48.523989 
L 346.214264 48.467716 
L 345.513788 48.411449 
L 344.813313 48.355186 
L 344.111997 48.29893 
L 343.411522 48.242678 
L 342.711047 48.186433 
L 342.009731 48.130192 
L 341.309255 48.073958 
L 340.60878 48.017728 
L 339.907464 47.961505 
L 339.206989 47.905287 
L 338.506514 47.849357 
L 337.805198 47.796392 
L 337.104722 47.743433 
L 336.404247 47.690481 
L 335.702931 47.637535 
L 335.002456 47.584595 
L 334.301981 47.531661 
L 333.600665 47.478735 
L 332.900189 47.425814 
L 332.199714 47.3729 
L 331.498398 47.319992 
L 330.797923 47.267091 
L 330.097448 47.213202 
L 329.396132 47.055447 
L 328.695656 46.897695 
L 327.995181 46.739948 
L 327.293865 46.582206 
L 326.59339 46.424468 
L 325.892915 46.266734 
L 325.191599 46.109005 
L 324.491124 45.95128 
L 323.790648 45.79356 
L 323.089332 45.635844 
L 322.388857 45.478133 
L 321.688382 45.320875 
L 320.987066 45.177729 
L 320.286591 45.034588 
L 319.586115 44.891453 
L 318.884799 44.748323 
L 318.184324 44.605199 
L 317.483849 44.462081 
L 316.782533 44.318968 
L 316.082058 44.17586 
L 315.381582 44.032758 
L 314.680266 43.889662 
L 313.979791 43.746572 
L 313.279316 43.604559 
L 312.578 43.628316 
L 311.877525 43.652082 
L 311.177049 43.675856 
L 310.475733 43.699639 
L 309.775258 43.723431 
L 309.074783 43.747231 
L 308.373467 43.771039 
L 307.672992 43.794856 
L 306.972516 43.818682 
L 306.2712 43.842517 
L 305.570725 43.866361 
L 304.87025 43.890544 
L 304.168934 43.967389 
L 303.468459 44.044244 
L 302.767983 44.121109 
L 302.066667 44.197984 
L 301.366192 44.274869 
L 300.665717 44.351764 
L 299.964401 44.428669 
L 299.263926 44.505585 
L 298.56345 44.58251 
L 297.862134 44.659446 
L 297.161659 44.736392 
L 296.461184 44.811874 
L 295.759868 44.715932 
L 295.059393 44.619996 
L 294.358917 44.524066 
L 293.657601 44.428143 
L 292.957126 44.332226 
L 292.256651 44.236315 
L 291.555335 44.140411 
L 290.85486 44.044514 
L 290.154385 43.948622 
L 289.453068 43.852738 
L 288.752593 43.75686 
L 288.052118 43.663942 
L 287.350802 43.905489 
L 286.650327 44.147051 
L 285.949852 44.38863 
L 285.248535 44.630225 
L 284.54806 44.871837 
L 283.847585 45.113465 
L 283.146269 45.355111 
L 282.445794 45.596773 
L 281.745319 45.838451 
L 281.044002 46.080147 
L 280.343527 46.32186 
L 279.643052 46.561507 
L 278.941736 46.59586 
L 278.241261 46.630224 
L 277.540786 46.664597 
L 276.839469 46.698979 
L 276.138994 46.733372 
L 275.438519 46.767775 
L 274.737203 46.802188 
L 274.036728 46.836611 
L 273.336253 46.871044 
L 272.634937 46.905487 
L 271.934461 46.939941 
L 271.233986 46.974553 
L 270.53267 46.98642 
L 269.832195 46.998297 
L 269.13172 47.010186 
L 268.430404 47.022085 
L 267.729928 47.033996 
L 267.029453 47.045918 
L 266.328137 47.057851 
L 265.627662 47.069795 
L 264.927187 47.08175 
L 264.225871 47.093717 
L 263.525395 47.105695 
L 262.82492 47.118724 
L 262.123604 47.219872 
L 261.423129 47.321036 
L 260.722654 47.422215 
L 260.021338 47.52341 
L 259.320862 47.62462 
L 258.620387 47.725847 
L 257.919071 47.827089 
L 257.218596 47.928348 
L 256.518121 48.029622 
L 255.816805 48.130913 
L 255.116329 48.23222 
L 254.415854 48.331213 
L 253.714538 48.224483 
L 253.014063 48.117762 
L 252.313588 48.011049 
L 251.612272 47.904344 
L 250.911796 47.797648 
L 250.211321 47.69096 
L 249.510005 47.58428 
L 248.80953 47.477609 
L 248.109055 47.370947 
L 247.407739 47.264293 
L 246.707263 47.157647 
L 246.006788 47.053027 
L 245.305472 47.173262 
L 244.604997 47.293513 
L 243.904522 47.413781 
L 243.203206 47.534064 
L 242.50273 47.654364 
L 241.802255 47.77468 
L 241.100939 47.895013 
L 240.400464 48.015363 
L 239.699989 48.135729 
L 238.998673 48.256113 
L 238.298198 48.376513 
L 237.597722 48.495375 
L 236.896406 48.505674 
L 236.195931 48.515983 
L 235.495456 48.526304 
L 234.79414 48.536637 
L 234.093665 48.54698 
L 233.393189 48.557335 
L 232.691873 48.567701 
L 231.991398 48.578079 
L 231.290923 48.588469 
L 230.589607 48.59887 
L 229.889132 48.609283 
L 229.188656 48.620994 
L 228.48734 48.674616 
L 227.786865 48.728256 
L 227.08639 48.781912 
L 226.385074 48.835586 
L 225.684599 48.889277 
L 224.984123 48.942986 
L 224.282807 48.996712 
L 223.582332 49.050457 
L 222.881857 49.104219 
L 222.180541 49.157999 
L 221.480066 49.211798 
L 220.77959 49.265999 
L 220.078274 49.368392 
L 219.377799 49.470805 
L 218.677324 49.573239 
L 217.976008 49.675694 
L 217.275533 49.778169 
L 216.575057 49.880666 
L 215.873741 49.983183 
L 215.173266 50.085722 
L 214.472791 50.188283 
L 213.771475 50.290865 
L 213.071 50.393469 
L 212.370524 50.493256 
L 211.669208 50.32777 
L 210.968733 50.162295 
L 210.268258 49.996829 
L 209.566942 49.831374 
L 208.866467 49.665929 
L 208.165991 49.500494 
L 207.464675 49.335069 
L 206.7642 49.169654 
L 206.063725 49.00425 
L 205.362409 48.838857 
L 204.661934 48.673474 
L 203.961458 48.509519 
L 203.260142 48.451542 
L 202.559667 48.393581 
L 201.859192 48.335638 
L 201.157876 48.277711 
L 200.457401 48.2198 
L 199.756926 48.161907 
L 199.055609 48.10403 
L 198.355134 48.046171 
L 197.654659 47.988328 
L 196.953343 47.930504 
L 196.252868 47.872696 
L 195.552393 47.815217 
L 194.851076 47.809387 
L 194.150601 47.803576 
L 193.450126 47.797785 
L 192.74881 47.792013 
L 192.048335 47.786261 
L 191.34786 47.78053 
L 190.646543 47.774818 
L 189.946068 47.769126 
L 189.245593 47.763455 
L 188.544277 47.757805 
L 187.843802 47.752175 
L 187.143327 47.747313 
L 186.44201 47.834287 
L 185.741535 47.921287 
L 185.04106 48.008312 
L 184.339744 48.095362 
L 183.639269 48.182439 
L 182.938794 48.269542 
L 182.237478 48.356672 
L 181.537002 48.443828 
L 180.836527 48.531011 
L 180.135211 48.618221 
L 179.434736 48.705459 
L 178.734261 48.79445 
L 178.032945 48.953904 
L 177.332469 49.113398 
L 176.631994 49.272932 
L 175.930678 49.432508 
L 175.230203 49.592125 
L 174.529728 49.751783 
L 173.828412 49.911484 
L 173.127936 50.071228 
L 172.427461 50.231014 
L 171.726145 50.390845 
L 171.02567 50.55072 
L 170.325195 50.708496 
L 169.623879 50.76351 
L 168.923403 50.818554 
L 168.222928 50.873628 
L 167.521612 50.928733 
L 166.821137 50.983869 
L 166.120662 51.039037 
L 165.419346 51.094235 
L 164.71887 51.149466 
L 164.018395 51.20473 
L 163.317079 51.260025 
L 162.616604 51.315354 
L 161.916129 51.367506 
L 161.214813 51.176731 
L 160.514337 50.985971 
L 159.813862 50.795225 
L 159.112546 50.604495 
L 158.412071 50.41378 
L 157.711596 50.223081 
L 157.01028 50.032397 
L 156.309804 49.841729 
L 155.609329 49.651076 
L 154.908013 49.46044 
L 154.207538 49.269819 
L 153.507063 49.080614 
L 152.805747 48.99341 
L 152.105271 48.90623 
L 151.404796 48.819074 
L 150.70348 48.731943 
L 150.003005 48.644837 
L 149.30253 48.557756 
L 148.601214 48.4707 
L 147.900739 48.383669 
L 147.200263 48.296664 
L 146.498947 48.209685 
L 145.798472 48.122732 
L 145.097997 48.039031 
L 144.396681 48.177729 
L 143.696206 48.31648 
L 142.99573 48.455284 
L 142.294414 48.594142 
L 141.593939 48.733054 
L 140.893464 48.872022 
L 140.192148 49.011046 
L 139.491673 49.150127 
L 138.791197 49.289265 
L 138.089881 49.428462 
L 137.389406 49.567719 
L 136.688931 49.703922 
L 135.987615 49.623371 
L 135.28714 49.542854 
L 134.586664 49.462371 
L 133.885348 49.381924 
L 133.184873 49.301512 
L 132.484398 49.221136 
L 131.783082 49.140796 
L 131.082607 49.060493 
L 130.382131 48.980226 
L 129.680815 48.899998 
L 128.98034 48.819807 
L 128.279865 48.738083 
L 127.578549 48.587241 
L 126.878074 48.436427 
L 126.177598 48.28564 
L 125.476282 48.134881 
L 124.775807 47.98415 
L 124.075332 47.833447 
L 123.374016 47.682774 
L 122.673541 47.53213 
L 121.973065 47.381515 
L 121.271749 47.23093 
L 120.571274 47.080375 
L 119.870799 46.934126 
L 119.169483 47.055661 
L 118.469008 47.177267 
L 117.768532 47.298948 
L 117.067216 47.420703 
L 116.366741 47.542534 
L 115.666266 47.664444 
L 114.96495 47.786432 
L 114.264475 47.908501 
L 113.564 48.030652 
L 112.862683 48.152886 
L 112.162208 48.275206 
L 111.461733 48.397423 
L 110.760417 48.538805 
L 110.059942 48.680276 
L 109.359467 48.821836 
L 108.65815 48.963487 
L 107.957675 49.105232 
L 107.2572 49.247071 
L 106.555884 49.389008 
L 105.855409 49.531044 
L 105.154934 49.673182 
L 104.453617 49.815423 
L 103.753142 49.95777 
L 103.052667 50.095554 
L 102.351351 50.009237 
L 101.650876 49.922971 
L 100.950401 49.836758 
L 100.249084 49.750597 
L 99.548609 49.66449 
L 98.848134 49.578438 
L 98.146818 49.492441 
L 97.446343 49.406501 
L 96.745868 49.320618 
L 96.044552 49.234794 
L 95.344076 49.14903 
L 94.643601 49.066804 
L 93.942285 49.072136 
L 93.24181 49.07758 
L 92.541335 49.08314 
L 91.840019 49.088817 
L 91.139543 49.094616 
L 90.439068 49.100539 
L 89.737752 49.106589 
L 89.037277 49.11277 
L 88.336802 49.119085 
L 87.635486 49.125539 
L 86.93501 49.132134 
L 86.234535 49.140003 
L 85.533219 49.153256 
L 84.832744 49.166688 
L 84.132269 49.180304 
L 83.430953 49.194112 
L 82.730477 49.208117 
L 82.030002 49.222326 
L 81.328686 49.236746 
L 80.628211 49.251386 
L 79.927736 49.266254 
L 79.22642 49.281358 
L 78.525944 49.296707 
L 77.825469 49.317077 
L 77.124153 49.535279 
L 76.423678 49.753922 
L 75.723203 49.973033 
L 75.021887 50.192637 
L 74.321411 50.412767 
L 73.620936 50.633454 
L 72.91962 50.854738 
L 72.219145 51.076658 
L 71.51867 51.299262 
L 70.817354 51.522603 
L 70.116878 51.74674 
L 69.416403 51.986914 
L 68.715087 51.761311 
L 68.014612 51.538196 
L 67.314137 51.317996 
L 66.612821 51.101278 
L 65.912345 50.888821 
L 65.21187 50.681746 
L 64.510554 50.481774 
L 63.810079 50.291801 
L 63.109604 50.117473 
L 62.408288 49.973373 
L 61.707813 49.699362 
z
" clip-path="url(#pb4a8f71421)" style="fill: #d0d1e6; fill-opacity: 0.25"/>
   </g>
   <g id="PolyCollection_2">
    <path d="M 171.02567 52.905926 
L 171.02567 53.941398 
L 171.726145 54.077687 
L 172.427461 54.428429 
L 173.127936 54.828445 
L 173.828412 55.155652 
L 174.529728 55.44685 
L 175.230203 55.733283 
L 175.930678 56.014613 
L 176.631994 56.291717 
L 177.332469 56.565244 
L 178.032945 56.835694 
L 178.734261 57.103458 
L 179.434736 57.296749 
L 180.135211 57.485684 
L 180.836527 57.672867 
L 181.537002 57.858458 
L 182.237478 58.042597 
L 182.938794 58.2254 
L 183.639269 58.406973 
L 184.339744 58.587405 
L 185.04106 58.766777 
L 185.741535 58.94516 
L 186.44201 59.122617 
L 187.143327 59.299206 
L 187.843802 59.407226 
L 188.544277 59.512753 
L 189.245593 59.617613 
L 189.946068 59.721838 
L 190.646543 59.825461 
L 191.34786 59.92851 
L 192.048335 60.031011 
L 192.74881 60.13299 
L 193.450126 60.234468 
L 194.150601 60.335467 
L 194.851076 60.436006 
L 195.552393 60.536104 
L 196.252868 60.610274 
L 196.953343 60.683433 
L 197.654659 60.756213 
L 198.355134 60.828628 
L 199.055609 60.900691 
L 199.756926 60.970578 
L 200.457401 61.040031 
L 201.157876 61.109168 
L 201.859192 61.177999 
L 202.559667 61.246534 
L 203.260142 61.31478 
L 203.961458 61.382748 
L 204.661934 61.357586 
L 205.362409 61.330696 
L 206.063725 61.303576 
L 206.7642 61.276234 
L 207.464675 61.248673 
L 208.165991 61.2209 
L 208.866467 61.190213 
L 209.566942 61.159245 
L 210.268258 61.128082 
L 210.968733 61.096727 
L 211.669208 61.065186 
L 212.370524 61.033462 
L 213.071 61.239874 
L 213.771475 61.449141 
L 214.472791 61.65819 
L 215.173266 61.867027 
L 215.873741 62.075658 
L 216.575057 62.284087 
L 217.275533 62.492318 
L 217.976008 62.700356 
L 218.677324 62.908206 
L 219.377799 63.115871 
L 220.078274 63.323357 
L 220.77959 63.530665 
L 221.480066 63.689852 
L 222.180541 63.848867 
L 222.881857 64.007717 
L 223.582332 64.166405 
L 224.282807 64.324933 
L 224.984123 64.483306 
L 225.684599 64.641526 
L 226.385074 64.799596 
L 227.08639 64.957519 
L 227.786865 65.115298 
L 228.48734 65.272935 
L 229.188656 65.430433 
L 229.889132 65.553041 
L 230.589607 65.674708 
L 231.290923 65.796254 
L 231.991398 65.917679 
L 232.691873 66.038985 
L 233.393189 66.160176 
L 234.093665 66.281251 
L 234.79414 66.402215 
L 235.495456 66.523067 
L 236.195931 66.64381 
L 236.896406 66.764446 
L 237.597722 66.884976 
L 238.298198 67.106865 
L 238.998673 67.329409 
L 239.699989 67.551845 
L 240.400464 67.774174 
L 241.100939 67.996397 
L 241.802255 68.218517 
L 242.50273 68.440535 
L 243.203206 68.662451 
L 243.904522 68.884269 
L 244.604997 69.105988 
L 245.305472 69.327612 
L 246.006788 69.54914 
L 246.707263 69.572966 
L 247.407739 69.594932 
L 248.109055 69.616823 
L 248.80953 69.638639 
L 249.510005 69.660381 
L 250.211321 69.682051 
L 250.911796 69.703648 
L 251.612272 69.725175 
L 252.313588 69.746631 
L 253.014063 69.768018 
L 253.714538 69.789336 
L 254.415854 69.810586 
L 255.116329 70.017262 
L 255.816805 70.22541 
L 256.518121 70.433481 
L 257.218596 70.641474 
L 257.919071 70.849392 
L 258.620387 71.069451 
L 259.320862 71.28944 
L 260.021338 71.509739 
L 260.722654 71.729829 
L 261.423129 71.949849 
L 262.123604 72.169799 
L 262.82492 72.38968 
L 263.525395 72.543317 
L 264.225871 72.700835 
L 264.927187 72.855982 
L 265.627662 73.010633 
L 266.328137 73.162846 
L 267.029453 73.313706 
L 267.729928 73.463897 
L 268.430404 73.620162 
L 269.13172 73.777455 
L 269.832195 73.972464 
L 270.53267 74.168919 
L 271.233986 74.365106 
L 271.934461 74.58089 
L 272.634937 74.795069 
L 273.336253 75.008946 
L 274.036728 75.220047 
L 274.737203 75.427685 
L 275.438519 75.632904 
L 276.138994 75.83674 
L 276.839469 76.040155 
L 277.540786 76.242703 
L 278.241261 76.445278 
L 278.941736 76.645819 
L 279.643052 76.843873 
L 280.343527 77.242315 
L 281.044002 77.641056 
L 281.745319 78.038275 
L 282.445794 78.43468 
L 283.146269 78.829293 
L 283.847585 79.222994 
L 284.54806 79.616583 
L 285.248535 80.013616 
L 285.949852 80.415871 
L 286.650327 80.821876 
L 287.350802 81.23094 
L 288.052118 81.639627 
L 288.752593 81.724728 
L 289.453068 81.807697 
L 290.154385 81.890101 
L 290.85486 81.97167 
L 291.555335 82.052971 
L 292.256651 82.135316 
L 292.957126 82.220299 
L 293.657601 82.309931 
L 294.358917 82.403022 
L 295.059393 82.499372 
L 295.759868 82.59841 
L 296.461184 82.70007 
L 297.161659 82.988388 
L 297.862134 83.279805 
L 298.56345 83.573782 
L 299.263926 83.865325 
L 299.964401 84.154379 
L 300.665717 84.441653 
L 301.366192 84.728766 
L 302.066667 85.01686 
L 302.767983 85.306364 
L 303.468459 85.597158 
L 304.168934 85.889743 
L 304.87025 86.183864 
L 305.570725 86.448851 
L 306.2712 86.715629 
L 306.972516 86.983137 
L 307.672992 87.251461 
L 308.373467 87.52129 
L 309.074783 87.793144 
L 309.775258 88.066725 
L 310.475733 88.344247 
L 311.177049 88.626264 
L 311.877525 88.912447 
L 312.578 89.214701 
L 313.279316 89.517942 
L 313.979791 89.667354 
L 314.680266 89.822757 
L 315.381582 89.979677 
L 316.082058 90.136469 
L 316.782533 90.293086 
L 317.483849 90.450787 
L 318.184324 90.610879 
L 318.884799 90.776539 
L 319.586115 90.948151 
L 320.286591 91.126125 
L 320.987066 91.322118 
L 321.688382 91.520727 
L 322.388857 91.740617 
L 323.089332 91.964518 
L 323.790648 92.190014 
L 324.491124 92.408846 
L 325.191599 92.618426 
L 325.892915 92.823599 
L 326.59339 93.025964 
L 327.293865 93.257622 
L 327.995181 93.482907 
L 328.695656 93.707793 
L 329.396132 93.929826 
L 330.097448 94.149555 
L 330.797923 94.482978 
L 331.498398 94.813214 
L 332.199714 95.140716 
L 332.900189 95.464456 
L 333.600665 95.786814 
L 334.301981 96.107158 
L 335.002456 96.425703 
L 335.702931 96.744943 
L 336.404247 97.06562 
L 337.104722 97.385229 
L 337.805198 97.701623 
L 338.506514 98.016315 
L 339.206989 98.307458 
L 339.907464 98.598671 
L 340.60878 98.889031 
L 341.309255 99.177655 
L 342.009731 99.489685 
L 342.711047 99.801052 
L 343.411522 100.094331 
L 344.111997 100.389245 
L 344.813313 100.685164 
L 345.513788 100.98556 
L 346.214264 101.289998 
L 346.91558 101.595862 
L 347.616055 101.841574 
L 348.31653 102.089238 
L 349.017846 102.336291 
L 349.718321 102.578587 
L 350.418797 102.816111 
L 351.120113 103.050187 
L 351.820588 103.284353 
L 352.521063 103.519483 
L 353.222379 103.756285 
L 353.922854 103.994422 
L 354.62333 104.233194 
L 355.324646 104.471875 
L 356.025121 104.934717 
L 356.725596 105.400287 
L 357.426912 105.864308 
L 358.127387 106.326454 
L 358.827863 106.788317 
L 359.529179 107.249128 
L 360.229654 107.708852 
L 360.930129 108.168282 
L 361.631445 108.627994 
L 362.33192 109.086661 
L 363.032395 109.543279 
L 363.733712 109.997248 
L 364.434187 110.27716 
L 365.134662 110.549957 
L 365.835978 110.820918 
L 366.536453 111.091741 
L 367.236928 111.36114 
L 367.938245 111.628227 
L 368.63872 111.89254 
L 369.339195 112.157511 
L 370.040511 112.422539 
L 370.740986 112.689708 
L 371.441461 112.955534 
L 372.142778 113.220151 
L 372.843253 113.578721 
L 373.543728 113.938531 
L 374.245044 114.29748 
L 374.945519 114.65334 
L 375.645994 115.003939 
L 376.347311 115.345504 
L 377.047786 115.684573 
L 377.748261 116.020771 
L 378.449577 116.355747 
L 379.150052 116.68814 
L 379.850527 117.015375 
L 380.551843 117.342129 
L 381.252319 117.586501 
L 381.952794 117.84256 
L 382.65411 118.101887 
L 383.354585 118.36439 
L 384.05506 118.623664 
L 384.756376 118.886956 
L 385.456852 119.155112 
L 386.157327 119.427271 
L 386.858643 119.703511 
L 387.559118 119.985012 
L 388.259593 120.264798 
L 388.960909 120.550532 
L 389.661385 120.811887 
L 390.36186 121.06949 
L 391.063176 121.325261 
L 391.763651 121.576576 
L 392.464126 121.827386 
L 393.165442 122.077413 
L 393.865918 122.325631 
L 394.566393 122.67948 
L 395.267709 123.033868 
L 395.968184 123.388699 
L 396.668659 123.738283 
L 397.369975 124.079168 
L 398.070451 124.614282 
L 398.770926 124.944221 
L 399.472242 125.251565 
L 400.172717 125.559747 
L 400.873192 125.868789 
L 401.574508 126.17809 
L 402.274984 126.487313 
L 402.975459 126.796494 
L 403.676775 127.105633 
L 404.37725 127.413567 
L 405.077725 127.721511 
L 405.779041 128.02903 
L 406.479517 128.349467 
L 407.179992 128.609573 
L 407.881308 128.869299 
L 408.581783 129.128985 
L 409.282258 129.38863 
L 409.983574 129.648237 
L 410.68405 129.907804 
L 411.384525 130.167332 
L 412.085841 130.426821 
L 412.786316 130.686272 
L 413.486791 130.945684 
L 414.188107 131.205058 
L 414.188107 114.932719 
L 414.188107 114.932719 
L 413.486791 114.708459 
L 412.786316 114.484237 
L 412.085841 114.260054 
L 411.384525 114.035909 
L 410.68405 113.811802 
L 409.983574 113.587735 
L 409.282258 113.363707 
L 408.581783 113.139719 
L 407.881308 112.915771 
L 407.179992 112.691863 
L 406.479517 112.468335 
L 405.779041 112.183986 
L 405.077725 111.912457 
L 404.37725 111.640584 
L 403.676775 111.3687 
L 402.975459 111.095693 
L 402.274984 110.822728 
L 401.574508 110.549805 
L 400.873192 110.27696 
L 400.172717 110.004472 
L 399.472242 109.733096 
L 398.770926 109.460312 
L 398.070451 109.186671 
L 397.369975 108.682419 
L 396.668659 108.372284 
L 395.968184 108.053452 
L 395.267709 107.72944 
L 394.566393 107.406109 
L 393.865918 107.082764 
L 393.165442 106.864704 
L 392.464126 106.644382 
L 391.763651 106.42278 
L 391.063176 106.197618 
L 390.36186 105.966506 
L 389.661385 105.732065 
L 388.960909 105.495001 
L 388.259593 105.236208 
L 387.559118 104.983781 
L 386.858643 104.732273 
L 386.157327 104.487319 
L 385.456852 104.247777 
L 384.756376 104.013195 
L 384.05506 103.783249 
L 383.354585 103.555933 
L 382.65411 103.3251 
L 381.952794 103.096404 
L 381.252319 102.86796 
L 380.551843 102.648161 
L 379.850527 102.346035 
L 379.150052 102.043655 
L 378.449577 101.736193 
L 377.748261 101.425995 
L 377.047786 101.114782 
L 376.347311 100.800884 
L 375.645994 100.48806 
L 374.945519 100.168456 
L 374.245044 99.844969 
L 373.543728 99.518148 
L 372.843253 99.190415 
L 372.142778 98.860319 
L 371.441461 98.624243 
L 370.740986 98.385887 
L 370.040511 98.146444 
L 369.339195 97.909188 
L 368.63872 97.671805 
L 367.938245 97.43419 
L 367.236928 97.193458 
L 366.536453 96.950435 
L 365.835978 96.705997 
L 365.134662 96.461067 
L 364.434187 96.213997 
L 363.733712 95.960859 
L 363.032395 95.533923 
L 362.33192 95.104346 
L 361.631445 94.672784 
L 360.930129 94.24014 
L 360.229654 93.807655 
L 359.529179 93.374811 
L 358.827863 92.940771 
L 358.127387 92.505723 
L 357.426912 92.070693 
L 356.725596 91.63406 
L 356.025121 91.196287 
L 355.324646 90.759369 
L 354.62333 90.546669 
L 353.922854 90.333985 
L 353.222379 90.122107 
L 352.521063 89.911524 
L 351.820588 89.702426 
L 351.120113 89.494214 
L 350.418797 89.285471 
L 349.718321 89.072476 
L 349.017846 88.853839 
L 348.31653 88.630336 
L 347.616055 88.406391 
L 346.91558 88.184571 
L 346.214264 87.903035 
L 345.513788 87.623417 
L 344.813313 87.346984 
L 344.111997 87.074952 
L 343.411522 86.803332 
L 342.711047 86.533937 
L 342.009731 86.246558 
L 341.309255 85.958788 
L 340.60878 85.69463 
L 339.907464 85.428683 
L 339.206989 85.161893 
L 338.506514 84.895789 
L 337.805198 84.60617 
L 337.104722 84.314982 
L 336.404247 84.020704 
L 335.702931 83.725299 
L 335.002456 83.431285 
L 334.301981 83.138232 
L 333.600665 82.84344 
L 332.900189 82.546548 
L 332.199714 82.248071 
L 331.498398 81.945587 
L 330.797923 81.640352 
L 330.097448 81.334578 
L 329.396132 81.143161 
L 328.695656 80.950623 
L 327.995181 80.755415 
L 327.293865 80.559864 
L 326.59339 80.370932 
L 325.892915 80.212202 
L 325.191599 80.052637 
L 324.491124 79.892045 
L 323.790648 79.724529 
L 323.089332 79.550337 
L 322.388857 79.376678 
L 321.688382 79.211749 
L 320.987066 79.06628 
L 320.286591 78.925567 
L 319.586115 78.799417 
L 318.884799 78.676943 
L 318.184324 78.558561 
L 317.483849 78.445023 
L 316.782533 78.333376 
L 316.082058 78.222908 
L 315.381582 78.112838 
L 314.680266 78.002042 
L 313.979791 77.891045 
L 313.279316 77.775957 
L 312.578 77.505355 
L 311.877525 77.237868 
L 311.177049 76.984477 
L 310.475733 76.735351 
L 309.775258 76.490331 
L 309.074783 76.249088 
L 308.373467 76.009263 
L 307.672992 75.771083 
L 306.972516 75.534283 
L 306.2712 75.298004 
L 305.570725 75.062166 
L 304.87025 74.827846 
L 304.168934 74.564335 
L 303.468459 74.302376 
L 302.767983 74.042017 
L 302.066667 73.782648 
L 301.366192 73.524677 
L 300.665717 73.267802 
L 299.964401 73.010836 
L 299.263926 72.751667 
L 298.56345 72.489579 
L 297.862134 72.225944 
L 297.161659 71.965252 
L 296.461184 71.706589 
L 295.759868 71.635795 
L 295.059393 71.568655 
L 294.358917 71.504961 
L 293.657601 71.444755 
L 292.957126 71.387208 
L 292.256651 71.333656 
L 291.555335 71.282661 
L 290.85486 71.232798 
L 290.154385 71.182959 
L 289.453068 71.132633 
L 288.752593 71.082085 
L 288.052118 71.033916 
L 287.350802 70.662383 
L 286.650327 70.29025 
L 285.949852 69.920436 
L 285.248535 69.553527 
L 284.54806 69.190896 
L 283.847585 68.831855 
L 283.146269 68.473154 
L 282.445794 68.114353 
L 281.745319 67.754034 
L 281.044002 67.3932 
L 280.343527 67.031296 
L 279.643052 66.666781 
L 278.941736 66.503566 
L 278.241261 66.338678 
L 277.540786 66.171989 
L 276.839469 66.00548 
L 276.138994 65.838204 
L 275.438519 65.670226 
L 274.737203 65.499641 
L 274.036728 65.325832 
L 273.336253 65.147996 
L 272.634937 64.967623 
L 271.934461 64.78703 
L 271.233986 64.60522 
L 270.53267 64.44366 
L 269.832195 64.282457 
L 269.13172 64.123378 
L 268.430404 64.002313 
L 267.729928 63.88268 
L 267.029453 63.769587 
L 266.328137 63.65624 
L 265.627662 63.541862 
L 264.927187 63.425553 
L 264.225871 63.308744 
L 263.525395 63.189743 
L 262.82492 63.071609 
L 262.123604 62.887366 
L 261.423129 62.703192 
L 260.722654 62.519087 
L 260.021338 62.335052 
L 259.320862 62.151227 
L 258.620387 61.967857 
L 257.919071 61.784558 
L 257.218596 61.61355 
L 256.518121 61.442617 
L 255.816805 61.271762 
L 255.116329 61.100984 
L 254.415854 60.928734 
L 253.714538 60.942043 
L 253.014063 60.95542 
L 252.313588 60.968866 
L 251.612272 60.982381 
L 250.911796 60.995966 
L 250.211321 61.009623 
L 249.510005 61.023351 
L 248.80953 61.037152 
L 248.109055 61.051027 
L 247.407739 61.064976 
L 246.707263 61.079002 
L 246.006788 61.094886 
L 245.305472 60.913256 
L 244.604997 60.73172 
L 243.904522 60.550281 
L 243.203206 60.36894 
L 242.50273 60.187697 
L 241.802255 60.006556 
L 241.100939 59.825517 
L 240.400464 59.644582 
L 239.699989 59.463752 
L 238.998673 59.283029 
L 238.298198 59.102415 
L 237.597722 58.921144 
L 236.896406 58.841441 
L 236.195931 58.761843 
L 235.495456 58.682353 
L 234.79414 58.602971 
L 234.093665 58.523701 
L 233.393189 58.444543 
L 232.691873 58.3655 
L 231.991398 58.286573 
L 231.290923 58.207765 
L 230.589607 58.129076 
L 229.889132 58.050511 
L 229.188656 57.972885 
L 228.48734 57.860641 
L 227.786865 57.748535 
L 227.08639 57.636572 
L 226.385074 57.524753 
L 225.684599 57.413081 
L 224.984123 57.301559 
L 224.282807 57.190189 
L 223.582332 57.078976 
L 222.881857 56.967921 
L 222.180541 56.857029 
L 221.480066 56.746302 
L 220.77959 56.635746 
L 220.078274 56.477414 
L 219.377799 56.319257 
L 218.677324 56.161282 
L 217.976008 56.00349 
L 217.275533 55.845887 
L 216.575057 55.688477 
L 215.873741 55.531264 
L 215.173266 55.374254 
L 214.472791 55.21745 
L 213.771475 55.060858 
L 213.071 54.904483 
L 212.370524 54.745254 
L 211.669208 54.824518 
L 210.968733 54.903965 
L 210.268258 54.983598 
L 209.566942 55.063423 
L 208.866467 55.143443 
L 208.165991 55.223744 
L 207.464675 55.301543 
L 206.7642 55.379554 
L 206.063725 55.457783 
L 205.362409 55.536236 
L 204.661934 55.614918 
L 203.961458 55.695328 
L 203.260142 55.68315 
L 202.559667 55.671251 
L 201.859192 55.659639 
L 201.157876 55.648325 
L 200.457401 55.637316 
L 199.756926 55.626624 
L 199.055609 55.616365 
L 198.355134 55.604609 
L 197.654659 55.593206 
L 196.953343 55.582168 
L 196.252868 55.571508 
L 195.552393 55.56186 
L 194.851076 55.527133 
L 194.150601 55.492847 
L 193.450126 55.45902 
L 192.74881 55.425672 
L 192.048335 55.392825 
L 191.34786 55.360501 
L 190.646543 55.328725 
L 189.946068 55.297522 
L 189.245593 55.266922 
L 188.544277 55.236956 
L 187.843802 55.207657 
L 187.143327 55.180852 
L 186.44201 55.087111 
L 185.741535 54.994239 
L 185.04106 54.902292 
L 184.339744 54.811334 
L 183.639269 54.721437 
L 182.938794 54.632679 
L 182.237478 54.545153 
L 181.537002 54.458962 
L 180.836527 54.374224 
L 180.135211 54.291077 
L 179.434736 54.209682 
L 178.734261 54.132643 
L 178.032945 53.985867 
L 177.332469 53.841776 
L 176.631994 53.700763 
L 175.930678 53.563326 
L 175.230203 53.430117 
L 174.529728 53.302009 
L 173.828412 53.178666 
L 173.127936 53.034955 
L 172.427461 52.964051 
L 171.726145 53.042215 
L 171.02567 52.905926 
z
" clip-path="url(#pb4a8f71421)" style="fill: #67a9cf; fill-opacity: 0.25"/>
   </g>
   <g id="PolyCollection_3">
    <path d="M 171.02567 52.973258 
L 171.02567 53.874066 
L 171.726145 54.048367 
L 172.427461 54.179258 
L 173.127936 54.332431 
L 173.828412 54.480777 
L 174.529728 54.598635 
L 175.230203 54.713076 
L 175.930678 54.824638 
L 176.631994 54.933715 
L 177.332469 55.04064 
L 178.032945 55.145659 
L 178.734261 55.248989 
L 179.434736 55.35032 
L 180.135211 55.450203 
L 180.836527 55.548768 
L 181.537002 55.646134 
L 182.237478 55.742392 
L 182.938794 55.837635 
L 183.639269 55.931936 
L 184.339744 56.025361 
L 185.04106 56.11797 
L 185.741535 56.209813 
L 186.44201 56.300941 
L 187.143327 56.391394 
L 187.843802 56.504491 
L 188.544277 56.617016 
L 189.245593 56.728997 
L 189.946068 56.840466 
L 190.646543 56.951441 
L 191.34786 57.061947 
L 192.048335 57.172006 
L 192.74881 57.281637 
L 193.450126 57.390862 
L 194.150601 57.499696 
L 194.851076 57.608151 
L 195.552393 57.716247 
L 196.252868 57.84986 
L 196.953343 57.98315 
L 197.654659 58.116122 
L 198.355134 58.248787 
L 199.055609 58.381161 
L 199.756926 58.51129 
L 200.457401 58.641144 
L 201.157876 58.770738 
L 201.859192 58.900074 
L 202.559667 59.029165 
L 203.260142 59.158016 
L 203.961458 59.286636 
L 204.661934 59.428312 
L 205.362409 59.569762 
L 206.063725 59.710996 
L 206.7642 59.852022 
L 207.464675 59.992841 
L 208.165991 60.133464 
L 208.866467 60.271086 
L 209.566942 60.408525 
L 210.268258 60.545783 
L 210.968733 60.68286 
L 211.669208 60.819767 
L 212.370524 60.956501 
L 213.071 61.066149 
L 213.771475 61.17564 
L 214.472791 61.28497 
L 215.173266 61.394143 
L 215.873741 61.503168 
L 216.575057 61.612043 
L 217.275533 61.720775 
L 217.976008 61.829362 
L 218.677324 61.937814 
L 219.377799 62.046126 
L 220.078274 62.154307 
L 220.77959 62.262356 
L 221.480066 62.370959 
L 222.180541 62.479431 
L 222.881857 62.58777 
L 223.582332 62.695987 
L 224.282807 62.804077 
L 224.984123 62.912049 
L 225.684599 63.019898 
L 226.385074 63.127632 
L 227.08639 63.235254 
L 227.786865 63.342757 
L 228.48734 63.450154 
L 229.188656 63.557443 
L 229.889132 63.672254 
L 230.589607 63.786956 
L 231.290923 63.90155 
L 231.991398 64.016035 
L 232.691873 64.130418 
L 233.393189 64.244695 
L 234.093665 64.358873 
L 234.79414 64.472949 
L 235.495456 64.586926 
L 236.195931 64.700811 
L 236.896406 64.814596 
L 237.597722 64.928289 
L 238.298198 65.034001 
L 238.998673 65.139627 
L 239.699989 65.245172 
L 240.400464 65.350641 
L 241.100939 65.456028 
L 241.802255 65.561335 
L 242.50273 65.666568 
L 243.203206 65.771724 
L 243.904522 65.876806 
L 244.604997 65.981814 
L 245.305472 66.086749 
L 246.006788 66.191611 
L 246.707263 66.323629 
L 247.407739 66.455576 
L 248.109055 66.587456 
L 248.80953 66.719265 
L 249.510005 66.851009 
L 250.211321 66.982687 
L 250.911796 67.114301 
L 251.612272 67.245847 
L 252.313588 67.377333 
L 253.014063 67.508753 
L 253.714538 67.640113 
L 254.415854 67.771409 
L 255.116329 67.88188 
L 255.816805 67.992295 
L 256.518121 68.102653 
L 257.218596 68.212959 
L 257.919071 68.323213 
L 258.620387 68.445631 
L 259.320862 68.567996 
L 260.021338 68.690529 
L 260.722654 68.81301 
L 261.423129 68.935441 
L 262.123604 69.057823 
L 262.82492 69.180156 
L 263.525395 69.327313 
L 264.225871 69.476762 
L 264.927187 69.623957 
L 265.627662 69.770371 
L 266.328137 69.914429 
L 267.029453 70.057064 
L 267.729928 70.198986 
L 268.430404 70.34699 
L 269.13172 70.496069 
L 269.832195 70.682624 
L 270.53267 70.870611 
L 271.233986 71.058271 
L 271.934461 71.24303 
L 272.634937 71.426349 
L 273.336253 71.609282 
L 274.036728 71.789919 
L 274.737203 71.967319 
L 275.438519 72.142659 
L 276.138994 72.316192 
L 276.839469 72.489121 
L 277.540786 72.66116 
L 278.241261 72.833179 
L 278.941736 73.002813 
L 279.643052 73.169833 
L 280.343527 73.332184 
L 281.044002 73.493136 
L 281.745319 73.652646 
L 282.445794 73.811355 
L 283.146269 73.96795 
L 283.847585 74.123796 
L 284.54806 74.2797 
L 285.248535 74.43972 
L 285.949852 74.60503 
L 286.650327 74.774145 
L 287.350802 74.946112 
L 288.052118 75.117484 
L 288.752593 75.299904 
L 289.453068 75.482256 
L 290.154385 75.664007 
L 290.85486 75.844935 
L 291.555335 76.025696 
L 292.256651 76.207606 
L 292.957126 76.392519 
L 293.657601 76.582249 
L 294.358917 76.774902 
L 295.059393 76.97049 
L 295.759868 77.168526 
L 296.461184 77.368984 
L 297.161659 77.584572 
L 297.862134 77.802516 
L 298.56345 78.022691 
L 299.263926 78.241153 
L 299.964401 78.457186 
L 300.665717 78.671197 
L 301.366192 78.885033 
L 302.066667 79.099931 
L 302.767983 79.316432 
L 303.468459 79.534203 
L 304.168934 79.753677 
L 304.87025 79.974747 
L 305.570725 80.219785 
L 306.2712 80.466666 
L 306.972516 80.714323 
L 307.672992 80.962742 
L 308.373467 81.212845 
L 309.074783 81.464982 
L 309.775258 81.718806 
L 310.475733 81.976735 
L 311.177049 82.23892 
L 311.877525 82.506523 
L 312.578 82.78794 
L 313.279316 83.072437 
L 313.979791 83.375059 
L 314.680266 83.679661 
L 315.381582 83.98528 
L 316.082058 84.290126 
L 316.782533 84.595024 
L 317.483849 84.901348 
L 318.184324 85.210247 
L 318.884799 85.525457 
L 319.586115 85.847293 
L 320.286591 86.176204 
L 320.987066 86.520113 
L 321.688382 86.868789 
L 322.388857 87.249497 
L 323.089332 87.637198 
L 323.790648 88.02596 
L 324.491124 88.40666 
L 325.191599 88.777259 
L 325.892915 89.143966 
L 326.59339 89.50831 
L 327.293865 89.894708 
L 327.995181 90.281202 
L 328.695656 90.667219 
L 329.396132 91.049784 
L 330.097448 91.430246 
L 330.797923 91.818487 
L 331.498398 92.204879 
L 332.199714 92.588684 
L 332.900189 92.968734 
L 333.600665 93.347361 
L 334.301981 93.723907 
L 335.002456 94.098531 
L 335.702931 94.474021 
L 336.404247 94.85097 
L 337.104722 95.226754 
L 337.805198 95.599316 
L 338.506514 95.970232 
L 339.206989 96.320446 
L 339.907464 96.671041 
L 340.60878 97.020827 
L 341.309255 97.368737 
L 342.009731 97.740002 
L 342.711047 98.110685 
L 343.411522 98.462991 
L 344.111997 98.817587 
L 344.813313 99.172942 
L 345.513788 99.533249 
L 346.214264 99.896888 
L 346.91558 100.26195 
L 347.616055 100.629403 
L 348.31653 100.998806 
L 349.017846 101.367748 
L 349.718321 101.732405 
L 350.418797 102.092336 
L 351.120113 102.448788 
L 351.820588 102.805076 
L 352.521063 103.162402 
L 353.222379 103.521336 
L 353.922854 103.881495 
L 354.62333 104.242315 
L 355.324646 104.603069 
L 356.025121 104.946099 
L 356.725596 105.290689 
L 357.426912 105.633784 
L 358.127387 105.974971 
L 358.827863 106.316009 
L 359.529179 106.656088 
L 360.229654 106.995079 
L 360.930129 107.333822 
L 361.631445 107.672815 
L 362.33192 108.01072 
L 363.032395 108.346609 
L 363.733712 108.679709 
L 364.434187 108.955116 
L 365.134662 109.22412 
L 365.835978 109.49135 
L 366.536453 109.758267 
L 367.236928 110.023756 
L 367.938245 110.287158 
L 368.63872 110.548142 
L 369.339195 110.809457 
L 370.040511 111.070717 
L 370.740986 111.333993 
L 371.441461 111.596693 
L 372.142778 111.857619 
L 372.843253 112.098385 
L 373.543728 112.33863 
L 374.245044 112.578146 
L 374.945519 112.813642 
L 375.645994 113.043248 
L 376.347311 113.262848 
L 377.047786 113.481636 
L 377.748261 113.697531 
L 378.449577 113.912409 
L 379.150052 114.124592 
L 379.850527 114.331529 
L 380.551843 114.538079 
L 381.252319 114.816549 
L 381.952794 115.106974 
L 382.65411 115.399783 
L 383.354585 115.695418 
L 384.05506 115.988506 
L 384.756376 116.285059 
L 385.456852 116.5858 
L 386.157327 116.89024 
L 386.858643 117.19867 
L 387.559118 117.511463 
L 388.259593 117.823611 
L 388.960909 118.140363 
L 389.661385 118.480483 
L 390.36186 118.8183 
L 391.063176 119.154425 
L 391.763651 119.487152 
L 392.464126 119.818138 
L 393.165442 120.148368 
L 393.865918 120.476765 
L 394.566393 120.91095 
L 395.267709 121.345261 
L 395.968184 121.780098 
L 396.668659 122.209722 
L 397.369975 122.630715 
L 398.070451 123.015635 
L 398.770926 123.169883 
L 399.472242 123.313733 
L 400.172717 123.457157 
L 400.873192 123.601512 
L 401.574508 123.746094 
L 402.274984 123.890632 
L 402.975459 124.035123 
L 403.676775 124.179576 
L 404.37725 124.322881 
L 405.077725 124.466144 
L 405.779041 124.609086 
L 406.479517 124.751987 
L 407.179992 124.833871 
L 407.881308 124.915719 
L 408.581783 124.997527 
L 409.282258 125.079293 
L 409.983574 125.161026 
L 410.68405 125.242716 
L 411.384525 125.32437 
L 412.085841 125.405985 
L 412.786316 125.487562 
L 413.486791 125.569104 
L 414.188107 125.650604 
L 414.188107 111.715878 
L 414.188107 111.715878 
L 413.486791 111.666471 
L 412.786316 111.6171 
L 412.085841 111.56777 
L 411.384525 111.518473 
L 410.68405 111.469214 
L 409.983574 111.419996 
L 409.282258 111.370817 
L 408.581783 111.321676 
L 407.881308 111.272571 
L 407.179992 111.223506 
L 406.479517 111.174483 
L 405.779041 111.065321 
L 405.077725 110.956205 
L 404.37725 110.846637 
L 403.676775 110.73711 
L 402.975459 110.626401 
L 402.274984 110.515736 
L 401.574508 110.405112 
L 400.873192 110.294532 
L 400.172717 110.184344 
L 399.472242 110.075195 
L 398.770926 109.965906 
L 398.070451 109.84356 
L 397.369975 109.516097 
L 396.668659 109.124807 
L 395.968184 108.724748 
L 395.267709 108.319476 
L 394.566393 107.914802 
L 393.865918 107.510528 
L 393.165442 107.211382 
L 392.464126 106.909994 
L 391.763651 106.607306 
L 391.063176 106.302291 
L 390.36186 105.990263 
L 389.661385 105.674772 
L 388.960909 105.355207 
L 388.259593 105.059437 
L 387.559118 104.771381 
L 386.858643 104.483169 
L 386.157327 104.202412 
L 385.456852 103.927159 
L 384.756376 103.657168 
L 384.05506 103.392488 
L 383.354585 103.130989 
L 382.65411 102.865297 
L 381.952794 102.602087 
L 381.252319 102.340015 
L 380.551843 102.086323 
L 379.850527 101.899192 
L 379.150052 101.711718 
L 378.449577 101.519251 
L 377.748261 101.32416 
L 377.047786 101.127849 
L 376.347311 100.928875 
L 375.645994 100.729286 
L 374.945519 100.523893 
L 374.245044 100.315248 
L 373.543728 100.104195 
L 372.843253 99.8921 
L 372.142778 99.679408 
L 371.441461 99.444274 
L 370.740986 99.207432 
L 370.040511 98.968736 
L 369.339195 98.732346 
L 368.63872 98.495945 
L 367.938245 98.259641 
L 367.236928 98.019859 
L 366.536453 97.777568 
L 365.835978 97.53386 
L 365.134662 97.289839 
L 364.434187 97.043611 
L 363.733712 96.790607 
L 363.032395 96.479904 
L 362.33192 96.166697 
L 361.631445 95.851475 
L 360.930129 95.535214 
L 360.229654 95.219142 
L 359.529179 94.902664 
L 358.827863 94.584993 
L 358.127387 94.266221 
L 357.426912 93.947332 
L 356.725596 93.62687 
L 356.025121 93.305221 
L 355.324646 92.985592 
L 354.62333 92.647861 
L 353.922854 92.310118 
L 353.222379 91.973157 
L 352.521063 91.637602 
L 351.820588 91.3036 
L 351.120113 90.970401 
L 350.418797 90.636933 
L 349.718321 90.29924 
L 349.017846 89.955856 
L 348.31653 89.60714 
L 347.616055 89.257826 
L 346.91558 88.910647 
L 346.214264 88.565789 
L 345.513788 88.222853 
L 344.813313 87.883813 
L 344.111997 87.5487 
L 343.411522 87.214242 
L 342.711047 86.881356 
L 342.009731 86.530777 
L 341.309255 86.179722 
L 340.60878 85.852333 
L 339.907464 85.523294 
L 339.206989 85.193369 
L 338.506514 84.86382 
L 337.805198 84.513825 
L 337.104722 84.162202 
L 336.404247 83.8075 
L 335.702931 83.451763 
L 335.002456 83.097398 
L 334.301981 82.743828 
L 333.600665 82.388632 
L 332.900189 82.03141 
L 332.199714 81.672643 
L 331.498398 81.30986 
L 330.797923 80.944186 
L 330.097448 80.576626 
L 329.396132 80.2216 
L 328.695656 79.86525 
L 327.995181 79.506829 
L 327.293865 79.148145 
L 326.59339 78.789612 
L 325.892915 78.468516 
L 325.191599 78.146143 
L 324.491124 77.822231 
L 323.790648 77.492238 
L 323.089332 77.156968 
L 322.388857 76.822766 
L 321.688382 76.494316 
L 320.987066 76.20278 
L 320.286591 75.913855 
L 319.586115 75.642506 
L 318.884799 75.374124 
L 318.184324 75.109165 
L 317.483849 74.848302 
L 316.782533 74.589148 
L 316.082058 74.330827 
L 315.381582 74.072678 
L 314.680266 73.814448 
L 313.979791 73.556522 
L 313.279316 73.298514 
L 312.578 73.044558 
L 311.877525 72.791625 
L 311.177049 72.555046 
L 310.475733 72.321478 
L 309.775258 72.092259 
L 309.074783 71.866651 
L 308.373467 71.642499 
L 307.672992 71.419987 
L 306.972516 71.198671 
L 306.2712 70.977936 
L 305.570725 70.757593 
L 304.87025 70.538714 
L 304.168934 70.34285 
L 303.468459 70.148471 
L 302.767983 69.955785 
L 302.066667 69.76411 
L 301.366192 69.57364 
L 300.665717 69.384181 
L 299.964401 69.19465 
L 299.263926 69.003154 
L 298.56345 68.80868 
L 297.862134 68.611944 
L 297.161659 68.41847 
L 296.461184 68.227775 
L 295.759868 68.053614 
L 295.059393 67.883311 
L 294.358917 67.716685 
L 293.657601 67.553882 
L 292.957126 67.394266 
L 292.256651 67.238479 
L 291.555335 67.084884 
L 290.85486 66.932317 
L 290.154385 66.779671 
L 289.453068 66.626531 
L 288.752593 66.473196 
L 288.052118 66.320182 
L 287.350802 66.178068 
L 286.650327 66.035568 
L 285.949852 65.895595 
L 285.248535 65.758469 
L 284.54806 65.625557 
L 283.847585 65.49556 
L 283.146269 65.365736 
L 282.445794 65.235646 
L 281.745319 65.104363 
L 281.044002 64.972549 
L 280.343527 64.839588 
L 279.643052 64.705711 
L 278.941736 64.567586 
L 278.241261 64.427913 
L 277.540786 64.286791 
L 276.839469 64.145898 
L 276.138994 64.004261 
L 275.438519 63.862103 
L 274.737203 63.717759 
L 274.036728 63.569837 
L 273.336253 63.417663 
L 272.634937 63.262469 
L 271.934461 63.107141 
L 271.233986 62.950428 
L 270.53267 62.790951 
L 269.832195 62.631893 
L 269.13172 62.474975 
L 268.430404 62.356305 
L 267.729928 62.239024 
L 267.029453 62.128274 
L 266.328137 62.017315 
L 265.627662 61.905394 
L 264.927187 61.791458 
L 264.225871 61.67731 
L 263.525395 61.560848 
L 262.82492 61.446849 
L 262.123604 61.351877 
L 261.423129 61.256954 
L 260.722654 61.16208 
L 260.021338 61.067256 
L 259.320862 60.972484 
L 258.620387 60.878307 
L 257.919071 60.784188 
L 257.218596 60.702331 
L 256.518121 60.620532 
L 255.816805 60.538785 
L 255.116329 60.45709 
L 254.415854 60.375456 
L 253.714538 60.274168 
L 253.014063 60.172944 
L 252.313588 60.071781 
L 251.612272 59.970683 
L 250.911796 59.869645 
L 250.211321 59.768676 
L 249.510005 59.66777 
L 248.80953 59.56693 
L 248.109055 59.466155 
L 247.407739 59.365452 
L 246.707263 59.264815 
L 246.006788 59.164249 
L 245.305472 59.090991 
L 244.604997 59.017805 
L 243.904522 58.944687 
L 243.203206 58.871649 
L 242.50273 58.798685 
L 241.802255 58.725792 
L 241.100939 58.652979 
L 240.400464 58.580245 
L 239.699989 58.507588 
L 238.998673 58.435013 
L 238.298198 58.362518 
L 237.597722 58.290105 
L 236.896406 58.211456 
L 236.195931 58.132896 
L 235.495456 58.054434 
L 234.79414 57.976065 
L 234.093665 57.897795 
L 233.393189 57.819626 
L 232.691873 57.741556 
L 231.991398 57.663593 
L 231.290923 57.585732 
L 230.589607 57.50798 
L 229.889132 57.430335 
L 229.188656 57.3528 
L 228.48734 57.282018 
L 227.786865 57.211349 
L 227.08639 57.140787 
L 226.385074 57.070337 
L 225.684599 57.000006 
L 224.984123 56.929789 
L 224.282807 56.85969 
L 223.582332 56.789715 
L 222.881857 56.71986 
L 222.180541 56.650135 
L 221.480066 56.580541 
L 220.77959 56.511073 
L 220.078274 56.4415 
L 219.377799 56.372054 
L 218.677324 56.302745 
L 217.976008 56.233571 
L 217.275533 56.164536 
L 216.575057 56.095641 
L 215.873741 56.026894 
L 215.173266 55.958293 
L 214.472791 55.889845 
L 213.771475 55.821548 
L 213.071 55.753412 
L 212.370524 55.685439 
L 211.669208 55.590615 
L 210.968733 55.495958 
L 210.268258 55.401477 
L 209.566942 55.307171 
L 208.866467 55.213051 
L 208.165991 55.119116 
L 207.464675 55.022762 
L 206.7642 54.926605 
L 206.063725 54.830654 
L 205.362409 54.734911 
L 204.661934 54.639385 
L 203.961458 54.544078 
L 203.260142 54.461931 
L 202.559667 54.380014 
L 201.859192 54.298333 
L 201.157876 54.216901 
L 200.457401 54.135722 
L 199.756926 54.054808 
L 199.055609 53.974163 
L 198.355134 53.892095 
L 197.654659 53.810318 
L 196.953343 53.728848 
L 196.252868 53.647691 
L 195.552393 53.566862 
L 194.851076 53.512769 
L 194.150601 53.459035 
L 193.450126 53.40568 
L 192.74881 53.352711 
L 192.048335 53.300153 
L 191.34786 53.248023 
L 190.646543 53.196341 
L 189.946068 53.145127 
L 189.245593 53.094401 
L 188.544277 53.044193 
L 187.843802 52.994529 
L 187.143327 52.945437 
L 186.44201 52.921814 
L 185.741535 52.898871 
L 185.04106 52.876638 
L 184.339744 52.855176 
L 183.639269 52.834525 
L 182.938794 52.814755 
L 182.237478 52.795922 
L 181.537002 52.778109 
L 180.836527 52.761399 
L 180.135211 52.745893 
L 179.434736 52.7317 
L 178.734261 52.71896 
L 178.032945 52.704852 
L 177.332469 52.692438 
L 176.631994 52.681925 
L 175.930678 52.67357 
L 175.230203 52.667694 
L 174.529728 52.664702 
L 173.828412 52.665122 
L 173.127936 52.639653 
L 172.427461 52.619011 
L 171.726145 52.774432 
L 171.02567 52.973258 
z
" clip-path="url(#pb4a8f71421)" style="fill: #02818a; fill-opacity: 0.25"/>
   </g>
   <g id="matplotlib.axis_1">
    <g id="xtick_1">
     <g id="line2d_1">
      <defs>
       <path id="mf778898e98" d="M 0 0 
L 0 3.5 
" style="stroke: #000000; stroke-width: 0.8"/>
      </defs>
      <g>
       <use xlink:href="#mf778898e98" x="70.116878" y="186.84327" style="stroke: #000000; stroke-width: 0.8"/>
      </g>
     </g>
     <g id="text_1">
      <!-- 1980 -->
      <g transform="translate(57.391878 201.441708) scale(0.1 -0.1)">
       <defs>
        <path id="DejaVuSans-31" d="M 794 531 
L 1825 531 
L 1825 4091 
L 703 3866 
L 703 4441 
L 1819 4666 
L 2450 4666 
L 2450 531 
L 3481 531 
L 3481 0 
L 794 0 
L 794 531 
z
" transform="scale(0.015625)"/>
        <path id="DejaVuSans-39" d="M 703 97 
L 703 672 
Q 941 559 1184 500 
Q 1428 441 1663 441 
Q 2288 441 2617 861 
Q 2947 1281 2994 2138 
Q 2813 1869 2534 1725 
Q 2256 1581 1919 1581 
Q 1219 1581 811 2004 
Q 403 2428 403 3163 
Q 403 3881 828 4315 
Q 1253 4750 1959 4750 
Q 2769 4750 3195 4129 
Q 3622 3509 3622 2328 
Q 3622 1225 3098 567 
Q 2575 -91 1691 -91 
Q 1453 -91 1209 -44 
Q 966 3 703 97 
z
M 1959 2075 
Q 2384 2075 2632 2365 
Q 2881 2656 2881 3163 
Q 2881 3666 2632 3958 
Q 2384 4250 1959 4250 
Q 1534 4250 1286 3958 
Q 1038 3666 1038 3163 
Q 1038 2656 1286 2365 
Q 1534 2075 1959 2075 
z
" transform="scale(0.015625)"/>
        <path id="DejaVuSans-38" d="M 2034 2216 
Q 1584 2216 1326 1975 
Q 1069 1734 1069 1313 
Q 1069 891 1326 650 
Q 1584 409 2034 409 
Q 2484 409 2743 651 
Q 3003 894 3003 1313 
Q 3003 1734 2745 1975 
Q 2488 2216 2034 2216 
z
M 1403 2484 
Q 997 2584 770 2862 
Q 544 3141 544 3541 
Q 544 4100 942 4425 
Q 1341 4750 2034 4750 
Q 2731 4750 3128 4425 
Q 3525 4100 3525 3541 
Q 3525 3141 3298 2862 
Q 3072 2584 2669 2484 
Q 3125 2378 3379 2068 
Q 3634 1759 3634 1313 
Q 3634 634 3220 271 
Q 2806 -91 2034 -91 
Q 1263 -91 848 271 
Q 434 634 434 1313 
Q 434 1759 690 2068 
Q 947 2378 1403 2484 
z
M 1172 3481 
Q 1172 3119 1398 2916 
Q 1625 2713 2034 2713 
Q 2441 2713 2670 2916 
Q 2900 3119 2900 3481 
Q 2900 3844 2670 4047 
Q 2441 4250 2034 4250 
Q 1625 4250 1398 4047 
Q 1172 3844 1172 3481 
z
" transform="scale(0.015625)"/>
        <path id="DejaVuSans-30" d="M 2034 4250 
Q 1547 4250 1301 3770 
Q 1056 3291 1056 2328 
Q 1056 1369 1301 889 
Q 1547 409 2034 409 
Q 2525 409 2770 889 
Q 3016 1369 3016 2328 
Q 3016 3291 2770 3770 
Q 2525 4250 2034 4250 
z
M 2034 4750 
Q 2819 4750 3233 4129 
Q 3647 3509 3647 2328 
Q 3647 1150 3233 529 
Q 2819 -91 2034 -91 
Q 1250 -91 836 529 
Q 422 1150 422 2328 
Q 422 3509 836 4129 
Q 1250 4750 2034 4750 
z
" transform="scale(0.015625)"/>
       </defs>
       <use xlink:href="#DejaVuSans-31"/>
       <use xlink:href="#DejaVuSans-39" x="63.623047"/>
       <use xlink:href="#DejaVuSans-38" x="127.246094"/>
       <use xlink:href="#DejaVuSans-30" x="190.869141"/>
      </g>
     </g>
    </g>
    <g id="xtick_2">
     <g id="line2d_2">
      <g>
       <use xlink:href="#mf778898e98" x="112.162208" y="186.84327" style="stroke: #000000; stroke-width: 0.8"/>
      </g>
     </g>
     <g id="text_2">
      <!-- 1985 -->
      <g transform="translate(99.437208 201.441708) scale(0.1 -0.1)">
       <defs>
        <path id="DejaVuSans-35" d="M 691 4666 
L 3169 4666 
L 3169 4134 
L 1269 4134 
L 1269 2991 
Q 1406 3038 1543 3061 
Q 1681 3084 1819 3084 
Q 2600 3084 3056 2656 
Q 3513 2228 3513 1497 
Q 3513 744 3044 326 
Q 2575 -91 1722 -91 
Q 1428 -91 1123 -41 
Q 819 9 494 109 
L 494 744 
Q 775 591 1075 516 
Q 1375 441 1709 441 
Q 2250 441 2565 725 
Q 2881 1009 2881 1497 
Q 2881 1984 2565 2268 
Q 2250 2553 1709 2553 
Q 1456 2553 1204 2497 
Q 953 2441 691 2322 
L 691 4666 
z
" transform="scale(0.015625)"/>
       </defs>
       <use xlink:href="#DejaVuSans-31"/>
       <use xlink:href="#DejaVuSans-39" x="63.623047"/>
       <use xlink:href="#DejaVuSans-38" x="127.246094"/>
       <use xlink:href="#DejaVuSans-35" x="190.869141"/>
      </g>
     </g>
    </g>
    <g id="xtick_3">
     <g id="line2d_3">
      <g>
       <use xlink:href="#mf778898e98" x="154.207538" y="186.84327" style="stroke: #000000; stroke-width: 0.8"/>
      </g>
     </g>
     <g id="text_3">
      <!-- 1990 -->
      <g transform="translate(141.482538 201.441708) scale(0.1 -0.1)">
       <use xlink:href="#DejaVuSans-31"/>
       <use xlink:href="#DejaVuSans-39" x="63.623047"/>
       <use xlink:href="#DejaVuSans-39" x="127.246094"/>
       <use xlink:href="#DejaVuSans-30" x="190.869141"/>
      </g>
     </g>
    </g>
    <g id="xtick_4">
     <g id="line2d_4">
      <g>
       <use xlink:href="#mf778898e98" x="196.252868" y="186.84327" style="stroke: #000000; stroke-width: 0.8"/>
      </g>
     </g>
     <g id="text_4">
      <!-- 1995 -->
      <g transform="translate(183.527868 201.441708) scale(0.1 -0.1)">
       <use xlink:href="#DejaVuSans-31"/>
       <use xlink:href="#DejaVuSans-39" x="63.623047"/>
       <use xlink:href="#DejaVuSans-39" x="127.246094"/>
       <use xlink:href="#DejaVuSans-35" x="190.869141"/>
      </g>
     </g>
    </g>
    <g id="xtick_5">
     <g id="line2d_5">
      <g>
       <use xlink:href="#mf778898e98" x="238.298198" y="186.84327" style="stroke: #000000; stroke-width: 0.8"/>
      </g>
     </g>
     <g id="text_5">
      <!-- 2000 -->
      <g transform="translate(225.573198 201.441708) scale(0.1 -0.1)">
       <defs>
        <path id="DejaVuSans-32" d="M 1228 531 
L 3431 531 
L 3431 0 
L 469 0 
L 469 531 
Q 828 903 1448 1529 
Q 2069 2156 2228 2338 
Q 2531 2678 2651 2914 
Q 2772 3150 2772 3378 
Q 2772 3750 2511 3984 
Q 2250 4219 1831 4219 
Q 1534 4219 1204 4116 
Q 875 4013 500 3803 
L 500 4441 
Q 881 4594 1212 4672 
Q 1544 4750 1819 4750 
Q 2544 4750 2975 4387 
Q 3406 4025 3406 3419 
Q 3406 3131 3298 2873 
Q 3191 2616 2906 2266 
Q 2828 2175 2409 1742 
Q 1991 1309 1228 531 
z
" transform="scale(0.015625)"/>
       </defs>
       <use xlink:href="#DejaVuSans-32"/>
       <use xlink:href="#DejaVuSans-30" x="63.623047"/>
       <use xlink:href="#DejaVuSans-30" x="127.246094"/>
       <use xlink:href="#DejaVuSans-30" x="190.869141"/>
      </g>
     </g>
    </g>
    <g id="xtick_6">
     <g id="line2d_6">
      <g>
       <use xlink:href="#mf778898e98" x="280.343527" y="186.84327" style="stroke: #000000; stroke-width: 0.8"/>
      </g>
     </g>
     <g id="text_6">
      <!-- 2005 -->
      <g transform="translate(267.618527 201.441708) scale(0.1 -0.1)">
       <use xlink:href="#DejaVuSans-32"/>
       <use xlink:href="#DejaVuSans-30" x="63.623047"/>
       <use xlink:href="#DejaVuSans-30" x="127.246094"/>
       <use xlink:href="#DejaVuSans-35" x="190.869141"/>
      </g>
     </g>
    </g>
    <g id="xtick_7">
     <g id="line2d_7">
      <g>
       <use xlink:href="#mf778898e98" x="322.388857" y="186.84327" style="stroke: #000000; stroke-width: 0.8"/>
      </g>
     </g>
     <g id="text_7">
      <!-- 2010 -->
      <g transform="translate(309.663857 201.441708) scale(0.1 -0.1)">
       <use xlink:href="#DejaVuSans-32"/>
       <use xlink:href="#DejaVuSans-30" x="63.623047"/>
       <use xlink:href="#DejaVuSans-31" x="127.246094"/>
       <use xlink:href="#DejaVuSans-30" x="190.869141"/>
      </g>
     </g>
    </g>
    <g id="xtick_8">
     <g id="line2d_8">
      <g>
       <use xlink:href="#mf778898e98" x="364.434187" y="186.84327" style="stroke: #000000; stroke-width: 0.8"/>
      </g>
     </g>
     <g id="text_8">
      <!-- 2015 -->
      <g transform="translate(351.709187 201.441708) scale(0.1 -0.1)">
       <use xlink:href="#DejaVuSans-32"/>
       <use xlink:href="#DejaVuSans-30" x="63.623047"/>
       <use xlink:href="#DejaVuSans-31" x="127.246094"/>
       <use xlink:href="#DejaVuSans-35" x="190.869141"/>
      </g>
     </g>
    </g>
    <g id="xtick_9">
     <g id="line2d_9">
      <g>
       <use xlink:href="#mf778898e98" x="406.479517" y="186.84327" style="stroke: #000000; stroke-width: 0.8"/>
      </g>
     </g>
     <g id="text_9">
      <!-- 2020 -->
      <g transform="translate(393.754517 201.441708) scale(0.1 -0.1)">
       <use xlink:href="#DejaVuSans-32"/>
       <use xlink:href="#DejaVuSans-30" x="63.623047"/>
       <use xlink:href="#DejaVuSans-32" x="127.246094"/>
       <use xlink:href="#DejaVuSans-30" x="190.869141"/>
      </g>
     </g>
    </g>
    <g id="text_10">
     <!-- Year -->
     <g transform="translate(227.710698 215.119833) scale(0.1 -0.1)">
      <defs>
       <path id="DejaVuSans-59" d="M -13 4666 
L 666 4666 
L 1959 2747 
L 3244 4666 
L 3922 4666 
L 2272 2222 
L 2272 0 
L 1638 0 
L 1638 2222 
L -13 4666 
z
" transform="scale(0.015625)"/>
       <path id="DejaVuSans-65" d="M 3597 1894 
L 3597 1613 
L 953 1613 
Q 991 1019 1311 708 
Q 1631 397 2203 397 
Q 2534 397 2845 478 
Q 3156 559 3463 722 
L 3463 178 
Q 3153 47 2828 -22 
Q 2503 -91 2169 -91 
Q 1331 -91 842 396 
Q 353 884 353 1716 
Q 353 2575 817 3079 
Q 1281 3584 2069 3584 
Q 2775 3584 3186 3129 
Q 3597 2675 3597 1894 
z
M 3022 2063 
Q 3016 2534 2758 2815 
Q 2500 3097 2075 3097 
Q 1594 3097 1305 2825 
Q 1016 2553 972 2059 
L 3022 2063 
z
" transform="scale(0.015625)"/>
       <path id="DejaVuSans-61" d="M 2194 1759 
Q 1497 1759 1228 1600 
Q 959 1441 959 1056 
Q 959 750 1161 570 
Q 1363 391 1709 391 
Q 2188 391 2477 730 
Q 2766 1069 2766 1631 
L 2766 1759 
L 2194 1759 
z
M 3341 1997 
L 3341 0 
L 2766 0 
L 2766 531 
Q 2569 213 2275 61 
Q 1981 -91 1556 -91 
Q 1019 -91 701 211 
Q 384 513 384 1019 
Q 384 1609 779 1909 
Q 1175 2209 1959 2209 
L 2766 2209 
L 2766 2266 
Q 2766 2663 2505 2880 
Q 2244 3097 1772 3097 
Q 1472 3097 1187 3025 
Q 903 2953 641 2809 
L 641 3341 
Q 956 3463 1253 3523 
Q 1550 3584 1831 3584 
Q 2591 3584 2966 3190 
Q 3341 2797 3341 1997 
z
" transform="scale(0.015625)"/>
       <path id="DejaVuSans-72" d="M 2631 2963 
Q 2534 3019 2420 3045 
Q 2306 3072 2169 3072 
Q 1681 3072 1420 2755 
Q 1159 2438 1159 1844 
L 1159 0 
L 581 0 
L 581 3500 
L 1159 3500 
L 1159 2956 
Q 1341 3275 1631 3429 
Q 1922 3584 2338 3584 
Q 2397 3584 2469 3576 
Q 2541 3569 2628 3553 
L 2631 2963 
z
" transform="scale(0.015625)"/>
      </defs>
      <use xlink:href="#DejaVuSans-59"/>
      <use xlink:href="#DejaVuSans-65" x="47.833984"/>
      <use xlink:href="#DejaVuSans-61" x="109.357422"/>
      <use xlink:href="#DejaVuSans-72" x="170.636719"/>
     </g>
    </g>
   </g>
   <g id="matplotlib.axis_2">
    <g id="ytick_1">
     <g id="line2d_10">
      <defs>
       <path id="mea0f6edc95" d="M 0 0 
L -3.5 0 
" style="stroke: #000000; stroke-width: 0.8"/>
      </defs>
      <g>
       <use xlink:href="#mea0f6edc95" x="61.707813" y="186.84327" style="stroke: #000000; stroke-width: 0.8"/>
      </g>
     </g>
     <g id="text_11">
      <!-- 5000 -->
      <g transform="translate(20.878125 190.642489) scale(0.1 -0.1)">
       <defs>
        <path id="DejaVuSans-2212" d="M 678 2272 
L 4684 2272 
L 4684 1741 
L 678 1741 
L 678 2272 
z
" transform="scale(0.015625)"/>
       </defs>
       <use xlink:href="#DejaVuSans-2212"/>
       <use xlink:href="#DejaVuSans-35" x="83.789062"/>
       <use xlink:href="#DejaVuSans-30" x="147.412109"/>
       <use xlink:href="#DejaVuSans-30" x="211.035156"/>
       <use xlink:href="#DejaVuSans-30" x="274.658203"/>
      </g>
     </g>
    </g>
    <g id="ytick_2">
     <g id="line2d_11">
      <g>
       <use xlink:href="#mea0f6edc95" x="61.707813" y="159.422413" style="stroke: #000000; stroke-width: 0.8"/>
      </g>
     </g>
     <g id="text_12">
      <!-- 4000 -->
      <g transform="translate(20.878125 163.221631) scale(0.1 -0.1)">
       <defs>
        <path id="DejaVuSans-34" d="M 2419 4116 
L 825 1625 
L 2419 1625 
L 2419 4116 
z
M 2253 4666 
L 3047 4666 
L 3047 1625 
L 3713 1625 
L 3713 1100 
L 3047 1100 
L 3047 0 
L 2419 0 
L 2419 1100 
L 313 1100 
L 313 1709 
L 2253 4666 
z
" transform="scale(0.015625)"/>
       </defs>
       <use xlink:href="#DejaVuSans-2212"/>
       <use xlink:href="#DejaVuSans-34" x="83.789062"/>
       <use xlink:href="#DejaVuSans-30" x="147.412109"/>
       <use xlink:href="#DejaVuSans-30" x="211.035156"/>
       <use xlink:href="#DejaVuSans-30" x="274.658203"/>
      </g>
     </g>
    </g>
    <g id="ytick_3">
     <g id="line2d_12">
      <g>
       <use xlink:href="#mea0f6edc95" x="61.707813" y="132.001555" style="stroke: #000000; stroke-width: 0.8"/>
      </g>
     </g>
     <g id="text_13">
      <!-- 3000 -->
      <g transform="translate(20.878125 135.800774) scale(0.1 -0.1)">
       <defs>
        <path id="DejaVuSans-33" d="M 2597 2516 
Q 3050 2419 3304 2112 
Q 3559 1806 3559 1356 
Q 3559 666 3084 287 
Q 2609 -91 1734 -91 
Q 1441 -91 1130 -33 
Q 819 25 488 141 
L 488 750 
Q 750 597 1062 519 
Q 1375 441 1716 441 
Q 2309 441 2620 675 
Q 2931 909 2931 1356 
Q 2931 1769 2642 2001 
Q 2353 2234 1838 2234 
L 1294 2234 
L 1294 2753 
L 1863 2753 
Q 2328 2753 2575 2939 
Q 2822 3125 2822 3475 
Q 2822 3834 2567 4026 
Q 2313 4219 1838 4219 
Q 1578 4219 1281 4162 
Q 984 4106 628 3988 
L 628 4550 
Q 988 4650 1302 4700 
Q 1616 4750 1894 4750 
Q 2613 4750 3031 4423 
Q 3450 4097 3450 3541 
Q 3450 3153 3228 2886 
Q 3006 2619 2597 2516 
z
" transform="scale(0.015625)"/>
       </defs>
       <use xlink:href="#DejaVuSans-2212"/>
       <use xlink:href="#DejaVuSans-33" x="83.789062"/>
       <use xlink:href="#DejaVuSans-30" x="147.412109"/>
       <use xlink:href="#DejaVuSans-30" x="211.035156"/>
       <use xlink:href="#DejaVuSans-30" x="274.658203"/>
      </g>
     </g>
    </g>
    <g id="ytick_4">
     <g id="line2d_13">
      <g>
       <use xlink:href="#mea0f6edc95" x="61.707813" y="104.580698" style="stroke: #000000; stroke-width: 0.8"/>
      </g>
     </g>
     <g id="text_14">
      <!-- 2000 -->
      <g transform="translate(20.878125 108.379916) scale(0.1 -0.1)">
       <use xlink:href="#DejaVuSans-2212"/>
       <use xlink:href="#DejaVuSans-32" x="83.789062"/>
       <use xlink:href="#DejaVuSans-30" x="147.412109"/>
       <use xlink:href="#DejaVuSans-30" x="211.035156"/>
       <use xlink:href="#DejaVuSans-30" x="274.658203"/>
      </g>
     </g>
    </g>
    <g id="ytick_5">
     <g id="line2d_14">
      <g>
       <use xlink:href="#mea0f6edc95" x="61.707813" y="77.15984" style="stroke: #000000; stroke-width: 0.8"/>
      </g>
     </g>
     <g id="text_15">
      <!-- 1000 -->
      <g transform="translate(20.878125 80.959059) scale(0.1 -0.1)">
       <use xlink:href="#DejaVuSans-2212"/>
       <use xlink:href="#DejaVuSans-31" x="83.789062"/>
       <use xlink:href="#DejaVuSans-30" x="147.412109"/>
       <use xlink:href="#DejaVuSans-30" x="211.035156"/>
       <use xlink:href="#DejaVuSans-30" x="274.658203"/>
      </g>
     </g>
    </g>
    <g id="ytick_6">
     <g id="line2d_15">
      <g>
       <use xlink:href="#mea0f6edc95" x="61.707813" y="49.738983" style="stroke: #000000; stroke-width: 0.8"/>
      </g>
     </g>
     <g id="text_16">
      <!-- 0 -->
      <g transform="translate(48.345313 53.538201) scale(0.1 -0.1)">
       <use xlink:href="#DejaVuSans-30"/>
      </g>
     </g>
    </g>
    <g id="ytick_7">
     <g id="line2d_16">
      <g>
       <use xlink:href="#mea0f6edc95" x="61.707813" y="22.318125" style="stroke: #000000; stroke-width: 0.8"/>
      </g>
     </g>
     <g id="text_17">
      <!-- 1000 -->
      <g transform="translate(29.257812 26.117344) scale(0.1 -0.1)">
       <use xlink:href="#DejaVuSans-31"/>
       <use xlink:href="#DejaVuSans-30" x="63.623047"/>
       <use xlink:href="#DejaVuSans-30" x="127.246094"/>
       <use xlink:href="#DejaVuSans-30" x="190.869141"/>
      </g>
     </g>
    </g>
    <g id="text_18">
     <!-- Mass change [Gt] -->
     <g transform="translate(14.798438 148.483823) rotate(-90) scale(0.1 -0.1)">
      <defs>
       <path id="DejaVuSans-4d" d="M 628 4666 
L 1569 4666 
L 2759 1491 
L 3956 4666 
L 4897 4666 
L 4897 0 
L 4281 0 
L 4281 4097 
L 3078 897 
L 2444 897 
L 1241 4097 
L 1241 0 
L 628 0 
L 628 4666 
z
" transform="scale(0.015625)"/>
       <path id="DejaVuSans-73" d="M 2834 3397 
L 2834 2853 
Q 2591 2978 2328 3040 
Q 2066 3103 1784 3103 
Q 1356 3103 1142 2972 
Q 928 2841 928 2578 
Q 928 2378 1081 2264 
Q 1234 2150 1697 2047 
L 1894 2003 
Q 2506 1872 2764 1633 
Q 3022 1394 3022 966 
Q 3022 478 2636 193 
Q 2250 -91 1575 -91 
Q 1294 -91 989 -36 
Q 684 19 347 128 
L 347 722 
Q 666 556 975 473 
Q 1284 391 1588 391 
Q 1994 391 2212 530 
Q 2431 669 2431 922 
Q 2431 1156 2273 1281 
Q 2116 1406 1581 1522 
L 1381 1569 
Q 847 1681 609 1914 
Q 372 2147 372 2553 
Q 372 3047 722 3315 
Q 1072 3584 1716 3584 
Q 2034 3584 2315 3537 
Q 2597 3491 2834 3397 
z
" transform="scale(0.015625)"/>
       <path id="DejaVuSans-20" transform="scale(0.015625)"/>
       <path id="DejaVuSans-63" d="M 3122 3366 
L 3122 2828 
Q 2878 2963 2633 3030 
Q 2388 3097 2138 3097 
Q 1578 3097 1268 2742 
Q 959 2388 959 1747 
Q 959 1106 1268 751 
Q 1578 397 2138 397 
Q 2388 397 2633 464 
Q 2878 531 3122 666 
L 3122 134 
Q 2881 22 2623 -34 
Q 2366 -91 2075 -91 
Q 1284 -91 818 406 
Q 353 903 353 1747 
Q 353 2603 823 3093 
Q 1294 3584 2113 3584 
Q 2378 3584 2631 3529 
Q 2884 3475 3122 3366 
z
" transform="scale(0.015625)"/>
       <path id="DejaVuSans-68" d="M 3513 2113 
L 3513 0 
L 2938 0 
L 2938 2094 
Q 2938 2591 2744 2837 
Q 2550 3084 2163 3084 
Q 1697 3084 1428 2787 
Q 1159 2491 1159 1978 
L 1159 0 
L 581 0 
L 581 4863 
L 1159 4863 
L 1159 2956 
Q 1366 3272 1645 3428 
Q 1925 3584 2291 3584 
Q 2894 3584 3203 3211 
Q 3513 2838 3513 2113 
z
" transform="scale(0.015625)"/>
       <path id="DejaVuSans-6e" d="M 3513 2113 
L 3513 0 
L 2938 0 
L 2938 2094 
Q 2938 2591 2744 2837 
Q 2550 3084 2163 3084 
Q 1697 3084 1428 2787 
Q 1159 2491 1159 1978 
L 1159 0 
L 581 0 
L 581 3500 
L 1159 3500 
L 1159 2956 
Q 1366 3272 1645 3428 
Q 1925 3584 2291 3584 
Q 2894 3584 3203 3211 
Q 3513 2838 3513 2113 
z
" transform="scale(0.015625)"/>
       <path id="DejaVuSans-67" d="M 2906 1791 
Q 2906 2416 2648 2759 
Q 2391 3103 1925 3103 
Q 1463 3103 1205 2759 
Q 947 2416 947 1791 
Q 947 1169 1205 825 
Q 1463 481 1925 481 
Q 2391 481 2648 825 
Q 2906 1169 2906 1791 
z
M 3481 434 
Q 3481 -459 3084 -895 
Q 2688 -1331 1869 -1331 
Q 1566 -1331 1297 -1286 
Q 1028 -1241 775 -1147 
L 775 -588 
Q 1028 -725 1275 -790 
Q 1522 -856 1778 -856 
Q 2344 -856 2625 -561 
Q 2906 -266 2906 331 
L 2906 616 
Q 2728 306 2450 153 
Q 2172 0 1784 0 
Q 1141 0 747 490 
Q 353 981 353 1791 
Q 353 2603 747 3093 
Q 1141 3584 1784 3584 
Q 2172 3584 2450 3431 
Q 2728 3278 2906 2969 
L 2906 3500 
L 3481 3500 
L 3481 434 
z
" transform="scale(0.015625)"/>
       <path id="DejaVuSans-5b" d="M 550 4863 
L 1875 4863 
L 1875 4416 
L 1125 4416 
L 1125 -397 
L 1875 -397 
L 1875 -844 
L 550 -844 
L 550 4863 
z
" transform="scale(0.015625)"/>
       <path id="DejaVuSans-47" d="M 3809 666 
L 3809 1919 
L 2778 1919 
L 2778 2438 
L 4434 2438 
L 4434 434 
Q 4069 175 3628 42 
Q 3188 -91 2688 -91 
Q 1594 -91 976 548 
Q 359 1188 359 2328 
Q 359 3472 976 4111 
Q 1594 4750 2688 4750 
Q 3144 4750 3555 4637 
Q 3966 4525 4313 4306 
L 4313 3634 
Q 3963 3931 3569 4081 
Q 3175 4231 2741 4231 
Q 1884 4231 1454 3753 
Q 1025 3275 1025 2328 
Q 1025 1384 1454 906 
Q 1884 428 2741 428 
Q 3075 428 3337 486 
Q 3600 544 3809 666 
z
" transform="scale(0.015625)"/>
       <path id="DejaVuSans-74" d="M 1172 4494 
L 1172 3500 
L 2356 3500 
L 2356 3053 
L 1172 3053 
L 1172 1153 
Q 1172 725 1289 603 
Q 1406 481 1766 481 
L 2356 481 
L 2356 0 
L 1766 0 
Q 1100 0 847 248 
Q 594 497 594 1153 
L 594 3053 
L 172 3053 
L 172 3500 
L 594 3500 
L 594 4494 
L 1172 4494 
z
" transform="scale(0.015625)"/>
       <path id="DejaVuSans-5d" d="M 1947 4863 
L 1947 -844 
L 622 -844 
L 622 -397 
L 1369 -397 
L 1369 4416 
L 622 4416 
L 622 4863 
L 1947 4863 
z
" transform="scale(0.015625)"/>
      </defs>
      <use xlink:href="#DejaVuSans-4d"/>
      <use xlink:href="#DejaVuSans-61" x="86.279297"/>
      <use xlink:href="#DejaVuSans-73" x="147.558594"/>
      <use xlink:href="#DejaVuSans-73" x="199.658203"/>
      <use xlink:href="#DejaVuSans-20" x="251.757812"/>
      <use xlink:href="#DejaVuSans-63" x="283.544922"/>
      <use xlink:href="#DejaVuSans-68" x="338.525391"/>
      <use xlink:href="#DejaVuSans-61" x="401.904297"/>
      <use xlink:href="#DejaVuSans-6e" x="463.183594"/>
      <use xlink:href="#DejaVuSans-67" x="526.5625"/>
      <use xlink:href="#DejaVuSans-65" x="590.039062"/>
      <use xlink:href="#DejaVuSans-20" x="651.5625"/>
      <use xlink:href="#DejaVuSans-5b" x="683.349609"/>
      <use xlink:href="#DejaVuSans-47" x="722.363281"/>
      <use xlink:href="#DejaVuSans-74" x="799.853516"/>
      <use xlink:href="#DejaVuSans-5d" x="839.0625"/>
     </g>
    </g>
   </g>
   <g id="line2d_17">
    <path d="M 61.707813 50.012993 
L 69.416403 53.027109 
L 77.825469 50.700063 
L 94.643601 50.846406 
L 103.052667 52.000216 
L 114.96495 49.919603 
L 119.870799 49.157158 
L 128.98034 51.152294 
L 136.688931 52.138398 
L 145.097997 50.612681 
L 154.207538 51.952326 
L 161.916129 54.121335 
L 171.02567 53.423662 
L 179.434736 51.711459 
L 187.843802 50.865732 
L 196.953343 51.146863 
L 204.661934 51.97126 
L 212.370524 53.855277 
L 222.180541 52.635499 
L 230.589607 52.16924 
L 238.298198 52.017286 
L 246.006788 50.779585 
L 254.415854 52.12744 
L 263.525395 51.00122 
L 274.036728 50.830607 
L 279.643052 50.606113 
L 288.052118 47.805731 
L 296.461184 49.018719 
L 306.2712 48.139152 
L 313.279316 47.962193 
L 327.293865 51.036353 
L 330.797923 51.743338 
L 347.616055 53.243302 
L 355.324646 54.602377 
L 363.733712 53.179773 
L 372.142778 53.151946 
L 380.551843 51.740723 
L 390.36186 52.309953 
L 397.369975 53.116282 
L 411.384525 49.743469 
L 414.188107 49.038022 
L 414.188107 49.038022 
" clip-path="url(#pb4a8f71421)" style="fill: none; stroke: #d0d1e6; stroke-width: 1.5; stroke-linecap: square"/>
   </g>
   <g id="line2d_18">
    <path d="M 171.02567 53.423662 
L 173.127936 53.9317 
L 176.631994 54.99624 
L 179.434736 55.753215 
L 187.843802 57.307442 
L 198.355134 58.216619 
L 204.661934 58.486252 
L 212.370524 57.889358 
L 222.180541 60.352948 
L 231.290923 62.002009 
L 238.298198 63.10464 
L 246.006788 65.322013 
L 254.415854 65.36966 
L 264.927187 68.140768 
L 270.53267 69.30629 
L 277.540786 71.207346 
L 279.643052 71.755327 
L 288.052118 76.336771 
L 296.461184 77.203329 
L 309.074783 82.021116 
L 313.979791 83.779199 
L 320.987066 85.194199 
L 325.191599 86.335531 
L 329.396132 87.536494 
L 330.797923 88.061665 
L 338.506514 91.456052 
L 349.718321 95.825531 
L 355.324646 97.615622 
L 363.733712 102.979054 
L 370.740986 105.537798 
L 372.843253 106.384568 
L 379.150052 109.365898 
L 381.252319 110.227231 
L 388.259593 112.750503 
L 391.763651 113.999678 
L 394.566393 115.042794 
L 397.369975 116.380794 
L 398.070451 116.900476 
L 406.479517 120.408901 
L 414.188107 123.068888 
L 414.188107 123.068888 
" clip-path="url(#pb4a8f71421)" style="fill: none; stroke: #67a9cf; stroke-width: 1.5; stroke-linecap: square"/>
   </g>
   <g id="line2d_19">
    <path d="M 171.02567 53.423662 
L 173.127936 53.486042 
L 175.930678 53.749104 
L 190.646543 55.073891 
L 198.355134 56.070441 
L 220.078274 59.297904 
L 246.006788 62.67793 
L 258.620387 64.661969 
L 265.627662 65.837882 
L 270.53267 66.830781 
L 278.241261 68.630546 
L 295.759868 72.61107 
L 300.665717 74.027689 
L 306.972516 75.956497 
L 313.279316 78.185475 
L 320.987066 81.361447 
L 323.790648 82.759099 
L 332.900189 87.500072 
L 340.60878 91.43658 
L 346.91558 94.586299 
L 356.025121 99.12566 
L 363.733712 102.735158 
L 370.740986 105.270712 
L 374.945519 106.668768 
L 382.65411 109.13254 
L 388.960909 111.747785 
L 395.267709 114.832368 
L 398.070451 116.429597 
L 405.077725 117.711174 
L 407.179992 118.028689 
L 414.188107 118.683241 
L 414.188107 118.683241 
" clip-path="url(#pb4a8f71421)" style="fill: none; stroke: #02818a; stroke-width: 1.5; stroke-linecap: square"/>
   </g>
   <g id="patch_3">
    <path d="M 61.707813 186.84327 
L 61.707813 22.318125 
" style="fill: none; stroke: #000000; stroke-width: 0.8; stroke-linejoin: miter; stroke-linecap: square"/>
   </g>
   <g id="patch_4">
    <path d="M 414.888583 186.84327 
L 414.888583 22.318125 
" style="fill: none; stroke: #000000; stroke-width: 0.8; stroke-linejoin: miter; stroke-linecap: square"/>
   </g>
   <g id="patch_5">
    <path d="M 61.707813 186.84327 
L 414.888583 186.84327 
" style="fill: none; stroke: #000000; stroke-width: 0.8; stroke-linejoin: miter; stroke-linecap: square"/>
   </g>
   <g id="patch_6">
    <path d="M 61.707813 22.318125 
L 414.888583 22.318125 
" style="fill: none; stroke: #000000; stroke-width: 0.8; stroke-linejoin: miter; stroke-linecap: square"/>
   </g>
   <g id="text_19">
    <!-- West Antarctica -->
    <g transform="translate(191.080073 16.318125) scale(0.12 -0.12)">
     <defs>
      <path id="DejaVuSans-57" d="M 213 4666 
L 850 4666 
L 1831 722 
L 2809 4666 
L 3519 4666 
L 4500 722 
L 5478 4666 
L 6119 4666 
L 4947 0 
L 4153 0 
L 3169 4050 
L 2175 0 
L 1381 0 
L 213 4666 
z
" transform="scale(0.015625)"/>
      <path id="DejaVuSans-41" d="M 2188 4044 
L 1331 1722 
L 3047 1722 
L 2188 4044 
z
M 1831 4666 
L 2547 4666 
L 4325 0 
L 3669 0 
L 3244 1197 
L 1141 1197 
L 716 0 
L 50 0 
L 1831 4666 
z
" transform="scale(0.015625)"/>
      <path id="DejaVuSans-69" d="M 603 3500 
L 1178 3500 
L 1178 0 
L 603 0 
L 603 3500 
z
M 603 4863 
L 1178 4863 
L 1178 4134 
L 603 4134 
L 603 4863 
z
" transform="scale(0.015625)"/>
     </defs>
     <use xlink:href="#DejaVuSans-57"/>
     <use xlink:href="#DejaVuSans-65" x="93.001953"/>
     <use xlink:href="#DejaVuSans-73" x="154.525391"/>
     <use xlink:href="#DejaVuSans-74" x="206.625"/>
     <use xlink:href="#DejaVuSans-20" x="245.833984"/>
     <use xlink:href="#DejaVuSans-41" x="277.621094"/>
     <use xlink:href="#DejaVuSans-6e" x="346.029297"/>
     <use xlink:href="#DejaVuSans-74" x="409.408203"/>
     <use xlink:href="#DejaVuSans-61" x="448.617188"/>
     <use xlink:href="#DejaVuSans-72" x="509.896484"/>
     <use xlink:href="#DejaVuSans-63" x="548.759766"/>
     <use xlink:href="#DejaVuSans-74" x="603.740234"/>
     <use xlink:href="#DejaVuSans-69" x="642.949219"/>
     <use xlink:href="#DejaVuSans-63" x="670.732422"/>
     <use xlink:href="#DejaVuSans-61" x="725.712891"/>
    </g>
   </g>
   <g id="legend_1">
    <g id="patch_7">
     <path d="M 421.888583 128.097885 
L 503.19952 128.097885 
Q 505.19952 128.097885 505.19952 126.097885 
L 505.19952 83.06351 
Q 505.19952 81.06351 503.19952 81.06351 
L 421.888583 81.06351 
Q 419.888583 81.06351 419.888583 83.06351 
L 419.888583 126.097885 
Q 419.888583 128.097885 421.888583 128.097885 
z
" style="fill: #ffffff; opacity: 0.8; stroke: #cccccc; stroke-linejoin: miter"/>
    </g>
    <g id="line2d_20">
     <path d="M 423.888583 89.161948 
L 433.888583 89.161948 
L 443.888583 89.161948 
" style="fill: none; stroke: #d0d1e6; stroke-width: 1.5; stroke-linecap: square"/>
    </g>
    <g id="text_20">
     <!-- Surface -->
     <g transform="translate(451.888583 92.661948) scale(0.1 -0.1)">
      <defs>
       <path id="DejaVuSans-53" d="M 3425 4513 
L 3425 3897 
Q 3066 4069 2747 4153 
Q 2428 4238 2131 4238 
Q 1616 4238 1336 4038 
Q 1056 3838 1056 3469 
Q 1056 3159 1242 3001 
Q 1428 2844 1947 2747 
L 2328 2669 
Q 3034 2534 3370 2195 
Q 3706 1856 3706 1288 
Q 3706 609 3251 259 
Q 2797 -91 1919 -91 
Q 1588 -91 1214 -16 
Q 841 59 441 206 
L 441 856 
Q 825 641 1194 531 
Q 1563 422 1919 422 
Q 2459 422 2753 634 
Q 3047 847 3047 1241 
Q 3047 1584 2836 1778 
Q 2625 1972 2144 2069 
L 1759 2144 
Q 1053 2284 737 2584 
Q 422 2884 422 3419 
Q 422 4038 858 4394 
Q 1294 4750 2059 4750 
Q 2388 4750 2728 4690 
Q 3069 4631 3425 4513 
z
" transform="scale(0.015625)"/>
       <path id="DejaVuSans-75" d="M 544 1381 
L 544 3500 
L 1119 3500 
L 1119 1403 
Q 1119 906 1312 657 
Q 1506 409 1894 409 
Q 2359 409 2629 706 
Q 2900 1003 2900 1516 
L 2900 3500 
L 3475 3500 
L 3475 0 
L 2900 0 
L 2900 538 
Q 2691 219 2414 64 
Q 2138 -91 1772 -91 
Q 1169 -91 856 284 
Q 544 659 544 1381 
z
M 1991 3584 
L 1991 3584 
z
" transform="scale(0.015625)"/>
       <path id="DejaVuSans-66" d="M 2375 4863 
L 2375 4384 
L 1825 4384 
Q 1516 4384 1395 4259 
Q 1275 4134 1275 3809 
L 1275 3500 
L 2222 3500 
L 2222 3053 
L 1275 3053 
L 1275 0 
L 697 0 
L 697 3053 
L 147 3053 
L 147 3500 
L 697 3500 
L 697 3744 
Q 697 4328 969 4595 
Q 1241 4863 1831 4863 
L 2375 4863 
z
" transform="scale(0.015625)"/>
      </defs>
      <use xlink:href="#DejaVuSans-53"/>
      <use xlink:href="#DejaVuSans-75" x="63.476562"/>
      <use xlink:href="#DejaVuSans-72" x="126.855469"/>
      <use xlink:href="#DejaVuSans-66" x="167.96875"/>
      <use xlink:href="#DejaVuSans-61" x="203.173828"/>
      <use xlink:href="#DejaVuSans-63" x="264.453125"/>
      <use xlink:href="#DejaVuSans-65" x="319.433594"/>
     </g>
    </g>
    <g id="line2d_21">
     <path d="M 423.888583 103.840073 
L 433.888583 103.840073 
L 443.888583 103.840073 
" style="fill: none; stroke: #67a9cf; stroke-width: 1.5; stroke-linecap: square"/>
    </g>
    <g id="text_21">
     <!-- Dynamics -->
     <g transform="translate(451.888583 107.340073) scale(0.1 -0.1)">
      <defs>
       <path id="DejaVuSans-44" d="M 1259 4147 
L 1259 519 
L 2022 519 
Q 2988 519 3436 956 
Q 3884 1394 3884 2338 
Q 3884 3275 3436 3711 
Q 2988 4147 2022 4147 
L 1259 4147 
z
M 628 4666 
L 1925 4666 
Q 3281 4666 3915 4102 
Q 4550 3538 4550 2338 
Q 4550 1131 3912 565 
Q 3275 0 1925 0 
L 628 0 
L 628 4666 
z
" transform="scale(0.015625)"/>
       <path id="DejaVuSans-79" d="M 2059 -325 
Q 1816 -950 1584 -1140 
Q 1353 -1331 966 -1331 
L 506 -1331 
L 506 -850 
L 844 -850 
Q 1081 -850 1212 -737 
Q 1344 -625 1503 -206 
L 1606 56 
L 191 3500 
L 800 3500 
L 1894 763 
L 2988 3500 
L 3597 3500 
L 2059 -325 
z
" transform="scale(0.015625)"/>
       <path id="DejaVuSans-6d" d="M 3328 2828 
Q 3544 3216 3844 3400 
Q 4144 3584 4550 3584 
Q 5097 3584 5394 3201 
Q 5691 2819 5691 2113 
L 5691 0 
L 5113 0 
L 5113 2094 
Q 5113 2597 4934 2840 
Q 4756 3084 4391 3084 
Q 3944 3084 3684 2787 
Q 3425 2491 3425 1978 
L 3425 0 
L 2847 0 
L 2847 2094 
Q 2847 2600 2669 2842 
Q 2491 3084 2119 3084 
Q 1678 3084 1418 2786 
Q 1159 2488 1159 1978 
L 1159 0 
L 581 0 
L 581 3500 
L 1159 3500 
L 1159 2956 
Q 1356 3278 1631 3431 
Q 1906 3584 2284 3584 
Q 2666 3584 2933 3390 
Q 3200 3197 3328 2828 
z
" transform="scale(0.015625)"/>
      </defs>
      <use xlink:href="#DejaVuSans-44"/>
      <use xlink:href="#DejaVuSans-79" x="77.001953"/>
      <use xlink:href="#DejaVuSans-6e" x="136.181641"/>
      <use xlink:href="#DejaVuSans-61" x="199.560547"/>
      <use xlink:href="#DejaVuSans-6d" x="260.839844"/>
      <use xlink:href="#DejaVuSans-69" x="358.251953"/>
      <use xlink:href="#DejaVuSans-63" x="386.035156"/>
      <use xlink:href="#DejaVuSans-73" x="441.015625"/>
     </g>
    </g>
    <g id="line2d_22">
     <path d="M 423.888583 118.518198 
L 433.888583 118.518198 
L 443.888583 118.518198 
" style="fill: none; stroke: #02818a; stroke-width: 1.5; stroke-linecap: square"/>
    </g>
    <g id="text_22">
     <!-- Total -->
     <g transform="translate(451.888583 122.018198) scale(0.1 -0.1)">
      <defs>
       <path id="DejaVuSans-54" d="M -19 4666 
L 3928 4666 
L 3928 4134 
L 2272 4134 
L 2272 0 
L 1638 0 
L 1638 4134 
L -19 4134 
L -19 4666 
z
" transform="scale(0.015625)"/>
       <path id="DejaVuSans-6f" d="M 1959 3097 
Q 1497 3097 1228 2736 
Q 959 2375 959 1747 
Q 959 1119 1226 758 
Q 1494 397 1959 397 
Q 2419 397 2687 759 
Q 2956 1122 2956 1747 
Q 2956 2369 2687 2733 
Q 2419 3097 1959 3097 
z
M 1959 3584 
Q 2709 3584 3137 3096 
Q 3566 2609 3566 1747 
Q 3566 888 3137 398 
Q 2709 -91 1959 -91 
Q 1206 -91 779 398 
Q 353 888 353 1747 
Q 353 2609 779 3096 
Q 1206 3584 1959 3584 
z
" transform="scale(0.015625)"/>
       <path id="DejaVuSans-6c" d="M 603 4863 
L 1178 4863 
L 1178 0 
L 603 0 
L 603 4863 
z
" transform="scale(0.015625)"/>
      </defs>
      <use xlink:href="#DejaVuSans-54"/>
      <use xlink:href="#DejaVuSans-6f" x="44.083984"/>
      <use xlink:href="#DejaVuSans-74" x="105.265625"/>
      <use xlink:href="#DejaVuSans-61" x="144.474609"/>
      <use xlink:href="#DejaVuSans-6c" x="205.753906"/>
     </g>
    </g>
   </g>
  </g>
 </g>
 <defs>
  <clipPath id="pb4a8f71421">
   <rect x="61.707813" y="22.318125" width="353.18077" height="164.525145"/>
  </clipPath>
 </defs>
</svg>
