<?xml version="1.0" encoding="utf-8" standalone="no"?>
<!DOCTYPE svg PUBLIC "-//W3C//DTD SVG 1.1//EN"
  "http://www.w3.org/Graphics/SVG/1.1/DTD/svg11.dtd">
<svg xmlns:xlink="http://www.w3.org/1999/xlink" width="512.39952pt" height="224.39952pt" viewBox="0 0 512.39952 224.39952" xmlns="http://www.w3.org/2000/svg" version="1.1">
 <metadata>
  <rdf:RDF xmlns:dc="http://purl.org/dc/elements/1.1/" xmlns:cc="http://creativecommons.org/ns#" xmlns:rdf="http://www.w3.org/1999/02/22-rdf-syntax-ns#">
   <cc:Work>
    <dc:type rdf:resource="http://purl.org/dc/dcmitype/StillImage"/>
    <dc:date>2023-01-30T12:47:02.929914</dc:date>
    <dc:format>image/svg+xml</dc:format>
    <dc:creator>
     <cc:Agent>
      <dc:title>Matplotlib v3.5.1, https://matplotlib.org/</dc:title>
     </cc:Agent>
    </dc:creator>
   </cc:Work>
  </rdf:RDF>
 </metadata>
 <defs>
  <style type="text/css">*{stroke-linejoin: round; stroke-linecap: butt}</style>
 </defs>
 <g id="figure_1">
  <g id="patch_1">
   <path d="M 0 224.39952 
L 512.39952 224.39952 
L 512.39952 0 
L 0 0 
z
" style="fill: #ffffff"/>
  </g>
  <g id="axes_1">
   <g id="patch_2">
    <path d="M 61.707813 186.84327 
L 414.888583 186.84327 
L 414.888583 22.318125 
L 61.707813 22.318125 
z
" style="fill: #ffffff"/>
   </g>
   <g id="PolyCollection_1">
    <path d="M 61.707813 49.280748 
L 61.707813 50.048102 
L 62.408568 49.973545 
L 63.109323 49.964163 
L 63.810079 50.019471 
L 64.510834 50.029135 
L 65.21159 50.110088 
L 65.912345 50.069837 
L 66.613101 50.042369 
L 67.313856 50.004535 
L 68.014612 49.971999 
L 68.715367 49.951028 
L 69.416123 49.918667 
L 70.116878 49.879806 
L 70.817634 49.8494 
L 71.518389 49.790484 
L 72.219145 49.748914 
L 72.9199 49.726434 
L 73.620656 49.692062 
L 74.321411 49.657395 
L 75.022167 49.606926 
L 75.722922 49.569281 
L 76.423678 49.518146 
L 77.124433 49.47138 
L 77.825189 49.436901 
L 78.525944 49.392283 
L 79.2267 49.352799 
L 79.927455 49.314586 
L 80.628211 49.274346 
L 81.328966 49.249005 
L 82.029722 49.217749 
L 82.730477 49.208446 
L 83.431233 49.218994 
L 84.131988 49.226222 
L 84.832744 49.234011 
L 85.533499 49.257279 
L 86.234255 49.282007 
L 86.93501 49.308464 
L 87.635766 49.33583 
L 88.336521 49.366661 
L 89.037277 49.39474 
L 89.738032 49.424035 
L 90.438788 49.455236 
L 91.139543 49.49047 
L 91.840299 49.538729 
L 92.541054 49.587347 
L 93.24181 49.656585 
L 93.942565 49.733793 
L 94.643321 49.808197 
L 95.344076 49.871261 
L 96.044832 49.922257 
L 96.745587 49.964606 
L 97.446343 49.995165 
L 98.147098 50.017299 
L 98.847854 50.037924 
L 99.548609 50.045319 
L 100.249365 50.040558 
L 100.95012 50.035994 
L 101.650876 50.045222 
L 102.351631 50.060159 
L 103.052387 50.073209 
L 103.753142 50.081724 
L 104.453898 50.083553 
L 105.154653 50.082057 
L 105.855409 50.077187 
L 106.556164 50.07305 
L 107.25692 50.050787 
L 107.957675 50.014504 
L 108.658431 49.970774 
L 109.359186 49.921691 
L 110.059942 49.872547 
L 110.760697 49.828876 
L 111.461453 49.792175 
L 112.162208 49.734707 
L 112.862964 49.680177 
L 113.563719 49.62354 
L 114.264475 49.566422 
L 114.96523 49.516302 
L 115.665986 49.464104 
L 116.366741 49.433815 
L 117.067497 49.416642 
L 117.768252 49.39544 
L 118.469008 49.38963 
L 119.169763 49.401123 
L 119.870519 49.431601 
L 120.571274 49.468516 
L 121.27203 49.502989 
L 121.972785 49.540192 
L 122.673541 49.580662 
L 123.374296 49.629624 
L 124.075052 49.681911 
L 124.775807 49.730787 
L 125.476563 49.78527 
L 126.177318 49.852851 
L 126.878074 49.928466 
L 127.578829 50.019704 
L 128.279585 50.124458 
L 128.98034 50.227627 
L 129.681096 50.326394 
L 130.381851 50.423361 
L 131.082607 50.511985 
L 131.783362 50.588798 
L 132.484118 50.649603 
L 133.184873 50.699631 
L 133.885629 50.738206 
L 134.586384 50.777994 
L 135.28714 50.818972 
L 135.987895 50.851703 
L 136.688651 50.878555 
L 137.389406 50.895542 
L 138.090162 50.90994 
L 138.790917 50.923989 
L 139.491673 50.934745 
L 140.192428 50.937561 
L 140.893184 50.941344 
L 141.593939 50.936109 
L 142.294695 50.93163 
L 142.99545 50.938987 
L 143.696206 50.969358 
L 144.396961 50.98223 
L 145.097717 51.01103 
L 145.798472 51.032204 
L 146.499228 51.058563 
L 147.199983 51.089864 
L 147.900739 51.12473 
L 148.601494 51.166089 
L 149.30225 51.206842 
L 150.003005 51.252506 
L 150.70376 51.312546 
L 151.404516 51.388784 
L 152.105271 51.485711 
L 152.806027 51.589046 
L 153.506782 51.703077 
L 154.207538 51.822004 
L 154.908293 51.946673 
L 155.609049 52.074294 
L 156.309804 52.196239 
L 157.01056 52.311623 
L 157.711315 52.417576 
L 158.412071 52.513616 
L 159.112826 52.602795 
L 159.813582 52.689724 
L 160.514337 52.780339 
L 161.215093 52.879337 
L 161.915848 52.96126 
L 162.616604 53.036087 
L 163.317359 53.100606 
L 164.018115 53.154656 
L 164.71887 53.198029 
L 165.419626 53.231466 
L 166.120381 53.248161 
L 166.821137 53.247195 
L 167.521892 53.232899 
L 168.222648 53.207928 
L 168.923403 53.170455 
L 169.624159 53.129987 
L 170.324914 53.084484 
L 171.02567 53.017342 
L 171.726425 52.936697 
L 172.427181 52.842931 
L 173.127936 52.743317 
L 173.828692 52.62876 
L 174.529447 52.512698 
L 175.230203 52.386448 
L 175.930958 52.266716 
L 176.631714 52.151653 
L 177.332469 52.03623 
L 178.033225 51.932472 
L 178.73398 51.828124 
L 179.434736 51.721005 
L 180.135491 51.611941 
L 180.836247 51.511159 
L 181.537002 51.417596 
L 182.237758 51.316429 
L 182.938513 51.216913 
L 183.639269 51.123894 
L 184.340024 51.041734 
L 185.04078 50.980075 
L 185.741535 50.932329 
L 186.442291 50.894313 
L 187.143046 50.86945 
L 187.843802 50.848527 
L 188.544557 50.833352 
L 189.245313 50.823311 
L 189.946068 50.822095 
L 190.646824 50.834142 
L 191.347579 50.847474 
L 192.048335 50.872356 
L 192.74909 50.897147 
L 193.449846 50.930484 
L 194.150601 50.9734 
L 194.851357 51.027705 
L 195.552112 51.09245 
L 196.252868 51.163743 
L 196.953623 51.232922 
L 197.654379 51.304126 
L 198.355134 51.375784 
L 199.05589 51.444556 
L 199.756645 51.514722 
L 200.457401 51.590592 
L 201.158156 51.675072 
L 201.858912 51.769186 
L 202.559667 51.879466 
L 203.260423 52.000206 
L 203.961178 52.124448 
L 204.661934 52.242931 
L 205.362689 52.354952 
L 206.063445 52.457516 
L 206.7642 52.553056 
L 207.464956 52.641153 
L 208.165711 52.72563 
L 208.866467 52.795526 
L 209.567222 52.870052 
L 210.267978 52.936099 
L 210.968733 52.99886 
L 211.669489 53.05679 
L 212.370244 53.110141 
L 213.071 53.145223 
L 213.771755 53.162129 
L 214.472511 53.164607 
L 215.173266 53.156904 
L 215.874022 53.137795 
L 216.574777 53.109149 
L 217.275533 53.078963 
L 217.976288 53.040941 
L 218.677044 53.002725 
L 219.377799 52.963116 
L 220.078555 52.932061 
L 220.77931 52.902449 
L 221.480066 52.872827 
L 222.180821 52.842138 
L 222.881577 52.810252 
L 223.582332 52.787643 
L 224.283088 52.761976 
L 224.983843 52.741826 
L 225.684599 52.729322 
L 226.385354 52.710795 
L 227.08611 52.694859 
L 227.786865 52.690998 
L 228.487621 52.696073 
L 229.188376 52.707756 
L 229.889132 52.725456 
L 230.589887 52.735228 
L 231.290643 52.739917 
L 231.991398 52.740773 
L 232.692154 52.735921 
L 233.392909 52.720709 
L 234.093665 52.701697 
L 234.79442 52.678949 
L 235.495176 52.663859 
L 236.195931 52.650059 
L 236.896687 52.641479 
L 237.597442 52.633347 
L 238.298197 52.610669 
L 238.998953 52.572642 
L 239.699708 52.522304 
L 240.400464 52.471397 
L 241.101219 52.419603 
L 241.801975 52.350671 
L 242.50273 52.28554 
L 243.203486 52.227364 
L 243.904241 52.178755 
L 244.604997 52.132605 
L 245.305752 52.101937 
L 246.006508 52.07475 
L 246.707263 52.049473 
L 247.408019 52.022222 
L 248.108774 51.999996 
L 248.80953 51.980585 
L 249.510285 51.961674 
L 250.211041 51.941409 
L 250.911796 51.929143 
L 251.612552 51.914081 
L 252.313307 51.904533 
L 253.014063 51.903712 
L 253.714818 51.911316 
L 254.415574 51.916298 
L 255.116329 51.918488 
L 255.817085 51.916773 
L 256.51784 51.912067 
L 257.218596 51.90463 
L 257.919351 51.893784 
L 258.620107 51.873095 
L 259.320862 51.84615 
L 260.021618 51.814538 
L 260.722373 51.789668 
L 261.423129 51.775718 
L 262.123884 51.765572 
L 262.82464 51.747441 
L 263.525395 51.723044 
L 264.226151 51.691136 
L 264.926906 51.655131 
L 265.627662 51.616255 
L 266.328417 51.583341 
L 267.029173 51.55285 
L 267.729928 51.515672 
L 268.430684 51.478878 
L 269.131439 51.45324 
L 269.832195 51.443479 
L 270.53295 51.445137 
L 271.233706 51.453145 
L 271.934461 51.45495 
L 272.635217 51.455122 
L 273.335972 51.452689 
L 274.036728 51.442856 
L 274.737483 51.421603 
L 275.438239 51.383148 
L 276.138994 51.335477 
L 276.83975 51.276417 
L 277.540505 51.21302 
L 278.241261 51.149514 
L 278.942016 51.088356 
L 279.642772 51.024981 
L 280.343527 50.952925 
L 281.044283 50.869883 
L 281.745038 50.781955 
L 282.445794 50.689392 
L 283.146549 50.594329 
L 283.847305 50.494152 
L 284.54806 50.396335 
L 285.248816 50.304985 
L 285.949571 50.2207 
L 286.650327 50.150485 
L 287.351082 50.101492 
L 288.051838 50.053092 
L 288.752593 49.998329 
L 289.453349 49.936248 
L 290.154104 49.872837 
L 290.85486 49.807738 
L 291.555615 49.739088 
L 292.256371 49.674598 
L 292.957126 49.615999 
L 293.657882 49.562749 
L 294.358637 49.522149 
L 295.059393 49.490152 
L 295.760148 49.472515 
L 296.460904 49.467502 
L 297.161659 49.46905 
L 297.862415 49.472806 
L 298.56317 49.479654 
L 299.263926 49.482834 
L 299.964681 49.479677 
L 300.665437 49.469533 
L 301.366192 49.453296 
L 302.066948 49.4329 
L 302.767703 49.409793 
L 303.468459 49.38909 
L 304.169214 49.375468 
L 304.86997 49.361814 
L 305.570725 49.351104 
L 306.271481 49.34618 
L 306.972236 49.339419 
L 307.672992 49.33468 
L 308.373747 49.330637 
L 309.074503 49.328991 
L 309.775258 49.331543 
L 310.476014 49.346406 
L 311.176769 49.38222 
L 311.877525 49.436731 
L 312.57828 49.503536 
L 313.279036 49.580634 
L 313.979791 49.669175 
L 314.680547 49.764977 
L 315.381302 49.865185 
L 316.082058 49.969851 
L 316.782813 50.073976 
L 317.483569 50.179638 
L 318.184324 50.287752 
L 318.88508 50.403517 
L 319.585835 50.534541 
L 320.286591 50.678097 
L 320.987346 50.833847 
L 321.688102 50.999271 
L 322.388857 51.173405 
L 323.089613 51.348158 
L 323.790368 51.519301 
L 324.491124 51.68186 
L 325.191879 51.832009 
L 325.892635 51.969569 
L 326.59339 52.09898 
L 327.294145 52.227965 
L 327.994901 52.358955 
L 328.695656 52.491976 
L 329.396412 52.617073 
L 330.097167 52.731242 
L 330.797923 52.832239 
L 331.498678 52.921862 
L 332.199434 53.001727 
L 332.900189 53.071658 
L 333.600945 53.133501 
L 334.3017 53.185572 
L 335.002456 53.2334 
L 335.703211 53.281258 
L 336.403967 53.33393 
L 337.104722 53.38654 
L 337.805478 53.432286 
L 338.506233 53.480605 
L 339.206989 53.533354 
L 339.907744 53.586456 
L 340.6085 53.641711 
L 341.309255 53.693986 
L 342.010011 53.742599 
L 342.710766 53.790658 
L 343.411522 53.838903 
L 344.112277 53.885724 
L 344.813033 53.946158 
L 345.513788 54.018866 
L 346.214544 54.105962 
L 346.915299 54.200228 
L 347.616055 54.298802 
L 348.31681 54.400825 
L 349.017566 54.498707 
L 349.718321 54.592455 
L 350.419077 54.676717 
L 351.119832 54.740793 
L 351.820588 54.797112 
L 352.521343 54.850945 
L 353.222099 54.909943 
L 353.922854 54.971677 
L 354.62361 55.030021 
L 355.324365 55.081204 
L 356.025121 55.119141 
L 356.725876 55.147154 
L 357.426632 55.165366 
L 358.127387 55.177402 
L 358.828143 55.181344 
L 359.528898 55.185218 
L 360.229654 55.178427 
L 360.930409 55.169275 
L 361.631165 55.159408 
L 362.33192 55.153742 
L 363.032676 55.144654 
L 363.733431 55.132183 
L 364.434187 55.105985 
L 365.134942 55.075621 
L 365.835698 55.038565 
L 366.536453 54.996547 
L 367.237209 54.942679 
L 367.937964 54.880628 
L 368.63872 54.814673 
L 369.339475 54.745659 
L 370.040231 54.682723 
L 370.740986 54.628835 
L 371.441742 54.583099 
L 372.142497 54.536456 
L 372.843253 54.486053 
L 373.544008 54.432916 
L 374.244764 54.373526 
L 374.945519 54.306947 
L 375.646275 54.230425 
L 376.34703 54.147857 
L 377.047786 54.068455 
L 377.748541 53.987554 
L 378.449297 53.913333 
L 379.150052 53.851687 
L 379.850808 53.802864 
L 380.551563 53.763413 
L 381.252319 53.724943 
L 381.953074 53.695431 
L 382.65383 53.674813 
L 383.354585 53.666164 
L 384.055341 53.667838 
L 384.756096 53.670453 
L 385.456852 53.680675 
L 386.157607 53.698664 
L 386.858363 53.726891 
L 387.559118 53.769138 
L 388.259874 53.822329 
L 388.960629 53.889254 
L 389.661385 53.96289 
L 390.36214 54.033089 
L 391.062896 54.099163 
L 391.763651 54.155365 
L 392.464407 54.199001 
L 393.165162 54.226202 
L 393.865918 54.243175 
L 394.566673 54.253813 
L 395.267429 54.264358 
L 395.968184 54.269564 
L 396.66894 54.271065 
L 397.369695 54.266368 
L 398.070451 54.233547 
L 398.771206 54.17725 
L 399.471962 54.095297 
L 400.172717 53.993208 
L 400.873473 53.872254 
L 401.574228 53.73221 
L 402.274984 53.579293 
L 402.975739 53.42387 
L 403.676495 53.270767 
L 404.37725 53.120882 
L 405.078006 52.96659 
L 405.778761 52.812313 
L 406.479517 52.660229 
L 407.180272 52.509692 
L 407.881028 52.362692 
L 408.581783 52.22855 
L 409.282539 52.099844 
L 409.983294 51.974856 
L 410.68405 51.857841 
L 411.384805 51.735831 
L 412.085561 51.612435 
L 412.786316 51.481741 
L 413.487072 51.351998 
L 414.187827 51.223928 
L 414.888582 51.093049 
L 415.589338 50.963436 
L 416.290093 50.833103 
L 416.990849 50.704452 
L 417.691604 50.575533 
L 418.39236 50.448931 
L 419.093115 50.324784 
L 419.793871 50.196788 
L 420.494626 50.06885 
L 421.195382 49.939486 
L 421.896137 49.809203 
L 422.596893 49.680658 
L 423.297648 49.552019 
L 423.297648 38.843236 
L 423.297648 38.843236 
L 422.596893 38.980206 
L 421.896137 39.117269 
L 421.195382 39.252594 
L 420.494626 39.388839 
L 419.793871 39.526509 
L 419.093115 39.664121 
L 418.39236 39.805582 
L 417.691604 39.944588 
L 416.990849 40.081278 
L 416.290093 40.218235 
L 415.589338 40.35351 
L 414.888582 40.489506 
L 414.187827 40.624235 
L 413.487072 40.761773 
L 412.786316 40.897638 
L 412.085561 41.032552 
L 411.384805 41.174765 
L 410.68405 41.318364 
L 409.983294 41.466957 
L 409.282539 41.607577 
L 408.581783 41.753254 
L 407.881028 41.905866 
L 407.180272 42.057298 
L 406.479517 42.210493 
L 405.778761 42.367768 
L 405.078006 42.527573 
L 404.37725 42.694775 
L 403.676495 42.873281 
L 402.975739 43.054009 
L 402.274984 43.230291 
L 401.574228 43.394545 
L 400.873473 43.543494 
L 400.172717 43.67555 
L 399.471962 43.787571 
L 398.771206 43.873846 
L 398.070451 43.934049 
L 397.369695 43.970364 
L 396.66894 43.997467 
L 395.968184 44.008798 
L 395.267429 44.01035 
L 394.566673 44.011347 
L 393.865918 44.009657 
L 393.165162 44.003801 
L 392.464407 43.9859 
L 391.763651 43.952689 
L 391.062896 43.90177 
L 390.36214 43.838993 
L 389.661385 43.770072 
L 388.960629 43.705352 
L 388.259874 43.647442 
L 387.559118 43.599149 
L 386.858363 43.566844 
L 386.157607 43.547188 
L 385.456852 43.54272 
L 384.756096 43.549156 
L 384.055341 43.561007 
L 383.354585 43.578653 
L 382.65383 43.59891 
L 381.953074 43.625944 
L 381.252319 43.659996 
L 380.551563 43.701874 
L 379.850808 43.7579 
L 379.150052 43.82366 
L 378.449297 43.898246 
L 377.748541 43.984187 
L 377.047786 44.083384 
L 376.34703 44.191767 
L 375.646275 44.28847 
L 374.945519 44.372208 
L 374.244764 44.448993 
L 373.544008 44.517741 
L 372.843253 44.582497 
L 372.142497 44.640398 
L 371.441742 44.696476 
L 370.740986 44.755628 
L 370.040231 44.818796 
L 369.339475 44.888867 
L 368.63872 44.964705 
L 367.937964 45.045656 
L 367.237209 45.121245 
L 366.536453 45.184532 
L 365.835698 45.23848 
L 365.134942 45.279843 
L 364.434187 45.314128 
L 363.733431 45.341365 
L 363.032676 45.371141 
L 362.33192 45.398828 
L 361.631165 45.426411 
L 360.930409 45.448655 
L 360.229654 45.472519 
L 359.528898 45.493644 
L 358.828143 45.516151 
L 358.127387 45.522673 
L 357.426632 45.518522 
L 356.725876 45.504006 
L 356.025121 45.480351 
L 355.324365 45.446749 
L 354.62361 45.403217 
L 353.922854 45.354231 
L 353.222099 45.306351 
L 352.521343 45.259027 
L 351.820588 45.210513 
L 351.119832 45.161037 
L 350.419077 45.104594 
L 349.718321 45.04325 
L 349.017566 44.967942 
L 348.31681 44.876712 
L 347.616055 44.781598 
L 346.915299 44.686387 
L 346.214544 44.597992 
L 345.513788 44.520103 
L 344.813033 44.453684 
L 344.112277 44.403185 
L 343.411522 44.362366 
L 342.710766 44.335277 
L 342.010011 44.307828 
L 341.309255 44.273803 
L 340.6085 44.232996 
L 339.907744 44.186468 
L 339.206989 44.137649 
L 338.506233 44.095492 
L 337.805478 44.055189 
L 337.104722 44.01487 
L 336.403967 43.98074 
L 335.703211 43.949757 
L 335.002456 43.919545 
L 334.3017 43.886218 
L 333.600945 43.844416 
L 332.900189 43.794202 
L 332.199434 43.730423 
L 331.498678 43.654917 
L 330.797923 43.566926 
L 330.097167 43.470769 
L 329.396412 43.364929 
L 328.695656 43.252946 
L 327.994901 43.140813 
L 327.294145 43.026422 
L 326.59339 42.909918 
L 325.892635 42.787283 
L 325.191879 42.656163 
L 324.491124 42.514723 
L 323.790368 42.360386 
L 323.089613 42.193292 
L 322.388857 42.021245 
L 321.688102 41.856155 
L 320.987346 41.699241 
L 320.286591 41.555295 
L 319.585835 41.424311 
L 318.88508 41.307125 
L 318.184324 41.199495 
L 317.483569 41.10092 
L 316.782813 41.008974 
L 316.082058 40.918 
L 315.381302 40.825235 
L 314.680547 40.729424 
L 313.979791 40.636985 
L 313.279036 40.552645 
L 312.57828 40.481437 
L 311.877525 40.430925 
L 311.176769 40.40348 
L 310.476014 40.393761 
L 309.775258 40.394865 
L 309.074503 40.404763 
L 308.373747 40.418183 
L 307.672992 40.432761 
L 306.972236 40.449202 
L 306.271481 40.464468 
L 305.570725 40.480996 
L 304.86997 40.496882 
L 304.169214 40.515926 
L 303.468459 40.543325 
L 302.767703 40.573145 
L 302.066948 40.608391 
L 301.366192 40.650786 
L 300.665437 40.69465 
L 299.964681 40.729415 
L 299.263926 40.748781 
L 298.56317 40.753575 
L 297.862415 40.753918 
L 297.161659 40.752777 
L 296.460904 40.758688 
L 295.760148 40.775099 
L 295.059393 40.802192 
L 294.358637 40.841382 
L 293.657882 40.898503 
L 292.957126 40.966354 
L 292.256371 41.043183 
L 291.555615 41.120557 
L 290.85486 41.19531 
L 290.154104 41.270129 
L 289.453349 41.343169 
L 288.752593 41.410484 
L 288.051838 41.477698 
L 287.351082 41.549976 
L 286.650327 41.633899 
L 285.949571 41.719278 
L 285.248816 41.818356 
L 284.54806 41.933722 
L 283.847305 42.055221 
L 283.146549 42.172592 
L 282.445794 42.282911 
L 281.745038 42.384629 
L 281.044283 42.480007 
L 280.343527 42.566351 
L 279.642772 42.64951 
L 278.942016 42.72727 
L 278.241261 42.79995 
L 277.540505 42.871201 
L 276.83975 42.944243 
L 276.138994 43.01721 
L 275.438239 43.089146 
L 274.737483 43.145595 
L 274.036728 43.187237 
L 273.335972 43.209003 
L 272.635217 43.219696 
L 271.934461 43.22411 
L 271.233706 43.225404 
L 270.53295 43.234432 
L 269.832195 43.248711 
L 269.131439 43.271528 
L 268.430684 43.304616 
L 267.729928 43.349708 
L 267.029173 43.408267 
L 266.328417 43.474735 
L 265.627662 43.53447 
L 264.926906 43.581738 
L 264.226151 43.626274 
L 263.525395 43.663439 
L 262.82464 43.694296 
L 262.123884 43.720547 
L 261.423129 43.756252 
L 260.722373 43.796305 
L 260.021618 43.838457 
L 259.320862 43.883594 
L 258.620107 43.9337 
L 257.919351 43.97683 
L 257.218596 44.009683 
L 256.51784 44.030083 
L 255.817085 44.044271 
L 255.116329 44.051408 
L 254.415574 44.055188 
L 253.714818 44.058182 
L 253.014063 44.066377 
L 252.313307 44.074071 
L 251.612552 44.092523 
L 250.911796 44.124057 
L 250.211041 44.16674 
L 249.510285 44.201907 
L 248.80953 44.233949 
L 248.108774 44.261859 
L 247.408019 44.289918 
L 246.707263 44.31951 
L 246.006508 44.359495 
L 245.305752 44.403979 
L 244.604997 44.457313 
L 243.904241 44.511707 
L 243.203486 44.58528 
L 242.50273 44.667084 
L 241.801975 44.751101 
L 241.101219 44.827965 
L 240.400464 44.912444 
L 239.699708 44.98273 
L 238.998953 45.038162 
L 238.298197 45.085139 
L 237.597442 45.121387 
L 236.896687 45.150804 
L 236.195931 45.176068 
L 235.495176 45.201348 
L 234.79442 45.233521 
L 234.093665 45.265685 
L 233.392909 45.300794 
L 232.692154 45.326154 
L 231.991398 45.343756 
L 231.290643 45.351588 
L 230.589887 45.353381 
L 229.889132 45.34726 
L 229.188376 45.343802 
L 228.487621 45.339475 
L 227.786865 45.344313 
L 227.08611 45.35623 
L 226.385354 45.378882 
L 225.684599 45.421572 
L 224.983843 45.48104 
L 224.283088 45.534072 
L 223.582332 45.578218 
L 222.881577 45.626741 
L 222.180821 45.666956 
L 221.480066 45.707726 
L 220.77931 45.750255 
L 220.078555 45.796433 
L 219.377799 45.846192 
L 218.677044 45.895704 
L 217.976288 45.9555 
L 217.275533 46.018345 
L 216.574777 46.082666 
L 215.874022 46.131604 
L 215.173266 46.167733 
L 214.472511 46.189189 
L 213.771755 46.192776 
L 213.071 46.180667 
L 212.370244 46.151887 
L 211.669489 46.111001 
L 210.968733 46.059357 
L 210.267978 46.006791 
L 209.567222 45.952577 
L 208.866467 45.905161 
L 208.165711 45.846531 
L 207.464956 45.786357 
L 206.7642 45.70978 
L 206.063445 45.623783 
L 205.362689 45.529866 
L 204.661934 45.428665 
L 203.961178 45.319558 
L 203.260423 45.208316 
L 202.559667 45.103039 
L 201.858912 45.007282 
L 201.158156 44.925348 
L 200.457401 44.862053 
L 199.756645 44.808479 
L 199.05589 44.75608 
L 198.355134 44.69937 
L 197.654379 44.64353 
L 196.953623 44.58266 
L 196.252868 44.518625 
L 195.552112 44.462064 
L 194.851357 44.414034 
L 194.150601 44.372363 
L 193.449846 44.339585 
L 192.74909 44.317259 
L 192.048335 44.308718 
L 191.347579 44.319976 
L 190.646824 44.332624 
L 189.946068 44.351835 
L 189.245313 44.365971 
L 188.544557 44.381707 
L 187.843802 44.401414 
L 187.143046 44.426551 
L 186.442291 44.466148 
L 185.741535 44.518073 
L 185.04078 44.5942 
L 184.340024 44.68857 
L 183.639269 44.792575 
L 182.938513 44.906051 
L 182.237758 45.020106 
L 181.537002 45.133248 
L 180.836247 45.259083 
L 180.135491 45.38431 
L 179.434736 45.504625 
L 178.73398 45.626534 
L 178.033225 45.749193 
L 177.332469 45.877278 
L 176.631714 46.004911 
L 175.930958 46.151961 
L 175.230203 46.30943 
L 174.529447 46.464664 
L 173.828692 46.621323 
L 173.127936 46.757642 
L 172.427181 46.879476 
L 171.726425 46.980295 
L 171.02567 47.068627 
L 170.324914 47.1461 
L 169.624159 47.223756 
L 168.923403 47.288186 
L 168.222648 47.338659 
L 167.521892 47.380852 
L 166.821137 47.412069 
L 166.120381 47.434351 
L 165.419626 47.445019 
L 164.71887 47.439986 
L 164.018115 47.414067 
L 163.317359 47.37082 
L 162.616604 47.312683 
L 161.915848 47.244375 
L 161.215093 47.16816 
L 160.514337 47.098799 
L 159.813582 47.020255 
L 159.112826 46.942097 
L 158.412071 46.866983 
L 157.711315 46.789968 
L 157.01056 46.704478 
L 156.309804 46.602906 
L 155.609049 46.491017 
L 154.908293 46.375708 
L 154.207538 46.261681 
L 153.506782 46.155193 
L 152.806027 46.059113 
L 152.105271 45.970479 
L 151.404516 45.902067 
L 150.70376 45.844135 
L 150.003005 45.800156 
L 149.30225 45.767174 
L 148.601494 45.744667 
L 147.900739 45.728048 
L 147.199983 45.703906 
L 146.499228 45.680726 
L 145.798472 45.661681 
L 145.097717 45.647828 
L 144.396961 45.652987 
L 143.696206 45.657439 
L 142.99545 45.69562 
L 142.294695 45.725093 
L 141.593939 45.750621 
L 140.893184 45.776937 
L 140.192428 45.803877 
L 139.491673 45.81684 
L 138.790917 45.827439 
L 138.090162 45.830435 
L 137.389406 45.823814 
L 136.688651 45.812565 
L 135.987895 45.802432 
L 135.28714 45.789299 
L 134.586384 45.781359 
L 133.885629 45.773007 
L 133.184873 45.756336 
L 132.484118 45.732215 
L 131.783362 45.689651 
L 131.082607 45.630178 
L 130.381851 45.557456 
L 129.681096 45.47187 
L 128.98034 45.377833 
L 128.279585 45.287306 
L 127.578829 45.208352 
L 126.878074 45.134542 
L 126.177318 45.069407 
L 125.476563 45.022071 
L 124.775807 44.982484 
L 124.075052 44.95273 
L 123.374296 44.934347 
L 122.673541 44.911366 
L 121.972785 44.880192 
L 121.27203 44.848469 
L 120.571274 44.821281 
L 119.870519 44.810772 
L 119.169763 44.814224 
L 118.469008 44.826067 
L 117.768252 44.850276 
L 117.067497 44.893719 
L 116.366741 44.973451 
L 115.665986 45.061795 
L 114.96523 45.136383 
L 114.264475 45.212417 
L 113.563719 45.281169 
L 112.862964 45.350879 
L 112.162208 45.42218 
L 111.461453 45.488136 
L 110.760697 45.568142 
L 110.059942 45.636042 
L 109.359186 45.704081 
L 108.658431 45.778917 
L 107.957675 45.857739 
L 107.25692 45.93183 
L 106.556164 45.994304 
L 105.855409 46.045715 
L 105.154653 46.074151 
L 104.453898 46.089032 
L 103.753142 46.093572 
L 103.052387 46.092108 
L 102.351631 46.096156 
L 101.650876 46.112169 
L 100.95012 46.133582 
L 100.249365 46.152037 
L 99.548609 46.171811 
L 98.847854 46.196841 
L 98.147098 46.220045 
L 97.446343 46.220632 
L 96.745587 46.204463 
L 96.044832 46.176666 
L 95.344076 46.133111 
L 94.643321 46.083597 
L 93.942565 46.041617 
L 93.24181 46.011162 
L 92.541054 45.987731 
L 91.840299 45.967903 
L 91.139543 45.969521 
L 90.438788 45.971151 
L 89.738032 45.973253 
L 89.037277 45.968451 
L 88.336521 45.956934 
L 87.635766 45.945442 
L 86.93501 45.931593 
L 86.234255 45.921214 
L 85.533499 45.91464 
L 84.832744 45.91916 
L 84.131988 45.933193 
L 83.431233 45.979297 
L 82.730477 46.058517 
L 82.029722 46.139743 
L 81.328966 46.208022 
L 80.628211 46.282678 
L 79.927455 46.341243 
L 79.2267 46.404522 
L 78.525944 46.470634 
L 77.825189 46.534535 
L 77.124433 46.614917 
L 76.423678 46.693291 
L 75.722922 46.778593 
L 75.022167 46.888736 
L 74.321411 46.987382 
L 73.620656 47.10183 
L 72.9199 47.216573 
L 72.219145 47.343209 
L 71.518389 47.450754 
L 70.817634 47.540953 
L 70.116878 47.659662 
L 69.416123 47.769916 
L 68.715367 47.88667 
L 68.014612 48.014815 
L 67.313856 48.131393 
L 66.613101 48.242675 
L 65.912345 48.364322 
L 65.21159 48.473186 
L 64.510834 48.703254 
L 63.810079 48.862034 
L 63.109323 49.066457 
L 62.408568 49.20619 
L 61.707813 49.280748 
z
" clip-path="url(#p7b99ff345b)" style="fill: #d0d1e6; fill-opacity: 0.25"/>
   </g>
   <g id="PolyCollection_2">
    <path d="M 171.02567 49.567859 
L 171.02567 50.518111 
L 171.726145 50.590337 
L 172.427461 50.870782 
L 173.127936 51.245731 
L 173.828412 51.55462 
L 174.529728 51.864554 
L 175.230203 52.153999 
L 175.930678 52.445719 
L 176.631994 52.716829 
L 177.332469 52.951953 
L 178.032945 53.192397 
L 178.734261 53.421456 
L 179.434736 53.644307 
L 180.135211 53.863273 
L 180.836527 54.091681 
L 181.537002 54.322032 
L 182.237478 54.529696 
L 182.938794 54.7382 
L 183.639269 54.947159 
L 184.339744 55.145922 
L 185.04106 55.33731 
L 185.741535 55.507739 
L 186.44201 55.648722 
L 187.143327 55.776895 
L 187.843802 55.91127 
L 188.544277 56.039239 
L 189.245593 56.163121 
L 189.946068 56.286661 
L 190.646543 56.418764 
L 191.34786 56.542346 
L 192.048335 56.665825 
L 192.74881 56.764924 
L 193.450126 56.848829 
L 194.150601 56.92176 
L 194.851076 56.985867 
L 195.552393 57.043897 
L 196.252868 57.118813 
L 196.953343 57.18428 
L 197.654659 57.253404 
L 198.355134 57.328007 
L 199.055609 57.400918 
L 199.756926 57.476717 
L 200.457401 57.551427 
L 201.157876 57.615919 
L 201.859192 57.660464 
L 202.559667 57.691174 
L 203.260142 57.712193 
L 203.961458 57.726753 
L 204.661934 57.755996 
L 205.362409 57.793212 
L 206.063725 57.83733 
L 206.7642 57.889251 
L 207.464675 57.950547 
L 208.165991 58.028923 
L 208.866467 58.105003 
L 209.566942 58.192997 
L 210.268258 58.273027 
L 210.968733 58.354438 
L 211.669208 58.43641 
L 212.370524 58.529297 
L 213.071 58.606877 
L 213.771475 58.700976 
L 214.472791 58.810701 
L 215.173266 58.938444 
L 215.873741 59.080802 
L 216.575057 59.235883 
L 217.275533 59.406527 
L 217.976008 59.575203 
L 218.677324 59.740551 
L 219.377799 59.895208 
L 220.078274 60.050133 
L 220.77959 60.201281 
L 221.480066 60.348809 
L 222.180541 60.494796 
L 222.881857 60.640097 
L 223.582332 60.793678 
L 224.282807 60.942677 
L 224.984123 61.100416 
L 225.684599 61.264357 
L 226.385074 61.411348 
L 227.08639 61.538244 
L 227.786865 61.654304 
L 228.48734 61.763174 
L 229.188656 61.86281 
L 229.889132 61.970272 
L 230.589607 62.075527 
L 231.290923 62.188572 
L 231.991398 62.307528 
L 232.691873 62.436077 
L 233.393189 62.57234 
L 234.093665 62.718111 
L 234.79414 62.861 
L 235.495456 63.003594 
L 236.195931 63.13935 
L 236.896406 63.274834 
L 237.597722 63.414212 
L 238.298198 63.553456 
L 238.998673 63.702859 
L 239.699989 63.860788 
L 240.400464 64.032956 
L 241.100939 64.218684 
L 241.802255 64.397687 
L 242.50273 64.583309 
L 243.203206 64.766415 
L 243.904522 64.941126 
L 244.604997 65.097326 
L 245.305472 65.251718 
L 246.006788 65.397422 
L 246.707263 65.565905 
L 247.407739 65.724546 
L 248.109055 65.881427 
L 248.80953 66.037963 
L 249.510005 66.198316 
L 250.211321 66.361626 
L 250.911796 66.531496 
L 251.612272 66.690922 
L 252.313588 66.837641 
L 253.014063 66.973668 
L 253.714538 67.109597 
L 254.415854 67.240743 
L 255.116329 67.352511 
L 255.816805 67.467191 
L 256.518121 67.588614 
L 257.218596 67.715966 
L 257.919071 67.855105 
L 258.620387 68.016635 
L 259.320862 68.185025 
L 260.021338 68.349428 
L 260.722654 68.51039 
L 261.423129 68.668565 
L 262.123604 68.822359 
L 262.82492 68.967897 
L 263.525395 69.140047 
L 264.225871 69.323343 
L 264.927187 69.511418 
L 265.627662 69.701758 
L 266.328137 69.900712 
L 267.029453 70.104315 
L 267.729928 70.300472 
L 268.430404 70.490282 
L 269.13172 70.669205 
L 269.832195 70.875134 
L 270.53267 71.073747 
L 271.233986 71.266755 
L 271.934461 71.450055 
L 272.634937 71.634888 
L 273.336253 71.825403 
L 274.036728 72.023912 
L 274.737203 72.238099 
L 275.438519 72.464878 
L 276.138994 72.705198 
L 276.839469 72.947044 
L 277.540786 73.188492 
L 278.241261 73.428364 
L 278.941736 73.6673 
L 279.643052 73.908575 
L 280.343527 74.150652 
L 281.044002 74.39532 
L 281.745319 74.647138 
L 282.445794 74.904345 
L 283.146269 75.167794 
L 283.847585 75.437212 
L 284.54806 75.710026 
L 285.248535 75.980124 
L 285.949852 76.240067 
L 286.650327 76.490035 
L 287.350802 76.739641 
L 288.052118 76.978328 
L 288.752593 77.223968 
L 289.453068 77.470619 
L 290.154385 77.721997 
L 290.85486 77.974316 
L 291.555335 78.226684 
L 292.256651 78.48202 
L 292.957126 78.738889 
L 293.657601 78.991804 
L 294.358917 79.237239 
L 295.059393 79.468997 
L 295.759868 79.691117 
L 296.461184 79.904978 
L 297.161659 80.124006 
L 297.862134 80.338503 
L 298.56345 80.556561 
L 299.263926 80.776568 
L 299.964401 81.007753 
L 300.665717 81.251624 
L 301.366192 81.504098 
L 302.066667 81.756709 
L 302.767983 82.004689 
L 303.468459 82.248881 
L 304.168934 82.491925 
L 304.87025 82.729111 
L 305.570725 82.986696 
L 306.2712 83.246235 
L 306.972516 83.505607 
L 307.672992 83.766607 
L 308.373467 84.027392 
L 309.074783 84.288905 
L 309.775258 84.548549 
L 310.475733 84.80293 
L 311.177049 85.049782 
L 311.877525 85.282954 
L 312.578 85.510396 
L 313.279316 85.719391 
L 313.979791 85.927393 
L 314.680266 86.134138 
L 315.381582 86.338911 
L 316.082058 86.545685 
L 316.782533 86.753923 
L 317.483849 86.962201 
L 318.184324 87.166766 
L 318.884799 87.368024 
L 319.586115 87.564943 
L 320.286591 87.754574 
L 320.987066 87.949343 
L 321.688382 88.134207 
L 322.388857 88.34621 
L 323.089332 88.556469 
L 323.790648 88.773107 
L 324.491124 88.995281 
L 325.191599 89.221049 
L 325.892915 89.453065 
L 326.59339 89.690729 
L 327.293865 89.963023 
L 327.995181 90.230533 
L 328.695656 90.499293 
L 329.396132 90.766447 
L 330.097448 91.038127 
L 330.797923 91.329818 
L 331.498398 91.626282 
L 332.199714 91.932118 
L 332.900189 92.245666 
L 333.600665 92.570615 
L 334.301981 92.902161 
L 335.002456 93.239775 
L 335.702931 93.580746 
L 336.404247 93.921799 
L 337.104722 94.259102 
L 337.805198 94.588901 
L 338.506514 94.916645 
L 339.206989 95.221573 
L 339.907464 95.521035 
L 340.60878 95.821289 
L 341.309255 96.12513 
L 342.009731 96.458703 
L 342.711047 96.797304 
L 343.411522 97.118098 
L 344.111997 97.429036 
L 344.813313 97.730721 
L 345.513788 98.021505 
L 346.214264 98.30443 
L 346.91558 98.578778 
L 347.616055 98.848835 
L 348.31653 99.120528 
L 349.017846 99.395538 
L 349.718321 99.67995 
L 350.418797 99.972878 
L 351.120113 100.269547 
L 351.820588 100.573396 
L 352.521063 100.879405 
L 353.222379 101.187319 
L 353.922854 101.495684 
L 354.62333 101.804263 
L 355.324646 102.118469 
L 356.025121 102.425173 
L 356.725596 102.743773 
L 357.426912 103.070077 
L 358.127387 103.404238 
L 358.827863 103.7484 
L 359.529179 104.105047 
L 360.229654 104.461081 
L 360.930129 104.819508 
L 361.631445 105.176959 
L 362.33192 105.537232 
L 363.032395 105.896076 
L 363.733712 106.254562 
L 364.434187 106.555213 
L 365.134662 106.855878 
L 365.835978 107.161731 
L 366.536453 107.478843 
L 367.236928 107.804268 
L 367.938245 108.13904 
L 368.63872 108.47617 
L 369.339195 108.810129 
L 370.040511 109.138333 
L 370.740986 109.461442 
L 371.441461 109.778541 
L 372.142778 110.091986 
L 372.843253 110.386237 
L 373.543728 110.687079 
L 374.245044 110.991422 
L 374.945519 111.300582 
L 375.645994 111.611928 
L 376.347311 111.92611 
L 377.047786 112.247109 
L 377.748261 112.557773 
L 378.449577 112.855023 
L 379.150052 113.138141 
L 379.850527 113.406637 
L 380.551843 113.664982 
L 381.252319 113.980526 
L 381.952794 114.300472 
L 382.65411 114.616357 
L 383.354585 114.9278 
L 384.05506 115.232146 
L 384.756376 115.535498 
L 385.456852 115.837941 
L 386.157327 116.133999 
L 386.858643 116.419772 
L 387.559118 116.697941 
L 388.259593 116.959255 
L 388.960909 117.216231 
L 389.661385 117.488685 
L 390.36186 117.754836 
L 391.063176 118.024964 
L 391.763651 118.302161 
L 392.464126 118.595697 
L 393.165442 118.903946 
L 393.865918 119.222126 
L 394.566393 119.650468 
L 395.267709 120.081598 
L 395.968184 120.514535 
L 396.668659 120.950983 
L 397.369975 121.392885 
L 398.070451 121.797297 
L 398.770926 122.019332 
L 399.472242 122.244889 
L 400.172717 122.49607 
L 400.873192 122.76795 
L 401.574508 123.057366 
L 402.274984 123.361596 
L 402.975459 123.676173 
L 403.676775 123.993982 
L 404.37725 124.308189 
L 405.077725 124.613818 
L 405.779041 124.912911 
L 406.479517 125.209591 
L 407.179992 125.442027 
L 407.881308 125.672025 
L 408.581783 125.900711 
L 409.282258 126.122685 
L 409.983574 126.339802 
L 410.68405 126.562047 
L 411.384525 126.781017 
L 412.085841 126.99905 
L 412.786316 127.212328 
L 413.486791 127.426192 
L 414.188107 127.641107 
L 414.188107 111.201841 
L 414.188107 111.201841 
L 413.486791 111.020237 
L 412.786316 110.837583 
L 412.085841 110.654341 
L 411.384525 110.475856 
L 410.68405 110.298307 
L 409.983574 110.124033 
L 409.282258 109.944632 
L 408.581783 109.761313 
L 407.881308 109.572334 
L 407.179992 109.372991 
L 406.479517 109.170784 
L 405.779041 108.906043 
L 405.077725 108.638992 
L 404.37725 108.370297 
L 403.676775 108.103281 
L 402.975459 107.8321 
L 402.274984 107.55981 
L 401.574508 107.291711 
L 400.873192 107.036973 
L 400.172717 106.801301 
L 399.472242 106.585799 
L 398.770926 106.389986 
L 398.070451 106.218926 
L 397.369975 105.841825 
L 396.668659 105.439641 
L 395.968184 105.036576 
L 395.267709 104.633058 
L 394.566393 104.234752 
L 393.865918 103.836962 
L 393.165442 103.550428 
L 392.464126 103.272164 
L 391.763651 103.008868 
L 391.063176 102.755445 
L 390.36186 102.506274 
L 389.661385 102.258236 
L 388.960909 102.009362 
L 388.259593 101.77865 
L 387.559118 101.541242 
L 386.858643 101.292961 
L 386.157327 101.037428 
L 385.456852 100.776249 
L 384.756376 100.511745 
L 384.05506 100.244629 
L 383.354585 99.978419 
L 382.65411 99.699624 
L 381.952794 99.411842 
L 381.252319 99.115728 
L 380.551843 98.818757 
L 379.850527 98.587948 
L 379.150052 98.347451 
L 378.449577 98.089686 
L 377.748261 97.816803 
L 377.047786 97.535162 
L 376.347311 97.250613 
L 375.645994 96.966339 
L 374.945519 96.682425 
L 374.245044 96.404078 
L 373.543728 96.129716 
L 372.843253 95.860328 
L 372.142778 95.592811 
L 371.441461 95.307481 
L 370.740986 95.020148 
L 370.040511 94.724227 
L 369.339195 94.421778 
L 368.63872 94.113168 
L 367.938245 93.806103 
L 367.236928 93.500053 
L 366.536453 93.200537 
L 365.835978 92.911062 
L 365.134662 92.627243 
L 364.434187 92.34803 
L 363.733712 92.066834 
L 363.032395 91.739269 
L 362.33192 91.412244 
L 361.631445 91.086139 
L 360.930129 90.756225 
L 360.229654 90.42682 
L 359.529179 90.099472 
L 358.827863 89.779736 
L 358.127387 89.461507 
L 357.426912 89.151778 
L 356.725596 88.847257 
L 356.025121 88.551282 
L 355.324646 88.266867 
L 354.62333 87.977301 
L 353.922854 87.69465 
L 353.222379 87.415509 
L 352.521063 87.135256 
L 351.820588 86.85228 
L 351.120113 86.572439 
L 350.418797 86.299706 
L 349.718321 86.040615 
L 349.017846 85.786045 
L 348.31653 85.532509 
L 347.616055 85.282625 
L 346.91558 85.031829 
L 346.214264 84.77892 
L 345.513788 84.520256 
L 344.813313 84.25082 
L 344.111997 83.972969 
L 343.411522 83.682495 
L 342.711047 83.393431 
L 342.009731 83.086277 
L 341.309255 82.78017 
L 340.60878 82.501792 
L 339.907464 82.225004 
L 339.206989 81.945865 
L 338.506514 81.665935 
L 337.805198 81.36139 
L 337.104722 81.053071 
L 336.404247 80.746627 
L 335.702931 80.438652 
L 335.002456 80.127839 
L 334.301981 79.818409 
L 333.600665 79.512092 
L 332.900189 79.213246 
L 332.199714 78.921688 
L 331.498398 78.636307 
L 330.797923 78.358314 
L 330.097448 78.091362 
L 329.396132 77.847563 
L 328.695656 77.612883 
L 327.995181 77.382359 
L 327.293865 77.150072 
L 326.59339 76.922923 
L 325.892915 76.727195 
L 325.191599 76.538811 
L 324.491124 76.361653 
L 323.790648 76.190033 
L 323.089332 76.020876 
L 322.388857 75.856033 
L 321.688382 75.698099 
L 320.987066 75.565092 
L 320.286591 75.426719 
L 319.586115 75.290634 
L 318.884799 75.145545 
L 318.184324 74.990025 
L 317.483849 74.831518 
L 316.782533 74.671924 
L 316.082058 74.512044 
L 315.381582 74.353256 
L 314.680266 74.190199 
L 313.979791 74.022654 
L 313.279316 73.842906 
L 312.578 73.661756 
L 311.877525 73.472165 
L 311.177049 73.283111 
L 310.475733 73.079745 
L 309.775258 72.860734 
L 309.074783 72.6336 
L 308.373467 72.40376 
L 307.672992 72.173307 
L 306.972516 71.943394 
L 306.2712 71.712343 
L 305.570725 71.483206 
L 304.87025 71.250281 
L 304.168934 71.037833 
L 303.468459 70.826007 
L 302.767983 70.609218 
L 302.066667 70.390669 
L 301.366192 70.175121 
L 300.665717 69.9642 
L 299.964401 69.759618 
L 299.263926 69.560753 
L 298.56345 69.366211 
L 297.862134 69.173858 
L 297.161659 68.981839 
L 296.461184 68.790218 
L 295.759868 68.608036 
L 295.059393 68.417084 
L 294.358917 68.215446 
L 293.657601 68.007699 
L 292.957126 67.79017 
L 292.256651 67.570912 
L 291.555335 67.348879 
L 290.85486 67.124516 
L 290.154385 66.903345 
L 289.453068 66.683375 
L 288.752593 66.46495 
L 288.052118 66.253178 
L 287.350802 66.057697 
L 286.650327 65.859921 
L 285.949852 65.645206 
L 285.248535 65.419353 
L 284.54806 65.189801 
L 283.847585 64.957398 
L 283.146269 64.723597 
L 282.445794 64.49498 
L 281.745319 64.267913 
L 281.044002 64.045103 
L 280.343527 63.826468 
L 279.643052 63.617105 
L 278.941736 63.4121 
L 278.241261 63.207892 
L 277.540786 62.999865 
L 276.839469 62.791941 
L 276.138994 62.587194 
L 275.438519 62.392215 
L 274.737203 62.20441 
L 274.036728 62.030379 
L 273.336253 61.864475 
L 272.634937 61.703738 
L 271.934461 61.54568 
L 271.233986 61.38802 
L 270.53267 61.232875 
L 269.832195 61.071819 
L 269.13172 60.901695 
L 268.430404 60.754145 
L 267.729928 60.596784 
L 267.029453 60.444531 
L 266.328137 60.297581 
L 265.627662 60.147907 
L 264.927187 59.991755 
L 264.225871 59.837945 
L 263.525395 59.686259 
L 262.82492 59.541998 
L 262.123604 59.425849 
L 261.423129 59.316486 
L 260.722654 59.203352 
L 260.021338 59.079987 
L 259.320862 58.950336 
L 258.620387 58.825134 
L 257.919071 58.706306 
L 257.218596 58.609639 
L 256.518121 58.517047 
L 255.816805 58.427469 
L 255.116329 58.34119 
L 254.415854 58.259263 
L 253.714538 58.159813 
L 253.014063 58.062568 
L 252.313588 57.957495 
L 251.612272 57.84363 
L 250.911796 57.723877 
L 250.211321 57.606214 
L 249.510005 57.481508 
L 248.80953 57.358325 
L 248.109055 57.234956 
L 247.407739 57.108968 
L 246.707263 56.978183 
L 246.006788 56.848819 
L 245.305472 56.744731 
L 244.604997 56.636998 
L 243.904522 56.514532 
L 243.203206 56.388939 
L 242.50273 56.253943 
L 241.802255 56.112295 
L 241.100939 55.967379 
L 240.400464 55.838711 
L 239.699989 55.711564 
L 238.998673 55.585601 
L 238.298198 55.471878 
L 237.597722 55.374073 
L 236.896406 55.283556 
L 236.195931 55.192851 
L 235.495456 55.09718 
L 234.79414 55.000165 
L 234.093665 54.895796 
L 233.393189 54.795099 
L 232.691873 54.698443 
L 231.991398 54.612192 
L 231.290923 54.531825 
L 230.589607 54.45542 
L 229.889132 54.384222 
L 229.188656 54.320496 
L 228.48734 54.258074 
L 227.786865 54.189113 
L 227.08639 54.111328 
L 226.385074 54.021567 
L 225.684599 53.929274 
L 224.984123 53.843175 
L 224.282807 53.749664 
L 223.582332 53.650782 
L 222.881857 53.555163 
L 222.180541 53.450295 
L 221.480066 53.346756 
L 220.77959 53.244064 
L 220.078274 53.141799 
L 219.377799 53.038285 
L 218.677324 52.926197 
L 217.976008 52.815909 
L 217.275533 52.706094 
L 216.575057 52.604606 
L 215.873741 52.504481 
L 215.173266 52.413976 
L 214.472791 52.334936 
L 213.771475 52.265927 
L 213.071 52.211418 
L 212.370524 52.175235 
L 211.669208 52.130799 
L 210.968733 52.090785 
L 210.268258 52.055961 
L 209.566942 52.024692 
L 208.866467 52.003069 
L 208.165991 51.976114 
L 207.464675 51.962164 
L 206.7642 51.951157 
L 206.063725 51.947638 
L 205.362409 51.951261 
L 204.661934 51.964723 
L 203.961458 51.984579 
L 203.260142 52.023853 
L 202.559667 52.060119 
L 201.859192 52.086096 
L 201.157876 52.095918 
L 200.457401 52.097413 
L 199.756926 52.090798 
L 199.055609 52.078391 
L 198.355134 52.062341 
L 197.654659 52.05 
L 196.953343 52.036754 
L 196.252868 52.020993 
L 195.552393 52.00932 
L 194.851076 52.017934 
L 194.150601 52.015827 
L 193.450126 52.002262 
L 192.74881 51.979639 
L 192.048335 51.94988 
L 191.34786 51.924793 
L 190.646543 51.886869 
L 189.946068 51.849617 
L 189.245593 51.795615 
L 188.544277 51.731529 
L 187.843802 51.662427 
L 187.143327 51.588551 
L 186.44201 51.538191 
L 185.741535 51.475159 
L 185.04106 51.407642 
L 184.339744 51.328928 
L 183.639269 51.227452 
L 182.938794 51.115842 
L 182.237478 50.996703 
L 181.537002 50.875984 
L 180.836527 50.772864 
L 180.135211 50.661188 
L 179.434736 50.536701 
L 178.734261 50.416451 
L 178.032945 50.301067 
L 177.332469 50.192233 
L 176.631994 50.066865 
L 175.930678 49.958427 
L 175.230203 49.85551 
L 174.529728 49.746035 
L 173.828412 49.665812 
L 173.127936 49.550011 
L 172.427461 49.529698 
L 171.726145 49.640085 
L 171.02567 49.567859 
z
" clip-path="url(#p7b99ff345b)" style="fill: #67a9cf; fill-opacity: 0.25"/>
   </g>
   <g id="PolyCollection_3">
    <path d="M 171.02567 49.592581 
L 171.02567 50.493389 
L 171.726145 50.66769 
L 172.427461 50.79858 
L 173.127936 50.951753 
L 173.828412 51.1001 
L 174.529728 51.217958 
L 175.230203 51.332399 
L 175.930678 51.44396 
L 176.631994 51.553038 
L 177.332469 51.659963 
L 178.032945 51.764982 
L 178.734261 51.868312 
L 179.434736 51.969643 
L 180.135211 52.069526 
L 180.836527 52.16809 
L 181.537002 52.265456 
L 182.237478 52.361714 
L 182.938794 52.456958 
L 183.639269 52.551258 
L 184.339744 52.644684 
L 185.04106 52.737292 
L 185.741535 52.829136 
L 186.44201 52.920264 
L 187.143327 53.010717 
L 187.843802 53.123814 
L 188.544277 53.236338 
L 189.245593 53.34832 
L 189.946068 53.459788 
L 190.646543 53.570763 
L 191.34786 53.681269 
L 192.048335 53.791328 
L 192.74881 53.90096 
L 193.450126 54.010185 
L 194.150601 54.119019 
L 194.851076 54.227473 
L 195.552393 54.335569 
L 196.252868 54.469183 
L 196.953343 54.602473 
L 197.654659 54.735445 
L 198.355134 54.86811 
L 199.055609 55.000484 
L 199.756926 55.130612 
L 200.457401 55.260467 
L 201.157876 55.39006 
L 201.859192 55.519396 
L 202.559667 55.648488 
L 203.260142 55.777339 
L 203.961458 55.905959 
L 204.661934 56.047634 
L 205.362409 56.189085 
L 206.063725 56.330319 
L 206.7642 56.471344 
L 207.464675 56.612164 
L 208.165991 56.752786 
L 208.866467 56.890409 
L 209.566942 57.027848 
L 210.268258 57.165106 
L 210.968733 57.302182 
L 211.669208 57.439089 
L 212.370524 57.575823 
L 213.071 57.685471 
L 213.771475 57.794963 
L 214.472791 57.904292 
L 215.173266 58.013466 
L 215.873741 58.122491 
L 216.575057 58.231366 
L 217.275533 58.340098 
L 217.976008 58.448684 
L 218.677324 58.557136 
L 219.377799 58.665449 
L 220.078274 58.77363 
L 220.77959 58.881679 
L 221.480066 58.990282 
L 222.180541 59.098753 
L 222.881857 59.207093 
L 223.582332 59.315309 
L 224.282807 59.4234 
L 224.984123 59.531372 
L 225.684599 59.639221 
L 226.385074 59.746955 
L 227.08639 59.854576 
L 227.786865 59.96208 
L 228.48734 60.069476 
L 229.188656 60.176766 
L 229.889132 60.291577 
L 230.589607 60.406278 
L 231.290923 60.520873 
L 231.991398 60.635358 
L 232.691873 60.749741 
L 233.393189 60.864018 
L 234.093665 60.978195 
L 234.79414 61.092271 
L 235.495456 61.206249 
L 236.195931 61.320133 
L 236.896406 61.433919 
L 237.597722 61.547611 
L 238.298198 61.653324 
L 238.998673 61.758949 
L 239.699989 61.864495 
L 240.400464 61.969964 
L 241.100939 62.07535 
L 241.802255 62.180657 
L 242.50273 62.28589 
L 243.203206 62.391047 
L 243.904522 62.496129 
L 244.604997 62.601137 
L 245.305472 62.706071 
L 246.006788 62.810934 
L 246.707263 62.942952 
L 247.407739 63.074898 
L 248.109055 63.206779 
L 248.80953 63.338588 
L 249.510005 63.470332 
L 250.211321 63.602009 
L 250.911796 63.733624 
L 251.612272 63.86517 
L 252.313588 63.996656 
L 253.014063 64.128076 
L 253.714538 64.259435 
L 254.415854 64.390732 
L 255.116329 64.501202 
L 255.816805 64.611618 
L 256.518121 64.721976 
L 257.218596 64.832282 
L 257.919071 64.942536 
L 258.620387 65.064953 
L 259.320862 65.187319 
L 260.021338 65.309852 
L 260.722654 65.432332 
L 261.423129 65.554764 
L 262.123604 65.677146 
L 262.82492 65.799478 
L 263.525395 65.946635 
L 264.225871 66.096084 
L 264.927187 66.24328 
L 265.627662 66.389693 
L 266.328137 66.533751 
L 267.029453 66.676387 
L 267.729928 66.818309 
L 268.430404 66.966313 
L 269.13172 67.115392 
L 269.832195 67.301947 
L 270.53267 67.489933 
L 271.233986 67.677593 
L 271.934461 67.862352 
L 272.634937 68.045672 
L 273.336253 68.228604 
L 274.036728 68.409242 
L 274.737203 68.586641 
L 275.438519 68.761981 
L 276.138994 68.935514 
L 276.839469 69.108444 
L 277.540786 69.280482 
L 278.241261 69.452502 
L 278.941736 69.622135 
L 279.643052 69.789156 
L 280.343527 69.951506 
L 281.044002 70.112459 
L 281.745319 70.271968 
L 282.445794 70.430678 
L 283.146269 70.587273 
L 283.847585 70.743119 
L 284.54806 70.899023 
L 285.248535 71.059043 
L 285.949852 71.224352 
L 286.650327 71.393468 
L 287.350802 71.565435 
L 288.052118 71.736807 
L 288.752593 71.919227 
L 289.453068 72.101578 
L 290.154385 72.283329 
L 290.85486 72.464258 
L 291.555335 72.645019 
L 292.256651 72.826929 
L 292.957126 73.011841 
L 293.657601 73.201572 
L 294.358917 73.394225 
L 295.059393 73.589813 
L 295.759868 73.787849 
L 296.461184 73.988306 
L 297.161659 74.203894 
L 297.862134 74.421838 
L 298.56345 74.642014 
L 299.263926 74.860476 
L 299.964401 75.076508 
L 300.665717 75.29052 
L 301.366192 75.504356 
L 302.066667 75.719253 
L 302.767983 75.935755 
L 303.468459 76.153526 
L 304.168934 76.372999 
L 304.87025 76.594069 
L 305.570725 76.839107 
L 306.2712 77.085988 
L 306.972516 77.333645 
L 307.672992 77.582065 
L 308.373467 77.832168 
L 309.074783 78.084305 
L 309.775258 78.338129 
L 310.475733 78.596058 
L 311.177049 78.858242 
L 311.877525 79.125845 
L 312.578 79.407263 
L 313.279316 79.69176 
L 313.979791 79.994382 
L 314.680266 80.298984 
L 315.381582 80.604603 
L 316.082058 80.909449 
L 316.782533 81.214347 
L 317.483849 81.52067 
L 318.184324 81.829569 
L 318.884799 82.14478 
L 319.586115 82.466616 
L 320.286591 82.795526 
L 320.987066 83.139436 
L 321.688382 83.488111 
L 322.388857 83.86882 
L 323.089332 84.256521 
L 323.790648 84.645283 
L 324.491124 85.025983 
L 325.191599 85.396581 
L 325.892915 85.763289 
L 326.59339 86.127632 
L 327.293865 86.514031 
L 327.995181 86.900525 
L 328.695656 87.286542 
L 329.396132 87.669107 
L 330.097448 88.049568 
L 330.797923 88.437809 
L 331.498398 88.824202 
L 332.199714 89.208006 
L 332.900189 89.588057 
L 333.600665 89.966684 
L 334.301981 90.34323 
L 335.002456 90.717854 
L 335.702931 91.093344 
L 336.404247 91.470293 
L 337.104722 91.846077 
L 337.805198 92.218638 
L 338.506514 92.589555 
L 339.206989 92.939768 
L 339.907464 93.290363 
L 340.60878 93.640149 
L 341.309255 93.98806 
L 342.009731 94.359324 
L 342.711047 94.730008 
L 343.411522 95.082314 
L 344.111997 95.436909 
L 344.813313 95.792264 
L 345.513788 96.152572 
L 346.214264 96.516211 
L 346.91558 96.881273 
L 347.616055 97.248726 
L 348.31653 97.618129 
L 349.017846 97.987071 
L 349.718321 98.351727 
L 350.418797 98.711659 
L 351.120113 99.068111 
L 351.820588 99.424398 
L 352.521063 99.781725 
L 353.222379 100.140658 
L 353.922854 100.500818 
L 354.62333 100.861638 
L 355.324646 101.222392 
L 356.025121 101.565421 
L 356.725596 101.910011 
L 357.426912 102.253106 
L 358.127387 102.594293 
L 358.827863 102.935332 
L 359.529179 103.275411 
L 360.229654 103.614401 
L 360.930129 103.953145 
L 361.631445 104.292138 
L 362.33192 104.630042 
L 363.032395 104.965931 
L 363.733712 105.299032 
L 364.434187 105.574439 
L 365.134662 105.843443 
L 365.835978 106.110673 
L 366.536453 106.37759 
L 367.236928 106.643079 
L 367.938245 106.906481 
L 368.63872 107.167464 
L 369.339195 107.42878 
L 370.040511 107.69004 
L 370.740986 107.953316 
L 371.441461 108.216016 
L 372.142778 108.476942 
L 372.843253 108.717708 
L 373.543728 108.957953 
L 374.245044 109.197469 
L 374.945519 109.432965 
L 375.645994 109.66257 
L 376.347311 109.88217 
L 377.047786 110.100959 
L 377.748261 110.316854 
L 378.449577 110.531732 
L 379.150052 110.743915 
L 379.850527 110.950852 
L 380.551843 111.157402 
L 381.252319 111.435872 
L 381.952794 111.726297 
L 382.65411 112.019105 
L 383.354585 112.31474 
L 384.05506 112.607828 
L 384.756376 112.904382 
L 385.456852 113.205123 
L 386.157327 113.509563 
L 386.858643 113.817993 
L 387.559118 114.130785 
L 388.259593 114.442933 
L 388.960909 114.759685 
L 389.661385 115.099806 
L 390.36186 115.437622 
L 391.063176 115.773747 
L 391.763651 116.106475 
L 392.464126 116.437461 
L 393.165442 116.76769 
L 393.865918 117.096088 
L 394.566393 117.530272 
L 395.267709 117.964583 
L 395.968184 118.39942 
L 396.668659 118.829045 
L 397.369975 119.250037 
L 398.070451 119.634958 
L 398.770926 119.789205 
L 399.472242 119.933055 
L 400.172717 120.07648 
L 400.873192 120.220834 
L 401.574508 120.365416 
L 402.274984 120.509954 
L 402.975459 120.654446 
L 403.676775 120.798899 
L 404.37725 120.942203 
L 405.077725 121.085466 
L 405.779041 121.228408 
L 406.479517 121.371309 
L 407.179992 121.453194 
L 407.881308 121.535042 
L 408.581783 121.616849 
L 409.282258 121.698616 
L 409.983574 121.780349 
L 410.68405 121.862039 
L 411.384525 121.943692 
L 412.085841 122.025308 
L 412.786316 122.106885 
L 413.486791 122.188426 
L 414.188107 122.269927 
L 414.188107 108.335201 
L 414.188107 108.335201 
L 413.486791 108.285794 
L 412.786316 108.236423 
L 412.085841 108.187092 
L 411.384525 108.137795 
L 410.68405 108.088536 
L 409.983574 108.039319 
L 409.282258 107.990139 
L 408.581783 107.940998 
L 407.881308 107.891893 
L 407.179992 107.842829 
L 406.479517 107.793806 
L 405.779041 107.684644 
L 405.077725 107.575528 
L 404.37725 107.46596 
L 403.676775 107.356432 
L 402.975459 107.245723 
L 402.274984 107.135058 
L 401.574508 107.024434 
L 400.873192 106.913854 
L 400.172717 106.803666 
L 399.472242 106.694518 
L 398.770926 106.585229 
L 398.070451 106.462883 
L 397.369975 106.13542 
L 396.668659 105.74413 
L 395.968184 105.34407 
L 395.267709 104.938798 
L 394.566393 104.534124 
L 393.865918 104.12985 
L 393.165442 103.830705 
L 392.464126 103.529317 
L 391.763651 103.226629 
L 391.063176 102.921613 
L 390.36186 102.609586 
L 389.661385 102.294095 
L 388.960909 101.97453 
L 388.259593 101.67876 
L 387.559118 101.390704 
L 386.858643 101.102492 
L 386.157327 100.821735 
L 385.456852 100.546482 
L 384.756376 100.27649 
L 384.05506 100.011811 
L 383.354585 99.750312 
L 382.65411 99.48462 
L 381.952794 99.22141 
L 381.252319 98.959338 
L 380.551843 98.705645 
L 379.850527 98.518515 
L 379.150052 98.331041 
L 378.449577 98.138574 
L 377.748261 97.943483 
L 377.047786 97.747171 
L 376.347311 97.548197 
L 375.645994 97.348609 
L 374.945519 97.143216 
L 374.245044 96.934571 
L 373.543728 96.723518 
L 372.843253 96.511423 
L 372.142778 96.29873 
L 371.441461 96.063596 
L 370.740986 95.826754 
L 370.040511 95.588058 
L 369.339195 95.351669 
L 368.63872 95.115268 
L 367.938245 94.878963 
L 367.236928 94.639182 
L 366.536453 94.396891 
L 365.835978 94.153183 
L 365.134662 93.909162 
L 364.434187 93.662933 
L 363.733712 93.409929 
L 363.032395 93.099226 
L 362.33192 92.78602 
L 361.631445 92.470798 
L 360.930129 92.154537 
L 360.229654 91.838465 
L 359.529179 91.521987 
L 358.827863 91.204316 
L 358.127387 90.885543 
L 357.426912 90.566655 
L 356.725596 90.246193 
L 356.025121 89.924544 
L 355.324646 89.604915 
L 354.62333 89.267183 
L 353.922854 88.929441 
L 353.222379 88.592479 
L 352.521063 88.256925 
L 351.820588 87.922922 
L 351.120113 87.589723 
L 350.418797 87.256256 
L 349.718321 86.918562 
L 349.017846 86.575179 
L 348.31653 86.226463 
L 347.616055 85.877148 
L 346.91558 85.52997 
L 346.214264 85.185112 
L 345.513788 84.842175 
L 344.813313 84.503136 
L 344.111997 84.168023 
L 343.411522 83.833565 
L 342.711047 83.500678 
L 342.009731 83.1501 
L 341.309255 82.799045 
L 340.60878 82.471656 
L 339.907464 82.142617 
L 339.206989 81.812692 
L 338.506514 81.483142 
L 337.805198 81.133148 
L 337.104722 80.781525 
L 336.404247 80.426822 
L 335.702931 80.071086 
L 335.002456 79.716721 
L 334.301981 79.363151 
L 333.600665 79.007955 
L 332.900189 78.650732 
L 332.199714 78.291966 
L 331.498398 77.929183 
L 330.797923 77.563509 
L 330.097448 77.195949 
L 329.396132 76.840923 
L 328.695656 76.484572 
L 327.995181 76.126151 
L 327.293865 75.767467 
L 326.59339 75.408934 
L 325.892915 75.087839 
L 325.191599 74.765465 
L 324.491124 74.441554 
L 323.790648 74.11156 
L 323.089332 73.776291 
L 322.388857 73.442088 
L 321.688382 73.113638 
L 320.987066 72.822103 
L 320.286591 72.533177 
L 319.586115 72.261829 
L 318.884799 71.993447 
L 318.184324 71.728488 
L 317.483849 71.467625 
L 316.782533 71.20847 
L 316.082058 70.950149 
L 315.381582 70.692001 
L 314.680266 70.433771 
L 313.979791 70.175845 
L 313.279316 69.917836 
L 312.578 69.663881 
L 311.877525 69.410948 
L 311.177049 69.174369 
L 310.475733 68.940801 
L 309.775258 68.711582 
L 309.074783 68.485974 
L 308.373467 68.261822 
L 307.672992 68.03931 
L 306.972516 67.817994 
L 306.2712 67.597258 
L 305.570725 67.376915 
L 304.87025 67.158037 
L 304.168934 66.962172 
L 303.468459 66.767794 
L 302.767983 66.575108 
L 302.066667 66.383433 
L 301.366192 66.192962 
L 300.665717 66.003503 
L 299.964401 65.813973 
L 299.263926 65.622477 
L 298.56345 65.428003 
L 297.862134 65.231266 
L 297.161659 65.037793 
L 296.461184 64.847097 
L 295.759868 64.672936 
L 295.059393 64.502634 
L 294.358917 64.336008 
L 293.657601 64.173205 
L 292.957126 64.013588 
L 292.256651 63.857802 
L 291.555335 63.704207 
L 290.85486 63.55164 
L 290.154385 63.398994 
L 289.453068 63.245854 
L 288.752593 63.092519 
L 288.052118 62.939505 
L 287.350802 62.797391 
L 286.650327 62.65489 
L 285.949852 62.514918 
L 285.248535 62.377791 
L 284.54806 62.24488 
L 283.847585 62.114883 
L 283.146269 61.985059 
L 282.445794 61.854969 
L 281.745319 61.723686 
L 281.044002 61.591871 
L 280.343527 61.45891 
L 279.643052 61.325033 
L 278.941736 61.186909 
L 278.241261 61.047235 
L 277.540786 60.906114 
L 276.839469 60.76522 
L 276.138994 60.623583 
L 275.438519 60.481425 
L 274.737203 60.337082 
L 274.036728 60.18916 
L 273.336253 60.036985 
L 272.634937 59.881791 
L 271.934461 59.726463 
L 271.233986 59.56975 
L 270.53267 59.410273 
L 269.832195 59.251216 
L 269.13172 59.094297 
L 268.430404 58.975628 
L 267.729928 58.858346 
L 267.029453 58.747596 
L 266.328137 58.636638 
L 265.627662 58.524717 
L 264.927187 58.41078 
L 264.225871 58.296633 
L 263.525395 58.180171 
L 262.82492 58.066171 
L 262.123604 57.971199 
L 261.423129 57.876277 
L 260.722654 57.781403 
L 260.021338 57.686579 
L 259.320862 57.591807 
L 258.620387 57.49763 
L 257.919071 57.403511 
L 257.218596 57.321654 
L 256.518121 57.239855 
L 255.816805 57.158108 
L 255.116329 57.076413 
L 254.415854 56.994778 
L 253.714538 56.893491 
L 253.014063 56.792267 
L 252.313588 56.691103 
L 251.612272 56.590005 
L 250.911796 56.488968 
L 250.211321 56.387999 
L 249.510005 56.287092 
L 248.80953 56.186252 
L 248.109055 56.085478 
L 247.407739 55.984775 
L 246.707263 55.884138 
L 246.006788 55.783572 
L 245.305472 55.710314 
L 244.604997 55.637128 
L 243.904522 55.56401 
L 243.203206 55.490972 
L 242.50273 55.418008 
L 241.802255 55.345115 
L 241.100939 55.272301 
L 240.400464 55.199568 
L 239.699989 55.126911 
L 238.998673 55.054336 
L 238.298198 54.98184 
L 237.597722 54.909427 
L 236.896406 54.830779 
L 236.195931 54.752218 
L 235.495456 54.673756 
L 234.79414 54.595387 
L 234.093665 54.517117 
L 233.393189 54.438949 
L 232.691873 54.360879 
L 231.991398 54.282916 
L 231.290923 54.205054 
L 230.589607 54.127302 
L 229.889132 54.049657 
L 229.188656 53.972122 
L 228.48734 53.901341 
L 227.786865 53.830672 
L 227.08639 53.76011 
L 226.385074 53.68966 
L 225.684599 53.619328 
L 224.984123 53.549112 
L 224.282807 53.479013 
L 223.582332 53.409038 
L 222.881857 53.339183 
L 222.180541 53.269457 
L 221.480066 53.199863 
L 220.77959 53.130395 
L 220.078274 53.060823 
L 219.377799 52.991377 
L 218.677324 52.922068 
L 217.976008 52.852893 
L 217.275533 52.783859 
L 216.575057 52.714964 
L 215.873741 52.646217 
L 215.173266 52.577615 
L 214.472791 52.509167 
L 213.771475 52.44087 
L 213.071 52.372735 
L 212.370524 52.304761 
L 211.669208 52.209937 
L 210.968733 52.11528 
L 210.268258 52.020799 
L 209.566942 51.926493 
L 208.866467 51.832374 
L 208.165991 51.738438 
L 207.464675 51.642084 
L 206.7642 51.545928 
L 206.063725 51.449976 
L 205.362409 51.354234 
L 204.661934 51.258708 
L 203.961458 51.163401 
L 203.260142 51.081254 
L 202.559667 50.999337 
L 201.859192 50.917655 
L 201.157876 50.836224 
L 200.457401 50.755044 
L 199.756926 50.674131 
L 199.055609 50.593486 
L 198.355134 50.511418 
L 197.654659 50.429641 
L 196.953343 50.348171 
L 196.252868 50.267013 
L 195.552393 50.186185 
L 194.851076 50.132092 
L 194.150601 50.078358 
L 193.450126 50.025002 
L 192.74881 49.972033 
L 192.048335 49.919476 
L 191.34786 49.867346 
L 190.646543 49.815663 
L 189.946068 49.764449 
L 189.245593 49.713723 
L 188.544277 49.663516 
L 187.843802 49.613851 
L 187.143327 49.56476 
L 186.44201 49.541137 
L 185.741535 49.518193 
L 185.04106 49.495961 
L 184.339744 49.474498 
L 183.639269 49.453848 
L 182.938794 49.434077 
L 182.237478 49.415245 
L 181.537002 49.397432 
L 180.836527 49.380722 
L 180.135211 49.365215 
L 179.434736 49.351022 
L 178.734261 49.338283 
L 178.032945 49.324174 
L 177.332469 49.311761 
L 176.631994 49.301248 
L 175.930678 49.292893 
L 175.230203 49.287016 
L 174.529728 49.284025 
L 173.828412 49.284444 
L 173.127936 49.258976 
L 172.427461 49.238333 
L 171.726145 49.393755 
L 171.02567 49.592581 
z
" clip-path="url(#p7b99ff345b)" style="fill: #02818a; fill-opacity: 0.25"/>
   </g>
   <g id="matplotlib.axis_1">
    <g id="xtick_1">
     <g id="line2d_1">
      <defs>
       <path id="mde479e5594" d="M 0 0 
L 0 3.5 
" style="stroke: #000000; stroke-width: 0.8"/>
      </defs>
      <g>
       <use xlink:href="#mde479e5594" x="70.116878" y="186.84327" style="stroke: #000000; stroke-width: 0.8"/>
      </g>
     </g>
     <g id="text_1">
      <!-- 1980 -->
      <g transform="translate(57.391878 201.441708)scale(0.1 -0.1)">
       <defs>
        <path id="DejaVuSans-31" d="M 794 531 
L 1825 531 
L 1825 4091 
L 703 3866 
L 703 4441 
L 1819 4666 
L 2450 4666 
L 2450 531 
L 3481 531 
L 3481 0 
L 794 0 
L 794 531 
z
" transform="scale(0.015625)"/>
        <path id="DejaVuSans-39" d="M 703 97 
L 703 672 
Q 941 559 1184 500 
Q 1428 441 1663 441 
Q 2288 441 2617 861 
Q 2947 1281 2994 2138 
Q 2813 1869 2534 1725 
Q 2256 1581 1919 1581 
Q 1219 1581 811 2004 
Q 403 2428 403 3163 
Q 403 3881 828 4315 
Q 1253 4750 1959 4750 
Q 2769 4750 3195 4129 
Q 3622 3509 3622 2328 
Q 3622 1225 3098 567 
Q 2575 -91 1691 -91 
Q 1453 -91 1209 -44 
Q 966 3 703 97 
z
M 1959 2075 
Q 2384 2075 2632 2365 
Q 2881 2656 2881 3163 
Q 2881 3666 2632 3958 
Q 2384 4250 1959 4250 
Q 1534 4250 1286 3958 
Q 1038 3666 1038 3163 
Q 1038 2656 1286 2365 
Q 1534 2075 1959 2075 
z
" transform="scale(0.015625)"/>
        <path id="DejaVuSans-38" d="M 2034 2216 
Q 1584 2216 1326 1975 
Q 1069 1734 1069 1313 
Q 1069 891 1326 650 
Q 1584 409 2034 409 
Q 2484 409 2743 651 
Q 3003 894 3003 1313 
Q 3003 1734 2745 1975 
Q 2488 2216 2034 2216 
z
M 1403 2484 
Q 997 2584 770 2862 
Q 544 3141 544 3541 
Q 544 4100 942 4425 
Q 1341 4750 2034 4750 
Q 2731 4750 3128 4425 
Q 3525 4100 3525 3541 
Q 3525 3141 3298 2862 
Q 3072 2584 2669 2484 
Q 3125 2378 3379 2068 
Q 3634 1759 3634 1313 
Q 3634 634 3220 271 
Q 2806 -91 2034 -91 
Q 1263 -91 848 271 
Q 434 634 434 1313 
Q 434 1759 690 2068 
Q 947 2378 1403 2484 
z
M 1172 3481 
Q 1172 3119 1398 2916 
Q 1625 2713 2034 2713 
Q 2441 2713 2670 2916 
Q 2900 3119 2900 3481 
Q 2900 3844 2670 4047 
Q 2441 4250 2034 4250 
Q 1625 4250 1398 4047 
Q 1172 3844 1172 3481 
z
" transform="scale(0.015625)"/>
        <path id="DejaVuSans-30" d="M 2034 4250 
Q 1547 4250 1301 3770 
Q 1056 3291 1056 2328 
Q 1056 1369 1301 889 
Q 1547 409 2034 409 
Q 2525 409 2770 889 
Q 3016 1369 3016 2328 
Q 3016 3291 2770 3770 
Q 2525 4250 2034 4250 
z
M 2034 4750 
Q 2819 4750 3233 4129 
Q 3647 3509 3647 2328 
Q 3647 1150 3233 529 
Q 2819 -91 2034 -91 
Q 1250 -91 836 529 
Q 422 1150 422 2328 
Q 422 3509 836 4129 
Q 1250 4750 2034 4750 
z
" transform="scale(0.015625)"/>
       </defs>
       <use xlink:href="#DejaVuSans-31"/>
       <use xlink:href="#DejaVuSans-39" x="63.623047"/>
       <use xlink:href="#DejaVuSans-38" x="127.246094"/>
       <use xlink:href="#DejaVuSans-30" x="190.869141"/>
      </g>
     </g>
    </g>
    <g id="xtick_2">
     <g id="line2d_2">
      <g>
       <use xlink:href="#mde479e5594" x="112.162208" y="186.84327" style="stroke: #000000; stroke-width: 0.8"/>
      </g>
     </g>
     <g id="text_2">
      <!-- 1985 -->
      <g transform="translate(99.437208 201.441708)scale(0.1 -0.1)">
       <defs>
        <path id="DejaVuSans-35" d="M 691 4666 
L 3169 4666 
L 3169 4134 
L 1269 4134 
L 1269 2991 
Q 1406 3038 1543 3061 
Q 1681 3084 1819 3084 
Q 2600 3084 3056 2656 
Q 3513 2228 3513 1497 
Q 3513 744 3044 326 
Q 2575 -91 1722 -91 
Q 1428 -91 1123 -41 
Q 819 9 494 109 
L 494 744 
Q 775 591 1075 516 
Q 1375 441 1709 441 
Q 2250 441 2565 725 
Q 2881 1009 2881 1497 
Q 2881 1984 2565 2268 
Q 2250 2553 1709 2553 
Q 1456 2553 1204 2497 
Q 953 2441 691 2322 
L 691 4666 
z
" transform="scale(0.015625)"/>
       </defs>
       <use xlink:href="#DejaVuSans-31"/>
       <use xlink:href="#DejaVuSans-39" x="63.623047"/>
       <use xlink:href="#DejaVuSans-38" x="127.246094"/>
       <use xlink:href="#DejaVuSans-35" x="190.869141"/>
      </g>
     </g>
    </g>
    <g id="xtick_3">
     <g id="line2d_3">
      <g>
       <use xlink:href="#mde479e5594" x="154.207538" y="186.84327" style="stroke: #000000; stroke-width: 0.8"/>
      </g>
     </g>
     <g id="text_3">
      <!-- 1990 -->
      <g transform="translate(141.482538 201.441708)scale(0.1 -0.1)">
       <use xlink:href="#DejaVuSans-31"/>
       <use xlink:href="#DejaVuSans-39" x="63.623047"/>
       <use xlink:href="#DejaVuSans-39" x="127.246094"/>
       <use xlink:href="#DejaVuSans-30" x="190.869141"/>
      </g>
     </g>
    </g>
    <g id="xtick_4">
     <g id="line2d_4">
      <g>
       <use xlink:href="#mde479e5594" x="196.252868" y="186.84327" style="stroke: #000000; stroke-width: 0.8"/>
      </g>
     </g>
     <g id="text_4">
      <!-- 1995 -->
      <g transform="translate(183.527868 201.441708)scale(0.1 -0.1)">
       <use xlink:href="#DejaVuSans-31"/>
       <use xlink:href="#DejaVuSans-39" x="63.623047"/>
       <use xlink:href="#DejaVuSans-39" x="127.246094"/>
       <use xlink:href="#DejaVuSans-35" x="190.869141"/>
      </g>
     </g>
    </g>
    <g id="xtick_5">
     <g id="line2d_5">
      <g>
       <use xlink:href="#mde479e5594" x="238.298198" y="186.84327" style="stroke: #000000; stroke-width: 0.8"/>
      </g>
     </g>
     <g id="text_5">
      <!-- 2000 -->
      <g transform="translate(225.573198 201.441708)scale(0.1 -0.1)">
       <defs>
        <path id="DejaVuSans-32" d="M 1228 531 
L 3431 531 
L 3431 0 
L 469 0 
L 469 531 
Q 828 903 1448 1529 
Q 2069 2156 2228 2338 
Q 2531 2678 2651 2914 
Q 2772 3150 2772 3378 
Q 2772 3750 2511 3984 
Q 2250 4219 1831 4219 
Q 1534 4219 1204 4116 
Q 875 4013 500 3803 
L 500 4441 
Q 881 4594 1212 4672 
Q 1544 4750 1819 4750 
Q 2544 4750 2975 4387 
Q 3406 4025 3406 3419 
Q 3406 3131 3298 2873 
Q 3191 2616 2906 2266 
Q 2828 2175 2409 1742 
Q 1991 1309 1228 531 
z
" transform="scale(0.015625)"/>
       </defs>
       <use xlink:href="#DejaVuSans-32"/>
       <use xlink:href="#DejaVuSans-30" x="63.623047"/>
       <use xlink:href="#DejaVuSans-30" x="127.246094"/>
       <use xlink:href="#DejaVuSans-30" x="190.869141"/>
      </g>
     </g>
    </g>
    <g id="xtick_6">
     <g id="line2d_6">
      <g>
       <use xlink:href="#mde479e5594" x="280.343527" y="186.84327" style="stroke: #000000; stroke-width: 0.8"/>
      </g>
     </g>
     <g id="text_6">
      <!-- 2005 -->
      <g transform="translate(267.618527 201.441708)scale(0.1 -0.1)">
       <use xlink:href="#DejaVuSans-32"/>
       <use xlink:href="#DejaVuSans-30" x="63.623047"/>
       <use xlink:href="#DejaVuSans-30" x="127.246094"/>
       <use xlink:href="#DejaVuSans-35" x="190.869141"/>
      </g>
     </g>
    </g>
    <g id="xtick_7">
     <g id="line2d_7">
      <g>
       <use xlink:href="#mde479e5594" x="322.388857" y="186.84327" style="stroke: #000000; stroke-width: 0.8"/>
      </g>
     </g>
     <g id="text_7">
      <!-- 2010 -->
      <g transform="translate(309.663857 201.441708)scale(0.1 -0.1)">
       <use xlink:href="#DejaVuSans-32"/>
       <use xlink:href="#DejaVuSans-30" x="63.623047"/>
       <use xlink:href="#DejaVuSans-31" x="127.246094"/>
       <use xlink:href="#DejaVuSans-30" x="190.869141"/>
      </g>
     </g>
    </g>
    <g id="xtick_8">
     <g id="line2d_8">
      <g>
       <use xlink:href="#mde479e5594" x="364.434187" y="186.84327" style="stroke: #000000; stroke-width: 0.8"/>
      </g>
     </g>
     <g id="text_8">
      <!-- 2015 -->
      <g transform="translate(351.709187 201.441708)scale(0.1 -0.1)">
       <use xlink:href="#DejaVuSans-32"/>
       <use xlink:href="#DejaVuSans-30" x="63.623047"/>
       <use xlink:href="#DejaVuSans-31" x="127.246094"/>
       <use xlink:href="#DejaVuSans-35" x="190.869141"/>
      </g>
     </g>
    </g>
    <g id="xtick_9">
     <g id="line2d_9">
      <g>
       <use xlink:href="#mde479e5594" x="406.479517" y="186.84327" style="stroke: #000000; stroke-width: 0.8"/>
      </g>
     </g>
     <g id="text_9">
      <!-- 2020 -->
      <g transform="translate(393.754517 201.441708)scale(0.1 -0.1)">
       <use xlink:href="#DejaVuSans-32"/>
       <use xlink:href="#DejaVuSans-30" x="63.623047"/>
       <use xlink:href="#DejaVuSans-32" x="127.246094"/>
       <use xlink:href="#DejaVuSans-30" x="190.869141"/>
      </g>
     </g>
    </g>
    <g id="text_10">
     <!-- Year -->
     <g transform="translate(227.710698 215.119833)scale(0.1 -0.1)">
      <defs>
       <path id="DejaVuSans-59" d="M -13 4666 
L 666 4666 
L 1959 2747 
L 3244 4666 
L 3922 4666 
L 2272 2222 
L 2272 0 
L 1638 0 
L 1638 2222 
L -13 4666 
z
" transform="scale(0.015625)"/>
       <path id="DejaVuSans-65" d="M 3597 1894 
L 3597 1613 
L 953 1613 
Q 991 1019 1311 708 
Q 1631 397 2203 397 
Q 2534 397 2845 478 
Q 3156 559 3463 722 
L 3463 178 
Q 3153 47 2828 -22 
Q 2503 -91 2169 -91 
Q 1331 -91 842 396 
Q 353 884 353 1716 
Q 353 2575 817 3079 
Q 1281 3584 2069 3584 
Q 2775 3584 3186 3129 
Q 3597 2675 3597 1894 
z
M 3022 2063 
Q 3016 2534 2758 2815 
Q 2500 3097 2075 3097 
Q 1594 3097 1305 2825 
Q 1016 2553 972 2059 
L 3022 2063 
z
" transform="scale(0.015625)"/>
       <path id="DejaVuSans-61" d="M 2194 1759 
Q 1497 1759 1228 1600 
Q 959 1441 959 1056 
Q 959 750 1161 570 
Q 1363 391 1709 391 
Q 2188 391 2477 730 
Q 2766 1069 2766 1631 
L 2766 1759 
L 2194 1759 
z
M 3341 1997 
L 3341 0 
L 2766 0 
L 2766 531 
Q 2569 213 2275 61 
Q 1981 -91 1556 -91 
Q 1019 -91 701 211 
Q 384 513 384 1019 
Q 384 1609 779 1909 
Q 1175 2209 1959 2209 
L 2766 2209 
L 2766 2266 
Q 2766 2663 2505 2880 
Q 2244 3097 1772 3097 
Q 1472 3097 1187 3025 
Q 903 2953 641 2809 
L 641 3341 
Q 956 3463 1253 3523 
Q 1550 3584 1831 3584 
Q 2591 3584 2966 3190 
Q 3341 2797 3341 1997 
z
" transform="scale(0.015625)"/>
       <path id="DejaVuSans-72" d="M 2631 2963 
Q 2534 3019 2420 3045 
Q 2306 3072 2169 3072 
Q 1681 3072 1420 2755 
Q 1159 2438 1159 1844 
L 1159 0 
L 581 0 
L 581 3500 
L 1159 3500 
L 1159 2956 
Q 1341 3275 1631 3429 
Q 1922 3584 2338 3584 
Q 2397 3584 2469 3576 
Q 2541 3569 2628 3553 
L 2631 2963 
z
" transform="scale(0.015625)"/>
      </defs>
      <use xlink:href="#DejaVuSans-59"/>
      <use xlink:href="#DejaVuSans-65" x="47.833984"/>
      <use xlink:href="#DejaVuSans-61" x="109.357422"/>
      <use xlink:href="#DejaVuSans-72" x="170.636719"/>
     </g>
    </g>
   </g>
   <g id="matplotlib.axis_2">
    <g id="ytick_1">
     <g id="line2d_10">
      <defs>
       <path id="m759f5f39af" d="M 0 0 
L -3.5 0 
" style="stroke: #000000; stroke-width: 0.8"/>
      </defs>
      <g>
       <use xlink:href="#m759f5f39af" x="61.707813" y="186.84327" style="stroke: #000000; stroke-width: 0.8"/>
      </g>
     </g>
     <g id="text_11">
      <!-- 5000 -->
      <g transform="translate(20.878125 190.642489)scale(0.1 -0.1)">
       <defs>
        <path id="DejaVuSans-2212" d="M 678 2272 
L 4684 2272 
L 4684 1741 
L 678 1741 
L 678 2272 
z
" transform="scale(0.015625)"/>
       </defs>
       <use xlink:href="#DejaVuSans-2212"/>
       <use xlink:href="#DejaVuSans-35" x="83.789062"/>
       <use xlink:href="#DejaVuSans-30" x="147.412109"/>
       <use xlink:href="#DejaVuSans-30" x="211.035156"/>
       <use xlink:href="#DejaVuSans-30" x="274.658203"/>
      </g>
     </g>
    </g>
    <g id="ytick_2">
     <g id="line2d_11">
      <g>
       <use xlink:href="#m759f5f39af" x="61.707813" y="159.422413" style="stroke: #000000; stroke-width: 0.8"/>
      </g>
     </g>
     <g id="text_12">
      <!-- 4000 -->
      <g transform="translate(20.878125 163.221631)scale(0.1 -0.1)">
       <defs>
        <path id="DejaVuSans-34" d="M 2419 4116 
L 825 1625 
L 2419 1625 
L 2419 4116 
z
M 2253 4666 
L 3047 4666 
L 3047 1625 
L 3713 1625 
L 3713 1100 
L 3047 1100 
L 3047 0 
L 2419 0 
L 2419 1100 
L 313 1100 
L 313 1709 
L 2253 4666 
z
" transform="scale(0.015625)"/>
       </defs>
       <use xlink:href="#DejaVuSans-2212"/>
       <use xlink:href="#DejaVuSans-34" x="83.789062"/>
       <use xlink:href="#DejaVuSans-30" x="147.412109"/>
       <use xlink:href="#DejaVuSans-30" x="211.035156"/>
       <use xlink:href="#DejaVuSans-30" x="274.658203"/>
      </g>
     </g>
    </g>
    <g id="ytick_3">
     <g id="line2d_12">
      <g>
       <use xlink:href="#m759f5f39af" x="61.707813" y="132.001555" style="stroke: #000000; stroke-width: 0.8"/>
      </g>
     </g>
     <g id="text_13">
      <!-- 3000 -->
      <g transform="translate(20.878125 135.800774)scale(0.1 -0.1)">
       <defs>
        <path id="DejaVuSans-33" d="M 2597 2516 
Q 3050 2419 3304 2112 
Q 3559 1806 3559 1356 
Q 3559 666 3084 287 
Q 2609 -91 1734 -91 
Q 1441 -91 1130 -33 
Q 819 25 488 141 
L 488 750 
Q 750 597 1062 519 
Q 1375 441 1716 441 
Q 2309 441 2620 675 
Q 2931 909 2931 1356 
Q 2931 1769 2642 2001 
Q 2353 2234 1838 2234 
L 1294 2234 
L 1294 2753 
L 1863 2753 
Q 2328 2753 2575 2939 
Q 2822 3125 2822 3475 
Q 2822 3834 2567 4026 
Q 2313 4219 1838 4219 
Q 1578 4219 1281 4162 
Q 984 4106 628 3988 
L 628 4550 
Q 988 4650 1302 4700 
Q 1616 4750 1894 4750 
Q 2613 4750 3031 4423 
Q 3450 4097 3450 3541 
Q 3450 3153 3228 2886 
Q 3006 2619 2597 2516 
z
" transform="scale(0.015625)"/>
       </defs>
       <use xlink:href="#DejaVuSans-2212"/>
       <use xlink:href="#DejaVuSans-33" x="83.789062"/>
       <use xlink:href="#DejaVuSans-30" x="147.412109"/>
       <use xlink:href="#DejaVuSans-30" x="211.035156"/>
       <use xlink:href="#DejaVuSans-30" x="274.658203"/>
      </g>
     </g>
    </g>
    <g id="ytick_4">
     <g id="line2d_13">
      <g>
       <use xlink:href="#m759f5f39af" x="61.707813" y="104.580698" style="stroke: #000000; stroke-width: 0.8"/>
      </g>
     </g>
     <g id="text_14">
      <!-- 2000 -->
      <g transform="translate(20.878125 108.379916)scale(0.1 -0.1)">
       <use xlink:href="#DejaVuSans-2212"/>
       <use xlink:href="#DejaVuSans-32" x="83.789062"/>
       <use xlink:href="#DejaVuSans-30" x="147.412109"/>
       <use xlink:href="#DejaVuSans-30" x="211.035156"/>
       <use xlink:href="#DejaVuSans-30" x="274.658203"/>
      </g>
     </g>
    </g>
    <g id="ytick_5">
     <g id="line2d_14">
      <g>
       <use xlink:href="#m759f5f39af" x="61.707813" y="77.15984" style="stroke: #000000; stroke-width: 0.8"/>
      </g>
     </g>
     <g id="text_15">
      <!-- 1000 -->
      <g transform="translate(20.878125 80.959059)scale(0.1 -0.1)">
       <use xlink:href="#DejaVuSans-2212"/>
       <use xlink:href="#DejaVuSans-31" x="83.789062"/>
       <use xlink:href="#DejaVuSans-30" x="147.412109"/>
       <use xlink:href="#DejaVuSans-30" x="211.035156"/>
       <use xlink:href="#DejaVuSans-30" x="274.658203"/>
      </g>
     </g>
    </g>
    <g id="ytick_6">
     <g id="line2d_15">
      <g>
       <use xlink:href="#m759f5f39af" x="61.707813" y="49.738983" style="stroke: #000000; stroke-width: 0.8"/>
      </g>
     </g>
     <g id="text_16">
      <!-- 0 -->
      <g transform="translate(48.345313 53.538201)scale(0.1 -0.1)">
       <use xlink:href="#DejaVuSans-30"/>
      </g>
     </g>
    </g>
    <g id="ytick_7">
     <g id="line2d_16">
      <g>
       <use xlink:href="#m759f5f39af" x="61.707813" y="22.318125" style="stroke: #000000; stroke-width: 0.8"/>
      </g>
     </g>
     <g id="text_17">
      <!-- 1000 -->
      <g transform="translate(29.257812 26.117344)scale(0.1 -0.1)">
       <use xlink:href="#DejaVuSans-31"/>
       <use xlink:href="#DejaVuSans-30" x="63.623047"/>
       <use xlink:href="#DejaVuSans-30" x="127.246094"/>
       <use xlink:href="#DejaVuSans-30" x="190.869141"/>
      </g>
     </g>
    </g>
    <g id="text_18">
     <!-- Mass change [Gt] -->
     <g transform="translate(14.798438 148.483823)rotate(-90)scale(0.1 -0.1)">
      <defs>
       <path id="DejaVuSans-4d" d="M 628 4666 
L 1569 4666 
L 2759 1491 
L 3956 4666 
L 4897 4666 
L 4897 0 
L 4281 0 
L 4281 4097 
L 3078 897 
L 2444 897 
L 1241 4097 
L 1241 0 
L 628 0 
L 628 4666 
z
" transform="scale(0.015625)"/>
       <path id="DejaVuSans-73" d="M 2834 3397 
L 2834 2853 
Q 2591 2978 2328 3040 
Q 2066 3103 1784 3103 
Q 1356 3103 1142 2972 
Q 928 2841 928 2578 
Q 928 2378 1081 2264 
Q 1234 2150 1697 2047 
L 1894 2003 
Q 2506 1872 2764 1633 
Q 3022 1394 3022 966 
Q 3022 478 2636 193 
Q 2250 -91 1575 -91 
Q 1294 -91 989 -36 
Q 684 19 347 128 
L 347 722 
Q 666 556 975 473 
Q 1284 391 1588 391 
Q 1994 391 2212 530 
Q 2431 669 2431 922 
Q 2431 1156 2273 1281 
Q 2116 1406 1581 1522 
L 1381 1569 
Q 847 1681 609 1914 
Q 372 2147 372 2553 
Q 372 3047 722 3315 
Q 1072 3584 1716 3584 
Q 2034 3584 2315 3537 
Q 2597 3491 2834 3397 
z
" transform="scale(0.015625)"/>
       <path id="DejaVuSans-20" transform="scale(0.015625)"/>
       <path id="DejaVuSans-63" d="M 3122 3366 
L 3122 2828 
Q 2878 2963 2633 3030 
Q 2388 3097 2138 3097 
Q 1578 3097 1268 2742 
Q 959 2388 959 1747 
Q 959 1106 1268 751 
Q 1578 397 2138 397 
Q 2388 397 2633 464 
Q 2878 531 3122 666 
L 3122 134 
Q 2881 22 2623 -34 
Q 2366 -91 2075 -91 
Q 1284 -91 818 406 
Q 353 903 353 1747 
Q 353 2603 823 3093 
Q 1294 3584 2113 3584 
Q 2378 3584 2631 3529 
Q 2884 3475 3122 3366 
z
" transform="scale(0.015625)"/>
       <path id="DejaVuSans-68" d="M 3513 2113 
L 3513 0 
L 2938 0 
L 2938 2094 
Q 2938 2591 2744 2837 
Q 2550 3084 2163 3084 
Q 1697 3084 1428 2787 
Q 1159 2491 1159 1978 
L 1159 0 
L 581 0 
L 581 4863 
L 1159 4863 
L 1159 2956 
Q 1366 3272 1645 3428 
Q 1925 3584 2291 3584 
Q 2894 3584 3203 3211 
Q 3513 2838 3513 2113 
z
" transform="scale(0.015625)"/>
       <path id="DejaVuSans-6e" d="M 3513 2113 
L 3513 0 
L 2938 0 
L 2938 2094 
Q 2938 2591 2744 2837 
Q 2550 3084 2163 3084 
Q 1697 3084 1428 2787 
Q 1159 2491 1159 1978 
L 1159 0 
L 581 0 
L 581 3500 
L 1159 3500 
L 1159 2956 
Q 1366 3272 1645 3428 
Q 1925 3584 2291 3584 
Q 2894 3584 3203 3211 
Q 3513 2838 3513 2113 
z
" transform="scale(0.015625)"/>
       <path id="DejaVuSans-67" d="M 2906 1791 
Q 2906 2416 2648 2759 
Q 2391 3103 1925 3103 
Q 1463 3103 1205 2759 
Q 947 2416 947 1791 
Q 947 1169 1205 825 
Q 1463 481 1925 481 
Q 2391 481 2648 825 
Q 2906 1169 2906 1791 
z
M 3481 434 
Q 3481 -459 3084 -895 
Q 2688 -1331 1869 -1331 
Q 1566 -1331 1297 -1286 
Q 1028 -1241 775 -1147 
L 775 -588 
Q 1028 -725 1275 -790 
Q 1522 -856 1778 -856 
Q 2344 -856 2625 -561 
Q 2906 -266 2906 331 
L 2906 616 
Q 2728 306 2450 153 
Q 2172 0 1784 0 
Q 1141 0 747 490 
Q 353 981 353 1791 
Q 353 2603 747 3093 
Q 1141 3584 1784 3584 
Q 2172 3584 2450 3431 
Q 2728 3278 2906 2969 
L 2906 3500 
L 3481 3500 
L 3481 434 
z
" transform="scale(0.015625)"/>
       <path id="DejaVuSans-5b" d="M 550 4863 
L 1875 4863 
L 1875 4416 
L 1125 4416 
L 1125 -397 
L 1875 -397 
L 1875 -844 
L 550 -844 
L 550 4863 
z
" transform="scale(0.015625)"/>
       <path id="DejaVuSans-47" d="M 3809 666 
L 3809 1919 
L 2778 1919 
L 2778 2438 
L 4434 2438 
L 4434 434 
Q 4069 175 3628 42 
Q 3188 -91 2688 -91 
Q 1594 -91 976 548 
Q 359 1188 359 2328 
Q 359 3472 976 4111 
Q 1594 4750 2688 4750 
Q 3144 4750 3555 4637 
Q 3966 4525 4313 4306 
L 4313 3634 
Q 3963 3931 3569 4081 
Q 3175 4231 2741 4231 
Q 1884 4231 1454 3753 
Q 1025 3275 1025 2328 
Q 1025 1384 1454 906 
Q 1884 428 2741 428 
Q 3075 428 3337 486 
Q 3600 544 3809 666 
z
" transform="scale(0.015625)"/>
       <path id="DejaVuSans-74" d="M 1172 4494 
L 1172 3500 
L 2356 3500 
L 2356 3053 
L 1172 3053 
L 1172 1153 
Q 1172 725 1289 603 
Q 1406 481 1766 481 
L 2356 481 
L 2356 0 
L 1766 0 
Q 1100 0 847 248 
Q 594 497 594 1153 
L 594 3053 
L 172 3053 
L 172 3500 
L 594 3500 
L 594 4494 
L 1172 4494 
z
" transform="scale(0.015625)"/>
       <path id="DejaVuSans-5d" d="M 1947 4863 
L 1947 -844 
L 622 -844 
L 622 -397 
L 1369 -397 
L 1369 4416 
L 622 4416 
L 622 4863 
L 1947 4863 
z
" transform="scale(0.015625)"/>
      </defs>
      <use xlink:href="#DejaVuSans-4d"/>
      <use xlink:href="#DejaVuSans-61" x="86.279297"/>
      <use xlink:href="#DejaVuSans-73" x="147.558594"/>
      <use xlink:href="#DejaVuSans-73" x="199.658203"/>
      <use xlink:href="#DejaVuSans-20" x="251.757812"/>
      <use xlink:href="#DejaVuSans-63" x="283.544922"/>
      <use xlink:href="#DejaVuSans-68" x="338.525391"/>
      <use xlink:href="#DejaVuSans-61" x="401.904297"/>
      <use xlink:href="#DejaVuSans-6e" x="463.183594"/>
      <use xlink:href="#DejaVuSans-67" x="526.5625"/>
      <use xlink:href="#DejaVuSans-65" x="590.039062"/>
      <use xlink:href="#DejaVuSans-20" x="651.5625"/>
      <use xlink:href="#DejaVuSans-5b" x="683.349609"/>
      <use xlink:href="#DejaVuSans-47" x="722.363281"/>
      <use xlink:href="#DejaVuSans-74" x="799.853516"/>
      <use xlink:href="#DejaVuSans-5d" x="839.0625"/>
     </g>
    </g>
   </g>
   <g id="line2d_17">
    <path d="M 61.707813 49.664425 
L 79.927455 47.827914 
L 84.832744 47.576586 
L 92.541054 47.787539 
L 98.847854 48.117383 
L 107.957675 47.936122 
L 118.469008 47.107848 
L 121.972785 47.210192 
L 126.878074 47.531504 
L 133.885629 48.255607 
L 140.192428 48.370719 
L 146.499228 48.369645 
L 151.404516 48.645426 
L 154.908293 49.16119 
L 158.412071 49.6903 
L 164.71887 50.319008 
L 167.521892 50.306875 
L 171.02567 50.042985 
L 173.828692 49.625042 
L 180.135491 48.498126 
L 185.04078 47.787138 
L 187.843802 47.62497 
L 192.74909 47.607203 
L 196.252868 47.841184 
L 203.260423 48.604261 
L 207.464956 49.213755 
L 212.370244 49.631014 
L 215.173266 49.662318 
L 220.078555 49.364247 
L 228.487621 49.017774 
L 234.093665 48.983691 
L 241.101219 48.623784 
L 246.006508 48.217123 
L 253.014063 47.985044 
L 258.620107 47.903398 
L 270.53295 47.339784 
L 275.438239 47.236147 
L 281.044283 46.674945 
L 290.85486 45.501524 
L 295.059393 45.146172 
L 299.263926 45.115808 
L 312.57828 44.992487 
L 316.782813 45.541475 
L 320.286591 46.116696 
L 330.097167 48.101006 
L 333.600945 48.488958 
L 346.915299 49.443308 
L 351.119832 49.950915 
L 357.426632 50.341944 
L 361.631165 50.292909 
L 366.536453 50.09054 
L 376.34703 49.169812 
L 379.850808 48.780382 
L 383.354585 48.622409 
L 387.559118 48.684143 
L 395.267429 49.137354 
L 398.070451 49.083798 
L 400.172717 48.834379 
L 402.975739 48.238939 
L 408.581783 46.990902 
L 423.297648 44.197628 
L 423.297648 44.197628 
" clip-path="url(#p7b99ff345b)" style="fill: none; stroke: #d0d1e6; stroke-width: 1.5; stroke-linecap: square"/>
   </g>
   <g id="line2d_18">
    <path d="M 171.02567 50.042985 
L 172.427461 50.20024 
L 180.135211 52.26223 
L 185.04106 53.372476 
L 189.245593 53.979368 
L 193.450126 54.425546 
L 201.859192 54.87328 
L 208.165991 55.002519 
L 214.472791 55.572818 
L 217.976008 56.195556 
L 224.984123 57.471795 
L 228.48734 58.010624 
L 233.393189 58.68372 
L 241.802255 60.254991 
L 246.006788 61.123121 
L 253.014063 62.518118 
L 262.82492 64.254947 
L 269.13172 65.78545 
L 278.241261 68.318128 
L 283.847585 70.197305 
L 288.052118 71.615753 
L 299.263926 75.16866 
L 304.87025 76.989696 
L 312.578 79.586076 
L 319.586115 81.427789 
L 324.491124 82.678467 
L 327.293865 83.556548 
L 331.498398 85.131295 
L 335.702931 87.009699 
L 340.60878 89.161541 
L 359.529179 97.102259 
L 365.134662 99.741561 
L 369.339195 101.615953 
L 373.543728 103.408398 
L 388.259593 109.368953 
L 392.464126 110.933931 
L 393.865918 111.529544 
L 398.070451 114.008112 
L 400.873192 114.902462 
L 408.581783 117.831012 
L 414.188107 119.421474 
L 414.188107 119.421474 
" clip-path="url(#p7b99ff345b)" style="fill: none; stroke: #67a9cf; stroke-width: 1.5; stroke-linecap: square"/>
   </g>
   <g id="line2d_19">
    <path d="M 171.02567 50.042985 
L 173.127936 50.105365 
L 175.930678 50.368427 
L 190.646543 51.693213 
L 198.355134 52.689764 
L 220.078274 55.917226 
L 246.006788 59.297253 
L 258.620387 61.281292 
L 265.627662 62.457205 
L 270.53267 63.450103 
L 278.241261 65.249868 
L 295.759868 69.230393 
L 300.665717 70.647012 
L 306.972516 72.575819 
L 313.279316 74.804798 
L 320.987066 77.980769 
L 323.790648 79.378421 
L 332.900189 84.119394 
L 340.60878 88.055903 
L 346.91558 91.205621 
L 356.025121 95.744983 
L 363.733712 99.35448 
L 370.740986 101.890035 
L 374.945519 103.28809 
L 382.65411 105.751863 
L 388.960909 108.367108 
L 395.267709 111.451691 
L 398.070451 113.04892 
L 405.077725 114.330497 
L 407.179992 114.648011 
L 414.188107 115.302564 
L 414.188107 115.302564 
" clip-path="url(#p7b99ff345b)" style="fill: none; stroke: #02818a; stroke-width: 1.5; stroke-linecap: square"/>
   </g>
   <g id="patch_3">
    <path d="M 61.707813 186.84327 
L 61.707813 22.318125 
" style="fill: none; stroke: #000000; stroke-width: 0.8; stroke-linejoin: miter; stroke-linecap: square"/>
   </g>
   <g id="patch_4">
    <path d="M 414.888583 186.84327 
L 414.888583 22.318125 
" style="fill: none; stroke: #000000; stroke-width: 0.8; stroke-linejoin: miter; stroke-linecap: square"/>
   </g>
   <g id="patch_5">
    <path d="M 61.707813 186.84327 
L 414.888583 186.84327 
" style="fill: none; stroke: #000000; stroke-width: 0.8; stroke-linejoin: miter; stroke-linecap: square"/>
   </g>
   <g id="patch_6">
    <path d="M 61.707813 22.318125 
L 414.888583 22.318125 
" style="fill: none; stroke: #000000; stroke-width: 0.8; stroke-linejoin: miter; stroke-linecap: square"/>
   </g>
   <g id="text_19">
    <!-- West Antarctica -->
    <g transform="translate(191.080073 16.318125)scale(0.12 -0.12)">
     <defs>
      <path id="DejaVuSans-57" d="M 213 4666 
L 850 4666 
L 1831 722 
L 2809 4666 
L 3519 4666 
L 4500 722 
L 5478 4666 
L 6119 4666 
L 4947 0 
L 4153 0 
L 3169 4050 
L 2175 0 
L 1381 0 
L 213 4666 
z
" transform="scale(0.015625)"/>
      <path id="DejaVuSans-41" d="M 2188 4044 
L 1331 1722 
L 3047 1722 
L 2188 4044 
z
M 1831 4666 
L 2547 4666 
L 4325 0 
L 3669 0 
L 3244 1197 
L 1141 1197 
L 716 0 
L 50 0 
L 1831 4666 
z
" transform="scale(0.015625)"/>
      <path id="DejaVuSans-69" d="M 603 3500 
L 1178 3500 
L 1178 0 
L 603 0 
L 603 3500 
z
M 603 4863 
L 1178 4863 
L 1178 4134 
L 603 4134 
L 603 4863 
z
" transform="scale(0.015625)"/>
     </defs>
     <use xlink:href="#DejaVuSans-57"/>
     <use xlink:href="#DejaVuSans-65" x="93.001953"/>
     <use xlink:href="#DejaVuSans-73" x="154.525391"/>
     <use xlink:href="#DejaVuSans-74" x="206.625"/>
     <use xlink:href="#DejaVuSans-20" x="245.833984"/>
     <use xlink:href="#DejaVuSans-41" x="277.621094"/>
     <use xlink:href="#DejaVuSans-6e" x="346.029297"/>
     <use xlink:href="#DejaVuSans-74" x="409.408203"/>
     <use xlink:href="#DejaVuSans-61" x="448.617188"/>
     <use xlink:href="#DejaVuSans-72" x="509.896484"/>
     <use xlink:href="#DejaVuSans-63" x="548.759766"/>
     <use xlink:href="#DejaVuSans-74" x="603.740234"/>
     <use xlink:href="#DejaVuSans-69" x="642.949219"/>
     <use xlink:href="#DejaVuSans-63" x="670.732422"/>
     <use xlink:href="#DejaVuSans-61" x="725.712891"/>
    </g>
   </g>
   <g id="legend_1">
    <g id="patch_7">
     <path d="M 421.888583 128.097885 
L 503.19952 128.097885 
Q 505.19952 128.097885 505.19952 126.097885 
L 505.19952 83.06351 
Q 505.19952 81.06351 503.19952 81.06351 
L 421.888583 81.06351 
Q 419.888583 81.06351 419.888583 83.06351 
L 419.888583 126.097885 
Q 419.888583 128.097885 421.888583 128.097885 
z
" style="fill: #ffffff; opacity: 0.8; stroke: #cccccc; stroke-linejoin: miter"/>
    </g>
    <g id="line2d_20">
     <path d="M 423.888583 89.161948 
L 433.888583 89.161948 
L 443.888583 89.161948 
" style="fill: none; stroke: #d0d1e6; stroke-width: 1.5; stroke-linecap: square"/>
    </g>
    <g id="text_20">
     <!-- Surface -->
     <g transform="translate(451.888583 92.661948)scale(0.1 -0.1)">
      <defs>
       <path id="DejaVuSans-53" d="M 3425 4513 
L 3425 3897 
Q 3066 4069 2747 4153 
Q 2428 4238 2131 4238 
Q 1616 4238 1336 4038 
Q 1056 3838 1056 3469 
Q 1056 3159 1242 3001 
Q 1428 2844 1947 2747 
L 2328 2669 
Q 3034 2534 3370 2195 
Q 3706 1856 3706 1288 
Q 3706 609 3251 259 
Q 2797 -91 1919 -91 
Q 1588 -91 1214 -16 
Q 841 59 441 206 
L 441 856 
Q 825 641 1194 531 
Q 1563 422 1919 422 
Q 2459 422 2753 634 
Q 3047 847 3047 1241 
Q 3047 1584 2836 1778 
Q 2625 1972 2144 2069 
L 1759 2144 
Q 1053 2284 737 2584 
Q 422 2884 422 3419 
Q 422 4038 858 4394 
Q 1294 4750 2059 4750 
Q 2388 4750 2728 4690 
Q 3069 4631 3425 4513 
z
" transform="scale(0.015625)"/>
       <path id="DejaVuSans-75" d="M 544 1381 
L 544 3500 
L 1119 3500 
L 1119 1403 
Q 1119 906 1312 657 
Q 1506 409 1894 409 
Q 2359 409 2629 706 
Q 2900 1003 2900 1516 
L 2900 3500 
L 3475 3500 
L 3475 0 
L 2900 0 
L 2900 538 
Q 2691 219 2414 64 
Q 2138 -91 1772 -91 
Q 1169 -91 856 284 
Q 544 659 544 1381 
z
M 1991 3584 
L 1991 3584 
z
" transform="scale(0.015625)"/>
       <path id="DejaVuSans-66" d="M 2375 4863 
L 2375 4384 
L 1825 4384 
Q 1516 4384 1395 4259 
Q 1275 4134 1275 3809 
L 1275 3500 
L 2222 3500 
L 2222 3053 
L 1275 3053 
L 1275 0 
L 697 0 
L 697 3053 
L 147 3053 
L 147 3500 
L 697 3500 
L 697 3744 
Q 697 4328 969 4595 
Q 1241 4863 1831 4863 
L 2375 4863 
z
" transform="scale(0.015625)"/>
      </defs>
      <use xlink:href="#DejaVuSans-53"/>
      <use xlink:href="#DejaVuSans-75" x="63.476562"/>
      <use xlink:href="#DejaVuSans-72" x="126.855469"/>
      <use xlink:href="#DejaVuSans-66" x="167.96875"/>
      <use xlink:href="#DejaVuSans-61" x="203.173828"/>
      <use xlink:href="#DejaVuSans-63" x="264.453125"/>
      <use xlink:href="#DejaVuSans-65" x="319.433594"/>
     </g>
    </g>
    <g id="line2d_21">
     <path d="M 423.888583 103.840073 
L 433.888583 103.840073 
L 443.888583 103.840073 
" style="fill: none; stroke: #67a9cf; stroke-width: 1.5; stroke-linecap: square"/>
    </g>
    <g id="text_21">
     <!-- Dynamics -->
     <g transform="translate(451.888583 107.340073)scale(0.1 -0.1)">
      <defs>
       <path id="DejaVuSans-44" d="M 1259 4147 
L 1259 519 
L 2022 519 
Q 2988 519 3436 956 
Q 3884 1394 3884 2338 
Q 3884 3275 3436 3711 
Q 2988 4147 2022 4147 
L 1259 4147 
z
M 628 4666 
L 1925 4666 
Q 3281 4666 3915 4102 
Q 4550 3538 4550 2338 
Q 4550 1131 3912 565 
Q 3275 0 1925 0 
L 628 0 
L 628 4666 
z
" transform="scale(0.015625)"/>
       <path id="DejaVuSans-79" d="M 2059 -325 
Q 1816 -950 1584 -1140 
Q 1353 -1331 966 -1331 
L 506 -1331 
L 506 -850 
L 844 -850 
Q 1081 -850 1212 -737 
Q 1344 -625 1503 -206 
L 1606 56 
L 191 3500 
L 800 3500 
L 1894 763 
L 2988 3500 
L 3597 3500 
L 2059 -325 
z
" transform="scale(0.015625)"/>
       <path id="DejaVuSans-6d" d="M 3328 2828 
Q 3544 3216 3844 3400 
Q 4144 3584 4550 3584 
Q 5097 3584 5394 3201 
Q 5691 2819 5691 2113 
L 5691 0 
L 5113 0 
L 5113 2094 
Q 5113 2597 4934 2840 
Q 4756 3084 4391 3084 
Q 3944 3084 3684 2787 
Q 3425 2491 3425 1978 
L 3425 0 
L 2847 0 
L 2847 2094 
Q 2847 2600 2669 2842 
Q 2491 3084 2119 3084 
Q 1678 3084 1418 2786 
Q 1159 2488 1159 1978 
L 1159 0 
L 581 0 
L 581 3500 
L 1159 3500 
L 1159 2956 
Q 1356 3278 1631 3431 
Q 1906 3584 2284 3584 
Q 2666 3584 2933 3390 
Q 3200 3197 3328 2828 
z
" transform="scale(0.015625)"/>
      </defs>
      <use xlink:href="#DejaVuSans-44"/>
      <use xlink:href="#DejaVuSans-79" x="77.001953"/>
      <use xlink:href="#DejaVuSans-6e" x="136.181641"/>
      <use xlink:href="#DejaVuSans-61" x="199.560547"/>
      <use xlink:href="#DejaVuSans-6d" x="260.839844"/>
      <use xlink:href="#DejaVuSans-69" x="358.251953"/>
      <use xlink:href="#DejaVuSans-63" x="386.035156"/>
      <use xlink:href="#DejaVuSans-73" x="441.015625"/>
     </g>
    </g>
    <g id="line2d_22">
     <path d="M 423.888583 118.518198 
L 433.888583 118.518198 
L 443.888583 118.518198 
" style="fill: none; stroke: #02818a; stroke-width: 1.5; stroke-linecap: square"/>
    </g>
    <g id="text_22">
     <!-- Total -->
     <g transform="translate(451.888583 122.018198)scale(0.1 -0.1)">
      <defs>
       <path id="DejaVuSans-54" d="M -19 4666 
L 3928 4666 
L 3928 4134 
L 2272 4134 
L 2272 0 
L 1638 0 
L 1638 4134 
L -19 4134 
L -19 4666 
z
" transform="scale(0.015625)"/>
       <path id="DejaVuSans-6f" d="M 1959 3097 
Q 1497 3097 1228 2736 
Q 959 2375 959 1747 
Q 959 1119 1226 758 
Q 1494 397 1959 397 
Q 2419 397 2687 759 
Q 2956 1122 2956 1747 
Q 2956 2369 2687 2733 
Q 2419 3097 1959 3097 
z
M 1959 3584 
Q 2709 3584 3137 3096 
Q 3566 2609 3566 1747 
Q 3566 888 3137 398 
Q 2709 -91 1959 -91 
Q 1206 -91 779 398 
Q 353 888 353 1747 
Q 353 2609 779 3096 
Q 1206 3584 1959 3584 
z
" transform="scale(0.015625)"/>
       <path id="DejaVuSans-6c" d="M 603 4863 
L 1178 4863 
L 1178 0 
L 603 0 
L 603 4863 
z
" transform="scale(0.015625)"/>
      </defs>
      <use xlink:href="#DejaVuSans-54"/>
      <use xlink:href="#DejaVuSans-6f" x="44.083984"/>
      <use xlink:href="#DejaVuSans-74" x="105.265625"/>
      <use xlink:href="#DejaVuSans-61" x="144.474609"/>
      <use xlink:href="#DejaVuSans-6c" x="205.753906"/>
     </g>
    </g>
   </g>
  </g>
 </g>
 <defs>
  <clipPath id="p7b99ff345b">
   <rect x="61.707813" y="22.318125" width="353.18077" height="164.525145"/>
  </clipPath>
 </defs>
</svg>
