<?xml version="1.0" encoding="utf-8" standalone="no"?>
<!DOCTYPE svg PUBLIC "-//W3C//DTD SVG 1.1//EN"
  "http://www.w3.org/Graphics/SVG/1.1/DTD/svg11.dtd">
<svg xmlns:xlink="http://www.w3.org/1999/xlink" width="512.39952pt" height="224.39952pt" viewBox="0 0 512.39952 224.39952" xmlns="http://www.w3.org/2000/svg" version="1.1">
 <metadata>
  <rdf:RDF xmlns:dc="http://purl.org/dc/elements/1.1/" xmlns:cc="http://creativecommons.org/ns#" xmlns:rdf="http://www.w3.org/1999/02/22-rdf-syntax-ns#">
   <cc:Work>
    <dc:type rdf:resource="http://purl.org/dc/dcmitype/StillImage"/>
    <dc:date>2023-02-06T11:00:33.257782</dc:date>
    <dc:format>image/svg+xml</dc:format>
    <dc:creator>
     <cc:Agent>
      <dc:title>Matplotlib v3.6.2, https://matplotlib.org/</dc:title>
     </cc:Agent>
    </dc:creator>
   </cc:Work>
  </rdf:RDF>
 </metadata>
 <defs>
  <style type="text/css">*{stroke-linejoin: round; stroke-linecap: butt}</style>
 </defs>
 <g id="figure_1">
  <g id="patch_1">
   <path d="M 0 224.39952 
L 512.39952 224.39952 
L 512.39952 0 
L 0 0 
z
" style="fill: #ffffff"/>
  </g>
  <g id="axes_1">
   <g id="patch_2">
    <path d="M 61.707813 186.84327 
L 414.888583 186.84327 
L 414.888583 22.318125 
L 61.707813 22.318125 
z
" style="fill: #ffffff"/>
   </g>
   <g id="PolyCollection_1">
    <path d="M 61.707813 48.199224 
L 61.707813 51.491098 
L 62.408288 51.597276 
L 63.109604 52.385224 
L 63.810079 53.014543 
L 64.510554 53.561749 
L 65.21187 54.05648 
L 65.912345 54.513938 
L 66.612821 54.94315 
L 67.314137 55.350001 
L 68.014612 55.738578 
L 68.715087 56.111855 
L 69.416403 56.472079 
L 70.116878 56.500506 
L 70.817354 56.35511 
L 71.51867 56.208901 
L 72.219145 56.061906 
L 72.91962 55.914153 
L 73.620936 55.765666 
L 74.321411 55.616469 
L 75.021887 55.466585 
L 75.723203 55.316034 
L 76.423678 55.164838 
L 77.124153 55.013016 
L 77.825469 54.860585 
L 78.525944 54.469762 
L 79.22642 54.082426 
L 79.927736 53.694455 
L 80.628211 53.305867 
L 81.328686 52.916681 
L 82.030002 52.526912 
L 82.730477 52.136576 
L 83.430953 51.745689 
L 84.132269 51.354265 
L 84.832744 50.962319 
L 85.533219 50.569862 
L 86.234535 50.176909 
L 86.93501 50.039143 
L 87.635486 49.895973 
L 88.336802 49.752415 
L 89.037277 49.608478 
L 89.737752 49.46417 
L 90.439068 49.319499 
L 91.139543 49.174473 
L 91.840019 49.029097 
L 92.541335 48.883381 
L 93.24181 48.737329 
L 93.942285 48.59095 
L 94.643601 48.444248 
L 95.344076 48.589921 
L 96.044552 48.730298 
L 96.745868 48.87043 
L 97.446343 49.010321 
L 98.146818 49.149973 
L 98.848134 49.289392 
L 99.548609 49.42858 
L 100.249084 49.567542 
L 100.950401 49.706281 
L 101.650876 49.8448 
L 102.351351 49.983104 
L 103.052667 50.121194 
L 103.753142 49.897987 
L 104.453617 49.682219 
L 105.154934 49.466167 
L 105.855409 49.249834 
L 106.555884 49.033225 
L 107.2572 48.816346 
L 107.957675 48.599201 
L 108.65815 48.381794 
L 109.359467 48.164129 
L 110.059942 47.946211 
L 110.760417 47.728043 
L 111.461733 47.50963 
L 112.162208 47.354398 
L 112.862683 47.196551 
L 113.564 47.038494 
L 114.264475 46.880229 
L 114.96495 46.72176 
L 115.666266 46.563088 
L 116.366741 46.404217 
L 117.067216 46.245151 
L 117.768532 46.08589 
L 118.469008 45.926439 
L 119.169483 45.766799 
L 119.870799 45.606973 
L 120.571274 45.810165 
L 121.271749 46.009511 
L 121.973065 46.208708 
L 122.673541 46.407759 
L 123.374016 46.606665 
L 124.075332 46.805428 
L 124.775807 47.004049 
L 125.476282 47.20253 
L 126.177598 47.400872 
L 126.878074 47.599078 
L 127.578549 47.797148 
L 128.279865 47.995085 
L 128.98034 48.49717 
L 129.680815 48.994958 
L 130.382131 49.492645 
L 131.082607 49.990231 
L 131.783082 50.487718 
L 132.484398 50.985106 
L 133.184873 51.482397 
L 133.885348 51.979591 
L 134.586664 52.47669 
L 135.28714 52.973693 
L 135.987615 53.470603 
L 136.688931 53.96742 
L 137.389406 54.155075 
L 138.089881 54.345365 
L 138.791197 54.535548 
L 139.491673 54.725624 
L 140.192148 54.915595 
L 140.893464 55.105461 
L 141.593939 55.295224 
L 142.294414 55.484885 
L 142.99573 55.674444 
L 143.696206 55.863902 
L 144.396681 56.053261 
L 145.097997 56.242521 
L 145.798472 56.297182 
L 146.498947 56.352959 
L 147.200263 56.408633 
L 147.900739 56.464204 
L 148.601214 56.519673 
L 149.30253 56.575042 
L 150.003005 56.630312 
L 150.70348 56.685482 
L 151.404796 56.740555 
L 152.105271 56.79553 
L 152.805747 56.850409 
L 153.507063 56.905193 
L 154.207538 57.211542 
L 154.908013 57.515708 
L 155.609329 57.819792 
L 156.309804 58.123796 
L 157.01028 58.42772 
L 157.711596 58.731565 
L 158.412071 59.035331 
L 159.112546 59.33902 
L 159.813862 59.64263 
L 160.514337 59.946164 
L 161.214813 60.249622 
L 161.916129 60.553004 
L 162.616604 60.533635 
L 163.317079 60.518336 
L 164.018395 60.502941 
L 164.71887 60.487451 
L 165.419346 60.471866 
L 166.120662 60.456187 
L 166.821137 60.440415 
L 167.521612 60.42455 
L 168.222928 60.408594 
L 168.923403 60.392547 
L 169.623879 60.37641 
L 170.325195 60.360184 
L 171.02567 60.029652 
L 171.726145 59.70301 
L 172.427461 59.376259 
L 173.127936 59.049398 
L 173.828412 58.72243 
L 174.529728 58.395354 
L 175.230203 58.068173 
L 175.930678 57.740886 
L 176.631994 57.413496 
L 177.332469 57.086002 
L 178.032945 56.758405 
L 178.734261 56.430707 
L 179.434736 56.399267 
L 180.135211 56.362899 
L 180.836527 56.326457 
L 181.537002 56.289943 
L 182.237478 56.253356 
L 182.938794 56.216698 
L 183.639269 56.179968 
L 184.339744 56.143167 
L 185.04106 56.106296 
L 185.741535 56.069355 
L 186.44201 56.032345 
L 187.143327 55.995266 
L 187.843802 56.398749 
L 188.544277 56.797368 
L 189.245593 57.19594 
L 189.946068 57.594465 
L 190.646543 57.992943 
L 191.34786 58.391375 
L 192.048335 58.789761 
L 192.74881 59.188101 
L 193.450126 59.586395 
L 194.150601 59.984645 
L 194.851076 60.382849 
L 195.552393 60.781009 
L 196.252868 60.886888 
L 196.953343 60.996319 
L 197.654659 61.105692 
L 198.355134 61.215007 
L 199.055609 61.324265 
L 199.756926 61.433465 
L 200.457401 61.542608 
L 201.157876 61.651696 
L 201.859192 61.760727 
L 202.559667 61.869702 
L 203.260142 61.978622 
L 203.961458 62.087486 
L 204.661934 62.170782 
L 205.362409 62.25379 
L 206.063725 62.336746 
L 206.7642 62.419648 
L 207.464675 62.502499 
L 208.165991 62.585297 
L 208.866467 62.668043 
L 209.566942 62.750737 
L 210.268258 62.83338 
L 210.968733 62.915973 
L 211.669208 62.998514 
L 212.370524 63.081005 
L 213.071 63.403152 
L 213.771475 63.723078 
L 214.472791 64.042962 
L 215.173266 64.362805 
L 215.873741 64.682607 
L 216.575057 65.002368 
L 217.275533 65.322088 
L 217.976008 65.641767 
L 218.677324 65.961407 
L 219.377799 66.281006 
L 220.078274 66.600566 
L 220.77959 66.920085 
L 221.480066 66.784886 
L 222.180541 66.654044 
L 222.881857 66.523146 
L 223.582332 66.392194 
L 224.282807 66.261187 
L 224.984123 66.130126 
L 225.684599 65.999011 
L 226.385074 65.867842 
L 227.08639 65.73662 
L 227.786865 65.605345 
L 228.48734 65.474017 
L 229.188656 65.342637 
L 229.889132 65.528793 
L 230.589607 65.711706 
L 231.290923 65.894579 
L 231.991398 66.077412 
L 232.691873 66.260205 
L 233.393189 66.442959 
L 234.093665 66.625673 
L 234.79414 66.808349 
L 235.495456 66.990986 
L 236.195931 67.173584 
L 236.896406 67.356144 
L 237.597722 67.538665 
L 238.298198 67.679872 
L 238.998673 67.821602 
L 239.699989 67.963292 
L 240.400464 68.104943 
L 241.100939 68.246555 
L 241.802255 68.388127 
L 242.50273 68.529661 
L 243.203206 68.671157 
L 243.904522 68.812614 
L 244.604997 68.954032 
L 245.305472 69.095413 
L 246.006788 69.236756 
L 246.707263 69.034445 
L 247.407739 68.835368 
L 248.109055 68.636243 
L 248.80953 68.43707 
L 249.510005 68.237849 
L 250.211321 68.03858 
L 250.911796 67.839263 
L 251.612272 67.6399 
L 252.313588 67.44049 
L 253.014063 67.241033 
L 253.714538 67.041529 
L 254.415854 66.84198 
L 255.116329 66.775384 
L 255.816805 66.707667 
L 256.518121 66.639909 
L 257.218596 66.572109 
L 257.919071 66.504267 
L 258.620387 66.436384 
L 259.320862 66.368461 
L 260.021338 66.300496 
L 260.722654 66.232491 
L 261.423129 66.164446 
L 262.123604 66.09636 
L 262.82492 66.028235 
L 263.525395 66.261559 
L 264.225871 66.491717 
L 264.927187 66.721846 
L 265.627662 66.951944 
L 266.328137 67.182013 
L 267.029453 67.412052 
L 267.729928 67.642062 
L 268.430404 67.872042 
L 269.13172 68.101993 
L 269.832195 68.331915 
L 270.53267 68.561808 
L 271.233986 68.791672 
L 271.934461 68.684076 
L 272.634937 68.579451 
L 273.336253 68.474789 
L 274.036728 68.370089 
L 274.737203 68.265353 
L 275.438519 68.160579 
L 276.138994 68.05577 
L 276.839469 67.950924 
L 277.540786 67.846041 
L 278.241261 67.741123 
L 278.941736 67.636168 
L 279.643052 67.531178 
L 280.343527 67.202858 
L 281.044002 66.877554 
L 281.745319 66.552205 
L 282.445794 66.226811 
L 283.146269 65.901372 
L 283.847585 65.575889 
L 284.54806 65.250363 
L 285.248535 64.924792 
L 285.949852 64.599178 
L 286.650327 64.27352 
L 287.350802 63.947819 
L 288.052118 63.622075 
L 288.752593 63.745446 
L 289.453068 63.863732 
L 290.154385 63.98199 
L 290.85486 64.10022 
L 291.555335 64.218423 
L 292.256651 64.336599 
L 292.957126 64.454748 
L 293.657601 64.57287 
L 294.358917 64.690964 
L 295.059393 64.809032 
L 295.759868 64.927073 
L 296.461184 65.045087 
L 297.161659 65.334315 
L 297.862134 65.622277 
L 298.56345 65.910217 
L 299.263926 66.198133 
L 299.964401 66.486025 
L 300.665717 66.773895 
L 301.366192 67.061742 
L 302.066667 67.349566 
L 302.767983 67.637367 
L 303.468459 67.925145 
L 304.168934 68.212901 
L 304.87025 68.500634 
L 305.570725 68.474786 
L 306.2712 68.451076 
L 306.972516 68.427339 
L 307.672992 68.403574 
L 308.373467 68.379782 
L 309.074783 68.355963 
L 309.775258 68.332116 
L 310.475733 68.308242 
L 311.177049 68.284342 
L 311.877525 68.260414 
L 312.578 68.236459 
L 313.279316 68.212478 
L 313.979791 68.099257 
L 314.680266 67.987706 
L 315.381582 67.876125 
L 316.082058 67.764513 
L 316.782533 67.65287 
L 317.483849 67.541197 
L 318.184324 67.429494 
L 318.884799 67.31776 
L 319.586115 67.205996 
L 320.286591 67.094203 
L 320.987066 66.982379 
L 321.688382 66.870526 
L 322.388857 67.041728 
L 323.089332 67.210175 
L 323.790648 67.378599 
L 324.491124 67.547 
L 325.191599 67.715379 
L 325.892915 67.883735 
L 326.59339 68.052069 
L 327.293865 68.22038 
L 327.995181 68.38867 
L 328.695656 68.556937 
L 329.396132 68.725182 
L 330.097448 68.893405 
L 330.797923 68.875346 
L 331.498398 68.859111 
L 332.199714 68.84285 
L 332.900189 68.826563 
L 333.600665 68.81025 
L 334.301981 68.793911 
L 335.002456 68.777546 
L 335.702931 68.761156 
L 336.404247 68.74474 
L 337.104722 68.728299 
L 337.805198 68.711832 
L 338.506514 68.695341 
L 339.206989 68.988666 
L 339.907464 69.279318 
L 340.60878 69.56995 
L 341.309255 69.860564 
L 342.009731 70.151158 
L 342.711047 70.441733 
L 343.411522 70.73229 
L 344.111997 71.022828 
L 344.813313 71.313347 
L 345.513788 71.603847 
L 346.214264 71.894329 
L 346.91558 72.184792 
L 347.616055 72.32801 
L 348.31653 72.472288 
L 349.017846 72.616545 
L 349.718321 72.760782 
L 350.418797 72.904999 
L 351.120113 73.049194 
L 351.820588 73.19337 
L 352.521063 73.337525 
L 353.222379 73.48166 
L 353.922854 73.625774 
L 354.62333 73.769869 
L 355.324646 73.913944 
L 356.025121 74.244698 
L 356.725596 74.574295 
L 357.426912 74.903874 
L 358.127387 75.233435 
L 358.827863 75.562979 
L 359.529179 75.892505 
L 360.229654 76.222015 
L 360.930129 76.551506 
L 361.631445 76.880981 
L 362.33192 77.210438 
L 363.032395 77.539879 
L 363.733712 77.869302 
L 364.434187 77.887531 
L 365.134662 77.908538 
L 365.835978 77.929522 
L 366.536453 77.950483 
L 367.236928 77.971422 
L 367.938245 77.992339 
L 368.63872 78.013232 
L 369.339195 78.034104 
L 370.040511 78.054953 
L 370.740986 78.07578 
L 371.441461 78.096585 
L 372.142778 78.117368 
L 372.843253 77.837348 
L 373.543728 77.558438 
L 374.245044 77.279503 
L 374.945519 77.000545 
L 375.645994 76.721562 
L 376.347311 76.442555 
L 377.047786 76.163523 
L 377.748261 75.884468 
L 378.449577 75.605389 
L 379.150052 75.326286 
L 379.850527 75.04716 
L 380.551843 74.76801 
L 381.252319 74.88449 
L 381.952794 74.99856 
L 382.65411 75.112611 
L 383.354585 75.226644 
L 384.05506 75.340658 
L 384.756376 75.454655 
L 385.456852 75.568633 
L 386.157327 75.682593 
L 386.858643 75.796535 
L 387.559118 75.910459 
L 388.259593 76.024365 
L 388.960909 76.138253 
L 389.661385 76.277101 
L 390.36186 76.415634 
L 391.063176 76.55415 
L 391.763651 76.692649 
L 392.464126 76.831131 
L 393.165442 76.969595 
L 393.865918 77.108043 
L 394.566393 77.246474 
L 395.267709 77.384887 
L 395.968184 77.523284 
L 396.668659 77.661664 
L 397.369975 77.800028 
L 398.070451 77.909366 
L 398.770926 78.019157 
L 399.472242 78.128931 
L 400.172717 78.238688 
L 400.873192 78.348427 
L 401.574508 78.458148 
L 402.274984 78.567852 
L 402.975459 78.67754 
L 403.676775 78.787209 
L 404.37725 78.896862 
L 405.077725 79.006498 
L 405.779041 79.116116 
L 406.479517 78.791796 
L 407.179992 78.470645 
L 407.881308 78.149472 
L 408.581783 77.828275 
L 409.282258 77.507055 
L 409.983574 77.185811 
L 410.68405 76.864545 
L 411.384525 76.543256 
L 412.085841 76.221943 
L 412.786316 75.900608 
L 413.486791 75.57925 
L 414.188107 75.25787 
L 414.188107 35.868769 
L 414.188107 35.868769 
L 413.486791 36.232398 
L 412.786316 36.59605 
L 412.085841 36.959725 
L 411.384525 37.323422 
L 410.68405 37.687142 
L 409.983574 38.050885 
L 409.282258 38.414652 
L 408.581783 38.778441 
L 407.881308 39.142254 
L 407.179992 39.50609 
L 406.479517 39.869949 
L 405.779041 40.230638 
L 405.077725 40.157422 
L 404.37725 40.084224 
L 403.676775 40.011042 
L 402.975459 39.937877 
L 402.274984 39.86473 
L 401.574508 39.7916 
L 400.873192 39.718487 
L 400.172717 39.645391 
L 399.472242 39.572313 
L 398.770926 39.499253 
L 398.070451 39.42621 
L 397.369975 39.352713 
L 396.668659 39.250225 
L 395.968184 39.147754 
L 395.267709 39.0453 
L 394.566393 38.942862 
L 393.865918 38.840441 
L 393.165442 38.738038 
L 392.464126 38.635651 
L 391.763651 38.533281 
L 391.063176 38.430929 
L 390.36186 38.328593 
L 389.661385 38.226275 
L 388.960909 38.124272 
L 388.259593 38.047265 
L 387.559118 37.970276 
L 386.858643 37.893305 
L 386.157327 37.816352 
L 385.456852 37.739418 
L 384.756376 37.662501 
L 384.05506 37.585602 
L 383.354585 37.508722 
L 382.65411 37.43186 
L 381.952794 37.355017 
L 381.252319 37.278191 
L 380.551843 37.203777 
L 379.850527 37.52504 
L 379.150052 37.846327 
L 378.449577 38.167638 
L 377.748261 38.488973 
L 377.047786 38.810331 
L 376.347311 39.131714 
L 375.645994 39.45312 
L 374.945519 39.774551 
L 374.245044 40.096006 
L 373.543728 40.417485 
L 372.843253 40.738989 
L 372.142778 41.059383 
L 371.441461 41.079018 
L 370.740986 41.098675 
L 370.040511 41.118354 
L 369.339195 41.138055 
L 368.63872 41.157779 
L 367.938245 41.177525 
L 367.236928 41.197294 
L 366.536453 41.217085 
L 365.835978 41.236899 
L 365.134662 41.256735 
L 364.434187 41.276595 
L 363.733712 41.293676 
L 363.032395 40.999597 
L 362.33192 40.705535 
L 361.631445 40.411491 
L 360.930129 40.117464 
L 360.229654 39.823454 
L 359.529179 39.529461 
L 358.827863 39.235486 
L 358.127387 38.941528 
L 357.426912 38.647587 
L 356.725596 38.353664 
L 356.025121 38.059759 
L 355.324646 37.767012 
L 354.62333 37.660985 
L 353.922854 37.554978 
L 353.222379 37.448991 
L 352.521063 37.343024 
L 351.820588 37.237077 
L 351.120113 37.131151 
L 350.418797 37.025245 
L 349.718321 36.91936 
L 349.017846 36.813495 
L 348.31653 36.707651 
L 347.616055 36.601827 
L 346.91558 36.494944 
L 346.214264 36.240852 
L 345.513788 35.986779 
L 344.813313 35.732724 
L 344.111997 35.478688 
L 343.411522 35.224671 
L 342.711047 34.970673 
L 342.009731 34.716693 
L 341.309255 34.462733 
L 340.60878 34.208791 
L 339.907464 33.954869 
L 339.206989 33.700965 
L 338.506514 33.449736 
L 337.805198 33.508375 
L 337.104722 33.567039 
L 336.404247 33.625729 
L 335.702931 33.684444 
L 335.002456 33.743184 
L 334.301981 33.80195 
L 333.600665 33.860742 
L 332.900189 33.91956 
L 332.199714 33.978403 
L 331.498398 34.037273 
L 330.797923 34.096168 
L 330.097448 34.15324 
L 329.396132 34.024073 
L 328.695656 33.894928 
L 327.995181 33.765805 
L 327.293865 33.636705 
L 326.59339 33.507626 
L 325.892915 33.37857 
L 325.191599 33.249536 
L 324.491124 33.120525 
L 323.790648 32.991536 
L 323.089332 32.86257 
L 322.388857 32.733627 
L 321.688382 32.607439 
L 320.987066 32.764365 
L 320.286591 32.921321 
L 319.586115 33.078307 
L 318.884799 33.235323 
L 318.184324 33.392369 
L 317.483849 33.549446 
L 316.782533 33.706552 
L 316.082058 33.863689 
L 315.381582 34.020857 
L 314.680266 34.178055 
L 313.979791 34.335284 
L 313.279316 34.490842 
L 312.578 34.557213 
L 311.877525 34.623611 
L 311.177049 34.690036 
L 310.475733 34.756488 
L 309.775258 34.822966 
L 309.074783 34.889472 
L 308.373467 34.956005 
L 307.672992 35.022565 
L 306.972516 35.089153 
L 306.2712 35.155768 
L 305.570725 35.222411 
L 304.87025 35.286915 
L 304.168934 35.037883 
L 303.468459 34.788874 
L 302.767983 34.539887 
L 302.066667 34.290924 
L 301.366192 34.041983 
L 300.665717 33.793064 
L 299.964401 33.544169 
L 299.263926 33.295297 
L 298.56345 33.046448 
L 297.862134 32.797623 
L 297.161659 32.54882 
L 296.461184 32.301283 
L 295.759868 32.225012 
L 295.059393 32.148767 
L 294.358917 32.07255 
L 293.657601 31.996359 
L 292.957126 31.920195 
L 292.256651 31.844058 
L 291.555335 31.767949 
L 290.85486 31.691867 
L 290.154385 31.615812 
L 289.453068 31.539784 
L 288.752593 31.463785 
L 288.052118 31.39287 
L 287.350802 31.771155 
L 286.650327 32.149483 
L 285.949852 32.527854 
L 285.248535 32.906268 
L 284.54806 33.284726 
L 283.847585 33.663228 
L 283.146269 34.041774 
L 282.445794 34.420364 
L 281.745319 34.798999 
L 281.044002 35.177678 
L 280.343527 35.556403 
L 279.643052 35.932112 
L 278.941736 36.084562 
L 278.241261 36.237049 
L 277.540786 36.389571 
L 276.839469 36.54213 
L 276.138994 36.694724 
L 275.438519 36.847355 
L 274.737203 37.000023 
L 274.036728 37.152727 
L 273.336253 37.305469 
L 272.634937 37.458247 
L 271.934461 37.611063 
L 271.233986 37.760908 
L 270.53267 37.573352 
L 269.832195 37.385825 
L 269.13172 37.198327 
L 268.430404 37.010858 
L 267.729928 36.823418 
L 267.029453 36.636008 
L 266.328137 36.448627 
L 265.627662 36.261276 
L 264.927187 36.073955 
L 264.225871 35.886663 
L 263.525395 35.699402 
L 262.82492 35.515306 
L 262.123604 35.632739 
L 261.423129 35.750212 
L 260.722654 35.867725 
L 260.021338 35.985278 
L 259.320862 36.102873 
L 258.620387 36.220507 
L 257.919071 36.338183 
L 257.218596 36.4559 
L 256.518121 36.573658 
L 255.816805 36.691458 
L 255.116329 36.8093 
L 254.415854 36.928263 
L 253.714538 37.180272 
L 253.014063 37.432327 
L 252.313588 37.684429 
L 251.612272 37.936577 
L 250.911796 38.188772 
L 250.211321 38.441014 
L 249.510005 38.693304 
L 248.80953 38.945641 
L 248.109055 39.198026 
L 247.407739 39.450459 
L 246.707263 39.702941 
L 246.006788 39.952189 
L 245.305472 39.857858 
L 244.604997 39.763564 
L 243.904522 39.669309 
L 243.203206 39.575092 
L 242.50273 39.480914 
L 241.802255 39.386774 
L 241.100939 39.292672 
L 240.400464 39.19861 
L 239.699989 39.104587 
L 238.998673 39.010603 
L 238.298198 38.916659 
L 237.597722 38.822192 
L 236.896406 38.686486 
L 236.195931 38.550819 
L 235.495456 38.41519 
L 234.79414 38.2796 
L 234.093665 38.144048 
L 233.393189 38.008536 
L 232.691873 37.873063 
L 231.991398 37.737629 
L 231.290923 37.602235 
L 230.589607 37.466881 
L 229.889132 37.331567 
L 229.188656 37.199496 
L 228.48734 37.385066 
L 227.786865 37.570688 
L 227.08639 37.756363 
L 226.385074 37.94209 
L 225.684599 38.127871 
L 224.984123 38.313706 
L 224.282807 38.499595 
L 223.582332 38.685537 
L 222.881857 38.871535 
L 222.180541 39.057587 
L 221.480066 39.243695 
L 220.77959 39.425446 
L 220.078274 39.152557 
L 219.377799 38.879708 
L 218.677324 38.606898 
L 217.976008 38.334129 
L 217.275533 38.0614 
L 216.575057 37.788712 
L 215.873741 37.516064 
L 215.173266 37.243458 
L 214.472791 36.970892 
L 213.771475 36.698368 
L 213.071 36.425885 
L 212.370524 36.155623 
L 211.669208 36.125116 
L 210.968733 36.094659 
L 210.268258 36.064253 
L 209.566942 36.033898 
L 208.866467 36.003594 
L 208.165991 35.973342 
L 207.464675 35.943141 
L 206.7642 35.912993 
L 206.063725 35.882898 
L 205.362409 35.852855 
L 204.661934 35.822865 
L 203.961458 35.793162 
L 203.260142 35.737999 
L 202.559667 35.682891 
L 201.859192 35.627838 
L 201.157876 35.572841 
L 200.457401 35.517901 
L 199.756926 35.463016 
L 199.055609 35.408189 
L 198.355134 35.353418 
L 197.654659 35.298706 
L 196.953343 35.244051 
L 196.252868 35.189454 
L 195.552393 35.131305 
L 194.851076 34.780964 
L 194.150601 34.430669 
L 193.450126 34.080418 
L 192.74881 33.730212 
L 192.048335 33.380052 
L 191.34786 33.029938 
L 190.646543 32.679869 
L 189.946068 32.329847 
L 189.245593 31.979872 
L 188.544277 31.629943 
L 187.843802 31.280061 
L 187.143327 30.935045 
L 186.44201 31.030727 
L 185.741535 31.126478 
L 185.04106 31.222299 
L 184.339744 31.318189 
L 183.639269 31.41415 
L 182.938794 31.510181 
L 182.237478 31.606284 
L 181.537002 31.702459 
L 180.836527 31.798706 
L 180.135211 31.895026 
L 179.434736 31.991419 
L 178.734261 32.09274 
L 178.032945 32.49052 
L 177.332469 32.888401 
L 176.631994 33.286384 
L 175.930678 33.684471 
L 175.230203 34.082662 
L 174.529728 34.480958 
L 173.828412 34.87936 
L 173.127936 35.277869 
L 172.427461 35.676486 
L 171.726145 36.075212 
L 171.02567 36.474048 
L 170.325195 36.868992 
L 169.623879 36.949808 
L 168.923403 37.030712 
L 168.222928 37.111706 
L 167.521612 37.192792 
L 166.821137 37.273968 
L 166.120662 37.355238 
L 165.419346 37.4366 
L 164.71887 37.518056 
L 164.018395 37.599607 
L 163.317079 37.681253 
L 162.616604 37.762996 
L 161.916129 37.840668 
L 161.214813 37.595737 
L 160.514337 37.350883 
L 159.813862 37.106104 
L 159.112546 36.861402 
L 158.412071 36.616778 
L 157.711596 36.372232 
L 157.01028 36.127764 
L 156.309804 35.883376 
L 155.609329 35.639067 
L 154.908013 35.394839 
L 154.207538 35.150693 
L 153.507063 34.908729 
L 152.805747 34.918519 
L 152.105271 34.928404 
L 151.404796 34.938386 
L 150.70348 34.948465 
L 150.003005 34.958641 
L 149.30253 34.968917 
L 148.601214 34.979292 
L 147.900739 34.989768 
L 147.200263 35.000345 
L 146.498947 35.011025 
L 145.798472 35.021809 
L 145.097997 35.031475 
L 144.396681 34.906739 
L 143.696206 34.782101 
L 142.99573 34.657562 
L 142.294414 34.533124 
L 141.593939 34.408788 
L 140.893464 34.284554 
L 140.192148 34.160424 
L 139.491673 34.036398 
L 138.791197 33.912477 
L 138.089881 33.788663 
L 137.389406 33.664957 
L 136.688931 33.538615 
L 135.987615 33.103296 
L 135.28714 32.668071 
L 134.586664 32.232939 
L 133.885348 31.797902 
L 133.184873 31.362961 
L 132.484398 30.928117 
L 131.783082 30.49337 
L 131.082607 30.058722 
L 130.382131 29.624173 
L 129.680815 29.189724 
L 128.98034 28.755377 
L 128.279865 28.325327 
L 127.578549 28.199691 
L 126.878074 28.074189 
L 126.177598 27.948823 
L 125.476282 27.823593 
L 124.775807 27.698502 
L 124.075332 27.573551 
L 123.374016 27.448742 
L 122.673541 27.324076 
L 121.973065 27.199554 
L 121.271749 27.07518 
L 120.571274 26.950954 
L 119.870799 26.830574 
L 119.169483 27.073578 
L 118.469008 27.316768 
L 117.768532 27.560146 
L 117.067216 27.803715 
L 116.366741 28.047478 
L 115.666266 28.291438 
L 114.96495 28.535596 
L 114.264475 28.779956 
L 113.564 29.024521 
L 112.862683 29.269294 
L 112.162208 29.514277 
L 111.461733 29.761874 
L 110.760417 30.073135 
L 110.059942 30.384641 
L 109.359467 30.696397 
L 108.65815 31.008406 
L 107.957675 31.320673 
L 107.2572 31.633202 
L 106.555884 31.945996 
L 105.855409 32.259062 
L 105.154934 32.572403 
L 104.453617 32.886024 
L 103.753142 33.19993 
L 103.052667 33.506396 
L 102.351351 33.451985 
L 101.650876 33.397787 
L 100.950401 33.343805 
L 100.249084 33.290042 
L 99.548609 33.236503 
L 98.848134 33.18319 
L 98.146818 33.130107 
L 97.446343 33.077258 
L 96.745868 33.024646 
L 96.044552 32.972277 
L 95.344076 32.920153 
L 94.643601 32.873324 
L 93.942285 33.119501 
L 93.24181 33.365999 
L 92.541335 33.612826 
L 91.840019 33.859988 
L 91.139543 34.107491 
L 90.439068 34.355342 
L 89.737752 34.603549 
L 89.037277 34.85212 
L 88.336802 35.101061 
L 87.635486 35.350382 
L 86.93501 35.600089 
L 86.234535 35.855202 
L 85.533219 36.366472 
L 84.832744 36.878239 
L 84.132269 37.390515 
L 83.430953 37.903315 
L 82.730477 38.416652 
L 82.030002 38.930539 
L 81.328686 39.444994 
L 80.628211 39.960031 
L 79.927736 40.475666 
L 79.22642 40.991919 
L 78.525944 41.508806 
L 77.825469 42.022207 
L 77.124153 42.298397 
L 76.423678 42.575196 
L 75.723203 42.852621 
L 75.021887 43.130692 
L 74.321411 43.409429 
L 73.620936 43.688854 
L 72.91962 43.968988 
L 72.219145 44.249856 
L 71.51867 44.531483 
L 70.817354 44.813895 
L 70.116878 45.09712 
L 69.416403 45.554168 
L 68.715087 45.702035 
L 68.014612 45.862956 
L 67.314137 46.039175 
L 66.612821 46.23367 
L 65.912345 46.450526 
L 65.21187 46.695626 
L 64.510554 46.978 
L 63.810079 47.31285 
L 63.109604 47.729811 
L 62.408288 48.305402 
L 61.707813 48.199224 
z
" clip-path="url(#pccd95e28ab)" style="fill: #d0d1e6; fill-opacity: 0.25"/>
   </g>
   <g id="PolyCollection_2">
    <path d="M 171.02567 46.959248 
L 171.02567 49.544451 
L 171.726145 49.837952 
L 172.427461 50.666867 
L 173.127936 51.738999 
L 173.828412 52.718444 
L 174.529728 53.490645 
L 175.230203 54.203025 
L 175.930678 54.900247 
L 176.631994 55.585038 
L 177.332469 56.259394 
L 178.032945 56.924827 
L 178.734261 57.582518 
L 179.434736 57.993535 
L 180.135211 58.386383 
L 180.836527 58.77461 
L 181.537002 59.158636 
L 182.237478 59.538821 
L 182.938794 59.915478 
L 183.639269 60.288877 
L 184.339744 60.659257 
L 185.04106 61.026829 
L 185.741535 61.39178 
L 186.44201 61.754277 
L 187.143327 62.11447 
L 187.843802 62.05264 
L 188.544277 61.977025 
L 189.245593 61.899874 
L 189.946068 61.821259 
L 190.646543 61.741247 
L 191.34786 61.6599 
L 192.048335 61.577275 
L 192.74881 61.493426 
L 193.450126 61.408402 
L 194.150601 61.322252 
L 194.851076 61.235017 
L 195.552393 61.14674 
L 196.252868 61.369084 
L 196.953343 61.59779 
L 197.654659 61.825384 
L 198.355134 62.051909 
L 199.055609 62.277402 
L 199.756926 62.441122 
L 200.457401 62.603762 
L 201.157876 62.765476 
L 201.859192 62.926296 
L 202.559667 63.086251 
L 203.260142 63.245368 
L 203.961458 63.403673 
L 204.661934 63.579387 
L 205.362409 63.754333 
L 206.063725 63.928538 
L 206.7642 64.102023 
L 207.464675 64.274808 
L 208.165991 64.446912 
L 208.866467 64.548278 
L 209.566942 64.648914 
L 210.268258 64.748923 
L 210.968733 64.848322 
L 211.669208 64.947127 
L 212.370524 65.045351 
L 213.071 64.835346 
L 213.771475 64.620813 
L 214.472791 64.405802 
L 215.173266 64.190323 
L 215.873741 63.974385 
L 216.575057 63.757999 
L 217.275533 63.541175 
L 217.976008 63.32392 
L 218.677324 63.106245 
L 219.377799 62.888157 
L 220.078274 62.669665 
L 220.77959 62.450776 
L 221.480066 62.698602 
L 222.180541 62.952908 
L 222.881857 63.20675 
L 223.582332 63.460137 
L 224.282807 63.713077 
L 224.984123 63.965581 
L 225.684599 64.217657 
L 226.385074 64.469313 
L 227.08639 64.720558 
L 227.786865 64.971399 
L 228.48734 65.221844 
L 229.188656 65.4719 
L 229.889132 65.421979 
L 230.589607 65.367768 
L 231.290923 65.313235 
L 231.991398 65.258385 
L 232.691873 65.203223 
L 233.393189 65.147755 
L 234.093665 65.091985 
L 234.79414 65.035918 
L 235.495456 64.979559 
L 236.195931 64.922913 
L 236.896406 64.865983 
L 237.597722 64.808775 
L 238.298198 64.800108 
L 238.998673 64.790839 
L 239.699989 64.781308 
L 240.400464 64.771517 
L 241.100939 64.761471 
L 241.802255 64.751173 
L 242.50273 64.740627 
L 243.203206 64.729836 
L 243.904522 64.718803 
L 244.604997 64.707533 
L 245.305472 64.696028 
L 246.006788 64.684291 
L 246.707263 65.032664 
L 247.407739 65.38526 
L 248.109055 65.737592 
L 248.80953 66.089664 
L 249.510005 66.441481 
L 250.211321 66.793046 
L 250.911796 67.144362 
L 251.612272 67.495433 
L 252.313588 67.846262 
L 253.014063 68.196852 
L 253.714538 68.547207 
L 254.415854 68.89733 
L 255.116329 69.102541 
L 255.816805 69.305755 
L 256.518121 69.508761 
L 257.218596 69.711561 
L 257.919071 69.914158 
L 258.620387 70.139037 
L 259.320862 70.363645 
L 260.021338 70.589655 
L 260.722654 70.814914 
L 261.423129 71.039985 
L 262.123604 71.264873 
L 262.82492 71.489578 
L 263.525395 71.473523 
L 264.225871 71.465939 
L 264.927187 71.464801 
L 265.627662 71.460092 
L 266.328137 71.446723 
L 267.029453 71.430217 
L 267.729928 71.413478 
L 268.430404 71.414182 
L 269.13172 71.418601 
L 269.832195 71.441034 
L 270.53267 71.461682 
L 271.233986 71.476573 
L 271.934461 71.820469 
L 272.634937 72.165298 
L 273.336253 72.509916 
L 274.036728 72.849489 
L 274.737203 73.182124 
L 275.438519 73.509821 
L 276.138994 73.835115 
L 276.839469 74.162599 
L 277.540786 74.490349 
L 278.241261 74.8175 
L 278.941736 75.139607 
L 279.643052 75.455509 
L 280.343527 75.991969 
L 281.044002 76.530166 
L 281.745319 77.061988 
L 282.445794 77.588263 
L 283.146269 78.109068 
L 283.847585 78.626379 
L 284.54806 79.141686 
L 285.248535 79.66457 
L 285.949852 80.19963 
L 286.650327 80.740754 
L 287.350802 81.286455 
L 288.052118 81.828582 
L 288.752593 81.952271 
L 289.453068 82.075825 
L 290.154385 82.199459 
L 290.85486 82.321089 
L 291.555335 82.440645 
L 292.256651 82.564513 
L 292.957126 82.695204 
L 293.657601 82.838715 
L 294.358917 82.992579 
L 295.059393 83.155427 
L 295.759868 83.323457 
L 296.461184 83.496911 
L 297.161659 83.520454 
L 297.862134 83.549181 
L 298.56345 83.585805 
L 299.263926 83.621136 
L 299.964401 83.654236 
L 300.665717 83.683811 
L 301.366192 83.712689 
L 302.066667 83.745998 
L 302.767983 83.782766 
L 303.468459 83.817968 
L 304.168934 83.850407 
L 304.87025 83.880726 
L 305.570725 84.229699 
L 306.2712 84.57805 
L 306.972516 84.922327 
L 307.672992 85.261538 
L 308.373467 85.596824 
L 309.074783 85.929236 
L 309.775258 86.259431 
L 310.475733 86.593733 
L 311.177049 86.931932 
L 311.877525 87.271478 
L 312.578 87.630275 
L 313.279316 87.985187 
L 313.979791 88.407896 
L 314.680266 88.836441 
L 315.381582 89.265074 
L 316.082058 89.688887 
L 316.782533 90.111126 
L 317.483849 90.534199 
L 318.184324 90.95794 
L 318.884799 91.389448 
L 319.586115 91.828219 
L 320.286591 92.275379 
L 320.987066 92.724345 
L 321.688382 93.176214 
L 322.388857 93.384797 
L 323.089332 93.597979 
L 323.790648 93.813117 
L 324.491124 94.020712 
L 325.191599 94.219664 
L 325.892915 94.41503 
L 326.59339 94.608314 
L 327.293865 94.851672 
L 327.995181 95.093754 
L 328.695656 95.335983 
L 329.396132 95.575531 
L 330.097448 95.813905 
L 330.797923 96.299016 
L 331.498398 96.784393 
L 332.199714 97.263777 
L 332.900189 97.734424 
L 333.600665 98.201758 
L 334.301981 98.66352 
L 335.002456 99.121438 
L 335.702931 99.584797 
L 336.404247 100.051041 
L 337.104722 100.513451 
L 337.805198 100.969057 
L 338.506514 101.423262 
L 339.206989 101.542914 
L 339.907464 101.664586 
L 340.60878 101.785721 
L 341.309255 101.905677 
L 342.009731 102.067611 
L 342.711047 102.229983 
L 343.411522 102.376988 
L 344.111997 102.529655 
L 344.813313 102.684666 
L 345.513788 102.846816 
L 346.214264 103.013929 
L 346.91558 103.183177 
L 347.616055 103.519222 
L 348.31653 103.860034 
L 349.017846 104.201525 
L 349.718321 104.536993 
L 350.418797 104.868584 
L 351.120113 105.197498 
L 351.820588 105.526036 
L 352.521063 105.858063 
L 353.222379 106.195393 
L 353.922854 106.537196 
L 354.62333 106.883604 
L 355.324646 107.230049 
L 356.025121 107.405518 
L 356.725596 107.586362 
L 357.426912 107.767409 
L 358.127387 107.94378 
L 358.827863 108.120069 
L 359.529179 108.295772 
L 360.229654 108.471447 
L 360.930129 108.651381 
L 361.631445 108.836631 
L 362.33192 109.019185 
L 363.032395 109.200184 
L 363.733712 109.378536 
L 364.434187 109.734285 
L 365.134662 110.074173 
L 365.835978 110.408483 
L 366.536453 110.742565 
L 367.236928 111.072816 
L 367.938245 111.397337 
L 368.63872 111.71536 
L 369.339195 112.034342 
L 370.040511 112.353936 
L 370.740986 112.67675 
L 371.441461 112.995662 
L 372.142778 113.308887 
L 372.843253 113.818885 
L 373.543728 114.329728 
L 374.245044 114.835964 
L 374.945519 115.334167 
L 375.645994 115.823695 
L 376.347311 116.301683 
L 377.047786 116.778225 
L 377.748261 117.250715 
L 378.449577 117.722413 
L 379.150052 118.191574 
L 379.850527 118.651785 
L 380.551843 119.111525 
L 381.252319 119.248955 
L 381.952794 119.391484 
L 382.65411 119.536909 
L 383.354585 119.682754 
L 384.05506 119.759091 
L 384.756376 119.841716 
L 385.456852 119.934129 
L 386.157327 120.036014 
L 386.858643 120.146276 
L 387.559118 120.263833 
L 388.259593 120.377849 
L 388.960909 120.499043 
L 389.661385 120.775027 
L 390.36186 121.042287 
L 391.063176 121.298433 
L 391.763651 121.546249 
L 392.464126 121.793258 
L 393.165442 122.043391 
L 393.865918 122.293575 
L 394.566393 122.677845 
L 395.267709 123.072211 
L 395.968184 123.479632 
L 396.668659 123.888451 
L 397.369975 124.302942 
L 398.070451 124.754058 
L 398.770926 125.107301 
L 399.472242 125.431422 
L 400.172717 125.754104 
L 400.873192 126.077618 
L 401.574508 126.401997 
L 402.274984 126.726219 
L 402.975459 127.05034 
L 403.676775 127.374361 
L 404.37725 127.694606 
L 405.077725 128.014899 
L 405.779041 128.336243 
L 406.479517 129.09164 
L 407.179992 129.680389 
L 407.881308 130.278469 
L 408.581783 130.876391 
L 409.282258 131.474157 
L 409.983574 132.071767 
L 410.68405 132.669223 
L 411.384525 133.266526 
L 412.085841 133.863677 
L 412.786316 134.460678 
L 413.486791 135.05753 
L 414.188107 135.654234 
L 414.188107 92.821575 
L 414.188107 92.821575 
L 413.486791 92.337199 
L 412.786316 91.852972 
L 412.085841 91.368893 
L 411.384525 90.884966 
L 410.68405 90.401189 
L 409.983574 89.917566 
L 409.282258 89.434097 
L 408.581783 88.950783 
L 407.881308 88.467626 
L 407.179992 87.984627 
L 406.479517 87.492296 
L 405.779041 86.827558 
L 405.077725 86.59661 
L 404.37725 86.366912 
L 403.676775 86.137166 
L 402.975459 85.903844 
L 402.274984 85.670622 
L 401.574508 85.437501 
L 400.873192 85.204536 
L 400.172717 84.972836 
L 399.472242 84.742314 
L 398.770926 84.505162 
L 398.070451 84.236103 
L 397.369975 83.860081 
L 396.668659 83.52106 
L 395.968184 83.187582 
L 395.267709 82.85863 
L 394.566393 82.539978 
L 393.865918 82.227409 
L 393.165442 82.048057 
L 392.464126 81.868218 
L 391.763651 81.691648 
L 391.063176 81.513191 
L 390.36186 81.327473 
L 389.661385 81.130596 
L 388.960909 80.925076 
L 388.259593 80.875652 
L 387.559118 80.832654 
L 386.858643 80.787648 
L 386.157327 80.750614 
L 385.456852 80.722375 
L 384.756376 80.70351 
L 384.05506 80.694762 
L 383.354585 80.691757 
L 382.65411 80.619515 
L 381.952794 80.546913 
L 381.252319 80.475875 
L 380.551843 80.413084 
L 379.850527 80.028026 
L 379.150052 79.641957 
L 378.449577 79.246411 
L 377.748261 78.847862 
L 377.047786 78.448154 
L 376.347311 78.044548 
L 375.645994 77.640691 
L 374.945519 77.226098 
L 374.245044 76.804346 
L 373.543728 76.374563 
L 372.843253 75.941009 
L 372.142778 75.505371 
L 371.441461 75.266867 
L 370.740986 75.022086 
L 370.040511 74.771605 
L 369.339195 74.524409 
L 368.63872 74.276829 
L 367.938245 74.029714 
L 367.236928 73.775966 
L 366.536453 73.516537 
L 365.835978 73.253316 
L 365.134662 72.988558 
L 364.434187 72.716657 
L 363.733712 72.423377 
L 363.032395 72.30753 
L 362.33192 72.189044 
L 361.631445 72.069096 
L 360.930129 71.94741 
L 360.229654 71.831226 
L 359.529179 71.719024 
L 358.827863 71.606713 
L 358.127387 71.49391 
L 357.426912 71.381076 
L 356.725596 71.263585 
L 356.025121 71.148637 
L 355.324646 71.042633 
L 354.62333 70.765837 
L 353.922854 70.489127 
L 353.222379 70.217082 
L 352.521063 69.949086 
L 351.820588 69.685762 
L 351.120113 69.425989 
L 350.418797 69.165579 
L 349.718321 68.902096 
L 349.017846 68.634636 
L 348.31653 68.361319 
L 347.616055 68.088925 
L 346.91558 67.818456 
L 346.214264 67.715385 
L 345.513788 67.615394 
L 344.813313 67.520519 
L 344.111997 67.433006 
L 343.411522 67.346885 
L 342.711047 67.26855 
L 342.009731 67.177801 
L 341.309255 67.08959 
L 340.60878 67.044127 
L 339.907464 66.998613 
L 339.206989 66.954516 
L 338.506514 66.914056 
L 337.805198 66.53916 
L 337.104722 66.160622 
L 336.404247 65.774544 
L 335.702931 65.384335 
L 335.002456 64.999118 
L 334.301981 64.617803 
L 333.600665 64.233006 
L 332.900189 63.842775 
L 332.199714 63.449072 
L 331.498398 63.047245 
L 330.797923 62.639236 
L 330.097448 62.228303 
L 329.396132 62.064398 
L 328.695656 61.899987 
L 327.995181 61.733244 
L 327.293865 61.567074 
L 326.59339 61.405703 
L 325.892915 61.294971 
L 325.191599 61.182869 
L 324.491124 61.068773 
L 323.790648 60.946926 
L 323.089332 60.818687 
L 322.388857 60.69289 
L 321.688382 60.578395 
L 320.987066 60.220223 
L 320.286591 59.86611 
L 319.586115 59.51268 
L 318.884799 59.166678 
L 318.184324 58.827286 
L 317.483849 58.495245 
L 316.782533 58.163733 
L 316.082058 57.833487 
L 315.381582 57.503409 
L 314.680266 57.168904 
L 313.979791 56.83318 
L 313.279316 56.496495 
L 312.578 56.228684 
L 311.877525 55.958884 
L 311.177049 55.707695 
L 310.475733 55.457733 
L 309.775258 55.21159 
L 309.074783 54.969914 
L 308.373467 54.725774 
L 307.672992 54.478658 
L 306.972516 54.226683 
L 306.2712 53.96762 
L 305.570725 53.702559 
L 304.87025 53.431164 
L 304.168934 53.477883 
L 303.468459 53.521506 
L 302.767983 53.561845 
L 302.066667 53.601457 
L 301.366192 53.645232 
L 300.665717 53.693869 
L 299.964401 53.741964 
L 299.263926 53.78671 
L 298.56345 53.829585 
L 297.862134 53.871475 
L 297.161659 53.920766 
L 296.461184 53.979501 
L 295.759868 53.889306 
L 295.059393 53.805355 
L 294.358917 53.726928 
L 293.657601 53.657971 
L 292.957126 53.597772 
L 292.256651 53.551357 
L 291.555335 53.512589 
L 290.85486 53.477628 
L 290.154385 53.440318 
L 289.453068 53.401431 
L 288.752593 53.364188 
L 288.052118 53.336853 
L 287.350802 52.891561 
L 286.650327 52.443115 
L 285.949852 51.999004 
L 285.248535 51.560891 
L 284.54806 51.13425 
L 283.847585 50.715866 
L 283.146269 50.296268 
L 282.445794 49.874003 
L 281.745319 49.446682 
L 281.044002 49.014363 
L 280.343527 48.576802 
L 279.643052 48.134503 
L 278.941736 47.913247 
L 278.241261 47.686639 
L 277.540786 47.455415 
L 276.839469 47.223943 
L 276.138994 46.993599 
L 275.438519 46.76562 
L 274.737203 46.53504 
L 274.036728 46.299857 
L 273.336253 46.057629 
L 272.634937 45.810738 
L 271.934461 45.564036 
L 271.233986 45.310146 
L 270.53267 45.386493 
L 269.832195 45.457728 
L 269.13172 45.528305 
L 268.430404 45.617182 
L 267.729928 45.710393 
L 267.029453 45.821579 
L 266.328137 45.933105 
L 265.627662 46.041482 
L 264.927187 46.141887 
L 264.225871 46.239548 
L 263.525395 46.343885 
L 262.82492 46.454763 
L 262.123604 46.325242 
L 261.423129 46.195903 
L 260.722654 46.066749 
L 260.021338 45.937781 
L 259.320862 45.809565 
L 258.620387 45.683143 
L 257.919071 45.556992 
L 257.218596 45.453525 
L 256.518121 45.350262 
L 255.816805 45.247205 
L 255.116329 45.144356 
L 254.415854 45.043504 
L 253.714538 44.798199 
L 253.014063 44.553127 
L 252.313588 44.308289 
L 251.612272 44.063691 
L 250.911796 43.819334 
L 250.211321 43.575223 
L 249.510005 43.33136 
L 248.80953 43.08775 
L 248.109055 42.844395 
L 247.407739 42.601299 
L 246.707263 42.358467 
L 246.006788 42.111413 
L 245.305472 42.224925 
L 244.604997 42.338668 
L 243.904522 42.452647 
L 243.203206 42.566863 
L 242.50273 42.681321 
L 241.802255 42.796024 
L 241.100939 42.910974 
L 240.400464 43.026177 
L 239.699989 43.141635 
L 238.998673 43.257352 
L 238.298198 43.373333 
L 237.597722 43.489915 
L 236.896406 43.655587 
L 236.195931 43.821538 
L 235.495456 43.987772 
L 234.79414 44.154294 
L 234.093665 44.321107 
L 233.393189 44.488218 
L 232.691873 44.65563 
L 231.991398 44.823349 
L 231.290923 44.99138 
L 230.589607 45.159727 
L 229.889132 45.328397 
L 229.188656 45.501357 
L 228.48734 45.375101 
L 227.786865 45.249234 
L 227.08639 45.123763 
L 226.385074 44.998696 
L 225.684599 44.87404 
L 224.984123 44.749804 
L 224.282807 44.625996 
L 223.582332 44.502625 
L 222.881857 44.3797 
L 222.180541 44.257229 
L 221.480066 44.135224 
L 220.77959 44.006738 
L 220.078274 44.345743 
L 219.377799 44.685144 
L 218.677324 45.02495 
L 217.976008 45.365168 
L 217.275533 45.705807 
L 216.575057 46.046875 
L 215.873741 46.388383 
L 215.173266 46.730339 
L 214.472791 47.072753 
L 213.771475 47.415635 
L 213.071 47.758996 
L 212.370524 48.106885 
L 211.669208 48.147675 
L 210.968733 48.189045 
L 210.268258 48.23101 
L 209.566942 48.273585 
L 208.866467 48.316786 
L 208.165991 48.360718 
L 207.464675 48.335235 
L 206.7642 48.310434 
L 206.063725 48.286332 
L 205.362409 48.26295 
L 204.661934 48.24031 
L 203.961458 48.218437 
L 203.260142 48.215548 
L 202.559667 48.213471 
L 201.859192 48.212231 
L 201.157876 48.211858 
L 200.457401 48.212378 
L 199.756926 48.213824 
L 199.055609 48.21635 
L 198.355134 48.159092 
L 197.654659 48.102866 
L 196.953343 48.04771 
L 196.252868 47.993665 
L 195.552393 47.933259 
L 194.851076 48.185483 
L 194.150601 48.438751 
L 193.450126 48.693102 
L 192.74881 48.948581 
L 192.048335 49.205234 
L 191.34786 49.463112 
L 190.646543 49.722266 
L 189.946068 49.982756 
L 189.245593 50.244643 
L 188.544277 50.507994 
L 187.843802 50.772882 
L 187.143327 51.051554 
L 186.44201 50.912539 
L 185.741535 50.775828 
L 185.04106 50.64157 
L 184.339744 50.509934 
L 183.639269 50.381105 
L 182.938794 50.255296 
L 182.237478 50.132745 
L 181.537002 50.013722 
L 180.836527 49.89854 
L 180.135211 49.787558 
L 179.434736 49.681198 
L 178.734261 49.593007 
L 178.032945 49.271749 
L 177.332469 48.958234 
L 176.631994 48.653641 
L 175.930678 48.359484 
L 175.230203 48.077757 
L 174.529728 47.811188 
L 173.828412 47.604441 
L 173.127936 47.261295 
L 172.427461 47.010837 
L 171.726145 47.252749 
L 171.02567 46.959248 
z
" clip-path="url(#pccd95e28ab)" style="fill: #67a9cf; fill-opacity: 0.25"/>
   </g>
   <g id="PolyCollection_3">
    <path d="M 171.02567 47.346739 
L 171.02567 49.15696 
L 171.726145 49.462631 
L 172.427461 49.681071 
L 173.127936 50.181642 
L 173.828412 50.661408 
L 174.529728 50.903658 
L 175.230203 51.139787 
L 175.930678 51.370673 
L 176.631994 51.597005 
L 177.332469 51.819333 
L 178.032945 52.038105 
L 178.734261 52.253685 
L 179.434736 52.525374 
L 180.135211 52.794298 
L 180.836527 53.060703 
L 181.537002 53.324799 
L 182.237478 53.586764 
L 182.938794 53.846766 
L 183.639269 54.104936 
L 184.339744 54.361406 
L 185.04106 54.616283 
L 185.741535 54.869668 
L 186.44201 55.121649 
L 187.143327 55.372311 
L 187.843802 55.640572 
L 188.544277 55.907717 
L 189.245593 56.173807 
L 189.946068 56.438887 
L 190.646543 56.703007 
L 191.34786 56.966212 
L 192.048335 57.228542 
L 192.74881 57.490033 
L 193.450126 57.750723 
L 194.150601 58.010642 
L 194.851076 58.269821 
L 195.552393 58.528293 
L 196.252868 58.806236 
L 196.953343 59.083502 
L 197.654659 59.360116 
L 198.355134 59.636101 
L 199.055609 59.911478 
L 199.756926 60.1253 
L 200.457401 60.338561 
L 201.157876 60.551272 
L 201.859192 60.763458 
L 202.559667 60.97513 
L 203.260142 61.186307 
L 203.961458 61.397003 
L 204.661934 61.600526 
L 205.362409 61.803586 
L 206.063725 62.00619 
L 206.7642 62.208356 
L 207.464675 62.410088 
L 208.165991 62.61141 
L 208.866467 62.742117 
L 209.566942 62.872429 
L 210.268258 63.00236 
L 210.968733 63.131915 
L 211.669208 63.261108 
L 212.370524 63.389945 
L 213.071 63.449594 
L 213.771475 63.508911 
L 214.472791 63.567915 
L 215.173266 63.626609 
L 215.873741 63.684999 
L 216.575057 63.743093 
L 217.275533 63.800894 
L 217.976008 63.858411 
L 218.677324 63.91565 
L 219.377799 63.972614 
L 220.078274 64.029315 
L 220.77959 64.085752 
L 221.480066 64.154935 
L 222.180541 64.22386 
L 222.881857 64.29253 
L 223.582332 64.360954 
L 224.282807 64.42913 
L 224.984123 64.497068 
L 225.684599 64.56477 
L 226.385074 64.632239 
L 227.08639 64.69948 
L 227.786865 64.766497 
L 228.48734 64.8333 
L 229.188656 64.899883 
L 229.889132 64.985104 
L 230.589607 65.070109 
L 231.290923 65.154897 
L 231.991398 65.239477 
L 232.691873 65.323848 
L 233.393189 65.408016 
L 234.093665 65.491984 
L 234.79414 65.575755 
L 235.495456 65.659334 
L 236.195931 65.742721 
L 236.896406 65.825918 
L 237.597722 65.908932 
L 238.298198 65.997606 
L 238.998673 66.086123 
L 239.699989 66.174473 
L 240.400464 66.26267 
L 241.100939 66.35071 
L 241.802255 66.438596 
L 242.50273 66.526332 
L 243.203206 66.613917 
L 243.904522 66.701357 
L 244.604997 66.788651 
L 245.305472 66.875803 
L 246.006788 66.962809 
L 246.707263 67.066762 
L 247.407739 67.170571 
L 248.109055 67.274239 
L 248.80953 67.377772 
L 249.510005 67.481167 
L 250.211321 67.584434 
L 250.911796 67.687564 
L 251.612272 67.790568 
L 252.313588 67.893437 
L 253.014063 67.996186 
L 253.714538 68.098806 
L 254.415854 68.201302 
L 255.116329 68.291319 
L 255.816805 68.381219 
L 256.518121 68.471006 
L 257.218596 68.560677 
L 257.919071 68.650239 
L 258.620387 68.762059 
L 259.320862 68.873771 
L 260.021338 68.98609 
L 260.722654 69.098307 
L 261.423129 69.210431 
L 262.123604 69.322453 
L 262.82492 69.434377 
L 263.525395 69.614927 
L 264.225871 69.802935 
L 264.927187 69.996987 
L 265.627662 70.187474 
L 266.328137 70.369785 
L 267.029453 70.548635 
L 267.729928 70.727246 
L 268.430404 70.923209 
L 269.13172 71.123099 
L 269.832195 71.340384 
L 270.53267 71.556069 
L 271.233986 71.765471 
L 271.934461 71.968009 
L 272.634937 72.167263 
L 273.336253 72.366366 
L 274.036728 72.560859 
L 274.737203 72.748251 
L 275.438519 72.931184 
L 276.138994 73.111629 
L 276.839469 73.293827 
L 277.540786 73.476598 
L 278.241261 73.658755 
L 278.941736 73.835559 
L 279.643052 74.006347 
L 280.343527 74.174355 
L 281.044002 74.340149 
L 281.745319 74.499887 
L 282.445794 74.654203 
L 283.146269 74.80278 
L 283.847585 74.947829 
L 284.54806 75.090908 
L 285.248535 75.242625 
L 285.949852 75.406388 
L 286.650327 75.576534 
L 287.350802 75.750974 
L 288.052118 75.921831 
L 288.752593 76.124855 
L 289.453068 76.331639 
L 290.154385 76.53905 
L 290.85486 76.744986 
L 291.555335 76.949211 
L 292.256651 77.156949 
L 292.957126 77.371259 
L 293.657601 77.600226 
L 294.358917 77.838461 
L 295.059393 78.085754 
L 295.759868 78.337847 
L 296.461184 78.595104 
L 297.161659 78.873083 
L 297.862134 79.158841 
L 298.56345 79.452094 
L 299.263926 79.744005 
L 299.964401 80.033808 
L 300.665717 80.320131 
L 301.366192 80.605577 
L 302.066667 80.895196 
L 302.767983 81.188051 
L 303.468459 81.480245 
L 304.168934 81.770253 
L 304.87025 82.05815 
L 305.570725 82.35174 
L 306.2712 82.643451 
L 306.972516 82.931795 
L 307.672992 83.214883 
L 308.373467 83.493744 
L 309.074783 83.76996 
L 309.775258 84.043645 
L 310.475733 84.321764 
L 311.177049 84.603916 
L 311.877525 84.887939 
L 312.578 85.1895 
L 313.279316 85.487367 
L 313.979791 85.766906 
L 314.680266 86.049996 
L 315.381582 86.33231 
L 316.082058 86.608743 
L 316.782533 86.884229 
L 317.483849 87.160966 
L 318.184324 87.438717 
L 318.884799 87.724626 
L 319.586115 88.018304 
L 320.286591 88.320844 
L 320.987066 88.623825 
L 321.688382 88.930673 
L 322.388857 89.276447 
L 323.089332 89.629855 
L 323.790648 89.984634 
L 324.491124 90.331818 
L 325.191599 90.669638 
L 325.892915 91.004186 
L 326.59339 91.336631 
L 327.293865 91.714819 
L 327.995181 92.094502 
L 328.695656 92.474344 
L 329.396132 92.851227 
L 330.097448 93.227112 
L 330.797923 93.663203 
L 331.498398 94.098188 
L 332.199714 94.526688 
L 332.900189 94.94696 
L 333.600665 95.363806 
L 334.301981 95.774943 
L 335.002456 96.183679 
L 335.702931 96.595532 
L 336.404247 97.011627 
L 337.104722 97.424382 
L 337.805198 97.831757 
L 338.506514 98.236593 
L 339.206989 98.619753 
L 339.907464 99.004289 
L 340.60878 99.388453 
L 341.309255 99.771456 
L 342.009731 100.195262 
L 342.711047 100.618347 
L 343.411522 101.025955 
L 344.111997 101.441077 
L 344.813313 101.857942 
L 345.513788 102.281992 
L 346.214264 102.710413 
L 346.91558 103.141025 
L 347.616055 103.592076 
L 348.31653 104.046338 
L 349.017846 104.501332 
L 349.718321 104.950516 
L 350.418797 105.396135 
L 351.120113 105.83913 
L 351.820588 106.281631 
L 352.521063 106.728186 
L 353.222379 107.180109 
L 353.922854 107.636299 
L 354.62333 108.097142 
L 355.324646 108.557957 
L 356.025121 109.033644 
L 356.725596 109.514745 
L 357.426912 109.997254 
L 358.127387 110.4751 
L 358.827863 110.952865 
L 359.529179 111.430199 
L 360.229654 111.90772 
L 360.930129 112.389265 
L 361.631445 112.875528 
L 362.33192 113.35955 
L 363.032395 113.842102 
L 363.733712 114.322025 
L 364.434187 114.668227 
L 365.134662 114.997066 
L 365.835978 115.320605 
L 366.536453 115.643288 
L 367.236928 115.962181 
L 367.938245 116.275528 
L 368.63872 116.582743 
L 369.339195 116.891491 
L 370.040511 117.200359 
L 370.740986 117.513911 
L 371.441461 117.823169 
L 372.142778 118.126222 
L 372.843253 118.326048 
L 373.543728 118.524677 
L 374.245044 118.719176 
L 374.945519 118.904544 
L 375.645994 119.081438 
L 376.347311 119.246342 
L 377.047786 119.41034 
L 377.748261 119.570703 
L 378.449577 119.730504 
L 379.150052 119.887995 
L 379.850527 120.036742 
L 380.551843 120.184777 
L 381.252319 120.40736 
L 381.952794 120.637676 
L 382.65411 120.870863 
L 383.354585 121.103913 
L 384.05506 121.268046 
L 384.756376 121.437984 
L 385.456852 121.617991 
L 386.157327 121.807143 
L 386.858643 122.004403 
L 387.559118 122.208173 
L 388.259593 122.409782 
L 388.960909 122.617237 
L 389.661385 123.005525 
L 390.36186 123.385205 
L 391.063176 123.752973 
L 391.763651 124.113807 
L 392.464126 124.473221 
L 393.165442 124.836275 
L 393.865918 125.199808 
L 394.566393 125.700079 
L 395.267709 126.210557 
L 395.968184 126.730374 
L 396.668659 127.253284 
L 397.369975 127.78155 
L 398.070451 128.323863 
L 398.770926 128.765887 
L 399.472242 129.181343 
L 400.172717 129.592525 
L 400.873192 130.004424 
L 401.574508 130.417171 
L 402.274984 130.829787 
L 402.975459 131.24227 
L 403.676775 131.654623 
L 404.37725 132.063388 
L 405.077725 132.472025 
L 405.779041 132.882029 
L 406.479517 133.2919 
L 407.179992 133.546242 
L 407.881308 133.800359 
L 408.581783 134.054252 
L 409.282258 134.307928 
L 409.983574 134.561379 
L 410.68405 134.814621 
L 411.384525 135.067647 
L 412.085841 135.320465 
L 412.786316 135.573071 
L 413.486791 135.825475 
L 414.188107 136.07767 
L 414.188107 107.021081 
L 414.188107 107.021081 
L 413.486791 106.87721 
L 412.786316 106.733541 
L 412.085841 106.59008 
L 411.384525 106.446826 
L 410.68405 106.303785 
L 409.983574 106.160955 
L 409.282258 106.018339 
L 408.581783 105.875943 
L 407.881308 105.733768 
L 407.179992 105.591813 
L 406.479517 105.450088 
L 405.779041 105.124833 
L 405.077725 104.799707 
L 404.37725 104.475521 
L 403.676775 104.151459 
L 402.975459 103.823634 
L 402.274984 103.495941 
L 401.574508 103.16838 
L 400.873192 102.84095 
L 400.172717 102.514801 
L 399.472242 102.18994 
L 398.770926 101.861293 
L 398.070451 101.498181 
L 397.369975 101.030518 
L 396.668659 100.564421 
L 395.968184 100.104184 
L 395.267709 99.646777 
L 394.566393 99.203387 
L 393.865918 98.765964 
L 393.165442 98.459111 
L 392.464126 98.151342 
L 391.763651 97.846326 
L 391.063176 97.540032 
L 390.36186 97.225087 
L 389.661385 96.899777 
L 388.960909 96.565711 
L 388.259593 96.411656 
L 387.559118 96.265354 
L 386.858643 96.115664 
L 386.157327 95.974737 
L 385.456852 95.842867 
L 384.756376 95.720702 
L 384.05506 95.608375 
L 383.354585 95.50227 
L 382.65411 95.326338 
L 381.952794 95.150603 
L 381.252319 94.976456 
L 380.551843 94.807925 
L 379.850527 94.711573 
L 379.150052 94.614454 
L 378.449577 94.507653 
L 377.748261 94.397621 
L 377.047786 94.286199 
L 376.347311 94.170461 
L 375.645994 94.053933 
L 374.945519 93.92712 
L 374.245044 93.792947 
L 373.543728 93.651842 
L 372.843253 93.506487 
L 372.142778 93.361091 
L 371.441461 93.111267 
L 370.740986 92.855683 
L 370.040511 92.594796 
L 369.339195 92.335723 
L 368.63872 92.076761 
L 367.938245 91.817691 
L 367.236928 91.551624 
L 366.536453 91.279686 
L 365.835978 91.00392 
L 365.134662 90.727243 
L 364.434187 90.443144 
L 363.733712 90.13917 
L 363.032395 89.701393 
L 362.33192 89.26096 
L 361.631445 88.818974 
L 360.930129 88.374802 
L 360.229654 87.93673 
L 359.529179 87.502869 
L 358.827863 87.068684 
L 358.127387 86.633855 
L 357.426912 86.198999 
L 356.725596 85.759464 
L 356.025121 85.321271 
L 355.324646 84.891986 
L 354.62333 84.479458 
L 353.922854 84.067079 
L 353.222379 83.65932 
L 352.521063 83.255816 
L 351.820588 82.85692 
L 351.120113 82.461006 
L 350.418797 82.064578 
L 349.718321 81.66502 
L 349.017846 81.261174 
L 348.31653 80.851259 
L 347.616055 80.442214 
L 346.91558 80.036649 
L 346.214264 79.650388 
L 345.513788 79.267146 
L 344.813313 78.889618 
L 344.111997 78.519406 
L 343.411522 78.15118 
L 342.711047 77.788898 
L 342.009731 77.414305 
L 341.309255 77.04341 
L 340.60878 76.716444 
L 339.907464 76.389398 
L 339.206989 76.063613 
L 338.506514 75.742107 
L 337.805198 75.392968 
L 337.104722 75.041334 
L 336.404247 74.680727 
L 335.702931 74.315504 
L 335.002456 73.953913 
L 334.301981 73.598544 
L 333.600665 73.238256 
L 332.900189 72.872665 
L 332.199714 72.503714 
L 331.498398 72.126135 
L 330.797923 71.742865 
L 330.097448 71.358046 
L 329.396132 71.034261 
L 328.695656 70.709795 
L 327.995181 70.383276 
L 327.293865 70.057316 
L 326.59339 69.733382 
L 325.892915 69.464422 
L 325.191599 69.19411 
L 324.491124 68.921492 
L 323.790648 68.641846 
L 323.089332 68.35586 
L 322.388857 68.072896 
L 321.688382 67.798202 
L 320.987066 67.563789 
L 320.286591 67.33247 
L 319.586115 67.103204 
L 318.884799 66.880886 
L 318.184324 66.664676 
L 317.483849 66.455422 
L 316.782533 66.246354 
L 316.082058 66.038137 
L 315.381582 65.829456 
L 314.680266 65.61741 
L 313.979791 65.405011 
L 313.279316 65.193936 
L 312.578 64.959433 
L 311.877525 64.72275 
L 311.177049 64.506391 
L 310.475733 64.290734 
L 309.775258 64.07876 
L 309.074783 63.870924 
L 308.373467 63.66094 
L 307.672992 63.447757 
L 306.972516 63.230008 
L 306.2712 63.005362 
L 305.570725 62.774015 
L 304.87025 62.537587 
L 304.168934 62.305124 
L 303.468459 62.069552 
L 302.767983 61.830115 
L 302.066667 61.589048 
L 301.366192 61.352367 
L 300.665717 61.120809 
L 299.964401 60.888889 
L 299.263926 60.653571 
L 298.56345 60.41626 
L 297.862134 60.178014 
L 297.161659 59.947575 
L 296.461184 59.723977 
L 295.759868 59.5233 
L 295.059393 59.32913 
L 294.358917 59.140859 
L 293.657601 58.96199 
L 292.957126 58.792959 
L 292.256651 58.635882 
L 291.555335 58.486698 
L 290.85486 58.342119 
L 290.154385 58.194831 
L 289.453068 58.045436 
L 288.752593 57.897136 
L 288.052118 57.754849 
L 287.350802 57.642317 
L 286.650327 57.526639 
L 285.949852 57.415579 
L 285.248535 57.310196 
L 284.54806 57.216419 
L 283.847585 57.129832 
L 283.146269 57.042 
L 282.445794 56.951539 
L 281.745319 56.856287 
L 281.044002 56.75591 
L 280.343527 56.649981 
L 279.643052 56.543253 
L 278.941736 56.434327 
L 278.241261 56.319856 
L 277.540786 56.201079 
L 276.839469 56.082067 
L 276.138994 55.963881 
L 275.438519 55.848494 
L 274.737203 55.730592 
L 274.036728 55.607607 
L 273.336253 55.477739 
L 272.634937 55.342774 
L 271.934461 55.207937 
L 271.233986 55.070128 
L 270.53267 54.923569 
L 269.832195 54.772417 
L 269.13172 54.620426 
L 268.430404 54.487355 
L 267.729928 54.358403 
L 267.029453 54.247522 
L 266.328137 54.136983 
L 265.627662 54.023619 
L 264.927187 53.901799 
L 264.225871 53.777232 
L 263.525395 53.659745 
L 262.82492 53.549803 
L 262.123604 53.493061 
L 261.423129 53.436418 
L 260.722654 53.379871 
L 260.021338 53.323422 
L 259.320862 53.267075 
L 258.620387 53.213314 
L 257.919071 53.159659 
L 257.218596 53.128718 
L 256.518121 53.097886 
L 255.816805 53.067169 
L 255.116329 53.036564 
L 254.415854 53.006078 
L 253.714538 52.964703 
L 253.014063 52.923456 
L 252.313588 52.882333 
L 251.612272 52.841336 
L 250.911796 52.800468 
L 250.211321 52.759732 
L 249.510005 52.719127 
L 248.80953 52.678656 
L 248.109055 52.638318 
L 247.407739 52.598119 
L 246.707263 52.558057 
L 246.006788 52.518137 
L 245.305472 52.49472 
L 244.604997 52.471448 
L 243.904522 52.448318 
L 243.203206 52.425329 
L 242.50273 52.40249 
L 241.802255 52.379802 
L 241.100939 52.357265 
L 240.400464 52.334876 
L 239.699989 52.312648 
L 238.998673 52.290575 
L 238.298198 52.268663 
L 237.597722 52.246912 
L 236.896406 52.234578 
L 236.195931 52.222434 
L 235.495456 52.210473 
L 234.79414 52.198704 
L 234.093665 52.187127 
L 233.393189 52.175752 
L 232.691873 52.164573 
L 231.991398 52.153596 
L 231.290923 52.142828 
L 230.589607 52.132274 
L 229.889132 52.121931 
L 229.188656 52.111804 
L 228.48734 52.119027 
L 227.786865 52.126463 
L 227.08639 52.134119 
L 226.385074 52.142 
L 225.684599 52.150108 
L 224.984123 52.158444 
L 224.282807 52.167022 
L 223.582332 52.175837 
L 222.881857 52.184895 
L 222.180541 52.194204 
L 221.480066 52.203768 
L 220.77959 52.21359 
L 220.078274 52.235511 
L 219.377799 52.257694 
L 218.677324 52.280146 
L 217.976008 52.302867 
L 217.275533 52.325873 
L 216.575057 52.349156 
L 215.873741 52.372733 
L 215.173266 52.396611 
L 214.472791 52.420788 
L 213.771475 52.445275 
L 213.071 52.47008 
L 212.370524 52.495211 
L 211.669208 52.453616 
L 210.968733 52.412378 
L 210.268258 52.371502 
L 209.566942 52.331001 
L 208.866467 52.290882 
L 208.165991 52.251152 
L 207.464675 52.141888 
L 206.7642 52.033041 
L 206.063725 51.924621 
L 205.362409 51.816641 
L 204.661934 51.709115 
L 203.961458 51.602053 
L 203.260142 51.487527 
L 202.559667 51.373481 
L 201.859192 51.259931 
L 201.157876 51.146894 
L 200.457401 51.034384 
L 199.756926 50.922422 
L 199.055609 50.811022 
L 198.355134 50.63962 
L 197.654659 50.468826 
L 196.953343 50.29866 
L 196.252868 50.129153 
L 195.552393 49.960317 
L 194.851076 49.810788 
L 194.150601 49.661973 
L 193.450126 49.513892 
L 192.74881 49.366582 
L 192.048335 49.220077 
L 191.34786 49.074407 
L 190.646543 48.929616 
L 189.946068 48.785736 
L 189.245593 48.642822 
L 188.544277 48.500911 
L 187.843802 48.360061 
L 187.143327 48.220321 
L 186.44201 48.104537 
L 185.741535 47.990071 
L 185.04106 47.877009 
L 184.339744 47.765439 
L 183.639269 47.655462 
L 182.938794 47.547186 
L 182.237478 47.440741 
L 181.537002 47.336259 
L 180.836527 47.233908 
L 180.135211 47.133866 
L 179.434736 47.036343 
L 178.734261 46.941585 
L 178.032945 46.903698 
L 177.332469 46.868997 
L 176.631994 46.837852 
L 175.930678 46.810716 
L 175.230203 46.78813 
L 174.529728 46.770786 
L 173.828412 46.759568 
L 173.127936 46.642218 
L 172.427461 46.545677 
L 171.726145 46.902593 
L 171.02567 47.346739 
z
" clip-path="url(#pccd95e28ab)" style="fill: #02818a; fill-opacity: 0.25"/>
   </g>
   <g id="matplotlib.axis_1">
    <g id="xtick_1">
     <g id="line2d_1">
      <defs>
       <path id="m6c36b73534" d="M 0 0 
L 0 3.5 
" style="stroke: #000000; stroke-width: 0.8"/>
      </defs>
      <g>
       <use xlink:href="#m6c36b73534" x="70.116878" y="186.84327" style="stroke: #000000; stroke-width: 0.8"/>
      </g>
     </g>
     <g id="text_1">
      <!-- 1980 -->
      <g transform="translate(57.391878 201.441708) scale(0.1 -0.1)">
       <defs>
        <path id="DejaVuSans-31" d="M 794 531 
L 1825 531 
L 1825 4091 
L 703 3866 
L 703 4441 
L 1819 4666 
L 2450 4666 
L 2450 531 
L 3481 531 
L 3481 0 
L 794 0 
L 794 531 
z
" transform="scale(0.015625)"/>
        <path id="DejaVuSans-39" d="M 703 97 
L 703 672 
Q 941 559 1184 500 
Q 1428 441 1663 441 
Q 2288 441 2617 861 
Q 2947 1281 2994 2138 
Q 2813 1869 2534 1725 
Q 2256 1581 1919 1581 
Q 1219 1581 811 2004 
Q 403 2428 403 3163 
Q 403 3881 828 4315 
Q 1253 4750 1959 4750 
Q 2769 4750 3195 4129 
Q 3622 3509 3622 2328 
Q 3622 1225 3098 567 
Q 2575 -91 1691 -91 
Q 1453 -91 1209 -44 
Q 966 3 703 97 
z
M 1959 2075 
Q 2384 2075 2632 2365 
Q 2881 2656 2881 3163 
Q 2881 3666 2632 3958 
Q 2384 4250 1959 4250 
Q 1534 4250 1286 3958 
Q 1038 3666 1038 3163 
Q 1038 2656 1286 2365 
Q 1534 2075 1959 2075 
z
" transform="scale(0.015625)"/>
        <path id="DejaVuSans-38" d="M 2034 2216 
Q 1584 2216 1326 1975 
Q 1069 1734 1069 1313 
Q 1069 891 1326 650 
Q 1584 409 2034 409 
Q 2484 409 2743 651 
Q 3003 894 3003 1313 
Q 3003 1734 2745 1975 
Q 2488 2216 2034 2216 
z
M 1403 2484 
Q 997 2584 770 2862 
Q 544 3141 544 3541 
Q 544 4100 942 4425 
Q 1341 4750 2034 4750 
Q 2731 4750 3128 4425 
Q 3525 4100 3525 3541 
Q 3525 3141 3298 2862 
Q 3072 2584 2669 2484 
Q 3125 2378 3379 2068 
Q 3634 1759 3634 1313 
Q 3634 634 3220 271 
Q 2806 -91 2034 -91 
Q 1263 -91 848 271 
Q 434 634 434 1313 
Q 434 1759 690 2068 
Q 947 2378 1403 2484 
z
M 1172 3481 
Q 1172 3119 1398 2916 
Q 1625 2713 2034 2713 
Q 2441 2713 2670 2916 
Q 2900 3119 2900 3481 
Q 2900 3844 2670 4047 
Q 2441 4250 2034 4250 
Q 1625 4250 1398 4047 
Q 1172 3844 1172 3481 
z
" transform="scale(0.015625)"/>
        <path id="DejaVuSans-30" d="M 2034 4250 
Q 1547 4250 1301 3770 
Q 1056 3291 1056 2328 
Q 1056 1369 1301 889 
Q 1547 409 2034 409 
Q 2525 409 2770 889 
Q 3016 1369 3016 2328 
Q 3016 3291 2770 3770 
Q 2525 4250 2034 4250 
z
M 2034 4750 
Q 2819 4750 3233 4129 
Q 3647 3509 3647 2328 
Q 3647 1150 3233 529 
Q 2819 -91 2034 -91 
Q 1250 -91 836 529 
Q 422 1150 422 2328 
Q 422 3509 836 4129 
Q 1250 4750 2034 4750 
z
" transform="scale(0.015625)"/>
       </defs>
       <use xlink:href="#DejaVuSans-31"/>
       <use xlink:href="#DejaVuSans-39" x="63.623047"/>
       <use xlink:href="#DejaVuSans-38" x="127.246094"/>
       <use xlink:href="#DejaVuSans-30" x="190.869141"/>
      </g>
     </g>
    </g>
    <g id="xtick_2">
     <g id="line2d_2">
      <g>
       <use xlink:href="#m6c36b73534" x="112.162208" y="186.84327" style="stroke: #000000; stroke-width: 0.8"/>
      </g>
     </g>
     <g id="text_2">
      <!-- 1985 -->
      <g transform="translate(99.437208 201.441708) scale(0.1 -0.1)">
       <defs>
        <path id="DejaVuSans-35" d="M 691 4666 
L 3169 4666 
L 3169 4134 
L 1269 4134 
L 1269 2991 
Q 1406 3038 1543 3061 
Q 1681 3084 1819 3084 
Q 2600 3084 3056 2656 
Q 3513 2228 3513 1497 
Q 3513 744 3044 326 
Q 2575 -91 1722 -91 
Q 1428 -91 1123 -41 
Q 819 9 494 109 
L 494 744 
Q 775 591 1075 516 
Q 1375 441 1709 441 
Q 2250 441 2565 725 
Q 2881 1009 2881 1497 
Q 2881 1984 2565 2268 
Q 2250 2553 1709 2553 
Q 1456 2553 1204 2497 
Q 953 2441 691 2322 
L 691 4666 
z
" transform="scale(0.015625)"/>
       </defs>
       <use xlink:href="#DejaVuSans-31"/>
       <use xlink:href="#DejaVuSans-39" x="63.623047"/>
       <use xlink:href="#DejaVuSans-38" x="127.246094"/>
       <use xlink:href="#DejaVuSans-35" x="190.869141"/>
      </g>
     </g>
    </g>
    <g id="xtick_3">
     <g id="line2d_3">
      <g>
       <use xlink:href="#m6c36b73534" x="154.207538" y="186.84327" style="stroke: #000000; stroke-width: 0.8"/>
      </g>
     </g>
     <g id="text_3">
      <!-- 1990 -->
      <g transform="translate(141.482538 201.441708) scale(0.1 -0.1)">
       <use xlink:href="#DejaVuSans-31"/>
       <use xlink:href="#DejaVuSans-39" x="63.623047"/>
       <use xlink:href="#DejaVuSans-39" x="127.246094"/>
       <use xlink:href="#DejaVuSans-30" x="190.869141"/>
      </g>
     </g>
    </g>
    <g id="xtick_4">
     <g id="line2d_4">
      <g>
       <use xlink:href="#m6c36b73534" x="196.252868" y="186.84327" style="stroke: #000000; stroke-width: 0.8"/>
      </g>
     </g>
     <g id="text_4">
      <!-- 1995 -->
      <g transform="translate(183.527868 201.441708) scale(0.1 -0.1)">
       <use xlink:href="#DejaVuSans-31"/>
       <use xlink:href="#DejaVuSans-39" x="63.623047"/>
       <use xlink:href="#DejaVuSans-39" x="127.246094"/>
       <use xlink:href="#DejaVuSans-35" x="190.869141"/>
      </g>
     </g>
    </g>
    <g id="xtick_5">
     <g id="line2d_5">
      <g>
       <use xlink:href="#m6c36b73534" x="238.298198" y="186.84327" style="stroke: #000000; stroke-width: 0.8"/>
      </g>
     </g>
     <g id="text_5">
      <!-- 2000 -->
      <g transform="translate(225.573198 201.441708) scale(0.1 -0.1)">
       <defs>
        <path id="DejaVuSans-32" d="M 1228 531 
L 3431 531 
L 3431 0 
L 469 0 
L 469 531 
Q 828 903 1448 1529 
Q 2069 2156 2228 2338 
Q 2531 2678 2651 2914 
Q 2772 3150 2772 3378 
Q 2772 3750 2511 3984 
Q 2250 4219 1831 4219 
Q 1534 4219 1204 4116 
Q 875 4013 500 3803 
L 500 4441 
Q 881 4594 1212 4672 
Q 1544 4750 1819 4750 
Q 2544 4750 2975 4387 
Q 3406 4025 3406 3419 
Q 3406 3131 3298 2873 
Q 3191 2616 2906 2266 
Q 2828 2175 2409 1742 
Q 1991 1309 1228 531 
z
" transform="scale(0.015625)"/>
       </defs>
       <use xlink:href="#DejaVuSans-32"/>
       <use xlink:href="#DejaVuSans-30" x="63.623047"/>
       <use xlink:href="#DejaVuSans-30" x="127.246094"/>
       <use xlink:href="#DejaVuSans-30" x="190.869141"/>
      </g>
     </g>
    </g>
    <g id="xtick_6">
     <g id="line2d_6">
      <g>
       <use xlink:href="#m6c36b73534" x="280.343527" y="186.84327" style="stroke: #000000; stroke-width: 0.8"/>
      </g>
     </g>
     <g id="text_6">
      <!-- 2005 -->
      <g transform="translate(267.618527 201.441708) scale(0.1 -0.1)">
       <use xlink:href="#DejaVuSans-32"/>
       <use xlink:href="#DejaVuSans-30" x="63.623047"/>
       <use xlink:href="#DejaVuSans-30" x="127.246094"/>
       <use xlink:href="#DejaVuSans-35" x="190.869141"/>
      </g>
     </g>
    </g>
    <g id="xtick_7">
     <g id="line2d_7">
      <g>
       <use xlink:href="#m6c36b73534" x="322.388857" y="186.84327" style="stroke: #000000; stroke-width: 0.8"/>
      </g>
     </g>
     <g id="text_7">
      <!-- 2010 -->
      <g transform="translate(309.663857 201.441708) scale(0.1 -0.1)">
       <use xlink:href="#DejaVuSans-32"/>
       <use xlink:href="#DejaVuSans-30" x="63.623047"/>
       <use xlink:href="#DejaVuSans-31" x="127.246094"/>
       <use xlink:href="#DejaVuSans-30" x="190.869141"/>
      </g>
     </g>
    </g>
    <g id="xtick_8">
     <g id="line2d_8">
      <g>
       <use xlink:href="#m6c36b73534" x="364.434187" y="186.84327" style="stroke: #000000; stroke-width: 0.8"/>
      </g>
     </g>
     <g id="text_8">
      <!-- 2015 -->
      <g transform="translate(351.709187 201.441708) scale(0.1 -0.1)">
       <use xlink:href="#DejaVuSans-32"/>
       <use xlink:href="#DejaVuSans-30" x="63.623047"/>
       <use xlink:href="#DejaVuSans-31" x="127.246094"/>
       <use xlink:href="#DejaVuSans-35" x="190.869141"/>
      </g>
     </g>
    </g>
    <g id="xtick_9">
     <g id="line2d_9">
      <g>
       <use xlink:href="#m6c36b73534" x="406.479517" y="186.84327" style="stroke: #000000; stroke-width: 0.8"/>
      </g>
     </g>
     <g id="text_9">
      <!-- 2020 -->
      <g transform="translate(393.754517 201.441708) scale(0.1 -0.1)">
       <use xlink:href="#DejaVuSans-32"/>
       <use xlink:href="#DejaVuSans-30" x="63.623047"/>
       <use xlink:href="#DejaVuSans-32" x="127.246094"/>
       <use xlink:href="#DejaVuSans-30" x="190.869141"/>
      </g>
     </g>
    </g>
    <g id="text_10">
     <!-- Year -->
     <g transform="translate(227.710698 215.119833) scale(0.1 -0.1)">
      <defs>
       <path id="DejaVuSans-59" d="M -13 4666 
L 666 4666 
L 1959 2747 
L 3244 4666 
L 3922 4666 
L 2272 2222 
L 2272 0 
L 1638 0 
L 1638 2222 
L -13 4666 
z
" transform="scale(0.015625)"/>
       <path id="DejaVuSans-65" d="M 3597 1894 
L 3597 1613 
L 953 1613 
Q 991 1019 1311 708 
Q 1631 397 2203 397 
Q 2534 397 2845 478 
Q 3156 559 3463 722 
L 3463 178 
Q 3153 47 2828 -22 
Q 2503 -91 2169 -91 
Q 1331 -91 842 396 
Q 353 884 353 1716 
Q 353 2575 817 3079 
Q 1281 3584 2069 3584 
Q 2775 3584 3186 3129 
Q 3597 2675 3597 1894 
z
M 3022 2063 
Q 3016 2534 2758 2815 
Q 2500 3097 2075 3097 
Q 1594 3097 1305 2825 
Q 1016 2553 972 2059 
L 3022 2063 
z
" transform="scale(0.015625)"/>
       <path id="DejaVuSans-61" d="M 2194 1759 
Q 1497 1759 1228 1600 
Q 959 1441 959 1056 
Q 959 750 1161 570 
Q 1363 391 1709 391 
Q 2188 391 2477 730 
Q 2766 1069 2766 1631 
L 2766 1759 
L 2194 1759 
z
M 3341 1997 
L 3341 0 
L 2766 0 
L 2766 531 
Q 2569 213 2275 61 
Q 1981 -91 1556 -91 
Q 1019 -91 701 211 
Q 384 513 384 1019 
Q 384 1609 779 1909 
Q 1175 2209 1959 2209 
L 2766 2209 
L 2766 2266 
Q 2766 2663 2505 2880 
Q 2244 3097 1772 3097 
Q 1472 3097 1187 3025 
Q 903 2953 641 2809 
L 641 3341 
Q 956 3463 1253 3523 
Q 1550 3584 1831 3584 
Q 2591 3584 2966 3190 
Q 3341 2797 3341 1997 
z
" transform="scale(0.015625)"/>
       <path id="DejaVuSans-72" d="M 2631 2963 
Q 2534 3019 2420 3045 
Q 2306 3072 2169 3072 
Q 1681 3072 1420 2755 
Q 1159 2438 1159 1844 
L 1159 0 
L 581 0 
L 581 3500 
L 1159 3500 
L 1159 2956 
Q 1341 3275 1631 3429 
Q 1922 3584 2338 3584 
Q 2397 3584 2469 3576 
Q 2541 3569 2628 3553 
L 2631 2963 
z
" transform="scale(0.015625)"/>
      </defs>
      <use xlink:href="#DejaVuSans-59"/>
      <use xlink:href="#DejaVuSans-65" x="47.833984"/>
      <use xlink:href="#DejaVuSans-61" x="109.357422"/>
      <use xlink:href="#DejaVuSans-72" x="170.636719"/>
     </g>
    </g>
   </g>
   <g id="matplotlib.axis_2">
    <g id="ytick_1">
     <g id="line2d_10">
      <defs>
       <path id="m3861fdcedd" d="M 0 0 
L -3.5 0 
" style="stroke: #000000; stroke-width: 0.8"/>
      </defs>
      <g>
       <use xlink:href="#m3861fdcedd" x="61.707813" y="186.84327" style="stroke: #000000; stroke-width: 0.8"/>
      </g>
     </g>
     <g id="text_11">
      <!-- 5000 -->
      <g transform="translate(20.878125 190.642489) scale(0.1 -0.1)">
       <defs>
        <path id="DejaVuSans-2212" d="M 678 2272 
L 4684 2272 
L 4684 1741 
L 678 1741 
L 678 2272 
z
" transform="scale(0.015625)"/>
       </defs>
       <use xlink:href="#DejaVuSans-2212"/>
       <use xlink:href="#DejaVuSans-35" x="83.789062"/>
       <use xlink:href="#DejaVuSans-30" x="147.412109"/>
       <use xlink:href="#DejaVuSans-30" x="211.035156"/>
       <use xlink:href="#DejaVuSans-30" x="274.658203"/>
      </g>
     </g>
    </g>
    <g id="ytick_2">
     <g id="line2d_11">
      <g>
       <use xlink:href="#m3861fdcedd" x="61.707813" y="159.422413" style="stroke: #000000; stroke-width: 0.8"/>
      </g>
     </g>
     <g id="text_12">
      <!-- 4000 -->
      <g transform="translate(20.878125 163.221631) scale(0.1 -0.1)">
       <defs>
        <path id="DejaVuSans-34" d="M 2419 4116 
L 825 1625 
L 2419 1625 
L 2419 4116 
z
M 2253 4666 
L 3047 4666 
L 3047 1625 
L 3713 1625 
L 3713 1100 
L 3047 1100 
L 3047 0 
L 2419 0 
L 2419 1100 
L 313 1100 
L 313 1709 
L 2253 4666 
z
" transform="scale(0.015625)"/>
       </defs>
       <use xlink:href="#DejaVuSans-2212"/>
       <use xlink:href="#DejaVuSans-34" x="83.789062"/>
       <use xlink:href="#DejaVuSans-30" x="147.412109"/>
       <use xlink:href="#DejaVuSans-30" x="211.035156"/>
       <use xlink:href="#DejaVuSans-30" x="274.658203"/>
      </g>
     </g>
    </g>
    <g id="ytick_3">
     <g id="line2d_12">
      <g>
       <use xlink:href="#m3861fdcedd" x="61.707813" y="132.001555" style="stroke: #000000; stroke-width: 0.8"/>
      </g>
     </g>
     <g id="text_13">
      <!-- 3000 -->
      <g transform="translate(20.878125 135.800774) scale(0.1 -0.1)">
       <defs>
        <path id="DejaVuSans-33" d="M 2597 2516 
Q 3050 2419 3304 2112 
Q 3559 1806 3559 1356 
Q 3559 666 3084 287 
Q 2609 -91 1734 -91 
Q 1441 -91 1130 -33 
Q 819 25 488 141 
L 488 750 
Q 750 597 1062 519 
Q 1375 441 1716 441 
Q 2309 441 2620 675 
Q 2931 909 2931 1356 
Q 2931 1769 2642 2001 
Q 2353 2234 1838 2234 
L 1294 2234 
L 1294 2753 
L 1863 2753 
Q 2328 2753 2575 2939 
Q 2822 3125 2822 3475 
Q 2822 3834 2567 4026 
Q 2313 4219 1838 4219 
Q 1578 4219 1281 4162 
Q 984 4106 628 3988 
L 628 4550 
Q 988 4650 1302 4700 
Q 1616 4750 1894 4750 
Q 2613 4750 3031 4423 
Q 3450 4097 3450 3541 
Q 3450 3153 3228 2886 
Q 3006 2619 2597 2516 
z
" transform="scale(0.015625)"/>
       </defs>
       <use xlink:href="#DejaVuSans-2212"/>
       <use xlink:href="#DejaVuSans-33" x="83.789062"/>
       <use xlink:href="#DejaVuSans-30" x="147.412109"/>
       <use xlink:href="#DejaVuSans-30" x="211.035156"/>
       <use xlink:href="#DejaVuSans-30" x="274.658203"/>
      </g>
     </g>
    </g>
    <g id="ytick_4">
     <g id="line2d_13">
      <g>
       <use xlink:href="#m3861fdcedd" x="61.707813" y="104.580698" style="stroke: #000000; stroke-width: 0.8"/>
      </g>
     </g>
     <g id="text_14">
      <!-- 2000 -->
      <g transform="translate(20.878125 108.379916) scale(0.1 -0.1)">
       <use xlink:href="#DejaVuSans-2212"/>
       <use xlink:href="#DejaVuSans-32" x="83.789062"/>
       <use xlink:href="#DejaVuSans-30" x="147.412109"/>
       <use xlink:href="#DejaVuSans-30" x="211.035156"/>
       <use xlink:href="#DejaVuSans-30" x="274.658203"/>
      </g>
     </g>
    </g>
    <g id="ytick_5">
     <g id="line2d_14">
      <g>
       <use xlink:href="#m3861fdcedd" x="61.707813" y="77.15984" style="stroke: #000000; stroke-width: 0.8"/>
      </g>
     </g>
     <g id="text_15">
      <!-- 1000 -->
      <g transform="translate(20.878125 80.959059) scale(0.1 -0.1)">
       <use xlink:href="#DejaVuSans-2212"/>
       <use xlink:href="#DejaVuSans-31" x="83.789062"/>
       <use xlink:href="#DejaVuSans-30" x="147.412109"/>
       <use xlink:href="#DejaVuSans-30" x="211.035156"/>
       <use xlink:href="#DejaVuSans-30" x="274.658203"/>
      </g>
     </g>
    </g>
    <g id="ytick_6">
     <g id="line2d_15">
      <g>
       <use xlink:href="#m3861fdcedd" x="61.707813" y="49.738983" style="stroke: #000000; stroke-width: 0.8"/>
      </g>
     </g>
     <g id="text_16">
      <!-- 0 -->
      <g transform="translate(48.345313 53.538201) scale(0.1 -0.1)">
       <use xlink:href="#DejaVuSans-30"/>
      </g>
     </g>
    </g>
    <g id="ytick_7">
     <g id="line2d_16">
      <g>
       <use xlink:href="#m3861fdcedd" x="61.707813" y="22.318125" style="stroke: #000000; stroke-width: 0.8"/>
      </g>
     </g>
     <g id="text_17">
      <!-- 1000 -->
      <g transform="translate(29.257812 26.117344) scale(0.1 -0.1)">
       <use xlink:href="#DejaVuSans-31"/>
       <use xlink:href="#DejaVuSans-30" x="63.623047"/>
       <use xlink:href="#DejaVuSans-30" x="127.246094"/>
       <use xlink:href="#DejaVuSans-30" x="190.869141"/>
      </g>
     </g>
    </g>
    <g id="text_18">
     <!-- Mass change [Gt] -->
     <g transform="translate(14.798438 148.483823) rotate(-90) scale(0.1 -0.1)">
      <defs>
       <path id="DejaVuSans-4d" d="M 628 4666 
L 1569 4666 
L 2759 1491 
L 3956 4666 
L 4897 4666 
L 4897 0 
L 4281 0 
L 4281 4097 
L 3078 897 
L 2444 897 
L 1241 4097 
L 1241 0 
L 628 0 
L 628 4666 
z
" transform="scale(0.015625)"/>
       <path id="DejaVuSans-73" d="M 2834 3397 
L 2834 2853 
Q 2591 2978 2328 3040 
Q 2066 3103 1784 3103 
Q 1356 3103 1142 2972 
Q 928 2841 928 2578 
Q 928 2378 1081 2264 
Q 1234 2150 1697 2047 
L 1894 2003 
Q 2506 1872 2764 1633 
Q 3022 1394 3022 966 
Q 3022 478 2636 193 
Q 2250 -91 1575 -91 
Q 1294 -91 989 -36 
Q 684 19 347 128 
L 347 722 
Q 666 556 975 473 
Q 1284 391 1588 391 
Q 1994 391 2212 530 
Q 2431 669 2431 922 
Q 2431 1156 2273 1281 
Q 2116 1406 1581 1522 
L 1381 1569 
Q 847 1681 609 1914 
Q 372 2147 372 2553 
Q 372 3047 722 3315 
Q 1072 3584 1716 3584 
Q 2034 3584 2315 3537 
Q 2597 3491 2834 3397 
z
" transform="scale(0.015625)"/>
       <path id="DejaVuSans-20" transform="scale(0.015625)"/>
       <path id="DejaVuSans-63" d="M 3122 3366 
L 3122 2828 
Q 2878 2963 2633 3030 
Q 2388 3097 2138 3097 
Q 1578 3097 1268 2742 
Q 959 2388 959 1747 
Q 959 1106 1268 751 
Q 1578 397 2138 397 
Q 2388 397 2633 464 
Q 2878 531 3122 666 
L 3122 134 
Q 2881 22 2623 -34 
Q 2366 -91 2075 -91 
Q 1284 -91 818 406 
Q 353 903 353 1747 
Q 353 2603 823 3093 
Q 1294 3584 2113 3584 
Q 2378 3584 2631 3529 
Q 2884 3475 3122 3366 
z
" transform="scale(0.015625)"/>
       <path id="DejaVuSans-68" d="M 3513 2113 
L 3513 0 
L 2938 0 
L 2938 2094 
Q 2938 2591 2744 2837 
Q 2550 3084 2163 3084 
Q 1697 3084 1428 2787 
Q 1159 2491 1159 1978 
L 1159 0 
L 581 0 
L 581 4863 
L 1159 4863 
L 1159 2956 
Q 1366 3272 1645 3428 
Q 1925 3584 2291 3584 
Q 2894 3584 3203 3211 
Q 3513 2838 3513 2113 
z
" transform="scale(0.015625)"/>
       <path id="DejaVuSans-6e" d="M 3513 2113 
L 3513 0 
L 2938 0 
L 2938 2094 
Q 2938 2591 2744 2837 
Q 2550 3084 2163 3084 
Q 1697 3084 1428 2787 
Q 1159 2491 1159 1978 
L 1159 0 
L 581 0 
L 581 3500 
L 1159 3500 
L 1159 2956 
Q 1366 3272 1645 3428 
Q 1925 3584 2291 3584 
Q 2894 3584 3203 3211 
Q 3513 2838 3513 2113 
z
" transform="scale(0.015625)"/>
       <path id="DejaVuSans-67" d="M 2906 1791 
Q 2906 2416 2648 2759 
Q 2391 3103 1925 3103 
Q 1463 3103 1205 2759 
Q 947 2416 947 1791 
Q 947 1169 1205 825 
Q 1463 481 1925 481 
Q 2391 481 2648 825 
Q 2906 1169 2906 1791 
z
M 3481 434 
Q 3481 -459 3084 -895 
Q 2688 -1331 1869 -1331 
Q 1566 -1331 1297 -1286 
Q 1028 -1241 775 -1147 
L 775 -588 
Q 1028 -725 1275 -790 
Q 1522 -856 1778 -856 
Q 2344 -856 2625 -561 
Q 2906 -266 2906 331 
L 2906 616 
Q 2728 306 2450 153 
Q 2172 0 1784 0 
Q 1141 0 747 490 
Q 353 981 353 1791 
Q 353 2603 747 3093 
Q 1141 3584 1784 3584 
Q 2172 3584 2450 3431 
Q 2728 3278 2906 2969 
L 2906 3500 
L 3481 3500 
L 3481 434 
z
" transform="scale(0.015625)"/>
       <path id="DejaVuSans-5b" d="M 550 4863 
L 1875 4863 
L 1875 4416 
L 1125 4416 
L 1125 -397 
L 1875 -397 
L 1875 -844 
L 550 -844 
L 550 4863 
z
" transform="scale(0.015625)"/>
       <path id="DejaVuSans-47" d="M 3809 666 
L 3809 1919 
L 2778 1919 
L 2778 2438 
L 4434 2438 
L 4434 434 
Q 4069 175 3628 42 
Q 3188 -91 2688 -91 
Q 1594 -91 976 548 
Q 359 1188 359 2328 
Q 359 3472 976 4111 
Q 1594 4750 2688 4750 
Q 3144 4750 3555 4637 
Q 3966 4525 4313 4306 
L 4313 3634 
Q 3963 3931 3569 4081 
Q 3175 4231 2741 4231 
Q 1884 4231 1454 3753 
Q 1025 3275 1025 2328 
Q 1025 1384 1454 906 
Q 1884 428 2741 428 
Q 3075 428 3337 486 
Q 3600 544 3809 666 
z
" transform="scale(0.015625)"/>
       <path id="DejaVuSans-74" d="M 1172 4494 
L 1172 3500 
L 2356 3500 
L 2356 3053 
L 1172 3053 
L 1172 1153 
Q 1172 725 1289 603 
Q 1406 481 1766 481 
L 2356 481 
L 2356 0 
L 1766 0 
Q 1100 0 847 248 
Q 594 497 594 1153 
L 594 3053 
L 172 3053 
L 172 3500 
L 594 3500 
L 594 4494 
L 1172 4494 
z
" transform="scale(0.015625)"/>
       <path id="DejaVuSans-5d" d="M 1947 4863 
L 1947 -844 
L 622 -844 
L 622 -397 
L 1369 -397 
L 1369 4416 
L 622 4416 
L 622 4863 
L 1947 4863 
z
" transform="scale(0.015625)"/>
      </defs>
      <use xlink:href="#DejaVuSans-4d"/>
      <use xlink:href="#DejaVuSans-61" x="86.279297"/>
      <use xlink:href="#DejaVuSans-73" x="147.558594"/>
      <use xlink:href="#DejaVuSans-73" x="199.658203"/>
      <use xlink:href="#DejaVuSans-20" x="251.757812"/>
      <use xlink:href="#DejaVuSans-63" x="283.544922"/>
      <use xlink:href="#DejaVuSans-68" x="338.525391"/>
      <use xlink:href="#DejaVuSans-61" x="401.904297"/>
      <use xlink:href="#DejaVuSans-6e" x="463.183594"/>
      <use xlink:href="#DejaVuSans-67" x="526.5625"/>
      <use xlink:href="#DejaVuSans-65" x="590.039062"/>
      <use xlink:href="#DejaVuSans-20" x="651.5625"/>
      <use xlink:href="#DejaVuSans-5b" x="683.349609"/>
      <use xlink:href="#DejaVuSans-47" x="722.363281"/>
      <use xlink:href="#DejaVuSans-74" x="799.853516"/>
      <use xlink:href="#DejaVuSans-5d" x="839.0625"/>
     </g>
    </g>
   </g>
   <g id="line2d_17">
    <path d="M 61.707813 49.845161 
L 69.416403 51.013124 
L 77.825469 48.441396 
L 86.234535 43.016055 
L 94.643601 40.658786 
L 103.052667 41.813795 
L 112.162208 38.434337 
L 119.870799 36.218773 
L 128.279865 38.160206 
L 136.688931 43.753017 
L 145.097997 45.636998 
L 153.507063 45.906961 
L 161.916129 49.196836 
L 170.325195 48.614588 
L 178.734261 44.261724 
L 187.143327 43.465155 
L 195.552393 47.956157 
L 206.7642 49.166321 
L 212.370524 49.618314 
L 220.77959 53.172765 
L 229.188656 51.271066 
L 238.998673 53.416103 
L 246.006788 54.594472 
L 254.415854 51.885121 
L 262.82492 50.77177 
L 271.233986 53.27629 
L 279.643052 51.731645 
L 288.052118 47.507473 
L 296.461184 48.673185 
L 304.87025 51.893775 
L 313.979791 51.21727 
L 321.688382 49.738983 
L 330.097448 51.523323 
L 338.506514 51.072538 
L 346.91558 54.339868 
L 355.324646 55.840478 
L 363.733712 59.581489 
L 372.142778 59.588375 
L 380.551843 55.985893 
L 391.763651 57.612965 
L 399.472242 58.850622 
L 405.779041 59.673377 
L 414.188107 55.56332 
L 414.188107 55.56332 
" clip-path="url(#pccd95e28ab)" style="fill: none; stroke: #d0d1e6; stroke-width: 1.5; stroke-linecap: square"/>
   </g>
   <g id="line2d_18">
    <path d="M 171.02567 48.25185 
L 172.427461 48.838852 
L 173.828412 50.161443 
L 178.734261 53.587762 
L 187.143327 56.583012 
L 195.552393 54.539999 
L 199.756926 55.327473 
L 210.968733 56.518684 
L 212.370524 56.576118 
L 220.77959 53.228757 
L 229.188656 55.486628 
L 238.998673 54.024096 
L 246.006788 53.397852 
L 254.415854 56.970417 
L 260.722654 58.440831 
L 262.82492 58.97217 
L 269.13172 58.473453 
L 271.233986 58.39336 
L 277.540786 60.972882 
L 279.643052 61.795006 
L 288.052118 67.582717 
L 294.358917 68.359754 
L 296.461184 68.738206 
L 303.468459 68.669737 
L 304.87025 68.655945 
L 310.475733 71.025733 
L 313.279316 72.240841 
L 321.688382 76.877304 
L 327.995181 78.413499 
L 330.097448 79.021104 
L 335.702931 82.484566 
L 338.506514 84.168659 
L 342.711047 84.749266 
L 346.91558 85.500816 
L 355.324646 89.136341 
L 363.733712 90.900957 
L 367.236928 92.424391 
L 372.142778 94.407129 
L 377.047786 97.61319 
L 380.551843 99.762305 
L 384.756376 100.272613 
L 388.960909 100.71206 
L 393.165442 102.045724 
L 393.865918 102.260492 
L 397.369975 104.081511 
L 398.770926 104.806232 
L 405.779041 107.581901 
L 406.479517 108.291968 
L 414.188107 114.237904 
L 414.188107 114.237904 
" clip-path="url(#pccd95e28ab)" style="fill: none; stroke: #67a9cf; stroke-width: 1.5; stroke-linecap: square"/>
   </g>
   <g id="line2d_19">
    <path d="M 171.02567 48.25185 
L 172.427461 48.113374 
L 173.828412 48.710488 
L 179.434736 49.780859 
L 190.646543 52.816312 
L 202.559667 56.174306 
L 208.165991 57.431281 
L 213.071 57.959837 
L 226.385074 58.38712 
L 233.393189 58.791884 
L 246.006788 59.740473 
L 263.525395 61.637336 
L 271.233986 63.417799 
L 277.540786 64.838839 
L 282.445794 65.802871 
L 288.052118 66.83834 
L 294.358917 68.48966 
L 297.862134 69.668428 
L 309.074783 73.820442 
L 318.884799 77.302756 
L 322.388857 78.674671 
L 330.097448 82.292579 
L 335.702931 85.455518 
L 339.907464 87.696844 
L 343.411522 89.588567 
L 348.31653 92.448799 
L 360.229654 99.922225 
L 364.434187 102.555685 
L 370.040511 104.897577 
L 372.142778 105.743656 
L 377.047786 106.84827 
L 381.952794 107.89414 
L 384.05506 108.438211 
L 387.559118 109.236764 
L 388.960909 109.591474 
L 393.165442 111.647693 
L 393.865918 111.982886 
L 399.472242 115.685642 
L 406.479517 119.370994 
L 414.188107 121.549376 
L 414.188107 121.549376 
" clip-path="url(#pccd95e28ab)" style="fill: none; stroke: #02818a; stroke-width: 1.5; stroke-linecap: square"/>
   </g>
   <g id="patch_3">
    <path d="M 61.707813 186.84327 
L 61.707813 22.318125 
" style="fill: none; stroke: #000000; stroke-width: 0.8; stroke-linejoin: miter; stroke-linecap: square"/>
   </g>
   <g id="patch_4">
    <path d="M 414.888583 186.84327 
L 414.888583 22.318125 
" style="fill: none; stroke: #000000; stroke-width: 0.8; stroke-linejoin: miter; stroke-linecap: square"/>
   </g>
   <g id="patch_5">
    <path d="M 61.707813 186.84327 
L 414.888583 186.84327 
" style="fill: none; stroke: #000000; stroke-width: 0.8; stroke-linejoin: miter; stroke-linecap: square"/>
   </g>
   <g id="patch_6">
    <path d="M 61.707813 22.318125 
L 414.888583 22.318125 
" style="fill: none; stroke: #000000; stroke-width: 0.8; stroke-linejoin: miter; stroke-linecap: square"/>
   </g>
   <g id="text_19">
    <!-- Antarctica -->
    <g transform="translate(207.736635 16.318125) scale(0.12 -0.12)">
     <defs>
      <path id="DejaVuSans-41" d="M 2188 4044 
L 1331 1722 
L 3047 1722 
L 2188 4044 
z
M 1831 4666 
L 2547 4666 
L 4325 0 
L 3669 0 
L 3244 1197 
L 1141 1197 
L 716 0 
L 50 0 
L 1831 4666 
z
" transform="scale(0.015625)"/>
      <path id="DejaVuSans-69" d="M 603 3500 
L 1178 3500 
L 1178 0 
L 603 0 
L 603 3500 
z
M 603 4863 
L 1178 4863 
L 1178 4134 
L 603 4134 
L 603 4863 
z
" transform="scale(0.015625)"/>
     </defs>
     <use xlink:href="#DejaVuSans-41"/>
     <use xlink:href="#DejaVuSans-6e" x="68.408203"/>
     <use xlink:href="#DejaVuSans-74" x="131.787109"/>
     <use xlink:href="#DejaVuSans-61" x="170.996094"/>
     <use xlink:href="#DejaVuSans-72" x="232.275391"/>
     <use xlink:href="#DejaVuSans-63" x="271.138672"/>
     <use xlink:href="#DejaVuSans-74" x="326.119141"/>
     <use xlink:href="#DejaVuSans-69" x="365.328125"/>
     <use xlink:href="#DejaVuSans-63" x="393.111328"/>
     <use xlink:href="#DejaVuSans-61" x="448.091797"/>
    </g>
   </g>
   <g id="legend_1">
    <g id="patch_7">
     <path d="M 421.888583 128.097885 
L 503.19952 128.097885 
Q 505.19952 128.097885 505.19952 126.097885 
L 505.19952 83.06351 
Q 505.19952 81.06351 503.19952 81.06351 
L 421.888583 81.06351 
Q 419.888583 81.06351 419.888583 83.06351 
L 419.888583 126.097885 
Q 419.888583 128.097885 421.888583 128.097885 
z
" style="fill: #ffffff; opacity: 0.8; stroke: #cccccc; stroke-linejoin: miter"/>
    </g>
    <g id="line2d_20">
     <path d="M 423.888583 89.161948 
L 433.888583 89.161948 
L 443.888583 89.161948 
" style="fill: none; stroke: #d0d1e6; stroke-width: 1.5; stroke-linecap: square"/>
    </g>
    <g id="text_20">
     <!-- Surface -->
     <g transform="translate(451.888583 92.661948) scale(0.1 -0.1)">
      <defs>
       <path id="DejaVuSans-53" d="M 3425 4513 
L 3425 3897 
Q 3066 4069 2747 4153 
Q 2428 4238 2131 4238 
Q 1616 4238 1336 4038 
Q 1056 3838 1056 3469 
Q 1056 3159 1242 3001 
Q 1428 2844 1947 2747 
L 2328 2669 
Q 3034 2534 3370 2195 
Q 3706 1856 3706 1288 
Q 3706 609 3251 259 
Q 2797 -91 1919 -91 
Q 1588 -91 1214 -16 
Q 841 59 441 206 
L 441 856 
Q 825 641 1194 531 
Q 1563 422 1919 422 
Q 2459 422 2753 634 
Q 3047 847 3047 1241 
Q 3047 1584 2836 1778 
Q 2625 1972 2144 2069 
L 1759 2144 
Q 1053 2284 737 2584 
Q 422 2884 422 3419 
Q 422 4038 858 4394 
Q 1294 4750 2059 4750 
Q 2388 4750 2728 4690 
Q 3069 4631 3425 4513 
z
" transform="scale(0.015625)"/>
       <path id="DejaVuSans-75" d="M 544 1381 
L 544 3500 
L 1119 3500 
L 1119 1403 
Q 1119 906 1312 657 
Q 1506 409 1894 409 
Q 2359 409 2629 706 
Q 2900 1003 2900 1516 
L 2900 3500 
L 3475 3500 
L 3475 0 
L 2900 0 
L 2900 538 
Q 2691 219 2414 64 
Q 2138 -91 1772 -91 
Q 1169 -91 856 284 
Q 544 659 544 1381 
z
M 1991 3584 
L 1991 3584 
z
" transform="scale(0.015625)"/>
       <path id="DejaVuSans-66" d="M 2375 4863 
L 2375 4384 
L 1825 4384 
Q 1516 4384 1395 4259 
Q 1275 4134 1275 3809 
L 1275 3500 
L 2222 3500 
L 2222 3053 
L 1275 3053 
L 1275 0 
L 697 0 
L 697 3053 
L 147 3053 
L 147 3500 
L 697 3500 
L 697 3744 
Q 697 4328 969 4595 
Q 1241 4863 1831 4863 
L 2375 4863 
z
" transform="scale(0.015625)"/>
      </defs>
      <use xlink:href="#DejaVuSans-53"/>
      <use xlink:href="#DejaVuSans-75" x="63.476562"/>
      <use xlink:href="#DejaVuSans-72" x="126.855469"/>
      <use xlink:href="#DejaVuSans-66" x="167.96875"/>
      <use xlink:href="#DejaVuSans-61" x="203.173828"/>
      <use xlink:href="#DejaVuSans-63" x="264.453125"/>
      <use xlink:href="#DejaVuSans-65" x="319.433594"/>
     </g>
    </g>
    <g id="line2d_21">
     <path d="M 423.888583 103.840073 
L 433.888583 103.840073 
L 443.888583 103.840073 
" style="fill: none; stroke: #67a9cf; stroke-width: 1.5; stroke-linecap: square"/>
    </g>
    <g id="text_21">
     <!-- Dynamics -->
     <g transform="translate(451.888583 107.340073) scale(0.1 -0.1)">
      <defs>
       <path id="DejaVuSans-44" d="M 1259 4147 
L 1259 519 
L 2022 519 
Q 2988 519 3436 956 
Q 3884 1394 3884 2338 
Q 3884 3275 3436 3711 
Q 2988 4147 2022 4147 
L 1259 4147 
z
M 628 4666 
L 1925 4666 
Q 3281 4666 3915 4102 
Q 4550 3538 4550 2338 
Q 4550 1131 3912 565 
Q 3275 0 1925 0 
L 628 0 
L 628 4666 
z
" transform="scale(0.015625)"/>
       <path id="DejaVuSans-79" d="M 2059 -325 
Q 1816 -950 1584 -1140 
Q 1353 -1331 966 -1331 
L 506 -1331 
L 506 -850 
L 844 -850 
Q 1081 -850 1212 -737 
Q 1344 -625 1503 -206 
L 1606 56 
L 191 3500 
L 800 3500 
L 1894 763 
L 2988 3500 
L 3597 3500 
L 2059 -325 
z
" transform="scale(0.015625)"/>
       <path id="DejaVuSans-6d" d="M 3328 2828 
Q 3544 3216 3844 3400 
Q 4144 3584 4550 3584 
Q 5097 3584 5394 3201 
Q 5691 2819 5691 2113 
L 5691 0 
L 5113 0 
L 5113 2094 
Q 5113 2597 4934 2840 
Q 4756 3084 4391 3084 
Q 3944 3084 3684 2787 
Q 3425 2491 3425 1978 
L 3425 0 
L 2847 0 
L 2847 2094 
Q 2847 2600 2669 2842 
Q 2491 3084 2119 3084 
Q 1678 3084 1418 2786 
Q 1159 2488 1159 1978 
L 1159 0 
L 581 0 
L 581 3500 
L 1159 3500 
L 1159 2956 
Q 1356 3278 1631 3431 
Q 1906 3584 2284 3584 
Q 2666 3584 2933 3390 
Q 3200 3197 3328 2828 
z
" transform="scale(0.015625)"/>
      </defs>
      <use xlink:href="#DejaVuSans-44"/>
      <use xlink:href="#DejaVuSans-79" x="77.001953"/>
      <use xlink:href="#DejaVuSans-6e" x="136.181641"/>
      <use xlink:href="#DejaVuSans-61" x="199.560547"/>
      <use xlink:href="#DejaVuSans-6d" x="260.839844"/>
      <use xlink:href="#DejaVuSans-69" x="358.251953"/>
      <use xlink:href="#DejaVuSans-63" x="386.035156"/>
      <use xlink:href="#DejaVuSans-73" x="441.015625"/>
     </g>
    </g>
    <g id="line2d_22">
     <path d="M 423.888583 118.518198 
L 433.888583 118.518198 
L 443.888583 118.518198 
" style="fill: none; stroke: #02818a; stroke-width: 1.5; stroke-linecap: square"/>
    </g>
    <g id="text_22">
     <!-- Total -->
     <g transform="translate(451.888583 122.018198) scale(0.1 -0.1)">
      <defs>
       <path id="DejaVuSans-54" d="M -19 4666 
L 3928 4666 
L 3928 4134 
L 2272 4134 
L 2272 0 
L 1638 0 
L 1638 4134 
L -19 4134 
L -19 4666 
z
" transform="scale(0.015625)"/>
       <path id="DejaVuSans-6f" d="M 1959 3097 
Q 1497 3097 1228 2736 
Q 959 2375 959 1747 
Q 959 1119 1226 758 
Q 1494 397 1959 397 
Q 2419 397 2687 759 
Q 2956 1122 2956 1747 
Q 2956 2369 2687 2733 
Q 2419 3097 1959 3097 
z
M 1959 3584 
Q 2709 3584 3137 3096 
Q 3566 2609 3566 1747 
Q 3566 888 3137 398 
Q 2709 -91 1959 -91 
Q 1206 -91 779 398 
Q 353 888 353 1747 
Q 353 2609 779 3096 
Q 1206 3584 1959 3584 
z
" transform="scale(0.015625)"/>
       <path id="DejaVuSans-6c" d="M 603 4863 
L 1178 4863 
L 1178 0 
L 603 0 
L 603 4863 
z
" transform="scale(0.015625)"/>
      </defs>
      <use xlink:href="#DejaVuSans-54"/>
      <use xlink:href="#DejaVuSans-6f" x="44.083984"/>
      <use xlink:href="#DejaVuSans-74" x="105.265625"/>
      <use xlink:href="#DejaVuSans-61" x="144.474609"/>
      <use xlink:href="#DejaVuSans-6c" x="205.753906"/>
     </g>
    </g>
   </g>
  </g>
 </g>
 <defs>
  <clipPath id="pccd95e28ab">
   <rect x="61.707813" y="22.318125" width="353.18077" height="164.525145"/>
  </clipPath>
 </defs>
</svg>
