<?xml version="1.0" encoding="utf-8" standalone="no"?>
<!DOCTYPE svg PUBLIC "-//W3C//DTD SVG 1.1//EN"
  "http://www.w3.org/Graphics/SVG/1.1/DTD/svg11.dtd">
<svg xmlns:xlink="http://www.w3.org/1999/xlink" width="512.39952pt" height="224.39952pt" viewBox="0 0 512.39952 224.39952" xmlns="http://www.w3.org/2000/svg" version="1.1">
 <metadata>
  <rdf:RDF xmlns:dc="http://purl.org/dc/elements/1.1/" xmlns:cc="http://creativecommons.org/ns#" xmlns:rdf="http://www.w3.org/1999/02/22-rdf-syntax-ns#">
   <cc:Work>
    <dc:type rdf:resource="http://purl.org/dc/dcmitype/StillImage"/>
    <dc:date>2023-01-23T13:47:23.948824</dc:date>
    <dc:format>image/svg+xml</dc:format>
    <dc:creator>
     <cc:Agent>
      <dc:title>Matplotlib v3.6.2, https://matplotlib.org/</dc:title>
     </cc:Agent>
    </dc:creator>
   </cc:Work>
  </rdf:RDF>
 </metadata>
 <defs>
  <style type="text/css">*{stroke-linejoin: round; stroke-linecap: butt}</style>
 </defs>
 <g id="figure_1">
  <g id="patch_1">
   <path d="M 0 224.39952 
L 512.39952 224.39952 
L 512.39952 0 
L 0 0 
z
" style="fill: #ffffff"/>
  </g>
  <g id="axes_1">
   <g id="patch_2">
    <path d="M 61.707813 186.84327 
L 414.888583 186.84327 
L 414.888583 7.2 
L 61.707813 7.2 
z
" style="fill: #ffffff"/>
   </g>
   <g id="PolyCollection_1">
    <path d="M 77.761484 21.002132 
L 77.761484 21.002132 
L 78.686396 21.076495 
L 79.612419 20.998274 
L 80.537332 20.928529 
L 81.462244 20.933568 
L 82.388267 20.825876 
L 83.313179 20.690566 
L 84.238092 20.51746 
L 85.164115 20.411357 
L 86.089027 20.300351 
L 87.01394 20.217757 
L 87.939962 20.184244 
L 88.864875 20.116982 
L 89.789787 20.078501 
L 90.71581 20.117443 
L 91.640723 20.191001 
L 92.565635 20.242901 
L 93.491658 20.320528 
L 94.41657 20.386241 
L 95.341483 20.423886 
L 96.267506 20.423317 
L 97.192418 20.397844 
L 98.117331 20.408017 
L 99.043353 20.456544 
L 99.968266 20.525604 
L 100.893178 20.596085 
L 101.819201 20.703356 
L 102.744114 20.847283 
L 103.669026 20.973748 
L 104.595049 21.171097 
L 105.519961 21.451376 
L 106.444874 21.717499 
L 107.370897 22.014532 
L 108.295809 22.361204 
L 109.220722 22.651067 
L 110.146744 22.875536 
L 111.071657 23.108706 
L 111.996569 23.306603 
L 112.922592 23.54284 
L 113.847505 23.835393 
L 114.772417 24.158723 
L 115.69844 24.47726 
L 116.623352 24.791969 
L 117.548265 25.1419 
L 118.474288 25.467458 
L 119.3992 25.768524 
L 120.324113 26.051219 
L 121.250135 26.314448 
L 122.175048 26.557263 
L 123.09996 26.753427 
L 124.025983 26.93557 
L 124.950896 27.161278 
L 125.875808 27.419269 
L 126.801831 27.675419 
L 127.726743 27.941375 
L 128.651656 28.247116 
L 129.577679 28.566105 
L 130.502591 28.859087 
L 131.427504 29.122892 
L 132.353527 29.315645 
L 133.278439 29.410835 
L 134.203351 29.514018 
L 135.129374 29.626364 
L 136.054287 29.789421 
L 136.979199 29.981776 
L 137.905222 30.180511 
L 138.830135 30.316577 
L 139.755047 30.465655 
L 140.68107 30.631447 
L 141.605982 30.829155 
L 142.530895 31.090567 
L 143.456918 31.360754 
L 144.38183 31.598624 
L 145.306742 31.94119 
L 146.232765 32.323458 
L 147.157678 32.716956 
L 148.08259 33.077818 
L 149.008613 33.38171 
L 149.933526 33.640898 
L 150.858438 33.84486 
L 151.784461 34.051344 
L 152.709373 34.244546 
L 153.634286 34.435726 
L 154.560309 34.671104 
L 155.485221 34.901312 
L 156.410134 35.123152 
L 157.336156 35.309481 
L 158.261069 35.450167 
L 159.185981 35.558515 
L 160.112004 35.649676 
L 161.036917 35.720905 
L 161.961829 35.811109 
L 162.887852 35.884783 
L 163.812764 35.981515 
L 164.737677 36.107476 
L 165.6637 36.285604 
L 166.588612 36.508619 
L 167.513525 36.734072 
L 168.439547 36.975017 
L 169.36446 37.249714 
L 170.289372 37.466205 
L 171.215395 37.649552 
L 172.140308 37.804516 
L 173.06522 37.863723 
L 173.991243 37.839587 
L 174.916155 37.785524 
L 175.841068 37.652071 
L 176.767091 37.484965 
L 177.692003 37.316958 
L 178.616916 37.1066 
L 179.542938 36.881044 
L 180.467851 36.604594 
L 181.392763 36.353048 
L 182.318786 36.2153 
L 183.243699 36.123461 
L 184.168611 36.027195 
L 185.094634 35.900267 
L 186.019546 35.79676 
L 186.944459 35.671238 
L 187.870482 35.45829 
L 188.795394 35.287036 
L 189.720307 35.157715 
L 190.646329 35.054721 
L 191.571242 34.953246 
L 192.496154 34.859316 
L 193.422177 34.786076 
L 194.34709 34.750114 
L 195.272002 34.704853 
L 196.198025 34.655629 
L 197.122937 34.57094 
L 198.04785 34.453132 
L 198.973873 34.322709 
L 199.898785 34.199069 
L 200.823698 34.049451 
L 201.74972 33.87211 
L 202.674633 33.645236 
L 203.599545 33.461646 
L 204.525568 33.28888 
L 205.450481 33.162346 
L 206.375393 33.171996 
L 207.301416 33.247836 
L 208.226328 33.329568 
L 209.151241 33.428761 
L 210.077264 33.560003 
L 211.002176 33.661011 
L 211.927089 33.72726 
L 212.853111 33.805285 
L 213.778024 33.881405 
L 214.702936 33.862126 
L 215.628959 33.729426 
L 216.553872 33.569201 
L 217.478784 33.429546 
L 218.404807 33.288484 
L 219.329719 33.141925 
L 220.254632 33.015292 
L 221.180655 32.915403 
L 222.105567 32.774696 
L 223.03048 32.57588 
L 223.956502 32.388664 
L 224.881415 32.29036 
L 225.806327 32.215415 
L 226.73235 32.074125 
L 227.657263 31.883321 
L 228.582175 31.676424 
L 229.508198 31.509933 
L 230.43311 31.390535 
L 231.358023 31.295107 
L 232.284046 31.192188 
L 233.208958 31.094007 
L 234.133871 31.036945 
L 235.059894 31.039479 
L 235.984806 31.097574 
L 236.909718 31.149838 
L 237.835741 31.233212 
L 238.760654 31.314398 
L 239.685566 31.344875 
L 240.611589 31.367726 
L 241.536501 31.408147 
L 242.461414 31.491842 
L 243.387437 31.558665 
L 244.312349 31.667492 
L 245.237262 31.813206 
L 246.163285 31.916519 
L 247.088197 31.992754 
L 248.013109 32.155301 
L 248.939132 32.402756 
L 249.864045 32.629664 
L 250.788957 32.837105 
L 251.71498 33.030841 
L 252.639893 33.178127 
L 253.564805 33.328865 
L 254.490828 33.492942 
L 255.41574 33.643116 
L 256.340653 33.765005 
L 257.266676 33.82842 
L 258.191588 33.833434 
L 259.116501 33.824993 
L 260.042523 33.871681 
L 260.967436 33.932258 
L 261.892348 34.004501 
L 262.818371 34.077175 
L 263.743284 34.143827 
L 264.668196 34.265796 
L 265.594219 34.46615 
L 266.519131 34.706281 
L 267.444044 34.930269 
L 268.370067 35.105744 
L 269.294979 35.232091 
L 270.219892 35.304646 
L 271.145914 35.305688 
L 272.070827 35.285183 
L 272.995739 35.29373 
L 273.921762 35.298727 
L 274.846675 35.292523 
L 275.771587 35.294142 
L 276.69761 35.309295 
L 277.622522 35.30469 
L 278.547435 35.244955 
L 279.473458 35.160558 
L 280.39837 35.134969 
L 281.323283 35.146642 
L 282.249305 35.160861 
L 283.174218 35.204525 
L 284.09913 35.208121 
L 285.025153 35.232277 
L 285.950066 35.282556 
L 286.874978 35.32757 
L 287.801001 35.350175 
L 288.725913 35.359608 
L 289.650826 35.421386 
L 290.576849 35.559953 
L 291.501761 35.705233 
L 292.426674 35.892405 
L 293.352696 36.117435 
L 294.277609 36.371961 
L 295.202521 36.625451 
L 296.128544 36.848736 
L 297.053457 37.007218 
L 297.978369 37.082049 
L 298.904392 37.102249 
L 299.829304 37.126287 
L 300.754217 37.176713 
L 301.68024 37.263141 
L 302.605152 37.3632 
L 303.530065 37.478774 
L 304.456087 37.684016 
L 305.381 37.913563 
L 306.305912 38.142129 
L 307.231935 38.395882 
L 308.156848 38.657982 
L 309.08176 38.892213 
L 310.007783 39.06686 
L 310.932695 39.213158 
L 311.857608 39.419684 
L 312.783631 39.718846 
L 313.708543 40.041278 
L 314.633456 40.344951 
L 315.559478 40.649779 
L 316.484391 41.011855 
L 317.409303 41.448371 
L 318.335326 41.900355 
L 319.260239 42.363133 
L 320.185151 42.801724 
L 321.111174 43.224318 
L 322.036086 43.68667 
L 322.960999 44.179358 
L 323.887022 44.645368 
L 324.811934 45.092563 
L 325.736847 45.514569 
L 326.662869 45.910958 
L 327.587782 46.231961 
L 328.512694 46.506493 
L 329.438717 46.783281 
L 330.36363 47.081582 
L 331.288542 47.413231 
L 332.214565 47.699969 
L 333.139477 47.878856 
L 334.06439 47.994719 
L 334.990413 48.086965 
L 335.915325 48.193905 
L 336.840238 48.265642 
L 337.76626 48.268605 
L 338.691173 48.278662 
L 339.616085 48.299756 
L 340.542108 48.296904 
L 341.467021 48.260977 
L 342.391933 48.221342 
L 343.317956 48.205969 
L 344.242868 48.185803 
L 345.167781 48.164584 
L 346.093804 48.129146 
L 347.018716 48.094035 
L 347.943629 48.055423 
L 348.869652 48.0205 
L 349.794564 47.903769 
L 350.719476 47.799971 
L 351.645499 47.69673 
L 352.570412 47.580671 
L 353.495324 47.470963 
L 354.421347 47.395466 
L 355.34626 47.33465 
L 356.271172 47.23666 
L 357.197195 47.155301 
L 358.122107 47.124599 
L 359.04702 47.065077 
L 359.973043 46.949007 
L 360.897955 46.865147 
L 361.822867 46.82727 
L 362.74889 46.810101 
L 363.673803 46.793211 
L 364.598715 46.77169 
L 365.524738 46.808298 
L 366.449651 46.929043 
L 367.374563 47.036516 
L 368.300586 47.102757 
L 369.225498 47.171927 
L 370.150411 47.292732 
L 371.076434 47.462108 
L 372.001346 47.649391 
L 372.926259 47.84786 
L 373.852281 48.042558 
L 374.777194 48.223658 
L 375.702106 48.365282 
L 376.628129 48.478479 
L 377.553042 48.542748 
L 378.477954 48.52093 
L 379.403977 48.491744 
L 380.328889 48.515196 
L 381.253802 48.526376 
L 382.179825 48.523172 
L 383.104737 48.522458 
L 384.02965 48.462746 
L 384.955672 48.384198 
L 385.880585 48.335112 
L 386.805497 48.281521 
L 387.73152 48.216206 
L 388.656433 48.109671 
L 389.581345 47.996476 
L 390.507368 47.883668 
L 391.43228 47.758081 
L 392.357193 47.621212 
L 393.283216 47.458876 
L 394.208128 47.224113 
L 395.133041 46.877377 
L 396.059063 46.678251 
L 396.983976 46.465026 
L 397.908888 46.25817 
L 398.834911 46.047708 
L 398.834911 29.383845 
L 398.834911 29.383845 
L 397.908888 29.613334 
L 396.983976 29.845101 
L 396.059063 30.080503 
L 395.133041 30.303878 
L 394.208128 30.693081 
L 393.283216 30.968184 
L 392.357193 31.169096 
L 391.43228 31.34394 
L 390.507368 31.504874 
L 389.581345 31.637301 
L 388.656433 31.759656 
L 387.73152 31.874452 
L 386.805497 31.954309 
L 385.880585 32.031055 
L 384.955672 32.110182 
L 384.02965 32.22764 
L 383.104737 32.325273 
L 382.179825 32.359204 
L 381.253802 32.387107 
L 380.328889 32.402272 
L 379.403977 32.408363 
L 378.477954 32.456774 
L 377.553042 32.488459 
L 376.628129 32.434716 
L 375.702106 32.34364 
L 374.777194 32.232979 
L 373.852281 32.074594 
L 372.926259 31.902977 
L 372.001346 31.734826 
L 371.076434 31.57298 
L 370.150411 31.43193 
L 369.225498 31.342331 
L 368.300586 31.307872 
L 367.374563 31.260027 
L 366.449651 31.160365 
L 365.524738 31.05134 
L 364.598715 31.038989 
L 363.673803 31.079828 
L 362.74889 31.125508 
L 361.822867 31.172932 
L 360.897955 31.236974 
L 359.973043 31.350146 
L 359.04702 31.50439 
L 358.122107 31.592169 
L 357.197195 31.655808 
L 356.271172 31.759336 
L 355.34626 31.868564 
L 354.421347 31.939008 
L 353.495324 32.034865 
L 352.570412 32.180443 
L 351.645499 32.32967 
L 350.719476 32.463199 
L 349.794564 32.604711 
L 348.869652 32.7649 
L 347.943629 32.850888 
L 347.018716 32.917906 
L 346.093804 32.98075 
L 345.167781 33.036493 
L 344.242868 33.073621 
L 343.317956 33.113854 
L 342.391933 33.148159 
L 341.467021 33.208456 
L 340.542108 33.277979 
L 339.616085 33.315148 
L 338.691173 33.322766 
L 337.76626 33.339154 
L 336.840238 33.381326 
L 335.915325 33.345202 
L 334.990413 33.272221 
L 334.06439 33.197256 
L 333.139477 33.094 
L 332.214565 32.922905 
L 331.288542 32.650276 
L 330.36363 32.344923 
L 329.438717 32.072028 
L 328.512694 31.823634 
L 327.587782 31.575911 
L 326.662869 31.286364 
L 325.736847 30.933144 
L 324.811934 30.548778 
L 323.887022 30.128524 
L 322.960999 29.679447 
L 322.036086 29.19857 
L 321.111174 28.749726 
L 320.185151 28.344811 
L 319.260239 27.931472 
L 318.335326 27.509163 
L 317.409303 27.085521 
L 316.484391 26.674715 
L 315.559478 26.3414 
L 314.633456 26.067756 
L 313.708543 25.799278 
L 312.783631 25.513294 
L 311.857608 25.237703 
L 310.932695 25.046373 
L 310.007783 24.909103 
L 309.08176 24.746507 
L 308.156848 24.529806 
L 307.231935 24.293197 
L 306.305912 24.067887 
L 305.381 23.867055 
L 304.456087 23.6794 
L 303.530065 23.520394 
L 302.605152 23.437118 
L 301.68024 23.371443 
L 300.754217 23.307681 
L 299.829304 23.276688 
L 298.904392 23.27549 
L 297.978369 23.271314 
L 297.053457 23.22033 
L 296.128544 23.091358 
L 295.202521 22.920034 
L 294.277609 22.715837 
L 293.352696 22.491478 
L 292.426674 22.300983 
L 291.501761 22.146488 
L 290.576849 22.03038 
L 289.650826 21.912384 
L 288.725913 21.864741 
L 287.801001 21.871604 
L 286.874978 21.878689 
L 285.950066 21.870921 
L 285.025153 21.859826 
L 284.09913 21.87331 
L 283.174218 21.905757 
L 282.249305 21.891031 
L 281.323283 21.903326 
L 280.39837 21.915544 
L 279.473458 21.966977 
L 278.547435 22.071218 
L 277.622522 22.142443 
L 276.69761 22.15876 
L 275.771587 22.162367 
L 274.846675 22.186565 
L 273.921762 22.22706 
L 272.995739 22.267607 
L 272.070827 22.314111 
L 271.145914 22.38148 
L 270.219892 22.424819 
L 269.294979 22.383938 
L 268.370067 22.304421 
L 267.444044 22.160019 
L 266.519131 21.955055 
L 265.594219 21.736021 
L 264.668196 21.560538 
L 263.743284 21.462208 
L 262.818371 21.445731 
L 261.892348 21.422341 
L 260.967436 21.389346 
L 260.042523 21.352628 
L 259.116501 21.343496 
L 258.191588 21.389514 
L 257.266676 21.412252 
L 256.340653 21.370714 
L 255.41574 21.26426 
L 254.490828 21.13361 
L 253.564805 20.987834 
L 252.639893 20.863181 
L 251.71498 20.745516 
L 250.788957 20.579408 
L 249.864045 20.404606 
L 248.939132 20.219911 
L 248.013109 20.018357 
L 247.088197 19.898404 
L 246.163285 19.856436 
L 245.237262 19.7687 
L 244.312349 19.633693 
L 243.387437 19.54061 
L 242.461414 19.506878 
L 241.536501 19.460023 
L 240.611589 19.441879 
L 239.685566 19.447216 
L 238.760654 19.46255 
L 237.835741 19.423375 
L 236.909718 19.38839 
L 235.984806 19.378041 
L 235.059894 19.355889 
L 234.133871 19.378107 
L 233.208958 19.452202 
L 232.284046 19.569593 
L 231.358023 19.710081 
L 230.43311 19.868335 
L 229.508198 20.040814 
L 228.582175 20.252715 
L 227.657263 20.505771 
L 226.73235 20.748771 
L 225.806327 20.934969 
L 224.881415 21.05457 
L 223.956502 21.19489 
L 223.03048 21.409562 
L 222.105567 21.621473 
L 221.180655 21.777683 
L 220.254632 21.903387 
L 219.329719 22.056551 
L 218.404807 22.244598 
L 217.478784 22.434255 
L 216.553872 22.621073 
L 215.628959 22.836332 
L 214.702936 23.020907 
L 213.778024 23.09501 
L 212.853111 23.067452 
L 211.927089 23.021788 
L 211.002176 22.969858 
L 210.077264 22.879293 
L 209.151241 22.767037 
L 208.226328 22.703675 
L 207.301416 22.665785 
L 206.375393 22.636226 
L 205.450481 22.6622 
L 204.525568 22.821446 
L 203.599545 23.047133 
L 202.674633 23.293197 
L 201.74972 23.560862 
L 200.823698 23.767998 
L 199.898785 23.937879 
L 198.973873 24.080819 
L 198.04785 24.231194 
L 197.122937 24.381589 
L 196.198025 24.510857 
L 195.272002 24.615075 
L 194.34709 24.702258 
L 193.422177 24.784642 
L 192.496154 24.912968 
L 191.571242 25.070738 
L 190.646329 25.232421 
L 189.720307 25.376907 
L 188.795394 25.545556 
L 187.870482 25.763619 
L 186.944459 26.008697 
L 186.019546 26.175431 
L 185.094634 26.316577 
L 184.168611 26.48256 
L 183.243699 26.627459 
L 182.318786 26.777885 
L 181.392763 26.97934 
L 180.467851 27.285305 
L 179.542938 27.608864 
L 178.616916 27.863482 
L 177.692003 28.08949 
L 176.767091 28.274078 
L 175.841068 28.475385 
L 174.916155 28.650473 
L 173.991243 28.760505 
L 173.06522 28.83841 
L 172.140308 28.837418 
L 171.215395 28.733633 
L 170.289372 28.602039 
L 169.36446 28.428729 
L 168.439547 28.214529 
L 167.513525 28.003047 
L 166.588612 27.798652 
L 165.6637 27.606508 
L 164.737677 27.476061 
L 163.812764 27.419034 
L 162.887852 27.359065 
L 161.961829 27.335149 
L 161.036917 27.28463 
L 160.112004 27.25983 
L 159.185981 27.233823 
L 158.261069 27.17015 
L 157.336156 27.074592 
L 156.410134 26.915903 
L 155.485221 26.715074 
L 154.560309 26.518526 
L 153.634286 26.322074 
L 152.709373 26.161028 
L 151.784461 26.01367 
L 150.858438 25.864911 
L 149.933526 25.714751 
L 149.008613 25.545573 
L 148.08259 25.359752 
L 147.157678 25.073307 
L 146.232765 24.737663 
L 145.306742 24.39085 
L 144.38183 24.06647 
L 143.456918 23.854891 
L 142.530895 23.613875 
L 141.605982 23.394591 
L 140.68107 23.242521 
L 139.755047 23.125371 
L 138.830135 23.043095 
L 137.905222 22.973966 
L 136.979199 22.847308 
L 136.054287 22.717716 
L 135.129374 22.62999 
L 134.203351 22.554426 
L 133.278439 22.475551 
L 132.353527 22.406221 
L 131.427504 22.250995 
L 130.502591 22.032729 
L 129.577679 21.784806 
L 128.651656 21.536255 
L 127.726743 21.322921 
L 126.801831 21.131499 
L 125.875808 20.945095 
L 124.950896 20.784277 
L 124.025983 20.6402 
L 123.09996 20.5049 
L 122.175048 20.339248 
L 121.250135 20.123421 
L 120.324113 19.890719 
L 119.3992 19.669318 
L 118.474288 19.447922 
L 117.548265 19.203954 
L 116.623352 18.941437 
L 115.69844 18.725645 
L 114.772417 18.4955 
L 113.847505 18.267807 
L 112.922592 18.044479 
L 111.996569 17.866296 
L 111.071657 17.701949 
L 110.146744 17.506767 
L 109.220722 17.326416 
L 108.295809 17.105806 
L 107.370897 16.838455 
L 106.444874 16.604108 
L 105.519961 16.404795 
L 104.595049 16.205273 
L 103.669026 16.120056 
L 102.744114 16.083629 
L 101.819201 16.036803 
L 100.893178 15.965415 
L 99.968266 15.941481 
L 99.043353 15.921831 
L 98.117331 15.920485 
L 97.192418 15.993703 
L 96.267506 16.118394 
L 95.341483 16.251762 
L 94.41657 16.356075 
L 93.491658 16.405294 
L 92.565635 16.43011 
L 91.640723 16.482806 
L 90.71581 16.56769 
L 89.789787 16.655001 
L 88.864875 16.754813 
L 87.939962 16.915399 
L 87.01394 17.111155 
L 86.089027 17.306209 
L 85.164115 17.568081 
L 84.238092 17.916898 
L 83.313179 18.316263 
L 82.388267 18.716067 
L 81.462244 19.182688 
L 80.537332 19.692229 
L 79.612419 20.139877 
L 78.686396 20.52348 
L 77.761484 21.002132 
z
" clip-path="url(#pa066514740)" style="fill: #b2df8a; fill-opacity: 0.5"/>
   </g>
   <g id="PolyCollection_2">
    <path d="M 77.761484 19.377169 
L 77.761484 22.627096 
L 78.686396 23.394594 
L 79.612419 24.033638 
L 80.537332 25.218056 
L 81.462244 26.379816 
L 82.388267 27.141204 
L 83.313179 27.862032 
L 84.238092 28.587937 
L 85.164115 29.250505 
L 86.089027 29.851165 
L 87.01394 30.392059 
L 87.939962 30.911351 
L 88.864875 31.519597 
L 89.789787 32.073249 
L 90.71581 32.588068 
L 91.640723 33.085694 
L 92.565635 33.565731 
L 93.491658 34.015283 
L 94.41657 34.481939 
L 95.341483 34.991788 
L 96.267506 35.531128 
L 97.192418 36.07046 
L 98.117331 36.561204 
L 99.043353 36.987208 
L 99.968266 37.426126 
L 100.893178 37.85986 
L 101.819201 38.247974 
L 102.744114 38.638348 
L 103.669026 39.039878 
L 104.595049 39.383672 
L 105.519961 39.622199 
L 106.444874 39.86418 
L 107.370897 40.071152 
L 108.295809 40.238246 
L 109.220722 40.454196 
L 110.146744 40.717625 
L 111.071657 41.003247 
L 111.996569 41.320075 
L 112.922592 41.613718 
L 113.847505 41.857384 
L 114.772417 42.086763 
L 115.69844 42.205714 
L 116.623352 42.334555 
L 117.548265 42.419616 
L 118.474288 42.524291 
L 119.3992 42.65132 
L 120.324113 42.783631 
L 121.250135 42.914091 
L 122.175048 43.049741 
L 123.09996 43.233623 
L 124.025983 43.44162 
L 124.950896 43.628424 
L 125.875808 43.792566 
L 126.801831 43.939613 
L 127.726743 43.953328 
L 128.651656 43.938515 
L 129.577679 43.89517 
L 130.502591 43.860261 
L 131.427504 43.854239 
L 132.353527 43.913328 
L 133.278439 43.938126 
L 134.203351 43.953352 
L 135.129374 43.967196 
L 136.054287 43.955448 
L 136.979199 43.905529 
L 137.905222 43.854935 
L 138.830135 43.863095 
L 139.755047 43.85768 
L 140.68107 43.822972 
L 141.605982 43.753881 
L 142.530895 43.618302 
L 143.456918 43.464871 
L 144.38183 43.364697 
L 145.306742 43.154011 
L 146.232765 42.914686 
L 147.157678 42.678605 
L 148.08259 42.485762 
L 149.008613 42.378585 
L 149.933526 42.297067 
L 150.858438 42.246227 
L 151.784461 42.1951 
L 152.709373 42.148941 
L 153.634286 42.093956 
L 154.560309 42.000272 
L 155.485221 41.94164 
L 156.410134 41.882582 
L 157.336156 41.863095 
L 158.261069 41.900554 
L 159.185981 41.969695 
L 160.112004 42.069326 
L 161.036917 42.176073 
L 161.961829 42.259016 
L 162.887852 42.364877 
L 163.812764 42.438695 
L 164.737677 42.504405 
L 165.6637 42.503474 
L 166.588612 42.4568 
L 167.513525 42.400889 
L 168.439547 42.334807 
L 169.36446 42.255386 
L 170.289372 42.222372 
L 171.215395 42.227955 
L 172.140308 42.261284 
L 173.06522 42.394809 
L 173.991243 42.60847 
L 174.916155 42.853283 
L 175.841068 43.167679 
L 176.767091 43.510521 
L 177.692003 43.872911 
L 178.616916 44.276799 
L 179.542938 44.70459 
L 180.467851 45.195075 
L 181.392763 45.665297 
L 182.318786 46.027703 
L 183.243699 46.340559 
L 184.168611 46.650989 
L 185.094634 46.985461 
L 186.019546 47.295362 
L 186.944459 47.629445 
L 187.870482 48.044684 
L 188.795394 48.405705 
L 189.720307 48.7196 
L 190.646329 49.008423 
L 191.571242 49.308031 
L 192.496154 49.602344 
L 193.422177 49.910107 
L 194.34709 50.174621 
L 195.272002 50.446618 
L 196.198025 50.731152 
L 197.122937 51.044029 
L 198.04785 51.381827 
L 198.973873 51.72362 
L 199.898785 52.180591 
L 200.823698 52.677589 
L 201.74972 53.21959 
L 202.674633 53.812114 
L 203.599545 54.361147 
L 204.525568 54.886795 
L 205.450481 55.352307 
L 206.375393 55.714772 
L 207.301416 56.025228 
L 208.226328 56.359472 
L 209.151241 56.668068 
L 210.077264 56.922173 
L 211.002176 57.188397 
L 211.927089 57.486096 
L 212.853111 57.783804 
L 213.778024 58.085921 
L 214.702936 58.474877 
L 215.628959 58.967251 
L 216.553872 59.484794 
L 217.478784 59.979714 
L 218.404807 60.47804 
L 219.329719 60.976035 
L 220.254632 61.434563 
L 221.180655 61.855094 
L 222.105567 62.304605 
L 223.03048 62.806727 
L 223.956502 63.29598 
L 224.881415 63.696309 
L 225.806327 64.064785 
L 226.73235 64.493485 
L 227.657263 64.973065 
L 228.582175 65.480145 
L 229.508198 65.967924 
L 230.43311 66.425155 
L 231.358023 66.872652 
L 232.284046 67.304366 
L 233.208958 67.776709 
L 234.133871 68.21335 
L 235.059894 68.596702 
L 235.984806 68.929279 
L 236.909718 69.268548 
L 237.835741 69.587389 
L 238.760654 69.916033 
L 239.685566 70.324095 
L 240.611589 70.744689 
L 241.536501 71.160049 
L 242.461414 71.550529 
L 243.387437 71.964719 
L 244.312349 72.362651 
L 245.237262 72.73426 
L 246.163285 73.164993 
L 247.088197 73.632874 
L 248.013109 74.016213 
L 248.939132 74.310606 
L 249.864045 74.621541 
L 250.788957 74.9531 
L 251.71498 75.300893 
L 252.639893 75.695228 
L 253.564805 76.079744 
L 254.490828 76.441894 
L 255.41574 76.828898 
L 256.340653 77.237931 
L 257.266676 77.703518 
L 258.191588 78.221899 
L 259.116501 78.752671 
L 260.042523 79.223522 
L 260.967436 79.666848 
L 261.892348 80.11669 
L 262.818371 80.580002 
L 263.743284 81.053227 
L 264.668196 81.485111 
L 265.594219 81.832877 
L 266.519131 82.1052 
L 267.444044 82.398557 
L 268.370067 82.747066 
L 269.294979 83.144735 
L 270.219892 83.584456 
L 271.145914 84.106353 
L 272.070827 84.653229 
L 272.995739 85.191076 
L 273.921762 85.740022 
L 274.846675 86.308509 
L 275.771587 86.86442 
L 276.69761 87.409019 
L 277.622522 88.03866 
L 278.547435 88.737033 
L 279.473458 89.468157 
L 280.39837 90.13088 
L 281.323283 90.738352 
L 282.249305 91.339191 
L 283.174218 91.908453 
L 284.09913 92.605061 
L 285.025153 93.284875 
L 285.950066 93.939893 
L 286.874978 94.593626 
L 287.801001 95.262987 
L 288.725913 96.044777 
L 289.650826 96.770789 
L 290.576849 97.412671 
L 291.501761 98.038739 
L 292.426674 98.619091 
L 293.352696 99.152584 
L 294.277609 99.649255 
L 295.202521 100.165371 
L 296.128544 100.721049 
L 297.053457 101.320605 
L 297.978369 101.990229 
L 298.904392 102.70475 
L 299.829304 103.380743 
L 300.754217 104.030708 
L 301.68024 104.646221 
L 302.605152 105.253825 
L 303.530065 105.917937 
L 304.456087 106.500521 
L 305.381 107.028297 
L 306.305912 107.561096 
L 307.231935 108.072321 
L 308.156848 108.586149 
L 309.08176 109.130491 
L 310.007783 109.734767 
L 310.932695 110.402036 
L 311.857608 111.018935 
L 312.783631 111.550059 
L 313.708543 112.055982 
L 314.633456 112.573402 
L 315.559478 113.08228 
L 316.484391 113.531419 
L 317.409303 113.911326 
L 318.335326 114.287107 
L 319.260239 114.667775 
L 320.185151 115.070919 
L 321.111174 115.48501 
L 322.036086 115.883376 
L 322.960999 116.260175 
L 323.887022 116.669561 
L 324.811934 117.096007 
L 325.736847 117.554568 
L 326.662869 118.041619 
L 327.587782 118.596625 
L 328.512694 119.202265 
L 329.438717 119.81523 
L 330.36363 120.400688 
L 331.288542 120.950743 
L 332.214565 121.532929 
L 333.139477 121.978717 
L 334.06439 122.459423 
L 334.990413 122.957218 
L 335.915325 123.4498 
L 336.840238 123.971873 
L 337.76626 124.559039 
L 338.691173 125.11571 
L 339.616085 125.665516 
L 340.542108 126.243188 
L 341.467021 126.861731 
L 342.391933 127.467676 
L 343.317956 128.037098 
L 344.242868 128.426683 
L 345.167781 128.812482 
L 346.093804 129.207984 
L 347.018716 129.591776 
L 347.943629 129.964354 
L 348.869652 130.326759 
L 349.794564 130.764333 
L 350.719476 131.178619 
L 351.645499 131.586394 
L 352.570412 132.004701 
L 353.495324 132.402698 
L 354.421347 132.754955 
L 355.34626 133.219171 
L 356.271172 133.735411 
L 357.197195 134.247333 
L 358.122107 134.715477 
L 359.04702 135.08558 
L 359.973043 135.529219 
L 360.897955 135.952865 
L 361.822867 136.344896 
L 362.74889 136.73352 
L 363.673803 137.132691 
L 364.598715 137.526308 
L 365.524738 137.875641 
L 366.449651 138.457182 
L 367.374563 139.033963 
L 368.300586 139.637644 
L 369.225498 140.23662 
L 370.150411 140.779107 
L 371.076434 141.277621 
L 372.001346 141.757117 
L 372.926259 142.473847 
L 373.852281 143.207708 
L 374.777194 143.971912 
L 375.702106 144.786567 
L 376.628129 145.633465 
L 377.553042 146.546306 
L 378.477954 147.364563 
L 379.403977 148.148295 
L 380.328889 148.878527 
L 381.253802 149.62025 
L 382.179825 150.376821 
L 383.104737 151.136278 
L 384.02965 151.9576 
L 384.955672 152.798183 
L 385.880585 153.597037 
L 386.805497 154.395662 
L 387.73152 155.202805 
L 388.656433 156.046832 
L 389.581345 156.617661 
L 390.507368 157.194592 
L 391.43228 157.794227 
L 392.357193 158.406499 
L 393.283216 159.044254 
L 394.208128 159.755238 
L 395.133041 160.57922 
L 396.059063 161.243339 
L 396.983976 161.919857 
L 397.908888 162.591455 
L 398.834911 163.262478 
L 398.834911 108.499666 
L 398.834911 108.499666 
L 397.908888 108.01967 
L 396.983976 107.541569 
L 396.059063 107.058392 
L 395.133041 106.588933 
L 394.208128 105.965908 
L 393.283216 105.45595 
L 392.357193 105.019389 
L 391.43228 104.608872 
L 390.507368 104.210918 
L 389.581345 103.831538 
L 388.656433 103.455749 
L 387.73152 102.758659 
L 386.805497 102.100834 
L 385.880585 101.45347 
L 384.955672 100.80845 
L 384.02965 100.124173 
L 383.104737 99.459294 
L 382.179825 98.855251 
L 381.253802 98.251861 
L 380.328889 97.664564 
L 379.403977 97.090726 
L 378.477954 96.460957 
L 377.553042 95.780233 
L 376.628129 94.997854 
L 375.702106 94.263825 
L 374.777194 93.565699 
L 373.852281 92.914957 
L 372.926259 92.302635 
L 372.001346 91.702523 
L 371.076434 91.32759 
L 370.150411 90.932187 
L 369.225498 90.492215 
L 368.300586 89.997111 
L 367.374563 89.489189 
L 366.449651 89.00742 
L 365.524738 88.521876 
L 364.598715 88.271139 
L 363.673803 87.977785 
L 362.74889 87.679812 
L 361.822867 87.396689 
L 360.897955 87.110464 
L 359.973043 86.794581 
L 359.04702 86.46115 
L 358.122107 86.198789 
L 357.197195 85.838337 
L 356.271172 85.431227 
L 355.34626 85.014108 
L 354.421347 84.644887 
L 353.495324 84.387038 
L 352.570412 84.088341 
L 351.645499 83.766871 
L 350.719476 83.453441 
L 349.794564 83.134477 
L 348.869652 82.792913 
L 347.943629 82.529148 
L 347.018716 82.250843 
L 346.093804 81.963002 
L 345.167781 81.664807 
L 344.242868 81.374696 
L 343.317956 81.084097 
L 342.391933 80.611251 
L 341.467021 80.103191 
L 340.542108 79.58498 
L 339.616085 79.102995 
L 338.691173 78.647055 
L 337.76626 78.180733 
L 336.840238 77.688457 
L 335.915325 77.257657 
L 334.990413 76.855753 
L 334.06439 76.44318 
L 333.139477 76.042583 
L 332.214565 75.671078 
L 331.288542 75.165067 
L 330.36363 74.695067 
L 329.438717 74.189239 
L 328.512694 73.656961 
L 327.587782 73.133845 
L 326.662869 72.663177 
L 325.736847 72.263369 
L 324.811934 71.889904 
L 323.887022 71.545204 
L 322.960999 71.214315 
L 322.036086 70.914249 
L 321.111174 70.599097 
L 320.185151 70.272767 
L 319.260239 69.960125 
L 318.335326 69.674814 
L 317.409303 69.390456 
L 316.484391 69.09983 
L 315.559478 68.739137 
L 314.633456 68.319451 
L 313.708543 67.891659 
L 312.783631 67.474535 
L 311.857608 67.027623 
L 310.932695 66.492465 
L 310.007783 65.9054 
L 309.08176 65.38037 
L 308.156848 64.918449 
L 307.231935 64.491897 
L 306.305912 64.069128 
L 305.381 63.624965 
L 304.456087 63.187742 
L 303.530065 62.702486 
L 302.605152 62.138706 
L 301.68024 61.637421 
L 300.754217 61.126275 
L 299.829304 60.582405 
L 298.904392 60.018532 
L 297.978369 59.403801 
L 297.053457 58.836575 
L 296.128544 58.335153 
L 295.202521 57.882721 
L 294.277609 57.467944 
L 293.352696 57.071689 
L 292.426674 56.635751 
L 291.501761 56.153042 
L 290.576849 55.623593 
L 289.650826 55.074865 
L 288.725913 54.441268 
L 287.801001 53.751833 
L 286.874978 53.18058 
L 285.950066 52.627948 
L 285.025153 52.076196 
L 284.09913 51.499826 
L 283.174218 50.907049 
L 282.249305 50.454986 
L 281.323283 49.97183 
L 280.39837 49.482825 
L 279.473458 48.943166 
L 278.547435 48.335273 
L 277.622522 47.760193 
L 276.69761 47.254974 
L 275.771587 46.839383 
L 274.846675 46.413472 
L 273.921762 45.980499 
L 272.995739 45.567518 
L 272.070827 45.165943 
L 271.145914 44.750613 
L 270.219892 44.358039 
L 269.294979 44.042792 
L 268.370067 43.775391 
L 267.444044 43.556242 
L 266.519131 43.38899 
L 265.594219 43.239667 
L 264.668196 43.007495 
L 263.743284 42.693357 
L 262.818371 42.351366 
L 261.892348 42.017014 
L 260.967436 41.692221 
L 260.042523 41.368357 
L 259.116501 41.022143 
L 258.191588 40.615077 
L 257.266676 40.216572 
L 256.340653 39.866132 
L 255.41574 39.564451 
L 254.490828 39.280725 
L 253.564805 39.018515 
L 252.639893 38.734837 
L 251.71498 38.439676 
L 250.788957 38.188749 
L 249.864045 37.957676 
L 248.939132 37.752025 
L 248.013109 37.565014 
L 247.088197 37.288094 
L 246.163285 36.924054 
L 245.237262 36.591626 
L 244.312349 36.317215 
L 243.387437 36.016565 
L 242.461414 35.709172 
L 241.536501 35.429017 
L 240.611589 35.120965 
L 239.685566 34.810237 
L 238.760654 34.518909 
L 237.835741 34.301152 
L 236.909718 34.097566 
L 235.984806 33.873232 
L 235.059894 33.651904 
L 234.133871 33.374991 
L 233.208958 33.042987 
L 232.284046 32.679813 
L 231.358023 32.359346 
L 230.43311 32.032306 
L 229.508198 31.692804 
L 228.582175 31.318986 
L 227.657263 30.925374 
L 226.73235 30.558825 
L 225.806327 30.241943 
L 224.881415 29.986723 
L 223.956502 29.700374 
L 223.03048 29.32075 
L 222.105567 28.924311 
L 221.180655 28.583668 
L 220.254632 28.276429 
L 219.329719 27.932227 
L 218.404807 27.555344 
L 217.478784 27.181154 
L 216.553872 26.810315 
L 215.628959 26.42126 
L 214.702936 26.056265 
L 213.778024 25.794613 
L 212.853111 25.618075 
L 211.927089 25.439712 
L 211.002176 25.255791 
L 210.077264 25.102554 
L 209.151241 24.961093 
L 208.226328 24.773655 
L 207.301416 24.564552 
L 206.375393 24.382635 
L 205.450481 24.145449 
L 204.525568 23.805448 
L 203.599545 23.413098 
L 202.674633 23.001647 
L 201.74972 22.538941 
L 200.823698 22.124441 
L 199.898785 21.753476 
L 198.973873 21.422343 
L 198.04785 21.180529 
L 197.122937 20.947315 
L 196.198025 20.743416 
L 195.272002 20.5717 
L 194.34709 20.408443 
L 193.422177 20.257532 
L 192.496154 20.06665 
L 191.571242 19.89292 
L 190.646329 19.713028 
L 189.720307 19.538028 
L 188.795394 19.33761 
L 187.870482 19.092972 
L 186.944459 18.791888 
L 186.019546 18.57543 
L 185.094634 18.382382 
L 184.168611 18.165656 
L 183.243699 17.976625 
L 182.318786 17.78893 
L 181.392763 17.553837 
L 180.467851 17.208262 
L 179.542938 16.840442 
L 178.616916 16.529772 
L 177.692003 16.238999 
L 176.767091 15.990498 
L 175.841068 15.766681 
L 174.916155 15.57429 
L 173.991243 15.456761 
L 173.06522 15.370125 
L 172.140308 15.365603 
L 171.215395 15.459436 
L 170.289372 15.581713 
L 169.36446 15.740244 
L 168.439547 15.951474 
L 167.513525 16.139572 
L 166.588612 16.315253 
L 165.6637 16.485493 
L 164.737677 16.621955 
L 163.812764 16.699485 
L 162.887852 16.758824 
L 161.961829 16.791095 
L 161.036917 16.843581 
L 160.112004 16.875187 
L 159.185981 16.920806 
L 158.261069 16.990789 
L 157.336156 17.093311 
L 156.410134 17.247672 
L 155.485221 17.440102 
L 154.560309 17.637047 
L 153.634286 17.868622 
L 152.709373 18.059281 
L 151.784461 18.247111 
L 150.858438 18.444655 
L 149.933526 18.641366 
L 149.008613 18.881632 
L 148.08259 19.157598 
L 147.157678 19.50549 
L 146.232765 19.89197 
L 145.306742 20.275154 
L 144.38183 20.624842 
L 143.456918 20.867546 
L 142.530895 21.163348 
L 141.605982 21.446495 
L 140.68107 21.665222 
L 139.755047 21.851486 
L 138.830135 22.015465 
L 137.905222 22.166852 
L 136.979199 22.379681 
L 136.054287 22.589749 
L 135.129374 22.766813 
L 134.203351 22.906598 
L 133.278439 23.041922 
L 132.353527 23.16927 
L 131.427504 23.270358 
L 130.502591 23.440429 
L 129.577679 23.640445 
L 128.651656 23.85866 
L 127.726743 24.056943 
L 126.801831 24.222046 
L 125.875808 24.254048 
L 124.950896 24.279409 
L 124.025983 24.278398 
L 123.09996 24.246238 
L 122.175048 24.234337 
L 121.250135 24.271028 
L 120.324113 24.313542 
L 119.3992 24.366069 
L 118.474288 24.431681 
L 117.548265 24.522004 
L 116.623352 24.635635 
L 115.69844 24.711099 
L 114.772417 24.794853 
L 113.847505 24.773143 
L 112.922592 24.730579 
L 111.996569 24.636531 
L 111.071657 24.513499 
L 110.146744 24.425362 
L 109.220722 24.361119 
L 108.295809 24.355061 
L 107.370897 24.403687 
L 106.444874 24.409546 
L 105.519961 24.384481 
L 104.595049 24.370318 
L 103.669026 24.264196 
L 102.744114 24.096127 
L 101.819201 23.944772 
L 100.893178 23.779052 
L 99.968266 23.57472 
L 99.043353 23.369856 
L 98.117331 23.187844 
L 97.192418 22.957652 
L 96.267506 22.688932 
L 95.341483 22.436444 
L 94.41657 22.221736 
L 93.491658 22.046995 
L 92.565635 21.891469 
L 91.640723 21.71282 
L 90.71581 21.541231 
L 89.789787 21.349791 
L 88.864875 21.10726 
L 87.939962 20.829769 
L 87.01394 20.664735 
L 86.089027 20.472917 
L 85.164115 20.245634 
L 84.238092 19.998227 
L 83.313179 19.696595 
L 82.388267 19.427244 
L 81.462244 19.159263 
L 80.537332 18.744505 
L 79.612419 18.339525 
L 78.686396 18.765352 
L 77.761484 19.377169 
z
" clip-path="url(#pa066514740)" style="fill: #a6cee3; fill-opacity: 0.5"/>
   </g>
   <g id="PolyCollection_3">
    <path d="M 77.761484 19.377169 
L 77.761484 22.627096 
L 78.686396 23.175874 
L 79.612419 23.568044 
L 80.537332 24.466729 
L 81.462244 25.328063 
L 82.388267 25.762979 
L 83.313179 26.186906 
L 84.238092 26.601422 
L 85.164115 27.00776 
L 86.089027 27.40691 
L 87.01394 27.799676 
L 87.939962 28.186711 
L 88.864875 28.67448 
L 89.789787 29.157286 
L 90.71581 29.635567 
L 91.640723 30.109704 
L 92.565635 30.580016 
L 93.491658 31.046802 
L 94.41657 31.5103 
L 95.341483 31.970746 
L 96.267506 32.428332 
L 97.192418 32.88324 
L 98.117331 33.335627 
L 99.043353 33.785646 
L 99.968266 34.267261 
L 100.893178 34.746872 
L 101.819201 35.224588 
L 102.744114 35.700492 
L 103.669026 36.174672 
L 104.595049 36.647209 
L 105.519961 37.118175 
L 106.444874 37.587635 
L 107.370897 38.055658 
L 108.295809 38.522297 
L 109.220722 38.987607 
L 110.146744 39.451646 
L 111.071657 39.950644 
L 111.996569 40.448425 
L 112.922592 40.945035 
L 113.847505 41.440518 
L 114.772417 41.934907 
L 115.69844 42.318787 
L 116.623352 42.701657 
L 117.548265 43.083543 
L 118.474288 43.464484 
L 119.3992 43.844504 
L 120.324113 44.223634 
L 121.250135 44.601901 
L 122.175048 44.96729 
L 123.09996 45.331848 
L 124.025983 45.695588 
L 124.950896 46.05854 
L 125.875808 46.420715 
L 126.801831 46.782151 
L 127.726743 47.016812 
L 128.651656 47.250764 
L 129.577679 47.484032 
L 130.502591 47.716625 
L 131.427504 47.948569 
L 132.353527 48.179872 
L 133.278439 48.286961 
L 134.203351 48.393454 
L 135.129374 48.499385 
L 136.054287 48.60476 
L 136.979199 48.709589 
L 137.905222 48.813886 
L 138.830135 48.917656 
L 139.755047 49.02092 
L 140.68107 49.123681 
L 141.605982 49.225949 
L 142.530895 49.327746 
L 143.456918 49.429069 
L 144.38183 49.553275 
L 145.306742 49.677017 
L 146.232765 49.800302 
L 147.157678 49.923144 
L 148.08259 50.045542 
L 149.008613 50.167513 
L 149.933526 50.28906 
L 150.858438 50.410188 
L 151.784461 50.530908 
L 152.709373 50.651225 
L 153.634286 50.771157 
L 154.560309 50.890695 
L 155.485221 51.043695 
L 156.410134 51.196306 
L 157.336156 51.348527 
L 158.261069 51.500375 
L 159.185981 51.651848 
L 160.112004 51.802957 
L 161.036917 51.953707 
L 161.961829 52.104103 
L 162.887852 52.254153 
L 163.812764 52.403859 
L 164.737677 52.553226 
L 165.6637 52.702262 
L 166.588612 52.86146 
L 167.513525 53.020377 
L 168.439547 53.178993 
L 169.36446 53.337334 
L 170.289372 53.495395 
L 171.215395 53.653179 
L 172.140308 53.810693 
L 173.06522 53.967936 
L 173.991243 54.124919 
L 174.916155 54.28164 
L 175.841068 54.438105 
L 176.767091 54.594309 
L 177.692003 54.780938 
L 178.616916 54.96731 
L 179.542938 55.153426 
L 180.467851 55.3393 
L 181.392763 55.524929 
L 182.318786 55.710326 
L 183.243699 55.895478 
L 184.168611 56.080402 
L 185.094634 56.265086 
L 186.019546 56.449553 
L 186.944459 56.633788 
L 187.870482 56.817802 
L 188.795394 56.979412 
L 189.720307 57.14081 
L 190.646329 57.302006 
L 191.571242 57.462996 
L 192.496154 57.623788 
L 193.422177 57.82454 
L 194.34709 58.0251 
L 195.272002 58.226748 
L 196.198025 58.428214 
L 197.122937 58.629512 
L 198.04785 58.830628 
L 198.973873 59.031567 
L 199.898785 59.355712 
L 200.823698 59.693248 
L 201.74972 60.041633 
L 202.674633 60.383619 
L 203.599545 60.710924 
L 204.525568 61.032017 
L 205.450481 61.352682 
L 206.375393 61.704498 
L 207.301416 62.063365 
L 208.226328 62.453462 
L 209.151241 62.840685 
L 210.077264 63.216629 
L 211.002176 63.580251 
L 211.927089 63.937975 
L 212.853111 64.295428 
L 213.778024 64.644606 
L 214.702936 64.981034 
L 215.628959 65.309457 
L 216.553872 65.633415 
L 217.478784 65.960519 
L 218.404807 66.288651 
L 219.329719 66.615681 
L 220.254632 66.933102 
L 221.180655 67.239721 
L 222.105567 67.541348 
L 223.03048 67.839003 
L 223.956502 68.125783 
L 224.881415 68.402831 
L 225.806327 68.669574 
L 226.73235 68.929982 
L 227.657263 69.186856 
L 228.582175 69.459236 
L 229.508198 69.753243 
L 230.43311 70.05871 
L 231.358023 70.371887 
L 232.284046 70.678629 
L 233.208958 71.043123 
L 234.133871 71.414365 
L 235.059894 71.786735 
L 235.984806 72.156457 
L 236.909718 72.523106 
L 237.835741 72.896062 
L 238.760654 73.280818 
L 239.685566 73.691887 
L 240.611589 74.119596 
L 241.536501 74.563565 
L 242.461414 75.016154 
L 243.387437 75.478013 
L 244.312349 75.977074 
L 245.237262 76.490102 
L 246.163285 77.016584 
L 247.088197 77.540659 
L 248.013109 78.060948 
L 248.939132 78.57499 
L 249.864045 79.087456 
L 250.788957 79.607415 
L 251.71498 80.133184 
L 252.639893 80.657766 
L 253.564805 81.178424 
L 254.490828 81.695292 
L 255.41574 82.222379 
L 256.340653 82.746095 
L 257.266676 83.263765 
L 258.191588 83.771997 
L 259.116501 84.272644 
L 260.042523 84.76854 
L 260.967436 85.259892 
L 261.892348 85.759205 
L 262.818371 86.265759 
L 263.743284 86.77567 
L 264.668196 87.317069 
L 265.594219 87.851836 
L 266.519131 88.353699 
L 267.444044 88.861937 
L 268.370067 89.368781 
L 269.294979 89.865066 
L 270.219892 90.359652 
L 271.145914 90.856484 
L 272.070827 91.355137 
L 272.995739 91.868435 
L 273.921762 92.39568 
L 274.846675 92.938836 
L 275.771587 93.482785 
L 276.69761 94.033675 
L 277.622522 94.654451 
L 278.547435 95.288932 
L 279.473458 95.925875 
L 280.39837 96.549181 
L 281.323283 97.155675 
L 282.249305 97.756297 
L 283.174218 98.353142 
L 284.09913 99.032112 
L 285.025153 99.713764 
L 285.950066 100.395703 
L 286.874978 101.072329 
L 287.801001 101.747163 
L 288.725913 102.530085 
L 289.650826 103.311024 
L 290.576849 104.080319 
L 291.501761 104.834841 
L 292.426674 105.583214 
L 293.352696 106.321338 
L 294.277609 107.055149 
L 295.202521 107.794557 
L 296.128544 108.541581 
L 297.053457 109.282609 
L 297.978369 110.013978 
L 298.904392 110.740789 
L 299.829304 111.428684 
L 300.754217 112.11905 
L 301.68024 112.808747 
L 302.605152 113.496361 
L 303.530065 114.257229 
L 304.456087 115.016802 
L 305.381 115.748589 
L 306.305912 116.493866 
L 307.231935 117.242273 
L 308.156848 118.003579 
L 309.08176 118.772732 
L 310.007783 119.545818 
L 310.932695 120.355599 
L 311.857608 121.171146 
L 312.783631 121.988006 
L 313.708543 122.794436 
L 314.633456 123.594465 
L 315.559478 124.389783 
L 316.484391 125.184215 
L 317.409303 125.985923 
L 318.335326 126.79727 
L 319.260239 127.616277 
L 320.185151 128.443639 
L 321.111174 129.270951 
L 322.036086 130.12496 
L 322.960999 130.988692 
L 323.887022 131.854949 
L 324.811934 132.712838 
L 325.736847 133.570578 
L 326.662869 134.427546 
L 327.587782 135.284849 
L 328.512694 136.149378 
L 329.438717 137.022375 
L 330.36363 137.89135 
L 331.288542 138.757686 
L 332.214565 139.619301 
L 333.139477 140.240845 
L 334.06439 140.831217 
L 334.990413 141.412073 
L 335.915325 141.991392 
L 336.840238 142.563909 
L 337.76626 143.126466 
L 338.691173 143.678016 
L 339.616085 144.232317 
L 340.542108 144.786835 
L 341.467021 145.349762 
L 342.391933 145.904979 
L 343.317956 146.449056 
L 344.242868 146.807809 
L 345.167781 147.164411 
L 346.093804 147.513599 
L 347.018716 147.846393 
L 347.943629 148.163976 
L 348.869652 148.460031 
L 349.794564 148.754461 
L 350.719476 149.042364 
L 351.645499 149.329257 
L 352.570412 149.612005 
L 353.495324 149.879054 
L 354.421347 150.144823 
L 355.34626 150.544431 
L 356.271172 150.957922 
L 357.197195 151.376568 
L 358.122107 151.794967 
L 359.04702 152.089639 
L 359.973043 152.394732 
L 360.897955 152.717902 
L 361.822867 153.05749 
L 362.74889 153.411636 
L 363.673803 153.777468 
L 364.598715 154.139421 
L 365.524738 154.51187 
L 366.449651 155.208971 
L 367.374563 155.890618 
L 368.300586 156.550881 
L 369.225498 157.198694 
L 370.150411 157.843956 
L 371.076434 158.495756 
L 372.001346 159.148413 
L 372.926259 160.046561 
L 373.852281 160.963032 
L 374.777194 161.896271 
L 375.702106 162.835062 
L 376.628129 163.783469 
L 377.553042 164.757095 
L 378.477954 165.55067 
L 379.403977 166.296547 
L 380.328889 167.03475 
L 381.253802 167.774242 
L 382.179825 168.515255 
L 383.104737 169.256032 
L 384.02965 169.996573 
L 384.955672 170.736877 
L 385.880585 171.470742 
L 386.805497 172.204376 
L 387.73152 172.940467 
L 388.656433 173.676316 
L 389.581345 174.132942 
L 390.507368 174.589164 
L 391.43228 175.044982 
L 392.357193 175.500412 
L 393.283216 175.955438 
L 394.208128 176.410089 
L 395.133041 176.864352 
L 396.059063 177.318241 
L 396.983976 177.77175 
L 397.908888 178.224896 
L 398.834911 178.677667 
L 398.834911 126.511765 
L 398.834911 126.511765 
L 397.908888 126.253469 
L 396.983976 125.995537 
L 396.059063 125.73798 
L 395.133041 125.480792 
L 394.208128 125.223987 
L 393.283216 124.967562 
L 392.357193 124.711521 
L 391.43228 124.455873 
L 390.507368 124.200625 
L 389.581345 123.94577 
L 388.656433 123.691328 
L 387.73152 123.107391 
L 386.805497 122.523685 
L 385.880585 121.941667 
L 384.955672 121.359871 
L 384.02965 120.771321 
L 383.104737 120.183007 
L 382.179825 119.594929 
L 381.253802 119.007087 
L 380.328889 118.421545 
L 379.403977 117.838316 
L 378.477954 117.248289 
L 377.553042 116.596386 
L 376.628129 115.756781 
L 375.702106 114.919987 
L 374.777194 114.093714 
L 373.852281 113.272521 
L 372.926259 112.476494 
L 372.001346 111.691179 
L 371.076434 111.140279 
L 370.150411 110.587735 
L 369.225498 110.040134 
L 368.300586 109.490238 
L 367.374563 108.924811 
L 366.449651 108.340775 
L 365.524738 107.74102 
L 364.598715 107.46444 
L 363.673803 107.201783 
L 362.74889 106.93304 
L 361.822867 106.680032 
L 360.897955 106.443283 
L 359.973043 106.223957 
L 359.04702 106.022295 
L 358.122107 105.831802 
L 357.197195 105.515947 
L 356.271172 105.200447 
L 355.34626 104.887797 
L 354.421347 104.585229 
L 353.495324 104.412247 
L 352.570412 104.237887 
L 351.645499 104.046144 
L 350.719476 103.848602 
L 349.794564 103.648564 
L 348.869652 103.440777 
L 347.943629 103.231573 
L 347.018716 103.003902 
L 346.093804 102.763019 
L 345.167781 102.50969 
L 344.242868 102.248731 
L 343.317956 101.987697 
L 342.391933 101.539185 
L 341.467021 101.080329 
L 340.542108 100.611952 
L 339.616085 100.146834 
L 338.691173 99.681913 
L 337.76626 99.2168 
L 336.840238 98.739124 
L 335.915325 98.250908 
L 334.990413 97.755819 
L 334.06439 97.259096 
L 333.139477 96.749047 
L 332.214565 96.203316 
L 331.288542 95.417366 
L 330.36363 94.626646 
L 329.438717 93.83314 
L 328.512694 93.03571 
L 327.587782 92.249228 
L 326.662869 91.470308 
L 325.736847 90.690808 
L 324.811934 89.91015 
L 323.887022 89.129443 
L 322.960999 88.340338 
L 322.036086 87.55364 
L 321.111174 86.782937 
L 320.185151 86.042317 
L 319.260239 85.301963 
L 318.335326 84.569905 
L 317.409303 83.845487 
L 316.484391 83.129339 
L 315.559478 82.418548 
L 314.633456 81.706831 
L 313.708543 80.989497 
L 312.783631 80.264463 
L 311.857608 79.528535 
L 310.932695 78.794168 
L 310.007783 78.066048 
L 309.08176 77.372585 
L 308.156848 76.684543 
L 307.231935 76.006759 
L 306.305912 75.34211 
L 305.381 74.681026 
L 304.456087 74.030614 
L 303.530065 73.358098 
L 302.605152 72.692224 
L 301.68024 72.105214 
L 300.754217 71.518062 
L 299.829304 70.933174 
L 298.904392 70.355966 
L 297.978369 69.72915 
L 297.053457 69.097854 
L 296.128544 68.45045 
L 295.202521 67.794756 
L 294.277609 67.145585 
L 293.352696 66.507584 
L 292.426674 65.860751 
L 291.501761 65.204397 
L 290.576849 64.542013 
L 289.650826 63.864136 
L 288.725913 63.176044 
L 287.801001 62.485171 
L 286.874978 61.903872 
L 285.950066 61.321352 
L 285.025153 60.735145 
L 284.09913 60.149942 
L 283.174218 59.568378 
L 282.249305 59.085508 
L 281.323283 58.600211 
L 280.39837 58.110774 
L 279.473458 57.608719 
L 278.547435 57.095283 
L 277.622522 56.587272 
L 276.69761 56.094108 
L 275.771587 55.673262 
L 274.846675 55.257969 
L 273.921762 54.846363 
L 272.995739 54.447232 
L 272.070827 54.059065 
L 271.145914 53.683386 
L 270.219892 53.308043 
L 269.294979 52.934226 
L 268.370067 52.559576 
L 267.444044 52.178887 
L 266.519131 51.797562 
L 265.594219 51.418615 
L 264.668196 50.997606 
L 263.743284 50.572684 
L 262.818371 50.184251 
L 261.892348 49.797078 
L 260.967436 49.416516 
L 260.042523 49.043383 
L 259.116501 48.666395 
L 258.191588 48.283662 
L 257.266676 47.892733 
L 256.340653 47.489423 
L 255.41574 47.07408 
L 254.490828 46.649616 
L 253.564805 46.23227 
L 252.639893 45.809342 
L 251.71498 45.379477 
L 250.788957 44.946683 
L 249.864045 44.521766 
L 248.939132 44.106045 
L 248.013109 43.689673 
L 247.088197 43.267203 
L 246.163285 42.841153 
L 245.237262 42.413425 
L 244.312349 41.999712 
L 243.387437 41.598282 
L 242.461414 41.238003 
L 241.536501 40.889406 
L 240.611589 40.551398 
L 239.685566 40.230271 
L 238.760654 39.926807 
L 237.835741 39.644802 
L 236.909718 39.376971 
L 235.984806 39.117404 
L 235.059894 38.852975 
L 234.133871 38.584764 
L 233.208958 38.318517 
L 232.284046 38.063067 
L 231.358023 37.861035 
L 230.43311 37.653356 
L 229.508198 37.453968 
L 228.582175 37.26477 
L 227.657263 37.096411 
L 226.73235 36.94096 
L 225.806327 36.783274 
L 224.881415 36.620867 
L 223.956502 36.449859 
L 223.03048 36.26965 
L 222.105567 36.079473 
L 221.180655 35.887863 
L 220.254632 35.692305 
L 219.329719 35.486792 
L 218.404807 35.273551 
L 217.478784 35.059886 
L 216.553872 34.847703 
L 215.628959 34.640547 
L 214.702936 34.428876 
L 213.778024 34.208078 
L 212.853111 33.974923 
L 211.927089 33.732617 
L 211.002176 33.490542 
L 210.077264 33.24313 
L 209.151241 32.98001 
L 208.226328 32.708644 
L 207.301416 32.435771 
L 206.375393 32.196866 
L 205.450481 31.965356 
L 204.525568 31.766288 
L 203.599545 31.567835 
L 202.674633 31.364311 
L 201.74972 31.145605 
L 200.823698 30.921967 
L 199.898785 30.711039 
L 198.973873 30.513659 
L 198.04785 30.411789 
L 197.122937 30.310097 
L 196.198025 30.208576 
L 195.272002 30.107233 
L 194.34709 30.006072 
L 193.422177 29.909553 
L 192.496154 29.813226 
L 191.571242 29.757676 
L 190.646329 29.702322 
L 189.720307 29.647176 
L 188.795394 29.592231 
L 187.870482 29.537498 
L 186.944459 29.463216 
L 186.019546 29.389165 
L 185.094634 29.315336 
L 184.168611 29.241733 
L 183.243699 29.168362 
L 182.318786 29.095227 
L 181.392763 29.022329 
L 180.467851 28.949671 
L 179.542938 28.87725 
L 178.616916 28.80508 
L 177.692003 28.733156 
L 176.767091 28.661488 
L 175.841068 28.619446 
L 174.916155 28.577665 
L 173.991243 28.536141 
L 173.06522 28.494867 
L 172.140308 28.453864 
L 171.215395 28.413131 
L 170.289372 28.37267 
L 169.36446 28.332474 
L 168.439547 28.292569 
L 167.513525 28.25294 
L 166.588612 28.2136 
L 165.6637 28.174552 
L 164.737677 28.152408 
L 163.812764 28.130605 
L 162.887852 28.109131 
L 161.961829 28.088002 
L 161.036917 28.067217 
L 160.112004 28.046797 
L 159.185981 28.026726 
L 158.261069 28.00702 
L 157.336156 27.987687 
L 156.410134 27.968739 
L 155.485221 27.95017 
L 154.560309 27.931989 
L 153.634286 27.944956 
L 152.709373 27.958307 
L 151.784461 27.972052 
L 150.858438 27.986201 
L 149.933526 28.000758 
L 149.008613 28.015724 
L 148.08259 28.031122 
L 147.157678 28.04695 
L 146.232765 28.06321 
L 145.306742 28.079923 
L 144.38183 28.097095 
L 143.456918 28.114728 
L 142.530895 28.154082 
L 141.605982 28.193909 
L 140.68107 28.234218 
L 139.755047 28.275009 
L 138.830135 28.316312 
L 137.905222 28.358113 
L 136.979199 28.40044 
L 136.054287 28.443309 
L 135.129374 28.486714 
L 134.203351 28.530676 
L 133.278439 28.575209 
L 132.353527 28.620327 
L 131.427504 28.545652 
L 130.502591 28.471616 
L 129.577679 28.39823 
L 128.651656 28.325518 
L 127.726743 28.253491 
L 126.801831 28.182163 
L 125.875808 27.985999 
L 124.950896 27.790583 
L 124.025983 27.595936 
L 123.09996 27.402076 
L 122.175048 27.209033 
L 121.250135 27.016823 
L 120.324113 26.811212 
L 119.3992 26.606463 
L 118.474288 26.402604 
L 117.548265 26.199667 
L 116.623352 25.997674 
L 115.69844 25.796666 
L 114.772417 25.596668 
L 113.847505 25.288945 
L 112.922592 24.982316 
L 111.996569 24.676814 
L 111.071657 24.372494 
L 110.146744 24.06938 
L 109.220722 23.800928 
L 108.295809 23.533756 
L 107.370897 23.267903 
L 106.444874 23.003434 
L 105.519961 22.740412 
L 104.595049 22.478886 
L 103.669026 22.218941 
L 102.744114 21.96063 
L 101.819201 21.704053 
L 100.893178 21.449276 
L 99.968266 21.196406 
L 99.043353 20.945528 
L 98.117331 20.737658 
L 97.192418 20.532155 
L 96.267506 20.329173 
L 95.341483 20.128869 
L 94.41657 19.931426 
L 93.491658 19.737034 
L 92.565635 19.545931 
L 91.640723 19.358353 
L 90.71581 19.1746 
L 89.789787 18.994992 
L 88.864875 18.819908 
L 87.939962 18.649787 
L 87.01394 18.581767 
L 86.089027 18.519467 
L 85.164115 18.463553 
L 84.238092 18.414835 
L 83.313179 18.374285 
L 82.388267 18.343148 
L 81.462244 18.323008 
L 80.537332 18.112327 
L 79.612419 17.939005 
L 78.686396 18.579783 
L 77.761484 19.377169 
z
" clip-path="url(#pa066514740)" style="fill: #1f78b4; fill-opacity: 0.5"/>
   </g>
   <g id="matplotlib.axis_1">
    <g id="xtick_1">
     <g id="line2d_1">
      <defs>
       <path id="mbd02c2380a" d="M 0 0 
L 0 3.5 
" style="stroke: #000000; stroke-width: 0.8"/>
      </defs>
      <g>
       <use xlink:href="#mbd02c2380a" x="111.071657" y="186.84327" style="stroke: #000000; stroke-width: 0.8"/>
      </g>
     </g>
     <g id="text_1">
      <!-- 1995 -->
      <g transform="translate(98.346657 201.441708) scale(0.1 -0.1)">
       <defs>
        <path id="DejaVuSans-31" d="M 794 531 
L 1825 531 
L 1825 4091 
L 703 3866 
L 703 4441 
L 1819 4666 
L 2450 4666 
L 2450 531 
L 3481 531 
L 3481 0 
L 794 0 
L 794 531 
z
" transform="scale(0.015625)"/>
        <path id="DejaVuSans-39" d="M 703 97 
L 703 672 
Q 941 559 1184 500 
Q 1428 441 1663 441 
Q 2288 441 2617 861 
Q 2947 1281 2994 2138 
Q 2813 1869 2534 1725 
Q 2256 1581 1919 1581 
Q 1219 1581 811 2004 
Q 403 2428 403 3163 
Q 403 3881 828 4315 
Q 1253 4750 1959 4750 
Q 2769 4750 3195 4129 
Q 3622 3509 3622 2328 
Q 3622 1225 3098 567 
Q 2575 -91 1691 -91 
Q 1453 -91 1209 -44 
Q 966 3 703 97 
z
M 1959 2075 
Q 2384 2075 2632 2365 
Q 2881 2656 2881 3163 
Q 2881 3666 2632 3958 
Q 2384 4250 1959 4250 
Q 1534 4250 1286 3958 
Q 1038 3666 1038 3163 
Q 1038 2656 1286 2365 
Q 1534 2075 1959 2075 
z
" transform="scale(0.015625)"/>
        <path id="DejaVuSans-35" d="M 691 4666 
L 3169 4666 
L 3169 4134 
L 1269 4134 
L 1269 2991 
Q 1406 3038 1543 3061 
Q 1681 3084 1819 3084 
Q 2600 3084 3056 2656 
Q 3513 2228 3513 1497 
Q 3513 744 3044 326 
Q 2575 -91 1722 -91 
Q 1428 -91 1123 -41 
Q 819 9 494 109 
L 494 744 
Q 775 591 1075 516 
Q 1375 441 1709 441 
Q 2250 441 2565 725 
Q 2881 1009 2881 1497 
Q 2881 1984 2565 2268 
Q 2250 2553 1709 2553 
Q 1456 2553 1204 2497 
Q 953 2441 691 2322 
L 691 4666 
z
" transform="scale(0.015625)"/>
       </defs>
       <use xlink:href="#DejaVuSans-31"/>
       <use xlink:href="#DejaVuSans-39" x="63.623047"/>
       <use xlink:href="#DejaVuSans-39" x="127.246094"/>
       <use xlink:href="#DejaVuSans-35" x="190.869141"/>
      </g>
     </g>
    </g>
    <g id="xtick_2">
     <g id="line2d_2">
      <g>
       <use xlink:href="#mbd02c2380a" x="166.588612" y="186.84327" style="stroke: #000000; stroke-width: 0.8"/>
      </g>
     </g>
     <g id="text_2">
      <!-- 2000 -->
      <g transform="translate(153.863612 201.441708) scale(0.1 -0.1)">
       <defs>
        <path id="DejaVuSans-32" d="M 1228 531 
L 3431 531 
L 3431 0 
L 469 0 
L 469 531 
Q 828 903 1448 1529 
Q 2069 2156 2228 2338 
Q 2531 2678 2651 2914 
Q 2772 3150 2772 3378 
Q 2772 3750 2511 3984 
Q 2250 4219 1831 4219 
Q 1534 4219 1204 4116 
Q 875 4013 500 3803 
L 500 4441 
Q 881 4594 1212 4672 
Q 1544 4750 1819 4750 
Q 2544 4750 2975 4387 
Q 3406 4025 3406 3419 
Q 3406 3131 3298 2873 
Q 3191 2616 2906 2266 
Q 2828 2175 2409 1742 
Q 1991 1309 1228 531 
z
" transform="scale(0.015625)"/>
        <path id="DejaVuSans-30" d="M 2034 4250 
Q 1547 4250 1301 3770 
Q 1056 3291 1056 2328 
Q 1056 1369 1301 889 
Q 1547 409 2034 409 
Q 2525 409 2770 889 
Q 3016 1369 3016 2328 
Q 3016 3291 2770 3770 
Q 2525 4250 2034 4250 
z
M 2034 4750 
Q 2819 4750 3233 4129 
Q 3647 3509 3647 2328 
Q 3647 1150 3233 529 
Q 2819 -91 2034 -91 
Q 1250 -91 836 529 
Q 422 1150 422 2328 
Q 422 3509 836 4129 
Q 1250 4750 2034 4750 
z
" transform="scale(0.015625)"/>
       </defs>
       <use xlink:href="#DejaVuSans-32"/>
       <use xlink:href="#DejaVuSans-30" x="63.623047"/>
       <use xlink:href="#DejaVuSans-30" x="127.246094"/>
       <use xlink:href="#DejaVuSans-30" x="190.869141"/>
      </g>
     </g>
    </g>
    <g id="xtick_3">
     <g id="line2d_3">
      <g>
       <use xlink:href="#mbd02c2380a" x="222.105567" y="186.84327" style="stroke: #000000; stroke-width: 0.8"/>
      </g>
     </g>
     <g id="text_3">
      <!-- 2005 -->
      <g transform="translate(209.380567 201.441708) scale(0.1 -0.1)">
       <use xlink:href="#DejaVuSans-32"/>
       <use xlink:href="#DejaVuSans-30" x="63.623047"/>
       <use xlink:href="#DejaVuSans-30" x="127.246094"/>
       <use xlink:href="#DejaVuSans-35" x="190.869141"/>
      </g>
     </g>
    </g>
    <g id="xtick_4">
     <g id="line2d_4">
      <g>
       <use xlink:href="#mbd02c2380a" x="277.622522" y="186.84327" style="stroke: #000000; stroke-width: 0.8"/>
      </g>
     </g>
     <g id="text_4">
      <!-- 2010 -->
      <g transform="translate(264.897522 201.441708) scale(0.1 -0.1)">
       <use xlink:href="#DejaVuSans-32"/>
       <use xlink:href="#DejaVuSans-30" x="63.623047"/>
       <use xlink:href="#DejaVuSans-31" x="127.246094"/>
       <use xlink:href="#DejaVuSans-30" x="190.869141"/>
      </g>
     </g>
    </g>
    <g id="xtick_5">
     <g id="line2d_5">
      <g>
       <use xlink:href="#mbd02c2380a" x="333.139477" y="186.84327" style="stroke: #000000; stroke-width: 0.8"/>
      </g>
     </g>
     <g id="text_5">
      <!-- 2015 -->
      <g transform="translate(320.414477 201.441708) scale(0.1 -0.1)">
       <use xlink:href="#DejaVuSans-32"/>
       <use xlink:href="#DejaVuSans-30" x="63.623047"/>
       <use xlink:href="#DejaVuSans-31" x="127.246094"/>
       <use xlink:href="#DejaVuSans-35" x="190.869141"/>
      </g>
     </g>
    </g>
    <g id="xtick_6">
     <g id="line2d_6">
      <g>
       <use xlink:href="#mbd02c2380a" x="388.656433" y="186.84327" style="stroke: #000000; stroke-width: 0.8"/>
      </g>
     </g>
     <g id="text_6">
      <!-- 2020 -->
      <g transform="translate(375.931433 201.441708) scale(0.1 -0.1)">
       <use xlink:href="#DejaVuSans-32"/>
       <use xlink:href="#DejaVuSans-30" x="63.623047"/>
       <use xlink:href="#DejaVuSans-32" x="127.246094"/>
       <use xlink:href="#DejaVuSans-30" x="190.869141"/>
      </g>
     </g>
    </g>
    <g id="text_7">
     <!-- Year -->
     <g transform="translate(227.710698 215.119833) scale(0.1 -0.1)">
      <defs>
       <path id="DejaVuSans-59" d="M -13 4666 
L 666 4666 
L 1959 2747 
L 3244 4666 
L 3922 4666 
L 2272 2222 
L 2272 0 
L 1638 0 
L 1638 2222 
L -13 4666 
z
" transform="scale(0.015625)"/>
       <path id="DejaVuSans-65" d="M 3597 1894 
L 3597 1613 
L 953 1613 
Q 991 1019 1311 708 
Q 1631 397 2203 397 
Q 2534 397 2845 478 
Q 3156 559 3463 722 
L 3463 178 
Q 3153 47 2828 -22 
Q 2503 -91 2169 -91 
Q 1331 -91 842 396 
Q 353 884 353 1716 
Q 353 2575 817 3079 
Q 1281 3584 2069 3584 
Q 2775 3584 3186 3129 
Q 3597 2675 3597 1894 
z
M 3022 2063 
Q 3016 2534 2758 2815 
Q 2500 3097 2075 3097 
Q 1594 3097 1305 2825 
Q 1016 2553 972 2059 
L 3022 2063 
z
" transform="scale(0.015625)"/>
       <path id="DejaVuSans-61" d="M 2194 1759 
Q 1497 1759 1228 1600 
Q 959 1441 959 1056 
Q 959 750 1161 570 
Q 1363 391 1709 391 
Q 2188 391 2477 730 
Q 2766 1069 2766 1631 
L 2766 1759 
L 2194 1759 
z
M 3341 1997 
L 3341 0 
L 2766 0 
L 2766 531 
Q 2569 213 2275 61 
Q 1981 -91 1556 -91 
Q 1019 -91 701 211 
Q 384 513 384 1019 
Q 384 1609 779 1909 
Q 1175 2209 1959 2209 
L 2766 2209 
L 2766 2266 
Q 2766 2663 2505 2880 
Q 2244 3097 1772 3097 
Q 1472 3097 1187 3025 
Q 903 2953 641 2809 
L 641 3341 
Q 956 3463 1253 3523 
Q 1550 3584 1831 3584 
Q 2591 3584 2966 3190 
Q 3341 2797 3341 1997 
z
" transform="scale(0.015625)"/>
       <path id="DejaVuSans-72" d="M 2631 2963 
Q 2534 3019 2420 3045 
Q 2306 3072 2169 3072 
Q 1681 3072 1420 2755 
Q 1159 2438 1159 1844 
L 1159 0 
L 581 0 
L 581 3500 
L 1159 3500 
L 1159 2956 
Q 1341 3275 1631 3429 
Q 1922 3584 2338 3584 
Q 2397 3584 2469 3576 
Q 2541 3569 2628 3553 
L 2631 2963 
z
" transform="scale(0.015625)"/>
      </defs>
      <use xlink:href="#DejaVuSans-59"/>
      <use xlink:href="#DejaVuSans-65" x="47.833984"/>
      <use xlink:href="#DejaVuSans-61" x="109.357422"/>
      <use xlink:href="#DejaVuSans-72" x="170.636719"/>
     </g>
    </g>
   </g>
   <g id="matplotlib.axis_2">
    <g id="ytick_1">
     <g id="line2d_7">
      <defs>
       <path id="mf644c48268" d="M 0 0 
L -3.5 0 
" style="stroke: #000000; stroke-width: 0.8"/>
      </defs>
      <g>
       <use xlink:href="#mf644c48268" x="61.707813" y="168.689852" style="stroke: #000000; stroke-width: 0.8"/>
      </g>
     </g>
     <g id="text_8">
      <!-- 3000 -->
      <g transform="translate(20.878125 172.48907) scale(0.1 -0.1)">
       <defs>
        <path id="DejaVuSans-2212" d="M 678 2272 
L 4684 2272 
L 4684 1741 
L 678 1741 
L 678 2272 
z
" transform="scale(0.015625)"/>
        <path id="DejaVuSans-33" d="M 2597 2516 
Q 3050 2419 3304 2112 
Q 3559 1806 3559 1356 
Q 3559 666 3084 287 
Q 2609 -91 1734 -91 
Q 1441 -91 1130 -33 
Q 819 25 488 141 
L 488 750 
Q 750 597 1062 519 
Q 1375 441 1716 441 
Q 2309 441 2620 675 
Q 2931 909 2931 1356 
Q 2931 1769 2642 2001 
Q 2353 2234 1838 2234 
L 1294 2234 
L 1294 2753 
L 1863 2753 
Q 2328 2753 2575 2939 
Q 2822 3125 2822 3475 
Q 2822 3834 2567 4026 
Q 2313 4219 1838 4219 
Q 1578 4219 1281 4162 
Q 984 4106 628 3988 
L 628 4550 
Q 988 4650 1302 4700 
Q 1616 4750 1894 4750 
Q 2613 4750 3031 4423 
Q 3450 4097 3450 3541 
Q 3450 3153 3228 2886 
Q 3006 2619 2597 2516 
z
" transform="scale(0.015625)"/>
       </defs>
       <use xlink:href="#DejaVuSans-2212"/>
       <use xlink:href="#DejaVuSans-33" x="83.789062"/>
       <use xlink:href="#DejaVuSans-30" x="147.412109"/>
       <use xlink:href="#DejaVuSans-30" x="211.035156"/>
       <use xlink:href="#DejaVuSans-30" x="274.658203"/>
      </g>
     </g>
    </g>
    <g id="ytick_2">
     <g id="line2d_8">
      <g>
       <use xlink:href="#mf644c48268" x="61.707813" y="144.075232" style="stroke: #000000; stroke-width: 0.8"/>
      </g>
     </g>
     <g id="text_9">
      <!-- 2500 -->
      <g transform="translate(20.878125 147.87445) scale(0.1 -0.1)">
       <use xlink:href="#DejaVuSans-2212"/>
       <use xlink:href="#DejaVuSans-32" x="83.789062"/>
       <use xlink:href="#DejaVuSans-35" x="147.412109"/>
       <use xlink:href="#DejaVuSans-30" x="211.035156"/>
       <use xlink:href="#DejaVuSans-30" x="274.658203"/>
      </g>
     </g>
    </g>
    <g id="ytick_3">
     <g id="line2d_9">
      <g>
       <use xlink:href="#mf644c48268" x="61.707813" y="119.460612" style="stroke: #000000; stroke-width: 0.8"/>
      </g>
     </g>
     <g id="text_10">
      <!-- 2000 -->
      <g transform="translate(20.878125 123.259831) scale(0.1 -0.1)">
       <use xlink:href="#DejaVuSans-2212"/>
       <use xlink:href="#DejaVuSans-32" x="83.789062"/>
       <use xlink:href="#DejaVuSans-30" x="147.412109"/>
       <use xlink:href="#DejaVuSans-30" x="211.035156"/>
       <use xlink:href="#DejaVuSans-30" x="274.658203"/>
      </g>
     </g>
    </g>
    <g id="ytick_4">
     <g id="line2d_10">
      <g>
       <use xlink:href="#mf644c48268" x="61.707813" y="94.845992" style="stroke: #000000; stroke-width: 0.8"/>
      </g>
     </g>
     <g id="text_11">
      <!-- 1500 -->
      <g transform="translate(20.878125 98.645211) scale(0.1 -0.1)">
       <use xlink:href="#DejaVuSans-2212"/>
       <use xlink:href="#DejaVuSans-31" x="83.789062"/>
       <use xlink:href="#DejaVuSans-35" x="147.412109"/>
       <use xlink:href="#DejaVuSans-30" x="211.035156"/>
       <use xlink:href="#DejaVuSans-30" x="274.658203"/>
      </g>
     </g>
    </g>
    <g id="ytick_5">
     <g id="line2d_11">
      <g>
       <use xlink:href="#mf644c48268" x="61.707813" y="70.231372" style="stroke: #000000; stroke-width: 0.8"/>
      </g>
     </g>
     <g id="text_12">
      <!-- 1000 -->
      <g transform="translate(20.878125 74.030591) scale(0.1 -0.1)">
       <use xlink:href="#DejaVuSans-2212"/>
       <use xlink:href="#DejaVuSans-31" x="83.789062"/>
       <use xlink:href="#DejaVuSans-30" x="147.412109"/>
       <use xlink:href="#DejaVuSans-30" x="211.035156"/>
       <use xlink:href="#DejaVuSans-30" x="274.658203"/>
      </g>
     </g>
    </g>
    <g id="ytick_6">
     <g id="line2d_12">
      <g>
       <use xlink:href="#mf644c48268" x="61.707813" y="45.616752" style="stroke: #000000; stroke-width: 0.8"/>
      </g>
     </g>
     <g id="text_13">
      <!-- 500 -->
      <g transform="translate(27.240625 49.415971) scale(0.1 -0.1)">
       <use xlink:href="#DejaVuSans-2212"/>
       <use xlink:href="#DejaVuSans-35" x="83.789062"/>
       <use xlink:href="#DejaVuSans-30" x="147.412109"/>
       <use xlink:href="#DejaVuSans-30" x="211.035156"/>
      </g>
     </g>
    </g>
    <g id="ytick_7">
     <g id="line2d_13">
      <g>
       <use xlink:href="#mf644c48268" x="61.707813" y="21.002132" style="stroke: #000000; stroke-width: 0.8"/>
      </g>
     </g>
     <g id="text_14">
      <!-- 0 -->
      <g transform="translate(48.345313 24.801351) scale(0.1 -0.1)">
       <use xlink:href="#DejaVuSans-30"/>
      </g>
     </g>
    </g>
    <g id="text_15">
     <!-- Mass change [Gt] -->
     <g transform="translate(14.798438 140.92476) rotate(-90) scale(0.1 -0.1)">
      <defs>
       <path id="DejaVuSans-4d" d="M 628 4666 
L 1569 4666 
L 2759 1491 
L 3956 4666 
L 4897 4666 
L 4897 0 
L 4281 0 
L 4281 4097 
L 3078 897 
L 2444 897 
L 1241 4097 
L 1241 0 
L 628 0 
L 628 4666 
z
" transform="scale(0.015625)"/>
       <path id="DejaVuSans-73" d="M 2834 3397 
L 2834 2853 
Q 2591 2978 2328 3040 
Q 2066 3103 1784 3103 
Q 1356 3103 1142 2972 
Q 928 2841 928 2578 
Q 928 2378 1081 2264 
Q 1234 2150 1697 2047 
L 1894 2003 
Q 2506 1872 2764 1633 
Q 3022 1394 3022 966 
Q 3022 478 2636 193 
Q 2250 -91 1575 -91 
Q 1294 -91 989 -36 
Q 684 19 347 128 
L 347 722 
Q 666 556 975 473 
Q 1284 391 1588 391 
Q 1994 391 2212 530 
Q 2431 669 2431 922 
Q 2431 1156 2273 1281 
Q 2116 1406 1581 1522 
L 1381 1569 
Q 847 1681 609 1914 
Q 372 2147 372 2553 
Q 372 3047 722 3315 
Q 1072 3584 1716 3584 
Q 2034 3584 2315 3537 
Q 2597 3491 2834 3397 
z
" transform="scale(0.015625)"/>
       <path id="DejaVuSans-20" transform="scale(0.015625)"/>
       <path id="DejaVuSans-63" d="M 3122 3366 
L 3122 2828 
Q 2878 2963 2633 3030 
Q 2388 3097 2138 3097 
Q 1578 3097 1268 2742 
Q 959 2388 959 1747 
Q 959 1106 1268 751 
Q 1578 397 2138 397 
Q 2388 397 2633 464 
Q 2878 531 3122 666 
L 3122 134 
Q 2881 22 2623 -34 
Q 2366 -91 2075 -91 
Q 1284 -91 818 406 
Q 353 903 353 1747 
Q 353 2603 823 3093 
Q 1294 3584 2113 3584 
Q 2378 3584 2631 3529 
Q 2884 3475 3122 3366 
z
" transform="scale(0.015625)"/>
       <path id="DejaVuSans-68" d="M 3513 2113 
L 3513 0 
L 2938 0 
L 2938 2094 
Q 2938 2591 2744 2837 
Q 2550 3084 2163 3084 
Q 1697 3084 1428 2787 
Q 1159 2491 1159 1978 
L 1159 0 
L 581 0 
L 581 4863 
L 1159 4863 
L 1159 2956 
Q 1366 3272 1645 3428 
Q 1925 3584 2291 3584 
Q 2894 3584 3203 3211 
Q 3513 2838 3513 2113 
z
" transform="scale(0.015625)"/>
       <path id="DejaVuSans-6e" d="M 3513 2113 
L 3513 0 
L 2938 0 
L 2938 2094 
Q 2938 2591 2744 2837 
Q 2550 3084 2163 3084 
Q 1697 3084 1428 2787 
Q 1159 2491 1159 1978 
L 1159 0 
L 581 0 
L 581 3500 
L 1159 3500 
L 1159 2956 
Q 1366 3272 1645 3428 
Q 1925 3584 2291 3584 
Q 2894 3584 3203 3211 
Q 3513 2838 3513 2113 
z
" transform="scale(0.015625)"/>
       <path id="DejaVuSans-67" d="M 2906 1791 
Q 2906 2416 2648 2759 
Q 2391 3103 1925 3103 
Q 1463 3103 1205 2759 
Q 947 2416 947 1791 
Q 947 1169 1205 825 
Q 1463 481 1925 481 
Q 2391 481 2648 825 
Q 2906 1169 2906 1791 
z
M 3481 434 
Q 3481 -459 3084 -895 
Q 2688 -1331 1869 -1331 
Q 1566 -1331 1297 -1286 
Q 1028 -1241 775 -1147 
L 775 -588 
Q 1028 -725 1275 -790 
Q 1522 -856 1778 -856 
Q 2344 -856 2625 -561 
Q 2906 -266 2906 331 
L 2906 616 
Q 2728 306 2450 153 
Q 2172 0 1784 0 
Q 1141 0 747 490 
Q 353 981 353 1791 
Q 353 2603 747 3093 
Q 1141 3584 1784 3584 
Q 2172 3584 2450 3431 
Q 2728 3278 2906 2969 
L 2906 3500 
L 3481 3500 
L 3481 434 
z
" transform="scale(0.015625)"/>
       <path id="DejaVuSans-5b" d="M 550 4863 
L 1875 4863 
L 1875 4416 
L 1125 4416 
L 1125 -397 
L 1875 -397 
L 1875 -844 
L 550 -844 
L 550 4863 
z
" transform="scale(0.015625)"/>
       <path id="DejaVuSans-47" d="M 3809 666 
L 3809 1919 
L 2778 1919 
L 2778 2438 
L 4434 2438 
L 4434 434 
Q 4069 175 3628 42 
Q 3188 -91 2688 -91 
Q 1594 -91 976 548 
Q 359 1188 359 2328 
Q 359 3472 976 4111 
Q 1594 4750 2688 4750 
Q 3144 4750 3555 4637 
Q 3966 4525 4313 4306 
L 4313 3634 
Q 3963 3931 3569 4081 
Q 3175 4231 2741 4231 
Q 1884 4231 1454 3753 
Q 1025 3275 1025 2328 
Q 1025 1384 1454 906 
Q 1884 428 2741 428 
Q 3075 428 3337 486 
Q 3600 544 3809 666 
z
" transform="scale(0.015625)"/>
       <path id="DejaVuSans-74" d="M 1172 4494 
L 1172 3500 
L 2356 3500 
L 2356 3053 
L 1172 3053 
L 1172 1153 
Q 1172 725 1289 603 
Q 1406 481 1766 481 
L 2356 481 
L 2356 0 
L 1766 0 
Q 1100 0 847 248 
Q 594 497 594 1153 
L 594 3053 
L 172 3053 
L 172 3500 
L 594 3500 
L 594 4494 
L 1172 4494 
z
" transform="scale(0.015625)"/>
       <path id="DejaVuSans-5d" d="M 1947 4863 
L 1947 -844 
L 622 -844 
L 622 -397 
L 1369 -397 
L 1369 4416 
L 622 4416 
L 622 4863 
L 1947 4863 
z
" transform="scale(0.015625)"/>
      </defs>
      <use xlink:href="#DejaVuSans-4d"/>
      <use xlink:href="#DejaVuSans-61" x="86.279297"/>
      <use xlink:href="#DejaVuSans-73" x="147.558594"/>
      <use xlink:href="#DejaVuSans-73" x="199.658203"/>
      <use xlink:href="#DejaVuSans-20" x="251.757812"/>
      <use xlink:href="#DejaVuSans-63" x="283.544922"/>
      <use xlink:href="#DejaVuSans-68" x="338.525391"/>
      <use xlink:href="#DejaVuSans-61" x="401.904297"/>
      <use xlink:href="#DejaVuSans-6e" x="463.183594"/>
      <use xlink:href="#DejaVuSans-67" x="526.5625"/>
      <use xlink:href="#DejaVuSans-65" x="590.039062"/>
      <use xlink:href="#DejaVuSans-20" x="651.5625"/>
      <use xlink:href="#DejaVuSans-5b" x="683.349609"/>
      <use xlink:href="#DejaVuSans-47" x="722.363281"/>
      <use xlink:href="#DejaVuSans-74" x="799.853516"/>
      <use xlink:href="#DejaVuSans-5d" x="839.0625"/>
     </g>
    </g>
   </g>
   <g id="line2d_14">
    <path d="M 77.761484 21.002132 
L 80.537332 20.310379 
L 86.089027 18.80328 
L 88.864875 18.435897 
L 91.640723 18.336903 
L 96.267506 18.270855 
L 98.117331 18.164251 
L 101.819201 18.37008 
L 104.595049 18.688185 
L 116.623352 21.866703 
L 119.3992 22.718921 
L 123.09996 23.629163 
L 125.875808 24.182182 
L 129.577679 25.175455 
L 131.427504 25.686944 
L 133.278439 25.943193 
L 136.979199 26.414542 
L 139.755047 26.795513 
L 141.605982 27.111873 
L 145.306742 28.16602 
L 148.08259 29.218785 
L 150.858438 29.854885 
L 159.185981 31.396169 
L 164.737677 31.791769 
L 166.588612 32.153636 
L 171.215395 33.191592 
L 173.06522 33.351067 
L 174.916155 33.217998 
L 177.692003 32.703224 
L 180.467851 31.944949 
L 182.318786 31.496592 
L 186.944459 30.839968 
L 189.720307 30.267311 
L 194.34709 29.726186 
L 197.122937 29.476264 
L 201.74972 28.716486 
L 204.525568 28.055163 
L 205.450481 27.912273 
L 207.301416 27.95681 
L 210.077264 28.219648 
L 212.853111 28.436369 
L 214.702936 28.441516 
L 228.582175 25.96457 
L 231.358023 25.502594 
L 234.133871 25.207526 
L 236.909718 25.269114 
L 240.611589 25.404802 
L 243.387437 25.549638 
L 248.013109 26.086829 
L 251.71498 26.888178 
L 257.266676 27.620336 
L 260.967436 27.660802 
L 264.668196 27.913167 
L 269.294979 28.808015 
L 271.145914 28.843584 
L 275.771587 28.728254 
L 278.547435 28.658087 
L 280.39837 28.525257 
L 288.725913 28.612174 
L 290.576849 28.795166 
L 292.426674 29.096694 
L 297.053457 30.113774 
L 299.829304 30.201487 
L 302.605152 30.400159 
L 304.456087 30.681708 
L 312.783631 32.61607 
L 316.484391 33.843285 
L 322.960999 36.929402 
L 325.736847 38.223857 
L 327.587782 38.903936 
L 333.139477 40.486428 
L 336.840238 40.823484 
L 347.018716 40.505971 
L 349.794564 40.25424 
L 356.271172 39.497998 
L 361.822867 39.000101 
L 365.524738 38.929819 
L 368.300586 39.205314 
L 370.150411 39.362331 
L 377.553042 40.515603 
L 385.880585 40.183083 
L 389.581345 39.816888 
L 392.357193 39.395154 
L 394.208128 38.958597 
L 395.133041 38.590627 
L 398.834911 37.715776 
L 398.834911 37.715776 
" clip-path="url(#pa066514740)" style="fill: none; stroke: #b2df8a; stroke-width: 1.5; stroke-linecap: square"/>
   </g>
   <g id="line2d_15">
    <path d="M 77.761484 21.002132 
L 79.612419 21.186582 
L 81.462244 22.76954 
L 85.164115 24.74807 
L 89.789787 26.71152 
L 93.491658 28.031139 
L 96.267506 29.11003 
L 98.117331 29.874524 
L 103.669026 31.652037 
L 105.519961 32.00334 
L 108.295809 32.296653 
L 110.146744 32.571494 
L 114.772417 33.440808 
L 122.175048 33.642039 
L 126.801831 34.08083 
L 129.577679 33.767808 
L 131.427504 33.562299 
L 134.203351 33.429975 
L 136.979199 33.142605 
L 139.755047 32.854583 
L 141.605982 32.600188 
L 145.306742 31.714582 
L 148.08259 30.82168 
L 150.858438 30.345441 
L 158.261069 29.445671 
L 161.961829 29.525055 
L 164.737677 29.56318 
L 167.513525 29.270231 
L 171.215395 28.843695 
L 173.06522 28.882467 
L 174.916155 29.213787 
L 177.692003 30.055955 
L 180.467851 31.201669 
L 182.318786 31.908317 
L 186.944459 33.210667 
L 188.795394 33.871658 
L 193.422177 35.08382 
L 197.122937 35.995672 
L 199.898785 36.967033 
L 201.74972 37.879265 
L 204.525568 39.346121 
L 206.375393 40.048703 
L 214.702936 42.265571 
L 223.956502 46.498177 
L 227.657263 47.94922 
L 230.43311 49.228731 
L 235.059894 51.124303 
L 239.685566 52.567166 
L 248.013109 55.790614 
L 250.788957 56.570924 
L 254.490828 57.86131 
L 257.266676 58.960045 
L 260.967436 60.679535 
L 265.594219 62.536272 
L 268.370067 63.261228 
L 270.219892 63.971248 
L 274.846675 66.360991 
L 277.622522 67.899427 
L 281.323283 70.355091 
L 284.09913 72.052443 
L 292.426674 77.627421 
L 297.053457 80.07859 
L 303.530065 84.310212 
L 306.305912 85.815112 
L 309.08176 87.25543 
L 313.708543 89.97382 
L 316.484391 91.315624 
L 323.887022 94.107382 
L 326.662869 95.352398 
L 329.438717 97.002235 
L 332.214565 98.602004 
L 335.915325 100.353729 
L 339.616085 102.384256 
L 343.317956 104.560597 
L 354.421347 108.699921 
L 360.897955 111.531665 
L 365.524738 113.198759 
L 371.076434 116.302606 
L 372.001346 116.72982 
L 374.777194 118.768806 
L 381.253802 123.936055 
L 384.02965 126.040886 
L 388.656433 129.751291 
L 392.357193 131.712944 
L 394.208128 132.860573 
L 395.133041 133.584077 
L 398.834911 135.881072 
L 398.834911 135.881072 
" clip-path="url(#pa066514740)" style="fill: none; stroke: #a6cee3; stroke-width: 1.5; stroke-linecap: square"/>
   </g>
   <g id="line2d_16">
    <path d="M 77.761484 21.002132 
L 79.612419 20.753525 
L 81.462244 21.825536 
L 88.864875 23.747194 
L 101.819201 28.46432 
L 112.922592 32.963676 
L 115.69844 34.057727 
L 126.801831 37.482157 
L 132.353527 38.4001 
L 147.157678 38.985047 
L 157.336156 39.668107 
L 173.06522 41.231402 
L 179.542938 42.015338 
L 198.973873 44.772613 
L 206.375393 46.950682 
L 219.329719 51.051237 
L 224.881415 52.511849 
L 231.358023 54.116461 
L 233.208958 54.68082 
L 240.611589 57.335497 
L 244.312349 58.988393 
L 269.294979 71.399646 
L 274.846675 74.098403 
L 277.622522 75.620861 
L 285.950066 80.858527 
L 288.725913 82.853065 
L 293.352696 86.414461 
L 301.68024 92.456981 
L 303.530065 93.807664 
L 311.857608 100.349841 
L 325.736847 112.130693 
L 332.214565 117.911309 
L 335.915325 120.12115 
L 342.391933 123.722082 
L 343.317956 124.218377 
L 347.943629 125.697774 
L 356.271172 128.079185 
L 358.122107 128.813385 
L 361.822867 129.868761 
L 365.524738 131.126445 
L 369.225498 133.619414 
L 372.001346 135.419796 
L 376.628129 139.770125 
L 377.553042 140.67674 
L 380.328889 142.728147 
L 388.656433 148.683822 
L 398.834911 152.594716 
L 398.834911 152.594716 
" clip-path="url(#pa066514740)" style="fill: none; stroke: #1f78b4; stroke-width: 1.5; stroke-linecap: square"/>
   </g>
   <g id="patch_3">
    <path d="M 61.707813 186.84327 
L 61.707813 7.2 
" style="fill: none; stroke: #000000; stroke-width: 0.8; stroke-linejoin: miter; stroke-linecap: square"/>
   </g>
   <g id="patch_4">
    <path d="M 414.888583 186.84327 
L 414.888583 7.2 
" style="fill: none; stroke: #000000; stroke-width: 0.8; stroke-linejoin: miter; stroke-linecap: square"/>
   </g>
   <g id="patch_5">
    <path d="M 61.707813 186.84327 
L 414.888582 186.84327 
" style="fill: none; stroke: #000000; stroke-width: 0.8; stroke-linejoin: miter; stroke-linecap: square"/>
   </g>
   <g id="patch_6">
    <path d="M 61.707813 7.2 
L 414.888582 7.2 
" style="fill: none; stroke: #000000; stroke-width: 0.8; stroke-linejoin: miter; stroke-linecap: square"/>
   </g>
   <g id="legend_1">
    <g id="patch_7">
     <path d="M 421.888583 120.538823 
L 503.19952 120.538823 
Q 505.19952 120.538823 505.19952 118.538823 
L 505.19952 75.504448 
Q 505.19952 73.504448 503.19952 73.504448 
L 421.888583 73.504448 
Q 419.888583 73.504448 419.888583 75.504448 
L 419.888583 118.538823 
Q 419.888583 120.538823 421.888583 120.538823 
z
" style="fill: #ffffff; opacity: 0.8; stroke: #cccccc; stroke-linejoin: miter"/>
    </g>
    <g id="line2d_17">
     <path d="M 423.888583 81.602885 
L 433.888583 81.602885 
L 443.888583 81.602885 
" style="fill: none; stroke: #b2df8a; stroke-width: 1.5; stroke-linecap: square"/>
    </g>
    <g id="text_16">
     <!-- Surface -->
     <g transform="translate(451.888583 85.102885) scale(0.1 -0.1)">
      <defs>
       <path id="DejaVuSans-53" d="M 3425 4513 
L 3425 3897 
Q 3066 4069 2747 4153 
Q 2428 4238 2131 4238 
Q 1616 4238 1336 4038 
Q 1056 3838 1056 3469 
Q 1056 3159 1242 3001 
Q 1428 2844 1947 2747 
L 2328 2669 
Q 3034 2534 3370 2195 
Q 3706 1856 3706 1288 
Q 3706 609 3251 259 
Q 2797 -91 1919 -91 
Q 1588 -91 1214 -16 
Q 841 59 441 206 
L 441 856 
Q 825 641 1194 531 
Q 1563 422 1919 422 
Q 2459 422 2753 634 
Q 3047 847 3047 1241 
Q 3047 1584 2836 1778 
Q 2625 1972 2144 2069 
L 1759 2144 
Q 1053 2284 737 2584 
Q 422 2884 422 3419 
Q 422 4038 858 4394 
Q 1294 4750 2059 4750 
Q 2388 4750 2728 4690 
Q 3069 4631 3425 4513 
z
" transform="scale(0.015625)"/>
       <path id="DejaVuSans-75" d="M 544 1381 
L 544 3500 
L 1119 3500 
L 1119 1403 
Q 1119 906 1312 657 
Q 1506 409 1894 409 
Q 2359 409 2629 706 
Q 2900 1003 2900 1516 
L 2900 3500 
L 3475 3500 
L 3475 0 
L 2900 0 
L 2900 538 
Q 2691 219 2414 64 
Q 2138 -91 1772 -91 
Q 1169 -91 856 284 
Q 544 659 544 1381 
z
M 1991 3584 
L 1991 3584 
z
" transform="scale(0.015625)"/>
       <path id="DejaVuSans-66" d="M 2375 4863 
L 2375 4384 
L 1825 4384 
Q 1516 4384 1395 4259 
Q 1275 4134 1275 3809 
L 1275 3500 
L 2222 3500 
L 2222 3053 
L 1275 3053 
L 1275 0 
L 697 0 
L 697 3053 
L 147 3053 
L 147 3500 
L 697 3500 
L 697 3744 
Q 697 4328 969 4595 
Q 1241 4863 1831 4863 
L 2375 4863 
z
" transform="scale(0.015625)"/>
      </defs>
      <use xlink:href="#DejaVuSans-53"/>
      <use xlink:href="#DejaVuSans-75" x="63.476562"/>
      <use xlink:href="#DejaVuSans-72" x="126.855469"/>
      <use xlink:href="#DejaVuSans-66" x="167.96875"/>
      <use xlink:href="#DejaVuSans-61" x="203.173828"/>
      <use xlink:href="#DejaVuSans-63" x="264.453125"/>
      <use xlink:href="#DejaVuSans-65" x="319.433594"/>
     </g>
    </g>
    <g id="line2d_18">
     <path d="M 423.888583 96.28101 
L 433.888583 96.28101 
L 443.888583 96.28101 
" style="fill: none; stroke: #a6cee3; stroke-width: 1.5; stroke-linecap: square"/>
    </g>
    <g id="text_17">
     <!-- Dynamics -->
     <g transform="translate(451.888583 99.78101) scale(0.1 -0.1)">
      <defs>
       <path id="DejaVuSans-44" d="M 1259 4147 
L 1259 519 
L 2022 519 
Q 2988 519 3436 956 
Q 3884 1394 3884 2338 
Q 3884 3275 3436 3711 
Q 2988 4147 2022 4147 
L 1259 4147 
z
M 628 4666 
L 1925 4666 
Q 3281 4666 3915 4102 
Q 4550 3538 4550 2338 
Q 4550 1131 3912 565 
Q 3275 0 1925 0 
L 628 0 
L 628 4666 
z
" transform="scale(0.015625)"/>
       <path id="DejaVuSans-79" d="M 2059 -325 
Q 1816 -950 1584 -1140 
Q 1353 -1331 966 -1331 
L 506 -1331 
L 506 -850 
L 844 -850 
Q 1081 -850 1212 -737 
Q 1344 -625 1503 -206 
L 1606 56 
L 191 3500 
L 800 3500 
L 1894 763 
L 2988 3500 
L 3597 3500 
L 2059 -325 
z
" transform="scale(0.015625)"/>
       <path id="DejaVuSans-6d" d="M 3328 2828 
Q 3544 3216 3844 3400 
Q 4144 3584 4550 3584 
Q 5097 3584 5394 3201 
Q 5691 2819 5691 2113 
L 5691 0 
L 5113 0 
L 5113 2094 
Q 5113 2597 4934 2840 
Q 4756 3084 4391 3084 
Q 3944 3084 3684 2787 
Q 3425 2491 3425 1978 
L 3425 0 
L 2847 0 
L 2847 2094 
Q 2847 2600 2669 2842 
Q 2491 3084 2119 3084 
Q 1678 3084 1418 2786 
Q 1159 2488 1159 1978 
L 1159 0 
L 581 0 
L 581 3500 
L 1159 3500 
L 1159 2956 
Q 1356 3278 1631 3431 
Q 1906 3584 2284 3584 
Q 2666 3584 2933 3390 
Q 3200 3197 3328 2828 
z
" transform="scale(0.015625)"/>
       <path id="DejaVuSans-69" d="M 603 3500 
L 1178 3500 
L 1178 0 
L 603 0 
L 603 3500 
z
M 603 4863 
L 1178 4863 
L 1178 4134 
L 603 4134 
L 603 4863 
z
" transform="scale(0.015625)"/>
      </defs>
      <use xlink:href="#DejaVuSans-44"/>
      <use xlink:href="#DejaVuSans-79" x="77.001953"/>
      <use xlink:href="#DejaVuSans-6e" x="136.181641"/>
      <use xlink:href="#DejaVuSans-61" x="199.560547"/>
      <use xlink:href="#DejaVuSans-6d" x="260.839844"/>
      <use xlink:href="#DejaVuSans-69" x="358.251953"/>
      <use xlink:href="#DejaVuSans-63" x="386.035156"/>
      <use xlink:href="#DejaVuSans-73" x="441.015625"/>
     </g>
    </g>
    <g id="line2d_19">
     <path d="M 423.888583 110.959135 
L 433.888583 110.959135 
L 443.888583 110.959135 
" style="fill: none; stroke: #1f78b4; stroke-width: 1.5; stroke-linecap: square"/>
    </g>
    <g id="text_18">
     <!-- Total -->
     <g transform="translate(451.888583 114.459135) scale(0.1 -0.1)">
      <defs>
       <path id="DejaVuSans-54" d="M -19 4666 
L 3928 4666 
L 3928 4134 
L 2272 4134 
L 2272 0 
L 1638 0 
L 1638 4134 
L -19 4134 
L -19 4666 
z
" transform="scale(0.015625)"/>
       <path id="DejaVuSans-6f" d="M 1959 3097 
Q 1497 3097 1228 2736 
Q 959 2375 959 1747 
Q 959 1119 1226 758 
Q 1494 397 1959 397 
Q 2419 397 2687 759 
Q 2956 1122 2956 1747 
Q 2956 2369 2687 2733 
Q 2419 3097 1959 3097 
z
M 1959 3584 
Q 2709 3584 3137 3096 
Q 3566 2609 3566 1747 
Q 3566 888 3137 398 
Q 2709 -91 1959 -91 
Q 1206 -91 779 398 
Q 353 888 353 1747 
Q 353 2609 779 3096 
Q 1206 3584 1959 3584 
z
" transform="scale(0.015625)"/>
       <path id="DejaVuSans-6c" d="M 603 4863 
L 1178 4863 
L 1178 0 
L 603 0 
L 603 4863 
z
" transform="scale(0.015625)"/>
      </defs>
      <use xlink:href="#DejaVuSans-54"/>
      <use xlink:href="#DejaVuSans-6f" x="44.083984"/>
      <use xlink:href="#DejaVuSans-74" x="105.265625"/>
      <use xlink:href="#DejaVuSans-61" x="144.474609"/>
      <use xlink:href="#DejaVuSans-6c" x="205.753906"/>
     </g>
    </g>
   </g>
  </g>
 </g>
 <defs>
  <clipPath id="pa066514740">
   <rect x="61.707813" y="7.2" width="353.18077" height="179.64327"/>
  </clipPath>
 </defs>
</svg>
