<?xml version="1.0" encoding="utf-8" standalone="no"?>
<!DOCTYPE svg PUBLIC "-//W3C//DTD SVG 1.1//EN"
  "http://www.w3.org/Graphics/SVG/1.1/DTD/svg11.dtd">
<svg xmlns:xlink="http://www.w3.org/1999/xlink" width="512.39952pt" height="224.39952pt" viewBox="0 0 512.39952 224.39952" xmlns="http://www.w3.org/2000/svg" version="1.1">
 <metadata>
  <rdf:RDF xmlns:dc="http://purl.org/dc/elements/1.1/" xmlns:cc="http://creativecommons.org/ns#" xmlns:rdf="http://www.w3.org/1999/02/22-rdf-syntax-ns#">
   <cc:Work>
    <dc:type rdf:resource="http://purl.org/dc/dcmitype/StillImage"/>
    <dc:date>2023-01-30T12:47:10.224775</dc:date>
    <dc:format>image/svg+xml</dc:format>
    <dc:creator>
     <cc:Agent>
      <dc:title>Matplotlib v3.5.1, https://matplotlib.org/</dc:title>
     </cc:Agent>
    </dc:creator>
   </cc:Work>
  </rdf:RDF>
 </metadata>
 <defs>
  <style type="text/css">*{stroke-linejoin: round; stroke-linecap: butt}</style>
 </defs>
 <g id="figure_1">
  <g id="patch_1">
   <path d="M 0 224.39952 
L 512.39952 224.39952 
L 512.39952 0 
L 0 0 
z
" style="fill: #ffffff"/>
  </g>
  <g id="axes_1">
   <g id="patch_2">
    <path d="M 55.345313 186.84327 
L 505.19952 186.84327 
L 505.19952 22.318125 
L 55.345313 22.318125 
z
" style="fill: #ffffff"/>
   </g>
   <g id="PolyCollection_1">
    <path d="M 75.793231 49.594127 
L 75.793231 54.817952 
L 76.267111 71.086961 
L 76.740991 69.072498 
L 77.214871 71.744364 
L 77.688751 70.643117 
L 78.162631 108.979587 
L 78.636511 149.400522 
L 79.11039 103.593463 
L 79.58427 74.752 
L 80.05815 66.455417 
L 80.53203 56.605012 
L 81.00591 65.159713 
L 81.47979 72.181794 
L 81.95367 68.018801 
L 82.42755 71.858945 
L 82.90143 73.0686 
L 83.37531 67.295513 
L 83.84919 116.476189 
L 84.32307 129.870143 
L 84.796949 102.198062 
L 85.270829 75.305609 
L 85.744709 70.405881 
L 86.218589 69.421835 
L 86.692469 72.561076 
L 87.166349 67.498594 
L 87.640229 69.129613 
L 88.114109 72.85404 
L 88.587989 72.23056 
L 89.061869 70.830775 
L 89.535749 95.408631 
L 90.009629 112.633236 
L 90.483509 113.777821 
L 90.957388 61.246782 
L 91.431268 57.540004 
L 91.905148 64.522134 
L 92.379028 70.045848 
L 92.852908 62.19664 
L 93.326788 63.374123 
L 93.800668 66.818828 
L 94.274548 73.528405 
L 94.748428 70.905366 
L 95.222308 82.420806 
L 95.696188 128.899897 
L 96.170068 96.761177 
L 96.643947 67.207817 
L 97.117827 68.89281 
L 97.591707 60.548229 
L 98.065587 60.29422 
L 98.539467 63.914782 
L 99.013347 58.049764 
L 99.487227 69.472771 
L 99.961107 61.028757 
L 100.434987 72.377543 
L 100.908867 84.17898 
L 101.382747 105.589212 
L 101.856627 91.51553 
L 102.330507 76.044853 
L 102.804386 58.730374 
L 103.278266 57.442562 
L 103.752146 67.786914 
L 104.226026 70.281171 
L 104.699906 71.612848 
L 105.173786 59.561569 
L 105.647666 68.077735 
L 106.121546 70.668879 
L 106.595426 91.723072 
L 107.069306 86.51533 
L 107.543186 84.361692 
L 108.017066 63.752817 
L 108.490945 64.532962 
L 108.964825 64.023977 
L 109.438705 72.962195 
L 109.912585 67.353132 
L 110.386465 57.232219 
L 110.860345 59.975026 
L 111.334225 70.954294 
L 111.808105 72.118905 
L 112.281985 94.771319 
L 112.755865 128.152814 
L 113.229745 96.466257 
L 113.703625 67.101767 
L 114.177504 52.976048 
L 114.651384 54.809201 
L 115.125264 59.848095 
L 115.599144 64.155085 
L 116.073024 79.344181 
L 116.546904 76.768193 
L 117.020784 71.760613 
L 117.494664 69.589507 
L 117.968544 107.769868 
L 118.442424 151.960759 
L 118.916304 106.637652 
L 119.390184 71.287351 
L 119.864064 58.285124 
L 120.337943 63.865884 
L 120.811823 70.153055 
L 121.285703 69.478213 
L 121.759583 69.314225 
L 122.233463 62.208126 
L 122.707343 63.303256 
L 123.181223 74.903528 
L 123.655103 97.870513 
L 124.128983 137.545634 
L 124.602863 91.500544 
L 125.076743 56.315531 
L 125.550623 60.190113 
L 126.024502 61.106175 
L 126.498382 63.849819 
L 126.972262 70.141321 
L 127.446142 62.390119 
L 127.920022 64.006107 
L 128.393902 74.358975 
L 128.867782 76.017525 
L 129.341662 102.839912 
L 129.815542 128.095421 
L 130.289422 82.583856 
L 130.763302 53.682611 
L 131.237182 50.340288 
L 131.711062 68.679303 
L 132.184941 63.108963 
L 132.658821 60.220912 
L 133.132701 65.660205 
L 133.606581 57.68138 
L 134.080461 71.276381 
L 134.554341 70.368988 
L 135.028221 102.24251 
L 135.502101 145.685201 
L 135.975981 113.581866 
L 136.449861 62.549258 
L 136.923741 59.054797 
L 137.397621 63.053553 
L 137.8715 65.590811 
L 138.34538 61.216083 
L 138.81926 68.572452 
L 139.29314 70.824591 
L 139.76702 71.609705 
L 140.2409 64.740689 
L 140.71478 90.616123 
L 141.18866 109.428756 
L 141.66254 85.628958 
L 142.13642 63.892385 
L 142.6103 58.041959 
L 143.08418 64.85204 
L 143.558059 70.25507 
L 144.031939 66.974596 
L 144.505819 64.837327 
L 144.979699 73.108247 
L 145.453579 67.072502 
L 145.927459 74.074085 
L 146.401339 94.440726 
L 146.875219 124.168751 
L 147.349099 84.610001 
L 147.822979 66.564394 
L 148.296859 64.554899 
L 148.770739 60.122628 
L 149.244619 62.424304 
L 149.718498 61.050069 
L 150.192378 66.029958 
L 150.666258 64.345749 
L 151.140138 69.548213 
L 151.614018 70.066137 
L 152.087898 83.460186 
L 152.561778 110.544589 
L 153.035658 92.290211 
L 153.509538 63.016497 
L 153.983418 64.611913 
L 154.457298 67.08513 
L 154.931178 63.719165 
L 155.405057 56.512298 
L 155.878937 54.855487 
L 156.352817 51.436034 
L 156.826697 70.965956 
L 157.300577 72.084441 
L 157.774457 79.465545 
L 158.248337 76.910259 
L 158.722217 84.89199 
L 159.196097 69.011016 
L 159.669977 56.110548 
L 160.143857 67.489235 
L 160.617737 67.800299 
L 161.091617 57.802021 
L 161.565496 55.518559 
L 162.039376 71.716091 
L 162.513256 69.696554 
L 162.987136 78.408872 
L 163.461016 85.820317 
L 163.934896 114.63246 
L 164.408776 97.052957 
L 164.882656 66.26385 
L 165.356536 62.158735 
L 165.830416 67.015893 
L 166.304296 74.134167 
L 166.778176 74.459601 
L 167.252055 76.345229 
L 167.725935 72.478416 
L 168.199815 73.784309 
L 168.673695 82.108844 
L 169.147575 99.565306 
L 169.621455 125.083554 
L 170.095335 102.161116 
L 170.569215 60.557664 
L 171.043095 58.943042 
L 171.516975 65.072974 
L 171.990855 67.485568 
L 172.464735 58.78181 
L 172.938615 66.227685 
L 173.412494 75.241093 
L 173.886374 66.34499 
L 174.360254 74.932007 
L 174.834134 86.81862 
L 175.308014 116.614905 
L 175.781894 79.618894 
L 176.255774 45.64722 
L 176.729654 69.558704 
L 177.203534 64.255045 
L 177.677414 71.071476 
L 178.151294 72.475429 
L 178.625174 66.994573 
L 179.099053 65.321799 
L 179.572933 64.00252 
L 180.046813 78.712039 
L 180.520693 104.165784 
L 180.994573 126.71758 
L 181.468453 87.327269 
L 181.942333 61.690265 
L 182.416213 66.874208 
L 182.890093 65.844228 
L 183.363973 68.917261 
L 183.837853 71.027593 
L 184.311733 65.287675 
L 184.785612 68.977832 
L 185.259492 70.502148 
L 185.733372 68.075298 
L 186.207252 87.66572 
L 186.681132 105.929701 
L 187.155012 91.915222 
L 187.628892 66.482629 
L 188.102772 67.271329 
L 188.576652 51.195578 
L 189.050532 58.973272 
L 189.524412 64.906748 
L 189.998292 69.78747 
L 190.472172 70.834226 
L 190.946051 70.419314 
L 191.419931 70.304433 
L 191.893811 82.075888 
L 192.367691 107.860675 
L 192.841571 76.730268 
L 193.315451 60.939201 
L 193.789331 57.943592 
L 194.263211 64.982297 
L 194.737091 59.080748 
L 195.210971 72.423361 
L 195.684851 70.934131 
L 196.158731 75.594281 
L 196.63261 72.578302 
L 197.10649 73.293393 
L 197.58037 101.800845 
L 198.05425 126.301906 
L 198.52813 80.733972 
L 199.00201 64.68677 
L 199.47589 68.693727 
L 199.94977 62.093224 
L 200.42365 62.095793 
L 200.89753 42.379422 
L 201.37141 64.054771 
L 201.84529 61.364659 
L 202.31917 66.807873 
L 202.793049 63.909029 
L 203.266929 73.270845 
L 203.740809 80.119308 
L 204.214689 69.721643 
L 204.688569 59.421188 
L 205.162449 58.837671 
L 205.636329 68.02409 
L 206.110209 66.152051 
L 206.584089 63.954479 
L 207.057969 73.25665 
L 207.531849 69.067726 
L 208.005729 64.904707 
L 208.479608 72.094108 
L 208.953488 83.272411 
L 209.427368 98.536454 
L 209.901248 79.56544 
L 210.375128 57.623358 
L 210.849008 69.073916 
L 211.322888 72.016607 
L 211.796768 68.200035 
L 212.270648 67.51413 
L 212.744528 68.259883 
L 213.218408 61.854256 
L 213.692288 67.325881 
L 214.166167 75.34045 
L 214.640047 82.181577 
L 215.113927 114.235937 
L 215.587807 94.410546 
L 216.061687 65.75578 
L 216.535567 53.579492 
L 217.009447 63.802746 
L 217.483327 76.498579 
L 217.957207 73.171786 
L 218.431087 59.989591 
L 218.904967 62.213443 
L 219.378847 64.656938 
L 219.852727 71.103536 
L 220.326606 85.479581 
L 220.800486 98.49013 
L 221.274366 83.358897 
L 221.748246 66.981416 
L 222.222126 64.411314 
L 222.696006 62.478893 
L 223.169886 64.507116 
L 223.643766 67.370278 
L 224.117646 60.382928 
L 224.591526 58.839787 
L 225.065406 68.578728 
L 225.539286 75.041483 
L 226.013165 86.158732 
L 226.487045 97.955015 
L 226.960925 64.830121 
L 227.434805 54.586724 
L 227.908685 55.416483 
L 228.382565 64.142921 
L 228.856445 64.270292 
L 229.330325 70.704174 
L 229.804205 70.220466 
L 230.278085 70.47108 
L 230.751965 69.121685 
L 231.225845 67.428438 
L 231.699725 83.79735 
L 232.173604 120.691933 
L 232.647484 89.523355 
L 233.121364 61.15341 
L 233.595244 66.900816 
L 234.069124 58.357058 
L 234.543004 57.130389 
L 235.016884 68.31527 
L 235.490764 74.643241 
L 235.964644 70.437551 
L 236.438524 64.684389 
L 236.912404 68.445261 
L 237.386284 77.260683 
L 237.860163 119.162609 
L 238.334043 88.467905 
L 238.807923 66.107801 
L 239.281803 57.877283 
L 239.755683 67.160989 
L 240.229563 61.117076 
L 240.703443 66.594376 
L 241.177323 67.932774 
L 241.651203 63.6349 
L 242.125083 72.163853 
L 242.598963 72.793858 
L 243.072843 79.512842 
L 243.546722 109.527986 
L 244.020602 87.626167 
L 244.494482 69.20104 
L 244.968362 62.08437 
L 245.442242 67.105147 
L 245.916122 60.93786 
L 246.390002 58.128808 
L 246.863882 63.473768 
L 247.337762 62.1754 
L 247.811642 65.811268 
L 248.285522 72.867503 
L 248.759402 95.603968 
L 249.233282 109.439726 
L 249.707161 84.906697 
L 250.181041 68.554599 
L 250.654921 66.5707 
L 251.128801 60.671464 
L 251.602681 68.901244 
L 252.076561 69.732785 
L 252.550441 71.679066 
L 253.024321 69.569417 
L 253.498201 61.17338 
L 253.972081 76.337965 
L 254.445961 102.842462 
L 254.919841 111.098368 
L 255.39372 79.864433 
L 255.8676 65.905215 
L 256.34148 62.85842 
L 256.81536 66.262939 
L 257.28924 69.266157 
L 257.76312 66.518807 
L 258.237 61.601716 
L 258.71088 64.501013 
L 259.18476 69.599989 
L 259.65864 82.689253 
L 260.13252 100.83008 
L 260.6064 103.513058 
L 261.08028 79.291937 
L 261.554159 66.667569 
L 262.028039 65.842136 
L 262.501919 66.451238 
L 262.975799 63.927902 
L 263.449679 63.154999 
L 263.923559 61.274674 
L 264.397439 65.842721 
L 264.871319 65.063257 
L 265.345199 73.538822 
L 265.819079 82.647791 
L 266.292959 84.610784 
L 266.766839 66.852504 
L 267.240718 65.171647 
L 267.714598 60.60326 
L 268.188478 59.587204 
L 268.662358 69.371328 
L 269.136238 66.451595 
L 269.610118 63.79653 
L 270.083998 63.665076 
L 270.557878 62.87553 
L 271.031758 66.876345 
L 271.505638 94.876803 
L 271.979518 111.383109 
L 272.453398 65.695665 
L 272.927277 60.537961 
L 273.401157 64.712639 
L 273.875037 61.115678 
L 274.348917 55.922648 
L 274.822797 59.881608 
L 275.296677 65.56241 
L 275.770557 66.930157 
L 276.244437 68.316577 
L 276.718317 74.57043 
L 277.192197 100.054779 
L 277.666077 110.423511 
L 278.139957 87.404972 
L 278.613837 71.806619 
L 279.087716 58.597697 
L 279.561596 62.118969 
L 280.035476 67.527022 
L 280.509356 59.299452 
L 280.983236 61.739169 
L 281.457116 62.379899 
L 281.930996 62.849061 
L 282.404876 74.499249 
L 282.878756 88.042673 
L 283.352636 94.361645 
L 283.826516 72.261962 
L 284.300396 60.951067 
L 284.774275 67.495183 
L 285.248155 67.113 
L 285.722035 52.033556 
L 286.195915 51.803768 
L 286.669795 64.723801 
L 287.143675 61.400483 
L 287.617555 60.135543 
L 288.091435 70.23635 
L 288.565315 102.785159 
L 289.039195 116.908564 
L 289.513075 97.242019 
L 289.986955 64.981192 
L 290.460835 61.867214 
L 290.934714 58.558884 
L 291.408594 66.186324 
L 291.882474 66.737094 
L 292.356354 64.908709 
L 292.830234 69.796317 
L 293.304114 68.683268 
L 293.777994 66.337386 
L 294.251874 88.103626 
L 294.725754 117.905638 
L 295.199634 88.189814 
L 295.673514 66.367869 
L 296.147394 62.079513 
L 296.621273 60.59472 
L 297.095153 68.433601 
L 297.569033 72.490286 
L 298.042913 73.769889 
L 298.516793 72.220719 
L 298.990673 73.384049 
L 299.464553 76.075681 
L 299.938433 97.809103 
L 300.412313 112.180035 
L 300.886193 82.09174 
L 301.360073 61.19713 
L 301.833953 61.907868 
L 302.307833 58.383859 
L 302.781712 62.07058 
L 303.255592 70.449941 
L 303.729472 73.11131 
L 304.203352 71.085318 
L 304.677232 66.574195 
L 305.151112 72.956996 
L 305.624992 106.685288 
L 306.098872 114.60828 
L 306.572752 82.215837 
L 307.046632 58.764969 
L 307.520512 57.641487 
L 307.994392 55.212172 
L 308.468271 54.830641 
L 308.942151 58.281324 
L 309.416031 63.903117 
L 309.889911 70.630385 
L 310.363791 69.314103 
L 310.837671 71.013183 
L 311.311551 107.946682 
L 311.785431 115.778637 
L 312.259311 78.693625 
L 312.733191 62.147857 
L 313.207071 58.491239 
L 313.680951 63.528137 
L 314.15483 56.444302 
L 314.62871 60.015431 
L 315.10259 66.031528 
L 315.57647 68.653696 
L 316.05035 68.724456 
L 316.52423 67.536197 
L 316.99811 78.802429 
L 317.47199 93.893417 
L 317.94587 75.976379 
L 318.41975 58.777183 
L 318.89363 57.275001 
L 319.36751 65.696487 
L 319.84139 68.2906 
L 320.315269 65.897978 
L 320.789149 60.492603 
L 321.263029 64.916916 
L 321.736909 68.651432 
L 322.210789 78.806835 
L 322.684669 106.083423 
L 323.158549 119.954202 
L 323.632429 78.507774 
L 324.106309 61.460771 
L 324.580189 53.094432 
L 325.054069 57.476071 
L 325.527949 68.162106 
L 326.001828 66.220677 
L 326.475708 64.441119 
L 326.949588 69.902654 
L 327.423468 65.706985 
L 327.897348 72.901762 
L 328.371228 92.618064 
L 328.845108 111.089267 
L 329.318988 78.553021 
L 329.792868 64.651104 
L 330.266748 68.8205 
L 330.740628 66.867489 
L 331.214508 69.893028 
L 331.688388 74.676243 
L 332.162267 73.681778 
L 332.636147 72.030319 
L 333.110027 73.330391 
L 333.583907 79.395626 
L 334.057787 103.6155 
L 334.531667 116.318049 
L 335.005547 81.796697 
L 335.479427 62.819232 
L 335.953307 62.939481 
L 336.427187 54.417797 
L 336.901067 56.104087 
L 337.374947 54.446545 
L 337.848826 53.379993 
L 338.322706 57.142867 
L 338.796586 68.894553 
L 339.270466 76.286638 
L 339.744346 92.695112 
L 340.218226 95.571317 
L 340.692106 69.643139 
L 341.165986 59.604474 
L 341.639866 63.085765 
L 342.113746 57.940669 
L 342.587626 55.13863 
L 343.061506 60.025782 
L 343.535385 70.851958 
L 344.009265 68.166173 
L 344.483145 63.605192 
L 344.957025 80.532731 
L 345.430905 99.377125 
L 345.904785 96.228799 
L 346.378665 71.457693 
L 346.852545 56.835531 
L 347.326425 58.500954 
L 347.800305 61.012015 
L 348.274185 59.508994 
L 348.748065 66.488489 
L 349.221945 67.127932 
L 349.695824 64.393376 
L 350.169704 63.843062 
L 350.643584 75.645605 
L 351.117464 119.558101 
L 351.591344 118.761061 
L 352.065224 87.1062 
L 352.539104 75.166791 
L 353.012984 65.287909 
L 353.486864 61.408473 
L 353.960744 66.7269 
L 354.434624 64.91035 
L 354.908504 64.531478 
L 355.382383 70.296538 
L 355.856263 64.097867 
L 356.330143 64.447781 
L 356.804023 92.495461 
L 357.277903 116.020473 
L 357.751783 80.636884 
L 358.225663 61.531135 
L 358.699543 58.556582 
L 359.173423 60.150763 
L 359.647303 63.631129 
L 360.121183 61.974661 
L 360.595063 69.565935 
L 361.068943 64.964506 
L 361.542822 62.847656 
L 362.016702 75.792895 
L 362.490582 101.085826 
L 362.964462 100.566062 
L 363.438342 80.234375 
L 363.912222 60.196808 
L 364.386102 65.333555 
L 364.859982 64.959553 
L 365.333862 67.410833 
L 365.807742 59.970036 
L 366.281622 67.403149 
L 366.755502 71.27098 
L 367.229381 67.53786 
L 367.703261 70.158209 
L 368.177141 94.418057 
L 368.651021 113.147617 
L 369.124901 92.291152 
L 369.598781 61.58532 
L 370.072661 58.674149 
L 370.546541 49.606911 
L 371.020421 54.082337 
L 371.494301 65.486153 
L 371.968181 73.35087 
L 372.442061 71.338276 
L 372.91594 71.769928 
L 373.38982 81.449291 
L 373.8637 109.255607 
L 374.33758 116.910094 
L 374.81146 76.750765 
L 375.28534 58.474408 
L 375.75922 55.638953 
L 376.2331 55.839233 
L 376.70698 53.865247 
L 377.18086 59.06996 
L 377.65474 63.076901 
L 378.12862 58.96397 
L 378.6025 59.328526 
L 379.076379 84.419287 
L 379.550259 123.12491 
L 380.024139 123.073122 
L 380.498019 86.347617 
L 380.971899 57.517091 
L 381.445779 59.353032 
L 381.919659 63.518427 
L 382.393539 68.195327 
L 382.867419 68.205691 
L 383.341299 58.457084 
L 383.815179 56.841282 
L 384.289059 67.850988 
L 384.762938 80.573665 
L 385.236818 103.689307 
L 385.710698 110.923702 
L 386.184578 87.1982 
L 386.658458 63.432053 
L 387.132338 59.695391 
L 387.606218 66.672152 
L 388.080098 64.897628 
L 388.553978 56.584533 
L 389.027858 54.854965 
L 389.501738 58.605938 
L 389.975618 66.26776 
L 390.449498 80.468792 
L 390.923377 113.203627 
L 391.397257 130.284169 
L 391.871137 94.468505 
L 392.345017 70.461922 
L 392.818897 63.57174 
L 393.292777 55.601847 
L 393.766657 59.47465 
L 394.240537 62.694715 
L 394.714417 70.674824 
L 395.188297 71.804117 
L 395.662177 65.804105 
L 396.136057 73.575659 
L 396.609936 92.622329 
L 397.083816 117.314385 
L 397.557696 94.952026 
L 398.031576 71.239999 
L 398.505456 71.38383 
L 398.979336 67.283634 
L 399.453216 60.061219 
L 399.927096 62.4472 
L 400.400976 67.577974 
L 400.874856 64.772445 
L 401.348736 66.831627 
L 401.822616 80.99155 
L 402.296495 118.379789 
L 402.770375 149.43926 
L 403.244255 95.810844 
L 403.718135 62.795893 
L 404.192015 61.128323 
L 404.665895 59.155212 
L 405.139775 63.347091 
L 405.613655 65.019274 
L 406.087535 64.433401 
L 406.561415 68.400096 
L 407.035295 68.940242 
L 407.509175 81.647486 
L 407.983055 120.511068 
L 408.456934 129.817627 
L 408.930814 86.080128 
L 409.404694 55.173719 
L 409.878574 55.027605 
L 410.352454 55.273777 
L 410.826334 61.078394 
L 411.300214 67.4201 
L 411.774094 70.955887 
L 412.247974 68.437379 
L 412.721854 65.208679 
L 413.195734 74.245119 
L 413.669614 104.354514 
L 414.143493 136.615341 
L 414.617373 95.258413 
L 415.091253 61.048564 
L 415.565133 66.776144 
L 416.039013 65.063213 
L 416.512893 56.112982 
L 416.986773 58.712753 
L 417.460653 68.546685 
L 417.934533 72.560395 
L 418.408413 73.901748 
L 418.882293 87.754957 
L 419.356173 130.897051 
L 419.830053 152.431454 
L 420.303932 101.16138 
L 420.777812 64.176062 
L 421.251692 66.456484 
L 421.725572 63.365752 
L 422.199452 59.493108 
L 422.673332 62.545117 
L 423.147212 62.168309 
L 423.621092 66.935534 
L 424.094972 64.8281 
L 424.568852 84.597724 
L 425.042732 126.338476 
L 425.516612 149.389056 
L 425.990491 97.922182 
L 426.464371 65.849707 
L 426.938251 63.660415 
L 427.412131 62.636562 
L 427.886011 68.088415 
L 428.359891 61.685253 
L 428.833771 61.894786 
L 429.307651 58.15717 
L 429.781531 66.090716 
L 430.255411 90.528902 
L 430.729291 148.910798 
L 431.203171 176.957653 
L 431.677051 108.947682 
L 432.15093 60.252188 
L 432.62481 54.154769 
L 433.09869 63.192814 
L 433.57257 61.340765 
L 434.04645 56.684249 
L 434.52033 64.77836 
L 434.99421 70.705931 
L 435.46809 68.406783 
L 435.94197 74.924996 
L 436.41585 105.618403 
L 436.88973 114.15864 
L 437.36361 74.176052 
L 437.837489 55.930006 
L 438.311369 61.596991 
L 438.785249 62.193903 
L 439.259129 65.657699 
L 439.733009 63.11084 
L 440.206889 67.394385 
L 440.680769 64.277442 
L 441.154649 64.008384 
L 441.628529 78.893585 
L 442.102409 113.837431 
L 442.576289 131.311617 
L 443.050169 88.126042 
L 443.524048 60.199426 
L 443.997928 62.737404 
L 444.471808 55.568244 
L 444.945688 61.458724 
L 445.419568 64.388778 
L 445.893448 67.47805 
L 446.367328 67.418474 
L 446.841208 66.12796 
L 447.315088 75.79574 
L 447.788968 122.097818 
L 448.262848 139.879498 
L 448.736728 80.364137 
L 449.210608 53.704145 
L 449.684487 56.410041 
L 450.158367 63.681627 
L 450.632247 63.937588 
L 451.106127 65.923077 
L 451.580007 67.739642 
L 452.053887 62.518478 
L 452.527767 63.235246 
L 453.001647 81.329842 
L 453.475527 129.307785 
L 453.949407 149.901719 
L 454.423287 97.916957 
L 454.897167 59.525465 
L 455.371046 43.313574 
L 455.844926 56.278727 
L 456.318806 61.86532 
L 456.792686 58.3952 
L 457.266566 62.407278 
L 457.740446 68.941964 
L 458.214326 65.57743 
L 458.688206 75.234472 
L 459.162086 105.459829 
L 459.635966 114.050035 
L 460.109846 75.55527 
L 460.583726 52.040011 
L 461.057606 56.926788 
L 461.531485 65.619163 
L 462.005365 67.950648 
L 462.479245 60.223803 
L 462.953125 58.37521 
L 463.427005 69.001508 
L 463.900885 66.487122 
L 464.374765 69.730678 
L 464.848645 91.613874 
L 465.322525 107.085794 
L 465.796405 88.878983 
L 466.270285 63.774097 
L 466.744165 64.049684 
L 467.218044 64.944079 
L 467.691924 64.352685 
L 468.165804 63.698061 
L 468.639684 69.603828 
L 469.113564 62.170739 
L 469.587444 59.847184 
L 470.061324 90.137233 
L 470.535204 131.017725 
L 471.009084 159.062389 
L 471.482964 108.202808 
L 471.956844 65.101669 
L 472.430724 61.084852 
L 472.904603 59.693929 
L 473.378483 68.632108 
L 473.852363 66.666632 
L 474.326243 69.802406 
L 474.800123 64.822331 
L 475.274003 64.63854 
L 475.747883 77.223334 
L 476.221763 102.552822 
L 476.695643 125.590292 
L 477.169523 84.437158 
L 477.643403 63.168039 
L 478.117283 56.182992 
L 478.591163 62.4318 
L 479.065042 64.318799 
L 479.538922 66.195553 
L 480.012802 63.676285 
L 480.486682 63.181739 
L 480.960562 64.088727 
L 481.434442 78.17041 
L 481.908322 104.288183 
L 482.382202 118.412394 
L 482.856082 99.222963 
L 483.329962 66.786036 
L 483.803842 64.21198 
L 484.277722 59.801591 
L 484.751601 63.208034 
L 484.751601 59.580141 
L 484.751601 59.580141 
L 484.277722 54.21795 
L 483.803842 57.765133 
L 483.329962 60.287849 
L 482.856082 95.007546 
L 482.382202 112.800311 
L 481.908322 98.843791 
L 481.434442 73.98017 
L 480.960562 60.606848 
L 480.486682 59.893725 
L 480.012802 55.746963 
L 479.538922 60.37367 
L 479.065042 59.850373 
L 478.591163 55.534662 
L 478.117283 51.891883 
L 477.643403 59.782134 
L 477.169523 79.96775 
L 476.695643 118.579674 
L 476.221763 97.541805 
L 475.747883 74.08987 
L 475.274003 61.031805 
L 474.800123 60.978745 
L 474.326243 65.860151 
L 473.852363 63.246168 
L 473.378483 64.635203 
L 472.904603 56.069761 
L 472.430724 56.371924 
L 471.956844 60.360948 
L 471.482964 101.525856 
L 471.009084 142.647917 
L 470.535204 124.233223 
L 470.061324 87.061294 
L 469.587444 52.961971 
L 469.113564 56.959799 
L 468.639684 66.588151 
L 468.165804 60.724909 
L 467.691924 61.409592 
L 467.218044 59.92753 
L 466.744165 59.749677 
L 466.270285 59.688208 
L 465.796405 84.985509 
L 465.322525 100.476893 
L 464.848645 87.448984 
L 464.374765 65.208651 
L 463.900885 61.422491 
L 463.427005 65.273447 
L 462.953125 52.557613 
L 462.479245 57.061011 
L 462.005365 64.537909 
L 461.531485 61.001492 
L 461.057606 50.002896 
L 460.583726 47.72096 
L 460.109846 70.540172 
L 459.635966 100.469091 
L 459.162086 101.159509 
L 458.688206 72.167806 
L 458.214326 59.52407 
L 457.740446 65.406223 
L 457.266566 57.307245 
L 456.792686 55.175869 
L 456.318806 56.343188 
L 455.844926 47.957149 
L 455.371046 37.573957 
L 454.897167 54.873117 
L 454.423287 91.174352 
L 453.949407 144.070748 
L 453.475527 123.679317 
L 453.001647 75.910472 
L 452.527767 57.832173 
L 452.053887 57.565883 
L 451.580007 63.977395 
L 451.106127 59.919331 
L 450.632247 60.241309 
L 450.158367 59.727028 
L 449.684487 47.532044 
L 449.210608 43.334096 
L 448.736728 76.026994 
L 448.262848 134.364785 
L 447.788968 115.992483 
L 447.315088 72.36263 
L 446.841208 61.40842 
L 446.367328 60.732353 
L 445.893448 61.715954 
L 445.419568 60.191696 
L 444.945688 54.796808 
L 444.471808 48.378159 
L 443.997928 56.853567 
L 443.524048 51.991539 
L 443.050169 82.789982 
L 442.576289 122.917917 
L 442.102409 108.617371 
L 441.628529 75.510126 
L 441.154649 59.648821 
L 440.680769 61.033522 
L 440.206889 64.010604 
L 439.733009 58.726684 
L 439.259129 61.815644 
L 438.785249 59.504668 
L 438.311369 57.218138 
L 437.837489 44.891808 
L 437.36361 69.223563 
L 436.88973 108.159207 
L 436.41585 101.493441 
L 435.94197 66.74276 
L 435.46809 63.986122 
L 434.99421 67.405655 
L 434.52033 62.162589 
L 434.04645 52.069136 
L 433.57257 57.438089 
L 433.09869 59.166377 
L 432.62481 50.421186 
L 432.15093 55.538535 
L 431.677051 100.484535 
L 431.203171 148.906841 
L 430.729291 141.291052 
L 430.255411 87.213473 
L 429.781531 61.399886 
L 429.307651 54.619734 
L 428.833771 53.331406 
L 428.359891 57.833537 
L 427.886011 63.258934 
L 427.412131 57.686839 
L 426.938251 59.328992 
L 426.464371 60.061947 
L 425.990491 91.50584 
L 425.516612 128.844433 
L 425.042732 121.250761 
L 424.568852 82.348314 
L 424.094972 61.309248 
L 423.621092 63.635673 
L 423.147212 59.34695 
L 422.673332 58.448202 
L 422.199452 53.474598 
L 421.725572 58.571741 
L 421.251692 61.148879 
L 420.777812 60.527412 
L 420.303932 91.259086 
L 419.830053 127.839589 
L 419.356173 121.607428 
L 418.882293 84.330466 
L 418.408413 70.648321 
L 417.934533 69.981964 
L 417.460653 65.865114 
L 416.986773 50.6711 
L 416.512893 49.253577 
L 416.039013 62.008562 
L 415.565133 61.393877 
L 415.091253 56.609351 
L 414.617373 87.900394 
L 414.143493 121.491063 
L 413.669614 100.22675 
L 413.195734 71.061547 
L 412.721854 61.97907 
L 412.247974 65.993327 
L 411.774094 68.330033 
L 411.300214 64.098489 
L 410.826334 52.444574 
L 410.352454 47.399319 
L 409.878574 47.466261 
L 409.404694 48.449419 
L 408.930814 80.895589 
L 408.456934 123.852399 
L 407.983055 115.710551 
L 407.509175 78.823304 
L 407.035295 65.374276 
L 406.561415 64.591177 
L 406.087535 61.340453 
L 405.613655 62.290588 
L 405.139775 59.17845 
L 404.665895 49.718518 
L 404.192015 56.210276 
L 403.718135 53.636488 
L 403.244255 91.146054 
L 402.770375 124.896279 
L 402.296495 112.130882 
L 401.822616 77.347922 
L 401.348736 62.92688 
L 400.874856 60.651429 
L 400.400976 63.363632 
L 399.927096 58.125999 
L 399.453216 52.858134 
L 398.979336 63.042143 
L 398.505456 69.046902 
L 398.031576 68.317944 
L 397.557696 90.752128 
L 397.083816 112.178261 
L 396.609936 88.812351 
L 396.136057 69.58798 
L 395.662177 61.582925 
L 395.188297 68.523916 
L 394.714417 67.870798 
L 394.240537 59.235789 
L 393.766657 54.782047 
L 393.292777 51.237011 
L 392.818897 59.220551 
L 392.345017 67.806976 
L 391.871137 90.115578 
L 391.397257 117.382876 
L 390.923377 106.440871 
L 390.449498 75.509893 
L 389.975618 59.28738 
L 389.501738 52.004022 
L 389.027858 49.186186 
L 388.553978 48.336209 
L 388.080098 61.53571 
L 387.606218 60.956225 
L 387.132338 56.351345 
L 386.658458 57.88051 
L 386.184578 83.143513 
L 385.710698 101.147513 
L 385.236818 98.665698 
L 384.762938 77.489727 
L 384.289059 63.513644 
L 383.815179 50.689817 
L 383.341299 51.207457 
L 382.867419 65.107972 
L 382.393539 63.062682 
L 381.919659 59.403663 
L 381.445779 48.793912 
L 380.971899 53.586769 
L 380.498019 81.028848 
L 380.024139 117.667172 
L 379.550259 117.761177 
L 379.076379 78.341643 
L 378.6025 52.19727 
L 378.12862 51.113208 
L 377.65474 55.111801 
L 377.18086 55.931956 
L 376.70698 49.221515 
L 376.2331 48.19896 
L 375.75922 50.986319 
L 375.28534 54.46338 
L 374.81146 72.550962 
L 374.33758 104.579883 
L 373.8637 103.458922 
L 373.38982 79.082645 
L 372.91594 69.082133 
L 372.442061 68.02575 
L 371.968181 70.385499 
L 371.494301 62.350037 
L 371.020421 45.619434 
L 370.546541 40.472209 
L 370.072661 52.537147 
L 369.598781 55.298829 
L 369.124901 85.884761 
L 368.651021 104.116472 
L 368.177141 90.531963 
L 367.703261 64.914604 
L 367.229381 63.474122 
L 366.755502 69.034553 
L 366.281622 63.494007 
L 365.807742 56.225302 
L 365.333862 64.033692 
L 364.859982 59.230756 
L 364.386102 60.764996 
L 363.912222 54.335051 
L 363.438342 75.34135 
L 362.964462 93.97196 
L 362.490582 95.767463 
L 362.016702 73.626399 
L 361.542822 56.971913 
L 361.068943 61.595452 
L 360.595063 65.568332 
L 360.121183 55.009402 
L 359.647303 59.020239 
L 359.173423 51.405076 
L 358.699543 52.772213 
L 358.225663 56.142475 
L 357.751783 76.367354 
L 357.277903 111.604331 
L 356.804023 88.251776 
L 356.330143 60.078605 
L 355.856263 60.756394 
L 355.382383 65.71734 
L 354.908504 60.238126 
L 354.434624 59.320812 
L 353.960744 62.94568 
L 353.486864 57.610866 
L 353.012984 58.921832 
L 352.539104 72.5085 
L 352.065224 83.505271 
L 351.591344 114.227205 
L 351.117464 109.887076 
L 350.643584 72.030236 
L 350.169704 60.368144 
L 349.695824 57.876016 
L 349.221945 62.623398 
L 348.748065 61.768258 
L 348.274185 50.224245 
L 347.800305 54.99186 
L 347.326425 53.17669 
L 346.852545 48.22288 
L 346.378665 67.10902 
L 345.904785 91.911808 
L 345.430905 94.43722 
L 344.957025 78.151417 
L 344.483145 60.777333 
L 344.009265 65.429828 
L 343.535385 67.887482 
L 343.061506 57.006511 
L 342.587626 50.556201 
L 342.113746 53.610999 
L 341.639866 59.33962 
L 341.165986 51.817429 
L 340.692106 65.571266 
L 340.218226 91.513009 
L 339.744346 88.93162 
L 339.270466 73.370362 
L 338.796586 63.198063 
L 338.322706 47.853634 
L 337.848826 47.372554 
L 337.374947 47.641229 
L 336.901067 51.199945 
L 336.427187 43.965881 
L 335.953307 58.795379 
L 335.479427 59.241437 
L 335.005547 77.737515 
L 334.531667 111.988788 
L 334.057787 99.041111 
L 333.583907 76.421162 
L 333.110027 71.255803 
L 332.636147 67.708976 
L 332.162267 71.221414 
L 331.688388 72.57816 
L 331.214508 66.420903 
L 330.740628 61.915131 
L 330.266748 65.219454 
L 329.792868 61.71702 
L 329.318988 74.282247 
L 328.845108 101.165935 
L 328.371228 88.927244 
L 327.897348 68.835139 
L 327.423468 62.975606 
L 326.949588 66.382414 
L 326.475708 58.621117 
L 326.001828 62.652146 
L 325.527949 65.544622 
L 325.054069 48.607153 
L 324.580189 47.040036 
L 324.106309 56.701177 
L 323.632429 74.196065 
L 323.158549 105.396799 
L 322.684669 102.115681 
L 322.210789 76.309017 
L 321.736909 63.830422 
L 321.263029 60.156651 
L 320.789149 52.774832 
L 320.315269 62.843547 
L 319.84139 63.49928 
L 319.36751 60.348421 
L 318.89363 47.573977 
L 318.41975 54.442275 
L 317.94587 72.711585 
L 317.47199 89.785901 
L 316.99811 72.821857 
L 316.52423 61.700297 
L 316.05035 66.102678 
L 315.57647 66.361842 
L 315.10259 62.396065 
L 314.62871 50.472096 
L 314.15483 48.823166 
L 313.680951 58.424544 
L 313.207071 50.945466 
L 312.733191 56.76035 
L 312.259311 74.536748 
L 311.785431 108.328626 
L 311.311551 102.922185 
L 310.837671 68.062837 
L 310.363791 65.80248 
L 309.889911 65.345264 
L 309.416031 55.351141 
L 308.942151 55.132346 
L 308.468271 50.720045 
L 307.994392 48.200325 
L 307.520512 52.699922 
L 307.046632 55.25928 
L 306.572752 77.825819 
L 306.098872 105.520632 
L 305.624992 101.194191 
L 305.151112 70.317689 
L 304.677232 62.521712 
L 304.203352 68.702121 
L 303.729472 71.179458 
L 303.255592 67.684154 
L 302.781712 58.692504 
L 302.307833 51.563276 
L 301.833953 55.941777 
L 301.360073 57.910422 
L 300.886193 78.34306 
L 300.412313 104.290966 
L 299.938433 93.359672 
L 299.464553 71.693065 
L 298.990673 69.89952 
L 298.516793 69.829606 
L 298.042913 71.585676 
L 297.569033 70.082468 
L 297.095153 61.476244 
L 296.621273 57.415454 
L 296.147394 53.654069 
L 295.673514 60.803291 
L 295.199634 83.673307 
L 294.725754 112.894844 
L 294.251874 84.141074 
L 293.777994 60.88398 
L 293.304114 65.490786 
L 292.830234 65.368352 
L 292.356354 60.269729 
L 291.882474 63.650448 
L 291.408594 61.451219 
L 290.934714 55.019762 
L 290.460835 56.598989 
L 289.986955 60.303855 
L 289.513075 91.17162 
L 289.039195 104.921078 
L 288.565315 97.792655 
L 288.091435 65.785652 
L 287.617555 51.586998 
L 287.143675 55.612263 
L 286.669795 60.790216 
L 286.195915 42.607728 
L 285.722035 45.605762 
L 285.248155 64.188145 
L 284.774275 63.919493 
L 284.300396 55.514331 
L 283.826516 67.858836 
L 283.352636 89.824184 
L 282.878756 84.604225 
L 282.404876 71.296109 
L 281.930996 58.174908 
L 281.457116 58.526802 
L 280.983236 56.502185 
L 280.509356 53.131504 
L 280.035476 64.133805 
L 279.561596 53.380211 
L 279.087716 54.040485 
L 278.613837 68.993057 
L 278.139957 83.380047 
L 277.666077 104.029814 
L 277.192197 95.878488 
L 276.718317 71.33295 
L 276.244437 65.424474 
L 275.770557 63.296236 
L 275.296677 61.165887 
L 274.822797 56.190184 
L 274.348917 47.077054 
L 273.875037 56.579954 
L 273.401157 60.858029 
L 272.927277 56.84028 
L 272.453398 60.013878 
L 271.979518 100.719439 
L 271.505638 90.929282 
L 271.031758 63.475816 
L 270.557878 58.266751 
L 270.083998 57.529893 
L 269.610118 60.666788 
L 269.136238 62.396101 
L 268.662358 66.631017 
L 268.188478 55.632096 
L 267.714598 57.198279 
L 267.240718 59.090751 
L 266.766839 62.572193 
L 266.292959 80.32376 
L 265.819079 78.516075 
L 265.345199 69.166828 
L 264.871319 58.534053 
L 264.397439 61.78663 
L 263.923559 51.266103 
L 263.449679 58.618163 
L 262.975799 60.615328 
L 262.501919 62.437994 
L 262.028039 60.193655 
L 261.554159 62.085851 
L 261.08028 75.919637 
L 260.6064 97.258599 
L 260.13252 97.240169 
L 259.65864 80.566111 
L 259.18476 64.314813 
L 258.71088 59.688655 
L 258.237 58.361334 
L 257.76312 63.041151 
L 257.28924 64.847088 
L 256.81536 62.57229 
L 256.34148 59.599625 
L 255.8676 61.763867 
L 255.39372 75.768638 
L 254.919841 103.100705 
L 254.445961 98.314586 
L 253.972081 70.562018 
L 253.498201 57.575586 
L 253.024321 66.025336 
L 252.550441 68.721107 
L 252.076561 65.488044 
L 251.602681 66.33585 
L 251.128801 57.275298 
L 250.654921 62.688573 
L 250.181041 65.119456 
L 249.707161 81.093233 
L 249.233282 102.941546 
L 248.759402 91.458815 
L 248.285522 69.768339 
L 247.811642 62.088713 
L 247.337762 58.4969 
L 246.863882 55.940895 
L 246.390002 53.7369 
L 245.916122 54.36137 
L 245.442242 61.608127 
L 244.968362 58.713451 
L 244.494482 64.593563 
L 244.020602 83.693117 
L 243.546722 103.757616 
L 243.072843 75.452827 
L 242.598963 70.366853 
L 242.125083 67.011072 
L 241.651203 57.418371 
L 241.177323 57.825664 
L 240.703443 52.556256 
L 240.229563 57.350751 
L 239.755683 62.376169 
L 239.281803 44.686505 
L 238.807923 57.283488 
L 238.334043 84.392016 
L 237.860163 110.806025 
L 237.386284 73.57457 
L 236.912404 58.472689 
L 236.438524 56.593953 
L 235.964644 65.016327 
L 235.490764 71.063749 
L 235.016884 56.599864 
L 234.543004 50.576502 
L 234.069124 49.830849 
L 233.595244 63.225802 
L 233.121364 53.507915 
L 232.647484 85.917098 
L 232.173604 104.614839 
L 231.699725 80.251911 
L 231.225845 58.912983 
L 230.751965 63.161753 
L 230.278085 67.8485 
L 229.804205 65.202632 
L 229.330325 68.119141 
L 228.856445 55.740567 
L 228.382565 56.882757 
L 227.908685 42.395321 
L 227.434805 48.704325 
L 226.960925 59.351263 
L 226.487045 94.778633 
L 226.013165 83.301746 
L 225.539286 69.177311 
L 225.065406 60.803033 
L 224.591526 41.155784 
L 224.117646 54.002186 
L 223.643766 62.484519 
L 223.169886 57.794764 
L 222.696006 53.766863 
L 222.222126 58.233723 
L 221.748246 58.259776 
L 221.274366 78.826851 
L 220.800486 94.692996 
L 220.326606 82.492352 
L 219.852727 68.167556 
L 219.378847 58.896983 
L 218.904967 53.412493 
L 218.431087 53.119033 
L 217.957207 70.173434 
L 217.483327 71.948894 
L 217.009447 51.984841 
L 216.535567 42.432916 
L 216.061687 57.626453 
L 215.587807 89.163935 
L 215.113927 110.241193 
L 214.640047 79.130876 
L 214.166167 71.122156 
L 213.692288 59.083212 
L 213.218408 51.957885 
L 212.744528 64.379796 
L 212.270648 61.814829 
L 211.796768 61.339857 
L 211.322888 68.472978 
L 210.849008 61.822351 
L 210.375128 53.69108 
L 209.901248 75.181436 
L 209.427368 91.302324 
L 208.953488 80.37369 
L 208.479608 65.195158 
L 208.005729 54.068811 
L 207.531849 62.776203 
L 207.057969 70.170258 
L 206.584089 46.470618 
L 206.110209 58.113683 
L 205.636329 64.661652 
L 205.162449 49.676756 
L 204.688569 49.575588 
L 204.214689 65.118824 
L 203.740809 76.138281 
L 203.266929 69.937617 
L 202.793049 57.421054 
L 202.31917 63.639168 
L 201.84529 58.353161 
L 201.37141 57.899861 
L 200.89753 36.873956 
L 200.42365 51.903832 
L 199.94977 52.289121 
L 199.47589 65.309987 
L 199.00201 55.891527 
L 198.52813 76.208662 
L 198.05425 113.618448 
L 197.58037 96.67491 
L 197.10649 64.885937 
L 196.63261 68.160543 
L 196.158731 72.687142 
L 195.684851 68.217649 
L 195.210971 67.087609 
L 194.737091 53.453323 
L 194.263211 59.208067 
L 193.789331 52.93276 
L 193.315451 51.361119 
L 192.841571 72.763401 
L 192.367691 102.247963 
L 191.893811 78.445759 
L 191.419931 65.593928 
L 190.946051 64.401821 
L 190.472172 64.499065 
L 189.998292 61.965509 
L 189.524412 57.568972 
L 189.050532 52.404189 
L 188.576652 46.999949 
L 188.102772 61.699917 
L 187.628892 61.74523 
L 187.155012 87.526893 
L 186.681132 102.039838 
L 186.207252 83.890109 
L 185.733372 66.485908 
L 185.259492 65.309089 
L 184.785612 66.062659 
L 184.311733 59.265713 
L 183.837853 67.542763 
L 183.363973 61.162036 
L 182.890093 50.954464 
L 182.416213 60.517947 
L 181.942333 58.219003 
L 181.468453 82.032413 
L 180.994573 114.159892 
L 180.520693 96.812166 
L 180.046813 74.31252 
L 179.572933 61.359801 
L 179.099053 58.264889 
L 178.625174 59.267861 
L 178.151294 69.012418 
L 177.677414 66.051129 
L 177.203534 54.504266 
L 176.729654 61.302478 
L 176.255774 41.104112 
L 175.781894 75.314035 
L 175.308014 102.535363 
L 174.834134 83.340359 
L 174.360254 73.302343 
L 173.886374 63.05774 
L 173.412494 71.128321 
L 172.938615 53.117387 
L 172.464735 52.87185 
L 171.990855 63.41497 
L 171.516975 50.854625 
L 171.043095 54.327705 
L 170.569215 55.504431 
L 170.095335 98.787533 
L 169.621455 106.454234 
L 169.147575 95.368188 
L 168.673695 80.426817 
L 168.199815 69.063142 
L 167.725935 70.486633 
L 167.252055 74.03633 
L 166.778176 68.958627 
L 166.304296 70.708317 
L 165.830416 62.503185 
L 165.356536 53.498475 
L 164.882656 62.586024 
L 164.408776 89.269554 
L 163.934896 100.125408 
L 163.461016 82.684896 
L 162.987136 76.446031 
L 162.513256 65.084804 
L 162.039376 66.99529 
L 161.565496 37.479998 
L 161.091617 52.564324 
L 160.617737 57.961427 
L 160.143857 62.00465 
L 159.669977 52.058215 
L 159.196097 64.33888 
L 158.722217 81.491806 
L 158.248337 73.772252 
L 157.774457 76.536451 
L 157.300577 67.130028 
L 156.826697 64.055677 
L 156.352817 45.335349 
L 155.878937 48.622213 
L 155.405057 46.218724 
L 154.931178 49.767167 
L 154.457298 59.156791 
L 153.983418 59.475173 
L 153.509538 51.642475 
L 153.035658 87.667689 
L 152.561778 101.854929 
L 152.087898 80.415791 
L 151.614018 67.343468 
L 151.140138 65.412053 
L 150.666258 61.370389 
L 150.192378 61.978796 
L 149.718498 53.322423 
L 149.244619 57.328134 
L 148.770739 53.586539 
L 148.296859 57.794239 
L 147.822979 58.898738 
L 147.349099 80.899569 
L 146.875219 118.608716 
L 146.401339 89.794604 
L 145.927459 71.310824 
L 145.453579 58.379 
L 144.979699 70.04848 
L 144.505819 62.340711 
L 144.031939 60.781919 
L 143.558059 62.451266 
L 143.08418 59.195169 
L 142.6103 52.306895 
L 142.13642 58.325801 
L 141.66254 82.459206 
L 141.18866 98.925721 
L 140.71478 86.83112 
L 140.2409 61.310471 
L 139.76702 68.08625 
L 139.29314 62.960129 
L 138.81926 63.491388 
L 138.34538 53.002757 
L 137.8715 61.63024 
L 137.397621 56.907758 
L 136.923741 50.744927 
L 136.449861 56.591789 
L 135.975981 95.886829 
L 135.502101 120.589527 
L 135.028221 97.066226 
L 134.554341 64.758195 
L 134.080461 64.175305 
L 133.606581 45.434144 
L 133.132701 59.528455 
L 132.658821 56.837797 
L 132.184941 56.305651 
L 131.711062 56.722654 
L 131.237182 37.00786 
L 130.763302 43.237708 
L 130.289422 78.307616 
L 129.815542 110.57845 
L 129.341662 97.947175 
L 128.867782 71.097488 
L 128.393902 71.637465 
L 127.920022 58.593331 
L 127.446142 56.387527 
L 126.972262 67.034432 
L 126.498382 57.532035 
L 126.024502 53.30685 
L 125.550623 47.785684 
L 125.076743 36.950729 
L 124.602863 87.943507 
L 124.128983 119.266802 
L 123.655103 93.739389 
L 123.181223 71.103113 
L 122.707343 59.590979 
L 122.233463 58.808929 
L 121.759583 60.138574 
L 121.285703 63.524218 
L 120.811823 58.109928 
L 120.337943 38.365301 
L 119.864064 48.684081 
L 119.390184 62.031119 
L 118.916304 100.415868 
L 118.442424 133.103921 
L 117.968544 104.808837 
L 117.494664 62.80108 
L 117.020784 54.752236 
L 116.546904 72.604723 
L 116.073024 76.658889 
L 115.599144 45.4148 
L 115.125264 39.948747 
L 114.651384 38.066477 
L 114.177504 46.543284 
L 113.703625 54.367561 
L 113.229745 91.129169 
L 112.755865 110.535552 
L 112.281985 89.062417 
L 111.808105 62.931517 
L 111.334225 66.843584 
L 110.860345 54.190373 
L 110.386465 49.771618 
L 109.912585 56.20738 
L 109.438705 71.131973 
L 108.964825 53.710531 
L 108.490945 44.493634 
L 108.017066 43.406031 
L 107.543186 78.676984 
L 107.069306 80.777693 
L 106.595426 87.49306 
L 106.121546 54.28647 
L 105.647666 56.799998 
L 105.173786 56.996231 
L 104.699906 65.09353 
L 104.226026 68.210457 
L 103.752146 60.400263 
L 103.278266 43.148422 
L 102.804386 53.806658 
L 102.330507 69.559985 
L 101.856627 85.598741 
L 101.382747 101.853976 
L 100.908867 79.017544 
L 100.434987 65.94662 
L 99.961107 58.126551 
L 99.487227 64.624562 
L 99.013347 50.990635 
L 98.539467 34.808863 
L 98.065587 56.586461 
L 97.591707 58.975357 
L 97.117827 59.337623 
L 96.643947 46.146103 
L 96.170068 88.777058 
L 95.696188 105.164458 
L 95.222308 76.943927 
L 94.748428 65.565772 
L 94.274548 67.701509 
L 93.800668 59.728157 
L 93.326788 60.234355 
L 92.852908 58.539693 
L 92.379028 57.348277 
L 91.905148 51.135109 
L 91.431268 34.420781 
L 90.957388 50.042881 
L 90.483509 102.756469 
L 90.009629 105.808252 
L 89.535749 91.223472 
L 89.061869 64.049661 
L 88.587989 67.539471 
L 88.114109 58.048214 
L 87.640229 56.385051 
L 87.166349 60.728449 
L 86.692469 69.963728 
L 86.218589 54.146148 
L 85.744709 55.179935 
L 85.270829 69.460315 
L 84.796949 92.62033 
L 84.32307 118.309161 
L 83.84919 99.407868 
L 83.37531 52.706221 
L 82.90143 62.267144 
L 82.42755 65.048847 
L 81.95367 60.602632 
L 81.47979 65.914003 
L 81.00591 57.439985 
L 80.53203 55.293895 
L 80.05815 59.579437 
L 79.58427 66.722352 
L 79.11039 95.078825 
L 78.636511 130.673361 
L 78.162631 104.634558 
L 77.688751 59.030201 
L 77.214871 70.346109 
L 76.740991 65.148558 
L 76.267111 66.030089 
L 75.793231 49.594127 
z
" clip-path="url(#p1138ef95a8)" style="fill-opacity: 0.25"/>
   </g>
   <g id="matplotlib.axis_1">
    <g id="xtick_1">
     <g id="line2d_1">
      <defs>
       <path id="mdeb7daf437" d="M 0 0 
L 0 3.5 
" style="stroke: #000000; stroke-width: 0.8"/>
      </defs>
      <g>
       <use xlink:href="#mdeb7daf437" x="75.319351" y="186.84327" style="stroke: #000000; stroke-width: 0.8"/>
      </g>
     </g>
     <g id="text_1">
      <!-- 1950 -->
      <g transform="translate(62.594351 201.441708)scale(0.1 -0.1)">
       <defs>
        <path id="DejaVuSans-31" d="M 794 531 
L 1825 531 
L 1825 4091 
L 703 3866 
L 703 4441 
L 1819 4666 
L 2450 4666 
L 2450 531 
L 3481 531 
L 3481 0 
L 794 0 
L 794 531 
z
" transform="scale(0.015625)"/>
        <path id="DejaVuSans-39" d="M 703 97 
L 703 672 
Q 941 559 1184 500 
Q 1428 441 1663 441 
Q 2288 441 2617 861 
Q 2947 1281 2994 2138 
Q 2813 1869 2534 1725 
Q 2256 1581 1919 1581 
Q 1219 1581 811 2004 
Q 403 2428 403 3163 
Q 403 3881 828 4315 
Q 1253 4750 1959 4750 
Q 2769 4750 3195 4129 
Q 3622 3509 3622 2328 
Q 3622 1225 3098 567 
Q 2575 -91 1691 -91 
Q 1453 -91 1209 -44 
Q 966 3 703 97 
z
M 1959 2075 
Q 2384 2075 2632 2365 
Q 2881 2656 2881 3163 
Q 2881 3666 2632 3958 
Q 2384 4250 1959 4250 
Q 1534 4250 1286 3958 
Q 1038 3666 1038 3163 
Q 1038 2656 1286 2365 
Q 1534 2075 1959 2075 
z
" transform="scale(0.015625)"/>
        <path id="DejaVuSans-35" d="M 691 4666 
L 3169 4666 
L 3169 4134 
L 1269 4134 
L 1269 2991 
Q 1406 3038 1543 3061 
Q 1681 3084 1819 3084 
Q 2600 3084 3056 2656 
Q 3513 2228 3513 1497 
Q 3513 744 3044 326 
Q 2575 -91 1722 -91 
Q 1428 -91 1123 -41 
Q 819 9 494 109 
L 494 744 
Q 775 591 1075 516 
Q 1375 441 1709 441 
Q 2250 441 2565 725 
Q 2881 1009 2881 1497 
Q 2881 1984 2565 2268 
Q 2250 2553 1709 2553 
Q 1456 2553 1204 2497 
Q 953 2441 691 2322 
L 691 4666 
z
" transform="scale(0.015625)"/>
        <path id="DejaVuSans-30" d="M 2034 4250 
Q 1547 4250 1301 3770 
Q 1056 3291 1056 2328 
Q 1056 1369 1301 889 
Q 1547 409 2034 409 
Q 2525 409 2770 889 
Q 3016 1369 3016 2328 
Q 3016 3291 2770 3770 
Q 2525 4250 2034 4250 
z
M 2034 4750 
Q 2819 4750 3233 4129 
Q 3647 3509 3647 2328 
Q 3647 1150 3233 529 
Q 2819 -91 2034 -91 
Q 1250 -91 836 529 
Q 422 1150 422 2328 
Q 422 3509 836 4129 
Q 1250 4750 2034 4750 
z
" transform="scale(0.015625)"/>
       </defs>
       <use xlink:href="#DejaVuSans-31"/>
       <use xlink:href="#DejaVuSans-39" x="63.623047"/>
       <use xlink:href="#DejaVuSans-35" x="127.246094"/>
       <use xlink:href="#DejaVuSans-30" x="190.869141"/>
      </g>
     </g>
    </g>
    <g id="xtick_2">
     <g id="line2d_2">
      <g>
       <use xlink:href="#mdeb7daf437" x="132.184941" y="186.84327" style="stroke: #000000; stroke-width: 0.8"/>
      </g>
     </g>
     <g id="text_2">
      <!-- 1960 -->
      <g transform="translate(119.459941 201.441708)scale(0.1 -0.1)">
       <defs>
        <path id="DejaVuSans-36" d="M 2113 2584 
Q 1688 2584 1439 2293 
Q 1191 2003 1191 1497 
Q 1191 994 1439 701 
Q 1688 409 2113 409 
Q 2538 409 2786 701 
Q 3034 994 3034 1497 
Q 3034 2003 2786 2293 
Q 2538 2584 2113 2584 
z
M 3366 4563 
L 3366 3988 
Q 3128 4100 2886 4159 
Q 2644 4219 2406 4219 
Q 1781 4219 1451 3797 
Q 1122 3375 1075 2522 
Q 1259 2794 1537 2939 
Q 1816 3084 2150 3084 
Q 2853 3084 3261 2657 
Q 3669 2231 3669 1497 
Q 3669 778 3244 343 
Q 2819 -91 2113 -91 
Q 1303 -91 875 529 
Q 447 1150 447 2328 
Q 447 3434 972 4092 
Q 1497 4750 2381 4750 
Q 2619 4750 2861 4703 
Q 3103 4656 3366 4563 
z
" transform="scale(0.015625)"/>
       </defs>
       <use xlink:href="#DejaVuSans-31"/>
       <use xlink:href="#DejaVuSans-39" x="63.623047"/>
       <use xlink:href="#DejaVuSans-36" x="127.246094"/>
       <use xlink:href="#DejaVuSans-30" x="190.869141"/>
      </g>
     </g>
    </g>
    <g id="xtick_3">
     <g id="line2d_3">
      <g>
       <use xlink:href="#mdeb7daf437" x="189.050532" y="186.84327" style="stroke: #000000; stroke-width: 0.8"/>
      </g>
     </g>
     <g id="text_3">
      <!-- 1970 -->
      <g transform="translate(176.325532 201.441708)scale(0.1 -0.1)">
       <defs>
        <path id="DejaVuSans-37" d="M 525 4666 
L 3525 4666 
L 3525 4397 
L 1831 0 
L 1172 0 
L 2766 4134 
L 525 4134 
L 525 4666 
z
" transform="scale(0.015625)"/>
       </defs>
       <use xlink:href="#DejaVuSans-31"/>
       <use xlink:href="#DejaVuSans-39" x="63.623047"/>
       <use xlink:href="#DejaVuSans-37" x="127.246094"/>
       <use xlink:href="#DejaVuSans-30" x="190.869141"/>
      </g>
     </g>
    </g>
    <g id="xtick_4">
     <g id="line2d_4">
      <g>
       <use xlink:href="#mdeb7daf437" x="245.916122" y="186.84327" style="stroke: #000000; stroke-width: 0.8"/>
      </g>
     </g>
     <g id="text_4">
      <!-- 1980 -->
      <g transform="translate(233.191122 201.441708)scale(0.1 -0.1)">
       <defs>
        <path id="DejaVuSans-38" d="M 2034 2216 
Q 1584 2216 1326 1975 
Q 1069 1734 1069 1313 
Q 1069 891 1326 650 
Q 1584 409 2034 409 
Q 2484 409 2743 651 
Q 3003 894 3003 1313 
Q 3003 1734 2745 1975 
Q 2488 2216 2034 2216 
z
M 1403 2484 
Q 997 2584 770 2862 
Q 544 3141 544 3541 
Q 544 4100 942 4425 
Q 1341 4750 2034 4750 
Q 2731 4750 3128 4425 
Q 3525 4100 3525 3541 
Q 3525 3141 3298 2862 
Q 3072 2584 2669 2484 
Q 3125 2378 3379 2068 
Q 3634 1759 3634 1313 
Q 3634 634 3220 271 
Q 2806 -91 2034 -91 
Q 1263 -91 848 271 
Q 434 634 434 1313 
Q 434 1759 690 2068 
Q 947 2378 1403 2484 
z
M 1172 3481 
Q 1172 3119 1398 2916 
Q 1625 2713 2034 2713 
Q 2441 2713 2670 2916 
Q 2900 3119 2900 3481 
Q 2900 3844 2670 4047 
Q 2441 4250 2034 4250 
Q 1625 4250 1398 4047 
Q 1172 3844 1172 3481 
z
" transform="scale(0.015625)"/>
       </defs>
       <use xlink:href="#DejaVuSans-31"/>
       <use xlink:href="#DejaVuSans-39" x="63.623047"/>
       <use xlink:href="#DejaVuSans-38" x="127.246094"/>
       <use xlink:href="#DejaVuSans-30" x="190.869141"/>
      </g>
     </g>
    </g>
    <g id="xtick_5">
     <g id="line2d_5">
      <g>
       <use xlink:href="#mdeb7daf437" x="302.781712" y="186.84327" style="stroke: #000000; stroke-width: 0.8"/>
      </g>
     </g>
     <g id="text_5">
      <!-- 1990 -->
      <g transform="translate(290.056712 201.441708)scale(0.1 -0.1)">
       <use xlink:href="#DejaVuSans-31"/>
       <use xlink:href="#DejaVuSans-39" x="63.623047"/>
       <use xlink:href="#DejaVuSans-39" x="127.246094"/>
       <use xlink:href="#DejaVuSans-30" x="190.869141"/>
      </g>
     </g>
    </g>
    <g id="xtick_6">
     <g id="line2d_6">
      <g>
       <use xlink:href="#mdeb7daf437" x="359.647303" y="186.84327" style="stroke: #000000; stroke-width: 0.8"/>
      </g>
     </g>
     <g id="text_6">
      <!-- 2000 -->
      <g transform="translate(346.922303 201.441708)scale(0.1 -0.1)">
       <defs>
        <path id="DejaVuSans-32" d="M 1228 531 
L 3431 531 
L 3431 0 
L 469 0 
L 469 531 
Q 828 903 1448 1529 
Q 2069 2156 2228 2338 
Q 2531 2678 2651 2914 
Q 2772 3150 2772 3378 
Q 2772 3750 2511 3984 
Q 2250 4219 1831 4219 
Q 1534 4219 1204 4116 
Q 875 4013 500 3803 
L 500 4441 
Q 881 4594 1212 4672 
Q 1544 4750 1819 4750 
Q 2544 4750 2975 4387 
Q 3406 4025 3406 3419 
Q 3406 3131 3298 2873 
Q 3191 2616 2906 2266 
Q 2828 2175 2409 1742 
Q 1991 1309 1228 531 
z
" transform="scale(0.015625)"/>
       </defs>
       <use xlink:href="#DejaVuSans-32"/>
       <use xlink:href="#DejaVuSans-30" x="63.623047"/>
       <use xlink:href="#DejaVuSans-30" x="127.246094"/>
       <use xlink:href="#DejaVuSans-30" x="190.869141"/>
      </g>
     </g>
    </g>
    <g id="xtick_7">
     <g id="line2d_7">
      <g>
       <use xlink:href="#mdeb7daf437" x="416.512893" y="186.84327" style="stroke: #000000; stroke-width: 0.8"/>
      </g>
     </g>
     <g id="text_7">
      <!-- 2010 -->
      <g transform="translate(403.787893 201.441708)scale(0.1 -0.1)">
       <use xlink:href="#DejaVuSans-32"/>
       <use xlink:href="#DejaVuSans-30" x="63.623047"/>
       <use xlink:href="#DejaVuSans-31" x="127.246094"/>
       <use xlink:href="#DejaVuSans-30" x="190.869141"/>
      </g>
     </g>
    </g>
    <g id="xtick_8">
     <g id="line2d_8">
      <g>
       <use xlink:href="#mdeb7daf437" x="473.378483" y="186.84327" style="stroke: #000000; stroke-width: 0.8"/>
      </g>
     </g>
     <g id="text_8">
      <!-- 2020 -->
      <g transform="translate(460.653483 201.441708)scale(0.1 -0.1)">
       <use xlink:href="#DejaVuSans-32"/>
       <use xlink:href="#DejaVuSans-30" x="63.623047"/>
       <use xlink:href="#DejaVuSans-32" x="127.246094"/>
       <use xlink:href="#DejaVuSans-30" x="190.869141"/>
      </g>
     </g>
    </g>
    <g id="text_9">
     <!-- Year -->
     <g transform="translate(269.684916 215.119833)scale(0.1 -0.1)">
      <defs>
       <path id="DejaVuSans-59" d="M -13 4666 
L 666 4666 
L 1959 2747 
L 3244 4666 
L 3922 4666 
L 2272 2222 
L 2272 0 
L 1638 0 
L 1638 2222 
L -13 4666 
z
" transform="scale(0.015625)"/>
       <path id="DejaVuSans-65" d="M 3597 1894 
L 3597 1613 
L 953 1613 
Q 991 1019 1311 708 
Q 1631 397 2203 397 
Q 2534 397 2845 478 
Q 3156 559 3463 722 
L 3463 178 
Q 3153 47 2828 -22 
Q 2503 -91 2169 -91 
Q 1331 -91 842 396 
Q 353 884 353 1716 
Q 353 2575 817 3079 
Q 1281 3584 2069 3584 
Q 2775 3584 3186 3129 
Q 3597 2675 3597 1894 
z
M 3022 2063 
Q 3016 2534 2758 2815 
Q 2500 3097 2075 3097 
Q 1594 3097 1305 2825 
Q 1016 2553 972 2059 
L 3022 2063 
z
" transform="scale(0.015625)"/>
       <path id="DejaVuSans-61" d="M 2194 1759 
Q 1497 1759 1228 1600 
Q 959 1441 959 1056 
Q 959 750 1161 570 
Q 1363 391 1709 391 
Q 2188 391 2477 730 
Q 2766 1069 2766 1631 
L 2766 1759 
L 2194 1759 
z
M 3341 1997 
L 3341 0 
L 2766 0 
L 2766 531 
Q 2569 213 2275 61 
Q 1981 -91 1556 -91 
Q 1019 -91 701 211 
Q 384 513 384 1019 
Q 384 1609 779 1909 
Q 1175 2209 1959 2209 
L 2766 2209 
L 2766 2266 
Q 2766 2663 2505 2880 
Q 2244 3097 1772 3097 
Q 1472 3097 1187 3025 
Q 903 2953 641 2809 
L 641 3341 
Q 956 3463 1253 3523 
Q 1550 3584 1831 3584 
Q 2591 3584 2966 3190 
Q 3341 2797 3341 1997 
z
" transform="scale(0.015625)"/>
       <path id="DejaVuSans-72" d="M 2631 2963 
Q 2534 3019 2420 3045 
Q 2306 3072 2169 3072 
Q 1681 3072 1420 2755 
Q 1159 2438 1159 1844 
L 1159 0 
L 581 0 
L 581 3500 
L 1159 3500 
L 1159 2956 
Q 1341 3275 1631 3429 
Q 1922 3584 2338 3584 
Q 2397 3584 2469 3576 
Q 2541 3569 2628 3553 
L 2631 2963 
z
" transform="scale(0.015625)"/>
      </defs>
      <use xlink:href="#DejaVuSans-59"/>
      <use xlink:href="#DejaVuSans-65" x="47.833984"/>
      <use xlink:href="#DejaVuSans-61" x="109.357422"/>
      <use xlink:href="#DejaVuSans-72" x="170.636719"/>
     </g>
    </g>
   </g>
   <g id="matplotlib.axis_2">
    <g id="ytick_1">
     <g id="line2d_9">
      <defs>
       <path id="m9a39774c68" d="M 0 0 
L -3.5 0 
" style="stroke: #000000; stroke-width: 0.8"/>
      </defs>
      <g>
       <use xlink:href="#m9a39774c68" x="55.345313" y="186.84327" style="stroke: #000000; stroke-width: 0.8"/>
      </g>
     </g>
     <g id="text_10">
      <!-- 250 -->
      <g transform="translate(20.878125 190.642489)scale(0.1 -0.1)">
       <defs>
        <path id="DejaVuSans-2212" d="M 678 2272 
L 4684 2272 
L 4684 1741 
L 678 1741 
L 678 2272 
z
" transform="scale(0.015625)"/>
       </defs>
       <use xlink:href="#DejaVuSans-2212"/>
       <use xlink:href="#DejaVuSans-32" x="83.789062"/>
       <use xlink:href="#DejaVuSans-35" x="147.412109"/>
       <use xlink:href="#DejaVuSans-30" x="211.035156"/>
      </g>
     </g>
    </g>
    <g id="ytick_2">
     <g id="line2d_10">
      <g>
       <use xlink:href="#m9a39774c68" x="55.345313" y="166.277627" style="stroke: #000000; stroke-width: 0.8"/>
      </g>
     </g>
     <g id="text_11">
      <!-- 200 -->
      <g transform="translate(20.878125 170.076846)scale(0.1 -0.1)">
       <use xlink:href="#DejaVuSans-2212"/>
       <use xlink:href="#DejaVuSans-32" x="83.789062"/>
       <use xlink:href="#DejaVuSans-30" x="147.412109"/>
       <use xlink:href="#DejaVuSans-30" x="211.035156"/>
      </g>
     </g>
    </g>
    <g id="ytick_3">
     <g id="line2d_11">
      <g>
       <use xlink:href="#m9a39774c68" x="55.345313" y="145.711984" style="stroke: #000000; stroke-width: 0.8"/>
      </g>
     </g>
     <g id="text_12">
      <!-- 150 -->
      <g transform="translate(20.878125 149.511202)scale(0.1 -0.1)">
       <use xlink:href="#DejaVuSans-2212"/>
       <use xlink:href="#DejaVuSans-31" x="83.789062"/>
       <use xlink:href="#DejaVuSans-35" x="147.412109"/>
       <use xlink:href="#DejaVuSans-30" x="211.035156"/>
      </g>
     </g>
    </g>
    <g id="ytick_4">
     <g id="line2d_12">
      <g>
       <use xlink:href="#m9a39774c68" x="55.345313" y="125.146341" style="stroke: #000000; stroke-width: 0.8"/>
      </g>
     </g>
     <g id="text_13">
      <!-- 100 -->
      <g transform="translate(20.878125 128.945559)scale(0.1 -0.1)">
       <use xlink:href="#DejaVuSans-2212"/>
       <use xlink:href="#DejaVuSans-31" x="83.789062"/>
       <use xlink:href="#DejaVuSans-30" x="147.412109"/>
       <use xlink:href="#DejaVuSans-30" x="211.035156"/>
      </g>
     </g>
    </g>
    <g id="ytick_5">
     <g id="line2d_13">
      <g>
       <use xlink:href="#m9a39774c68" x="55.345313" y="104.580698" style="stroke: #000000; stroke-width: 0.8"/>
      </g>
     </g>
     <g id="text_14">
      <!-- 50 -->
      <g transform="translate(27.240625 108.379916)scale(0.1 -0.1)">
       <use xlink:href="#DejaVuSans-2212"/>
       <use xlink:href="#DejaVuSans-35" x="83.789062"/>
       <use xlink:href="#DejaVuSans-30" x="147.412109"/>
      </g>
     </g>
    </g>
    <g id="ytick_6">
     <g id="line2d_14">
      <g>
       <use xlink:href="#m9a39774c68" x="55.345313" y="84.015054" style="stroke: #000000; stroke-width: 0.8"/>
      </g>
     </g>
     <g id="text_15">
      <!-- 0 -->
      <g transform="translate(41.982813 87.814273)scale(0.1 -0.1)">
       <use xlink:href="#DejaVuSans-30"/>
      </g>
     </g>
    </g>
    <g id="ytick_7">
     <g id="line2d_15">
      <g>
       <use xlink:href="#m9a39774c68" x="55.345313" y="63.449411" style="stroke: #000000; stroke-width: 0.8"/>
      </g>
     </g>
     <g id="text_16">
      <!-- 50 -->
      <g transform="translate(35.620313 67.24863)scale(0.1 -0.1)">
       <use xlink:href="#DejaVuSans-35"/>
       <use xlink:href="#DejaVuSans-30" x="63.623047"/>
      </g>
     </g>
    </g>
    <g id="ytick_8">
     <g id="line2d_16">
      <g>
       <use xlink:href="#m9a39774c68" x="55.345313" y="42.883768" style="stroke: #000000; stroke-width: 0.8"/>
      </g>
     </g>
     <g id="text_17">
      <!-- 100 -->
      <g transform="translate(29.257813 46.682987)scale(0.1 -0.1)">
       <use xlink:href="#DejaVuSans-31"/>
       <use xlink:href="#DejaVuSans-30" x="63.623047"/>
       <use xlink:href="#DejaVuSans-30" x="127.246094"/>
      </g>
     </g>
    </g>
    <g id="ytick_9">
     <g id="line2d_17">
      <g>
       <use xlink:href="#m9a39774c68" x="55.345313" y="22.318125" style="stroke: #000000; stroke-width: 0.8"/>
      </g>
     </g>
     <g id="text_18">
      <!-- 150 -->
      <g transform="translate(29.257813 26.117344)scale(0.1 -0.1)">
       <use xlink:href="#DejaVuSans-31"/>
       <use xlink:href="#DejaVuSans-35" x="63.623047"/>
       <use xlink:href="#DejaVuSans-30" x="127.246094"/>
      </g>
     </g>
    </g>
    <g id="text_19">
     <!-- Surface Mass Balance [Gt/month] -->
     <g transform="translate(14.798437 188.573666)rotate(-90)scale(0.1 -0.1)">
      <defs>
       <path id="DejaVuSans-53" d="M 3425 4513 
L 3425 3897 
Q 3066 4069 2747 4153 
Q 2428 4238 2131 4238 
Q 1616 4238 1336 4038 
Q 1056 3838 1056 3469 
Q 1056 3159 1242 3001 
Q 1428 2844 1947 2747 
L 2328 2669 
Q 3034 2534 3370 2195 
Q 3706 1856 3706 1288 
Q 3706 609 3251 259 
Q 2797 -91 1919 -91 
Q 1588 -91 1214 -16 
Q 841 59 441 206 
L 441 856 
Q 825 641 1194 531 
Q 1563 422 1919 422 
Q 2459 422 2753 634 
Q 3047 847 3047 1241 
Q 3047 1584 2836 1778 
Q 2625 1972 2144 2069 
L 1759 2144 
Q 1053 2284 737 2584 
Q 422 2884 422 3419 
Q 422 4038 858 4394 
Q 1294 4750 2059 4750 
Q 2388 4750 2728 4690 
Q 3069 4631 3425 4513 
z
" transform="scale(0.015625)"/>
       <path id="DejaVuSans-75" d="M 544 1381 
L 544 3500 
L 1119 3500 
L 1119 1403 
Q 1119 906 1312 657 
Q 1506 409 1894 409 
Q 2359 409 2629 706 
Q 2900 1003 2900 1516 
L 2900 3500 
L 3475 3500 
L 3475 0 
L 2900 0 
L 2900 538 
Q 2691 219 2414 64 
Q 2138 -91 1772 -91 
Q 1169 -91 856 284 
Q 544 659 544 1381 
z
M 1991 3584 
L 1991 3584 
z
" transform="scale(0.015625)"/>
       <path id="DejaVuSans-66" d="M 2375 4863 
L 2375 4384 
L 1825 4384 
Q 1516 4384 1395 4259 
Q 1275 4134 1275 3809 
L 1275 3500 
L 2222 3500 
L 2222 3053 
L 1275 3053 
L 1275 0 
L 697 0 
L 697 3053 
L 147 3053 
L 147 3500 
L 697 3500 
L 697 3744 
Q 697 4328 969 4595 
Q 1241 4863 1831 4863 
L 2375 4863 
z
" transform="scale(0.015625)"/>
       <path id="DejaVuSans-63" d="M 3122 3366 
L 3122 2828 
Q 2878 2963 2633 3030 
Q 2388 3097 2138 3097 
Q 1578 3097 1268 2742 
Q 959 2388 959 1747 
Q 959 1106 1268 751 
Q 1578 397 2138 397 
Q 2388 397 2633 464 
Q 2878 531 3122 666 
L 3122 134 
Q 2881 22 2623 -34 
Q 2366 -91 2075 -91 
Q 1284 -91 818 406 
Q 353 903 353 1747 
Q 353 2603 823 3093 
Q 1294 3584 2113 3584 
Q 2378 3584 2631 3529 
Q 2884 3475 3122 3366 
z
" transform="scale(0.015625)"/>
       <path id="DejaVuSans-20" transform="scale(0.015625)"/>
       <path id="DejaVuSans-4d" d="M 628 4666 
L 1569 4666 
L 2759 1491 
L 3956 4666 
L 4897 4666 
L 4897 0 
L 4281 0 
L 4281 4097 
L 3078 897 
L 2444 897 
L 1241 4097 
L 1241 0 
L 628 0 
L 628 4666 
z
" transform="scale(0.015625)"/>
       <path id="DejaVuSans-73" d="M 2834 3397 
L 2834 2853 
Q 2591 2978 2328 3040 
Q 2066 3103 1784 3103 
Q 1356 3103 1142 2972 
Q 928 2841 928 2578 
Q 928 2378 1081 2264 
Q 1234 2150 1697 2047 
L 1894 2003 
Q 2506 1872 2764 1633 
Q 3022 1394 3022 966 
Q 3022 478 2636 193 
Q 2250 -91 1575 -91 
Q 1294 -91 989 -36 
Q 684 19 347 128 
L 347 722 
Q 666 556 975 473 
Q 1284 391 1588 391 
Q 1994 391 2212 530 
Q 2431 669 2431 922 
Q 2431 1156 2273 1281 
Q 2116 1406 1581 1522 
L 1381 1569 
Q 847 1681 609 1914 
Q 372 2147 372 2553 
Q 372 3047 722 3315 
Q 1072 3584 1716 3584 
Q 2034 3584 2315 3537 
Q 2597 3491 2834 3397 
z
" transform="scale(0.015625)"/>
       <path id="DejaVuSans-42" d="M 1259 2228 
L 1259 519 
L 2272 519 
Q 2781 519 3026 730 
Q 3272 941 3272 1375 
Q 3272 1813 3026 2020 
Q 2781 2228 2272 2228 
L 1259 2228 
z
M 1259 4147 
L 1259 2741 
L 2194 2741 
Q 2656 2741 2882 2914 
Q 3109 3088 3109 3444 
Q 3109 3797 2882 3972 
Q 2656 4147 2194 4147 
L 1259 4147 
z
M 628 4666 
L 2241 4666 
Q 2963 4666 3353 4366 
Q 3744 4066 3744 3513 
Q 3744 3084 3544 2831 
Q 3344 2578 2956 2516 
Q 3422 2416 3680 2098 
Q 3938 1781 3938 1306 
Q 3938 681 3513 340 
Q 3088 0 2303 0 
L 628 0 
L 628 4666 
z
" transform="scale(0.015625)"/>
       <path id="DejaVuSans-6c" d="M 603 4863 
L 1178 4863 
L 1178 0 
L 603 0 
L 603 4863 
z
" transform="scale(0.015625)"/>
       <path id="DejaVuSans-6e" d="M 3513 2113 
L 3513 0 
L 2938 0 
L 2938 2094 
Q 2938 2591 2744 2837 
Q 2550 3084 2163 3084 
Q 1697 3084 1428 2787 
Q 1159 2491 1159 1978 
L 1159 0 
L 581 0 
L 581 3500 
L 1159 3500 
L 1159 2956 
Q 1366 3272 1645 3428 
Q 1925 3584 2291 3584 
Q 2894 3584 3203 3211 
Q 3513 2838 3513 2113 
z
" transform="scale(0.015625)"/>
       <path id="DejaVuSans-5b" d="M 550 4863 
L 1875 4863 
L 1875 4416 
L 1125 4416 
L 1125 -397 
L 1875 -397 
L 1875 -844 
L 550 -844 
L 550 4863 
z
" transform="scale(0.015625)"/>
       <path id="DejaVuSans-47" d="M 3809 666 
L 3809 1919 
L 2778 1919 
L 2778 2438 
L 4434 2438 
L 4434 434 
Q 4069 175 3628 42 
Q 3188 -91 2688 -91 
Q 1594 -91 976 548 
Q 359 1188 359 2328 
Q 359 3472 976 4111 
Q 1594 4750 2688 4750 
Q 3144 4750 3555 4637 
Q 3966 4525 4313 4306 
L 4313 3634 
Q 3963 3931 3569 4081 
Q 3175 4231 2741 4231 
Q 1884 4231 1454 3753 
Q 1025 3275 1025 2328 
Q 1025 1384 1454 906 
Q 1884 428 2741 428 
Q 3075 428 3337 486 
Q 3600 544 3809 666 
z
" transform="scale(0.015625)"/>
       <path id="DejaVuSans-74" d="M 1172 4494 
L 1172 3500 
L 2356 3500 
L 2356 3053 
L 1172 3053 
L 1172 1153 
Q 1172 725 1289 603 
Q 1406 481 1766 481 
L 2356 481 
L 2356 0 
L 1766 0 
Q 1100 0 847 248 
Q 594 497 594 1153 
L 594 3053 
L 172 3053 
L 172 3500 
L 594 3500 
L 594 4494 
L 1172 4494 
z
" transform="scale(0.015625)"/>
       <path id="DejaVuSans-2f" d="M 1625 4666 
L 2156 4666 
L 531 -594 
L 0 -594 
L 1625 4666 
z
" transform="scale(0.015625)"/>
       <path id="DejaVuSans-6d" d="M 3328 2828 
Q 3544 3216 3844 3400 
Q 4144 3584 4550 3584 
Q 5097 3584 5394 3201 
Q 5691 2819 5691 2113 
L 5691 0 
L 5113 0 
L 5113 2094 
Q 5113 2597 4934 2840 
Q 4756 3084 4391 3084 
Q 3944 3084 3684 2787 
Q 3425 2491 3425 1978 
L 3425 0 
L 2847 0 
L 2847 2094 
Q 2847 2600 2669 2842 
Q 2491 3084 2119 3084 
Q 1678 3084 1418 2786 
Q 1159 2488 1159 1978 
L 1159 0 
L 581 0 
L 581 3500 
L 1159 3500 
L 1159 2956 
Q 1356 3278 1631 3431 
Q 1906 3584 2284 3584 
Q 2666 3584 2933 3390 
Q 3200 3197 3328 2828 
z
" transform="scale(0.015625)"/>
       <path id="DejaVuSans-6f" d="M 1959 3097 
Q 1497 3097 1228 2736 
Q 959 2375 959 1747 
Q 959 1119 1226 758 
Q 1494 397 1959 397 
Q 2419 397 2687 759 
Q 2956 1122 2956 1747 
Q 2956 2369 2687 2733 
Q 2419 3097 1959 3097 
z
M 1959 3584 
Q 2709 3584 3137 3096 
Q 3566 2609 3566 1747 
Q 3566 888 3137 398 
Q 2709 -91 1959 -91 
Q 1206 -91 779 398 
Q 353 888 353 1747 
Q 353 2609 779 3096 
Q 1206 3584 1959 3584 
z
" transform="scale(0.015625)"/>
       <path id="DejaVuSans-68" d="M 3513 2113 
L 3513 0 
L 2938 0 
L 2938 2094 
Q 2938 2591 2744 2837 
Q 2550 3084 2163 3084 
Q 1697 3084 1428 2787 
Q 1159 2491 1159 1978 
L 1159 0 
L 581 0 
L 581 4863 
L 1159 4863 
L 1159 2956 
Q 1366 3272 1645 3428 
Q 1925 3584 2291 3584 
Q 2894 3584 3203 3211 
Q 3513 2838 3513 2113 
z
" transform="scale(0.015625)"/>
       <path id="DejaVuSans-5d" d="M 1947 4863 
L 1947 -844 
L 622 -844 
L 622 -397 
L 1369 -397 
L 1369 4416 
L 622 4416 
L 622 4863 
L 1947 4863 
z
" transform="scale(0.015625)"/>
      </defs>
      <use xlink:href="#DejaVuSans-53"/>
      <use xlink:href="#DejaVuSans-75" x="63.476562"/>
      <use xlink:href="#DejaVuSans-72" x="126.855469"/>
      <use xlink:href="#DejaVuSans-66" x="167.96875"/>
      <use xlink:href="#DejaVuSans-61" x="203.173828"/>
      <use xlink:href="#DejaVuSans-63" x="264.453125"/>
      <use xlink:href="#DejaVuSans-65" x="319.433594"/>
      <use xlink:href="#DejaVuSans-20" x="380.957031"/>
      <use xlink:href="#DejaVuSans-4d" x="412.744141"/>
      <use xlink:href="#DejaVuSans-61" x="499.023438"/>
      <use xlink:href="#DejaVuSans-73" x="560.302734"/>
      <use xlink:href="#DejaVuSans-73" x="612.402344"/>
      <use xlink:href="#DejaVuSans-20" x="664.501953"/>
      <use xlink:href="#DejaVuSans-42" x="696.289062"/>
      <use xlink:href="#DejaVuSans-61" x="764.892578"/>
      <use xlink:href="#DejaVuSans-6c" x="826.171875"/>
      <use xlink:href="#DejaVuSans-61" x="853.955078"/>
      <use xlink:href="#DejaVuSans-6e" x="915.234375"/>
      <use xlink:href="#DejaVuSans-63" x="978.613281"/>
      <use xlink:href="#DejaVuSans-65" x="1033.59375"/>
      <use xlink:href="#DejaVuSans-20" x="1095.117188"/>
      <use xlink:href="#DejaVuSans-5b" x="1126.904297"/>
      <use xlink:href="#DejaVuSans-47" x="1165.917969"/>
      <use xlink:href="#DejaVuSans-74" x="1243.408203"/>
      <use xlink:href="#DejaVuSans-2f" x="1282.617188"/>
      <use xlink:href="#DejaVuSans-6d" x="1316.308594"/>
      <use xlink:href="#DejaVuSans-6f" x="1413.720703"/>
      <use xlink:href="#DejaVuSans-6e" x="1474.902344"/>
      <use xlink:href="#DejaVuSans-74" x="1538.28125"/>
      <use xlink:href="#DejaVuSans-68" x="1577.490234"/>
      <use xlink:href="#DejaVuSans-5d" x="1640.869141"/>
     </g>
    </g>
   </g>
   <g id="line2d_18">
    <path d="M 75.793231 52.206039 
L 76.267111 68.558525 
L 76.740991 67.110528 
L 77.214871 71.045236 
L 77.688751 64.836659 
L 78.636511 140.036942 
L 79.11039 99.336144 
L 79.58427 70.737176 
L 80.53203 55.949453 
L 81.00591 61.299849 
L 81.47979 69.047898 
L 81.95367 64.310716 
L 82.42755 68.453896 
L 82.90143 67.667872 
L 83.37531 60.000867 
L 83.84919 107.942028 
L 84.32307 124.089652 
L 85.270829 72.382962 
L 85.744709 62.792908 
L 86.218589 61.783992 
L 86.692469 71.262402 
L 87.166349 64.113522 
L 87.640229 62.757332 
L 88.114109 65.451127 
L 88.587989 69.885016 
L 89.061869 67.440218 
L 89.535749 93.316052 
L 90.009629 109.220744 
L 90.483509 108.267145 
L 90.957388 55.644832 
L 91.431268 45.980393 
L 91.905148 57.828621 
L 92.379028 63.697063 
L 92.852908 60.368167 
L 93.800668 63.273493 
L 94.274548 70.614957 
L 94.748428 68.235569 
L 95.222308 79.682367 
L 95.696188 117.032178 
L 96.170068 92.769117 
L 96.643947 56.67696 
L 97.117827 64.115216 
L 97.591707 59.761793 
L 98.065587 58.44034 
L 98.539467 49.361822 
L 99.013347 54.5202 
L 99.487227 67.048666 
L 99.961107 59.577654 
L 100.434987 69.162082 
L 100.908867 81.598262 
L 101.382747 103.721594 
L 102.804386 56.268516 
L 103.278266 50.295492 
L 103.752146 64.093589 
L 104.226026 69.245814 
L 104.699906 68.353189 
L 105.173786 58.2789 
L 105.647666 62.438867 
L 106.121546 62.477675 
L 106.595426 89.608066 
L 107.069306 83.646511 
L 107.543186 81.519338 
L 108.017066 53.579424 
L 108.490945 54.513298 
L 108.964825 58.867254 
L 109.438705 72.047084 
L 110.386465 53.501919 
L 110.860345 57.082699 
L 111.334225 68.898939 
L 111.808105 67.525211 
L 112.755865 119.344183 
L 113.229745 93.797713 
L 113.703625 60.734664 
L 114.177504 49.759666 
L 114.651384 46.437839 
L 115.125264 49.898421 
L 115.599144 54.784943 
L 116.073024 78.001535 
L 116.546904 74.686458 
L 117.020784 63.256425 
L 117.494664 66.195293 
L 118.442424 142.53234 
L 119.390184 66.659235 
L 119.864064 53.484602 
L 120.337943 51.115593 
L 120.811823 64.131491 
L 121.285703 66.501215 
L 121.759583 64.726399 
L 122.233463 60.508528 
L 122.707343 61.447118 
L 123.181223 73.003321 
L 123.655103 95.804951 
L 124.128983 128.406218 
L 125.076743 46.63313 
L 125.550623 53.987899 
L 126.498382 60.690927 
L 126.972262 68.587877 
L 127.446142 59.388823 
L 127.920022 61.299719 
L 128.393902 72.99822 
L 128.867782 73.557507 
L 129.341662 100.393543 
L 129.815542 119.336936 
L 130.763302 48.460159 
L 131.237182 43.674074 
L 131.711062 62.700979 
L 132.184941 59.707307 
L 132.658821 58.529354 
L 133.132701 62.59433 
L 133.606581 51.557762 
L 134.080461 67.725843 
L 134.554341 67.563591 
L 135.502101 133.137364 
L 135.975981 104.734347 
L 136.449861 59.570523 
L 136.923741 54.899862 
L 137.397621 59.980656 
L 137.8715 63.610526 
L 138.34538 57.10942 
L 138.81926 66.03192 
L 139.29314 66.89236 
L 139.76702 69.847977 
L 140.2409 63.02558 
L 140.71478 88.723622 
L 141.18866 104.177239 
L 142.13642 61.109093 
L 142.6103 55.174427 
L 143.08418 62.023604 
L 143.558059 66.353168 
L 144.031939 63.878257 
L 144.505819 63.589019 
L 144.979699 71.578364 
L 145.453579 62.725751 
L 145.927459 72.692454 
L 146.401339 92.117665 
L 146.875219 121.388733 
L 147.349099 82.754785 
L 147.822979 62.731566 
L 148.296859 61.174569 
L 148.770739 56.854584 
L 149.244619 59.876219 
L 149.718498 57.186246 
L 150.192378 64.004377 
L 150.666258 62.858069 
L 151.140138 67.480133 
L 151.614018 68.704803 
L 152.087898 81.937989 
L 152.561778 106.199759 
L 153.035658 89.97895 
L 153.509538 57.329486 
L 153.983418 62.043543 
L 154.457298 63.120961 
L 155.405057 51.365511 
L 155.878937 51.73885 
L 156.352817 48.385692 
L 156.826697 67.510817 
L 157.300577 69.607234 
L 157.774457 78.000998 
L 158.248337 75.341256 
L 158.722217 83.191898 
L 159.196097 66.674948 
L 159.669977 54.084381 
L 160.143857 64.746943 
L 160.617737 62.880863 
L 161.565496 46.499278 
L 162.039376 69.355691 
L 162.513256 67.390679 
L 162.987136 77.427452 
L 163.461016 84.252607 
L 163.934896 107.378934 
L 164.408776 93.161256 
L 164.882656 64.424937 
L 165.356536 57.828605 
L 166.304296 72.421242 
L 166.778176 71.709114 
L 167.252055 75.19078 
L 167.725935 71.482525 
L 168.199815 71.423726 
L 168.673695 81.267831 
L 169.621455 115.768894 
L 170.095335 100.474325 
L 170.569215 58.031047 
L 171.043095 56.635373 
L 171.516975 57.9638 
L 171.990855 65.450269 
L 172.464735 55.82683 
L 172.938615 59.672536 
L 173.412494 73.184707 
L 173.886374 64.701365 
L 174.834134 85.079489 
L 175.308014 109.575134 
L 176.255774 43.375666 
L 176.729654 65.430591 
L 177.203534 59.379655 
L 177.677414 68.561303 
L 178.151294 70.743924 
L 178.625174 63.131217 
L 179.099053 61.793344 
L 179.572933 62.681161 
L 180.046813 76.512279 
L 180.994573 120.438736 
L 181.468453 84.679841 
L 181.942333 59.954634 
L 182.416213 63.696078 
L 182.890093 58.399346 
L 183.363973 65.039648 
L 183.837853 69.285178 
L 184.311733 62.276694 
L 184.785612 67.520245 
L 185.259492 67.905618 
L 185.733372 67.280603 
L 186.681132 103.984769 
L 187.155012 89.721058 
L 187.628892 64.11393 
L 188.102772 64.485623 
L 188.576652 49.097764 
L 189.524412 61.23786 
L 189.998292 65.876489 
L 190.472172 67.666646 
L 190.946051 67.410568 
L 191.419931 67.949181 
L 191.893811 80.260824 
L 192.367691 105.054319 
L 192.841571 74.746834 
L 193.315451 56.15016 
L 193.789331 55.438176 
L 194.263211 62.095182 
L 194.737091 56.267036 
L 195.210971 69.755485 
L 195.684851 69.57589 
L 196.158731 74.140711 
L 196.63261 70.369422 
L 197.10649 69.089665 
L 197.58037 99.237878 
L 198.05425 119.960177 
L 198.52813 78.471317 
L 199.00201 60.289148 
L 199.47589 67.001857 
L 199.94977 57.191173 
L 200.42365 56.999813 
L 200.89753 39.626689 
L 201.37141 60.977316 
L 201.84529 59.85891 
L 202.31917 65.22352 
L 202.793049 60.665042 
L 203.266929 71.604231 
L 203.740809 78.128794 
L 204.688569 54.498388 
L 205.162449 54.257214 
L 205.636329 66.342871 
L 206.110209 62.132867 
L 206.584089 55.212549 
L 207.057969 71.713454 
L 208.005729 59.486759 
L 208.479608 68.644633 
L 209.427368 94.919389 
L 209.901248 77.373438 
L 210.375128 55.657219 
L 210.849008 65.448133 
L 211.322888 70.244793 
L 211.796768 64.769946 
L 212.270648 64.664479 
L 212.744528 66.31984 
L 213.218408 56.906071 
L 213.692288 63.204546 
L 214.166167 73.231303 
L 214.640047 80.656227 
L 215.113927 112.238565 
L 215.587807 91.78724 
L 216.061687 61.691116 
L 216.535567 48.006204 
L 217.009447 57.893794 
L 217.483327 74.223737 
L 217.957207 71.67261 
L 218.431087 56.554312 
L 218.904967 57.812968 
L 219.378847 61.77696 
L 219.852727 69.635546 
L 220.800486 96.591563 
L 221.748246 62.620596 
L 222.222126 61.322518 
L 222.696006 58.122878 
L 223.169886 61.15094 
L 223.643766 64.927398 
L 224.591526 49.997785 
L 225.065406 64.690881 
L 225.539286 72.109397 
L 226.487045 96.366824 
L 226.960925 62.090692 
L 227.434805 51.645525 
L 227.908685 48.905902 
L 228.382565 60.512839 
L 228.856445 60.005429 
L 229.330325 69.411658 
L 229.804205 67.711549 
L 230.278085 69.15979 
L 231.225845 63.170711 
L 231.699725 82.02463 
L 232.173604 112.653386 
L 233.121364 57.330662 
L 233.595244 65.063309 
L 234.069124 54.093953 
L 234.543004 53.853446 
L 235.490764 72.853495 
L 235.964644 67.726939 
L 236.438524 60.639171 
L 236.912404 63.458975 
L 237.386284 75.417626 
L 237.860163 114.984317 
L 238.807923 61.695645 
L 239.281803 51.281894 
L 239.755683 64.768579 
L 240.229563 59.233914 
L 240.703443 59.575316 
L 241.177323 62.879219 
L 241.651203 60.526635 
L 242.125083 69.587462 
L 242.598963 71.580355 
L 243.072843 77.482834 
L 243.546722 106.642801 
L 244.494482 66.897301 
L 244.968362 60.39891 
L 245.442242 64.356637 
L 245.916122 57.649615 
L 246.390002 55.932854 
L 246.863882 59.707331 
L 247.337762 60.33615 
L 247.811642 63.94999 
L 248.285522 71.317921 
L 248.759402 93.531391 
L 249.233282 106.190636 
L 249.707161 82.999965 
L 250.181041 66.837027 
L 250.654921 64.629637 
L 251.128801 58.973381 
L 251.602681 67.618547 
L 252.076561 67.610415 
L 252.550441 70.200087 
L 253.024321 67.797377 
L 253.498201 59.374483 
L 253.972081 73.449991 
L 254.445961 100.578524 
L 254.919841 107.099536 
L 255.39372 77.816535 
L 255.8676 63.834541 
L 256.34148 61.229022 
L 257.28924 67.056622 
L 257.76312 64.779979 
L 258.237 59.981525 
L 258.71088 62.094834 
L 259.18476 66.957401 
L 260.13252 99.035124 
L 260.6064 100.385828 
L 261.08028 77.605787 
L 261.554159 64.37671 
L 262.028039 63.017895 
L 262.501919 64.444616 
L 262.975799 62.271615 
L 263.449679 60.886581 
L 263.923559 56.270388 
L 264.397439 63.814675 
L 264.871319 61.798655 
L 265.819079 80.581933 
L 266.292959 82.467272 
L 266.766839 64.712348 
L 267.240718 62.131199 
L 267.714598 58.900769 
L 268.188478 57.60965 
L 268.662358 68.001172 
L 269.136238 64.423848 
L 269.610118 62.231659 
L 270.083998 60.597484 
L 270.557878 60.571141 
L 271.031758 65.17608 
L 271.505638 92.903043 
L 271.979518 106.051274 
L 272.453398 62.854771 
L 272.927277 58.689121 
L 273.401157 62.785334 
L 273.875037 58.847816 
L 274.348917 51.499851 
L 275.296677 63.364148 
L 276.244437 66.870525 
L 276.718317 72.95169 
L 277.192197 97.966633 
L 277.666077 107.226662 
L 278.139957 85.392509 
L 279.087716 56.319091 
L 279.561596 57.74959 
L 280.035476 65.830414 
L 280.509356 56.215478 
L 280.983236 59.120677 
L 281.457116 60.45335 
L 281.930996 60.511984 
L 282.878756 86.323449 
L 283.352636 92.092915 
L 283.826516 70.060399 
L 284.300396 58.232699 
L 284.774275 65.707338 
L 285.248155 65.650572 
L 285.722035 48.819659 
L 286.195915 47.205748 
L 286.669795 62.757008 
L 287.143675 58.506373 
L 287.617555 55.861271 
L 288.091435 68.011001 
L 288.565315 100.288907 
L 289.039195 110.914821 
L 289.513075 94.20682 
L 289.986955 62.642524 
L 290.460835 59.233101 
L 290.934714 56.789323 
L 291.408594 63.818771 
L 291.882474 65.193771 
L 292.356354 62.589219 
L 292.830234 67.582334 
L 293.304114 67.087027 
L 293.777994 63.610683 
L 294.251874 86.12235 
L 294.725754 115.400241 
L 295.199634 85.931561 
L 295.673514 63.58558 
L 296.147394 57.866791 
L 296.621273 59.005087 
L 297.569033 71.286377 
L 298.042913 72.677782 
L 298.516793 71.025163 
L 298.990673 71.641785 
L 299.464553 73.884373 
L 299.938433 95.584388 
L 300.412313 108.2355 
L 300.886193 80.2174 
L 301.360073 59.553776 
L 301.833953 58.924823 
L 302.307833 54.973568 
L 302.781712 60.381542 
L 303.255592 69.067047 
L 303.729472 72.145384 
L 304.203352 69.89372 
L 304.677232 64.547953 
L 305.151112 71.637343 
L 305.624992 103.93974 
L 306.098872 110.064456 
L 307.046632 57.012124 
L 307.520512 55.170704 
L 307.994392 51.706249 
L 308.468271 52.775343 
L 308.942151 56.706835 
L 309.416031 59.627129 
L 309.889911 67.987824 
L 310.363791 67.558291 
L 310.837671 69.53801 
L 311.311551 105.434434 
L 311.785431 112.053632 
L 312.259311 76.615187 
L 312.733191 59.454103 
L 313.207071 54.718352 
L 313.680951 60.97634 
L 314.15483 52.633734 
L 314.62871 55.243763 
L 315.10259 64.213796 
L 315.57647 67.507769 
L 316.05035 67.413567 
L 316.52423 64.618247 
L 316.99811 75.812143 
L 317.47199 91.839659 
L 318.41975 56.609729 
L 318.89363 52.424489 
L 319.36751 63.022454 
L 319.84139 65.89494 
L 320.315269 64.370763 
L 320.789149 56.633717 
L 321.263029 62.536784 
L 321.736909 66.240927 
L 322.210789 77.557926 
L 322.684669 104.099552 
L 323.158549 112.6755 
L 323.632429 76.35192 
L 324.106309 59.080974 
L 324.580189 50.067234 
L 325.054069 53.041612 
L 325.527949 66.853364 
L 326.475708 61.531118 
L 326.949588 68.142534 
L 327.423468 64.341295 
L 327.897348 70.868451 
L 328.845108 106.127601 
L 329.318988 76.417634 
L 329.792868 63.184062 
L 330.266748 67.019977 
L 330.740628 64.39131 
L 331.214508 68.156966 
L 331.688388 73.627202 
L 332.162267 72.451596 
L 332.636147 69.869648 
L 333.110027 72.293097 
L 333.583907 77.908394 
L 334.057787 101.328305 
L 334.531667 114.153419 
L 335.005547 79.767106 
L 335.479427 61.030335 
L 335.953307 60.86743 
L 336.427187 49.191839 
L 336.901067 53.652016 
L 337.374947 51.043887 
L 337.848826 50.376273 
L 338.322706 52.498251 
L 338.796586 66.046308 
L 339.270466 74.8285 
L 339.744346 90.813366 
L 340.218226 93.542163 
L 340.692106 67.607202 
L 341.165986 55.710951 
L 341.639866 61.212692 
L 342.113746 55.775834 
L 342.587626 52.847415 
L 343.061506 58.516146 
L 343.535385 69.36972 
L 344.009265 66.798001 
L 344.483145 62.191263 
L 345.430905 96.907172 
L 345.904785 94.070303 
L 346.378665 69.283357 
L 346.852545 52.529206 
L 347.326425 55.838822 
L 347.800305 58.001938 
L 348.274185 54.86662 
L 348.748065 64.128373 
L 349.221945 64.875665 
L 349.695824 61.134696 
L 350.169704 62.105603 
L 350.643584 73.837921 
L 351.117464 114.722589 
L 351.591344 116.494133 
L 352.065224 85.305735 
L 353.012984 62.10487 
L 353.486864 59.50967 
L 353.960744 64.83629 
L 354.434624 62.115581 
L 354.908504 62.384802 
L 355.382383 68.006939 
L 355.856263 62.427131 
L 356.330143 62.263193 
L 357.277903 113.812402 
L 357.751783 78.502119 
L 358.225663 58.836805 
L 358.699543 55.664398 
L 359.173423 55.777919 
L 359.647303 61.325684 
L 360.121183 58.492031 
L 360.595063 67.567134 
L 361.542822 59.909785 
L 362.016702 74.709647 
L 362.490582 98.426644 
L 362.964462 97.269011 
L 363.912222 57.265929 
L 364.386102 63.049276 
L 364.859982 62.095154 
L 365.333862 65.722262 
L 365.807742 58.097669 
L 366.281622 65.448578 
L 366.755502 70.152767 
L 367.229381 65.505991 
L 367.703261 67.536407 
L 368.177141 92.47501 
L 368.651021 108.632045 
L 369.124901 89.087956 
L 369.598781 58.442075 
L 370.072661 55.605648 
L 370.546541 45.03956 
L 371.020421 49.850886 
L 371.494301 63.918095 
L 371.968181 71.868184 
L 372.442061 69.682013 
L 372.91594 70.426031 
L 373.38982 80.265968 
L 373.8637 106.357264 
L 374.33758 110.744989 
L 374.81146 74.650864 
L 375.28534 56.468894 
L 375.75922 53.312636 
L 376.2331 52.019097 
L 376.70698 51.543381 
L 377.18086 57.500958 
L 377.65474 59.094351 
L 378.12862 55.038589 
L 378.6025 55.762898 
L 379.076379 81.380465 
L 379.550259 120.443043 
L 380.024139 120.370147 
L 380.971899 55.55193 
L 381.445779 54.073472 
L 381.919659 61.461045 
L 382.393539 65.629005 
L 382.867419 66.656832 
L 383.341299 54.832271 
L 383.815179 53.765549 
L 384.762938 79.031696 
L 385.236818 101.177502 
L 385.710698 106.035608 
L 386.658458 60.656281 
L 387.132338 58.023368 
L 387.606218 63.814189 
L 388.080098 63.216669 
L 388.553978 52.460371 
L 389.027858 52.020576 
L 389.501738 55.30498 
L 389.975618 62.77757 
L 390.449498 77.989343 
L 390.923377 109.822249 
L 391.397257 123.833523 
L 391.871137 92.292042 
L 392.345017 69.134449 
L 393.292777 53.419429 
L 394.240537 60.965252 
L 394.714417 69.272811 
L 395.188297 70.164017 
L 395.662177 63.693515 
L 396.136057 71.581819 
L 396.609936 90.71734 
L 397.083816 114.746323 
L 398.031576 69.778972 
L 398.505456 70.215366 
L 398.979336 65.162888 
L 399.453216 56.459676 
L 399.927096 60.2866 
L 400.400976 65.470803 
L 400.874856 62.711937 
L 401.348736 64.879253 
L 401.822616 79.169736 
L 402.296495 115.255336 
L 402.770375 137.16777 
L 403.718135 58.21619 
L 404.192015 58.6693 
L 404.665895 54.436865 
L 405.139775 61.26277 
L 405.613655 63.654931 
L 406.087535 62.886927 
L 406.561415 66.495637 
L 407.035295 67.157259 
L 407.509175 80.235395 
L 407.983055 118.110809 
L 408.456934 126.835013 
L 408.930814 83.487858 
L 409.404694 51.811569 
L 409.878574 51.246933 
L 410.352454 51.336548 
L 410.826334 56.761484 
L 411.300214 65.759295 
L 411.774094 69.64296 
L 412.247974 67.215353 
L 412.721854 63.593874 
L 413.195734 72.653333 
L 414.143493 129.053202 
L 415.091253 58.828958 
L 415.565133 64.08501 
L 416.039013 63.535887 
L 416.512893 52.683279 
L 416.986773 54.691927 
L 417.460653 67.205899 
L 417.934533 71.27118 
L 418.408413 72.275035 
L 418.882293 86.042711 
L 419.356173 126.25224 
L 419.830053 140.135521 
L 420.777812 62.351737 
L 421.251692 63.802681 
L 421.725572 60.968746 
L 422.199452 56.483853 
L 422.673332 60.49666 
L 423.147212 60.757629 
L 423.621092 65.285604 
L 424.094972 63.068674 
L 424.568852 83.473019 
L 425.042732 123.794618 
L 425.516612 139.116745 
L 425.990491 94.714011 
L 426.464371 62.955827 
L 427.412131 60.161701 
L 427.886011 65.673674 
L 428.359891 59.759395 
L 428.833771 57.613096 
L 429.307651 56.388452 
L 429.781531 63.745301 
L 430.255411 88.871187 
L 430.729291 145.100925 
L 431.203171 162.932247 
L 432.15093 57.895362 
L 432.62481 52.287977 
L 433.09869 61.179595 
L 433.57257 59.389427 
L 434.04645 54.376692 
L 434.52033 63.470474 
L 434.99421 69.055793 
L 435.46809 66.196453 
L 435.94197 70.833878 
L 436.41585 103.555922 
L 436.88973 111.158923 
L 437.36361 71.699808 
L 437.837489 50.410907 
L 438.311369 59.407564 
L 438.785249 60.849286 
L 439.259129 63.736672 
L 439.733009 60.918762 
L 440.206889 65.702495 
L 440.680769 62.655482 
L 441.154649 61.828602 
L 441.628529 77.201855 
L 442.102409 111.227401 
L 442.576289 127.114767 
L 443.050169 85.458012 
L 443.524048 56.095483 
L 443.997928 59.795485 
L 444.471808 51.973202 
L 444.945688 58.127766 
L 445.419568 62.290237 
L 445.893448 64.597002 
L 446.367328 64.075414 
L 446.841208 63.76819 
L 447.315088 74.079185 
L 447.788968 119.04515 
L 448.262848 137.122141 
L 448.736728 78.195565 
L 449.210608 48.519121 
L 449.684487 51.971042 
L 450.158367 61.704327 
L 450.632247 62.089448 
L 451.106127 62.921204 
L 451.580007 65.858519 
L 452.053887 60.042181 
L 452.527767 60.53371 
L 453.001647 78.620157 
L 453.475527 126.493551 
L 453.949407 146.986233 
L 454.423287 94.545655 
L 454.897167 57.199291 
L 455.371046 40.443766 
L 455.844926 52.117938 
L 456.318806 59.104254 
L 456.792686 56.785535 
L 457.266566 59.857262 
L 457.740446 67.174094 
L 458.214326 62.55075 
L 458.688206 73.701139 
L 459.162086 103.309669 
L 459.635966 107.259563 
L 460.109846 73.047721 
L 460.583726 49.880486 
L 461.057606 53.464842 
L 461.531485 63.310327 
L 462.005365 66.244278 
L 462.479245 58.642407 
L 462.953125 55.466411 
L 463.427005 67.137477 
L 463.900885 63.954806 
L 464.374765 67.469664 
L 464.848645 89.531429 
L 465.322525 103.781344 
L 465.796405 86.932246 
L 466.270285 61.731153 
L 466.744165 61.899681 
L 467.691924 62.881139 
L 468.165804 62.211485 
L 468.639684 68.095989 
L 469.113564 59.565269 
L 469.587444 56.404578 
L 471.009084 150.855153 
L 471.956844 62.731309 
L 472.430724 58.728388 
L 472.904603 57.881845 
L 473.378483 66.633655 
L 473.852363 64.9564 
L 474.326243 67.831278 
L 474.800123 62.900538 
L 475.274003 62.835173 
L 475.747883 75.656602 
L 476.695643 122.084983 
L 477.169523 82.202454 
L 477.643403 61.475087 
L 478.117283 54.037437 
L 478.591163 58.983231 
L 479.065042 62.084586 
L 479.538922 63.284612 
L 480.012802 59.711624 
L 480.486682 61.537732 
L 480.960562 62.347787 
L 481.434442 76.07529 
L 481.908322 101.565987 
L 482.382202 115.606353 
L 482.856082 97.115255 
L 483.329962 63.536943 
L 483.803842 60.988557 
L 484.277722 57.009771 
L 484.751601 61.394088 
L 484.751601 61.394088 
" clip-path="url(#p1138ef95a8)" style="fill: none; stroke: #000000; stroke-width: 1.5; stroke-linecap: square"/>
   </g>
   <g id="patch_3">
    <path d="M 55.345313 186.84327 
L 55.345313 22.318125 
" style="fill: none; stroke: #000000; stroke-width: 0.8; stroke-linejoin: miter; stroke-linecap: square"/>
   </g>
   <g id="patch_4">
    <path d="M 505.19952 186.84327 
L 505.19952 22.318125 
" style="fill: none; stroke: #000000; stroke-width: 0.8; stroke-linejoin: miter; stroke-linecap: square"/>
   </g>
   <g id="patch_5">
    <path d="M 55.345312 186.84327 
L 505.19952 186.84327 
" style="fill: none; stroke: #000000; stroke-width: 0.8; stroke-linejoin: miter; stroke-linecap: square"/>
   </g>
   <g id="patch_6">
    <path d="M 55.345312 22.318125 
L 505.19952 22.318125 
" style="fill: none; stroke: #000000; stroke-width: 0.8; stroke-linejoin: miter; stroke-linecap: square"/>
   </g>
   <g id="text_20">
    <!-- Greenland -->
    <g transform="translate(249.150229 16.318125)scale(0.12 -0.12)">
     <defs>
      <path id="DejaVuSans-64" d="M 2906 2969 
L 2906 4863 
L 3481 4863 
L 3481 0 
L 2906 0 
L 2906 525 
Q 2725 213 2448 61 
Q 2172 -91 1784 -91 
Q 1150 -91 751 415 
Q 353 922 353 1747 
Q 353 2572 751 3078 
Q 1150 3584 1784 3584 
Q 2172 3584 2448 3432 
Q 2725 3281 2906 2969 
z
M 947 1747 
Q 947 1113 1208 752 
Q 1469 391 1925 391 
Q 2381 391 2643 752 
Q 2906 1113 2906 1747 
Q 2906 2381 2643 2742 
Q 2381 3103 1925 3103 
Q 1469 3103 1208 2742 
Q 947 2381 947 1747 
z
" transform="scale(0.015625)"/>
     </defs>
     <use xlink:href="#DejaVuSans-47"/>
     <use xlink:href="#DejaVuSans-72" x="77.490234"/>
     <use xlink:href="#DejaVuSans-65" x="116.353516"/>
     <use xlink:href="#DejaVuSans-65" x="177.876953"/>
     <use xlink:href="#DejaVuSans-6e" x="239.400391"/>
     <use xlink:href="#DejaVuSans-6c" x="302.779297"/>
     <use xlink:href="#DejaVuSans-61" x="330.5625"/>
     <use xlink:href="#DejaVuSans-6e" x="391.841797"/>
     <use xlink:href="#DejaVuSans-64" x="455.220703"/>
    </g>
   </g>
  </g>
 </g>
 <defs>
  <clipPath id="p1138ef95a8">
   <rect x="55.345313" y="22.318125" width="449.854208" height="164.525145"/>
  </clipPath>
 </defs>
</svg>
