<?xml version="1.0" encoding="utf-8" standalone="no"?>
<!DOCTYPE svg PUBLIC "-//W3C//DTD SVG 1.1//EN"
  "http://www.w3.org/Graphics/SVG/1.1/DTD/svg11.dtd">
<svg xmlns:xlink="http://www.w3.org/1999/xlink" width="512.39952pt" height="224.39952pt" viewBox="0 0 512.39952 224.39952" xmlns="http://www.w3.org/2000/svg" version="1.1">
 <metadata>
  <rdf:RDF xmlns:dc="http://purl.org/dc/elements/1.1/" xmlns:cc="http://creativecommons.org/ns#" xmlns:rdf="http://www.w3.org/1999/02/22-rdf-syntax-ns#">
   <cc:Work>
    <dc:type rdf:resource="http://purl.org/dc/dcmitype/StillImage"/>
    <dc:date>2023-01-26T12:39:11.015881</dc:date>
    <dc:format>image/svg+xml</dc:format>
    <dc:creator>
     <cc:Agent>
      <dc:title>Matplotlib v3.6.2, https://matplotlib.org/</dc:title>
     </cc:Agent>
    </dc:creator>
   </cc:Work>
  </rdf:RDF>
 </metadata>
 <defs>
  <style type="text/css">*{stroke-linejoin: round; stroke-linecap: butt}</style>
 </defs>
 <g id="figure_1">
  <g id="patch_1">
   <path d="M 0 224.39952 
L 512.39952 224.39952 
L 512.39952 0 
L 0 0 
z
" style="fill: #ffffff"/>
  </g>
  <g id="axes_1">
   <g id="patch_2">
    <path d="M 72.905625 186.84327 
L 505.19952 186.84327 
L 505.19952 10.999219 
L 72.905625 10.999219 
z
" style="fill: #ffffff"/>
   </g>
   <g id="matplotlib.axis_1">
    <g id="xtick_1">
     <g id="line2d_1">
      <defs>
       <path id="mb9cd78c22c" d="M 0 0 
L 0 3.5 
" style="stroke: #000000; stroke-width: 0.8"/>
      </defs>
      <g>
       <use xlink:href="#mb9cd78c22c" x="92.099966" y="186.84327" style="stroke: #000000; stroke-width: 0.8"/>
      </g>
     </g>
     <g id="text_1">
      <!-- 1950 -->
      <g transform="translate(79.374966 201.441708) scale(0.1 -0.1)">
       <defs>
        <path id="DejaVuSans-31" d="M 794 531 
L 1825 531 
L 1825 4091 
L 703 3866 
L 703 4441 
L 1819 4666 
L 2450 4666 
L 2450 531 
L 3481 531 
L 3481 0 
L 794 0 
L 794 531 
z
" transform="scale(0.015625)"/>
        <path id="DejaVuSans-39" d="M 703 97 
L 703 672 
Q 941 559 1184 500 
Q 1428 441 1663 441 
Q 2288 441 2617 861 
Q 2947 1281 2994 2138 
Q 2813 1869 2534 1725 
Q 2256 1581 1919 1581 
Q 1219 1581 811 2004 
Q 403 2428 403 3163 
Q 403 3881 828 4315 
Q 1253 4750 1959 4750 
Q 2769 4750 3195 4129 
Q 3622 3509 3622 2328 
Q 3622 1225 3098 567 
Q 2575 -91 1691 -91 
Q 1453 -91 1209 -44 
Q 966 3 703 97 
z
M 1959 2075 
Q 2384 2075 2632 2365 
Q 2881 2656 2881 3163 
Q 2881 3666 2632 3958 
Q 2384 4250 1959 4250 
Q 1534 4250 1286 3958 
Q 1038 3666 1038 3163 
Q 1038 2656 1286 2365 
Q 1534 2075 1959 2075 
z
" transform="scale(0.015625)"/>
        <path id="DejaVuSans-35" d="M 691 4666 
L 3169 4666 
L 3169 4134 
L 1269 4134 
L 1269 2991 
Q 1406 3038 1543 3061 
Q 1681 3084 1819 3084 
Q 2600 3084 3056 2656 
Q 3513 2228 3513 1497 
Q 3513 744 3044 326 
Q 2575 -91 1722 -91 
Q 1428 -91 1123 -41 
Q 819 9 494 109 
L 494 744 
Q 775 591 1075 516 
Q 1375 441 1709 441 
Q 2250 441 2565 725 
Q 2881 1009 2881 1497 
Q 2881 1984 2565 2268 
Q 2250 2553 1709 2553 
Q 1456 2553 1204 2497 
Q 953 2441 691 2322 
L 691 4666 
z
" transform="scale(0.015625)"/>
        <path id="DejaVuSans-30" d="M 2034 4250 
Q 1547 4250 1301 3770 
Q 1056 3291 1056 2328 
Q 1056 1369 1301 889 
Q 1547 409 2034 409 
Q 2525 409 2770 889 
Q 3016 1369 3016 2328 
Q 3016 3291 2770 3770 
Q 2525 4250 2034 4250 
z
M 2034 4750 
Q 2819 4750 3233 4129 
Q 3647 3509 3647 2328 
Q 3647 1150 3233 529 
Q 2819 -91 2034 -91 
Q 1250 -91 836 529 
Q 422 1150 422 2328 
Q 422 3509 836 4129 
Q 1250 4750 2034 4750 
z
" transform="scale(0.015625)"/>
       </defs>
       <use xlink:href="#DejaVuSans-31"/>
       <use xlink:href="#DejaVuSans-39" x="63.623047"/>
       <use xlink:href="#DejaVuSans-35" x="127.246094"/>
       <use xlink:href="#DejaVuSans-30" x="190.869141"/>
      </g>
     </g>
    </g>
    <g id="xtick_2">
     <g id="line2d_2">
      <g>
       <use xlink:href="#mb9cd78c22c" x="146.745776" y="186.84327" style="stroke: #000000; stroke-width: 0.8"/>
      </g>
     </g>
     <g id="text_2">
      <!-- 1960 -->
      <g transform="translate(134.020776 201.441708) scale(0.1 -0.1)">
       <defs>
        <path id="DejaVuSans-36" d="M 2113 2584 
Q 1688 2584 1439 2293 
Q 1191 2003 1191 1497 
Q 1191 994 1439 701 
Q 1688 409 2113 409 
Q 2538 409 2786 701 
Q 3034 994 3034 1497 
Q 3034 2003 2786 2293 
Q 2538 2584 2113 2584 
z
M 3366 4563 
L 3366 3988 
Q 3128 4100 2886 4159 
Q 2644 4219 2406 4219 
Q 1781 4219 1451 3797 
Q 1122 3375 1075 2522 
Q 1259 2794 1537 2939 
Q 1816 3084 2150 3084 
Q 2853 3084 3261 2657 
Q 3669 2231 3669 1497 
Q 3669 778 3244 343 
Q 2819 -91 2113 -91 
Q 1303 -91 875 529 
Q 447 1150 447 2328 
Q 447 3434 972 4092 
Q 1497 4750 2381 4750 
Q 2619 4750 2861 4703 
Q 3103 4656 3366 4563 
z
" transform="scale(0.015625)"/>
       </defs>
       <use xlink:href="#DejaVuSans-31"/>
       <use xlink:href="#DejaVuSans-39" x="63.623047"/>
       <use xlink:href="#DejaVuSans-36" x="127.246094"/>
       <use xlink:href="#DejaVuSans-30" x="190.869141"/>
      </g>
     </g>
    </g>
    <g id="xtick_3">
     <g id="line2d_3">
      <g>
       <use xlink:href="#mb9cd78c22c" x="201.391586" y="186.84327" style="stroke: #000000; stroke-width: 0.8"/>
      </g>
     </g>
     <g id="text_3">
      <!-- 1970 -->
      <g transform="translate(188.666586 201.441708) scale(0.1 -0.1)">
       <defs>
        <path id="DejaVuSans-37" d="M 525 4666 
L 3525 4666 
L 3525 4397 
L 1831 0 
L 1172 0 
L 2766 4134 
L 525 4134 
L 525 4666 
z
" transform="scale(0.015625)"/>
       </defs>
       <use xlink:href="#DejaVuSans-31"/>
       <use xlink:href="#DejaVuSans-39" x="63.623047"/>
       <use xlink:href="#DejaVuSans-37" x="127.246094"/>
       <use xlink:href="#DejaVuSans-30" x="190.869141"/>
      </g>
     </g>
    </g>
    <g id="xtick_4">
     <g id="line2d_4">
      <g>
       <use xlink:href="#mb9cd78c22c" x="256.037396" y="186.84327" style="stroke: #000000; stroke-width: 0.8"/>
      </g>
     </g>
     <g id="text_4">
      <!-- 1980 -->
      <g transform="translate(243.312396 201.441708) scale(0.1 -0.1)">
       <defs>
        <path id="DejaVuSans-38" d="M 2034 2216 
Q 1584 2216 1326 1975 
Q 1069 1734 1069 1313 
Q 1069 891 1326 650 
Q 1584 409 2034 409 
Q 2484 409 2743 651 
Q 3003 894 3003 1313 
Q 3003 1734 2745 1975 
Q 2488 2216 2034 2216 
z
M 1403 2484 
Q 997 2584 770 2862 
Q 544 3141 544 3541 
Q 544 4100 942 4425 
Q 1341 4750 2034 4750 
Q 2731 4750 3128 4425 
Q 3525 4100 3525 3541 
Q 3525 3141 3298 2862 
Q 3072 2584 2669 2484 
Q 3125 2378 3379 2068 
Q 3634 1759 3634 1313 
Q 3634 634 3220 271 
Q 2806 -91 2034 -91 
Q 1263 -91 848 271 
Q 434 634 434 1313 
Q 434 1759 690 2068 
Q 947 2378 1403 2484 
z
M 1172 3481 
Q 1172 3119 1398 2916 
Q 1625 2713 2034 2713 
Q 2441 2713 2670 2916 
Q 2900 3119 2900 3481 
Q 2900 3844 2670 4047 
Q 2441 4250 2034 4250 
Q 1625 4250 1398 4047 
Q 1172 3844 1172 3481 
z
" transform="scale(0.015625)"/>
       </defs>
       <use xlink:href="#DejaVuSans-31"/>
       <use xlink:href="#DejaVuSans-39" x="63.623047"/>
       <use xlink:href="#DejaVuSans-38" x="127.246094"/>
       <use xlink:href="#DejaVuSans-30" x="190.869141"/>
      </g>
     </g>
    </g>
    <g id="xtick_5">
     <g id="line2d_5">
      <g>
       <use xlink:href="#mb9cd78c22c" x="310.683206" y="186.84327" style="stroke: #000000; stroke-width: 0.8"/>
      </g>
     </g>
     <g id="text_5">
      <!-- 1990 -->
      <g transform="translate(297.958206 201.441708) scale(0.1 -0.1)">
       <use xlink:href="#DejaVuSans-31"/>
       <use xlink:href="#DejaVuSans-39" x="63.623047"/>
       <use xlink:href="#DejaVuSans-39" x="127.246094"/>
       <use xlink:href="#DejaVuSans-30" x="190.869141"/>
      </g>
     </g>
    </g>
    <g id="xtick_6">
     <g id="line2d_6">
      <g>
       <use xlink:href="#mb9cd78c22c" x="365.329016" y="186.84327" style="stroke: #000000; stroke-width: 0.8"/>
      </g>
     </g>
     <g id="text_6">
      <!-- 2000 -->
      <g transform="translate(352.604016 201.441708) scale(0.1 -0.1)">
       <defs>
        <path id="DejaVuSans-32" d="M 1228 531 
L 3431 531 
L 3431 0 
L 469 0 
L 469 531 
Q 828 903 1448 1529 
Q 2069 2156 2228 2338 
Q 2531 2678 2651 2914 
Q 2772 3150 2772 3378 
Q 2772 3750 2511 3984 
Q 2250 4219 1831 4219 
Q 1534 4219 1204 4116 
Q 875 4013 500 3803 
L 500 4441 
Q 881 4594 1212 4672 
Q 1544 4750 1819 4750 
Q 2544 4750 2975 4387 
Q 3406 4025 3406 3419 
Q 3406 3131 3298 2873 
Q 3191 2616 2906 2266 
Q 2828 2175 2409 1742 
Q 1991 1309 1228 531 
z
" transform="scale(0.015625)"/>
       </defs>
       <use xlink:href="#DejaVuSans-32"/>
       <use xlink:href="#DejaVuSans-30" x="63.623047"/>
       <use xlink:href="#DejaVuSans-30" x="127.246094"/>
       <use xlink:href="#DejaVuSans-30" x="190.869141"/>
      </g>
     </g>
    </g>
    <g id="xtick_7">
     <g id="line2d_7">
      <g>
       <use xlink:href="#mb9cd78c22c" x="419.974826" y="186.84327" style="stroke: #000000; stroke-width: 0.8"/>
      </g>
     </g>
     <g id="text_7">
      <!-- 2010 -->
      <g transform="translate(407.249826 201.441708) scale(0.1 -0.1)">
       <use xlink:href="#DejaVuSans-32"/>
       <use xlink:href="#DejaVuSans-30" x="63.623047"/>
       <use xlink:href="#DejaVuSans-31" x="127.246094"/>
       <use xlink:href="#DejaVuSans-30" x="190.869141"/>
      </g>
     </g>
    </g>
    <g id="xtick_8">
     <g id="line2d_8">
      <g>
       <use xlink:href="#mb9cd78c22c" x="474.620636" y="186.84327" style="stroke: #000000; stroke-width: 0.8"/>
      </g>
     </g>
     <g id="text_8">
      <!-- 2020 -->
      <g transform="translate(461.895636 201.441708) scale(0.1 -0.1)">
       <use xlink:href="#DejaVuSans-32"/>
       <use xlink:href="#DejaVuSans-30" x="63.623047"/>
       <use xlink:href="#DejaVuSans-32" x="127.246094"/>
       <use xlink:href="#DejaVuSans-30" x="190.869141"/>
      </g>
     </g>
    </g>
    <g id="text_9">
     <!-- Year -->
     <g transform="translate(278.465072 215.119833) scale(0.1 -0.1)">
      <defs>
       <path id="DejaVuSans-59" d="M -13 4666 
L 666 4666 
L 1959 2747 
L 3244 4666 
L 3922 4666 
L 2272 2222 
L 2272 0 
L 1638 0 
L 1638 2222 
L -13 4666 
z
" transform="scale(0.015625)"/>
       <path id="DejaVuSans-65" d="M 3597 1894 
L 3597 1613 
L 953 1613 
Q 991 1019 1311 708 
Q 1631 397 2203 397 
Q 2534 397 2845 478 
Q 3156 559 3463 722 
L 3463 178 
Q 3153 47 2828 -22 
Q 2503 -91 2169 -91 
Q 1331 -91 842 396 
Q 353 884 353 1716 
Q 353 2575 817 3079 
Q 1281 3584 2069 3584 
Q 2775 3584 3186 3129 
Q 3597 2675 3597 1894 
z
M 3022 2063 
Q 3016 2534 2758 2815 
Q 2500 3097 2075 3097 
Q 1594 3097 1305 2825 
Q 1016 2553 972 2059 
L 3022 2063 
z
" transform="scale(0.015625)"/>
       <path id="DejaVuSans-61" d="M 2194 1759 
Q 1497 1759 1228 1600 
Q 959 1441 959 1056 
Q 959 750 1161 570 
Q 1363 391 1709 391 
Q 2188 391 2477 730 
Q 2766 1069 2766 1631 
L 2766 1759 
L 2194 1759 
z
M 3341 1997 
L 3341 0 
L 2766 0 
L 2766 531 
Q 2569 213 2275 61 
Q 1981 -91 1556 -91 
Q 1019 -91 701 211 
Q 384 513 384 1019 
Q 384 1609 779 1909 
Q 1175 2209 1959 2209 
L 2766 2209 
L 2766 2266 
Q 2766 2663 2505 2880 
Q 2244 3097 1772 3097 
Q 1472 3097 1187 3025 
Q 903 2953 641 2809 
L 641 3341 
Q 956 3463 1253 3523 
Q 1550 3584 1831 3584 
Q 2591 3584 2966 3190 
Q 3341 2797 3341 1997 
z
" transform="scale(0.015625)"/>
       <path id="DejaVuSans-72" d="M 2631 2963 
Q 2534 3019 2420 3045 
Q 2306 3072 2169 3072 
Q 1681 3072 1420 2755 
Q 1159 2438 1159 1844 
L 1159 0 
L 581 0 
L 581 3500 
L 1159 3500 
L 1159 2956 
Q 1341 3275 1631 3429 
Q 1922 3584 2338 3584 
Q 2397 3584 2469 3576 
Q 2541 3569 2628 3553 
L 2631 2963 
z
" transform="scale(0.015625)"/>
      </defs>
      <use xlink:href="#DejaVuSans-59"/>
      <use xlink:href="#DejaVuSans-65" x="47.833984"/>
      <use xlink:href="#DejaVuSans-61" x="109.357422"/>
      <use xlink:href="#DejaVuSans-72" x="170.636719"/>
     </g>
    </g>
   </g>
   <g id="matplotlib.axis_2">
    <g id="ytick_1">
     <g id="line2d_9">
      <defs>
       <path id="m256f3d091f" d="M 0 0 
L -3.5 0 
" style="stroke: #000000; stroke-width: 0.8"/>
      </defs>
      <g>
       <use xlink:href="#m256f3d091f" x="72.905625" y="186.84327" style="stroke: #000000; stroke-width: 0.8"/>
      </g>
     </g>
     <g id="text_10">
      <!-- −3500 -->
      <g transform="translate(32.075938 190.642489) scale(0.1 -0.1)">
       <defs>
        <path id="DejaVuSans-2212" d="M 678 2272 
L 4684 2272 
L 4684 1741 
L 678 1741 
L 678 2272 
z
" transform="scale(0.015625)"/>
        <path id="DejaVuSans-33" d="M 2597 2516 
Q 3050 2419 3304 2112 
Q 3559 1806 3559 1356 
Q 3559 666 3084 287 
Q 2609 -91 1734 -91 
Q 1441 -91 1130 -33 
Q 819 25 488 141 
L 488 750 
Q 750 597 1062 519 
Q 1375 441 1716 441 
Q 2309 441 2620 675 
Q 2931 909 2931 1356 
Q 2931 1769 2642 2001 
Q 2353 2234 1838 2234 
L 1294 2234 
L 1294 2753 
L 1863 2753 
Q 2328 2753 2575 2939 
Q 2822 3125 2822 3475 
Q 2822 3834 2567 4026 
Q 2313 4219 1838 4219 
Q 1578 4219 1281 4162 
Q 984 4106 628 3988 
L 628 4550 
Q 988 4650 1302 4700 
Q 1616 4750 1894 4750 
Q 2613 4750 3031 4423 
Q 3450 4097 3450 3541 
Q 3450 3153 3228 2886 
Q 3006 2619 2597 2516 
z
" transform="scale(0.015625)"/>
       </defs>
       <use xlink:href="#DejaVuSans-2212"/>
       <use xlink:href="#DejaVuSans-33" x="83.789062"/>
       <use xlink:href="#DejaVuSans-35" x="147.412109"/>
       <use xlink:href="#DejaVuSans-30" x="211.035156"/>
       <use xlink:href="#DejaVuSans-30" x="274.658203"/>
      </g>
     </g>
    </g>
    <g id="ytick_2">
     <g id="line2d_10">
      <g>
       <use xlink:href="#m256f3d091f" x="72.905625" y="164.862764" style="stroke: #000000; stroke-width: 0.8"/>
      </g>
     </g>
     <g id="text_11">
      <!-- −3000 -->
      <g transform="translate(32.075938 168.661982) scale(0.1 -0.1)">
       <use xlink:href="#DejaVuSans-2212"/>
       <use xlink:href="#DejaVuSans-33" x="83.789062"/>
       <use xlink:href="#DejaVuSans-30" x="147.412109"/>
       <use xlink:href="#DejaVuSans-30" x="211.035156"/>
       <use xlink:href="#DejaVuSans-30" x="274.658203"/>
      </g>
     </g>
    </g>
    <g id="ytick_3">
     <g id="line2d_11">
      <g>
       <use xlink:href="#m256f3d091f" x="72.905625" y="142.882257" style="stroke: #000000; stroke-width: 0.8"/>
      </g>
     </g>
     <g id="text_12">
      <!-- −2500 -->
      <g transform="translate(32.075938 146.681476) scale(0.1 -0.1)">
       <use xlink:href="#DejaVuSans-2212"/>
       <use xlink:href="#DejaVuSans-32" x="83.789062"/>
       <use xlink:href="#DejaVuSans-35" x="147.412109"/>
       <use xlink:href="#DejaVuSans-30" x="211.035156"/>
       <use xlink:href="#DejaVuSans-30" x="274.658203"/>
      </g>
     </g>
    </g>
    <g id="ytick_4">
     <g id="line2d_12">
      <g>
       <use xlink:href="#m256f3d091f" x="72.905625" y="120.901751" style="stroke: #000000; stroke-width: 0.8"/>
      </g>
     </g>
     <g id="text_13">
      <!-- −2000 -->
      <g transform="translate(32.075938 124.70097) scale(0.1 -0.1)">
       <use xlink:href="#DejaVuSans-2212"/>
       <use xlink:href="#DejaVuSans-32" x="83.789062"/>
       <use xlink:href="#DejaVuSans-30" x="147.412109"/>
       <use xlink:href="#DejaVuSans-30" x="211.035156"/>
       <use xlink:href="#DejaVuSans-30" x="274.658203"/>
      </g>
     </g>
    </g>
    <g id="ytick_5">
     <g id="line2d_13">
      <g>
       <use xlink:href="#m256f3d091f" x="72.905625" y="98.921244" style="stroke: #000000; stroke-width: 0.8"/>
      </g>
     </g>
     <g id="text_14">
      <!-- −1500 -->
      <g transform="translate(32.075938 102.720463) scale(0.1 -0.1)">
       <use xlink:href="#DejaVuSans-2212"/>
       <use xlink:href="#DejaVuSans-31" x="83.789062"/>
       <use xlink:href="#DejaVuSans-35" x="147.412109"/>
       <use xlink:href="#DejaVuSans-30" x="211.035156"/>
       <use xlink:href="#DejaVuSans-30" x="274.658203"/>
      </g>
     </g>
    </g>
    <g id="ytick_6">
     <g id="line2d_14">
      <g>
       <use xlink:href="#m256f3d091f" x="72.905625" y="76.940738" style="stroke: #000000; stroke-width: 0.8"/>
      </g>
     </g>
     <g id="text_15">
      <!-- −1000 -->
      <g transform="translate(32.075938 80.739957) scale(0.1 -0.1)">
       <use xlink:href="#DejaVuSans-2212"/>
       <use xlink:href="#DejaVuSans-31" x="83.789062"/>
       <use xlink:href="#DejaVuSans-30" x="147.412109"/>
       <use xlink:href="#DejaVuSans-30" x="211.035156"/>
       <use xlink:href="#DejaVuSans-30" x="274.658203"/>
      </g>
     </g>
    </g>
    <g id="ytick_7">
     <g id="line2d_15">
      <g>
       <use xlink:href="#m256f3d091f" x="72.905625" y="54.960232" style="stroke: #000000; stroke-width: 0.8"/>
      </g>
     </g>
     <g id="text_16">
      <!-- −500 -->
      <g transform="translate(38.438437 58.75945) scale(0.1 -0.1)">
       <use xlink:href="#DejaVuSans-2212"/>
       <use xlink:href="#DejaVuSans-35" x="83.789062"/>
       <use xlink:href="#DejaVuSans-30" x="147.412109"/>
       <use xlink:href="#DejaVuSans-30" x="211.035156"/>
      </g>
     </g>
    </g>
    <g id="ytick_8">
     <g id="line2d_16">
      <g>
       <use xlink:href="#m256f3d091f" x="72.905625" y="32.979725" style="stroke: #000000; stroke-width: 0.8"/>
      </g>
     </g>
     <g id="text_17">
      <!-- 0 -->
      <g transform="translate(59.543125 36.778944) scale(0.1 -0.1)">
       <use xlink:href="#DejaVuSans-30"/>
      </g>
     </g>
    </g>
    <g id="ytick_9">
     <g id="line2d_17">
      <g>
       <use xlink:href="#m256f3d091f" x="72.905625" y="10.999219" style="stroke: #000000; stroke-width: 0.8"/>
      </g>
     </g>
     <g id="text_18">
      <!-- 500 -->
      <g transform="translate(46.818125 14.798438) scale(0.1 -0.1)">
       <use xlink:href="#DejaVuSans-35"/>
       <use xlink:href="#DejaVuSans-30" x="63.623047"/>
       <use xlink:href="#DejaVuSans-30" x="127.246094"/>
      </g>
     </g>
    </g>
    <g id="text_19">
     <!-- Cumulative SMB Anomaly [Gt]  -->
     <g transform="translate(14.798438 176.400932) rotate(-90) scale(0.1 -0.1)">
      <defs>
       <path id="DejaVuSans-43" d="M 4122 4306 
L 4122 3641 
Q 3803 3938 3442 4084 
Q 3081 4231 2675 4231 
Q 1875 4231 1450 3742 
Q 1025 3253 1025 2328 
Q 1025 1406 1450 917 
Q 1875 428 2675 428 
Q 3081 428 3442 575 
Q 3803 722 4122 1019 
L 4122 359 
Q 3791 134 3420 21 
Q 3050 -91 2638 -91 
Q 1578 -91 968 557 
Q 359 1206 359 2328 
Q 359 3453 968 4101 
Q 1578 4750 2638 4750 
Q 3056 4750 3426 4639 
Q 3797 4528 4122 4306 
z
" transform="scale(0.015625)"/>
       <path id="DejaVuSans-75" d="M 544 1381 
L 544 3500 
L 1119 3500 
L 1119 1403 
Q 1119 906 1312 657 
Q 1506 409 1894 409 
Q 2359 409 2629 706 
Q 2900 1003 2900 1516 
L 2900 3500 
L 3475 3500 
L 3475 0 
L 2900 0 
L 2900 538 
Q 2691 219 2414 64 
Q 2138 -91 1772 -91 
Q 1169 -91 856 284 
Q 544 659 544 1381 
z
M 1991 3584 
L 1991 3584 
z
" transform="scale(0.015625)"/>
       <path id="DejaVuSans-6d" d="M 3328 2828 
Q 3544 3216 3844 3400 
Q 4144 3584 4550 3584 
Q 5097 3584 5394 3201 
Q 5691 2819 5691 2113 
L 5691 0 
L 5113 0 
L 5113 2094 
Q 5113 2597 4934 2840 
Q 4756 3084 4391 3084 
Q 3944 3084 3684 2787 
Q 3425 2491 3425 1978 
L 3425 0 
L 2847 0 
L 2847 2094 
Q 2847 2600 2669 2842 
Q 2491 3084 2119 3084 
Q 1678 3084 1418 2786 
Q 1159 2488 1159 1978 
L 1159 0 
L 581 0 
L 581 3500 
L 1159 3500 
L 1159 2956 
Q 1356 3278 1631 3431 
Q 1906 3584 2284 3584 
Q 2666 3584 2933 3390 
Q 3200 3197 3328 2828 
z
" transform="scale(0.015625)"/>
       <path id="DejaVuSans-6c" d="M 603 4863 
L 1178 4863 
L 1178 0 
L 603 0 
L 603 4863 
z
" transform="scale(0.015625)"/>
       <path id="DejaVuSans-74" d="M 1172 4494 
L 1172 3500 
L 2356 3500 
L 2356 3053 
L 1172 3053 
L 1172 1153 
Q 1172 725 1289 603 
Q 1406 481 1766 481 
L 2356 481 
L 2356 0 
L 1766 0 
Q 1100 0 847 248 
Q 594 497 594 1153 
L 594 3053 
L 172 3053 
L 172 3500 
L 594 3500 
L 594 4494 
L 1172 4494 
z
" transform="scale(0.015625)"/>
       <path id="DejaVuSans-69" d="M 603 3500 
L 1178 3500 
L 1178 0 
L 603 0 
L 603 3500 
z
M 603 4863 
L 1178 4863 
L 1178 4134 
L 603 4134 
L 603 4863 
z
" transform="scale(0.015625)"/>
       <path id="DejaVuSans-76" d="M 191 3500 
L 800 3500 
L 1894 563 
L 2988 3500 
L 3597 3500 
L 2284 0 
L 1503 0 
L 191 3500 
z
" transform="scale(0.015625)"/>
       <path id="DejaVuSans-20" transform="scale(0.015625)"/>
       <path id="DejaVuSans-53" d="M 3425 4513 
L 3425 3897 
Q 3066 4069 2747 4153 
Q 2428 4238 2131 4238 
Q 1616 4238 1336 4038 
Q 1056 3838 1056 3469 
Q 1056 3159 1242 3001 
Q 1428 2844 1947 2747 
L 2328 2669 
Q 3034 2534 3370 2195 
Q 3706 1856 3706 1288 
Q 3706 609 3251 259 
Q 2797 -91 1919 -91 
Q 1588 -91 1214 -16 
Q 841 59 441 206 
L 441 856 
Q 825 641 1194 531 
Q 1563 422 1919 422 
Q 2459 422 2753 634 
Q 3047 847 3047 1241 
Q 3047 1584 2836 1778 
Q 2625 1972 2144 2069 
L 1759 2144 
Q 1053 2284 737 2584 
Q 422 2884 422 3419 
Q 422 4038 858 4394 
Q 1294 4750 2059 4750 
Q 2388 4750 2728 4690 
Q 3069 4631 3425 4513 
z
" transform="scale(0.015625)"/>
       <path id="DejaVuSans-4d" d="M 628 4666 
L 1569 4666 
L 2759 1491 
L 3956 4666 
L 4897 4666 
L 4897 0 
L 4281 0 
L 4281 4097 
L 3078 897 
L 2444 897 
L 1241 4097 
L 1241 0 
L 628 0 
L 628 4666 
z
" transform="scale(0.015625)"/>
       <path id="DejaVuSans-42" d="M 1259 2228 
L 1259 519 
L 2272 519 
Q 2781 519 3026 730 
Q 3272 941 3272 1375 
Q 3272 1813 3026 2020 
Q 2781 2228 2272 2228 
L 1259 2228 
z
M 1259 4147 
L 1259 2741 
L 2194 2741 
Q 2656 2741 2882 2914 
Q 3109 3088 3109 3444 
Q 3109 3797 2882 3972 
Q 2656 4147 2194 4147 
L 1259 4147 
z
M 628 4666 
L 2241 4666 
Q 2963 4666 3353 4366 
Q 3744 4066 3744 3513 
Q 3744 3084 3544 2831 
Q 3344 2578 2956 2516 
Q 3422 2416 3680 2098 
Q 3938 1781 3938 1306 
Q 3938 681 3513 340 
Q 3088 0 2303 0 
L 628 0 
L 628 4666 
z
" transform="scale(0.015625)"/>
       <path id="DejaVuSans-41" d="M 2188 4044 
L 1331 1722 
L 3047 1722 
L 2188 4044 
z
M 1831 4666 
L 2547 4666 
L 4325 0 
L 3669 0 
L 3244 1197 
L 1141 1197 
L 716 0 
L 50 0 
L 1831 4666 
z
" transform="scale(0.015625)"/>
       <path id="DejaVuSans-6e" d="M 3513 2113 
L 3513 0 
L 2938 0 
L 2938 2094 
Q 2938 2591 2744 2837 
Q 2550 3084 2163 3084 
Q 1697 3084 1428 2787 
Q 1159 2491 1159 1978 
L 1159 0 
L 581 0 
L 581 3500 
L 1159 3500 
L 1159 2956 
Q 1366 3272 1645 3428 
Q 1925 3584 2291 3584 
Q 2894 3584 3203 3211 
Q 3513 2838 3513 2113 
z
" transform="scale(0.015625)"/>
       <path id="DejaVuSans-6f" d="M 1959 3097 
Q 1497 3097 1228 2736 
Q 959 2375 959 1747 
Q 959 1119 1226 758 
Q 1494 397 1959 397 
Q 2419 397 2687 759 
Q 2956 1122 2956 1747 
Q 2956 2369 2687 2733 
Q 2419 3097 1959 3097 
z
M 1959 3584 
Q 2709 3584 3137 3096 
Q 3566 2609 3566 1747 
Q 3566 888 3137 398 
Q 2709 -91 1959 -91 
Q 1206 -91 779 398 
Q 353 888 353 1747 
Q 353 2609 779 3096 
Q 1206 3584 1959 3584 
z
" transform="scale(0.015625)"/>
       <path id="DejaVuSans-79" d="M 2059 -325 
Q 1816 -950 1584 -1140 
Q 1353 -1331 966 -1331 
L 506 -1331 
L 506 -850 
L 844 -850 
Q 1081 -850 1212 -737 
Q 1344 -625 1503 -206 
L 1606 56 
L 191 3500 
L 800 3500 
L 1894 763 
L 2988 3500 
L 3597 3500 
L 2059 -325 
z
" transform="scale(0.015625)"/>
       <path id="DejaVuSans-5b" d="M 550 4863 
L 1875 4863 
L 1875 4416 
L 1125 4416 
L 1125 -397 
L 1875 -397 
L 1875 -844 
L 550 -844 
L 550 4863 
z
" transform="scale(0.015625)"/>
       <path id="DejaVuSans-47" d="M 3809 666 
L 3809 1919 
L 2778 1919 
L 2778 2438 
L 4434 2438 
L 4434 434 
Q 4069 175 3628 42 
Q 3188 -91 2688 -91 
Q 1594 -91 976 548 
Q 359 1188 359 2328 
Q 359 3472 976 4111 
Q 1594 4750 2688 4750 
Q 3144 4750 3555 4637 
Q 3966 4525 4313 4306 
L 4313 3634 
Q 3963 3931 3569 4081 
Q 3175 4231 2741 4231 
Q 1884 4231 1454 3753 
Q 1025 3275 1025 2328 
Q 1025 1384 1454 906 
Q 1884 428 2741 428 
Q 3075 428 3337 486 
Q 3600 544 3809 666 
z
" transform="scale(0.015625)"/>
       <path id="DejaVuSans-5d" d="M 1947 4863 
L 1947 -844 
L 622 -844 
L 622 -397 
L 1369 -397 
L 1369 4416 
L 622 4416 
L 622 4863 
L 1947 4863 
z
" transform="scale(0.015625)"/>
      </defs>
      <use xlink:href="#DejaVuSans-43"/>
      <use xlink:href="#DejaVuSans-75" x="69.824219"/>
      <use xlink:href="#DejaVuSans-6d" x="133.203125"/>
      <use xlink:href="#DejaVuSans-75" x="230.615234"/>
      <use xlink:href="#DejaVuSans-6c" x="293.994141"/>
      <use xlink:href="#DejaVuSans-61" x="321.777344"/>
      <use xlink:href="#DejaVuSans-74" x="383.056641"/>
      <use xlink:href="#DejaVuSans-69" x="422.265625"/>
      <use xlink:href="#DejaVuSans-76" x="450.048828"/>
      <use xlink:href="#DejaVuSans-65" x="509.228516"/>
      <use xlink:href="#DejaVuSans-20" x="570.751953"/>
      <use xlink:href="#DejaVuSans-53" x="602.539062"/>
      <use xlink:href="#DejaVuSans-4d" x="666.015625"/>
      <use xlink:href="#DejaVuSans-42" x="752.294922"/>
      <use xlink:href="#DejaVuSans-20" x="820.898438"/>
      <use xlink:href="#DejaVuSans-41" x="852.685547"/>
      <use xlink:href="#DejaVuSans-6e" x="921.09375"/>
      <use xlink:href="#DejaVuSans-6f" x="984.472656"/>
      <use xlink:href="#DejaVuSans-6d" x="1045.654297"/>
      <use xlink:href="#DejaVuSans-61" x="1143.066406"/>
      <use xlink:href="#DejaVuSans-6c" x="1204.345703"/>
      <use xlink:href="#DejaVuSans-79" x="1232.128906"/>
      <use xlink:href="#DejaVuSans-20" x="1291.308594"/>
      <use xlink:href="#DejaVuSans-5b" x="1323.095703"/>
      <use xlink:href="#DejaVuSans-47" x="1362.109375"/>
      <use xlink:href="#DejaVuSans-74" x="1439.599609"/>
      <use xlink:href="#DejaVuSans-5d" x="1478.808594"/>
      <use xlink:href="#DejaVuSans-20" x="1517.822266"/>
     </g>
     <!-- (w.r.t 1960-1990) -->
     <g transform="translate(25.99625 142.036088) rotate(-90) scale(0.1 -0.1)">
      <defs>
       <path id="DejaVuSans-28" d="M 1984 4856 
Q 1566 4138 1362 3434 
Q 1159 2731 1159 2009 
Q 1159 1288 1364 580 
Q 1569 -128 1984 -844 
L 1484 -844 
Q 1016 -109 783 600 
Q 550 1309 550 2009 
Q 550 2706 781 3412 
Q 1013 4119 1484 4856 
L 1984 4856 
z
" transform="scale(0.015625)"/>
       <path id="DejaVuSans-77" d="M 269 3500 
L 844 3500 
L 1563 769 
L 2278 3500 
L 2956 3500 
L 3675 769 
L 4391 3500 
L 4966 3500 
L 4050 0 
L 3372 0 
L 2619 2869 
L 1863 0 
L 1184 0 
L 269 3500 
z
" transform="scale(0.015625)"/>
       <path id="DejaVuSans-2e" d="M 684 794 
L 1344 794 
L 1344 0 
L 684 0 
L 684 794 
z
" transform="scale(0.015625)"/>
       <path id="DejaVuSans-2d" d="M 313 2009 
L 1997 2009 
L 1997 1497 
L 313 1497 
L 313 2009 
z
" transform="scale(0.015625)"/>
       <path id="DejaVuSans-29" d="M 513 4856 
L 1013 4856 
Q 1481 4119 1714 3412 
Q 1947 2706 1947 2009 
Q 1947 1309 1714 600 
Q 1481 -109 1013 -844 
L 513 -844 
Q 928 -128 1133 580 
Q 1338 1288 1338 2009 
Q 1338 2731 1133 3434 
Q 928 4138 513 4856 
z
" transform="scale(0.015625)"/>
      </defs>
      <use xlink:href="#DejaVuSans-28"/>
      <use xlink:href="#DejaVuSans-77" x="39.013672"/>
      <use xlink:href="#DejaVuSans-2e" x="111.675781"/>
      <use xlink:href="#DejaVuSans-72" x="143.462891"/>
      <use xlink:href="#DejaVuSans-2e" x="175.451172"/>
      <use xlink:href="#DejaVuSans-74" x="207.238281"/>
      <use xlink:href="#DejaVuSans-20" x="246.447266"/>
      <use xlink:href="#DejaVuSans-31" x="278.234375"/>
      <use xlink:href="#DejaVuSans-39" x="341.857422"/>
      <use xlink:href="#DejaVuSans-36" x="405.480469"/>
      <use xlink:href="#DejaVuSans-30" x="469.103516"/>
      <use xlink:href="#DejaVuSans-2d" x="532.726562"/>
      <use xlink:href="#DejaVuSans-31" x="568.810547"/>
      <use xlink:href="#DejaVuSans-39" x="632.433594"/>
      <use xlink:href="#DejaVuSans-39" x="696.056641"/>
      <use xlink:href="#DejaVuSans-30" x="759.679688"/>
      <use xlink:href="#DejaVuSans-29" x="823.302734"/>
     </g>
    </g>
   </g>
   <g id="line2d_18">
    <path d="M 92.555347 31.059297 
L 93.010729 30.886619 
L 93.466111 30.559179 
L 93.921493 30.652279 
L 94.376874 30.081809 
L 94.832256 33.997125 
L 95.287638 41.464042 
L 95.74302 44.580867 
L 96.198401 44.641042 
L 96.653783 43.876133 
L 97.109165 42.3558 
L 97.564547 41.407316 
L 98.019928 41.286942 
L 98.47531 40.660259 
L 99.386074 40.208526 
L 99.841455 39.121208 
L 100.296837 43.157828 
L 100.752219 48.920302 
L 101.207601 51.831176 
L 101.662982 52.067252 
L 102.573746 50.381607 
L 103.029128 50.497919 
L 104.395273 48.552655 
L 104.850655 48.521751 
L 105.306036 48.229548 
L 105.761418 50.702948 
L 106.672182 58.947606 
L 107.127563 57.394715 
L 107.582945 54.808892 
L 108.038327 53.489404 
L 108.493709 52.797134 
L 109.404472 50.854497 
L 109.859854 50.116956 
L 110.315236 50.164068 
L 110.770617 49.956872 
L 111.225999 50.973107 
L 111.681381 55.98128 
L 112.136763 58.396224 
L 112.592144 56.953647 
L 113.047526 56.306068 
L 113.95829 53.93909 
L 114.869053 50.041582 
L 115.324435 49.70753 
L 115.779817 48.574979 
L 116.235198 48.466808 
L 116.69058 49.687814 
L 117.145962 53.273355 
L 117.601344 55.238123 
L 118.056725 55.519031 
L 118.512107 54.032799 
L 118.967489 51.908173 
L 119.422871 51.258283 
L 120.333634 50.964437 
L 120.789016 49.693075 
L 121.699779 48.043731 
L 122.155161 50.120822 
L 123.065925 52.773314 
L 123.976688 49.325844 
L 124.43207 48.117365 
L 124.887452 48.317543 
L 125.342833 47.420405 
L 126.253597 44.239269 
L 126.708979 44.102973 
L 127.16436 43.819855 
L 127.619742 46.14371 
L 128.075124 51.39899 
L 128.530506 53.923869 
L 128.985887 52.914978 
L 130.807414 44.38429 
L 131.262796 45.220878 
L 131.718178 45.703152 
L 132.17356 44.963786 
L 132.628941 44.538526 
L 133.084323 48.398509 
L 133.539705 56.132133 
L 133.995087 59.69685 
L 134.450468 59.321176 
L 135.361232 55.500426 
L 135.816614 54.854588 
L 136.271995 54.462024 
L 136.727377 53.879769 
L 137.638141 51.913965 
L 138.093522 52.216346 
L 138.548904 54.955758 
L 139.004286 61.179586 
L 139.459668 63.268857 
L 139.915049 60.752798 
L 140.825813 57.636836 
L 141.281195 56.623271 
L 141.736576 56.453729 
L 142.64734 54.352498 
L 143.558103 55.015944 
L 144.013485 58.245784 
L 144.468867 63.500289 
L 144.924249 64.598113 
L 145.835012 59.445004 
L 146.290394 58.646273 
L 147.656539 55.472855 
L 148.111921 53.483139 
L 149.022684 52.942447 
L 149.478066 56.093285 
L 149.933448 62.822776 
L 150.38883 66.51656 
L 150.844211 65.383246 
L 151.299593 63.750733 
L 151.754975 62.661255 
L 152.210357 61.959735 
L 152.665738 60.563379 
L 153.576502 59.7699 
L 154.031884 59.735038 
L 154.487265 58.971 
L 154.942647 60.953562 
L 155.398029 64.587803 
L 155.853411 66.070216 
L 156.308792 65.101345 
L 156.764174 63.498177 
L 157.219556 62.627048 
L 157.674938 62.218662 
L 158.585701 60.84194 
L 159.041083 60.992021 
L 159.496465 60.195937 
L 159.951846 60.465092 
L 160.407228 62.810408 
L 160.86261 68.284209 
L 161.317992 69.628823 
L 162.228755 67.871487 
L 163.5949 63.959109 
L 164.505664 62.517742 
L 165.416427 62.072761 
L 165.871809 63.330076 
L 166.327191 67.180483 
L 166.782573 69.297214 
L 167.237954 67.924379 
L 168.148718 66.301537 
L 168.6041 64.866036 
L 169.970245 58.556666 
L 170.425627 58.272009 
L 170.881008 58.211417 
L 171.33639 59.047947 
L 171.791772 59.600205 
L 172.247154 60.991538 
L 172.702535 60.617543 
L 173.157917 58.897872 
L 173.613299 58.317813 
L 174.068681 57.538307 
L 174.524062 55.936075 
L 174.979444 53.405709 
L 175.434826 53.318232 
L 175.890208 53.020734 
L 176.345589 53.795965 
L 176.800971 55.300666 
L 177.256353 59.277102 
L 177.711735 61.733957 
L 178.167116 61.119482 
L 178.622498 59.799993 
L 179.07788 59.22128 
L 179.988643 59.625503 
L 180.444025 60.161678 
L 181.354789 60.43507 
L 181.81017 61.620759 
L 182.265552 64.537783 
L 182.720934 69.410937 
L 183.176316 72.649411 
L 184.542461 68.599497 
L 184.997843 68.094609 
L 185.453224 66.56117 
L 185.908606 65.438759 
L 186.363988 65.760526 
L 186.81937 65.175595 
L 187.274751 65.597024 
L 187.730133 67.190102 
L 188.185515 71.401268 
L 188.640897 72.180668 
L 189.096278 69.316452 
L 189.55166 68.809461 
L 190.007042 67.655747 
L 190.462424 67.483366 
L 190.917805 67.544262 
L 192.283951 65.094926 
L 192.739332 65.772342 
L 193.194714 69.012382 
L 193.650096 74.384647 
L 194.105478 75.935011 
L 194.560859 74.842751 
L 195.016241 74.150375 
L 195.471623 72.891887 
L 195.927005 72.343111 
L 196.382386 72.248098 
L 196.837768 71.404019 
L 198.203913 70.568646 
L 198.659295 72.236371 
L 199.114677 75.850041 
L 199.570059 77.939208 
L 200.480822 76.683504 
L 200.936204 74.430864 
L 201.391586 72.882665 
L 201.846967 71.927556 
L 202.302349 71.468222 
L 203.668494 70.667043 
L 204.123876 71.745103 
L 204.579258 75.473086 
L 205.03464 75.961813 
L 205.945403 72.887953 
L 206.400785 72.024474 
L 206.856167 70.538085 
L 207.76693 70.429394 
L 208.222312 70.853339 
L 208.677694 70.874208 
L 209.133075 70.758298 
L 209.588457 73.864621 
L 210.043839 79.185738 
L 210.499221 80.072536 
L 210.954602 79.016029 
L 211.409984 78.676974 
L 212.320748 75.881285 
L 212.776129 72.61638 
L 213.686893 70.530933 
L 214.142275 70.00181 
L 214.597656 68.985478 
L 215.053038 69.138324 
L 215.50842 69.988513 
L 215.963802 69.694174 
L 216.874565 66.317553 
L 217.329947 65.908066 
L 217.785329 65.048615 
L 218.24071 63.449522 
L 218.696092 63.614042 
L 219.151474 63.159569 
L 219.606856 62.017302 
L 220.062237 61.853827 
L 220.517619 63.098858 
L 220.973001 65.743622 
L 221.428383 66.513079 
L 221.883764 64.961512 
L 222.339146 64.456396 
L 222.794528 64.463945 
L 224.160673 62.885523 
L 224.616055 61.467433 
L 225.071437 60.722523 
L 225.526818 61.04927 
L 225.9822 62.16959 
L 226.437582 66.665423 
L 226.892964 68.975424 
L 227.348345 68.068759 
L 227.803727 65.699453 
L 228.259109 64.386931 
L 228.714491 64.819749 
L 229.169872 64.979903 
L 230.080636 62.203057 
L 230.536018 61.305567 
L 230.991399 61.248 
L 231.446781 62.724203 
L 231.902163 65.547688 
L 232.357545 66.714678 
L 233.268308 64.961294 
L 234.179072 62.708857 
L 234.634453 62.148085 
L 235.089835 60.760614 
L 235.545217 58.604169 
L 236.000599 58.018118 
L 236.45598 58.224955 
L 236.911362 59.780706 
L 237.366744 62.580171 
L 237.822126 61.716212 
L 238.732889 57.462731 
L 239.643653 55.343301 
L 240.099034 55.261805 
L 240.554416 54.998602 
L 241.009798 54.890187 
L 241.46518 54.4592 
L 241.920561 53.710674 
L 242.375943 54.977249 
L 242.831325 59.517418 
L 243.286707 61.392738 
L 243.742088 60.020028 
L 244.19747 59.473782 
L 245.108234 56.01078 
L 245.563615 55.186033 
L 246.018997 55.4724 
L 246.474379 55.210842 
L 246.929761 54.191745 
L 247.385142 53.474028 
L 247.840524 54.034448 
L 248.295906 58.823746 
L 248.751288 60.561162 
L 249.206669 59.654981 
L 249.662051 57.635781 
L 250.117433 57.058034 
L 251.028196 54.755942 
L 251.483578 53.976261 
L 251.93896 52.945136 
L 252.394342 52.88243 
L 252.849723 53.032724 
L 253.305105 53.813874 
L 253.760487 57.711633 
L 254.215869 59.366717 
L 254.67125 59.016488 
L 255.126632 57.971712 
L 255.582014 57.349937 
L 257.403541 52.319034 
L 257.858923 51.653797 
L 258.314304 51.776042 
L 258.769686 54.272457 
L 259.225068 58.121889 
L 259.68045 59.492708 
L 260.135831 59.136036 
L 260.591213 58.543439 
L 261.046595 57.346303 
L 261.957358 56.799148 
L 262.41274 56.801919 
L 262.868122 56.547889 
L 263.323504 55.393623 
L 263.778885 55.743743 
L 264.689649 62.939929 
L 265.145031 63.756744 
L 265.600412 63.079168 
L 266.055794 62.123114 
L 266.511176 61.507856 
L 266.966558 61.174655 
L 267.421939 60.598126 
L 268.332703 58.645224 
L 268.788085 58.301418 
L 269.243466 59.525568 
L 270.15423 65.839236 
L 270.609612 66.633526 
L 271.975757 64.636665 
L 272.88652 62.799389 
L 273.341902 61.313358 
L 273.797284 60.633658 
L 274.252666 59.738487 
L 274.708047 59.864462 
L 275.618811 62.290727 
L 276.074193 61.706971 
L 276.529574 60.847341 
L 277.440338 58.299553 
L 277.89572 58.067305 
L 278.351101 57.452713 
L 279.261865 55.580269 
L 279.717247 54.553901 
L 280.172628 54.019707 
L 280.62801 56.448965 
L 281.083392 60.283502 
L 281.538774 59.501207 
L 281.994155 58.27369 
L 282.449537 57.483974 
L 282.904919 56.273417 
L 283.360301 54.277512 
L 283.815682 52.980178 
L 284.726446 51.711412 
L 285.181828 51.35832 
L 285.637209 51.655182 
L 286.092591 54.625635 
L 286.547973 58.585797 
L 287.003355 60.21233 
L 287.458736 60.236451 
L 288.3695 57.42769 
L 288.824882 56.963432 
L 289.735645 54.290139 
L 290.646409 52.218491 
L 291.10179 52.50958 
L 291.557172 54.235612 
L 292.012554 56.578283 
L 292.467936 56.566125 
L 292.923317 55.289825 
L 293.834081 54.328932 
L 294.744844 49.591711 
L 295.200226 48.798968 
L 296.11099 46.022161 
L 296.566371 45.790963 
L 297.021753 49.00962 
L 297.477135 53.363971 
L 297.932517 55.932576 
L 298.387898 55.127597 
L 299.754044 51.84839 
L 300.209425 51.316087 
L 300.664807 50.505411 
L 301.575571 49.898446 
L 302.030952 49.196943 
L 302.486334 50.901482 
L 302.941716 55.735234 
L 303.397098 57.419381 
L 303.852479 56.715196 
L 304.763243 54.20604 
L 305.218625 53.648209 
L 305.674006 53.767083 
L 306.129388 54.03467 
L 307.040152 54.282485 
L 307.495533 54.679031 
L 307.950915 57.39487 
L 308.406297 61.462857 
L 308.861679 62.536276 
L 309.772442 60.198846 
L 310.227824 58.574211 
L 310.683206 57.527579 
L 311.138587 57.409251 
L 311.593969 57.619935 
L 312.049351 57.589962 
L 312.504733 56.988635 
L 312.960114 57.145019 
L 313.870878 65.017341 
L 314.32626 66.06975 
L 315.237023 63.05943 
L 316.147787 59.226004 
L 317.05855 56.659356 
L 318.424695 56.078107 
L 319.335459 64.322784 
L 319.790841 65.011199 
L 320.246222 63.865443 
L 320.701604 62.21353 
L 321.156986 61.23047 
L 322.067749 57.759997 
L 322.523131 57.122955 
L 323.433895 56.542921 
L 323.889276 55.949107 
L 324.344658 56.551693 
L 324.80004 58.867296 
L 325.255422 59.312966 
L 325.710803 57.863203 
L 326.166185 55.966123 
L 326.621567 55.201751 
L 327.076949 54.744389 
L 327.53233 54.124124 
L 327.987712 52.676925 
L 328.443094 51.860644 
L 328.898476 51.440262 
L 329.353857 52.229437 
L 329.809239 55.855374 
L 330.264621 60.397907 
L 330.720003 61.058184 
L 331.175384 59.872548 
L 332.086148 55.892403 
L 332.54153 55.537477 
L 332.996911 54.924228 
L 333.452293 54.000462 
L 333.907675 53.783323 
L 334.363057 53.159908 
L 334.818438 53.234114 
L 335.27382 55.435676 
L 335.729202 59.278371 
L 336.184584 59.945672 
L 336.639965 59.198572 
L 337.095347 58.861454 
L 337.550729 58.243385 
L 338.006111 58.027788 
L 338.916874 58.64026 
L 339.372256 58.607714 
L 339.827638 58.834186 
L 340.283019 59.660819 
L 340.738401 62.990566 
L 341.193783 67.691058 
L 341.649165 68.71635 
L 342.559928 66.74436 
L 343.470692 62.735893 
L 344.836837 56.686065 
L 345.292219 56.244881 
L 345.7476 56.742336 
L 346.658364 61.445816 
L 347.113746 61.17146 
L 347.569127 59.625637 
L 348.024509 58.667837 
L 349.390654 54.031065 
L 349.846036 53.945087 
L 350.301418 53.584244 
L 350.7568 52.731035 
L 351.212181 53.710899 
L 352.122945 59.122131 
L 352.578327 59.026922 
L 353.48909 55.608877 
L 354.855235 52.025676 
L 355.310617 51.459374 
L 356.221381 49.630873 
L 356.676762 50.022456 
L 357.587526 59.734447 
L 358.042908 61.351706 
L 358.498289 61.743259 
L 358.953671 60.880816 
L 359.409053 59.740998 
L 359.864435 59.170488 
L 360.775198 57.476665 
L 361.23058 57.245033 
L 362.141343 55.571511 
L 362.596725 57.730424 
L 363.052107 62.394468 
L 363.507489 63.284559 
L 363.96287 62.072825 
L 364.873634 58.98336 
L 365.329016 58.037637 
L 365.784397 56.789054 
L 366.239779 56.510416 
L 366.695161 55.773568 
L 367.150543 54.676515 
L 367.605924 55.161266 
L 368.516688 61.076776 
L 368.97207 61.890527 
L 369.427451 60.510898 
L 370.793597 58.410094 
L 371.248978 57.119362 
L 371.70436 56.614293 
L 372.159742 56.612007 
L 372.615124 56.113074 
L 373.070505 55.831152 
L 373.525887 58.214661 
L 373.981269 62.32503 
L 374.436651 64.346532 
L 375.347414 61.535531 
L 376.258178 56.677006 
L 376.713559 56.00836 
L 377.168941 56.189417 
L 378.079705 56.163737 
L 378.535086 57.242347 
L 379.44585 65.445788 
L 379.901232 65.924257 
L 380.811995 62.657287 
L 381.722759 58.725626 
L 383.544286 53.028953 
L 383.999667 54.22668 
L 384.910431 64.96434 
L 385.365813 66.408721 
L 386.276576 63.125064 
L 386.731958 62.193809 
L 387.642721 61.332093 
L 388.553485 57.938608 
L 389.008867 57.458521 
L 389.464248 58.405212 
L 390.375012 65.551704 
L 390.830394 67.154548 
L 391.285775 66.137279 
L 391.741157 64.838606 
L 392.651921 63.41524 
L 394.018066 57.992531 
L 394.473448 57.201985 
L 394.928829 58.03727 
L 395.384211 62.274848 
L 395.839593 68.009947 
L 396.294975 70.373901 
L 396.750356 70.262777 
L 397.205738 69.324585 
L 398.116502 66.139511 
L 398.571883 65.155266 
L 399.482647 65.057846 
L 399.938029 64.365197 
L 400.39341 64.515647 
L 400.848792 66.711297 
L 401.304174 71.475159 
L 401.759556 73.898969 
L 402.670319 73.861136 
L 403.125701 73.325532 
L 403.581083 71.859732 
L 404.036464 70.802953 
L 404.491846 70.300259 
L 404.947228 69.502699 
L 405.40261 68.936781 
L 405.857991 69.898226 
L 406.313373 74.716491 
L 406.768755 81.876751 
L 407.224137 84.367507 
L 408.1349 81.859806 
L 408.590282 80.177809 
L 409.501045 78.528589 
L 409.956427 77.749731 
L 410.867191 77.034126 
L 411.322572 78.109469 
L 412.233336 89.288823 
L 412.688718 90.711788 
L 414.510245 83.279361 
L 414.965626 82.807501 
L 415.421008 82.750727 
L 415.87639 82.43449 
L 416.331772 81.731191 
L 416.787153 81.996165 
L 417.242535 85.428766 
L 417.697917 91.721743 
L 418.153299 94.00953 
L 418.60868 92.796958 
L 419.519444 91.436654 
L 420.430207 87.912497 
L 420.885589 87.59525 
L 421.796353 87.937041 
L 422.251734 89.633068 
L 422.707116 95.626679 
L 423.162498 103.104131 
L 423.61788 105.88686 
L 424.984025 103.385948 
L 425.439407 101.922732 
L 426.35017 99.881967 
L 426.805552 99.359479 
L 427.260934 98.600047 
L 427.716315 100.021426 
L 428.171697 105.752367 
L 428.627079 113.120933 
L 429.082461 115.743746 
L 429.993224 114.044595 
L 430.448606 112.974466 
L 430.903988 112.493455 
L 431.814751 110.037805 
L 432.270133 108.564393 
L 432.725515 107.877278 
L 433.180896 109.875612 
L 434.09166 127.797726 
L 434.547042 131.489561 
L 435.002423 130.177206 
L 435.457805 128.265536 
L 436.368569 126.15153 
L 436.82395 124.463101 
L 437.279332 123.746613 
L 437.734714 123.627082 
L 438.190096 123.201946 
L 438.645477 123.272457 
L 439.556241 131.220732 
L 440.011623 131.383793 
L 440.467004 129.271502 
L 441.377768 127.124131 
L 441.83315 126.436095 
L 442.288531 125.44688 
L 442.743913 124.96895 
L 443.654677 123.273385 
L 444.110058 124.024504 
L 444.56544 128.412264 
L 445.020822 134.498061 
L 445.476204 136.131596 
L 445.931585 134.62687 
L 446.386967 133.517601 
L 446.842349 131.572287 
L 447.297731 130.284772 
L 447.753112 129.44214 
L 449.119258 127.509555 
L 449.574639 127.926923 
L 450.030021 133.150242 
L 450.485403 140.305625 
L 450.940785 141.162951 
L 451.851548 136.902922 
L 453.217693 134.358383 
L 453.673075 133.897129 
L 454.583839 131.783857 
L 455.03922 132.686563 
L 455.494602 138.705966 
L 455.949984 146.91562 
L 456.405366 149.52044 
L 456.860747 148.133689 
L 457.316129 144.956113 
L 457.771511 143.026269 
L 459.137656 139.30948 
L 459.593038 138.988834 
L 460.04842 138.174046 
L 460.503801 138.551009 
L 461.414565 146.056202 
L 461.869947 146.363328 
L 462.78071 142.408458 
L 463.236092 141.674854 
L 463.691474 141.254829 
L 464.146855 140.022319 
L 464.602237 138.450359 
L 465.057619 138.125799 
L 465.513001 137.461076 
L 465.968382 137.172021 
L 466.423764 139.240921 
L 466.879146 142.832848 
L 467.334528 144.623948 
L 469.156055 141.230639 
L 469.611436 140.37959 
L 470.066818 140.157476 
L 470.5222 139.023601 
L 470.977582 137.551912 
L 471.432963 139.521182 
L 471.888345 145.661564 
L 472.343727 154.284728 
L 472.799109 157.992405 
L 473.25449 157.196915 
L 474.165254 154.659795 
L 474.620636 154.281387 
L 475.076017 153.723714 
L 475.531399 153.473308 
L 476.442163 151.911516 
L 476.897544 152.497479 
L 477.352926 155.690314 
L 477.808308 161.238529 
L 478.26369 162.524111 
L 478.719071 161.594356 
L 479.174453 159.869668 
L 479.629835 158.673584 
L 481.906744 154.194847 
L 482.362125 154.825559 
L 482.817507 158.180709 
L 483.272889 163.036491 
L 483.728271 165.915948 
L 484.183652 165.206564 
L 484.639034 164.22481 
L 485.094416 162.817803 
L 485.549797 161.879392 
L 485.549797 161.879392 
" clip-path="url(#p3d9e970c3c)" style="fill: none; stroke: #fb9a99; stroke-width: 1.5; stroke-linecap: square"/>
   </g>
   <g id="patch_3">
    <path d="M 72.905625 186.84327 
L 72.905625 10.999219 
" style="fill: none; stroke: #000000; stroke-width: 0.8; stroke-linejoin: miter; stroke-linecap: square"/>
   </g>
   <g id="patch_4">
    <path d="M 505.19952 186.84327 
L 505.19952 10.999219 
" style="fill: none; stroke: #000000; stroke-width: 0.8; stroke-linejoin: miter; stroke-linecap: square"/>
   </g>
   <g id="patch_5">
    <path d="M 72.905625 186.84327 
L 505.19952 186.84327 
" style="fill: none; stroke: #000000; stroke-width: 0.8; stroke-linejoin: miter; stroke-linecap: square"/>
   </g>
   <g id="patch_6">
    <path d="M 72.905625 10.999219 
L 505.19952 10.999219 
" style="fill: none; stroke: #000000; stroke-width: 0.8; stroke-linejoin: miter; stroke-linecap: square"/>
   </g>
  </g>
 </g>
 <defs>
  <clipPath id="p3d9e970c3c">
   <rect x="72.905625" y="10.999219" width="432.293895" height="175.844051"/>
  </clipPath>
 </defs>
</svg>
