<?xml version="1.0" encoding="utf-8" standalone="no"?>
<!DOCTYPE svg PUBLIC "-//W3C//DTD SVG 1.1//EN"
  "http://www.w3.org/Graphics/SVG/1.1/DTD/svg11.dtd">
<svg xmlns:xlink="http://www.w3.org/1999/xlink" width="512.39952pt" height="224.39952pt" viewBox="0 0 512.39952 224.39952" xmlns="http://www.w3.org/2000/svg" version="1.1">
 <metadata>
  <rdf:RDF xmlns:dc="http://purl.org/dc/elements/1.1/" xmlns:cc="http://creativecommons.org/ns#" xmlns:rdf="http://www.w3.org/1999/02/22-rdf-syntax-ns#">
   <cc:Work>
    <dc:type rdf:resource="http://purl.org/dc/dcmitype/StillImage"/>
    <dc:date>2023-02-06T11:00:40.216754</dc:date>
    <dc:format>image/svg+xml</dc:format>
    <dc:creator>
     <cc:Agent>
      <dc:title>Matplotlib v3.6.2, https://matplotlib.org/</dc:title>
     </cc:Agent>
    </dc:creator>
   </cc:Work>
  </rdf:RDF>
 </metadata>
 <defs>
  <style type="text/css">*{stroke-linejoin: round; stroke-linecap: butt}</style>
 </defs>
 <g id="figure_1">
  <g id="patch_1">
   <path d="M 0 224.39952 
L 512.39952 224.39952 
L 512.39952 0 
L 0 0 
z
" style="fill: #ffffff"/>
  </g>
  <g id="axes_1">
   <g id="patch_2">
    <path d="M 46.965625 186.84327 
L 505.19952 186.84327 
L 505.19952 22.318125 
L 46.965625 22.318125 
z
" style="fill: #ffffff"/>
   </g>
   <g id="PolyCollection_1">
    <path d="M 67.794438 173.711648 
L 67.794438 178.088856 
L 68.601757 180.392813 
L 69.409075 177.119724 
L 70.216393 173.690632 
L 71.023712 176.376666 
L 71.83103 178.990508 
L 72.638349 178.227505 
L 73.445667 175.971735 
L 74.252985 176.016577 
L 75.060304 177.840716 
L 75.867622 179.296806 
L 76.67494 181.11537 
L 77.482259 182.541437 
L 78.289577 182.562741 
L 79.096895 180.446248 
L 79.904214 179.779432 
L 80.711532 181.382488 
L 81.51885 180.416163 
L 82.326169 182.204516 
L 83.133487 182.761401 
L 83.940805 180.568749 
L 84.748124 177.860637 
L 85.555442 177.412591 
L 86.36276 181.66167 
L 87.170079 179.071835 
L 87.977397 180.122586 
L 88.784715 178.594273 
L 89.592034 176.714664 
L 90.399352 176.330717 
L 91.206671 177.117855 
L 92.013989 177.477172 
L 92.821307 178.332292 
L 93.628626 178.177719 
L 94.435944 178.145839 
L 95.243262 178.18744 
L 96.050581 178.322368 
L 96.857899 181.103621 
L 97.665217 180.639454 
L 98.472536 179.321312 
L 99.279854 173.438055 
L 100.087172 171.579829 
L 100.894491 171.85062 
L 101.701809 175.525669 
L 102.509127 178.420784 
L 103.316446 174.863853 
L 104.123764 174.235564 
L 104.931082 179.679981 
L 105.738401 182.196751 
L 106.545719 182.328337 
L 107.353038 180.627372 
L 108.160356 179.961703 
L 108.967674 178.473189 
L 109.774993 174.533875 
L 110.582311 174.003305 
L 111.389629 174.196374 
L 112.196948 172.472367 
L 113.004266 173.742048 
L 113.811584 176.463574 
L 114.618903 176.449905 
L 115.426221 178.924416 
L 116.233539 181.166069 
L 117.040858 182.581104 
L 117.848176 177.968065 
L 118.655494 175.054322 
L 119.462813 177.917125 
L 120.270131 179.409968 
L 121.077449 177.015449 
L 121.884768 171.60523 
L 122.692086 171.946598 
L 123.499405 173.682548 
L 124.306723 179.950019 
L 125.114041 179.551093 
L 125.92136 179.513545 
L 126.728678 179.523232 
L 127.535996 181.126706 
L 128.343315 179.07623 
L 129.150633 178.602168 
L 129.957951 178.478136 
L 130.76527 172.576275 
L 131.572588 172.537227 
L 132.379906 174.042622 
L 133.187225 171.10609 
L 133.994543 175.431612 
L 134.801861 181.040973 
L 135.60918 181.79587 
L 136.416498 182.426695 
L 137.223816 179.999202 
L 138.031135 177.80426 
L 138.838453 180.620019 
L 139.645771 181.79284 
L 140.45309 179.567725 
L 141.260408 179.23672 
L 142.067727 177.081968 
L 142.875045 174.279817 
L 143.682363 176.785436 
L 144.489682 181.496735 
L 145.297 181.241223 
L 146.104318 180.650641 
L 146.911637 178.97788 
L 147.718955 177.622065 
L 148.526273 180.273793 
L 149.333592 180.550229 
L 150.14091 181.499885 
L 150.948228 178.483036 
L 151.755547 174.3234 
L 152.562865 177.232254 
L 153.370183 175.387654 
L 154.177502 176.910538 
L 154.98482 181.37251 
L 155.792138 181.100503 
L 156.599457 177.084468 
L 157.406775 177.350767 
L 158.214094 176.619858 
L 159.021412 176.52305 
L 159.82873 178.114479 
L 160.636049 177.14136 
L 161.443367 177.208346 
L 162.250685 176.794679 
L 163.058004 180.797934 
L 163.865322 181.874447 
L 164.67264 181.68623 
L 165.479959 181.490029 
L 166.287277 175.885817 
L 167.094595 177.456111 
L 167.901914 175.198527 
L 168.709232 169.332891 
L 169.51655 171.633898 
L 170.323869 170.354229 
L 171.131187 172.743616 
L 171.938505 171.886505 
L 172.745824 175.759644 
L 173.553142 181.395261 
L 174.360461 183.684271 
L 175.167779 180.674653 
L 175.975097 175.722599 
L 176.782416 177.986557 
L 177.589734 181.850232 
L 178.397052 179.06289 
L 179.204371 176.866434 
L 180.011689 177.410869 
L 180.819007 176.382134 
L 181.626326 178.180517 
L 182.433644 179.746221 
L 183.240962 180.156358 
L 184.048281 180.512526 
L 184.855599 179.673764 
L 185.662917 180.681073 
L 186.470236 179.19496 
L 187.277554 179.564834 
L 188.084872 180.952959 
L 188.892191 180.592149 
L 189.699509 176.930616 
L 190.506827 174.244834 
L 191.314146 176.715751 
L 192.121464 175.629073 
L 192.928783 179.335172 
L 193.736101 182.878396 
L 194.543419 180.592907 
L 195.350738 178.963407 
L 196.158056 180.006296 
L 196.965374 178.864893 
L 197.772693 180.835102 
L 198.580011 179.761804 
L 199.387329 176.612887 
L 200.194648 174.222642 
L 201.001966 176.106067 
L 201.809284 177.054368 
L 202.616603 173.789983 
L 203.423921 179.827185 
L 204.231239 181.953979 
L 205.038558 177.501712 
L 205.845876 177.656617 
L 206.653194 176.224969 
L 207.460513 177.431191 
L 208.267831 178.148488 
L 209.07515 176.080402 
L 209.882468 175.483966 
L 210.689786 176.382334 
L 211.497105 176.089788 
L 212.304423 179.08205 
L 213.111741 182.612928 
L 213.91906 180.368851 
L 214.726378 177.591816 
L 215.533696 176.326873 
L 216.341015 178.713673 
L 217.148333 181.430699 
L 217.955651 180.808872 
L 218.76297 176.995702 
L 219.570288 172.974059 
L 220.377606 179.609599 
L 221.184925 180.897419 
L 221.992243 178.624675 
L 222.799561 178.713102 
L 223.60688 177.3981 
L 224.414198 178.382248 
L 225.221517 177.505408 
L 226.028835 176.735216 
L 226.836153 178.289401 
L 227.643472 181.735155 
L 228.45079 180.886747 
L 229.258108 176.526481 
L 230.065427 173.300945 
L 230.872745 174.750454 
L 231.680063 179.350464 
L 232.487382 180.353777 
L 233.2947 179.458309 
L 234.102018 177.816972 
L 234.909337 178.251177 
L 235.716655 177.937712 
L 236.523973 177.572432 
L 237.331292 176.061243 
L 238.13861 176.122058 
L 238.945928 176.254085 
L 239.753247 172.471878 
L 240.560565 173.849184 
L 241.367883 179.041117 
L 242.175202 180.082184 
L 242.98252 180.655837 
L 243.789839 177.731954 
L 244.597157 175.740916 
L 245.404475 176.215457 
L 246.211794 174.937653 
L 247.019112 180.265389 
L 247.82643 179.438453 
L 248.633749 177.802679 
L 249.441067 180.356654 
L 250.248385 181.228268 
L 251.055704 183.93727 
L 251.863022 184.033406 
L 252.67034 179.89191 
L 253.477659 177.460992 
L 254.284977 171.208777 
L 255.092295 169.372296 
L 255.899614 176.311072 
L 256.706932 175.913833 
L 257.51425 177.008458 
L 258.321569 175.253536 
L 259.128887 175.561192 
L 259.936206 177.816316 
L 260.743524 179.364315 
L 261.550842 181.423229 
L 262.358161 179.282557 
L 263.165479 175.572331 
L 263.972797 171.556955 
L 264.780116 171.625736 
L 265.587434 174.472807 
L 266.394752 177.748212 
L 267.202071 177.400103 
L 268.009389 180.335325 
L 268.816707 176.89463 
L 269.624026 174.574727 
L 270.431344 176.79937 
L 271.238662 179.895328 
L 272.045981 179.233431 
L 272.853299 176.253188 
L 273.660617 176.474789 
L 274.467936 175.392221 
L 275.275254 174.78876 
L 276.082572 175.699306 
L 276.889891 176.426381 
L 277.697209 180.287431 
L 278.504528 180.207622 
L 279.311846 179.75204 
L 280.119164 181.628361 
L 280.926483 182.254211 
L 281.733801 182.576739 
L 282.541119 180.968394 
L 283.348438 179.274235 
L 284.155756 176.248343 
L 284.963074 174.691508 
L 285.770393 180.502206 
L 286.577711 176.522979 
L 287.385029 170.194946 
L 288.192348 168.325062 
L 288.999666 172.761713 
L 289.806984 176.090011 
L 290.614303 177.30754 
L 291.421621 178.630802 
L 292.228939 177.753089 
L 293.036258 180.032828 
L 293.843576 179.105817 
L 294.650895 181.834275 
L 295.458213 179.604446 
L 296.265531 173.603985 
L 297.07285 176.372949 
L 297.880168 179.481397 
L 298.687486 180.4623 
L 299.494805 181.195433 
L 300.302123 180.535427 
L 301.109441 179.598874 
L 301.91676 177.62984 
L 302.724078 176.02002 
L 303.531396 177.496983 
L 304.338715 180.354157 
L 305.146033 178.197685 
L 305.953351 172.81288 
L 306.76067 172.701639 
L 307.567988 175.119373 
L 308.375306 178.156077 
L 309.182625 182.65486 
L 309.989943 183.319109 
L 310.797262 179.443564 
L 311.60458 177.158526 
L 312.411898 175.561248 
L 313.219217 175.059404 
L 314.026535 175.939885 
L 314.833853 176.814324 
L 315.641172 172.22754 
L 316.44849 175.056411 
L 317.255808 175.337021 
L 318.063127 175.463526 
L 318.870445 177.915346 
L 319.677763 182.479396 
L 320.485082 179.682673 
L 321.2924 175.926756 
L 322.099718 177.229471 
L 322.907037 179.113962 
L 323.714355 179.586272 
L 324.521673 181.005783 
L 325.328992 177.862363 
L 326.13631 176.417131 
L 326.943628 174.61274 
L 327.750947 174.057662 
L 328.558265 179.963992 
L 329.365584 180.17271 
L 330.172902 178.560829 
L 330.98022 176.104061 
L 331.787539 175.137643 
L 332.594857 173.076224 
L 333.402175 170.401535 
L 334.209494 173.588015 
L 335.016812 179.344027 
L 335.82413 181.820532 
L 336.631449 176.103529 
L 337.438767 176.05638 
L 338.246085 180.768534 
L 339.053404 181.363808 
L 339.860722 181.878798 
L 340.66804 181.36719 
L 341.475359 180.646152 
L 342.282677 179.084642 
L 343.089995 179.312034 
L 343.897314 182.61834 
L 344.704632 180.861369 
L 345.511951 175.775704 
L 346.319269 173.787819 
L 347.126587 179.391638 
L 347.933906 181.269176 
L 348.741224 179.855274 
L 349.548542 178.202469 
L 350.355861 177.619204 
L 351.163179 178.181101 
L 351.970497 175.384503 
L 352.777816 173.735604 
L 353.585134 175.769061 
L 354.392452 176.349892 
L 355.199771 172.366901 
L 356.007089 170.669432 
L 356.814407 176.931248 
L 357.621726 177.077137 
L 358.429044 179.343145 
L 359.236362 181.235639 
L 360.043681 179.220497 
L 360.850999 178.613943 
L 361.658318 180.139488 
L 362.465636 179.021677 
L 363.272954 180.185583 
L 364.080273 179.611442 
L 364.887591 176.655325 
L 365.694909 176.357512 
L 366.502228 178.403287 
L 367.309546 180.617021 
L 368.116864 181.421147 
L 368.924183 182.096567 
L 369.731501 179.931022 
L 370.538819 178.344776 
L 371.346138 175.312189 
L 372.153456 171.869519 
L 372.960774 170.117929 
L 373.768093 174.134173 
L 374.575411 175.826225 
L 375.382729 172.081661 
L 376.190048 170.05108 
L 376.997366 176.192993 
L 377.804684 182.899915 
L 378.612003 181.224181 
L 379.419321 177.431142 
L 380.22664 180.880799 
L 381.033958 179.200012 
L 381.841276 177.744279 
L 382.648595 181.617622 
L 383.455913 181.468202 
L 384.263231 178.60977 
L 385.07055 177.326809 
L 385.877868 177.097291 
L 386.685186 178.076263 
L 387.492505 179.946356 
L 388.299823 181.433168 
L 389.107141 178.202054 
L 389.91446 177.115124 
L 390.721778 176.945752 
L 391.529096 177.798096 
L 392.336415 178.84755 
L 393.143733 176.241668 
L 393.951051 175.119491 
L 394.75837 177.137684 
L 395.565688 181.610136 
L 396.373007 183.006419 
L 397.180325 183.89765 
L 397.987643 181.043393 
L 398.794962 175.670287 
L 399.60228 171.230252 
L 400.409598 173.223604 
L 401.216917 179.046187 
L 402.024235 179.315977 
L 402.831553 178.911749 
L 403.638872 176.156337 
L 404.44619 176.661948 
L 405.253508 179.303021 
L 406.060827 182.294408 
L 406.868145 184.048673 
L 407.675463 181.256535 
L 408.482782 178.609188 
L 409.2901 176.662399 
L 410.097418 174.848796 
L 410.904737 176.339687 
L 411.712055 175.166384 
L 412.519374 175.849503 
L 413.326692 179.289613 
L 414.13401 177.081773 
L 414.941329 176.90222 
L 415.748647 181.827368 
L 416.555965 181.914201 
L 417.363284 180.851349 
L 418.170602 178.139426 
L 418.97792 172.935608 
L 419.785239 175.684367 
L 420.592557 180.33596 
L 421.399875 180.416321 
L 422.207194 177.910368 
L 423.014512 176.890527 
L 423.82183 177.452906 
L 424.629149 176.946169 
L 425.436467 178.257735 
L 426.243785 179.241906 
L 427.051104 179.367365 
L 427.858422 175.168794 
L 428.66574 174.758919 
L 429.473059 173.509398 
L 430.280377 170.436355 
L 431.087696 171.920701 
L 431.895014 176.109963 
L 432.702332 173.611613 
L 433.509651 167.233323 
L 434.316969 175.976069 
L 435.124287 181.436535 
L 435.931606 183.685671 
L 436.738924 181.876167 
L 437.546242 178.086241 
L 438.353561 175.209902 
L 439.160879 178.00589 
L 439.968197 176.26657 
L 440.775516 178.297255 
L 441.582834 176.564048 
L 442.390152 174.406022 
L 443.197471 176.195094 
L 444.004789 177.741615 
L 444.812107 179.459257 
L 445.619426 181.800917 
L 446.426744 181.45436 
L 447.234063 177.814768 
L 448.041381 176.47734 
L 448.848699 176.907401 
L 449.656018 177.424517 
L 450.463336 175.229239 
L 451.270654 174.919868 
L 452.077973 174.502356 
L 452.885291 175.823007 
L 453.692609 176.878871 
L 454.499928 178.079607 
L 455.307246 181.81881 
L 456.114564 183.914133 
L 456.921883 179.446637 
L 457.729201 175.295026 
L 458.536519 175.440924 
L 459.343838 178.485369 
L 460.151156 178.297536 
L 460.958474 178.934461 
L 461.765793 179.56165 
L 462.573111 175.668263 
L 463.38043 175.543082 
L 464.187748 180.953301 
L 464.995066 183.963131 
L 465.802385 180.670412 
L 466.609703 177.345263 
L 467.417021 173.988211 
L 468.22434 177.338107 
L 469.031658 177.593263 
L 469.838976 177.417669 
L 470.646295 179.557551 
L 471.453613 180.000309 
L 472.260931 178.498369 
L 473.06825 173.797215 
L 473.875568 173.106192 
L 474.682886 179.345788 
L 475.490205 176.965456 
L 476.297523 173.508571 
L 477.104841 174.182507 
L 477.91216 171.512541 
L 478.719478 172.025682 
L 479.526796 177.140243 
L 480.334115 178.413778 
L 481.141433 174.484894 
L 481.948752 172.095341 
L 482.75607 173.029929 
L 483.563388 173.833175 
L 484.370707 175.15268 
L 484.370707 174.908143 
L 484.370707 174.908143 
L 483.563388 171.634678 
L 482.75607 171.467513 
L 481.948752 170.786857 
L 481.141433 173.113528 
L 480.334115 177.435193 
L 479.526796 176.04562 
L 478.719478 170.38043 
L 477.91216 169.585582 
L 477.104841 172.721722 
L 476.297523 171.919433 
L 475.490205 175.602895 
L 474.682886 178.427796 
L 473.875568 171.567153 
L 473.06825 172.196383 
L 472.260931 177.436409 
L 471.453613 178.95047 
L 470.646295 178.673584 
L 469.838976 176.32499 
L 469.031658 176.384743 
L 468.22434 176.336579 
L 467.417021 172.467083 
L 466.609703 176.066085 
L 465.802385 179.658266 
L 464.995066 183.414052 
L 464.187748 180.237684 
L 463.38043 174.24483 
L 462.573111 174.345118 
L 461.765793 178.639843 
L 460.958474 178.024783 
L 460.151156 177.320107 
L 459.343838 177.479842 
L 458.536519 174.180547 
L 457.729201 174.015622 
L 456.921883 178.38817 
L 456.114564 183.407413 
L 455.307246 181.168696 
L 454.499928 177.062296 
L 453.692609 175.719238 
L 452.885291 174.722496 
L 452.077973 173.171696 
L 451.270654 173.610086 
L 450.463336 173.870246 
L 449.656018 176.327665 
L 448.848699 175.670485 
L 448.041381 175.300822 
L 447.234063 176.419173 
L 446.426744 180.634412 
L 445.619426 181.077496 
L 444.812107 178.633863 
L 444.004789 176.64893 
L 443.197471 175.111734 
L 442.390152 172.93446 
L 441.582834 175.50945 
L 440.775516 177.279856 
L 439.968197 175.114826 
L 439.160879 176.883303 
L 438.353561 173.8202 
L 437.546242 176.699993 
L 436.738924 181.168022 
L 435.931606 183.221029 
L 435.124287 180.765669 
L 434.316969 174.833637 
L 433.509651 165.23921 
L 432.702332 171.631827 
L 431.895014 174.875816 
L 431.087696 170.189019 
L 430.280377 168.653641 
L 429.473059 171.776884 
L 428.66574 173.381896 
L 427.858422 173.713943 
L 427.051104 178.3431 
L 426.243785 178.308973 
L 425.436467 177.222624 
L 424.629149 175.76717 
L 423.82183 176.209257 
L 423.014512 175.778077 
L 422.207194 176.858665 
L 421.399875 179.663109 
L 420.592557 179.555541 
L 419.785239 174.459477 
L 418.97792 171.291458 
L 418.170602 176.879023 
L 417.363284 180.028401 
L 416.555965 181.224641 
L 415.748647 181.292546 
L 414.941329 175.785818 
L 414.13401 175.828409 
L 413.326692 178.400026 
L 412.519374 174.656169 
L 411.712055 173.709331 
L 410.904737 175.128894 
L 410.097418 173.485688 
L 409.2901 175.39731 
L 408.482782 177.58361 
L 407.675463 180.441622 
L 406.868145 183.525547 
L 406.060827 181.799384 
L 405.253508 178.415753 
L 404.44619 175.579197 
L 403.638872 174.827404 
L 402.831553 178.02731 
L 402.024235 178.402513 
L 401.216917 177.889914 
L 400.409598 171.732989 
L 399.60228 169.418497 
L 398.794962 174.267936 
L 397.987643 180.232847 
L 397.180325 183.38565 
L 396.373007 182.497707 
L 395.565688 180.979964 
L 394.75837 175.983987 
L 393.951051 173.830066 
L 393.143733 175.082188 
L 392.336415 177.892054 
L 391.529096 176.730948 
L 390.721778 175.730524 
L 389.91446 176.018419 
L 389.107141 176.911861 
L 388.299823 180.671236 
L 387.492505 179.093101 
L 386.685186 177.030994 
L 385.877868 175.99116 
L 385.07055 176.157859 
L 384.263231 177.518281 
L 383.455913 180.672719 
L 382.648595 180.895984 
L 381.841276 176.715935 
L 381.033958 178.112129 
L 380.22664 180.169987 
L 379.419321 176.277146 
L 378.612003 180.373356 
L 377.804684 182.340619 
L 376.997366 175.058613 
L 376.190048 168.161126 
L 375.382729 170.266201 
L 374.575411 174.45058 
L 373.768093 172.800492 
L 372.960774 168.303348 
L 372.153456 170.315032 
L 371.346138 173.671681 
L 370.538819 177.206846 
L 369.731501 178.990196 
L 368.924183 181.38513 
L 368.116864 180.725987 
L 367.309546 179.890505 
L 366.502228 177.440639 
L 365.694909 175.151737 
L 364.887591 175.471703 
L 364.080273 178.640016 
L 363.272954 179.360771 
L 362.465636 178.14533 
L 361.658318 179.163475 
L 360.850999 177.505415 
L 360.043681 178.119508 
L 359.236362 180.502565 
L 358.429044 178.425315 
L 357.621726 175.840324 
L 356.814407 175.757153 
L 356.007089 168.997557 
L 355.199771 170.570061 
L 354.392452 175.143243 
L 353.585134 174.529489 
L 352.777816 172.376991 
L 351.970497 174.05533 
L 351.163179 177.151869 
L 350.355861 176.407945 
L 349.548542 176.983021 
L 348.741224 178.959858 
L 347.933906 180.41388 
L 347.126587 178.422395 
L 346.319269 172.295571 
L 345.511951 174.426306 
L 344.704632 180.018409 
L 343.897314 182.02924 
L 343.089995 178.459459 
L 342.282677 178.107716 
L 341.475359 179.847888 
L 340.66804 180.682054 
L 339.860722 181.086792 
L 339.053404 180.605973 
L 338.246085 180.001699 
L 337.438767 174.773937 
L 336.631449 174.626051 
L 335.82413 180.974716 
L 335.016812 178.528546 
L 334.209494 171.972261 
L 333.402175 168.54988 
L 332.594857 171.352371 
L 331.787539 173.717256 
L 330.98022 174.739911 
L 330.172902 177.3307 
L 329.365584 179.046121 
L 328.558265 179.10244 
L 327.750947 172.629005 
L 326.943628 173.025114 
L 326.13631 175.240766 
L 325.328992 176.595256 
L 324.521673 180.259772 
L 323.714355 178.766414 
L 322.907037 178.207969 
L 322.099718 176.008231 
L 321.2924 174.595783 
L 320.485082 178.519101 
L 319.677763 181.76337 
L 318.870445 176.822374 
L 318.063127 174.123751 
L 317.255808 174.068812 
L 316.44849 173.87923 
L 315.641172 170.632344 
L 314.833853 175.327238 
L 314.026535 174.637775 
L 313.219217 173.649736 
L 312.411898 174.236949 
L 311.60458 176.03281 
L 310.797262 178.436513 
L 309.989943 182.79695 
L 309.182625 182.131939 
L 308.375306 177.141826 
L 307.567988 173.868225 
L 306.76067 171.232492 
L 305.953351 171.272412 
L 305.146033 177.166475 
L 304.338715 179.522853 
L 303.531396 176.36318 
L 302.724078 174.739151 
L 301.91676 176.407687 
L 301.109441 178.442117 
L 300.302123 179.737824 
L 299.494805 180.430191 
L 298.687486 179.62798 
L 297.880168 178.486278 
L 297.07285 175.252252 
L 296.265531 172.074752 
L 295.458213 178.667098 
L 294.650895 181.156235 
L 293.843576 178.142357 
L 293.036258 179.104664 
L 292.228939 176.679108 
L 291.421621 177.42761 
L 290.614303 176.124512 
L 289.806984 174.683208 
L 288.999666 171.359665 
L 288.192348 166.260211 
L 287.385029 168.402641 
L 286.577711 175.161698 
L 285.770393 179.716473 
L 284.963074 173.231019 
L 284.155756 174.819315 
L 283.348438 178.353535 
L 282.541119 180.204218 
L 281.733801 181.942284 
L 280.926483 181.631897 
L 280.119164 180.950349 
L 279.311846 178.906039 
L 278.504528 179.439465 
L 277.697209 179.402284 
L 276.889891 175.196175 
L 276.082572 174.353351 
L 275.275254 173.46172 
L 274.467936 174.003525 
L 273.660617 175.253397 
L 272.853299 174.964988 
L 272.045981 178.181381 
L 271.238662 178.986522 
L 270.431344 175.498111 
L 269.624026 173.219829 
L 268.816707 175.458072 
L 268.009389 179.484822 
L 267.202071 176.23676 
L 266.394752 176.553926 
L 265.587434 173.132465 
L 264.780116 169.900827 
L 263.972797 169.746717 
L 263.165479 174.152379 
L 262.358161 178.291177 
L 261.550842 180.567985 
L 260.743524 178.465513 
L 259.936206 176.785142 
L 259.128887 174.448551 
L 258.321569 174.046898 
L 257.51425 175.907915 
L 256.706932 174.811354 
L 255.899614 175.07449 
L 255.092295 167.476846 
L 254.284977 169.087838 
L 253.477659 176.215736 
L 252.67034 178.842715 
L 251.863022 183.515253 
L 251.055704 183.491691 
L 250.248385 180.550749 
L 249.441067 179.492982 
L 248.633749 176.826665 
L 247.82643 178.548853 
L 247.019112 179.388823 
L 246.211794 173.553196 
L 245.404475 174.861765 
L 244.597157 174.513578 
L 243.789839 176.274036 
L 242.98252 179.768871 
L 242.175202 179.14458 
L 241.367883 178.164364 
L 240.560565 172.487194 
L 239.753247 170.932662 
L 238.945928 174.948024 
L 238.13861 174.905931 
L 237.331292 174.577476 
L 236.523973 176.554349 
L 235.716655 176.801478 
L 234.909337 177.28432 
L 234.102018 176.670295 
L 233.2947 178.354732 
L 232.487382 179.510456 
L 231.680063 178.379245 
L 230.872745 173.526191 
L 230.065427 171.70479 
L 229.258108 175.250903 
L 228.45079 180.066814 
L 227.643472 181.116315 
L 226.836153 177.269359 
L 226.028835 175.573514 
L 225.221517 176.437571 
L 224.414198 177.280453 
L 223.60688 176.164655 
L 222.799561 177.520914 
L 221.992243 177.504257 
L 221.184925 180.029166 
L 220.377606 178.86505 
L 219.570288 171.351888 
L 218.76297 175.682772 
L 217.955651 180.052649 
L 217.148333 180.728493 
L 216.341015 177.743192 
L 215.533696 175.110717 
L 214.726378 176.33678 
L 213.91906 179.441768 
L 213.111741 181.967052 
L 212.304423 178.20349 
L 211.497105 174.95162 
L 210.689786 175.132893 
L 209.882468 174.269283 
L 209.07515 174.966302 
L 208.267831 177.134991 
L 207.460513 176.26477 
L 206.653194 174.890396 
L 205.845876 176.547063 
L 205.038558 176.236261 
L 204.231239 181.104392 
L 203.423921 178.869687 
L 202.616603 172.147369 
L 201.809284 175.595568 
L 201.001966 175.127461 
L 200.194648 172.973495 
L 199.387329 175.5307 
L 198.580011 178.832078 
L 197.772693 180.0516 
L 196.965374 177.861132 
L 196.158056 179.079065 
L 195.350738 177.823283 
L 194.543419 179.780335 
L 193.736101 182.22524 
L 192.928783 178.579503 
L 192.121464 174.393043 
L 191.314146 175.548529 
L 190.506827 172.861009 
L 189.699509 175.628754 
L 188.892191 179.8048 
L 188.084872 180.202232 
L 187.277554 178.639437 
L 186.470236 178.273174 
L 185.662917 179.841912 
L 184.855599 178.753023 
L 184.048281 179.684715 
L 183.240962 179.427054 
L 182.433644 178.761384 
L 181.626326 177.236054 
L 180.819007 175.140041 
L 180.011689 176.338502 
L 179.204371 175.823698 
L 178.397052 177.984196 
L 177.589734 181.189855 
L 176.782416 176.932003 
L 175.975097 174.394308 
L 175.167779 179.648145 
L 174.360461 183.167047 
L 173.553142 180.681155 
L 172.745824 174.542324 
L 171.938505 170.339307 
L 171.131187 171.032342 
L 170.323869 168.700731 
L 169.51655 169.8725 
L 168.709232 167.494217 
L 167.901914 173.244683 
L 167.094595 176.370454 
L 166.287277 174.522767 
L 165.479959 180.636077 
L 164.67264 180.960611 
L 163.865322 181.166182 
L 163.058004 180.027834 
L 162.250685 175.699673 
L 161.443367 176.039978 
L 160.636049 176.092361 
L 159.82873 177.107174 
L 159.021412 175.419144 
L 158.214094 175.275908 
L 157.406775 176.111055 
L 156.599457 175.73846 
L 155.792138 180.160825 
L 154.98482 180.592249 
L 154.177502 175.815414 
L 153.370183 174.058585 
L 152.562865 176.125759 
L 151.755547 172.941 
L 150.948228 177.106508 
L 150.14091 180.847134 
L 149.333592 179.812981 
L 148.526273 179.405368 
L 147.718955 176.544489 
L 146.911637 178.082292 
L 146.104318 179.804731 
L 145.297 180.613855 
L 144.489682 180.852448 
L 143.682363 175.644405 
L 142.875045 172.923522 
L 142.067727 175.848657 
L 141.260408 178.2303 
L 140.45309 178.710211 
L 139.645771 181.057044 
L 138.838453 179.986401 
L 138.031135 176.827937 
L 137.223816 179.16775 
L 136.416498 181.783313 
L 135.60918 181.110771 
L 134.801861 180.255933 
L 133.994543 174.192529 
L 133.187225 169.454618 
L 132.379906 172.614744 
L 131.572588 171.188923 
L 130.76527 170.810879 
L 129.957951 177.337973 
L 129.150633 177.746343 
L 128.343315 178.095673 
L 127.535996 180.287507 
L 126.728678 178.519 
L 125.92136 178.610111 
L 125.114041 178.681612 
L 124.306723 179.012554 
L 123.499405 172.27119 
L 122.692086 170.224694 
L 121.884768 169.819479 
L 121.077449 175.562926 
L 120.270131 178.474906 
L 119.462813 176.860983 
L 118.655494 173.717465 
L 117.848176 176.72737 
L 117.040858 181.948733 
L 116.233539 180.415821 
L 115.426221 177.897306 
L 114.618903 175.346236 
L 113.811584 175.350548 
L 113.004266 172.366002 
L 112.196948 170.774383 
L 111.389629 172.860661 
L 110.582311 172.507241 
L 109.774993 172.979215 
L 108.967674 177.384961 
L 108.160356 179.074712 
L 107.353038 179.793343 
L 106.545719 181.653352 
L 105.738401 181.61726 
L 104.931082 178.779426 
L 104.123764 172.601852 
L 103.316446 173.386281 
L 102.509127 177.231693 
L 101.701809 174.248093 
L 100.894491 170.041238 
L 100.087172 169.917753 
L 99.279854 171.863396 
L 98.472536 178.355234 
L 97.665217 179.750331 
L 96.857899 180.241087 
L 96.050581 177.268164 
L 95.243262 177.030834 
L 94.435944 177.113779 
L 93.628626 177.1118 
L 92.821307 177.33455 
L 92.013989 176.360883 
L 91.206671 175.897469 
L 90.399352 174.954138 
L 89.592034 175.044455 
L 88.784715 177.583736 
L 87.977397 179.137212 
L 87.170079 178.003702 
L 86.36276 180.928739 
L 85.555442 176.346138 
L 84.748124 176.734797 
L 83.940805 179.764188 
L 83.133487 182.095628 
L 82.326169 181.612793 
L 81.51885 179.602923 
L 80.711532 180.664919 
L 79.904214 178.895987 
L 79.096895 179.488732 
L 78.289577 181.881327 
L 77.482259 181.403059 
L 76.67494 179.820149 
L 75.867622 177.410782 
L 75.060304 175.902218 
L 74.252985 173.337113 
L 73.445667 173.348543 
L 72.638349 175.508526 
L 71.83103 176.711097 
L 71.023712 174.352806 
L 70.216393 169.853517 
L 69.409075 173.449395 
L 68.601757 178.898452 
L 67.794438 173.711648 
z
" clip-path="url(#p279147bd55)" style="fill-opacity: 0.25"/>
   </g>
   <g id="matplotlib.axis_1">
    <g id="xtick_1">
     <g id="line2d_1">
      <defs>
       <path id="m47bff76e75" d="M 0 0 
L 0 3.5 
" style="stroke: #000000; stroke-width: 0.8"/>
      </defs>
      <g>
       <use xlink:href="#m47bff76e75" x="77.482259" y="186.84327" style="stroke: #000000; stroke-width: 0.8"/>
      </g>
     </g>
     <g id="text_1">
      <!-- 1980 -->
      <g transform="translate(64.757259 201.441708) scale(0.1 -0.1)">
       <defs>
        <path id="DejaVuSans-31" d="M 794 531 
L 1825 531 
L 1825 4091 
L 703 3866 
L 703 4441 
L 1819 4666 
L 2450 4666 
L 2450 531 
L 3481 531 
L 3481 0 
L 794 0 
L 794 531 
z
" transform="scale(0.015625)"/>
        <path id="DejaVuSans-39" d="M 703 97 
L 703 672 
Q 941 559 1184 500 
Q 1428 441 1663 441 
Q 2288 441 2617 861 
Q 2947 1281 2994 2138 
Q 2813 1869 2534 1725 
Q 2256 1581 1919 1581 
Q 1219 1581 811 2004 
Q 403 2428 403 3163 
Q 403 3881 828 4315 
Q 1253 4750 1959 4750 
Q 2769 4750 3195 4129 
Q 3622 3509 3622 2328 
Q 3622 1225 3098 567 
Q 2575 -91 1691 -91 
Q 1453 -91 1209 -44 
Q 966 3 703 97 
z
M 1959 2075 
Q 2384 2075 2632 2365 
Q 2881 2656 2881 3163 
Q 2881 3666 2632 3958 
Q 2384 4250 1959 4250 
Q 1534 4250 1286 3958 
Q 1038 3666 1038 3163 
Q 1038 2656 1286 2365 
Q 1534 2075 1959 2075 
z
" transform="scale(0.015625)"/>
        <path id="DejaVuSans-38" d="M 2034 2216 
Q 1584 2216 1326 1975 
Q 1069 1734 1069 1313 
Q 1069 891 1326 650 
Q 1584 409 2034 409 
Q 2484 409 2743 651 
Q 3003 894 3003 1313 
Q 3003 1734 2745 1975 
Q 2488 2216 2034 2216 
z
M 1403 2484 
Q 997 2584 770 2862 
Q 544 3141 544 3541 
Q 544 4100 942 4425 
Q 1341 4750 2034 4750 
Q 2731 4750 3128 4425 
Q 3525 4100 3525 3541 
Q 3525 3141 3298 2862 
Q 3072 2584 2669 2484 
Q 3125 2378 3379 2068 
Q 3634 1759 3634 1313 
Q 3634 634 3220 271 
Q 2806 -91 2034 -91 
Q 1263 -91 848 271 
Q 434 634 434 1313 
Q 434 1759 690 2068 
Q 947 2378 1403 2484 
z
M 1172 3481 
Q 1172 3119 1398 2916 
Q 1625 2713 2034 2713 
Q 2441 2713 2670 2916 
Q 2900 3119 2900 3481 
Q 2900 3844 2670 4047 
Q 2441 4250 2034 4250 
Q 1625 4250 1398 4047 
Q 1172 3844 1172 3481 
z
" transform="scale(0.015625)"/>
        <path id="DejaVuSans-30" d="M 2034 4250 
Q 1547 4250 1301 3770 
Q 1056 3291 1056 2328 
Q 1056 1369 1301 889 
Q 1547 409 2034 409 
Q 2525 409 2770 889 
Q 3016 1369 3016 2328 
Q 3016 3291 2770 3770 
Q 2525 4250 2034 4250 
z
M 2034 4750 
Q 2819 4750 3233 4129 
Q 3647 3509 3647 2328 
Q 3647 1150 3233 529 
Q 2819 -91 2034 -91 
Q 1250 -91 836 529 
Q 422 1150 422 2328 
Q 422 3509 836 4129 
Q 1250 4750 2034 4750 
z
" transform="scale(0.015625)"/>
       </defs>
       <use xlink:href="#DejaVuSans-31"/>
       <use xlink:href="#DejaVuSans-39" x="63.623047"/>
       <use xlink:href="#DejaVuSans-38" x="127.246094"/>
       <use xlink:href="#DejaVuSans-30" x="190.869141"/>
      </g>
     </g>
    </g>
    <g id="xtick_2">
     <g id="line2d_2">
      <g>
       <use xlink:href="#m47bff76e75" x="174.360461" y="186.84327" style="stroke: #000000; stroke-width: 0.8"/>
      </g>
     </g>
     <g id="text_2">
      <!-- 1990 -->
      <g transform="translate(161.635461 201.441708) scale(0.1 -0.1)">
       <use xlink:href="#DejaVuSans-31"/>
       <use xlink:href="#DejaVuSans-39" x="63.623047"/>
       <use xlink:href="#DejaVuSans-39" x="127.246094"/>
       <use xlink:href="#DejaVuSans-30" x="190.869141"/>
      </g>
     </g>
    </g>
    <g id="xtick_3">
     <g id="line2d_3">
      <g>
       <use xlink:href="#m47bff76e75" x="271.238662" y="186.84327" style="stroke: #000000; stroke-width: 0.8"/>
      </g>
     </g>
     <g id="text_3">
      <!-- 2000 -->
      <g transform="translate(258.513662 201.441708) scale(0.1 -0.1)">
       <defs>
        <path id="DejaVuSans-32" d="M 1228 531 
L 3431 531 
L 3431 0 
L 469 0 
L 469 531 
Q 828 903 1448 1529 
Q 2069 2156 2228 2338 
Q 2531 2678 2651 2914 
Q 2772 3150 2772 3378 
Q 2772 3750 2511 3984 
Q 2250 4219 1831 4219 
Q 1534 4219 1204 4116 
Q 875 4013 500 3803 
L 500 4441 
Q 881 4594 1212 4672 
Q 1544 4750 1819 4750 
Q 2544 4750 2975 4387 
Q 3406 4025 3406 3419 
Q 3406 3131 3298 2873 
Q 3191 2616 2906 2266 
Q 2828 2175 2409 1742 
Q 1991 1309 1228 531 
z
" transform="scale(0.015625)"/>
       </defs>
       <use xlink:href="#DejaVuSans-32"/>
       <use xlink:href="#DejaVuSans-30" x="63.623047"/>
       <use xlink:href="#DejaVuSans-30" x="127.246094"/>
       <use xlink:href="#DejaVuSans-30" x="190.869141"/>
      </g>
     </g>
    </g>
    <g id="xtick_4">
     <g id="line2d_4">
      <g>
       <use xlink:href="#m47bff76e75" x="368.116864" y="186.84327" style="stroke: #000000; stroke-width: 0.8"/>
      </g>
     </g>
     <g id="text_4">
      <!-- 2010 -->
      <g transform="translate(355.391864 201.441708) scale(0.1 -0.1)">
       <use xlink:href="#DejaVuSans-32"/>
       <use xlink:href="#DejaVuSans-30" x="63.623047"/>
       <use xlink:href="#DejaVuSans-31" x="127.246094"/>
       <use xlink:href="#DejaVuSans-30" x="190.869141"/>
      </g>
     </g>
    </g>
    <g id="xtick_5">
     <g id="line2d_5">
      <g>
       <use xlink:href="#m47bff76e75" x="464.995066" y="186.84327" style="stroke: #000000; stroke-width: 0.8"/>
      </g>
     </g>
     <g id="text_5">
      <!-- 2020 -->
      <g transform="translate(452.270066 201.441708) scale(0.1 -0.1)">
       <use xlink:href="#DejaVuSans-32"/>
       <use xlink:href="#DejaVuSans-30" x="63.623047"/>
       <use xlink:href="#DejaVuSans-32" x="127.246094"/>
       <use xlink:href="#DejaVuSans-30" x="190.869141"/>
      </g>
     </g>
    </g>
    <g id="text_6">
     <!-- Year -->
     <g transform="translate(265.495073 215.119833) scale(0.1 -0.1)">
      <defs>
       <path id="DejaVuSans-59" d="M -13 4666 
L 666 4666 
L 1959 2747 
L 3244 4666 
L 3922 4666 
L 2272 2222 
L 2272 0 
L 1638 0 
L 1638 2222 
L -13 4666 
z
" transform="scale(0.015625)"/>
       <path id="DejaVuSans-65" d="M 3597 1894 
L 3597 1613 
L 953 1613 
Q 991 1019 1311 708 
Q 1631 397 2203 397 
Q 2534 397 2845 478 
Q 3156 559 3463 722 
L 3463 178 
Q 3153 47 2828 -22 
Q 2503 -91 2169 -91 
Q 1331 -91 842 396 
Q 353 884 353 1716 
Q 353 2575 817 3079 
Q 1281 3584 2069 3584 
Q 2775 3584 3186 3129 
Q 3597 2675 3597 1894 
z
M 3022 2063 
Q 3016 2534 2758 2815 
Q 2500 3097 2075 3097 
Q 1594 3097 1305 2825 
Q 1016 2553 972 2059 
L 3022 2063 
z
" transform="scale(0.015625)"/>
       <path id="DejaVuSans-61" d="M 2194 1759 
Q 1497 1759 1228 1600 
Q 959 1441 959 1056 
Q 959 750 1161 570 
Q 1363 391 1709 391 
Q 2188 391 2477 730 
Q 2766 1069 2766 1631 
L 2766 1759 
L 2194 1759 
z
M 3341 1997 
L 3341 0 
L 2766 0 
L 2766 531 
Q 2569 213 2275 61 
Q 1981 -91 1556 -91 
Q 1019 -91 701 211 
Q 384 513 384 1019 
Q 384 1609 779 1909 
Q 1175 2209 1959 2209 
L 2766 2209 
L 2766 2266 
Q 2766 2663 2505 2880 
Q 2244 3097 1772 3097 
Q 1472 3097 1187 3025 
Q 903 2953 641 2809 
L 641 3341 
Q 956 3463 1253 3523 
Q 1550 3584 1831 3584 
Q 2591 3584 2966 3190 
Q 3341 2797 3341 1997 
z
" transform="scale(0.015625)"/>
       <path id="DejaVuSans-72" d="M 2631 2963 
Q 2534 3019 2420 3045 
Q 2306 3072 2169 3072 
Q 1681 3072 1420 2755 
Q 1159 2438 1159 1844 
L 1159 0 
L 581 0 
L 581 3500 
L 1159 3500 
L 1159 2956 
Q 1341 3275 1631 3429 
Q 1922 3584 2338 3584 
Q 2397 3584 2469 3576 
Q 2541 3569 2628 3553 
L 2631 2963 
z
" transform="scale(0.015625)"/>
      </defs>
      <use xlink:href="#DejaVuSans-59"/>
      <use xlink:href="#DejaVuSans-65" x="47.833984"/>
      <use xlink:href="#DejaVuSans-61" x="109.357422"/>
      <use xlink:href="#DejaVuSans-72" x="170.636719"/>
     </g>
    </g>
   </g>
   <g id="matplotlib.axis_2">
    <g id="ytick_1">
     <g id="line2d_6">
      <defs>
       <path id="m21c022b4f6" d="M 0 0 
L -3.5 0 
" style="stroke: #000000; stroke-width: 0.8"/>
      </defs>
      <g>
       <use xlink:href="#m21c022b4f6" x="46.965625" y="186.84327" style="stroke: #000000; stroke-width: 0.8"/>
      </g>
     </g>
     <g id="text_7">
      <!-- 0 -->
      <g transform="translate(33.603125 190.642489) scale(0.1 -0.1)">
       <use xlink:href="#DejaVuSans-30"/>
      </g>
     </g>
    </g>
    <g id="ytick_2">
     <g id="line2d_7">
      <g>
       <use xlink:href="#m21c022b4f6" x="46.965625" y="163.339678" style="stroke: #000000; stroke-width: 0.8"/>
      </g>
     </g>
     <g id="text_8">
      <!-- 50 -->
      <g transform="translate(27.240625 167.138897) scale(0.1 -0.1)">
       <defs>
        <path id="DejaVuSans-35" d="M 691 4666 
L 3169 4666 
L 3169 4134 
L 1269 4134 
L 1269 2991 
Q 1406 3038 1543 3061 
Q 1681 3084 1819 3084 
Q 2600 3084 3056 2656 
Q 3513 2228 3513 1497 
Q 3513 744 3044 326 
Q 2575 -91 1722 -91 
Q 1428 -91 1123 -41 
Q 819 9 494 109 
L 494 744 
Q 775 591 1075 516 
Q 1375 441 1709 441 
Q 2250 441 2565 725 
Q 2881 1009 2881 1497 
Q 2881 1984 2565 2268 
Q 2250 2553 1709 2553 
Q 1456 2553 1204 2497 
Q 953 2441 691 2322 
L 691 4666 
z
" transform="scale(0.015625)"/>
       </defs>
       <use xlink:href="#DejaVuSans-35"/>
       <use xlink:href="#DejaVuSans-30" x="63.623047"/>
      </g>
     </g>
    </g>
    <g id="ytick_3">
     <g id="line2d_8">
      <g>
       <use xlink:href="#m21c022b4f6" x="46.965625" y="139.836086" style="stroke: #000000; stroke-width: 0.8"/>
      </g>
     </g>
     <g id="text_9">
      <!-- 100 -->
      <g transform="translate(20.878125 143.635304) scale(0.1 -0.1)">
       <use xlink:href="#DejaVuSans-31"/>
       <use xlink:href="#DejaVuSans-30" x="63.623047"/>
       <use xlink:href="#DejaVuSans-30" x="127.246094"/>
      </g>
     </g>
    </g>
    <g id="ytick_4">
     <g id="line2d_9">
      <g>
       <use xlink:href="#m21c022b4f6" x="46.965625" y="116.332494" style="stroke: #000000; stroke-width: 0.8"/>
      </g>
     </g>
     <g id="text_10">
      <!-- 150 -->
      <g transform="translate(20.878125 120.131712) scale(0.1 -0.1)">
       <use xlink:href="#DejaVuSans-31"/>
       <use xlink:href="#DejaVuSans-35" x="63.623047"/>
       <use xlink:href="#DejaVuSans-30" x="127.246094"/>
      </g>
     </g>
    </g>
    <g id="ytick_5">
     <g id="line2d_10">
      <g>
       <use xlink:href="#m21c022b4f6" x="46.965625" y="92.828901" style="stroke: #000000; stroke-width: 0.8"/>
      </g>
     </g>
     <g id="text_11">
      <!-- 200 -->
      <g transform="translate(20.878125 96.62812) scale(0.1 -0.1)">
       <use xlink:href="#DejaVuSans-32"/>
       <use xlink:href="#DejaVuSans-30" x="63.623047"/>
       <use xlink:href="#DejaVuSans-30" x="127.246094"/>
      </g>
     </g>
    </g>
    <g id="ytick_6">
     <g id="line2d_11">
      <g>
       <use xlink:href="#m21c022b4f6" x="46.965625" y="69.325309" style="stroke: #000000; stroke-width: 0.8"/>
      </g>
     </g>
     <g id="text_12">
      <!-- 250 -->
      <g transform="translate(20.878125 73.124528) scale(0.1 -0.1)">
       <use xlink:href="#DejaVuSans-32"/>
       <use xlink:href="#DejaVuSans-35" x="63.623047"/>
       <use xlink:href="#DejaVuSans-30" x="127.246094"/>
      </g>
     </g>
    </g>
    <g id="ytick_7">
     <g id="line2d_12">
      <g>
       <use xlink:href="#m21c022b4f6" x="46.965625" y="45.821717" style="stroke: #000000; stroke-width: 0.8"/>
      </g>
     </g>
     <g id="text_13">
      <!-- 300 -->
      <g transform="translate(20.878125 49.620936) scale(0.1 -0.1)">
       <defs>
        <path id="DejaVuSans-33" d="M 2597 2516 
Q 3050 2419 3304 2112 
Q 3559 1806 3559 1356 
Q 3559 666 3084 287 
Q 2609 -91 1734 -91 
Q 1441 -91 1130 -33 
Q 819 25 488 141 
L 488 750 
Q 750 597 1062 519 
Q 1375 441 1716 441 
Q 2309 441 2620 675 
Q 2931 909 2931 1356 
Q 2931 1769 2642 2001 
Q 2353 2234 1838 2234 
L 1294 2234 
L 1294 2753 
L 1863 2753 
Q 2328 2753 2575 2939 
Q 2822 3125 2822 3475 
Q 2822 3834 2567 4026 
Q 2313 4219 1838 4219 
Q 1578 4219 1281 4162 
Q 984 4106 628 3988 
L 628 4550 
Q 988 4650 1302 4700 
Q 1616 4750 1894 4750 
Q 2613 4750 3031 4423 
Q 3450 4097 3450 3541 
Q 3450 3153 3228 2886 
Q 3006 2619 2597 2516 
z
" transform="scale(0.015625)"/>
       </defs>
       <use xlink:href="#DejaVuSans-33"/>
       <use xlink:href="#DejaVuSans-30" x="63.623047"/>
       <use xlink:href="#DejaVuSans-30" x="127.246094"/>
      </g>
     </g>
    </g>
    <g id="ytick_8">
     <g id="line2d_13">
      <g>
       <use xlink:href="#m21c022b4f6" x="46.965625" y="22.318125" style="stroke: #000000; stroke-width: 0.8"/>
      </g>
     </g>
     <g id="text_14">
      <!-- 350 -->
      <g transform="translate(20.878125 26.117344) scale(0.1 -0.1)">
       <use xlink:href="#DejaVuSans-33"/>
       <use xlink:href="#DejaVuSans-35" x="63.623047"/>
       <use xlink:href="#DejaVuSans-30" x="127.246094"/>
      </g>
     </g>
    </g>
    <g id="text_15">
     <!-- Surface Mass Balance [Gt/month] -->
     <g transform="translate(14.798438 188.573666) rotate(-90) scale(0.1 -0.1)">
      <defs>
       <path id="DejaVuSans-53" d="M 3425 4513 
L 3425 3897 
Q 3066 4069 2747 4153 
Q 2428 4238 2131 4238 
Q 1616 4238 1336 4038 
Q 1056 3838 1056 3469 
Q 1056 3159 1242 3001 
Q 1428 2844 1947 2747 
L 2328 2669 
Q 3034 2534 3370 2195 
Q 3706 1856 3706 1288 
Q 3706 609 3251 259 
Q 2797 -91 1919 -91 
Q 1588 -91 1214 -16 
Q 841 59 441 206 
L 441 856 
Q 825 641 1194 531 
Q 1563 422 1919 422 
Q 2459 422 2753 634 
Q 3047 847 3047 1241 
Q 3047 1584 2836 1778 
Q 2625 1972 2144 2069 
L 1759 2144 
Q 1053 2284 737 2584 
Q 422 2884 422 3419 
Q 422 4038 858 4394 
Q 1294 4750 2059 4750 
Q 2388 4750 2728 4690 
Q 3069 4631 3425 4513 
z
" transform="scale(0.015625)"/>
       <path id="DejaVuSans-75" d="M 544 1381 
L 544 3500 
L 1119 3500 
L 1119 1403 
Q 1119 906 1312 657 
Q 1506 409 1894 409 
Q 2359 409 2629 706 
Q 2900 1003 2900 1516 
L 2900 3500 
L 3475 3500 
L 3475 0 
L 2900 0 
L 2900 538 
Q 2691 219 2414 64 
Q 2138 -91 1772 -91 
Q 1169 -91 856 284 
Q 544 659 544 1381 
z
M 1991 3584 
L 1991 3584 
z
" transform="scale(0.015625)"/>
       <path id="DejaVuSans-66" d="M 2375 4863 
L 2375 4384 
L 1825 4384 
Q 1516 4384 1395 4259 
Q 1275 4134 1275 3809 
L 1275 3500 
L 2222 3500 
L 2222 3053 
L 1275 3053 
L 1275 0 
L 697 0 
L 697 3053 
L 147 3053 
L 147 3500 
L 697 3500 
L 697 3744 
Q 697 4328 969 4595 
Q 1241 4863 1831 4863 
L 2375 4863 
z
" transform="scale(0.015625)"/>
       <path id="DejaVuSans-63" d="M 3122 3366 
L 3122 2828 
Q 2878 2963 2633 3030 
Q 2388 3097 2138 3097 
Q 1578 3097 1268 2742 
Q 959 2388 959 1747 
Q 959 1106 1268 751 
Q 1578 397 2138 397 
Q 2388 397 2633 464 
Q 2878 531 3122 666 
L 3122 134 
Q 2881 22 2623 -34 
Q 2366 -91 2075 -91 
Q 1284 -91 818 406 
Q 353 903 353 1747 
Q 353 2603 823 3093 
Q 1294 3584 2113 3584 
Q 2378 3584 2631 3529 
Q 2884 3475 3122 3366 
z
" transform="scale(0.015625)"/>
       <path id="DejaVuSans-20" transform="scale(0.015625)"/>
       <path id="DejaVuSans-4d" d="M 628 4666 
L 1569 4666 
L 2759 1491 
L 3956 4666 
L 4897 4666 
L 4897 0 
L 4281 0 
L 4281 4097 
L 3078 897 
L 2444 897 
L 1241 4097 
L 1241 0 
L 628 0 
L 628 4666 
z
" transform="scale(0.015625)"/>
       <path id="DejaVuSans-73" d="M 2834 3397 
L 2834 2853 
Q 2591 2978 2328 3040 
Q 2066 3103 1784 3103 
Q 1356 3103 1142 2972 
Q 928 2841 928 2578 
Q 928 2378 1081 2264 
Q 1234 2150 1697 2047 
L 1894 2003 
Q 2506 1872 2764 1633 
Q 3022 1394 3022 966 
Q 3022 478 2636 193 
Q 2250 -91 1575 -91 
Q 1294 -91 989 -36 
Q 684 19 347 128 
L 347 722 
Q 666 556 975 473 
Q 1284 391 1588 391 
Q 1994 391 2212 530 
Q 2431 669 2431 922 
Q 2431 1156 2273 1281 
Q 2116 1406 1581 1522 
L 1381 1569 
Q 847 1681 609 1914 
Q 372 2147 372 2553 
Q 372 3047 722 3315 
Q 1072 3584 1716 3584 
Q 2034 3584 2315 3537 
Q 2597 3491 2834 3397 
z
" transform="scale(0.015625)"/>
       <path id="DejaVuSans-42" d="M 1259 2228 
L 1259 519 
L 2272 519 
Q 2781 519 3026 730 
Q 3272 941 3272 1375 
Q 3272 1813 3026 2020 
Q 2781 2228 2272 2228 
L 1259 2228 
z
M 1259 4147 
L 1259 2741 
L 2194 2741 
Q 2656 2741 2882 2914 
Q 3109 3088 3109 3444 
Q 3109 3797 2882 3972 
Q 2656 4147 2194 4147 
L 1259 4147 
z
M 628 4666 
L 2241 4666 
Q 2963 4666 3353 4366 
Q 3744 4066 3744 3513 
Q 3744 3084 3544 2831 
Q 3344 2578 2956 2516 
Q 3422 2416 3680 2098 
Q 3938 1781 3938 1306 
Q 3938 681 3513 340 
Q 3088 0 2303 0 
L 628 0 
L 628 4666 
z
" transform="scale(0.015625)"/>
       <path id="DejaVuSans-6c" d="M 603 4863 
L 1178 4863 
L 1178 0 
L 603 0 
L 603 4863 
z
" transform="scale(0.015625)"/>
       <path id="DejaVuSans-6e" d="M 3513 2113 
L 3513 0 
L 2938 0 
L 2938 2094 
Q 2938 2591 2744 2837 
Q 2550 3084 2163 3084 
Q 1697 3084 1428 2787 
Q 1159 2491 1159 1978 
L 1159 0 
L 581 0 
L 581 3500 
L 1159 3500 
L 1159 2956 
Q 1366 3272 1645 3428 
Q 1925 3584 2291 3584 
Q 2894 3584 3203 3211 
Q 3513 2838 3513 2113 
z
" transform="scale(0.015625)"/>
       <path id="DejaVuSans-5b" d="M 550 4863 
L 1875 4863 
L 1875 4416 
L 1125 4416 
L 1125 -397 
L 1875 -397 
L 1875 -844 
L 550 -844 
L 550 4863 
z
" transform="scale(0.015625)"/>
       <path id="DejaVuSans-47" d="M 3809 666 
L 3809 1919 
L 2778 1919 
L 2778 2438 
L 4434 2438 
L 4434 434 
Q 4069 175 3628 42 
Q 3188 -91 2688 -91 
Q 1594 -91 976 548 
Q 359 1188 359 2328 
Q 359 3472 976 4111 
Q 1594 4750 2688 4750 
Q 3144 4750 3555 4637 
Q 3966 4525 4313 4306 
L 4313 3634 
Q 3963 3931 3569 4081 
Q 3175 4231 2741 4231 
Q 1884 4231 1454 3753 
Q 1025 3275 1025 2328 
Q 1025 1384 1454 906 
Q 1884 428 2741 428 
Q 3075 428 3337 486 
Q 3600 544 3809 666 
z
" transform="scale(0.015625)"/>
       <path id="DejaVuSans-74" d="M 1172 4494 
L 1172 3500 
L 2356 3500 
L 2356 3053 
L 1172 3053 
L 1172 1153 
Q 1172 725 1289 603 
Q 1406 481 1766 481 
L 2356 481 
L 2356 0 
L 1766 0 
Q 1100 0 847 248 
Q 594 497 594 1153 
L 594 3053 
L 172 3053 
L 172 3500 
L 594 3500 
L 594 4494 
L 1172 4494 
z
" transform="scale(0.015625)"/>
       <path id="DejaVuSans-2f" d="M 1625 4666 
L 2156 4666 
L 531 -594 
L 0 -594 
L 1625 4666 
z
" transform="scale(0.015625)"/>
       <path id="DejaVuSans-6d" d="M 3328 2828 
Q 3544 3216 3844 3400 
Q 4144 3584 4550 3584 
Q 5097 3584 5394 3201 
Q 5691 2819 5691 2113 
L 5691 0 
L 5113 0 
L 5113 2094 
Q 5113 2597 4934 2840 
Q 4756 3084 4391 3084 
Q 3944 3084 3684 2787 
Q 3425 2491 3425 1978 
L 3425 0 
L 2847 0 
L 2847 2094 
Q 2847 2600 2669 2842 
Q 2491 3084 2119 3084 
Q 1678 3084 1418 2786 
Q 1159 2488 1159 1978 
L 1159 0 
L 581 0 
L 581 3500 
L 1159 3500 
L 1159 2956 
Q 1356 3278 1631 3431 
Q 1906 3584 2284 3584 
Q 2666 3584 2933 3390 
Q 3200 3197 3328 2828 
z
" transform="scale(0.015625)"/>
       <path id="DejaVuSans-6f" d="M 1959 3097 
Q 1497 3097 1228 2736 
Q 959 2375 959 1747 
Q 959 1119 1226 758 
Q 1494 397 1959 397 
Q 2419 397 2687 759 
Q 2956 1122 2956 1747 
Q 2956 2369 2687 2733 
Q 2419 3097 1959 3097 
z
M 1959 3584 
Q 2709 3584 3137 3096 
Q 3566 2609 3566 1747 
Q 3566 888 3137 398 
Q 2709 -91 1959 -91 
Q 1206 -91 779 398 
Q 353 888 353 1747 
Q 353 2609 779 3096 
Q 1206 3584 1959 3584 
z
" transform="scale(0.015625)"/>
       <path id="DejaVuSans-68" d="M 3513 2113 
L 3513 0 
L 2938 0 
L 2938 2094 
Q 2938 2591 2744 2837 
Q 2550 3084 2163 3084 
Q 1697 3084 1428 2787 
Q 1159 2491 1159 1978 
L 1159 0 
L 581 0 
L 581 4863 
L 1159 4863 
L 1159 2956 
Q 1366 3272 1645 3428 
Q 1925 3584 2291 3584 
Q 2894 3584 3203 3211 
Q 3513 2838 3513 2113 
z
" transform="scale(0.015625)"/>
       <path id="DejaVuSans-5d" d="M 1947 4863 
L 1947 -844 
L 622 -844 
L 622 -397 
L 1369 -397 
L 1369 4416 
L 622 4416 
L 622 4863 
L 1947 4863 
z
" transform="scale(0.015625)"/>
      </defs>
      <use xlink:href="#DejaVuSans-53"/>
      <use xlink:href="#DejaVuSans-75" x="63.476562"/>
      <use xlink:href="#DejaVuSans-72" x="126.855469"/>
      <use xlink:href="#DejaVuSans-66" x="167.96875"/>
      <use xlink:href="#DejaVuSans-61" x="203.173828"/>
      <use xlink:href="#DejaVuSans-63" x="264.453125"/>
      <use xlink:href="#DejaVuSans-65" x="319.433594"/>
      <use xlink:href="#DejaVuSans-20" x="380.957031"/>
      <use xlink:href="#DejaVuSans-4d" x="412.744141"/>
      <use xlink:href="#DejaVuSans-61" x="499.023438"/>
      <use xlink:href="#DejaVuSans-73" x="560.302734"/>
      <use xlink:href="#DejaVuSans-73" x="612.402344"/>
      <use xlink:href="#DejaVuSans-20" x="664.501953"/>
      <use xlink:href="#DejaVuSans-42" x="696.289062"/>
      <use xlink:href="#DejaVuSans-61" x="764.892578"/>
      <use xlink:href="#DejaVuSans-6c" x="826.171875"/>
      <use xlink:href="#DejaVuSans-61" x="853.955078"/>
      <use xlink:href="#DejaVuSans-6e" x="915.234375"/>
      <use xlink:href="#DejaVuSans-63" x="978.613281"/>
      <use xlink:href="#DejaVuSans-65" x="1033.59375"/>
      <use xlink:href="#DejaVuSans-20" x="1095.117188"/>
      <use xlink:href="#DejaVuSans-5b" x="1126.904297"/>
      <use xlink:href="#DejaVuSans-47" x="1165.917969"/>
      <use xlink:href="#DejaVuSans-74" x="1243.408203"/>
      <use xlink:href="#DejaVuSans-2f" x="1282.617188"/>
      <use xlink:href="#DejaVuSans-6d" x="1316.308594"/>
      <use xlink:href="#DejaVuSans-6f" x="1413.720703"/>
      <use xlink:href="#DejaVuSans-6e" x="1474.902344"/>
      <use xlink:href="#DejaVuSans-74" x="1538.28125"/>
      <use xlink:href="#DejaVuSans-68" x="1577.490234"/>
      <use xlink:href="#DejaVuSans-5d" x="1640.869141"/>
     </g>
    </g>
   </g>
   <g id="line2d_14">
    <path d="M 67.794438 175.900252 
L 68.601757 179.645632 
L 69.409075 175.284559 
L 70.216393 171.772075 
L 71.023712 175.364736 
L 71.83103 177.850802 
L 72.638349 176.868015 
L 73.445667 174.660139 
L 74.252985 174.676845 
L 75.060304 176.871467 
L 75.867622 178.353794 
L 76.67494 180.46776 
L 77.482259 181.972248 
L 78.289577 182.222034 
L 79.096895 179.96749 
L 79.904214 179.33771 
L 80.711532 181.023704 
L 81.51885 180.009543 
L 82.326169 181.908654 
L 83.133487 182.428514 
L 83.940805 180.166468 
L 84.748124 177.297717 
L 85.555442 176.879364 
L 86.36276 181.295205 
L 87.170079 178.537768 
L 87.977397 179.629899 
L 88.784715 178.089005 
L 89.592034 175.87956 
L 90.399352 175.642427 
L 91.206671 176.507662 
L 92.013989 176.919028 
L 92.821307 177.833421 
L 93.628626 177.64476 
L 95.243262 177.609137 
L 96.050581 177.795266 
L 96.857899 180.672354 
L 97.665217 180.194893 
L 98.472536 178.838273 
L 99.279854 172.650725 
L 100.087172 170.748791 
L 100.894491 170.945929 
L 101.701809 174.886881 
L 102.509127 177.826238 
L 103.316446 174.125067 
L 104.123764 173.418708 
L 104.931082 179.229703 
L 105.738401 181.907005 
L 106.545719 181.990845 
L 107.353038 180.210357 
L 108.160356 179.518208 
L 108.967674 177.929075 
L 109.774993 173.756545 
L 110.582311 173.255273 
L 111.389629 173.528518 
L 112.196948 171.623375 
L 113.004266 173.054025 
L 113.811584 175.907061 
L 114.618903 175.89807 
L 116.233539 180.790945 
L 117.040858 182.264919 
L 117.848176 177.347717 
L 118.655494 174.385894 
L 119.462813 177.389054 
L 120.270131 178.942437 
L 121.077449 176.289188 
L 121.884768 170.712355 
L 122.692086 171.085646 
L 123.499405 172.976869 
L 124.306723 179.481286 
L 125.114041 179.116352 
L 126.728678 179.021116 
L 127.535996 180.707107 
L 128.343315 178.585951 
L 129.150633 178.174256 
L 129.957951 177.908055 
L 130.76527 171.693577 
L 131.572588 171.863075 
L 132.379906 173.328683 
L 133.187225 170.280354 
L 133.994543 174.812071 
L 134.801861 180.648453 
L 136.416498 182.105004 
L 138.031135 177.316098 
L 138.838453 180.30321 
L 139.645771 181.424942 
L 140.45309 179.138968 
L 141.260408 178.73351 
L 142.067727 176.465312 
L 142.875045 173.60167 
L 143.682363 176.21492 
L 144.489682 181.174592 
L 145.297 180.927539 
L 146.104318 180.227686 
L 147.718955 177.083277 
L 148.526273 179.839581 
L 149.333592 180.181605 
L 150.14091 181.17351 
L 150.948228 177.794772 
L 151.755547 173.6322 
L 152.562865 176.679006 
L 153.370183 174.723119 
L 154.177502 176.362976 
L 154.98482 180.982379 
L 155.792138 180.630664 
L 156.599457 176.411464 
L 157.406775 176.730911 
L 158.214094 175.947883 
L 159.021412 175.971097 
L 159.82873 177.610827 
L 160.636049 176.616861 
L 161.443367 176.624162 
L 162.250685 176.247176 
L 163.058004 180.412884 
L 163.865322 181.520315 
L 165.479959 181.063053 
L 166.287277 175.204292 
L 167.094595 176.913282 
L 167.901914 174.221605 
L 168.709232 168.413554 
L 169.51655 170.753199 
L 170.323869 169.52748 
L 171.131187 171.887979 
L 171.938505 171.112906 
L 172.745824 175.150984 
L 173.553142 181.038208 
L 174.360461 183.425659 
L 175.167779 180.161399 
L 175.975097 175.058453 
L 176.782416 177.45928 
L 177.589734 181.520044 
L 178.397052 178.523543 
L 179.204371 176.345066 
L 180.011689 176.874685 
L 180.819007 175.761087 
L 181.626326 177.708285 
L 182.433644 179.253802 
L 183.240962 179.791706 
L 184.048281 180.098621 
L 184.855599 179.213394 
L 185.662917 180.261493 
L 186.470236 178.734067 
L 187.277554 179.102136 
L 188.084872 180.577596 
L 188.892191 180.198475 
L 189.699509 176.279685 
L 190.506827 173.552922 
L 191.314146 176.13214 
L 192.121464 175.011058 
L 193.736101 182.551818 
L 194.543419 180.186621 
L 195.350738 178.393345 
L 196.158056 179.54268 
L 196.965374 178.363012 
L 197.772693 180.443351 
L 198.580011 179.296941 
L 199.387329 176.071794 
L 200.194648 173.598069 
L 201.001966 175.616764 
L 201.809284 176.324968 
L 202.616603 172.968676 
L 203.423921 179.348436 
L 204.231239 181.529185 
L 205.038558 176.868986 
L 205.845876 177.10184 
L 206.653194 175.557683 
L 207.460513 176.847981 
L 208.267831 177.641739 
L 209.07515 175.523352 
L 209.882468 174.876624 
L 210.689786 175.757613 
L 211.497105 175.520704 
L 212.304423 178.64277 
L 213.111741 182.28999 
L 213.91906 179.90531 
L 214.726378 176.964298 
L 215.533696 175.718795 
L 217.148333 181.079596 
L 217.955651 180.430761 
L 219.570288 172.162973 
L 220.377606 179.237324 
L 221.184925 180.463293 
L 221.992243 178.064466 
L 222.799561 178.117008 
L 223.60688 176.781377 
L 224.414198 177.83135 
L 226.028835 176.154365 
L 226.836153 177.77938 
L 227.643472 181.425735 
L 228.45079 180.476781 
L 229.258108 175.888692 
L 230.065427 172.502867 
L 230.872745 174.138323 
L 231.680063 178.864854 
L 232.487382 179.932117 
L 233.2947 178.906521 
L 234.102018 177.243634 
L 234.909337 177.767748 
L 236.523973 177.063391 
L 237.331292 175.31936 
L 238.945928 175.601055 
L 239.753247 171.70227 
L 240.560565 173.168189 
L 241.367883 178.60274 
L 242.175202 179.613382 
L 242.98252 180.212354 
L 243.789839 177.002995 
L 244.597157 175.127247 
L 245.404475 175.538611 
L 246.211794 174.245425 
L 247.019112 179.827106 
L 247.82643 178.993653 
L 248.633749 177.314672 
L 249.441067 179.924818 
L 250.248385 180.889508 
L 251.055704 183.71448 
L 251.863022 183.77433 
L 252.67034 179.367313 
L 253.477659 176.838364 
L 254.284977 170.148307 
L 255.092295 168.424571 
L 255.899614 175.692781 
L 256.706932 175.362593 
L 257.51425 176.458187 
L 258.321569 174.650217 
L 259.128887 175.004872 
L 259.936206 177.300729 
L 260.743524 178.914914 
L 261.550842 180.995607 
L 262.358161 178.786867 
L 263.972797 170.651836 
L 264.780116 170.763282 
L 266.394752 177.151069 
L 267.202071 176.818431 
L 268.009389 179.910073 
L 268.816707 176.176351 
L 269.624026 173.897278 
L 270.431344 176.148741 
L 271.238662 179.440925 
L 272.045981 178.707406 
L 272.853299 175.609088 
L 273.660617 175.864093 
L 274.467936 174.697873 
L 275.275254 174.12524 
L 276.889891 175.811278 
L 277.697209 179.844857 
L 278.504528 179.823544 
L 279.311846 179.32904 
L 280.119164 181.289355 
L 280.926483 181.943054 
L 281.733801 182.259511 
L 283.348438 178.813885 
L 284.155756 175.533829 
L 284.963074 173.961264 
L 285.770393 180.10934 
L 286.577711 175.842339 
L 287.385029 169.298793 
L 288.192348 167.292637 
L 288.999666 172.060689 
L 289.806984 175.386609 
L 291.421621 178.029206 
L 292.228939 177.216098 
L 293.036258 179.568746 
L 293.843576 178.624087 
L 294.650895 181.495255 
L 295.458213 179.135772 
L 296.265531 172.839368 
L 297.880168 178.983838 
L 298.687486 180.04514 
L 299.494805 180.812812 
L 300.302123 180.136625 
L 301.109441 179.020495 
L 301.91676 177.018764 
L 302.724078 175.379585 
L 303.531396 176.930081 
L 304.338715 179.938505 
L 305.146033 177.68208 
L 305.953351 172.042646 
L 306.76067 171.967065 
L 307.567988 174.493799 
L 308.375306 177.648951 
L 309.182625 182.393399 
L 309.989943 183.058029 
L 310.797262 178.940038 
L 311.60458 176.595668 
L 312.411898 174.899098 
L 313.219217 174.35457 
L 314.833853 176.070781 
L 315.641172 171.429942 
L 316.44849 174.46782 
L 317.255808 174.702917 
L 318.063127 174.793639 
L 318.870445 177.36886 
L 319.677763 182.121383 
L 320.485082 179.100887 
L 321.2924 175.261269 
L 322.099718 176.618851 
L 322.907037 178.660966 
L 323.714355 179.176343 
L 324.521673 180.632778 
L 325.328992 177.228809 
L 326.13631 175.828948 
L 326.943628 173.818927 
L 327.750947 173.343333 
L 328.558265 179.533216 
L 329.365584 179.609416 
L 330.172902 177.945765 
L 330.98022 175.421986 
L 331.787539 174.427449 
L 332.594857 172.214297 
L 333.402175 169.475708 
L 334.209494 172.780138 
L 335.016812 178.936287 
L 335.82413 181.397624 
L 336.631449 175.36479 
L 337.438767 175.415159 
L 338.246085 180.385117 
L 339.860722 181.482795 
L 340.66804 181.024622 
L 341.475359 180.24702 
L 342.282677 178.596179 
L 343.089995 178.885747 
L 343.897314 182.32379 
L 344.704632 180.439889 
L 345.511951 175.101005 
L 346.319269 173.041695 
L 347.126587 178.907017 
L 347.933906 180.841528 
L 348.741224 179.407566 
L 349.548542 177.592745 
L 350.355861 177.013574 
L 351.163179 177.666485 
L 351.970497 174.719916 
L 352.777816 173.056297 
L 353.585134 175.149275 
L 354.392452 175.746567 
L 355.199771 171.468481 
L 356.007089 169.833494 
L 356.814407 176.344201 
L 357.621726 176.458731 
L 358.429044 178.88423 
L 359.236362 180.869102 
L 360.043681 178.670002 
L 360.850999 178.059679 
L 361.658318 179.651482 
L 362.465636 178.583503 
L 363.272954 179.773177 
L 364.080273 179.125729 
L 364.887591 176.063514 
L 365.694909 175.754625 
L 367.309546 180.253763 
L 368.924183 181.740848 
L 369.731501 179.460609 
L 370.538819 177.775811 
L 372.153456 171.092275 
L 372.960774 169.210639 
L 373.768093 173.467333 
L 374.575411 175.138403 
L 375.382729 171.173931 
L 376.190048 169.106103 
L 377.804684 182.620267 
L 378.612003 180.798768 
L 379.419321 176.854144 
L 380.22664 180.525393 
L 381.033958 178.656071 
L 381.841276 177.230107 
L 382.648595 181.256803 
L 383.455913 181.070461 
L 384.263231 178.064025 
L 385.07055 176.742334 
L 385.877868 176.544226 
L 386.685186 177.553629 
L 387.492505 179.519728 
L 388.299823 181.052202 
L 389.107141 177.556957 
L 389.91446 176.566772 
L 390.721778 176.338138 
L 391.529096 177.264522 
L 392.336415 178.369802 
L 393.143733 175.661928 
L 393.951051 174.474779 
L 394.75837 176.560835 
L 395.565688 181.29505 
L 396.373007 182.752063 
L 397.180325 183.64165 
L 397.987643 180.63812 
L 398.794962 174.969111 
L 399.60228 170.324375 
L 400.409598 172.478297 
L 401.216917 178.468051 
L 402.024235 178.859245 
L 402.831553 178.46953 
L 403.638872 175.491871 
L 404.44619 176.120573 
L 405.253508 178.859387 
L 406.060827 182.046896 
L 406.868145 183.78711 
L 408.482782 178.096399 
L 410.097418 174.167242 
L 410.904737 175.73429 
L 411.712055 174.437858 
L 412.519374 175.252836 
L 413.326692 178.84482 
L 414.13401 176.455091 
L 414.941329 176.344019 
L 415.748647 181.559957 
L 416.555965 181.569421 
L 417.363284 180.439875 
L 418.170602 177.509225 
L 418.97792 172.113533 
L 419.785239 175.071922 
L 420.592557 179.945751 
L 421.399875 180.039715 
L 422.207194 177.384516 
L 423.014512 176.334302 
L 423.82183 176.831081 
L 424.629149 176.356669 
L 425.436467 177.74018 
L 426.243785 178.775439 
L 427.051104 178.855233 
L 427.858422 174.441369 
L 428.66574 174.070408 
L 429.473059 172.643141 
L 430.280377 169.544998 
L 431.087696 171.05486 
L 431.895014 175.49289 
L 432.702332 172.62172 
L 433.509651 166.236266 
L 434.316969 175.404853 
L 435.124287 181.101102 
L 435.931606 183.45335 
L 436.738924 181.522095 
L 437.546242 177.393117 
L 438.353561 174.515051 
L 439.160879 177.444597 
L 439.968197 175.690698 
L 440.775516 177.788555 
L 441.582834 176.036749 
L 442.390152 173.670241 
L 443.197471 175.653414 
L 444.004789 177.195272 
L 444.812107 179.04656 
L 445.619426 181.439206 
L 446.426744 181.044386 
L 447.234063 177.116971 
L 448.041381 175.889081 
L 448.848699 176.288943 
L 449.656018 176.876091 
L 450.463336 174.549742 
L 451.270654 174.264977 
L 452.077973 173.837026 
L 452.885291 175.272751 
L 453.692609 176.299054 
L 454.499928 177.570952 
L 455.307246 181.493753 
L 456.114564 183.660773 
L 457.729201 174.655324 
L 458.536519 174.810736 
L 459.343838 177.982606 
L 460.151156 177.808822 
L 461.765793 179.100746 
L 462.573111 175.006691 
L 463.38043 174.893956 
L 464.187748 180.595492 
L 464.995066 183.688591 
L 467.417021 173.227647 
L 468.22434 176.837343 
L 469.031658 176.989003 
L 469.838976 176.871329 
L 470.646295 179.115567 
L 471.453613 179.47539 
L 472.260931 177.967389 
L 473.06825 172.996799 
L 473.875568 172.336673 
L 474.682886 178.886792 
L 475.490205 176.284176 
L 476.297523 172.714002 
L 477.104841 173.452115 
L 477.91216 170.549062 
L 478.719478 171.203056 
L 479.526796 176.592932 
L 480.334115 177.924486 
L 481.141433 173.799211 
L 481.948752 171.441099 
L 482.75607 172.248721 
L 483.563388 172.733927 
L 484.370707 175.030412 
L 484.370707 175.030412 
" clip-path="url(#p279147bd55)" style="fill: none; stroke: #000000; stroke-width: 1.5; stroke-linecap: square"/>
   </g>
   <g id="patch_3">
    <path d="M 46.965625 186.84327 
L 46.965625 22.318125 
" style="fill: none; stroke: #000000; stroke-width: 0.8; stroke-linejoin: miter; stroke-linecap: square"/>
   </g>
   <g id="patch_4">
    <path d="M 505.19952 186.84327 
L 505.19952 22.318125 
" style="fill: none; stroke: #000000; stroke-width: 0.8; stroke-linejoin: miter; stroke-linecap: square"/>
   </g>
   <g id="patch_5">
    <path d="M 46.965625 186.84327 
L 505.19952 186.84327 
" style="fill: none; stroke: #000000; stroke-width: 0.8; stroke-linejoin: miter; stroke-linecap: square"/>
   </g>
   <g id="patch_6">
    <path d="M 46.965625 22.318125 
L 505.19952 22.318125 
" style="fill: none; stroke: #000000; stroke-width: 0.8; stroke-linejoin: miter; stroke-linecap: square"/>
   </g>
   <g id="text_16">
    <!-- Antarctic Peninsula -->
    <g transform="translate(218.655073 16.318125) scale(0.12 -0.12)">
     <defs>
      <path id="DejaVuSans-41" d="M 2188 4044 
L 1331 1722 
L 3047 1722 
L 2188 4044 
z
M 1831 4666 
L 2547 4666 
L 4325 0 
L 3669 0 
L 3244 1197 
L 1141 1197 
L 716 0 
L 50 0 
L 1831 4666 
z
" transform="scale(0.015625)"/>
      <path id="DejaVuSans-69" d="M 603 3500 
L 1178 3500 
L 1178 0 
L 603 0 
L 603 3500 
z
M 603 4863 
L 1178 4863 
L 1178 4134 
L 603 4134 
L 603 4863 
z
" transform="scale(0.015625)"/>
      <path id="DejaVuSans-50" d="M 1259 4147 
L 1259 2394 
L 2053 2394 
Q 2494 2394 2734 2622 
Q 2975 2850 2975 3272 
Q 2975 3691 2734 3919 
Q 2494 4147 2053 4147 
L 1259 4147 
z
M 628 4666 
L 2053 4666 
Q 2838 4666 3239 4311 
Q 3641 3956 3641 3272 
Q 3641 2581 3239 2228 
Q 2838 1875 2053 1875 
L 1259 1875 
L 1259 0 
L 628 0 
L 628 4666 
z
" transform="scale(0.015625)"/>
     </defs>
     <use xlink:href="#DejaVuSans-41"/>
     <use xlink:href="#DejaVuSans-6e" x="68.408203"/>
     <use xlink:href="#DejaVuSans-74" x="131.787109"/>
     <use xlink:href="#DejaVuSans-61" x="170.996094"/>
     <use xlink:href="#DejaVuSans-72" x="232.275391"/>
     <use xlink:href="#DejaVuSans-63" x="271.138672"/>
     <use xlink:href="#DejaVuSans-74" x="326.119141"/>
     <use xlink:href="#DejaVuSans-69" x="365.328125"/>
     <use xlink:href="#DejaVuSans-63" x="393.111328"/>
     <use xlink:href="#DejaVuSans-20" x="448.091797"/>
     <use xlink:href="#DejaVuSans-50" x="479.878906"/>
     <use xlink:href="#DejaVuSans-65" x="536.556641"/>
     <use xlink:href="#DejaVuSans-6e" x="598.080078"/>
     <use xlink:href="#DejaVuSans-69" x="661.458984"/>
     <use xlink:href="#DejaVuSans-6e" x="689.242188"/>
     <use xlink:href="#DejaVuSans-73" x="752.621094"/>
     <use xlink:href="#DejaVuSans-75" x="804.720703"/>
     <use xlink:href="#DejaVuSans-6c" x="868.099609"/>
     <use xlink:href="#DejaVuSans-61" x="895.882812"/>
    </g>
   </g>
  </g>
 </g>
 <defs>
  <clipPath id="p279147bd55">
   <rect x="46.965625" y="22.318125" width="458.233895" height="164.525145"/>
  </clipPath>
 </defs>
</svg>
