<?xml version="1.0" encoding="utf-8" standalone="no"?>
<!DOCTYPE svg PUBLIC "-//W3C//DTD SVG 1.1//EN"
  "http://www.w3.org/Graphics/SVG/1.1/DTD/svg11.dtd">
<svg xmlns:xlink="http://www.w3.org/1999/xlink" width="512.39952pt" height="224.39952pt" viewBox="0 0 512.39952 224.39952" xmlns="http://www.w3.org/2000/svg" version="1.1">
 <metadata>
  <rdf:RDF xmlns:dc="http://purl.org/dc/elements/1.1/" xmlns:cc="http://creativecommons.org/ns#" xmlns:rdf="http://www.w3.org/1999/02/22-rdf-syntax-ns#">
   <cc:Work>
    <dc:type rdf:resource="http://purl.org/dc/dcmitype/StillImage"/>
    <dc:date>2023-01-26T12:39:15.908103</dc:date>
    <dc:format>image/svg+xml</dc:format>
    <dc:creator>
     <cc:Agent>
      <dc:title>Matplotlib v3.6.2, https://matplotlib.org/</dc:title>
     </cc:Agent>
    </dc:creator>
   </cc:Work>
  </rdf:RDF>
 </metadata>
 <defs>
  <style type="text/css">*{stroke-linejoin: round; stroke-linecap: butt}</style>
 </defs>
 <g id="figure_1">
  <g id="patch_1">
   <path d="M 0 224.39952 
L 512.39952 224.39952 
L 512.39952 0 
L 0 0 
z
" style="fill: #ffffff"/>
  </g>
  <g id="axes_1">
   <g id="patch_2">
    <path d="M 72.905625 186.84327 
L 505.19952 186.84327 
L 505.19952 10.999219 
L 72.905625 10.999219 
z
" style="fill: #ffffff"/>
   </g>
   <g id="matplotlib.axis_1">
    <g id="xtick_1">
     <g id="line2d_1">
      <defs>
       <path id="m43f25146de" d="M 0 0 
L 0 3.5 
" style="stroke: #000000; stroke-width: 0.8"/>
      </defs>
      <g>
       <use xlink:href="#m43f25146de" x="101.694753" y="186.84327" style="stroke: #000000; stroke-width: 0.8"/>
      </g>
     </g>
     <g id="text_1">
      <!-- 1980 -->
      <g transform="translate(88.969753 201.441708) scale(0.1 -0.1)">
       <defs>
        <path id="DejaVuSans-31" d="M 794 531 
L 1825 531 
L 1825 4091 
L 703 3866 
L 703 4441 
L 1819 4666 
L 2450 4666 
L 2450 531 
L 3481 531 
L 3481 0 
L 794 0 
L 794 531 
z
" transform="scale(0.015625)"/>
        <path id="DejaVuSans-39" d="M 703 97 
L 703 672 
Q 941 559 1184 500 
Q 1428 441 1663 441 
Q 2288 441 2617 861 
Q 2947 1281 2994 2138 
Q 2813 1869 2534 1725 
Q 2256 1581 1919 1581 
Q 1219 1581 811 2004 
Q 403 2428 403 3163 
Q 403 3881 828 4315 
Q 1253 4750 1959 4750 
Q 2769 4750 3195 4129 
Q 3622 3509 3622 2328 
Q 3622 1225 3098 567 
Q 2575 -91 1691 -91 
Q 1453 -91 1209 -44 
Q 966 3 703 97 
z
M 1959 2075 
Q 2384 2075 2632 2365 
Q 2881 2656 2881 3163 
Q 2881 3666 2632 3958 
Q 2384 4250 1959 4250 
Q 1534 4250 1286 3958 
Q 1038 3666 1038 3163 
Q 1038 2656 1286 2365 
Q 1534 2075 1959 2075 
z
" transform="scale(0.015625)"/>
        <path id="DejaVuSans-38" d="M 2034 2216 
Q 1584 2216 1326 1975 
Q 1069 1734 1069 1313 
Q 1069 891 1326 650 
Q 1584 409 2034 409 
Q 2484 409 2743 651 
Q 3003 894 3003 1313 
Q 3003 1734 2745 1975 
Q 2488 2216 2034 2216 
z
M 1403 2484 
Q 997 2584 770 2862 
Q 544 3141 544 3541 
Q 544 4100 942 4425 
Q 1341 4750 2034 4750 
Q 2731 4750 3128 4425 
Q 3525 4100 3525 3541 
Q 3525 3141 3298 2862 
Q 3072 2584 2669 2484 
Q 3125 2378 3379 2068 
Q 3634 1759 3634 1313 
Q 3634 634 3220 271 
Q 2806 -91 2034 -91 
Q 1263 -91 848 271 
Q 434 634 434 1313 
Q 434 1759 690 2068 
Q 947 2378 1403 2484 
z
M 1172 3481 
Q 1172 3119 1398 2916 
Q 1625 2713 2034 2713 
Q 2441 2713 2670 2916 
Q 2900 3119 2900 3481 
Q 2900 3844 2670 4047 
Q 2441 4250 2034 4250 
Q 1625 4250 1398 4047 
Q 1172 3844 1172 3481 
z
" transform="scale(0.015625)"/>
        <path id="DejaVuSans-30" d="M 2034 4250 
Q 1547 4250 1301 3770 
Q 1056 3291 1056 2328 
Q 1056 1369 1301 889 
Q 1547 409 2034 409 
Q 2525 409 2770 889 
Q 3016 1369 3016 2328 
Q 3016 3291 2770 3770 
Q 2525 4250 2034 4250 
z
M 2034 4750 
Q 2819 4750 3233 4129 
Q 3647 3509 3647 2328 
Q 3647 1150 3233 529 
Q 2819 -91 2034 -91 
Q 1250 -91 836 529 
Q 422 1150 422 2328 
Q 422 3509 836 4129 
Q 1250 4750 2034 4750 
z
" transform="scale(0.015625)"/>
       </defs>
       <use xlink:href="#DejaVuSans-31"/>
       <use xlink:href="#DejaVuSans-39" x="63.623047"/>
       <use xlink:href="#DejaVuSans-38" x="127.246094"/>
       <use xlink:href="#DejaVuSans-30" x="190.869141"/>
      </g>
     </g>
    </g>
    <g id="xtick_2">
     <g id="line2d_2">
      <g>
       <use xlink:href="#m43f25146de" x="193.088811" y="186.84327" style="stroke: #000000; stroke-width: 0.8"/>
      </g>
     </g>
     <g id="text_2">
      <!-- 1990 -->
      <g transform="translate(180.363811 201.441708) scale(0.1 -0.1)">
       <use xlink:href="#DejaVuSans-31"/>
       <use xlink:href="#DejaVuSans-39" x="63.623047"/>
       <use xlink:href="#DejaVuSans-39" x="127.246094"/>
       <use xlink:href="#DejaVuSans-30" x="190.869141"/>
      </g>
     </g>
    </g>
    <g id="xtick_3">
     <g id="line2d_3">
      <g>
       <use xlink:href="#m43f25146de" x="284.48287" y="186.84327" style="stroke: #000000; stroke-width: 0.8"/>
      </g>
     </g>
     <g id="text_3">
      <!-- 2000 -->
      <g transform="translate(271.75787 201.441708) scale(0.1 -0.1)">
       <defs>
        <path id="DejaVuSans-32" d="M 1228 531 
L 3431 531 
L 3431 0 
L 469 0 
L 469 531 
Q 828 903 1448 1529 
Q 2069 2156 2228 2338 
Q 2531 2678 2651 2914 
Q 2772 3150 2772 3378 
Q 2772 3750 2511 3984 
Q 2250 4219 1831 4219 
Q 1534 4219 1204 4116 
Q 875 4013 500 3803 
L 500 4441 
Q 881 4594 1212 4672 
Q 1544 4750 1819 4750 
Q 2544 4750 2975 4387 
Q 3406 4025 3406 3419 
Q 3406 3131 3298 2873 
Q 3191 2616 2906 2266 
Q 2828 2175 2409 1742 
Q 1991 1309 1228 531 
z
" transform="scale(0.015625)"/>
       </defs>
       <use xlink:href="#DejaVuSans-32"/>
       <use xlink:href="#DejaVuSans-30" x="63.623047"/>
       <use xlink:href="#DejaVuSans-30" x="127.246094"/>
       <use xlink:href="#DejaVuSans-30" x="190.869141"/>
      </g>
     </g>
    </g>
    <g id="xtick_4">
     <g id="line2d_4">
      <g>
       <use xlink:href="#m43f25146de" x="375.876928" y="186.84327" style="stroke: #000000; stroke-width: 0.8"/>
      </g>
     </g>
     <g id="text_4">
      <!-- 2010 -->
      <g transform="translate(363.151928 201.441708) scale(0.1 -0.1)">
       <use xlink:href="#DejaVuSans-32"/>
       <use xlink:href="#DejaVuSans-30" x="63.623047"/>
       <use xlink:href="#DejaVuSans-31" x="127.246094"/>
       <use xlink:href="#DejaVuSans-30" x="190.869141"/>
      </g>
     </g>
    </g>
    <g id="xtick_5">
     <g id="line2d_5">
      <g>
       <use xlink:href="#m43f25146de" x="467.270986" y="186.84327" style="stroke: #000000; stroke-width: 0.8"/>
      </g>
     </g>
     <g id="text_5">
      <!-- 2020 -->
      <g transform="translate(454.545986 201.441708) scale(0.1 -0.1)">
       <use xlink:href="#DejaVuSans-32"/>
       <use xlink:href="#DejaVuSans-30" x="63.623047"/>
       <use xlink:href="#DejaVuSans-32" x="127.246094"/>
       <use xlink:href="#DejaVuSans-30" x="190.869141"/>
      </g>
     </g>
    </g>
    <g id="text_6">
     <!-- Year -->
     <g transform="translate(278.465073 215.119833) scale(0.1 -0.1)">
      <defs>
       <path id="DejaVuSans-59" d="M -13 4666 
L 666 4666 
L 1959 2747 
L 3244 4666 
L 3922 4666 
L 2272 2222 
L 2272 0 
L 1638 0 
L 1638 2222 
L -13 4666 
z
" transform="scale(0.015625)"/>
       <path id="DejaVuSans-65" d="M 3597 1894 
L 3597 1613 
L 953 1613 
Q 991 1019 1311 708 
Q 1631 397 2203 397 
Q 2534 397 2845 478 
Q 3156 559 3463 722 
L 3463 178 
Q 3153 47 2828 -22 
Q 2503 -91 2169 -91 
Q 1331 -91 842 396 
Q 353 884 353 1716 
Q 353 2575 817 3079 
Q 1281 3584 2069 3584 
Q 2775 3584 3186 3129 
Q 3597 2675 3597 1894 
z
M 3022 2063 
Q 3016 2534 2758 2815 
Q 2500 3097 2075 3097 
Q 1594 3097 1305 2825 
Q 1016 2553 972 2059 
L 3022 2063 
z
" transform="scale(0.015625)"/>
       <path id="DejaVuSans-61" d="M 2194 1759 
Q 1497 1759 1228 1600 
Q 959 1441 959 1056 
Q 959 750 1161 570 
Q 1363 391 1709 391 
Q 2188 391 2477 730 
Q 2766 1069 2766 1631 
L 2766 1759 
L 2194 1759 
z
M 3341 1997 
L 3341 0 
L 2766 0 
L 2766 531 
Q 2569 213 2275 61 
Q 1981 -91 1556 -91 
Q 1019 -91 701 211 
Q 384 513 384 1019 
Q 384 1609 779 1909 
Q 1175 2209 1959 2209 
L 2766 2209 
L 2766 2266 
Q 2766 2663 2505 2880 
Q 2244 3097 1772 3097 
Q 1472 3097 1187 3025 
Q 903 2953 641 2809 
L 641 3341 
Q 956 3463 1253 3523 
Q 1550 3584 1831 3584 
Q 2591 3584 2966 3190 
Q 3341 2797 3341 1997 
z
" transform="scale(0.015625)"/>
       <path id="DejaVuSans-72" d="M 2631 2963 
Q 2534 3019 2420 3045 
Q 2306 3072 2169 3072 
Q 1681 3072 1420 2755 
Q 1159 2438 1159 1844 
L 1159 0 
L 581 0 
L 581 3500 
L 1159 3500 
L 1159 2956 
Q 1341 3275 1631 3429 
Q 1922 3584 2338 3584 
Q 2397 3584 2469 3576 
Q 2541 3569 2628 3553 
L 2631 2963 
z
" transform="scale(0.015625)"/>
      </defs>
      <use xlink:href="#DejaVuSans-59"/>
      <use xlink:href="#DejaVuSans-65" x="47.833984"/>
      <use xlink:href="#DejaVuSans-61" x="109.357422"/>
      <use xlink:href="#DejaVuSans-72" x="170.636719"/>
     </g>
    </g>
   </g>
   <g id="matplotlib.axis_2">
    <g id="ytick_1">
     <g id="line2d_6">
      <defs>
       <path id="m0494919ed7" d="M 0 0 
L -3.5 0 
" style="stroke: #000000; stroke-width: 0.8"/>
      </defs>
      <g>
       <use xlink:href="#m0494919ed7" x="72.905625" y="186.84327" style="stroke: #000000; stroke-width: 0.8"/>
      </g>
     </g>
     <g id="text_7">
      <!-- −1000 -->
      <g transform="translate(32.075938 190.642489) scale(0.1 -0.1)">
       <defs>
        <path id="DejaVuSans-2212" d="M 678 2272 
L 4684 2272 
L 4684 1741 
L 678 1741 
L 678 2272 
z
" transform="scale(0.015625)"/>
       </defs>
       <use xlink:href="#DejaVuSans-2212"/>
       <use xlink:href="#DejaVuSans-31" x="83.789062"/>
       <use xlink:href="#DejaVuSans-30" x="147.412109"/>
       <use xlink:href="#DejaVuSans-30" x="211.035156"/>
       <use xlink:href="#DejaVuSans-30" x="274.658203"/>
      </g>
     </g>
    </g>
    <g id="ytick_2">
     <g id="line2d_7">
      <g>
       <use xlink:href="#m0494919ed7" x="72.905625" y="164.862764" style="stroke: #000000; stroke-width: 0.8"/>
      </g>
     </g>
     <g id="text_8">
      <!-- −750 -->
      <g transform="translate(38.438437 168.661982) scale(0.1 -0.1)">
       <defs>
        <path id="DejaVuSans-37" d="M 525 4666 
L 3525 4666 
L 3525 4397 
L 1831 0 
L 1172 0 
L 2766 4134 
L 525 4134 
L 525 4666 
z
" transform="scale(0.015625)"/>
        <path id="DejaVuSans-35" d="M 691 4666 
L 3169 4666 
L 3169 4134 
L 1269 4134 
L 1269 2991 
Q 1406 3038 1543 3061 
Q 1681 3084 1819 3084 
Q 2600 3084 3056 2656 
Q 3513 2228 3513 1497 
Q 3513 744 3044 326 
Q 2575 -91 1722 -91 
Q 1428 -91 1123 -41 
Q 819 9 494 109 
L 494 744 
Q 775 591 1075 516 
Q 1375 441 1709 441 
Q 2250 441 2565 725 
Q 2881 1009 2881 1497 
Q 2881 1984 2565 2268 
Q 2250 2553 1709 2553 
Q 1456 2553 1204 2497 
Q 953 2441 691 2322 
L 691 4666 
z
" transform="scale(0.015625)"/>
       </defs>
       <use xlink:href="#DejaVuSans-2212"/>
       <use xlink:href="#DejaVuSans-37" x="83.789062"/>
       <use xlink:href="#DejaVuSans-35" x="147.412109"/>
       <use xlink:href="#DejaVuSans-30" x="211.035156"/>
      </g>
     </g>
    </g>
    <g id="ytick_3">
     <g id="line2d_8">
      <g>
       <use xlink:href="#m0494919ed7" x="72.905625" y="142.882257" style="stroke: #000000; stroke-width: 0.8"/>
      </g>
     </g>
     <g id="text_9">
      <!-- −500 -->
      <g transform="translate(38.438437 146.681476) scale(0.1 -0.1)">
       <use xlink:href="#DejaVuSans-2212"/>
       <use xlink:href="#DejaVuSans-35" x="83.789062"/>
       <use xlink:href="#DejaVuSans-30" x="147.412109"/>
       <use xlink:href="#DejaVuSans-30" x="211.035156"/>
      </g>
     </g>
    </g>
    <g id="ytick_4">
     <g id="line2d_9">
      <g>
       <use xlink:href="#m0494919ed7" x="72.905625" y="120.901751" style="stroke: #000000; stroke-width: 0.8"/>
      </g>
     </g>
     <g id="text_10">
      <!-- −250 -->
      <g transform="translate(38.438437 124.70097) scale(0.1 -0.1)">
       <use xlink:href="#DejaVuSans-2212"/>
       <use xlink:href="#DejaVuSans-32" x="83.789062"/>
       <use xlink:href="#DejaVuSans-35" x="147.412109"/>
       <use xlink:href="#DejaVuSans-30" x="211.035156"/>
      </g>
     </g>
    </g>
    <g id="ytick_5">
     <g id="line2d_10">
      <g>
       <use xlink:href="#m0494919ed7" x="72.905625" y="98.921244" style="stroke: #000000; stroke-width: 0.8"/>
      </g>
     </g>
     <g id="text_11">
      <!-- 0 -->
      <g transform="translate(59.543125 102.720463) scale(0.1 -0.1)">
       <use xlink:href="#DejaVuSans-30"/>
      </g>
     </g>
    </g>
    <g id="ytick_6">
     <g id="line2d_11">
      <g>
       <use xlink:href="#m0494919ed7" x="72.905625" y="76.940738" style="stroke: #000000; stroke-width: 0.8"/>
      </g>
     </g>
     <g id="text_12">
      <!-- 250 -->
      <g transform="translate(46.818125 80.739957) scale(0.1 -0.1)">
       <use xlink:href="#DejaVuSans-32"/>
       <use xlink:href="#DejaVuSans-35" x="63.623047"/>
       <use xlink:href="#DejaVuSans-30" x="127.246094"/>
      </g>
     </g>
    </g>
    <g id="ytick_7">
     <g id="line2d_12">
      <g>
       <use xlink:href="#m0494919ed7" x="72.905625" y="54.960232" style="stroke: #000000; stroke-width: 0.8"/>
      </g>
     </g>
     <g id="text_13">
      <!-- 500 -->
      <g transform="translate(46.818125 58.75945) scale(0.1 -0.1)">
       <use xlink:href="#DejaVuSans-35"/>
       <use xlink:href="#DejaVuSans-30" x="63.623047"/>
       <use xlink:href="#DejaVuSans-30" x="127.246094"/>
      </g>
     </g>
    </g>
    <g id="ytick_8">
     <g id="line2d_13">
      <g>
       <use xlink:href="#m0494919ed7" x="72.905625" y="32.979725" style="stroke: #000000; stroke-width: 0.8"/>
      </g>
     </g>
     <g id="text_14">
      <!-- 750 -->
      <g transform="translate(46.818125 36.778944) scale(0.1 -0.1)">
       <use xlink:href="#DejaVuSans-37"/>
       <use xlink:href="#DejaVuSans-35" x="63.623047"/>
       <use xlink:href="#DejaVuSans-30" x="127.246094"/>
      </g>
     </g>
    </g>
    <g id="ytick_9">
     <g id="line2d_14">
      <g>
       <use xlink:href="#m0494919ed7" x="72.905625" y="10.999219" style="stroke: #000000; stroke-width: 0.8"/>
      </g>
     </g>
     <g id="text_15">
      <!-- 1000 -->
      <g transform="translate(40.455625 14.798437) scale(0.1 -0.1)">
       <use xlink:href="#DejaVuSans-31"/>
       <use xlink:href="#DejaVuSans-30" x="63.623047"/>
       <use xlink:href="#DejaVuSans-30" x="127.246094"/>
       <use xlink:href="#DejaVuSans-30" x="190.869141"/>
      </g>
     </g>
    </g>
    <g id="text_16">
     <!-- Cumulative SMB Anomaly [Gt]  -->
     <g transform="translate(14.798438 176.400932) rotate(-90) scale(0.1 -0.1)">
      <defs>
       <path id="DejaVuSans-43" d="M 4122 4306 
L 4122 3641 
Q 3803 3938 3442 4084 
Q 3081 4231 2675 4231 
Q 1875 4231 1450 3742 
Q 1025 3253 1025 2328 
Q 1025 1406 1450 917 
Q 1875 428 2675 428 
Q 3081 428 3442 575 
Q 3803 722 4122 1019 
L 4122 359 
Q 3791 134 3420 21 
Q 3050 -91 2638 -91 
Q 1578 -91 968 557 
Q 359 1206 359 2328 
Q 359 3453 968 4101 
Q 1578 4750 2638 4750 
Q 3056 4750 3426 4639 
Q 3797 4528 4122 4306 
z
" transform="scale(0.015625)"/>
       <path id="DejaVuSans-75" d="M 544 1381 
L 544 3500 
L 1119 3500 
L 1119 1403 
Q 1119 906 1312 657 
Q 1506 409 1894 409 
Q 2359 409 2629 706 
Q 2900 1003 2900 1516 
L 2900 3500 
L 3475 3500 
L 3475 0 
L 2900 0 
L 2900 538 
Q 2691 219 2414 64 
Q 2138 -91 1772 -91 
Q 1169 -91 856 284 
Q 544 659 544 1381 
z
M 1991 3584 
L 1991 3584 
z
" transform="scale(0.015625)"/>
       <path id="DejaVuSans-6d" d="M 3328 2828 
Q 3544 3216 3844 3400 
Q 4144 3584 4550 3584 
Q 5097 3584 5394 3201 
Q 5691 2819 5691 2113 
L 5691 0 
L 5113 0 
L 5113 2094 
Q 5113 2597 4934 2840 
Q 4756 3084 4391 3084 
Q 3944 3084 3684 2787 
Q 3425 2491 3425 1978 
L 3425 0 
L 2847 0 
L 2847 2094 
Q 2847 2600 2669 2842 
Q 2491 3084 2119 3084 
Q 1678 3084 1418 2786 
Q 1159 2488 1159 1978 
L 1159 0 
L 581 0 
L 581 3500 
L 1159 3500 
L 1159 2956 
Q 1356 3278 1631 3431 
Q 1906 3584 2284 3584 
Q 2666 3584 2933 3390 
Q 3200 3197 3328 2828 
z
" transform="scale(0.015625)"/>
       <path id="DejaVuSans-6c" d="M 603 4863 
L 1178 4863 
L 1178 0 
L 603 0 
L 603 4863 
z
" transform="scale(0.015625)"/>
       <path id="DejaVuSans-74" d="M 1172 4494 
L 1172 3500 
L 2356 3500 
L 2356 3053 
L 1172 3053 
L 1172 1153 
Q 1172 725 1289 603 
Q 1406 481 1766 481 
L 2356 481 
L 2356 0 
L 1766 0 
Q 1100 0 847 248 
Q 594 497 594 1153 
L 594 3053 
L 172 3053 
L 172 3500 
L 594 3500 
L 594 4494 
L 1172 4494 
z
" transform="scale(0.015625)"/>
       <path id="DejaVuSans-69" d="M 603 3500 
L 1178 3500 
L 1178 0 
L 603 0 
L 603 3500 
z
M 603 4863 
L 1178 4863 
L 1178 4134 
L 603 4134 
L 603 4863 
z
" transform="scale(0.015625)"/>
       <path id="DejaVuSans-76" d="M 191 3500 
L 800 3500 
L 1894 563 
L 2988 3500 
L 3597 3500 
L 2284 0 
L 1503 0 
L 191 3500 
z
" transform="scale(0.015625)"/>
       <path id="DejaVuSans-20" transform="scale(0.015625)"/>
       <path id="DejaVuSans-53" d="M 3425 4513 
L 3425 3897 
Q 3066 4069 2747 4153 
Q 2428 4238 2131 4238 
Q 1616 4238 1336 4038 
Q 1056 3838 1056 3469 
Q 1056 3159 1242 3001 
Q 1428 2844 1947 2747 
L 2328 2669 
Q 3034 2534 3370 2195 
Q 3706 1856 3706 1288 
Q 3706 609 3251 259 
Q 2797 -91 1919 -91 
Q 1588 -91 1214 -16 
Q 841 59 441 206 
L 441 856 
Q 825 641 1194 531 
Q 1563 422 1919 422 
Q 2459 422 2753 634 
Q 3047 847 3047 1241 
Q 3047 1584 2836 1778 
Q 2625 1972 2144 2069 
L 1759 2144 
Q 1053 2284 737 2584 
Q 422 2884 422 3419 
Q 422 4038 858 4394 
Q 1294 4750 2059 4750 
Q 2388 4750 2728 4690 
Q 3069 4631 3425 4513 
z
" transform="scale(0.015625)"/>
       <path id="DejaVuSans-4d" d="M 628 4666 
L 1569 4666 
L 2759 1491 
L 3956 4666 
L 4897 4666 
L 4897 0 
L 4281 0 
L 4281 4097 
L 3078 897 
L 2444 897 
L 1241 4097 
L 1241 0 
L 628 0 
L 628 4666 
z
" transform="scale(0.015625)"/>
       <path id="DejaVuSans-42" d="M 1259 2228 
L 1259 519 
L 2272 519 
Q 2781 519 3026 730 
Q 3272 941 3272 1375 
Q 3272 1813 3026 2020 
Q 2781 2228 2272 2228 
L 1259 2228 
z
M 1259 4147 
L 1259 2741 
L 2194 2741 
Q 2656 2741 2882 2914 
Q 3109 3088 3109 3444 
Q 3109 3797 2882 3972 
Q 2656 4147 2194 4147 
L 1259 4147 
z
M 628 4666 
L 2241 4666 
Q 2963 4666 3353 4366 
Q 3744 4066 3744 3513 
Q 3744 3084 3544 2831 
Q 3344 2578 2956 2516 
Q 3422 2416 3680 2098 
Q 3938 1781 3938 1306 
Q 3938 681 3513 340 
Q 3088 0 2303 0 
L 628 0 
L 628 4666 
z
" transform="scale(0.015625)"/>
       <path id="DejaVuSans-41" d="M 2188 4044 
L 1331 1722 
L 3047 1722 
L 2188 4044 
z
M 1831 4666 
L 2547 4666 
L 4325 0 
L 3669 0 
L 3244 1197 
L 1141 1197 
L 716 0 
L 50 0 
L 1831 4666 
z
" transform="scale(0.015625)"/>
       <path id="DejaVuSans-6e" d="M 3513 2113 
L 3513 0 
L 2938 0 
L 2938 2094 
Q 2938 2591 2744 2837 
Q 2550 3084 2163 3084 
Q 1697 3084 1428 2787 
Q 1159 2491 1159 1978 
L 1159 0 
L 581 0 
L 581 3500 
L 1159 3500 
L 1159 2956 
Q 1366 3272 1645 3428 
Q 1925 3584 2291 3584 
Q 2894 3584 3203 3211 
Q 3513 2838 3513 2113 
z
" transform="scale(0.015625)"/>
       <path id="DejaVuSans-6f" d="M 1959 3097 
Q 1497 3097 1228 2736 
Q 959 2375 959 1747 
Q 959 1119 1226 758 
Q 1494 397 1959 397 
Q 2419 397 2687 759 
Q 2956 1122 2956 1747 
Q 2956 2369 2687 2733 
Q 2419 3097 1959 3097 
z
M 1959 3584 
Q 2709 3584 3137 3096 
Q 3566 2609 3566 1747 
Q 3566 888 3137 398 
Q 2709 -91 1959 -91 
Q 1206 -91 779 398 
Q 353 888 353 1747 
Q 353 2609 779 3096 
Q 1206 3584 1959 3584 
z
" transform="scale(0.015625)"/>
       <path id="DejaVuSans-79" d="M 2059 -325 
Q 1816 -950 1584 -1140 
Q 1353 -1331 966 -1331 
L 506 -1331 
L 506 -850 
L 844 -850 
Q 1081 -850 1212 -737 
Q 1344 -625 1503 -206 
L 1606 56 
L 191 3500 
L 800 3500 
L 1894 763 
L 2988 3500 
L 3597 3500 
L 2059 -325 
z
" transform="scale(0.015625)"/>
       <path id="DejaVuSans-5b" d="M 550 4863 
L 1875 4863 
L 1875 4416 
L 1125 4416 
L 1125 -397 
L 1875 -397 
L 1875 -844 
L 550 -844 
L 550 4863 
z
" transform="scale(0.015625)"/>
       <path id="DejaVuSans-47" d="M 3809 666 
L 3809 1919 
L 2778 1919 
L 2778 2438 
L 4434 2438 
L 4434 434 
Q 4069 175 3628 42 
Q 3188 -91 2688 -91 
Q 1594 -91 976 548 
Q 359 1188 359 2328 
Q 359 3472 976 4111 
Q 1594 4750 2688 4750 
Q 3144 4750 3555 4637 
Q 3966 4525 4313 4306 
L 4313 3634 
Q 3963 3931 3569 4081 
Q 3175 4231 2741 4231 
Q 1884 4231 1454 3753 
Q 1025 3275 1025 2328 
Q 1025 1384 1454 906 
Q 1884 428 2741 428 
Q 3075 428 3337 486 
Q 3600 544 3809 666 
z
" transform="scale(0.015625)"/>
       <path id="DejaVuSans-5d" d="M 1947 4863 
L 1947 -844 
L 622 -844 
L 622 -397 
L 1369 -397 
L 1369 4416 
L 622 4416 
L 622 4863 
L 1947 4863 
z
" transform="scale(0.015625)"/>
      </defs>
      <use xlink:href="#DejaVuSans-43"/>
      <use xlink:href="#DejaVuSans-75" x="69.824219"/>
      <use xlink:href="#DejaVuSans-6d" x="133.203125"/>
      <use xlink:href="#DejaVuSans-75" x="230.615234"/>
      <use xlink:href="#DejaVuSans-6c" x="293.994141"/>
      <use xlink:href="#DejaVuSans-61" x="321.777344"/>
      <use xlink:href="#DejaVuSans-74" x="383.056641"/>
      <use xlink:href="#DejaVuSans-69" x="422.265625"/>
      <use xlink:href="#DejaVuSans-76" x="450.048828"/>
      <use xlink:href="#DejaVuSans-65" x="509.228516"/>
      <use xlink:href="#DejaVuSans-20" x="570.751953"/>
      <use xlink:href="#DejaVuSans-53" x="602.539062"/>
      <use xlink:href="#DejaVuSans-4d" x="666.015625"/>
      <use xlink:href="#DejaVuSans-42" x="752.294922"/>
      <use xlink:href="#DejaVuSans-20" x="820.898438"/>
      <use xlink:href="#DejaVuSans-41" x="852.685547"/>
      <use xlink:href="#DejaVuSans-6e" x="921.09375"/>
      <use xlink:href="#DejaVuSans-6f" x="984.472656"/>
      <use xlink:href="#DejaVuSans-6d" x="1045.654297"/>
      <use xlink:href="#DejaVuSans-61" x="1143.066406"/>
      <use xlink:href="#DejaVuSans-6c" x="1204.345703"/>
      <use xlink:href="#DejaVuSans-79" x="1232.128906"/>
      <use xlink:href="#DejaVuSans-20" x="1291.308594"/>
      <use xlink:href="#DejaVuSans-5b" x="1323.095703"/>
      <use xlink:href="#DejaVuSans-47" x="1362.109375"/>
      <use xlink:href="#DejaVuSans-74" x="1439.599609"/>
      <use xlink:href="#DejaVuSans-5d" x="1478.808594"/>
      <use xlink:href="#DejaVuSans-20" x="1517.822266"/>
     </g>
     <!-- (w.r.t 1979-2010) -->
     <g transform="translate(25.99625 142.036088) rotate(-90) scale(0.1 -0.1)">
      <defs>
       <path id="DejaVuSans-28" d="M 1984 4856 
Q 1566 4138 1362 3434 
Q 1159 2731 1159 2009 
Q 1159 1288 1364 580 
Q 1569 -128 1984 -844 
L 1484 -844 
Q 1016 -109 783 600 
Q 550 1309 550 2009 
Q 550 2706 781 3412 
Q 1013 4119 1484 4856 
L 1984 4856 
z
" transform="scale(0.015625)"/>
       <path id="DejaVuSans-77" d="M 269 3500 
L 844 3500 
L 1563 769 
L 2278 3500 
L 2956 3500 
L 3675 769 
L 4391 3500 
L 4966 3500 
L 4050 0 
L 3372 0 
L 2619 2869 
L 1863 0 
L 1184 0 
L 269 3500 
z
" transform="scale(0.015625)"/>
       <path id="DejaVuSans-2e" d="M 684 794 
L 1344 794 
L 1344 0 
L 684 0 
L 684 794 
z
" transform="scale(0.015625)"/>
       <path id="DejaVuSans-2d" d="M 313 2009 
L 1997 2009 
L 1997 1497 
L 313 1497 
L 313 2009 
z
" transform="scale(0.015625)"/>
       <path id="DejaVuSans-29" d="M 513 4856 
L 1013 4856 
Q 1481 4119 1714 3412 
Q 1947 2706 1947 2009 
Q 1947 1309 1714 600 
Q 1481 -109 1013 -844 
L 513 -844 
Q 928 -128 1133 580 
Q 1338 1288 1338 2009 
Q 1338 2731 1133 3434 
Q 928 4138 513 4856 
z
" transform="scale(0.015625)"/>
      </defs>
      <use xlink:href="#DejaVuSans-28"/>
      <use xlink:href="#DejaVuSans-77" x="39.013672"/>
      <use xlink:href="#DejaVuSans-2e" x="111.675781"/>
      <use xlink:href="#DejaVuSans-72" x="143.462891"/>
      <use xlink:href="#DejaVuSans-2e" x="175.451172"/>
      <use xlink:href="#DejaVuSans-74" x="207.238281"/>
      <use xlink:href="#DejaVuSans-20" x="246.447266"/>
      <use xlink:href="#DejaVuSans-31" x="278.234375"/>
      <use xlink:href="#DejaVuSans-39" x="341.857422"/>
      <use xlink:href="#DejaVuSans-37" x="405.480469"/>
      <use xlink:href="#DejaVuSans-39" x="469.103516"/>
      <use xlink:href="#DejaVuSans-2d" x="532.726562"/>
      <use xlink:href="#DejaVuSans-32" x="568.810547"/>
      <use xlink:href="#DejaVuSans-30" x="632.433594"/>
      <use xlink:href="#DejaVuSans-31" x="696.056641"/>
      <use xlink:href="#DejaVuSans-30" x="759.679688"/>
      <use xlink:href="#DejaVuSans-29" x="823.302734"/>
     </g>
    </g>
   </g>
   <g id="line2d_15">
    <path d="M 92.555347 104.158034 
L 93.316965 109.295153 
L 94.078582 108.167167 
L 94.840199 104.746836 
L 95.601816 101.843989 
L 96.363433 99.636194 
L 97.12505 98.132071 
L 97.886668 95.644029 
L 98.648285 94.175504 
L 100.171519 93.288933 
L 100.933136 97.415475 
L 101.694753 103.335225 
L 102.45637 106.351064 
L 103.217988 103.947585 
L 105.502839 89.189876 
L 106.264456 86.362084 
L 107.026073 82.065296 
L 107.787691 82.322606 
L 108.549308 82.020155 
L 109.310925 84.077152 
L 110.834159 95.078304 
L 111.595776 98.547681 
L 112.357393 99.238736 
L 113.119011 96.915071 
L 113.880628 92.822053 
L 114.642245 85.613752 
L 115.403862 76.768932 
L 116.165479 71.352294 
L 116.927096 69.330135 
L 117.688713 69.132918 
L 118.450331 70.869108 
L 119.211948 73.289346 
L 119.973565 77.671581 
L 120.735182 82.943484 
L 121.496799 85.979596 
L 122.258416 84.205407 
L 123.020034 79.925536 
L 124.543268 62.70211 
L 125.304885 60.636532 
L 126.066502 60.192361 
L 126.828119 58.068412 
L 127.589736 58.581078 
L 128.351354 63.634861 
L 129.112971 70.102298 
L 129.874588 74.965627 
L 130.636205 76.930353 
L 131.397822 75.08541 
L 132.921057 67.417799 
L 133.682674 66.268009 
L 134.444291 66.799397 
L 135.205908 63.642377 
L 135.967525 61.000419 
L 136.729142 64.062082 
L 139.013994 77.943306 
L 139.775611 77.384972 
L 140.537228 70.561316 
L 141.298845 65.56364 
L 142.060462 61.914022 
L 142.822079 61.506351 
L 145.106931 54.673176 
L 145.868548 54.404333 
L 147.391782 63.593753 
L 148.1534 68.594815 
L 148.915017 71.412611 
L 150.438251 66.818638 
L 151.199868 63.511187 
L 151.961485 57.585662 
L 152.723102 52.777534 
L 153.48472 51.175421 
L 154.246337 50.463176 
L 155.007954 50.21827 
L 155.769571 50.888764 
L 157.292805 60.71462 
L 158.054423 62.205865 
L 158.81604 60.139454 
L 159.577657 58.590097 
L 160.339274 59.0809 
L 161.100891 57.850832 
L 161.862508 55.339025 
L 162.624125 54.471677 
L 163.385743 52.34668 
L 164.14736 50.647385 
L 164.908977 55.538713 
L 165.670594 62.047058 
L 166.432211 67.005289 
L 167.193828 68.594218 
L 167.955445 68.254663 
L 168.717063 69.953779 
L 169.47868 68.854471 
L 170.240297 67.283854 
L 171.001914 66.772049 
L 171.763531 66.520085 
L 172.525148 66.937085 
L 173.286766 67.94661 
L 174.048383 73.216876 
L 174.81 79.968854 
L 175.571617 83.067248 
L 176.333234 84.842087 
L 177.094851 82.000051 
L 177.856468 78.024835 
L 178.618086 76.847601 
L 179.379703 76.680836 
L 180.14132 73.063492 
L 180.902937 68.60509 
L 181.664554 68.644908 
L 182.426171 72.304926 
L 184.711023 92.062602 
L 185.47264 92.641708 
L 186.995874 90.088939 
L 187.757491 88.129497 
L 188.519109 85.793184 
L 189.280726 81.917424 
L 190.042343 78.95813 
L 190.80396 77.457116 
L 191.565577 78.386092 
L 193.088811 86.853336 
L 193.850429 89.921315 
L 194.612046 91.533843 
L 195.373663 91.085056 
L 196.13528 89.5341 
L 196.896897 89.500885 
L 197.658514 88.000504 
L 198.420132 85.358317 
L 199.181749 84.51441 
L 199.943366 84.541379 
L 202.228217 97.391013 
L 202.989834 99.742023 
L 203.751452 98.501285 
L 204.513069 93.586315 
L 205.274686 90.227898 
L 206.036303 88.082364 
L 206.79792 86.289071 
L 207.559537 84.182431 
L 208.321154 82.776461 
L 209.082772 81.693464 
L 209.844389 82.398632 
L 210.606006 87.915556 
L 211.367623 95.513146 
L 212.12924 100.885112 
L 212.890857 101.866168 
L 213.652475 98.194627 
L 214.414092 91.372038 
L 215.937326 84.898291 
L 216.698943 80.426066 
L 217.46056 77.450349 
L 218.222177 78.02418 
L 218.983795 76.931992 
L 219.745412 76.411928 
L 220.507029 81.545202 
L 221.268646 83.083027 
L 222.030263 79.444648 
L 222.79188 78.6178 
L 223.553498 78.911065 
L 224.315115 77.875604 
L 225.076732 74.998417 
L 225.838349 70.523665 
L 226.599966 67.874912 
L 227.361583 68.316401 
L 228.1232 70.187761 
L 229.646435 78.980138 
L 230.408052 85.129642 
L 231.169669 86.509408 
L 233.45452 80.754689 
L 234.216138 81.841537 
L 234.977755 82.6294 
L 235.739372 82.412217 
L 236.500989 81.667877 
L 237.262606 84.096172 
L 239.547458 96.582135 
L 240.309075 97.036884 
L 241.070692 96.167057 
L 241.832309 92.975013 
L 242.593926 90.871713 
L 243.355543 87.934727 
L 244.117161 86.165825 
L 244.878778 83.585011 
L 245.640395 83.262841 
L 246.402012 86.007525 
L 247.163629 91.842508 
L 247.925246 96.513772 
L 248.686863 100.151669 
L 249.448481 99.191865 
L 250.210098 95.034786 
L 250.971715 91.912937 
L 251.733332 91.651568 
L 252.494949 86.648281 
L 253.256566 83.834944 
L 254.018184 84.465848 
L 255.541418 87.812587 
L 256.303035 91.995259 
L 257.064652 98.676721 
L 257.826269 103.423875 
L 258.587886 103.31197 
L 260.111121 98.794549 
L 260.872738 95.504736 
L 261.634355 93.477675 
L 262.395972 92.824988 
L 263.157589 94.304664 
L 263.919207 95.136904 
L 264.680824 98.311914 
L 265.442441 103.155418 
L 266.204058 110.062733 
L 266.965675 114.813468 
L 267.727292 114.432579 
L 268.488909 111.67065 
L 270.012144 96.162737 
L 270.773761 93.789763 
L 271.535378 92.201122 
L 272.296995 91.650258 
L 273.058612 93.616775 
L 273.820229 96.461316 
L 274.581847 98.441681 
L 276.105081 109.240051 
L 276.866698 110.440862 
L 277.628315 110.494138 
L 279.15155 106.106026 
L 279.913167 108.097492 
L 280.674784 107.255109 
L 281.436401 107.915286 
L 282.198018 106.855103 
L 282.959635 103.541818 
L 283.721252 105.771674 
L 285.244487 114.83511 
L 286.006104 114.264503 
L 286.767721 112.196622 
L 287.529338 112.666804 
L 288.290955 109.229364 
L 289.052573 107.070848 
L 289.81419 103.90798 
L 290.575807 101.902326 
L 291.337424 100.669176 
L 292.099041 102.075116 
L 292.860658 106.243766 
L 293.622275 114.588425 
L 294.383893 117.946903 
L 295.14551 119.472141 
L 295.907127 117.555645 
L 296.668744 114.065503 
L 297.430361 109.514426 
L 298.191978 107.613815 
L 298.953595 106.733693 
L 299.715213 107.373353 
L 300.47683 106.152896 
L 301.238447 106.57754 
L 302.000064 106.763151 
L 302.761681 105.89023 
L 303.523298 105.961006 
L 304.284916 105.163488 
L 305.80815 96.499786 
L 306.569767 94.766476 
L 307.331384 94.063801 
L 308.093001 91.832025 
L 308.854618 88.618793 
L 309.616236 88.925351 
L 310.377853 92.647563 
L 311.13947 97.980372 
L 311.901087 102.309437 
L 312.662704 105.42501 
L 313.424321 106.396352 
L 314.185938 102.7976 
L 314.947556 97.951165 
L 315.709173 96.708807 
L 316.47079 97.488031 
L 317.232407 95.959325 
L 317.994024 93.43908 
L 318.755641 92.574431 
L 319.517259 95.600011 
L 320.278876 102.437718 
L 321.040493 110.328956 
L 321.80211 113.018605 
L 322.563727 112.591209 
L 324.086961 105.045425 
L 325.610196 97.338569 
L 327.13343 91.468802 
L 327.895047 92.33507 
L 328.656664 93.777485 
L 329.418282 97.572351 
L 330.179899 105.365266 
L 330.941516 109.347969 
L 331.703133 109.010575 
L 332.46475 105.799193 
L 333.226367 104.323095 
L 334.749602 97.86446 
L 335.511219 95.805471 
L 336.272836 91.953091 
L 337.034453 85.922157 
L 337.79607 82.453992 
L 338.557687 85.904709 
L 339.319304 91.809959 
L 340.080922 94.801719 
L 340.842539 95.635305 
L 341.604156 93.799196 
L 343.889007 84.27886 
L 344.650625 83.047987 
L 345.412242 85.764866 
L 346.173859 86.317778 
L 346.935476 85.080175 
L 347.697093 88.486399 
L 348.45871 95.536738 
L 349.220327 100.863901 
L 349.981945 103.204337 
L 350.743562 100.771659 
L 352.266796 94.008256 
L 353.028413 93.120518 
L 353.79003 93.752086 
L 355.313265 94.348717 
L 356.074882 97.580082 
L 357.598116 105.852259 
L 358.359733 109.910047 
L 359.12135 110.89406 
L 359.882968 109.99774 
L 360.644585 107.551421 
L 361.406202 107.421042 
L 362.167819 106.892508 
L 362.929436 101.942118 
L 363.691053 95.754548 
L 364.45267 95.007449 
L 365.214288 96.879593 
L 365.975905 99.141969 
L 366.737522 104.103075 
L 367.499139 106.36144 
L 368.260756 104.156207 
L 369.022373 102.655889 
L 369.783991 100.660204 
L 371.307225 91.622457 
L 372.068842 86.419289 
L 372.830459 85.194834 
L 373.592076 84.566368 
L 374.353693 86.874065 
L 375.115311 91.615445 
L 375.876928 98.921244 
L 376.638545 103.949695 
L 378.161779 107.856555 
L 378.923396 109.300039 
L 379.685013 108.775148 
L 380.446631 106.915777 
L 381.208248 104.027176 
L 381.969865 100.670231 
L 382.731482 97.996847 
L 383.493099 96.220022 
L 384.254716 98.617114 
L 385.016334 104.631586 
L 385.777951 108.768274 
L 386.539568 109.392217 
L 387.301185 109.271563 
L 388.824419 106.748197 
L 389.586036 102.680783 
L 390.347654 95.880552 
L 391.109271 93.277506 
L 392.632505 96.940676 
L 393.394122 101.019815 
L 394.155739 103.175242 
L 394.917357 106.704079 
L 395.678974 106.130028 
L 396.440591 104.353372 
L 397.202208 101.158398 
L 397.963825 96.273911 
L 398.725442 95.141485 
L 399.487059 94.662362 
L 400.248677 93.601183 
L 401.010294 95.554482 
L 401.771911 100.221593 
L 403.295145 113.640629 
L 404.056762 116.625776 
L 404.818379 115.122422 
L 405.579997 111.902808 
L 406.341614 110.081705 
L 407.103231 109.586748 
L 407.864848 109.534245 
L 408.626465 108.852224 
L 409.388082 106.000307 
L 410.1497 104.391932 
L 410.911317 107.921765 
L 411.672934 112.034447 
L 413.196168 124.156993 
L 413.957785 125.430866 
L 414.719402 123.773717 
L 415.48102 118.755209 
L 416.242637 115.86784 
L 417.004254 115.475994 
L 417.765871 114.344477 
L 418.527488 112.844363 
L 419.289105 113.390519 
L 420.050723 115.520765 
L 421.573957 130.425417 
L 422.335574 134.830982 
L 423.097191 134.594722 
L 423.858808 131.751735 
L 424.620425 127.73806 
L 425.382043 125.578278 
L 426.14366 126.451684 
L 427.666894 121.498649 
L 428.428511 121.487683 
L 429.190128 124.301431 
L 429.951745 126.652045 
L 430.713363 130.436544 
L 431.47498 133.495014 
L 432.236597 133.492284 
L 432.998214 132.389001 
L 433.759831 128.051254 
L 434.521448 120.842296 
L 435.283066 116.581166 
L 436.8063 111.786668 
L 437.567917 107.860751 
L 438.329534 106.660012 
L 439.091151 111.83084 
L 439.852768 118.874621 
L 440.614386 122.87161 
L 441.376003 122.039526 
L 442.13762 120.559882 
L 443.660854 113.925398 
L 444.422471 113.599521 
L 445.184088 111.415267 
L 445.945706 109.694085 
L 446.707323 109.99344 
L 447.46894 111.638677 
L 448.230557 114.478001 
L 448.992174 122.536171 
L 449.753791 127.225987 
L 450.515409 126.063038 
L 451.277026 123.541662 
L 452.038643 122.234415 
L 452.80026 121.356875 
L 454.323494 118.1167 
L 455.085111 118.464598 
L 455.846729 116.750463 
L 456.608346 115.615912 
L 457.369963 120.315421 
L 458.13158 127.158802 
L 458.893197 131.42064 
L 459.654814 131.480005 
L 460.416432 130.383474 
L 461.178049 129.62299 
L 461.939666 128.23181 
L 463.4629 117.886068 
L 464.224517 115.119417 
L 464.986134 114.62742 
L 465.747752 116.632248 
L 466.509369 123.058925 
L 467.270986 130.665283 
L 468.032603 134.638635 
L 468.79422 132.957497 
L 469.555837 128.673443 
L 470.317454 123.722339 
L 471.840689 111.878847 
L 472.602306 108.921209 
L 473.363923 110.252415 
L 474.12554 109.865286 
L 474.887157 110.639145 
L 475.648775 113.363829 
L 476.410392 117.475873 
L 477.172009 120.928577 
L 477.933626 121.939643 
L 478.695243 119.349984 
L 479.45686 117.57203 
L 480.218477 114.238797 
L 481.741712 110.239749 
L 482.503329 109.249982 
L 484.026563 103.948962 
L 484.78818 103.917952 
L 485.549797 103.490729 
L 485.549797 103.490729 
" clip-path="url(#p40ca997b26)" style="fill: none; stroke: #fb9a99; stroke-width: 1.5; stroke-linecap: square"/>
   </g>
   <g id="patch_3">
    <path d="M 72.905625 186.84327 
L 72.905625 10.999219 
" style="fill: none; stroke: #000000; stroke-width: 0.8; stroke-linejoin: miter; stroke-linecap: square"/>
   </g>
   <g id="patch_4">
    <path d="M 505.19952 186.84327 
L 505.19952 10.999219 
" style="fill: none; stroke: #000000; stroke-width: 0.8; stroke-linejoin: miter; stroke-linecap: square"/>
   </g>
   <g id="patch_5">
    <path d="M 72.905625 186.84327 
L 505.19952 186.84327 
" style="fill: none; stroke: #000000; stroke-width: 0.8; stroke-linejoin: miter; stroke-linecap: square"/>
   </g>
   <g id="patch_6">
    <path d="M 72.905625 10.999219 
L 505.19952 10.999219 
" style="fill: none; stroke: #000000; stroke-width: 0.8; stroke-linejoin: miter; stroke-linecap: square"/>
   </g>
  </g>
 </g>
 <defs>
  <clipPath id="p40ca997b26">
   <rect x="72.905625" y="10.999219" width="432.293895" height="175.844051"/>
  </clipPath>
 </defs>
</svg>
