<?xml version="1.0" encoding="utf-8" standalone="no"?>
<!DOCTYPE svg PUBLIC "-//W3C//DTD SVG 1.1//EN"
  "http://www.w3.org/Graphics/SVG/1.1/DTD/svg11.dtd">
<svg xmlns:xlink="http://www.w3.org/1999/xlink" width="512.39952pt" height="224.39952pt" viewBox="0 0 512.39952 224.39952" xmlns="http://www.w3.org/2000/svg" version="1.1">
 <metadata>
  <rdf:RDF xmlns:dc="http://purl.org/dc/elements/1.1/" xmlns:cc="http://creativecommons.org/ns#" xmlns:rdf="http://www.w3.org/1999/02/22-rdf-syntax-ns#">
   <cc:Work>
    <dc:type rdf:resource="http://purl.org/dc/dcmitype/StillImage"/>
    <dc:date>2023-01-25T15:12:26.206378</dc:date>
    <dc:format>image/svg+xml</dc:format>
    <dc:creator>
     <cc:Agent>
      <dc:title>Matplotlib v3.6.2, https://matplotlib.org/</dc:title>
     </cc:Agent>
    </dc:creator>
   </cc:Work>
  </rdf:RDF>
 </metadata>
 <defs>
  <style type="text/css">*{stroke-linejoin: round; stroke-linecap: butt}</style>
 </defs>
 <g id="figure_1">
  <g id="patch_1">
   <path d="M 0 224.39952 
L 512.39952 224.39952 
L 512.39952 0 
L 0 0 
z
" style="fill: #ffffff"/>
  </g>
  <g id="axes_1">
   <g id="patch_2">
    <path d="M 72.905625 186.84327 
L 362.716708 186.84327 
L 362.716708 10.999219 
L 72.905625 10.999219 
z
" style="fill: #ffffff"/>
   </g>
   <g id="matplotlib.axis_1">
    <g id="xtick_1">
     <g id="line2d_1">
      <defs>
       <path id="mb3a4ab9a67" d="M 0 0 
L 0 3.5 
" style="stroke: #000000; stroke-width: 0.8"/>
      </defs>
      <g>
       <use xlink:href="#mb3a4ab9a67" x="85.773567" y="186.84327" style="stroke: #000000; stroke-width: 0.8"/>
      </g>
     </g>
     <g id="text_1">
      <!-- 1950 -->
      <g transform="translate(73.048567 201.441708) scale(0.1 -0.1)">
       <defs>
        <path id="DejaVuSans-31" d="M 794 531 
L 1825 531 
L 1825 4091 
L 703 3866 
L 703 4441 
L 1819 4666 
L 2450 4666 
L 2450 531 
L 3481 531 
L 3481 0 
L 794 0 
L 794 531 
z
" transform="scale(0.015625)"/>
        <path id="DejaVuSans-39" d="M 703 97 
L 703 672 
Q 941 559 1184 500 
Q 1428 441 1663 441 
Q 2288 441 2617 861 
Q 2947 1281 2994 2138 
Q 2813 1869 2534 1725 
Q 2256 1581 1919 1581 
Q 1219 1581 811 2004 
Q 403 2428 403 3163 
Q 403 3881 828 4315 
Q 1253 4750 1959 4750 
Q 2769 4750 3195 4129 
Q 3622 3509 3622 2328 
Q 3622 1225 3098 567 
Q 2575 -91 1691 -91 
Q 1453 -91 1209 -44 
Q 966 3 703 97 
z
M 1959 2075 
Q 2384 2075 2632 2365 
Q 2881 2656 2881 3163 
Q 2881 3666 2632 3958 
Q 2384 4250 1959 4250 
Q 1534 4250 1286 3958 
Q 1038 3666 1038 3163 
Q 1038 2656 1286 2365 
Q 1534 2075 1959 2075 
z
" transform="scale(0.015625)"/>
        <path id="DejaVuSans-35" d="M 691 4666 
L 3169 4666 
L 3169 4134 
L 1269 4134 
L 1269 2991 
Q 1406 3038 1543 3061 
Q 1681 3084 1819 3084 
Q 2600 3084 3056 2656 
Q 3513 2228 3513 1497 
Q 3513 744 3044 326 
Q 2575 -91 1722 -91 
Q 1428 -91 1123 -41 
Q 819 9 494 109 
L 494 744 
Q 775 591 1075 516 
Q 1375 441 1709 441 
Q 2250 441 2565 725 
Q 2881 1009 2881 1497 
Q 2881 1984 2565 2268 
Q 2250 2553 1709 2553 
Q 1456 2553 1204 2497 
Q 953 2441 691 2322 
L 691 4666 
z
" transform="scale(0.015625)"/>
        <path id="DejaVuSans-30" d="M 2034 4250 
Q 1547 4250 1301 3770 
Q 1056 3291 1056 2328 
Q 1056 1369 1301 889 
Q 1547 409 2034 409 
Q 2525 409 2770 889 
Q 3016 1369 3016 2328 
Q 3016 3291 2770 3770 
Q 2525 4250 2034 4250 
z
M 2034 4750 
Q 2819 4750 3233 4129 
Q 3647 3509 3647 2328 
Q 3647 1150 3233 529 
Q 2819 -91 2034 -91 
Q 1250 -91 836 529 
Q 422 1150 422 2328 
Q 422 3509 836 4129 
Q 1250 4750 2034 4750 
z
" transform="scale(0.015625)"/>
       </defs>
       <use xlink:href="#DejaVuSans-31"/>
       <use xlink:href="#DejaVuSans-39" x="63.623047"/>
       <use xlink:href="#DejaVuSans-35" x="127.246094"/>
       <use xlink:href="#DejaVuSans-30" x="190.869141"/>
      </g>
     </g>
    </g>
    <g id="xtick_2">
     <g id="line2d_2">
      <g>
       <use xlink:href="#mb3a4ab9a67" x="122.408276" y="186.84327" style="stroke: #000000; stroke-width: 0.8"/>
      </g>
     </g>
     <g id="text_2">
      <!-- 1960 -->
      <g transform="translate(109.683276 201.441708) scale(0.1 -0.1)">
       <defs>
        <path id="DejaVuSans-36" d="M 2113 2584 
Q 1688 2584 1439 2293 
Q 1191 2003 1191 1497 
Q 1191 994 1439 701 
Q 1688 409 2113 409 
Q 2538 409 2786 701 
Q 3034 994 3034 1497 
Q 3034 2003 2786 2293 
Q 2538 2584 2113 2584 
z
M 3366 4563 
L 3366 3988 
Q 3128 4100 2886 4159 
Q 2644 4219 2406 4219 
Q 1781 4219 1451 3797 
Q 1122 3375 1075 2522 
Q 1259 2794 1537 2939 
Q 1816 3084 2150 3084 
Q 2853 3084 3261 2657 
Q 3669 2231 3669 1497 
Q 3669 778 3244 343 
Q 2819 -91 2113 -91 
Q 1303 -91 875 529 
Q 447 1150 447 2328 
Q 447 3434 972 4092 
Q 1497 4750 2381 4750 
Q 2619 4750 2861 4703 
Q 3103 4656 3366 4563 
z
" transform="scale(0.015625)"/>
       </defs>
       <use xlink:href="#DejaVuSans-31"/>
       <use xlink:href="#DejaVuSans-39" x="63.623047"/>
       <use xlink:href="#DejaVuSans-36" x="127.246094"/>
       <use xlink:href="#DejaVuSans-30" x="190.869141"/>
      </g>
     </g>
    </g>
    <g id="xtick_3">
     <g id="line2d_3">
      <g>
       <use xlink:href="#mb3a4ab9a67" x="159.042986" y="186.84327" style="stroke: #000000; stroke-width: 0.8"/>
      </g>
     </g>
     <g id="text_3">
      <!-- 1970 -->
      <g transform="translate(146.317986 201.441708) scale(0.1 -0.1)">
       <defs>
        <path id="DejaVuSans-37" d="M 525 4666 
L 3525 4666 
L 3525 4397 
L 1831 0 
L 1172 0 
L 2766 4134 
L 525 4134 
L 525 4666 
z
" transform="scale(0.015625)"/>
       </defs>
       <use xlink:href="#DejaVuSans-31"/>
       <use xlink:href="#DejaVuSans-39" x="63.623047"/>
       <use xlink:href="#DejaVuSans-37" x="127.246094"/>
       <use xlink:href="#DejaVuSans-30" x="190.869141"/>
      </g>
     </g>
    </g>
    <g id="xtick_4">
     <g id="line2d_4">
      <g>
       <use xlink:href="#mb3a4ab9a67" x="195.677696" y="186.84327" style="stroke: #000000; stroke-width: 0.8"/>
      </g>
     </g>
     <g id="text_4">
      <!-- 1980 -->
      <g transform="translate(182.952696 201.441708) scale(0.1 -0.1)">
       <defs>
        <path id="DejaVuSans-38" d="M 2034 2216 
Q 1584 2216 1326 1975 
Q 1069 1734 1069 1313 
Q 1069 891 1326 650 
Q 1584 409 2034 409 
Q 2484 409 2743 651 
Q 3003 894 3003 1313 
Q 3003 1734 2745 1975 
Q 2488 2216 2034 2216 
z
M 1403 2484 
Q 997 2584 770 2862 
Q 544 3141 544 3541 
Q 544 4100 942 4425 
Q 1341 4750 2034 4750 
Q 2731 4750 3128 4425 
Q 3525 4100 3525 3541 
Q 3525 3141 3298 2862 
Q 3072 2584 2669 2484 
Q 3125 2378 3379 2068 
Q 3634 1759 3634 1313 
Q 3634 634 3220 271 
Q 2806 -91 2034 -91 
Q 1263 -91 848 271 
Q 434 634 434 1313 
Q 434 1759 690 2068 
Q 947 2378 1403 2484 
z
M 1172 3481 
Q 1172 3119 1398 2916 
Q 1625 2713 2034 2713 
Q 2441 2713 2670 2916 
Q 2900 3119 2900 3481 
Q 2900 3844 2670 4047 
Q 2441 4250 2034 4250 
Q 1625 4250 1398 4047 
Q 1172 3844 1172 3481 
z
" transform="scale(0.015625)"/>
       </defs>
       <use xlink:href="#DejaVuSans-31"/>
       <use xlink:href="#DejaVuSans-39" x="63.623047"/>
       <use xlink:href="#DejaVuSans-38" x="127.246094"/>
       <use xlink:href="#DejaVuSans-30" x="190.869141"/>
      </g>
     </g>
    </g>
    <g id="xtick_5">
     <g id="line2d_5">
      <g>
       <use xlink:href="#mb3a4ab9a67" x="232.312405" y="186.84327" style="stroke: #000000; stroke-width: 0.8"/>
      </g>
     </g>
     <g id="text_5">
      <!-- 1990 -->
      <g transform="translate(219.587405 201.441708) scale(0.1 -0.1)">
       <use xlink:href="#DejaVuSans-31"/>
       <use xlink:href="#DejaVuSans-39" x="63.623047"/>
       <use xlink:href="#DejaVuSans-39" x="127.246094"/>
       <use xlink:href="#DejaVuSans-30" x="190.869141"/>
      </g>
     </g>
    </g>
    <g id="xtick_6">
     <g id="line2d_6">
      <g>
       <use xlink:href="#mb3a4ab9a67" x="268.947115" y="186.84327" style="stroke: #000000; stroke-width: 0.8"/>
      </g>
     </g>
     <g id="text_6">
      <!-- 2000 -->
      <g transform="translate(256.222115 201.441708) scale(0.1 -0.1)">
       <defs>
        <path id="DejaVuSans-32" d="M 1228 531 
L 3431 531 
L 3431 0 
L 469 0 
L 469 531 
Q 828 903 1448 1529 
Q 2069 2156 2228 2338 
Q 2531 2678 2651 2914 
Q 2772 3150 2772 3378 
Q 2772 3750 2511 3984 
Q 2250 4219 1831 4219 
Q 1534 4219 1204 4116 
Q 875 4013 500 3803 
L 500 4441 
Q 881 4594 1212 4672 
Q 1544 4750 1819 4750 
Q 2544 4750 2975 4387 
Q 3406 4025 3406 3419 
Q 3406 3131 3298 2873 
Q 3191 2616 2906 2266 
Q 2828 2175 2409 1742 
Q 1991 1309 1228 531 
z
" transform="scale(0.015625)"/>
       </defs>
       <use xlink:href="#DejaVuSans-32"/>
       <use xlink:href="#DejaVuSans-30" x="63.623047"/>
       <use xlink:href="#DejaVuSans-30" x="127.246094"/>
       <use xlink:href="#DejaVuSans-30" x="190.869141"/>
      </g>
     </g>
    </g>
    <g id="xtick_7">
     <g id="line2d_7">
      <g>
       <use xlink:href="#mb3a4ab9a67" x="305.581825" y="186.84327" style="stroke: #000000; stroke-width: 0.8"/>
      </g>
     </g>
     <g id="text_7">
      <!-- 2010 -->
      <g transform="translate(292.856825 201.441708) scale(0.1 -0.1)">
       <use xlink:href="#DejaVuSans-32"/>
       <use xlink:href="#DejaVuSans-30" x="63.623047"/>
       <use xlink:href="#DejaVuSans-31" x="127.246094"/>
       <use xlink:href="#DejaVuSans-30" x="190.869141"/>
      </g>
     </g>
    </g>
    <g id="xtick_8">
     <g id="line2d_8">
      <g>
       <use xlink:href="#mb3a4ab9a67" x="342.216535" y="186.84327" style="stroke: #000000; stroke-width: 0.8"/>
      </g>
     </g>
     <g id="text_8">
      <!-- 2020 -->
      <g transform="translate(329.491535 201.441708) scale(0.1 -0.1)">
       <use xlink:href="#DejaVuSans-32"/>
       <use xlink:href="#DejaVuSans-30" x="63.623047"/>
       <use xlink:href="#DejaVuSans-32" x="127.246094"/>
       <use xlink:href="#DejaVuSans-30" x="190.869141"/>
      </g>
     </g>
    </g>
    <g id="text_9">
     <!-- Year -->
     <g transform="translate(207.223666 215.119833) scale(0.1 -0.1)">
      <defs>
       <path id="DejaVuSans-59" d="M -13 4666 
L 666 4666 
L 1959 2747 
L 3244 4666 
L 3922 4666 
L 2272 2222 
L 2272 0 
L 1638 0 
L 1638 2222 
L -13 4666 
z
" transform="scale(0.015625)"/>
       <path id="DejaVuSans-65" d="M 3597 1894 
L 3597 1613 
L 953 1613 
Q 991 1019 1311 708 
Q 1631 397 2203 397 
Q 2534 397 2845 478 
Q 3156 559 3463 722 
L 3463 178 
Q 3153 47 2828 -22 
Q 2503 -91 2169 -91 
Q 1331 -91 842 396 
Q 353 884 353 1716 
Q 353 2575 817 3079 
Q 1281 3584 2069 3584 
Q 2775 3584 3186 3129 
Q 3597 2675 3597 1894 
z
M 3022 2063 
Q 3016 2534 2758 2815 
Q 2500 3097 2075 3097 
Q 1594 3097 1305 2825 
Q 1016 2553 972 2059 
L 3022 2063 
z
" transform="scale(0.015625)"/>
       <path id="DejaVuSans-61" d="M 2194 1759 
Q 1497 1759 1228 1600 
Q 959 1441 959 1056 
Q 959 750 1161 570 
Q 1363 391 1709 391 
Q 2188 391 2477 730 
Q 2766 1069 2766 1631 
L 2766 1759 
L 2194 1759 
z
M 3341 1997 
L 3341 0 
L 2766 0 
L 2766 531 
Q 2569 213 2275 61 
Q 1981 -91 1556 -91 
Q 1019 -91 701 211 
Q 384 513 384 1019 
Q 384 1609 779 1909 
Q 1175 2209 1959 2209 
L 2766 2209 
L 2766 2266 
Q 2766 2663 2505 2880 
Q 2244 3097 1772 3097 
Q 1472 3097 1187 3025 
Q 903 2953 641 2809 
L 641 3341 
Q 956 3463 1253 3523 
Q 1550 3584 1831 3584 
Q 2591 3584 2966 3190 
Q 3341 2797 3341 1997 
z
" transform="scale(0.015625)"/>
       <path id="DejaVuSans-72" d="M 2631 2963 
Q 2534 3019 2420 3045 
Q 2306 3072 2169 3072 
Q 1681 3072 1420 2755 
Q 1159 2438 1159 1844 
L 1159 0 
L 581 0 
L 581 3500 
L 1159 3500 
L 1159 2956 
Q 1341 3275 1631 3429 
Q 1922 3584 2338 3584 
Q 2397 3584 2469 3576 
Q 2541 3569 2628 3553 
L 2631 2963 
z
" transform="scale(0.015625)"/>
      </defs>
      <use xlink:href="#DejaVuSans-59"/>
      <use xlink:href="#DejaVuSans-65" x="47.833984"/>
      <use xlink:href="#DejaVuSans-61" x="109.357422"/>
      <use xlink:href="#DejaVuSans-72" x="170.636719"/>
     </g>
    </g>
   </g>
   <g id="matplotlib.axis_2">
    <g id="ytick_1">
     <g id="line2d_9">
      <defs>
       <path id="m4912c012c3" d="M 0 0 
L -3.5 0 
" style="stroke: #000000; stroke-width: 0.8"/>
      </defs>
      <g>
       <use xlink:href="#m4912c012c3" x="72.905625" y="186.84327" style="stroke: #000000; stroke-width: 0.8"/>
      </g>
     </g>
     <g id="text_10">
      <!-- −3500 -->
      <g transform="translate(32.075938 190.642489) scale(0.1 -0.1)">
       <defs>
        <path id="DejaVuSans-2212" d="M 678 2272 
L 4684 2272 
L 4684 1741 
L 678 1741 
L 678 2272 
z
" transform="scale(0.015625)"/>
        <path id="DejaVuSans-33" d="M 2597 2516 
Q 3050 2419 3304 2112 
Q 3559 1806 3559 1356 
Q 3559 666 3084 287 
Q 2609 -91 1734 -91 
Q 1441 -91 1130 -33 
Q 819 25 488 141 
L 488 750 
Q 750 597 1062 519 
Q 1375 441 1716 441 
Q 2309 441 2620 675 
Q 2931 909 2931 1356 
Q 2931 1769 2642 2001 
Q 2353 2234 1838 2234 
L 1294 2234 
L 1294 2753 
L 1863 2753 
Q 2328 2753 2575 2939 
Q 2822 3125 2822 3475 
Q 2822 3834 2567 4026 
Q 2313 4219 1838 4219 
Q 1578 4219 1281 4162 
Q 984 4106 628 3988 
L 628 4550 
Q 988 4650 1302 4700 
Q 1616 4750 1894 4750 
Q 2613 4750 3031 4423 
Q 3450 4097 3450 3541 
Q 3450 3153 3228 2886 
Q 3006 2619 2597 2516 
z
" transform="scale(0.015625)"/>
       </defs>
       <use xlink:href="#DejaVuSans-2212"/>
       <use xlink:href="#DejaVuSans-33" x="83.789062"/>
       <use xlink:href="#DejaVuSans-35" x="147.412109"/>
       <use xlink:href="#DejaVuSans-30" x="211.035156"/>
       <use xlink:href="#DejaVuSans-30" x="274.658203"/>
      </g>
     </g>
    </g>
    <g id="ytick_2">
     <g id="line2d_10">
      <g>
       <use xlink:href="#m4912c012c3" x="72.905625" y="164.862764" style="stroke: #000000; stroke-width: 0.8"/>
      </g>
     </g>
     <g id="text_11">
      <!-- −3000 -->
      <g transform="translate(32.075938 168.661982) scale(0.1 -0.1)">
       <use xlink:href="#DejaVuSans-2212"/>
       <use xlink:href="#DejaVuSans-33" x="83.789062"/>
       <use xlink:href="#DejaVuSans-30" x="147.412109"/>
       <use xlink:href="#DejaVuSans-30" x="211.035156"/>
       <use xlink:href="#DejaVuSans-30" x="274.658203"/>
      </g>
     </g>
    </g>
    <g id="ytick_3">
     <g id="line2d_11">
      <g>
       <use xlink:href="#m4912c012c3" x="72.905625" y="142.882257" style="stroke: #000000; stroke-width: 0.8"/>
      </g>
     </g>
     <g id="text_12">
      <!-- −2500 -->
      <g transform="translate(32.075938 146.681476) scale(0.1 -0.1)">
       <use xlink:href="#DejaVuSans-2212"/>
       <use xlink:href="#DejaVuSans-32" x="83.789062"/>
       <use xlink:href="#DejaVuSans-35" x="147.412109"/>
       <use xlink:href="#DejaVuSans-30" x="211.035156"/>
       <use xlink:href="#DejaVuSans-30" x="274.658203"/>
      </g>
     </g>
    </g>
    <g id="ytick_4">
     <g id="line2d_12">
      <g>
       <use xlink:href="#m4912c012c3" x="72.905625" y="120.901751" style="stroke: #000000; stroke-width: 0.8"/>
      </g>
     </g>
     <g id="text_13">
      <!-- −2000 -->
      <g transform="translate(32.075938 124.70097) scale(0.1 -0.1)">
       <use xlink:href="#DejaVuSans-2212"/>
       <use xlink:href="#DejaVuSans-32" x="83.789062"/>
       <use xlink:href="#DejaVuSans-30" x="147.412109"/>
       <use xlink:href="#DejaVuSans-30" x="211.035156"/>
       <use xlink:href="#DejaVuSans-30" x="274.658203"/>
      </g>
     </g>
    </g>
    <g id="ytick_5">
     <g id="line2d_13">
      <g>
       <use xlink:href="#m4912c012c3" x="72.905625" y="98.921244" style="stroke: #000000; stroke-width: 0.8"/>
      </g>
     </g>
     <g id="text_14">
      <!-- −1500 -->
      <g transform="translate(32.075938 102.720463) scale(0.1 -0.1)">
       <use xlink:href="#DejaVuSans-2212"/>
       <use xlink:href="#DejaVuSans-31" x="83.789062"/>
       <use xlink:href="#DejaVuSans-35" x="147.412109"/>
       <use xlink:href="#DejaVuSans-30" x="211.035156"/>
       <use xlink:href="#DejaVuSans-30" x="274.658203"/>
      </g>
     </g>
    </g>
    <g id="ytick_6">
     <g id="line2d_14">
      <g>
       <use xlink:href="#m4912c012c3" x="72.905625" y="76.940738" style="stroke: #000000; stroke-width: 0.8"/>
      </g>
     </g>
     <g id="text_15">
      <!-- −1000 -->
      <g transform="translate(32.075938 80.739957) scale(0.1 -0.1)">
       <use xlink:href="#DejaVuSans-2212"/>
       <use xlink:href="#DejaVuSans-31" x="83.789062"/>
       <use xlink:href="#DejaVuSans-30" x="147.412109"/>
       <use xlink:href="#DejaVuSans-30" x="211.035156"/>
       <use xlink:href="#DejaVuSans-30" x="274.658203"/>
      </g>
     </g>
    </g>
    <g id="ytick_7">
     <g id="line2d_15">
      <g>
       <use xlink:href="#m4912c012c3" x="72.905625" y="54.960232" style="stroke: #000000; stroke-width: 0.8"/>
      </g>
     </g>
     <g id="text_16">
      <!-- −500 -->
      <g transform="translate(38.438437 58.75945) scale(0.1 -0.1)">
       <use xlink:href="#DejaVuSans-2212"/>
       <use xlink:href="#DejaVuSans-35" x="83.789062"/>
       <use xlink:href="#DejaVuSans-30" x="147.412109"/>
       <use xlink:href="#DejaVuSans-30" x="211.035156"/>
      </g>
     </g>
    </g>
    <g id="ytick_8">
     <g id="line2d_16">
      <g>
       <use xlink:href="#m4912c012c3" x="72.905625" y="32.979725" style="stroke: #000000; stroke-width: 0.8"/>
      </g>
     </g>
     <g id="text_17">
      <!-- 0 -->
      <g transform="translate(59.543125 36.778944) scale(0.1 -0.1)">
       <use xlink:href="#DejaVuSans-30"/>
      </g>
     </g>
    </g>
    <g id="ytick_9">
     <g id="line2d_17">
      <g>
       <use xlink:href="#m4912c012c3" x="72.905625" y="10.999219" style="stroke: #000000; stroke-width: 0.8"/>
      </g>
     </g>
     <g id="text_18">
      <!-- 500 -->
      <g transform="translate(46.818125 14.798438) scale(0.1 -0.1)">
       <use xlink:href="#DejaVuSans-35"/>
       <use xlink:href="#DejaVuSans-30" x="63.623047"/>
       <use xlink:href="#DejaVuSans-30" x="127.246094"/>
      </g>
     </g>
    </g>
    <g id="text_19">
     <!-- Cumulative SMB Anomaly [Gt]  -->
     <g transform="translate(14.798438 176.400932) rotate(-90) scale(0.1 -0.1)">
      <defs>
       <path id="DejaVuSans-43" d="M 4122 4306 
L 4122 3641 
Q 3803 3938 3442 4084 
Q 3081 4231 2675 4231 
Q 1875 4231 1450 3742 
Q 1025 3253 1025 2328 
Q 1025 1406 1450 917 
Q 1875 428 2675 428 
Q 3081 428 3442 575 
Q 3803 722 4122 1019 
L 4122 359 
Q 3791 134 3420 21 
Q 3050 -91 2638 -91 
Q 1578 -91 968 557 
Q 359 1206 359 2328 
Q 359 3453 968 4101 
Q 1578 4750 2638 4750 
Q 3056 4750 3426 4639 
Q 3797 4528 4122 4306 
z
" transform="scale(0.015625)"/>
       <path id="DejaVuSans-75" d="M 544 1381 
L 544 3500 
L 1119 3500 
L 1119 1403 
Q 1119 906 1312 657 
Q 1506 409 1894 409 
Q 2359 409 2629 706 
Q 2900 1003 2900 1516 
L 2900 3500 
L 3475 3500 
L 3475 0 
L 2900 0 
L 2900 538 
Q 2691 219 2414 64 
Q 2138 -91 1772 -91 
Q 1169 -91 856 284 
Q 544 659 544 1381 
z
M 1991 3584 
L 1991 3584 
z
" transform="scale(0.015625)"/>
       <path id="DejaVuSans-6d" d="M 3328 2828 
Q 3544 3216 3844 3400 
Q 4144 3584 4550 3584 
Q 5097 3584 5394 3201 
Q 5691 2819 5691 2113 
L 5691 0 
L 5113 0 
L 5113 2094 
Q 5113 2597 4934 2840 
Q 4756 3084 4391 3084 
Q 3944 3084 3684 2787 
Q 3425 2491 3425 1978 
L 3425 0 
L 2847 0 
L 2847 2094 
Q 2847 2600 2669 2842 
Q 2491 3084 2119 3084 
Q 1678 3084 1418 2786 
Q 1159 2488 1159 1978 
L 1159 0 
L 581 0 
L 581 3500 
L 1159 3500 
L 1159 2956 
Q 1356 3278 1631 3431 
Q 1906 3584 2284 3584 
Q 2666 3584 2933 3390 
Q 3200 3197 3328 2828 
z
" transform="scale(0.015625)"/>
       <path id="DejaVuSans-6c" d="M 603 4863 
L 1178 4863 
L 1178 0 
L 603 0 
L 603 4863 
z
" transform="scale(0.015625)"/>
       <path id="DejaVuSans-74" d="M 1172 4494 
L 1172 3500 
L 2356 3500 
L 2356 3053 
L 1172 3053 
L 1172 1153 
Q 1172 725 1289 603 
Q 1406 481 1766 481 
L 2356 481 
L 2356 0 
L 1766 0 
Q 1100 0 847 248 
Q 594 497 594 1153 
L 594 3053 
L 172 3053 
L 172 3500 
L 594 3500 
L 594 4494 
L 1172 4494 
z
" transform="scale(0.015625)"/>
       <path id="DejaVuSans-69" d="M 603 3500 
L 1178 3500 
L 1178 0 
L 603 0 
L 603 3500 
z
M 603 4863 
L 1178 4863 
L 1178 4134 
L 603 4134 
L 603 4863 
z
" transform="scale(0.015625)"/>
       <path id="DejaVuSans-76" d="M 191 3500 
L 800 3500 
L 1894 563 
L 2988 3500 
L 3597 3500 
L 2284 0 
L 1503 0 
L 191 3500 
z
" transform="scale(0.015625)"/>
       <path id="DejaVuSans-20" transform="scale(0.015625)"/>
       <path id="DejaVuSans-53" d="M 3425 4513 
L 3425 3897 
Q 3066 4069 2747 4153 
Q 2428 4238 2131 4238 
Q 1616 4238 1336 4038 
Q 1056 3838 1056 3469 
Q 1056 3159 1242 3001 
Q 1428 2844 1947 2747 
L 2328 2669 
Q 3034 2534 3370 2195 
Q 3706 1856 3706 1288 
Q 3706 609 3251 259 
Q 2797 -91 1919 -91 
Q 1588 -91 1214 -16 
Q 841 59 441 206 
L 441 856 
Q 825 641 1194 531 
Q 1563 422 1919 422 
Q 2459 422 2753 634 
Q 3047 847 3047 1241 
Q 3047 1584 2836 1778 
Q 2625 1972 2144 2069 
L 1759 2144 
Q 1053 2284 737 2584 
Q 422 2884 422 3419 
Q 422 4038 858 4394 
Q 1294 4750 2059 4750 
Q 2388 4750 2728 4690 
Q 3069 4631 3425 4513 
z
" transform="scale(0.015625)"/>
       <path id="DejaVuSans-4d" d="M 628 4666 
L 1569 4666 
L 2759 1491 
L 3956 4666 
L 4897 4666 
L 4897 0 
L 4281 0 
L 4281 4097 
L 3078 897 
L 2444 897 
L 1241 4097 
L 1241 0 
L 628 0 
L 628 4666 
z
" transform="scale(0.015625)"/>
       <path id="DejaVuSans-42" d="M 1259 2228 
L 1259 519 
L 2272 519 
Q 2781 519 3026 730 
Q 3272 941 3272 1375 
Q 3272 1813 3026 2020 
Q 2781 2228 2272 2228 
L 1259 2228 
z
M 1259 4147 
L 1259 2741 
L 2194 2741 
Q 2656 2741 2882 2914 
Q 3109 3088 3109 3444 
Q 3109 3797 2882 3972 
Q 2656 4147 2194 4147 
L 1259 4147 
z
M 628 4666 
L 2241 4666 
Q 2963 4666 3353 4366 
Q 3744 4066 3744 3513 
Q 3744 3084 3544 2831 
Q 3344 2578 2956 2516 
Q 3422 2416 3680 2098 
Q 3938 1781 3938 1306 
Q 3938 681 3513 340 
Q 3088 0 2303 0 
L 628 0 
L 628 4666 
z
" transform="scale(0.015625)"/>
       <path id="DejaVuSans-41" d="M 2188 4044 
L 1331 1722 
L 3047 1722 
L 2188 4044 
z
M 1831 4666 
L 2547 4666 
L 4325 0 
L 3669 0 
L 3244 1197 
L 1141 1197 
L 716 0 
L 50 0 
L 1831 4666 
z
" transform="scale(0.015625)"/>
       <path id="DejaVuSans-6e" d="M 3513 2113 
L 3513 0 
L 2938 0 
L 2938 2094 
Q 2938 2591 2744 2837 
Q 2550 3084 2163 3084 
Q 1697 3084 1428 2787 
Q 1159 2491 1159 1978 
L 1159 0 
L 581 0 
L 581 3500 
L 1159 3500 
L 1159 2956 
Q 1366 3272 1645 3428 
Q 1925 3584 2291 3584 
Q 2894 3584 3203 3211 
Q 3513 2838 3513 2113 
z
" transform="scale(0.015625)"/>
       <path id="DejaVuSans-6f" d="M 1959 3097 
Q 1497 3097 1228 2736 
Q 959 2375 959 1747 
Q 959 1119 1226 758 
Q 1494 397 1959 397 
Q 2419 397 2687 759 
Q 2956 1122 2956 1747 
Q 2956 2369 2687 2733 
Q 2419 3097 1959 3097 
z
M 1959 3584 
Q 2709 3584 3137 3096 
Q 3566 2609 3566 1747 
Q 3566 888 3137 398 
Q 2709 -91 1959 -91 
Q 1206 -91 779 398 
Q 353 888 353 1747 
Q 353 2609 779 3096 
Q 1206 3584 1959 3584 
z
" transform="scale(0.015625)"/>
       <path id="DejaVuSans-79" d="M 2059 -325 
Q 1816 -950 1584 -1140 
Q 1353 -1331 966 -1331 
L 506 -1331 
L 506 -850 
L 844 -850 
Q 1081 -850 1212 -737 
Q 1344 -625 1503 -206 
L 1606 56 
L 191 3500 
L 800 3500 
L 1894 763 
L 2988 3500 
L 3597 3500 
L 2059 -325 
z
" transform="scale(0.015625)"/>
       <path id="DejaVuSans-5b" d="M 550 4863 
L 1875 4863 
L 1875 4416 
L 1125 4416 
L 1125 -397 
L 1875 -397 
L 1875 -844 
L 550 -844 
L 550 4863 
z
" transform="scale(0.015625)"/>
       <path id="DejaVuSans-47" d="M 3809 666 
L 3809 1919 
L 2778 1919 
L 2778 2438 
L 4434 2438 
L 4434 434 
Q 4069 175 3628 42 
Q 3188 -91 2688 -91 
Q 1594 -91 976 548 
Q 359 1188 359 2328 
Q 359 3472 976 4111 
Q 1594 4750 2688 4750 
Q 3144 4750 3555 4637 
Q 3966 4525 4313 4306 
L 4313 3634 
Q 3963 3931 3569 4081 
Q 3175 4231 2741 4231 
Q 1884 4231 1454 3753 
Q 1025 3275 1025 2328 
Q 1025 1384 1454 906 
Q 1884 428 2741 428 
Q 3075 428 3337 486 
Q 3600 544 3809 666 
z
" transform="scale(0.015625)"/>
       <path id="DejaVuSans-5d" d="M 1947 4863 
L 1947 -844 
L 622 -844 
L 622 -397 
L 1369 -397 
L 1369 4416 
L 622 4416 
L 622 4863 
L 1947 4863 
z
" transform="scale(0.015625)"/>
      </defs>
      <use xlink:href="#DejaVuSans-43"/>
      <use xlink:href="#DejaVuSans-75" x="69.824219"/>
      <use xlink:href="#DejaVuSans-6d" x="133.203125"/>
      <use xlink:href="#DejaVuSans-75" x="230.615234"/>
      <use xlink:href="#DejaVuSans-6c" x="293.994141"/>
      <use xlink:href="#DejaVuSans-61" x="321.777344"/>
      <use xlink:href="#DejaVuSans-74" x="383.056641"/>
      <use xlink:href="#DejaVuSans-69" x="422.265625"/>
      <use xlink:href="#DejaVuSans-76" x="450.048828"/>
      <use xlink:href="#DejaVuSans-65" x="509.228516"/>
      <use xlink:href="#DejaVuSans-20" x="570.751953"/>
      <use xlink:href="#DejaVuSans-53" x="602.539062"/>
      <use xlink:href="#DejaVuSans-4d" x="666.015625"/>
      <use xlink:href="#DejaVuSans-42" x="752.294922"/>
      <use xlink:href="#DejaVuSans-20" x="820.898438"/>
      <use xlink:href="#DejaVuSans-41" x="852.685547"/>
      <use xlink:href="#DejaVuSans-6e" x="921.09375"/>
      <use xlink:href="#DejaVuSans-6f" x="984.472656"/>
      <use xlink:href="#DejaVuSans-6d" x="1045.654297"/>
      <use xlink:href="#DejaVuSans-61" x="1143.066406"/>
      <use xlink:href="#DejaVuSans-6c" x="1204.345703"/>
      <use xlink:href="#DejaVuSans-79" x="1232.128906"/>
      <use xlink:href="#DejaVuSans-20" x="1291.308594"/>
      <use xlink:href="#DejaVuSans-5b" x="1323.095703"/>
      <use xlink:href="#DejaVuSans-47" x="1362.109375"/>
      <use xlink:href="#DejaVuSans-74" x="1439.599609"/>
      <use xlink:href="#DejaVuSans-5d" x="1478.808594"/>
      <use xlink:href="#DejaVuSans-20" x="1517.822266"/>
     </g>
     <!-- (w.r.t 1960-1990) -->
     <g transform="translate(25.99625 142.036088) rotate(-90) scale(0.1 -0.1)">
      <defs>
       <path id="DejaVuSans-28" d="M 1984 4856 
Q 1566 4138 1362 3434 
Q 1159 2731 1159 2009 
Q 1159 1288 1364 580 
Q 1569 -128 1984 -844 
L 1484 -844 
Q 1016 -109 783 600 
Q 550 1309 550 2009 
Q 550 2706 781 3412 
Q 1013 4119 1484 4856 
L 1984 4856 
z
" transform="scale(0.015625)"/>
       <path id="DejaVuSans-77" d="M 269 3500 
L 844 3500 
L 1563 769 
L 2278 3500 
L 2956 3500 
L 3675 769 
L 4391 3500 
L 4966 3500 
L 4050 0 
L 3372 0 
L 2619 2869 
L 1863 0 
L 1184 0 
L 269 3500 
z
" transform="scale(0.015625)"/>
       <path id="DejaVuSans-2e" d="M 684 794 
L 1344 794 
L 1344 0 
L 684 0 
L 684 794 
z
" transform="scale(0.015625)"/>
       <path id="DejaVuSans-2d" d="M 313 2009 
L 1997 2009 
L 1997 1497 
L 313 1497 
L 313 2009 
z
" transform="scale(0.015625)"/>
       <path id="DejaVuSans-29" d="M 513 4856 
L 1013 4856 
Q 1481 4119 1714 3412 
Q 1947 2706 1947 2009 
Q 1947 1309 1714 600 
Q 1481 -109 1013 -844 
L 513 -844 
Q 928 -128 1133 580 
Q 1338 1288 1338 2009 
Q 1338 2731 1133 3434 
Q 928 4138 513 4856 
z
" transform="scale(0.015625)"/>
      </defs>
      <use xlink:href="#DejaVuSans-28"/>
      <use xlink:href="#DejaVuSans-77" x="39.013672"/>
      <use xlink:href="#DejaVuSans-2e" x="111.675781"/>
      <use xlink:href="#DejaVuSans-72" x="143.462891"/>
      <use xlink:href="#DejaVuSans-2e" x="175.451172"/>
      <use xlink:href="#DejaVuSans-74" x="207.238281"/>
      <use xlink:href="#DejaVuSans-20" x="246.447266"/>
      <use xlink:href="#DejaVuSans-31" x="278.234375"/>
      <use xlink:href="#DejaVuSans-39" x="341.857422"/>
      <use xlink:href="#DejaVuSans-36" x="405.480469"/>
      <use xlink:href="#DejaVuSans-30" x="469.103516"/>
      <use xlink:href="#DejaVuSans-2d" x="532.726562"/>
      <use xlink:href="#DejaVuSans-31" x="568.810547"/>
      <use xlink:href="#DejaVuSans-39" x="632.433594"/>
      <use xlink:href="#DejaVuSans-39" x="696.056641"/>
      <use xlink:href="#DejaVuSans-30" x="759.679688"/>
      <use xlink:href="#DejaVuSans-29" x="823.302734"/>
     </g>
    </g>
   </g>
   <g id="line2d_18">
    <path d="M 86.078856 31.059297 
L 86.384145 30.886619 
L 86.689435 30.559179 
L 86.994724 30.652279 
L 87.300013 30.081809 
L 87.605302 33.997125 
L 87.910592 41.464042 
L 88.215881 44.580867 
L 88.52117 44.641042 
L 88.826459 43.876133 
L 89.131748 42.3558 
L 89.437038 41.407316 
L 89.742327 41.286942 
L 90.047616 40.660259 
L 90.658195 40.208526 
L 90.963484 39.121208 
L 91.268773 43.157828 
L 91.574062 48.920302 
L 91.879352 51.831176 
L 92.184641 52.067252 
L 92.795219 50.381607 
L 93.100509 50.497919 
L 94.016376 48.552655 
L 94.321666 48.521751 
L 94.626955 48.229548 
L 94.932244 50.702948 
L 95.542823 58.947606 
L 95.848112 57.394715 
L 96.153401 54.808892 
L 96.45869 53.489404 
L 96.76398 52.797134 
L 97.374558 50.854497 
L 97.679847 50.116956 
L 97.985137 50.164068 
L 98.290426 49.956872 
L 98.595715 50.973107 
L 98.901004 55.98128 
L 99.206294 58.396224 
L 99.511583 56.953647 
L 99.816872 56.306068 
L 100.427451 53.93909 
L 101.038029 50.041582 
L 101.343318 49.70753 
L 101.648608 48.574979 
L 101.953897 48.466808 
L 102.259186 49.687814 
L 102.564475 53.273355 
L 102.869765 55.238123 
L 103.175054 55.519031 
L 103.480343 54.032799 
L 103.785632 51.908173 
L 104.090922 51.258283 
L 104.7015 50.964437 
L 105.312079 48.866329 
L 105.617368 48.043731 
L 106.227946 51.560744 
L 106.533236 52.773314 
L 107.143814 49.325844 
L 107.449103 48.117365 
L 107.754393 48.317543 
L 108.059682 47.420405 
L 108.67026 44.239269 
L 108.97555 44.102973 
L 109.280839 43.819855 
L 109.586128 46.14371 
L 109.891417 51.39899 
L 110.196707 53.923869 
L 110.501996 52.914978 
L 111.723153 44.38429 
L 112.028442 45.220878 
L 112.333731 45.703152 
L 112.639021 44.963786 
L 112.94431 44.538526 
L 113.249599 48.398509 
L 113.554888 56.132133 
L 113.860178 59.69685 
L 114.165467 59.321176 
L 114.776045 55.500426 
L 115.386624 54.462024 
L 115.691913 53.879769 
L 116.302492 51.913965 
L 116.607781 52.216346 
L 116.91307 54.955758 
L 117.218359 61.179586 
L 117.523648 63.268857 
L 118.134227 59.022815 
L 118.744805 56.623271 
L 119.050095 56.453729 
L 119.660673 54.352498 
L 120.271252 55.015944 
L 120.576541 58.245784 
L 120.88183 63.500289 
L 121.187119 64.598113 
L 121.797698 59.445004 
L 122.102987 58.646273 
L 123.018855 55.472855 
L 123.324144 53.483139 
L 123.934723 52.942447 
L 124.240012 56.093285 
L 124.545301 62.822776 
L 124.85059 66.51656 
L 125.15588 65.383246 
L 125.766458 62.661255 
L 126.071747 61.959735 
L 126.377037 60.563379 
L 126.987615 59.7699 
L 127.292904 59.735038 
L 127.598194 58.971 
L 127.903483 60.953562 
L 128.208772 64.587803 
L 128.514061 66.070216 
L 128.819351 65.101345 
L 129.12464 63.498177 
L 129.429929 62.627048 
L 129.735218 62.218662 
L 130.345797 60.84194 
L 130.651086 60.992021 
L 130.956375 60.195937 
L 131.261665 60.465092 
L 131.566954 62.810408 
L 131.872243 68.284209 
L 132.177532 69.628823 
L 132.788111 67.871487 
L 133.703979 63.959109 
L 134.619846 62.229806 
L 134.925136 62.072761 
L 135.230425 63.330076 
L 135.535714 67.180483 
L 135.841003 69.297214 
L 136.451582 67.055381 
L 136.756871 66.301537 
L 137.06216 64.866036 
L 137.978028 58.556666 
L 138.283317 58.272009 
L 138.588607 58.211417 
L 139.504474 60.991538 
L 139.809764 60.617543 
L 140.115053 58.897872 
L 140.725631 57.538307 
L 141.030921 55.936075 
L 141.33621 53.405709 
L 141.641499 53.318232 
L 141.946788 53.020734 
L 142.252078 53.795965 
L 142.557367 55.300666 
L 142.862656 59.277102 
L 143.167945 61.733957 
L 143.473235 61.119482 
L 143.778524 59.799993 
L 144.083813 59.22128 
L 144.694392 59.625503 
L 144.999681 60.161678 
L 145.610259 60.43507 
L 145.915549 61.620759 
L 146.220838 64.537783 
L 146.831416 72.649411 
L 147.747284 68.599497 
L 148.052573 68.094609 
L 148.663152 65.438759 
L 148.968441 65.760526 
L 149.27373 65.175595 
L 149.579019 65.597024 
L 149.884309 67.190102 
L 150.189598 71.401268 
L 150.494887 72.180668 
L 150.800176 69.316452 
L 151.105466 68.809461 
L 151.410755 67.655747 
L 151.716044 67.483366 
L 152.021333 67.544262 
L 152.937201 65.094926 
L 153.24249 65.772342 
L 153.54778 69.012382 
L 153.853069 74.384647 
L 154.158358 75.935011 
L 155.074226 72.891887 
L 155.379515 72.343111 
L 155.684804 72.248098 
L 155.990094 71.404019 
L 156.905961 70.568646 
L 157.211251 72.236371 
L 157.51654 75.850041 
L 157.821829 77.939208 
L 158.432408 76.683504 
L 159.042986 72.882665 
L 159.348275 71.927556 
L 159.958854 71.20022 
L 160.569432 70.667043 
L 160.874722 71.745103 
L 161.180011 75.473086 
L 161.4853 75.961813 
L 162.095879 72.887953 
L 162.401168 72.024474 
L 162.706457 70.538085 
L 163.317036 70.429394 
L 163.622325 70.853339 
L 163.927614 70.874208 
L 164.232903 70.758298 
L 164.538193 73.864621 
L 164.843482 79.185738 
L 165.148771 80.072536 
L 165.45406 79.016029 
L 165.75935 78.676974 
L 166.369928 75.881285 
L 166.675217 72.61638 
L 167.896374 68.985478 
L 168.201664 69.138324 
L 168.506953 69.988513 
L 168.812242 69.694174 
L 169.422821 66.317553 
L 169.72811 65.908066 
L 170.033399 65.048615 
L 170.338688 63.449522 
L 170.643978 63.614042 
L 170.949267 63.159569 
L 171.254556 62.017302 
L 171.559845 61.853827 
L 171.865135 63.098858 
L 172.170424 65.743622 
L 172.475713 66.513079 
L 172.781002 64.961512 
L 173.086292 64.456396 
L 173.391581 64.463945 
L 174.307449 62.885523 
L 174.612738 61.467433 
L 174.918027 60.722523 
L 175.223316 61.04927 
L 175.528605 62.16959 
L 175.833895 66.665423 
L 176.139184 68.975424 
L 176.444473 68.068759 
L 176.749762 65.699453 
L 177.055052 64.386931 
L 177.360341 64.819749 
L 177.66563 64.979903 
L 178.276209 62.203057 
L 178.581498 61.305567 
L 178.886787 61.248 
L 179.192076 62.724203 
L 179.497366 65.547688 
L 179.802655 66.714678 
L 180.413233 64.961294 
L 181.023812 62.708857 
L 181.329101 62.148085 
L 181.63439 60.760614 
L 181.93968 58.604169 
L 182.244969 58.018118 
L 182.550258 58.224955 
L 182.855547 59.780706 
L 183.160837 62.580171 
L 183.466126 61.716212 
L 184.381994 56.430132 
L 184.687283 55.343301 
L 184.992572 55.261805 
L 185.297861 54.998602 
L 185.603151 54.890187 
L 185.90844 54.4592 
L 186.213729 53.710674 
L 186.519018 54.977249 
L 186.824308 59.517418 
L 187.129597 61.392738 
L 187.434886 60.020028 
L 187.740175 59.473782 
L 188.350754 56.01078 
L 188.656043 55.186033 
L 188.961332 55.4724 
L 189.266622 55.210842 
L 189.8772 53.474028 
L 190.182489 54.034448 
L 190.487779 58.823746 
L 190.793068 60.561162 
L 191.098357 59.654981 
L 191.403646 57.635781 
L 191.708936 57.058034 
L 192.624803 53.976261 
L 192.930093 52.945136 
L 193.235382 52.88243 
L 193.540671 53.032724 
L 193.84596 53.813874 
L 194.15125 57.711633 
L 194.456539 59.366717 
L 194.761828 59.016488 
L 195.067117 57.971712 
L 195.372407 57.349937 
L 196.593564 52.319034 
L 196.898853 51.653797 
L 197.204142 51.776042 
L 197.509431 54.272457 
L 197.814721 58.121889 
L 198.12001 59.492708 
L 198.425299 59.136036 
L 198.730588 58.543439 
L 199.035878 57.346303 
L 199.646456 56.799148 
L 199.951745 56.801919 
L 200.257035 56.547889 
L 200.562324 55.393623 
L 200.867613 55.743743 
L 201.478192 62.939929 
L 201.783481 63.756744 
L 202.08877 63.079168 
L 202.699349 61.507856 
L 203.004638 61.174655 
L 203.309927 60.598126 
L 203.920505 58.645224 
L 204.225795 58.301418 
L 204.531084 59.525568 
L 205.141662 65.839236 
L 205.446952 66.633526 
L 206.362819 64.636665 
L 206.973398 62.799389 
L 207.278687 61.313358 
L 207.889266 59.738487 
L 208.194555 59.864462 
L 208.805133 62.290727 
L 209.110423 61.706971 
L 209.415712 60.847341 
L 210.02629 58.299553 
L 210.33158 58.067305 
L 210.942158 56.603821 
L 211.552737 54.553901 
L 211.858026 54.019707 
L 212.163315 56.448965 
L 212.468604 60.283502 
L 212.773894 59.501207 
L 214.605629 52.252326 
L 215.216208 51.35832 
L 215.521497 51.655182 
L 216.437365 60.21233 
L 216.742654 60.236451 
L 217.353232 57.42769 
L 217.658522 56.963432 
L 218.2691 54.290139 
L 218.879679 52.218491 
L 219.184968 52.50958 
L 219.795546 56.578283 
L 220.100836 56.566125 
L 220.406125 55.289825 
L 221.016703 54.328932 
L 221.627282 49.591711 
L 221.932571 48.798968 
L 222.54315 46.022161 
L 222.848439 45.790963 
L 223.764307 55.932576 
L 224.069596 55.127597 
L 224.985464 51.84839 
L 225.290753 51.316087 
L 225.596042 50.505411 
L 226.206621 49.898446 
L 226.51191 49.196943 
L 226.817199 50.901482 
L 227.122488 55.735234 
L 227.427778 57.419381 
L 227.733067 56.715196 
L 228.343645 54.20604 
L 228.648935 53.648209 
L 228.954224 53.767083 
L 229.259513 54.03467 
L 229.870092 54.282485 
L 230.175381 54.679031 
L 230.48067 57.39487 
L 230.785959 61.462857 
L 231.091249 62.536276 
L 231.701827 60.198846 
L 232.312405 57.527579 
L 232.617695 57.409251 
L 232.922984 57.619935 
L 233.228273 57.589962 
L 233.533562 56.988635 
L 233.838852 57.145019 
L 234.44943 65.017341 
L 234.754719 66.06975 
L 235.365298 63.05943 
L 236.281166 57.78662 
L 236.586455 56.659356 
L 237.502323 56.078107 
L 238.112901 64.322784 
L 238.41819 65.011199 
L 238.72348 63.865443 
L 239.028769 62.21353 
L 239.334058 61.23047 
L 239.944637 57.759997 
L 240.249926 57.122955 
L 240.860504 56.542921 
L 241.165794 55.949107 
L 241.471083 56.551693 
L 241.776372 58.867296 
L 242.081661 59.312966 
L 242.997529 55.201751 
L 243.608108 54.124124 
L 243.913397 52.676925 
L 244.218686 51.860644 
L 244.523975 51.440262 
L 244.829265 52.229437 
L 245.439843 60.397907 
L 245.745132 61.058184 
L 246.050422 59.872548 
L 246.661 55.892403 
L 246.966289 55.537477 
L 247.271579 54.924228 
L 247.576868 54.000462 
L 247.882157 53.783323 
L 248.187446 53.159908 
L 248.492736 53.234114 
L 248.798025 55.435676 
L 249.103314 59.278371 
L 249.408603 59.945672 
L 249.713893 59.198572 
L 250.019182 58.861454 
L 250.324471 58.243385 
L 250.62976 58.027788 
L 251.240339 58.64026 
L 251.545628 58.607714 
L 251.850917 58.834186 
L 252.156207 59.660819 
L 252.461496 62.990566 
L 252.766785 67.691058 
L 253.072074 68.71635 
L 253.682653 66.74436 
L 254.90381 58.575261 
L 255.209099 56.686065 
L 255.514388 56.244881 
L 255.819678 56.742336 
L 256.430256 61.445816 
L 256.735545 61.17146 
L 257.040835 59.625637 
L 257.346124 58.667837 
L 258.261992 54.031065 
L 258.567281 53.945087 
L 258.87257 53.584244 
L 259.177859 52.731035 
L 259.483149 53.710899 
L 260.093727 59.122131 
L 260.399016 59.026922 
L 261.009595 55.608877 
L 261.925462 52.025676 
L 262.230752 51.459374 
L 262.84133 49.630873 
L 263.146619 50.022456 
L 263.757198 59.734447 
L 264.062487 61.351706 
L 264.367776 61.743259 
L 265.894223 57.476665 
L 266.199512 57.245033 
L 266.81009 55.571511 
L 267.11538 57.730424 
L 267.420669 62.394468 
L 267.725958 63.284559 
L 268.336537 60.522026 
L 268.641826 58.98336 
L 269.252404 56.789054 
L 269.557694 56.510416 
L 269.862983 55.773568 
L 270.168272 54.676515 
L 270.473561 55.161266 
L 271.08414 61.076776 
L 271.389429 61.890527 
L 271.694718 60.510898 
L 272.610586 58.410094 
L 272.915875 57.119362 
L 273.221165 56.614293 
L 273.526454 56.612007 
L 273.831743 56.113074 
L 274.137032 55.831152 
L 274.442322 58.214661 
L 274.747611 62.32503 
L 275.0529 64.346532 
L 275.663479 61.535531 
L 276.274057 56.677006 
L 276.579346 56.00836 
L 276.884636 56.189417 
L 277.495214 56.163737 
L 277.800503 57.242347 
L 278.411082 65.445788 
L 278.716371 65.924257 
L 279.32695 62.657287 
L 280.242817 57.371117 
L 280.853396 54.569225 
L 281.158685 53.028953 
L 281.463974 54.22668 
L 282.074553 64.96434 
L 282.379842 66.408721 
L 283.29571 62.193809 
L 283.906288 61.332093 
L 284.516867 57.938608 
L 284.822156 57.458521 
L 285.127445 58.405212 
L 286.043313 67.154548 
L 287.26447 63.41524 
L 288.180338 57.992531 
L 288.485627 57.201985 
L 288.790916 58.03727 
L 289.706784 70.373901 
L 290.012073 70.262777 
L 290.317362 69.324585 
L 290.927941 66.139511 
L 291.23323 65.155266 
L 291.843809 65.057846 
L 292.149098 64.365197 
L 292.454387 64.515647 
L 292.759676 66.711297 
L 293.064966 71.475159 
L 293.370255 73.898969 
L 293.980833 73.861136 
L 294.286123 73.325532 
L 294.896701 70.802953 
L 295.20199 70.300259 
L 295.812569 68.936781 
L 296.117858 69.898226 
L 296.423147 74.716491 
L 296.728437 81.876751 
L 297.033726 84.367507 
L 298.254883 79.225362 
L 299.170751 77.356572 
L 299.47604 77.034126 
L 299.781329 78.109469 
L 300.391908 89.288823 
L 300.697197 90.711788 
L 301.918354 83.279361 
L 302.223643 82.807501 
L 302.528932 82.750727 
L 302.834222 82.43449 
L 303.139511 81.731191 
L 303.4448 81.996165 
L 303.750089 85.428766 
L 304.055379 91.721743 
L 304.360668 94.00953 
L 304.665957 92.796958 
L 305.276536 91.436654 
L 305.887114 87.912497 
L 306.192403 87.59525 
L 306.802982 87.937041 
L 307.108271 89.633068 
L 308.024139 105.88686 
L 308.940007 103.385948 
L 309.550585 100.888403 
L 309.855874 99.881967 
L 310.161164 99.359479 
L 310.466453 98.600047 
L 310.771742 100.021426 
L 311.68761 115.743746 
L 312.298188 114.044595 
L 312.603478 112.974466 
L 312.908767 112.493455 
L 313.519345 110.037805 
L 313.824635 108.564393 
L 314.129924 107.877278 
L 314.435213 109.875612 
L 315.351081 131.489561 
L 315.65637 130.177206 
L 315.961659 128.265536 
L 316.572238 126.15153 
L 316.877527 124.463101 
L 317.182816 123.746613 
L 317.488106 123.627082 
L 317.793395 123.201946 
L 318.098684 123.272457 
L 318.709262 131.220732 
L 319.014552 131.383793 
L 319.319841 129.271502 
L 319.930419 127.124131 
L 320.235709 126.436095 
L 320.540998 125.44688 
L 320.846287 124.96895 
L 321.456866 123.273385 
L 321.762155 124.024504 
L 322.067444 128.412264 
L 322.372733 134.498061 
L 322.678023 136.131596 
L 323.89918 130.284772 
L 324.509758 128.846055 
L 325.120337 127.509555 
L 325.425626 127.926923 
L 325.730915 133.150242 
L 326.036204 140.305625 
L 326.341494 141.162951 
L 326.952072 136.902922 
L 327.86794 134.358383 
L 328.173229 133.897129 
L 328.783808 131.783857 
L 329.089097 132.686563 
L 330.004965 149.52044 
L 330.310254 148.133689 
L 330.615543 144.956113 
L 330.920832 143.026269 
L 331.8367 139.30948 
L 332.141989 138.988834 
L 332.447279 138.174046 
L 332.752568 138.551009 
L 333.363146 146.056202 
L 333.668436 146.363328 
L 334.279014 142.408458 
L 334.584303 141.674854 
L 334.889593 141.254829 
L 335.500171 138.450359 
L 335.80546 138.125799 
L 336.11075 137.461076 
L 336.416039 137.172021 
L 336.721328 139.240921 
L 337.026617 142.832848 
L 337.331907 144.623948 
L 338.858353 140.37959 
L 339.163642 140.157476 
L 339.774221 137.551912 
L 340.07951 139.521182 
L 340.384799 145.661564 
L 340.690088 154.284728 
L 340.995378 157.992405 
L 341.300667 157.196915 
L 341.911245 154.659795 
L 342.216535 154.281387 
L 342.521824 153.723714 
L 342.827113 153.473308 
L 343.437692 151.911516 
L 343.742981 152.497479 
L 344.04827 155.690314 
L 344.353559 161.238529 
L 344.658849 162.524111 
L 344.964138 161.594356 
L 345.574716 158.673584 
L 347.101162 154.194847 
L 347.406452 154.825559 
L 347.711741 158.180709 
L 348.01703 163.036491 
L 348.322319 165.915948 
L 348.932898 164.22481 
L 349.543476 161.879392 
L 349.543476 161.879392 
" clip-path="url(#p93cca79752)" style="fill: none; stroke: #fb9a99; stroke-opacity: 0.5; stroke-width: 1.5; stroke-linecap: square"/>
   </g>
   <g id="line2d_19">
    <path d="M 86.078856 38.359593 
L 87.910592 41.477053 
L 88.826459 42.329983 
L 89.742327 43.012126 
L 91.268773 44.853732 
L 91.574062 45.074383 
L 93.405798 48.312668 
L 94.626955 49.786977 
L 95.542823 50.781335 
L 97.069269 51.971738 
L 98.290426 52.359689 
L 100.427451 52.548633 
L 101.038029 52.440366 
L 102.564475 51.665255 
L 103.785632 51.068492 
L 105.006789 50.512351 
L 105.617368 50.245361 
L 107.143814 49.382513 
L 108.059682 49.137269 
L 109.586128 49.643283 
L 111.723153 50.338378 
L 115.386624 53.673052 
L 116.302492 54.565772 
L 117.218359 55.417453 
L 118.134227 56.24886 
L 119.660673 57.300714 
L 121.797698 58.573126 
L 122.713566 59.144613 
L 124.240012 59.700826 
L 127.903483 61.67366 
L 130.345797 63.398393 
L 132.482822 63.904787 
L 133.703979 63.756413 
L 136.451582 62.3992 
L 139.809764 60.326271 
L 140.725631 60.202299 
L 141.641499 60.39092 
L 143.778524 61.148295 
L 144.694392 61.771388 
L 145.915549 62.926962 
L 146.831416 63.785051 
L 151.105466 68.85016 
L 152.021333 69.602641 
L 153.853069 70.576731 
L 156.905961 71.945279 
L 161.180011 73.616379 
L 162.401168 73.592272 
L 163.011746 73.462238 
L 163.622325 73.070389 
L 166.064639 71.146613 
L 170.643978 67.341485 
L 172.781002 65.265609 
L 174.002159 64.399616 
L 174.918027 64.134846 
L 176.444473 63.854688 
L 179.192076 62.640382 
L 180.413233 61.778079 
L 181.93968 60.791275 
L 185.297861 58.434204 
L 189.266622 56.308786 
L 190.182489 56.328491 
L 191.098357 56.280362 
L 192.624803 56.018931 
L 193.84596 55.904398 
L 195.677696 56.149222 
L 196.898853 56.58519 
L 198.425299 57.296238 
L 199.646456 58.029801 
L 203.004638 60.404172 
L 203.615216 60.706206 
L 204.836373 60.872257 
L 206.05753 60.885645 
L 206.973398 60.743752 
L 207.889266 60.418268 
L 208.805133 59.952414 
L 211.552737 58.173016 
L 213.689761 56.790112 
L 214.910918 56.097073 
L 216.742654 55.09583 
L 218.2691 54.008394 
L 220.100836 53.506187 
L 221.932571 53.124999 
L 224.069596 52.620364 
L 224.985464 52.76225 
L 225.596042 52.98569 
L 227.733067 54.203266 
L 228.954224 55.428344 
L 229.870092 56.298509 
L 231.091249 57.173712 
L 232.617695 58.12997 
L 233.838852 58.967285 
L 234.754719 59.431866 
L 235.975876 59.691064 
L 236.586455 59.595544 
L 238.72348 58.890605 
L 240.555215 58.037195 
L 242.386951 57.355824 
L 243.608108 56.997946 
L 245.134554 56.411392 
L 245.745132 56.392194 
L 246.966289 56.65025 
L 247.576868 57.074212 
L 249.408603 58.571883 
L 250.62976 59.128585 
L 251.240339 59.243607 
L 255.514388 59.207135 
L 256.430256 58.858691 
L 257.346124 58.256843 
L 258.87257 57.079906 
L 260.093727 56.519197 
L 260.704306 56.422512 
L 263.451909 56.632512 
L 265.588933 57.057008 
L 266.504801 57.284455 
L 268.031247 57.970715 
L 269.252404 58.577397 
L 270.473561 58.788216 
L 272.915875 58.696968 
L 274.442322 59.028813 
L 275.663479 59.021652 
L 276.579346 58.989329 
L 279.32695 59.859875 
L 280.242817 60.066088 
L 281.769264 60.557537 
L 282.685131 60.992098 
L 284.516867 61.321763 
L 285.738024 62.063471 
L 286.653892 62.817493 
L 287.569759 63.615746 
L 288.485627 64.254965 
L 291.23323 67.022501 
L 293.980833 71.296919 
L 297.033726 76.584098 
L 301.307775 83.657647 
L 302.834222 86.50187 
L 306.497693 94.050015 
L 308.940007 100.137596 
L 309.550585 101.813553 
L 313.519345 114.490179 
L 316.266949 120.624757 
L 317.488106 123.081089 
L 320.235709 127.794985 
L 320.846287 128.566495 
L 324.509758 131.88447 
L 326.036204 134.249563 
L 328.173229 136.993864 
L 331.226122 139.745957 
L 331.8367 139.985343 
L 332.752568 140.381687 
L 335.500171 141.979682 
L 336.416039 142.772811 
L 337.637196 144.204678 
L 339.468931 146.602786 
L 343.132402 152.566583 
L 344.658849 155.324185 
L 345.269427 156.277739 
L 346.185295 157.814358 
L 346.490584 157.936069 
L 347.406452 158.037811 
L 348.322319 158.535574 
L 348.932898 159.054714 
L 349.543476 159.775789 
L 349.543476 159.775789 
" clip-path="url(#p93cca79752)" style="fill: none; stroke: #a6cee3; stroke-width: 1.5; stroke-linecap: square"/>
   </g>
   <g id="patch_3">
    <path d="M 72.905625 186.84327 
L 72.905625 10.999219 
" style="fill: none; stroke: #000000; stroke-width: 0.8; stroke-linejoin: miter; stroke-linecap: square"/>
   </g>
   <g id="patch_4">
    <path d="M 362.716708 186.84327 
L 362.716708 10.999219 
" style="fill: none; stroke: #000000; stroke-width: 0.8; stroke-linejoin: miter; stroke-linecap: square"/>
   </g>
   <g id="patch_5">
    <path d="M 72.905625 186.84327 
L 362.716708 186.84327 
" style="fill: none; stroke: #000000; stroke-width: 0.8; stroke-linejoin: miter; stroke-linecap: square"/>
   </g>
   <g id="patch_6">
    <path d="M 72.905625 10.999219 
L 362.716708 10.999219 
" style="fill: none; stroke: #000000; stroke-width: 0.8; stroke-linejoin: miter; stroke-linecap: square"/>
   </g>
   <g id="legend_1">
    <g id="patch_7">
     <path d="M 369.716708 115.099369 
L 503.19952 115.099369 
Q 505.19952 115.099369 505.19952 113.099369 
L 505.19952 84.743119 
Q 505.19952 82.743119 503.19952 82.743119 
L 369.716708 82.743119 
Q 367.716708 82.743119 367.716708 84.743119 
L 367.716708 113.099369 
Q 367.716708 115.099369 369.716708 115.099369 
z
" style="fill: #ffffff; opacity: 0.8; stroke: #cccccc; stroke-linejoin: miter"/>
    </g>
    <g id="line2d_20">
     <path d="M 371.716708 90.841557 
L 381.716708 90.841557 
L 391.716708 90.841557 
" style="fill: none; stroke: #fb9a99; stroke-opacity: 0.5; stroke-width: 1.5; stroke-linecap: square"/>
    </g>
    <g id="text_20">
     <!-- Monthly -->
     <g transform="translate(399.716708 94.341557) scale(0.1 -0.1)">
      <defs>
       <path id="DejaVuSans-68" d="M 3513 2113 
L 3513 0 
L 2938 0 
L 2938 2094 
Q 2938 2591 2744 2837 
Q 2550 3084 2163 3084 
Q 1697 3084 1428 2787 
Q 1159 2491 1159 1978 
L 1159 0 
L 581 0 
L 581 4863 
L 1159 4863 
L 1159 2956 
Q 1366 3272 1645 3428 
Q 1925 3584 2291 3584 
Q 2894 3584 3203 3211 
Q 3513 2838 3513 2113 
z
" transform="scale(0.015625)"/>
      </defs>
      <use xlink:href="#DejaVuSans-4d"/>
      <use xlink:href="#DejaVuSans-6f" x="86.279297"/>
      <use xlink:href="#DejaVuSans-6e" x="147.460938"/>
      <use xlink:href="#DejaVuSans-74" x="210.839844"/>
      <use xlink:href="#DejaVuSans-68" x="250.048828"/>
      <use xlink:href="#DejaVuSans-6c" x="313.427734"/>
      <use xlink:href="#DejaVuSans-79" x="341.210938"/>
     </g>
    </g>
    <g id="line2d_21">
     <path d="M 371.716708 105.519682 
L 381.716708 105.519682 
L 391.716708 105.519682 
" style="fill: none; stroke: #a6cee3; stroke-width: 1.5; stroke-linecap: square"/>
    </g>
    <g id="text_21">
     <!-- 36 month smoothed -->
     <g transform="translate(399.716708 109.019682) scale(0.1 -0.1)">
      <defs>
       <path id="DejaVuSans-73" d="M 2834 3397 
L 2834 2853 
Q 2591 2978 2328 3040 
Q 2066 3103 1784 3103 
Q 1356 3103 1142 2972 
Q 928 2841 928 2578 
Q 928 2378 1081 2264 
Q 1234 2150 1697 2047 
L 1894 2003 
Q 2506 1872 2764 1633 
Q 3022 1394 3022 966 
Q 3022 478 2636 193 
Q 2250 -91 1575 -91 
Q 1294 -91 989 -36 
Q 684 19 347 128 
L 347 722 
Q 666 556 975 473 
Q 1284 391 1588 391 
Q 1994 391 2212 530 
Q 2431 669 2431 922 
Q 2431 1156 2273 1281 
Q 2116 1406 1581 1522 
L 1381 1569 
Q 847 1681 609 1914 
Q 372 2147 372 2553 
Q 372 3047 722 3315 
Q 1072 3584 1716 3584 
Q 2034 3584 2315 3537 
Q 2597 3491 2834 3397 
z
" transform="scale(0.015625)"/>
       <path id="DejaVuSans-64" d="M 2906 2969 
L 2906 4863 
L 3481 4863 
L 3481 0 
L 2906 0 
L 2906 525 
Q 2725 213 2448 61 
Q 2172 -91 1784 -91 
Q 1150 -91 751 415 
Q 353 922 353 1747 
Q 353 2572 751 3078 
Q 1150 3584 1784 3584 
Q 2172 3584 2448 3432 
Q 2725 3281 2906 2969 
z
M 947 1747 
Q 947 1113 1208 752 
Q 1469 391 1925 391 
Q 2381 391 2643 752 
Q 2906 1113 2906 1747 
Q 2906 2381 2643 2742 
Q 2381 3103 1925 3103 
Q 1469 3103 1208 2742 
Q 947 2381 947 1747 
z
" transform="scale(0.015625)"/>
      </defs>
      <use xlink:href="#DejaVuSans-33"/>
      <use xlink:href="#DejaVuSans-36" x="63.623047"/>
      <use xlink:href="#DejaVuSans-20" x="127.246094"/>
      <use xlink:href="#DejaVuSans-6d" x="159.033203"/>
      <use xlink:href="#DejaVuSans-6f" x="256.445312"/>
      <use xlink:href="#DejaVuSans-6e" x="317.626953"/>
      <use xlink:href="#DejaVuSans-74" x="381.005859"/>
      <use xlink:href="#DejaVuSans-68" x="420.214844"/>
      <use xlink:href="#DejaVuSans-20" x="483.59375"/>
      <use xlink:href="#DejaVuSans-73" x="515.380859"/>
      <use xlink:href="#DejaVuSans-6d" x="567.480469"/>
      <use xlink:href="#DejaVuSans-6f" x="664.892578"/>
      <use xlink:href="#DejaVuSans-6f" x="726.074219"/>
      <use xlink:href="#DejaVuSans-74" x="787.255859"/>
      <use xlink:href="#DejaVuSans-68" x="826.464844"/>
      <use xlink:href="#DejaVuSans-65" x="889.84375"/>
      <use xlink:href="#DejaVuSans-64" x="951.367188"/>
     </g>
    </g>
   </g>
  </g>
 </g>
 <defs>
  <clipPath id="p93cca79752">
   <rect x="72.905625" y="10.999219" width="289.811083" height="175.844051"/>
  </clipPath>
 </defs>
</svg>
