<?xml version="1.0" encoding="utf-8" standalone="no"?>
<!DOCTYPE svg PUBLIC "-//W3C//DTD SVG 1.1//EN"
  "http://www.w3.org/Graphics/SVG/1.1/DTD/svg11.dtd">
<svg xmlns:xlink="http://www.w3.org/1999/xlink" width="512.39952pt" height="224.39952pt" viewBox="0 0 512.39952 224.39952" xmlns="http://www.w3.org/2000/svg" version="1.1">
 <metadata>
  <rdf:RDF xmlns:dc="http://purl.org/dc/elements/1.1/" xmlns:cc="http://creativecommons.org/ns#" xmlns:rdf="http://www.w3.org/1999/02/22-rdf-syntax-ns#">
   <cc:Work>
    <dc:type rdf:resource="http://purl.org/dc/dcmitype/StillImage"/>
    <dc:date>2023-01-25T15:12:26.015037</dc:date>
    <dc:format>image/svg+xml</dc:format>
    <dc:creator>
     <cc:Agent>
      <dc:title>Matplotlib v3.6.2, https://matplotlib.org/</dc:title>
     </cc:Agent>
    </dc:creator>
   </cc:Work>
  </rdf:RDF>
 </metadata>
 <defs>
  <style type="text/css">*{stroke-linejoin: round; stroke-linecap: butt}</style>
 </defs>
 <g id="figure_1">
  <g id="patch_1">
   <path d="M 0 224.39952 
L 512.39952 224.39952 
L 512.39952 0 
L 0 0 
z
" style="fill: #ffffff"/>
  </g>
  <g id="axes_1">
   <g id="patch_2">
    <path d="M 55.345313 186.84327 
L 505.19952 186.84327 
L 505.19952 10.999219 
L 55.345313 10.999219 
z
" style="fill: #ffffff"/>
   </g>
   <g id="PolyCollection_1">
    <path d="M 75.793231 40.151739 
L 75.793231 45.73495 
L 76.267111 63.123225 
L 76.740991 60.970172 
L 77.214871 63.825856 
L 77.688751 62.648846 
L 78.162631 103.622766 
L 78.636511 146.824557 
L 79.11039 97.866091 
L 79.58427 67.040409 
L 80.05815 58.173042 
L 80.53203 47.644955 
L 81.00591 56.788198 
L 81.47979 64.293379 
L 81.95367 59.843983 
L 82.42755 63.948319 
L 82.90143 65.241195 
L 83.37531 59.070935 
L 83.84919 111.635115 
L 84.32307 125.950539 
L 84.796949 96.374689 
L 85.270829 67.632105 
L 85.744709 62.395289 
L 86.218589 61.343543 
L 86.692469 64.698755 
L 87.166349 59.287988 
L 87.640229 61.031216 
L 88.114109 65.011874 
L 88.587989 64.345501 
L 89.061869 62.849414 
L 89.535749 89.118163 
L 90.009629 107.527776 
L 90.483509 108.751107 
L 90.957388 52.606068 
L 91.431268 48.644272 
L 91.905148 56.106755 
L 92.379028 62.010486 
L 92.852908 53.621273 
L 93.326788 54.879764 
L 93.800668 58.561456 
L 94.274548 65.732634 
L 94.748428 62.929137 
L 95.222308 75.23681 
L 95.696188 124.913543 
L 96.170068 90.563761 
L 96.643947 58.977206 
L 97.117827 60.778122 
L 97.591707 51.859456 
L 98.065587 51.587971 
L 98.539467 55.457619 
L 99.013347 49.189103 
L 99.487227 61.397983 
L 99.961107 52.373043 
L 100.434987 64.502595 
L 100.908867 77.115942 
L 101.382747 99.999142 
L 101.856627 84.957227 
L 102.330507 68.422207 
L 102.804386 49.916537 
L 103.278266 48.540127 
L 103.752146 59.596144 
L 104.226026 62.261999 
L 104.699906 63.685292 
L 105.173786 50.804916 
L 105.647666 59.906973 
L 106.121546 62.67638 
L 106.595426 85.179047 
L 107.069306 79.613026 
L 107.543186 77.311224 
L 108.017066 55.284511 
L 108.490945 56.118328 
L 108.964825 55.574326 
L 109.438705 65.12747 
L 109.912585 59.132519 
L 110.386465 48.315313 
L 110.860345 51.246817 
L 111.334225 62.981431 
L 111.808105 64.226164 
L 112.281985 88.437006 
L 112.755865 124.115062 
L 113.229745 90.248551 
L 113.703625 58.86386 
L 114.177504 43.766328 
L 114.651384 45.725597 
L 115.125264 51.111154 
L 115.599144 55.714454 
L 116.073024 71.948521 
L 116.546904 69.195311 
L 117.020784 63.843223 
L 117.494664 61.52275 
L 117.968544 102.329822 
L 118.442424 149.560932 
L 118.916304 101.119712 
L 119.390184 63.337401 
L 119.864064 49.440655 
L 120.337943 55.405357 
L 120.811823 62.125068 
L 121.285703 61.403799 
L 121.759583 61.228529 
L 122.233463 53.633549 
L 122.707343 54.804021 
L 123.181223 67.202363 
L 123.655103 91.749417 
L 124.128983 134.154083 
L 124.602863 84.94121 
L 125.076743 47.335559 
L 125.550623 51.476702 
L 126.024502 52.455786 
L 126.498382 55.388187 
L 126.972262 62.112528 
L 127.446142 53.828063 
L 127.920022 55.555226 
L 128.393902 66.620345 
L 128.867782 68.392999 
L 129.341662 97.060698 
L 129.815542 124.053721 
L 130.289422 75.411077 
L 130.763302 44.5215 
L 131.237182 40.949234 
L 131.711062 60.549926 
L 132.184941 54.596362 
L 132.658821 51.509619 
L 133.132701 57.323123 
L 133.606581 48.795375 
L 134.080461 63.325677 
L 134.554341 62.355857 
L 135.028221 96.422196 
L 135.502101 142.853632 
L 135.975981 108.54167 
L 136.449861 53.99815 
L 136.923741 50.26328 
L 137.397621 54.53714 
L 137.8715 57.248954 
L 138.34538 52.573256 
L 138.81926 60.435724 
L 139.29314 62.842805 
L 139.76702 63.681932 
L 140.2409 56.340346 
L 140.71478 83.995943 
L 141.18866 104.102837 
L 141.66254 78.665674 
L 142.13642 55.433681 
L 142.6103 49.180761 
L 143.08418 56.459357 
L 143.558059 62.234102 
L 144.031939 58.72794 
L 144.505819 56.443633 
L 144.979699 65.283571 
L 145.453579 58.832581 
L 145.927459 66.315855 
L 146.401339 88.083669 
L 146.875219 119.856905 
L 147.349099 77.576615 
L 147.822979 58.289517 
L 148.296859 56.141774 
L 148.770739 51.404574 
L 149.244619 53.8646 
L 149.718498 52.395821 
L 150.192378 57.718313 
L 150.666258 55.918235 
L 151.140138 61.478615 
L 151.614018 62.032171 
L 152.087898 76.347697 
L 152.561778 105.295437 
L 153.035658 85.785204 
L 153.509538 54.497534 
L 153.983418 56.20271 
L 154.457298 58.846079 
L 154.931178 55.248543 
L 155.405057 47.545863 
L 155.878937 45.775068 
L 156.352817 42.120365 
L 156.826697 62.993895 
L 157.300577 64.189329 
L 157.774457 72.078234 
L 158.248337 69.347151 
L 158.722217 77.878005 
L 159.196097 60.90446 
L 159.669977 47.116473 
L 160.143857 59.277985 
L 160.617737 59.610449 
L 161.091617 48.924316 
L 161.565496 46.483757 
L 162.039376 63.795638 
L 162.513256 61.637161 
L 162.987136 70.948865 
L 163.461016 78.870198 
L 163.934896 109.664542 
L 164.408776 90.875615 
L 164.882656 57.968297 
L 165.356536 53.58076 
L 165.830416 58.772078 
L 166.304296 66.380071 
L 166.778176 66.727894 
L 167.252055 68.743249 
L 167.725935 64.610408 
L 168.199815 66.006144 
L 168.673695 74.903385 
L 169.147575 93.560807 
L 169.621455 120.834644 
L 170.095335 96.335202 
L 170.569215 51.869539 
L 171.043095 50.143836 
L 171.516975 56.695492 
L 171.990855 59.274065 
L 172.464735 49.971511 
L 172.938615 57.929644 
L 173.412494 67.56315 
L 173.886374 58.055019 
L 174.360254 67.2328 
L 174.834134 79.937181 
L 175.308014 111.783375 
L 175.781894 72.242133 
L 176.255774 35.933296 
L 176.729654 61.489828 
L 177.203534 55.821291 
L 177.677414 63.106675 
L 178.151294 64.607216 
L 178.625174 58.749292 
L 179.099053 56.961435 
L 179.572933 55.551392 
L 180.046813 71.272889 
L 180.520693 98.477786 
L 180.994573 122.581088 
L 181.468453 80.480824 
L 181.942333 53.08006 
L 182.416213 58.620646 
L 182.890093 57.519805 
L 183.363973 60.804255 
L 183.837853 63.059773 
L 184.311733 56.924963 
L 184.785612 60.868993 
L 185.259492 62.498179 
L 185.733372 59.904367 
L 186.207252 80.84256 
L 186.681132 100.363056 
L 187.155012 85.384417 
L 187.628892 58.202127 
L 188.102772 59.045088 
L 188.576652 41.863366 
L 189.050532 50.176146 
L 189.524412 56.51783 
L 189.998292 61.734332 
L 190.472172 62.853103 
L 190.946051 62.409646 
L 191.419931 62.286861 
L 191.893811 74.868162 
L 192.367691 102.426876 
L 192.841571 69.154777 
L 193.315451 52.277325 
L 193.789331 49.075627 
L 194.263211 56.598576 
L 194.737091 50.291016 
L 195.210971 64.551566 
L 195.684851 62.959881 
L 196.158731 67.940637 
L 196.63261 64.717166 
L 197.10649 65.481454 
L 197.58037 95.950145 
L 198.05425 122.136816 
L 198.52813 73.433926 
L 199.00201 56.282717 
L 199.47589 60.565343 
L 199.94977 53.510742 
L 200.42365 53.513488 
L 200.89753 32.440682 
L 201.37141 55.607238 
L 201.84529 52.732054 
L 202.31917 58.549747 
L 202.793049 55.45147 
L 203.266929 65.457354 
L 203.740809 72.776974 
L 204.214689 61.663976 
L 204.688569 50.654877 
L 205.162449 50.031216 
L 205.636329 59.849637 
L 206.110209 57.848806 
L 206.584089 55.500047 
L 207.057969 65.442184 
L 207.531849 60.965072 
L 208.005729 56.515647 
L 208.479608 64.199662 
L 208.953488 76.147003 
L 209.427368 92.461172 
L 209.901248 72.185002 
L 210.375128 48.733361 
L 210.849008 60.971687 
L 211.322888 64.116828 
L 211.796768 60.037686 
L 212.270648 59.304592 
L 212.744528 60.101651 
L 213.218408 53.255334 
L 213.692288 59.103392 
L 214.166167 67.669343 
L 214.640047 74.981122 
L 215.113927 109.240739 
L 215.587807 88.051412 
L 216.061687 57.425272 
L 216.535567 44.411287 
L 217.009447 55.337875 
L 217.483327 68.907148 
L 217.957207 65.351481 
L 218.431087 51.262384 
L 218.904967 53.639232 
L 219.378847 56.250833 
L 219.852727 63.14094 
L 220.326606 78.50602 
L 220.800486 92.411661 
L 221.274366 76.239439 
L 221.748246 58.73523 
L 222.222126 55.988311 
L 222.696006 53.922944 
L 223.169886 56.090704 
L 223.643766 59.150843 
L 224.117646 51.682782 
L 224.591526 50.033477 
L 225.065406 60.442433 
L 225.539286 67.349807 
L 226.013165 79.231895 
L 226.487045 91.839731 
L 226.960925 56.435931 
L 227.434805 45.487815 
L 227.908685 46.374659 
L 228.382565 55.701452 
L 228.856445 55.837587 
L 229.330325 62.714103 
L 229.804205 62.197118 
L 230.278085 62.464973 
L 230.751965 61.022743 
L 231.225845 59.213005 
L 231.699725 76.708056 
L 232.173604 116.140891 
L 232.647484 82.827996 
L 233.121364 52.506271 
L 233.595244 58.649084 
L 234.069124 49.517537 
L 234.543004 48.206476 
L 235.016884 60.160849 
L 235.490764 66.924168 
L 235.964644 62.429138 
L 236.438524 56.280172 
L 236.912404 60.299783 
L 237.386284 69.721683 
L 237.860163 114.506353 
L 238.334043 81.699933 
L 238.807923 57.801512 
L 239.281803 49.004755 
L 239.755683 58.927156 
L 240.229563 52.467437 
L 240.703443 58.321562 
L 241.177323 59.752039 
L 241.651203 55.158482 
L 242.125083 64.274205 
L 242.598963 64.947552 
L 243.072843 72.128785 
L 243.546722 104.208894 
L 244.020602 80.800286 
L 244.494482 61.107557 
L 244.968362 53.501279 
L 245.442242 58.867473 
L 245.916122 52.275892 
L 246.390002 49.273585 
L 246.863882 54.986264 
L 247.337762 53.598572 
L 247.811642 57.484578 
L 248.285522 65.026263 
L 248.759402 89.326939 
L 249.233282 104.114561 
L 249.707161 77.893723 
L 250.181041 60.416643 
L 250.654921 58.296257 
L 251.128801 51.991168 
L 251.602681 60.787136 
L 252.076561 61.675886 
L 252.550441 63.756066 
L 253.024321 61.501278 
L 253.498201 52.527615 
L 253.972081 68.735485 
L 254.445961 97.063422 
L 254.919841 105.887314 
L 255.39372 72.504564 
L 255.8676 57.584988 
L 256.34148 54.328582 
L 256.81536 57.967323 
L 257.28924 61.177154 
L 257.76312 58.240794 
L 258.237 52.985419 
L 258.71088 56.08418 
L 259.18476 61.533953 
L 259.65864 75.523724 
L 260.13252 94.912594 
L 260.6064 97.780154 
L 261.08028 71.892682 
L 261.554159 58.399791 
L 262.028039 57.517569 
L 262.501919 58.168576 
L 262.975799 55.471642 
L 263.449679 54.645564 
L 263.923559 52.635878 
L 264.397439 57.518195 
L 264.871319 56.685105 
L 265.345199 65.743768 
L 265.819079 75.47941 
L 266.292959 77.577452 
L 266.766839 58.597448 
L 267.240718 56.800953 
L 267.714598 51.918272 
L 268.188478 50.832315 
L 268.662358 61.289561 
L 269.136238 58.168957 
L 269.610118 55.331231 
L 270.083998 55.190733 
L 270.557878 54.346869 
L 271.031758 58.622929 
L 271.505638 88.549747 
L 271.979518 106.191645 
L 272.453398 57.361022 
L 272.927277 51.848481 
L 273.401157 56.310367 
L 273.875037 52.465943 
L 274.348917 46.915646 
L 274.822797 51.146972 
L 275.296677 57.218599 
L 275.770557 58.680444 
L 276.244437 60.162245 
L 276.718317 66.846348 
L 277.192197 94.083954 
L 277.666077 105.166028 
L 278.139957 80.563873 
L 278.613837 63.892394 
L 279.087716 49.774732 
L 279.561596 53.538258 
L 280.035476 59.318372 
L 280.509356 50.524766 
L 280.983236 53.132329 
L 281.457116 53.817139 
L 281.930996 54.318579 
L 282.404876 66.77027 
L 282.878756 81.245446 
L 283.352636 87.999148 
L 283.826516 64.379064 
L 284.300396 52.290007 
L 284.774275 59.284342 
L 285.248155 58.875866 
L 285.722035 42.758995 
L 286.195915 42.513398 
L 286.669795 56.322296 
L 287.143675 52.770343 
L 287.617555 51.418378 
L 288.091435 62.214094 
L 288.565315 97.002178 
L 289.039195 112.097237 
L 289.513075 91.077683 
L 289.986955 56.597395 
L 290.460835 53.269183 
L 290.934714 49.733249 
L 291.408594 57.885437 
L 291.882474 58.474098 
L 292.356354 56.519925 
L 292.830234 61.743788 
L 293.304114 60.554165 
L 293.777994 58.046892 
L 294.251874 81.310592 
L 294.725754 113.162907 
L 295.199634 81.402711 
L 295.673514 58.079471 
L 296.147394 53.496087 
L 296.621273 51.909145 
L 297.095153 60.287321 
L 297.569033 64.623095 
L 298.042913 65.990732 
L 298.516793 64.334983 
L 298.990673 65.578347 
L 299.464553 68.455156 
L 299.938433 91.683782 
L 300.412313 107.043396 
L 300.886193 74.885105 
L 301.360073 52.552999 
L 301.833953 53.312634 
L 302.307833 49.546183 
L 302.781712 53.486541 
L 303.255592 62.442379 
L 303.729472 65.286845 
L 304.203352 63.121469 
L 304.677232 58.299992 
L 305.151112 65.121914 
L 305.624992 101.170626 
L 306.098872 109.638699 
L 306.572752 75.017739 
L 307.046632 49.953511 
L 307.520512 48.752737 
L 307.994392 46.156291 
L 308.468271 45.748512 
L 308.942151 49.436593 
L 309.416031 55.445152 
L 309.889911 62.635238 
L 310.363791 61.228399 
L 310.837671 63.044372 
L 311.311551 102.5188 
L 311.785431 110.889574 
L 312.259311 71.253208 
L 312.733191 53.569134 
L 313.207071 49.66095 
L 313.680951 55.044373 
L 314.15483 47.473189 
L 314.62871 51.290002 
L 315.10259 57.719991 
L 315.57647 60.522558 
L 316.05035 60.598186 
L 316.52423 59.328177 
L 316.99811 71.369497 
L 317.47199 87.498706 
L 317.94587 68.349023 
L 318.41975 49.966566 
L 318.89363 48.361038 
L 319.36751 57.361901 
L 319.84139 60.134481 
L 320.315269 57.577254 
L 320.789149 51.800002 
L 321.263029 56.528697 
L 321.736909 60.520138 
L 322.210789 71.374206 
L 322.684669 100.527353 
L 323.158549 115.352406 
L 323.632429 71.05457 
L 324.106309 52.834778 
L 324.580189 43.892857 
L 325.054069 48.575941 
L 325.527949 59.997148 
L 326.001828 57.922153 
L 326.475708 56.020167 
L 326.949588 61.857441 
L 327.423468 57.373121 
L 327.897348 65.062879 
L 328.371228 86.135612 
L 328.845108 105.877586 
L 329.318988 71.102931 
L 329.792868 56.244597 
L 330.266748 60.700837 
L 330.740628 58.613464 
L 331.214508 61.847153 
L 331.688388 66.959441 
L 332.162267 65.896559 
L 332.636147 64.131484 
L 333.110027 65.520997 
L 333.583907 72.003505 
L 334.057787 97.889643 
L 334.531667 111.466095 
L 335.005547 74.569764 
L 335.479427 54.286698 
L 335.953307 54.415219 
L 336.427187 45.307265 
L 336.901067 47.109567 
L 337.374947 45.337991 
L 337.848826 44.198063 
L 338.322706 48.219813 
L 338.796586 60.779986 
L 339.270466 68.680627 
L 339.744346 86.217961 
L 340.218226 89.292042 
L 340.692106 61.580071 
L 341.165986 50.850772 
L 341.639866 54.571567 
L 342.113746 49.072502 
L 342.587626 46.07769 
L 343.061506 51.301065 
L 343.535385 62.872054 
L 344.009265 60.001495 
L 344.483145 55.12673 
L 344.957025 73.21884 
L 345.430905 93.359679 
L 345.904785 89.994756 
L 346.378665 63.519462 
L 346.852545 47.891334 
L 347.326425 49.671333 
L 347.800305 52.355149 
L 348.274185 50.748724 
L 348.748065 58.20839 
L 349.221945 58.891825 
L 349.695824 55.969139 
L 350.169704 55.380964 
L 350.643584 67.995492 
L 351.117464 114.929055 
L 351.591344 114.077181 
L 352.065224 80.244546 
L 352.539104 67.483736 
L 353.012984 56.925213 
L 353.486864 52.778882 
L 353.960744 58.463203 
L 354.434624 56.521679 
L 354.908504 56.116742 
L 355.382383 62.278423 
L 355.856263 55.653299 
L 356.330143 56.027287 
L 356.804023 86.004574 
L 357.277903 111.148047 
L 357.751783 73.330158 
L 358.225663 52.909983 
L 358.699543 49.730788 
L 359.173423 51.434645 
L 359.647303 55.154451 
L 360.121183 53.384022 
L 360.595063 61.497556 
L 361.068943 56.579561 
L 361.542822 54.317077 
L 362.016702 68.152915 
L 362.490582 95.185934 
L 362.964462 94.630412 
L 363.438342 72.899958 
L 363.912222 51.483858 
L 364.386102 56.974 
L 364.859982 56.574267 
L 365.333862 59.194189 
L 365.807742 51.241484 
L 366.281622 59.185976 
L 366.755502 63.319904 
L 367.229381 59.329955 
L 367.703261 62.130577 
L 368.177141 88.059441 
L 368.651021 108.077546 
L 369.124901 85.78621 
L 369.598781 52.967896 
L 370.072661 49.856444 
L 370.546541 40.165403 
L 371.020421 44.948727 
L 371.494301 57.137096 
L 371.968181 65.542885 
L 372.442061 63.39183 
L 372.91594 63.853179 
L 373.38982 74.198457 
L 373.8637 103.917775 
L 374.33758 112.098872 
L 374.81146 69.176684 
L 375.28534 49.642961 
L 375.75922 46.612434 
L 376.2331 46.826493 
L 376.70698 44.716701 
L 377.18086 50.279485 
L 377.65474 54.562094 
L 378.12862 50.166204 
L 378.6025 50.55584 
L 379.076379 77.372781 
L 379.550259 118.741251 
L 380.024139 118.6859 
L 380.498019 79.433775 
L 380.971899 48.619782 
L 381.445779 50.582032 
L 381.919659 55.033995 
L 382.393539 60.032654 
L 382.867419 60.043731 
L 383.341299 49.624445 
L 383.815179 47.89748 
L 384.289059 59.664625 
L 384.762938 73.26259 
L 385.236818 97.968528 
L 385.710698 105.700632 
L 386.184578 80.342876 
L 386.658458 54.941679 
L 387.132338 50.947945 
L 387.606218 58.404689 
L 388.080098 56.508082 
L 388.553978 47.623068 
L 389.027858 45.77451 
L 389.501738 49.78354 
L 389.975618 57.972475 
L 390.449498 73.150502 
L 390.923377 108.13741 
L 391.397257 126.393049 
L 391.871137 88.11336 
L 392.345017 62.455185 
L 392.818897 55.090976 
L 393.292777 46.572775 
L 393.766657 50.712017 
L 394.240537 54.153614 
L 394.714417 62.682734 
L 395.188297 63.88972 
L 395.662177 57.476922 
L 396.136057 65.783139 
L 396.609936 86.140171 
L 397.083816 112.530976 
L 397.557696 88.630145 
L 398.031576 63.286792 
L 398.505456 63.440518 
L 398.979336 59.058239 
L 399.453216 51.33894 
L 399.927096 53.889071 
L 400.400976 59.372829 
L 400.874856 56.374287 
L 401.348736 58.575135 
L 401.822616 73.709225 
L 402.296495 113.669678 
L 402.770375 146.865961 
L 403.244255 89.548047 
L 403.718135 54.261753 
L 404.192015 52.479459 
L 404.665895 50.370602 
L 405.139775 54.850872 
L 405.613655 56.638097 
L 406.087535 56.011917 
L 406.561415 60.251511 
L 407.035295 60.828817 
L 407.509175 74.410287 
L 407.983055 115.947583 
L 408.456934 125.89441 
L 408.930814 79.147883 
L 409.404694 46.115193 
L 409.878574 45.959026 
L 410.352454 46.222135 
L 410.826334 52.426095 
L 411.300214 59.204094 
L 411.774094 62.983133 
L 412.247974 60.291359 
L 412.721854 56.840532 
L 413.195734 66.498656 
L 413.669614 98.6795 
L 414.143493 133.159789 
L 414.617373 88.957611 
L 415.091253 52.394213 
L 415.565133 58.515835 
L 416.039013 56.685059 
L 416.512893 47.119074 
L 416.986773 49.897704 
L 417.460653 60.408184 
L 417.934533 64.698028 
L 418.408413 66.131662 
L 418.882293 80.937936 
L 419.356173 127.048095 
L 419.830053 150.06401 
L 420.303932 95.266687 
L 420.777812 55.736874 
L 421.251692 58.174183 
L 421.725572 54.870817 
L 422.199452 50.731745 
L 422.673332 53.993725 
L 423.147212 53.590993 
L 423.621092 58.686191 
L 424.094972 56.433771 
L 424.568852 77.563493 
L 425.042732 122.175902 
L 425.516612 146.812303 
L 425.990491 91.80464 
L 426.464371 57.525662 
L 426.938251 55.185751 
L 427.412131 54.091461 
L 427.886011 59.918387 
L 428.359891 53.074704 
L 428.833771 53.298652 
L 429.307651 49.303897 
L 429.781531 57.783251 
L 430.255411 83.902721 
L 430.729291 146.301141 
L 431.203171 176.277548 
L 431.677051 103.588666 
L 432.15093 51.543048 
L 432.62481 45.026142 
L 433.09869 54.685981 
L 433.57257 52.706515 
L 434.04645 47.729644 
L 434.52033 56.380608 
L 434.99421 62.715981 
L 435.46809 60.258658 
L 435.94197 67.225307 
L 436.41585 100.030342 
L 436.88973 109.158124 
L 437.36361 66.424838 
L 437.837489 46.92351 
L 438.311369 52.98037 
L 438.785249 53.618348 
L 439.259129 57.320444 
L 439.733009 54.598368 
L 440.206889 59.176609 
L 440.680769 55.845229 
L 441.154649 55.55766 
L 441.628529 71.466925 
L 442.102409 108.814817 
L 442.576289 127.491182 
L 443.050169 81.334551 
L 443.524048 51.486656 
L 443.997928 54.19924 
L 444.471808 46.53686 
L 444.945688 52.832591 
L 445.419568 55.964224 
L 445.893448 59.266031 
L 446.367328 59.202356 
L 446.841208 57.823058 
L 447.315088 68.155956 
L 447.788968 117.643498 
L 448.262848 136.648511 
L 448.736728 73.038647 
L 449.210608 44.544516 
L 449.684487 47.436571 
L 450.158367 55.208423 
L 450.632247 55.481994 
L 451.106127 57.604079 
L 451.580007 59.545619 
L 452.053887 53.965252 
L 452.527767 54.731333 
L 453.001647 74.07079 
L 453.475527 125.349492 
L 453.949407 147.360235 
L 454.423287 91.799056 
L 454.897167 50.766328 
L 455.371046 33.439101 
L 455.844926 47.296223 
L 456.318806 53.267159 
L 456.792686 49.558304 
L 457.266566 53.846402 
L 457.740446 60.830658 
L 458.214326 57.234652 
L 458.688206 67.556074 
L 459.162086 99.860858 
L 459.635966 109.042048 
L 460.109846 67.898942 
L 460.583726 42.765894 
L 461.057606 47.988869 
L 461.531485 57.279257 
L 462.005365 59.771142 
L 462.479245 51.51271 
L 462.953125 49.536938 
L 463.427005 60.894298 
L 463.900885 58.206929 
L 464.374765 61.673633 
L 464.848645 85.062336 
L 465.322525 101.598685 
L 465.796405 82.139292 
L 466.270285 55.307255 
L 466.744165 55.601801 
L 467.218044 56.557729 
L 467.691924 55.925649 
L 468.165804 55.225987 
L 468.639684 61.538057 
L 469.113564 53.59359 
L 469.587444 51.11018 
L 470.061324 83.484107 
L 470.535204 127.177072 
L 471.009084 157.151135 
L 471.482964 102.792547 
L 471.956844 56.72616 
L 472.430724 52.432997 
L 472.904603 50.946382 
L 473.378483 60.499484 
L 473.852363 58.398789 
L 474.326243 61.750296 
L 474.800123 56.427605 
L 475.274003 56.23117 
L 475.747883 69.681765 
L 476.221763 96.753857 
L 476.695643 121.376245 
L 477.169523 77.391882 
L 477.643403 54.659502 
L 478.117283 47.193901 
L 478.591163 53.872611 
L 479.065042 55.889431 
L 479.538922 57.895301 
L 480.012802 55.202713 
L 480.486682 54.674144 
L 480.960562 55.64353 
L 481.434442 70.693997 
L 481.908322 98.608605 
L 482.382202 113.704526 
L 482.856082 93.194912 
L 483.329962 58.526408 
L 483.803842 55.775263 
L 484.277722 51.061451 
L 484.751601 54.702248 
L 484.751601 50.824766 
L 484.751601 50.824766 
L 484.277722 45.09367 
L 483.803842 48.88489 
L 483.329962 51.581162 
L 482.856082 88.689485 
L 482.382202 107.706347 
L 481.908322 92.789653 
L 481.434442 66.21548 
L 480.960562 51.922107 
L 480.486682 51.159923 
L 480.012802 46.727875 
L 479.538922 51.672887 
L 479.065042 51.113589 
L 478.591163 46.500968 
L 478.117283 42.607575 
L 477.643403 51.040655 
L 477.169523 72.614989 
L 476.695643 113.883314 
L 476.221763 91.398094 
L 475.747883 66.332726 
L 475.274003 52.3763 
L 474.800123 52.31959 
L 474.326243 57.536824 
L 473.852363 54.743006 
L 473.378483 56.227602 
L 472.904603 47.072881 
L 472.430724 47.395832 
L 471.956844 51.65929 
L 471.482964 95.656238 
L 471.009084 139.607391 
L 470.535204 119.925813 
L 470.061324 80.196551 
L 469.587444 43.751283 
L 469.113564 48.024151 
L 468.639684 58.314908 
L 468.165804 52.048291 
L 467.691924 52.780078 
L 467.218044 51.196054 
L 466.744165 51.005965 
L 466.270285 50.940268 
L 465.796405 77.977957 
L 465.322525 94.535109 
L 464.848645 80.610913 
L 464.374765 56.840502 
L 463.900885 52.793864 
L 463.427005 56.909757 
L 462.953125 43.319105 
L 462.479245 48.132325 
L 462.005365 56.123615 
L 461.531485 52.343902 
L 461.057606 40.588631 
L 460.583726 38.149703 
L 460.109846 62.538818 
L 459.635966 94.526769 
L 459.162086 95.264687 
L 458.688206 64.27843 
L 458.214326 50.764837 
L 457.740446 57.051667 
L 457.266566 48.3955 
L 456.792686 46.117491 
L 456.318806 47.365119 
L 455.844926 38.402141 
L 455.371046 27.304613 
L 454.897167 45.79391 
L 454.423287 84.592577 
L 453.949407 141.128108 
L 453.475527 119.3338 
L 453.001647 68.278581 
L 452.527767 48.956541 
L 452.053887 48.671932 
L 451.580007 55.524539 
L 451.106127 51.187291 
L 450.632247 51.53142 
L 450.158367 50.981757 
L 449.684487 37.94779 
L 449.210608 33.461035 
L 448.736728 68.403119 
L 448.262848 130.7544 
L 447.788968 111.118131 
L 447.315088 64.486656 
L 446.841208 52.778825 
L 446.367328 52.056247 
L 445.893448 53.107517 
L 445.419568 51.478394 
L 444.945688 45.712351 
L 444.471808 38.852116 
L 443.997928 47.91061 
L 443.524048 42.714087 
L 443.050169 75.631383 
L 442.576289 118.520018 
L 442.102409 103.235631 
L 441.628529 67.850692 
L 441.154649 50.898171 
L 440.680769 52.378136 
L 440.206889 55.560033 
L 439.733009 49.912592 
L 439.259129 53.214065 
L 438.785249 50.7441 
L 438.311369 48.300263 
L 437.837489 35.125912 
L 437.36361 61.13163 
L 436.88973 102.745947 
L 436.41585 95.621592 
L 435.94197 58.480155 
L 435.46809 55.533867 
L 434.99421 59.188655 
L 434.52033 53.584879 
L 434.04645 42.797022 
L 433.57257 48.535346 
L 433.09869 50.382535 
L 432.62481 41.035698 
L 432.15093 46.505107 
L 431.677051 94.543277 
L 431.203171 146.296913 
L 430.729291 138.157177 
L 430.255411 80.359199 
L 429.781531 52.769704 
L 429.307651 45.523096 
L 428.833771 44.146134 
L 428.359891 48.957999 
L 427.886011 54.75665 
L 427.412131 48.801209 
L 426.938251 50.556338 
L 426.464371 51.339718 
L 425.990491 84.946871 
L 425.516612 124.854263 
L 425.042732 116.738166 
L 424.568852 75.15933 
L 424.094972 52.672831 
L 423.621092 55.159308 
L 423.147212 50.575531 
L 422.673332 49.614952 
L 422.199452 44.299176 
L 421.725572 49.74699 
L 421.251692 52.501428 
L 420.777812 51.837206 
L 420.303932 84.68314 
L 419.830053 123.780287 
L 419.356173 117.11937 
L 418.882293 77.277849 
L 418.408413 62.654408 
L 417.934533 61.942207 
L 417.460653 57.542129 
L 416.986773 41.302806 
L 416.512893 39.78776 
L 416.039013 53.420255 
L 415.565133 52.763282 
L 415.091253 47.649593 
L 414.617373 81.093379 
L 414.143493 116.994999 
L 413.669614 94.267757 
L 413.195734 63.096062 
L 412.721854 53.388735 
L 412.247974 57.679162 
L 411.774094 60.176628 
L 411.300214 55.653964 
L 410.826334 43.19829 
L 410.352454 37.805935 
L 409.878574 37.877482 
L 409.404694 38.928278 
L 408.930814 73.606661 
L 408.456934 119.51879 
L 407.983055 110.816803 
L 407.509175 71.391809 
L 407.035295 57.017522 
L 406.561415 56.180548 
L 406.087535 52.706182 
L 405.613655 53.721684 
L 405.139775 50.395439 
L 404.665895 40.284689 
L 404.192015 47.223062 
L 403.718135 44.472204 
L 403.244255 84.562332 
L 402.770375 120.634486 
L 402.296495 106.990863 
L 401.822616 69.814924 
L 401.348736 54.401751 
L 400.874856 51.969756 
L 400.400976 54.868551 
L 399.927096 49.270582 
L 399.453216 43.640301 
L 398.979336 54.524944 
L 398.505456 60.942815 
L 398.031576 60.163707 
L 397.557696 84.141305 
L 397.083816 107.041501 
L 396.609936 82.068077 
L 396.136057 61.521118 
L 395.662177 52.965336 
L 395.188297 60.383849 
L 394.714417 59.685798 
L 394.240537 50.456723 
L 393.766657 45.696575 
L 393.292777 41.90765 
L 392.818897 50.440436 
L 392.345017 59.617585 
L 391.871137 83.460962 
L 391.397257 112.60418 
L 390.923377 100.909393 
L 390.449498 67.850443 
L 389.975618 50.511863 
L 389.501738 42.727429 
L 389.027858 39.715733 
L 388.553978 38.80728 
L 388.080098 52.914873 
L 387.606218 52.29552 
L 387.132338 47.373837 
L 386.658458 49.008204 
L 386.184578 76.009237 
L 385.710698 95.251866 
L 385.236818 92.599309 
L 384.762938 69.966485 
L 384.289059 55.028883 
L 383.815179 41.32281 
L 383.341299 41.876063 
L 382.867419 56.732897 
L 382.393539 54.546897 
L 381.919659 50.636147 
L 381.445779 39.296471 
L 380.971899 44.419065 
L 380.498019 73.749088 
L 380.024139 112.908035 
L 379.550259 113.008507 
L 379.076379 70.87701 
L 378.6025 42.933972 
L 378.12862 41.775329 
L 377.65474 46.049015 
L 377.18086 46.925595 
L 376.70698 39.753493 
L 376.2331 38.660589 
L 375.75922 41.639711 
L 375.28534 45.355985 
L 374.81146 64.687946 
L 374.33758 98.920374 
L 373.8637 97.722293 
L 373.38982 71.668991 
L 372.91594 60.98047 
L 372.442061 59.851411 
L 371.968181 62.373504 
L 371.494301 53.785223 
L 371.020421 35.903598 
L 370.546541 30.402257 
L 370.072661 43.297232 
L 369.598781 46.24891 
L 369.124901 78.939075 
L 368.651021 98.425081 
L 368.177141 83.905993 
L 367.703261 56.526226 
L 367.229381 54.986643 
L 366.755502 60.929617 
L 366.281622 55.007895 
L 365.807742 47.239122 
L 365.333862 55.584709 
L 364.859982 50.451344 
L 364.386102 52.091136 
L 363.912222 45.218826 
L 363.438342 67.670305 
L 362.964462 87.582653 
L 362.490582 89.501682 
L 362.016702 65.83737 
L 361.542822 48.037098 
L 361.068943 52.978724 
L 360.595063 57.224929 
L 360.121183 45.939571 
L 359.647303 50.226344 
L 359.173423 42.087277 
L 358.699543 43.548469 
L 358.225663 47.150597 
L 357.751783 68.766896 
L 357.277903 106.428086 
L 356.804023 81.468935 
L 356.330143 51.357523 
L 355.856263 52.081942 
L 355.382383 57.384188 
L 354.908504 51.528018 
L 354.434624 50.547595 
L 353.960744 54.421844 
L 353.486864 48.720009 
L 353.012984 50.121166 
L 352.539104 64.642562 
L 352.065224 76.395882 
L 351.591344 109.231406 
L 351.117464 104.592688 
L 350.643584 64.131395 
L 350.169704 51.666981 
L 349.695824 49.003401 
L 349.221945 54.07739 
L 348.748065 53.163419 
L 348.274185 40.825208 
L 347.800305 45.920823 
L 347.326425 43.980773 
L 346.852545 38.686154 
L 346.378665 58.871612 
L 345.904785 85.380768 
L 345.430905 88.079922 
L 344.957025 70.673698 
L 344.483145 52.104321 
L 344.009265 57.076896 
L 343.535385 59.703631 
L 343.061506 48.074077 
L 342.587626 41.180001 
L 342.113746 44.444962 
L 341.639866 50.567697 
L 341.165986 42.527998 
L 340.692106 57.228064 
L 340.218226 84.954533 
L 339.744346 82.195551 
L 339.270466 65.563718 
L 338.796586 54.691591 
L 338.322706 38.291505 
L 337.848826 37.777328 
L 337.374947 38.064487 
L 336.901067 41.868033 
L 336.427187 34.136284 
L 335.953307 49.986014 
L 335.479427 50.46276 
L 335.005547 70.23132 
L 334.531667 106.838993 
L 334.057787 93.000548 
L 333.583907 68.824405 
L 333.110027 63.303683 
L 332.636147 59.512844 
L 332.162267 63.266929 
L 331.688388 64.717015 
L 331.214508 58.136154 
L 330.740628 53.320397 
L 330.266748 56.852049 
L 329.792868 53.108656 
L 329.318988 66.538339 
L 328.845108 95.271555 
L 328.371228 82.190873 
L 327.897348 60.716484 
L 327.423468 54.45383 
L 326.949588 58.095017 
L 326.475708 49.799763 
L 326.001828 54.108116 
L 325.527949 57.199588 
L 325.054069 39.096864 
L 324.580189 37.421933 
L 324.106309 47.747736 
L 323.632429 66.446228 
L 323.158549 99.793491 
L 322.684669 96.286641 
L 322.210789 68.704545 
L 321.736909 55.367455 
L 321.263029 51.440938 
L 320.789149 43.551268 
L 320.315269 54.312686 
L 319.84139 55.013531 
L 319.36751 51.645901 
L 318.89363 37.992608 
L 318.41975 45.333428 
L 317.94587 64.859619 
L 317.47199 83.108604 
L 316.99811 64.977477 
L 316.52423 53.090783 
L 316.05035 57.796036 
L 315.57647 58.07303 
L 315.10259 53.834418 
L 314.62871 41.090111 
L 314.15483 39.327738 
L 313.680951 49.589667 
L 313.207071 41.596047 
L 312.733191 47.81098 
L 312.259311 66.810349 
L 311.785431 102.927021 
L 311.311551 97.148631 
L 310.837671 59.891049 
L 310.363791 57.475185 
L 309.889911 56.986514 
L 309.416031 46.304822 
L 308.942151 46.070973 
L 308.468271 41.355118 
L 307.994392 38.662048 
L 307.520512 43.471205 
L 307.046632 46.20664 
L 306.572752 70.325699 
L 306.098872 99.925844 
L 305.624992 95.301755 
L 305.151112 62.301029 
L 304.677232 53.968709 
L 304.203352 60.574314 
L 303.729472 63.222086 
L 303.255592 59.486314 
L 302.781712 49.876062 
L 302.307833 42.256361 
L 301.833953 46.936092 
L 301.360073 49.040174 
L 300.886193 70.878525 
L 300.412313 98.61158 
L 299.938433 86.928241 
L 299.464553 63.771028 
L 298.990673 61.854091 
L 298.516793 61.779368 
L 298.042913 63.65625 
L 297.569033 62.049626 
L 297.095153 52.851315 
L 296.621273 48.511153 
L 296.147394 44.490995 
L 295.673514 52.132065 
L 295.199634 76.575479 
L 294.725754 107.807382 
L 294.251874 77.075428 
L 293.777994 52.218306 
L 293.304114 57.142048 
L 292.830234 57.01119 
L 292.356354 51.561796 
L 291.882474 55.175099 
L 291.408594 52.824568 
L 290.934714 45.950644 
L 290.460835 47.638518 
L 289.986955 51.598269 
L 289.513075 84.589657 
L 289.039195 99.285042 
L 288.565315 91.666202 
L 288.091435 57.4572 
L 287.617555 42.281715 
L 287.143675 46.583907 
L 286.669795 52.11809 
L 286.195915 32.684694 
L 285.722035 35.888985 
L 285.248155 55.749788 
L 284.774275 55.462653 
L 284.300396 46.479238 
L 283.826516 59.673013 
L 283.352636 83.149521 
L 282.878756 77.570442 
L 282.404876 63.346762 
L 281.930996 49.322856 
L 281.457116 49.698959 
L 280.983236 47.535054 
L 280.509356 43.932478 
L 280.035476 55.69171 
L 279.561596 44.198296 
L 279.087716 44.903995 
L 278.613837 60.885266 
L 278.139957 76.262044 
L 277.666077 98.332462 
L 277.192197 89.620345 
L 276.718317 63.386138 
L 276.244437 57.071173 
L 275.770557 54.796518 
L 275.296677 52.519606 
L 274.822797 47.201588 
L 274.348917 37.461498 
L 273.875037 47.618173 
L 273.401157 52.190569 
L 272.927277 47.896409 
L 272.453398 51.288342 
L 271.979518 94.794341 
L 271.505638 84.330647 
L 271.031758 54.988452 
L 270.557878 49.421017 
L 270.083998 48.633466 
L 269.610118 51.986171 
L 269.136238 53.834456 
L 268.662358 58.360723 
L 268.188478 46.605105 
L 267.714598 48.279037 
L 267.240718 50.301707 
L 266.766839 54.022663 
L 266.292959 72.995492 
L 265.819079 71.063443 
L 265.345199 61.070992 
L 264.871319 49.706709 
L 264.397439 53.183055 
L 263.923559 41.938743 
L 263.449679 49.796606 
L 262.975799 51.931171 
L 262.501919 53.879231 
L 262.028039 51.480488 
L 261.554159 53.502862 
L 261.08028 68.288377 
L 260.6064 91.095404 
L 260.13252 91.075706 
L 259.65864 73.254516 
L 259.18476 55.885171 
L 258.71088 50.940745 
L 258.237 49.522108 
L 257.76312 54.523884 
L 257.28924 56.454065 
L 256.81536 54.022767 
L 256.34148 50.84559 
L 255.8676 53.158727 
L 255.39372 68.12699 
L 254.919841 97.339432 
L 254.445961 92.224041 
L 253.972081 62.562167 
L 253.498201 48.682302 
L 253.024321 57.713374 
L 252.550441 60.594607 
L 252.076561 57.139117 
L 251.602681 58.04525 
L 251.128801 48.361355 
L 250.654921 54.14705 
L 250.181041 56.745171 
L 249.707161 73.817903 
L 249.233282 97.169323 
L 248.759402 84.89661 
L 248.285522 61.713886 
L 247.811642 53.50592 
L 247.337762 49.667001 
L 246.863882 46.935148 
L 246.390002 44.579524 
L 245.916122 45.246957 
L 245.442242 52.992272 
L 244.968362 49.89845 
L 244.494482 56.183098 
L 244.020602 76.596652 
L 243.546722 98.041537 
L 243.072843 67.789451 
L 242.598963 62.353575 
L 242.125083 58.766925 
L 241.651203 48.514271 
L 241.177323 48.949585 
L 240.703443 43.317655 
L 240.229563 48.442 
L 239.755683 53.813153 
L 239.281803 34.906485 
L 238.807923 48.370109 
L 238.334043 77.343634 
L 237.860163 105.574858 
L 237.386284 65.781975 
L 236.912404 49.641124 
L 236.438524 47.633136 
L 235.964644 56.634947 
L 235.490764 63.098416 
L 235.016884 47.639453 
L 234.543004 41.2017 
L 234.069124 40.404747 
L 233.595244 54.721238 
L 233.121364 44.334786 
L 232.647484 78.973638 
L 232.173604 98.957735 
L 231.699725 72.9187 
L 231.225845 50.111709 
L 230.751965 54.652783 
L 230.278085 59.661966 
L 229.804205 56.83407 
L 229.330325 59.951227 
L 228.856445 46.721038 
L 228.382565 47.941809 
L 227.908685 32.457674 
L 227.434805 39.200722 
L 226.960925 50.580141 
L 226.487045 88.444823 
L 226.013165 76.178356 
L 225.539286 61.082196 
L 225.065406 52.131789 
L 224.591526 31.13286 
L 224.117646 44.863062 
L 223.643766 53.928958 
L 223.169886 48.916559 
L 222.696006 44.611548 
L 222.222126 49.385717 
L 221.748246 49.413563 
L 221.274366 71.3956 
L 220.800486 88.353294 
L 220.326606 75.313277 
L 219.852727 60.002973 
L 219.378847 50.094608 
L 218.904967 44.232799 
L 218.431087 43.91915 
L 217.957207 62.14685 
L 217.483327 64.044457 
L 217.009447 42.706929 
L 216.535567 32.497856 
L 216.061687 48.736668 
L 215.587807 82.443848 
L 215.113927 104.971167 
L 214.640047 71.720541 
L 214.166167 63.160841 
L 213.692288 50.293649 
L 213.218408 42.678118 
L 212.744528 55.954625 
L 212.270648 53.213194 
L 211.796768 52.705546 
L 211.322888 60.329407 
L 210.849008 53.221234 
L 210.375128 44.530553 
L 209.901248 67.49939 
L 209.427368 84.729353 
L 208.953488 73.048857 
L 208.479608 56.826081 
L 208.005729 44.93427 
L 207.531849 54.240708 
L 207.057969 62.143456 
L 206.584089 36.813341 
L 206.110209 49.257419 
L 205.636329 56.255872 
L 205.162449 40.240053 
L 204.688569 40.131925 
L 204.214689 56.744495 
L 203.740809 68.522063 
L 203.266929 61.894809 
L 202.793049 48.517139 
L 202.31917 55.163043 
L 201.84529 49.513373 
L 201.37141 49.028887 
L 200.89753 26.556453 
L 200.42365 42.620346 
L 199.94977 43.032143 
L 199.47589 56.94881 
L 199.00201 46.882384 
L 198.52813 68.597286 
L 198.05425 108.580768 
L 197.58037 90.471559 
L 197.10649 56.495587 
L 196.63261 59.995477 
L 196.158731 64.833494 
L 195.684851 60.056511 
L 195.210971 58.848728 
L 194.737091 44.276438 
L 194.263211 50.427094 
L 193.789331 43.720062 
L 193.315451 42.040296 
L 192.841571 64.914999 
L 192.367691 96.428024 
L 191.893811 70.98829 
L 191.419931 57.252286 
L 190.946051 55.978165 
L 190.472172 56.082099 
L 189.998292 53.37424 
L 189.524412 48.675233 
L 189.050532 43.155127 
L 188.576652 37.379089 
L 188.102772 53.090377 
L 187.628892 53.138807 
L 187.155012 80.694183 
L 186.681132 96.20558 
L 186.207252 76.807197 
L 185.733372 58.205631 
L 185.259492 56.94785 
L 184.785612 57.753264 
L 184.311733 50.488706 
L 183.837853 59.335195 
L 183.363973 52.51549 
L 182.890093 41.605665 
L 182.416213 51.82709 
L 181.942333 49.369985 
L 181.468453 74.821695 
L 180.994573 109.159463 
L 180.520693 90.618258 
L 180.046813 66.570694 
L 179.572933 52.726862 
L 179.099053 49.419028 
L 178.625174 50.491001 
L 178.151294 60.905959 
L 177.677414 57.740941 
L 177.203534 45.399683 
L 176.729654 52.665595 
L 176.255774 31.077633 
L 175.781894 67.641111 
L 175.308014 96.735196 
L 174.834134 76.219625 
L 174.360254 65.49102 
L 173.886374 54.541614 
L 173.412494 63.167431 
L 172.938615 43.917391 
L 172.464735 43.654961 
L 171.990855 54.923421 
L 171.516975 41.498957 
L 171.043095 45.210975 
L 170.569215 46.468657 
L 170.095335 92.729525 
L 169.621455 100.923676 
L 169.147575 89.074938 
L 168.673695 73.10564 
L 168.199815 60.960173 
L 167.725935 62.481596 
L 167.252055 66.275503 
L 166.778176 60.848467 
L 166.304296 62.718532 
L 165.830416 53.948907 
L 165.356536 44.324696 
L 164.882656 54.037446 
L 164.408776 82.556733 
L 163.934896 94.159442 
L 163.461016 75.519069 
L 162.987136 68.850985 
L 162.513256 56.708135 
L 162.039376 58.750058 
L 161.565496 27.20419 
L 161.091617 43.326278 
L 160.617737 49.094688 
L 160.143857 53.416075 
L 159.669977 42.78535 
L 159.196097 55.910893 
L 158.722217 74.243896 
L 158.248337 65.993258 
L 157.774457 68.947626 
L 157.300577 58.894065 
L 156.826697 55.608207 
L 156.352817 35.599969 
L 155.878937 39.11296 
L 155.405057 36.544118 
L 154.931178 40.336685 
L 154.457298 50.372291 
L 153.983418 50.712576 
L 153.509538 42.341009 
L 153.035658 80.844665 
L 152.561778 96.00795 
L 152.087898 73.093854 
L 151.614018 59.122189 
L 151.140138 57.057898 
L 150.666258 52.738178 
L 150.192378 53.388442 
L 149.718498 44.136532 
L 149.244619 48.417826 
L 148.770739 44.418819 
L 148.296859 48.915998 
L 147.822979 50.096483 
L 147.349099 73.610916 
L 146.875219 113.914354 
L 146.401339 83.117906 
L 145.927459 63.362489 
L 145.453579 49.540989 
L 144.979699 62.0133 
L 144.505819 53.775256 
L 144.031939 52.109223 
L 143.558059 53.893416 
L 143.08418 50.413308 
L 142.6103 43.051139 
L 142.13642 49.48413 
L 141.66254 75.277851 
L 141.18866 92.877221 
L 140.71478 79.950542 
L 140.2409 52.674137 
L 139.76702 59.916073 
L 139.29314 54.437288 
L 138.81926 55.005097 
L 138.34538 43.794875 
L 137.8715 53.015906 
L 137.397621 47.96853 
L 136.923741 41.381711 
L 136.449861 47.630823 
L 135.975981 89.62926 
L 135.502101 116.03144 
L 135.028221 90.889797 
L 134.554341 56.359056 
L 134.080461 55.736065 
L 133.606581 35.70556 
L 133.132701 50.769524 
L 132.658821 47.893755 
L 132.184941 47.324999 
L 131.711062 47.770691 
L 131.237182 26.69957 
L 130.763302 33.358015 
L 130.289422 70.840643 
L 129.815542 105.331627 
L 129.341662 91.831352 
L 128.867782 63.134477 
L 128.393902 63.711602 
L 127.920022 49.770066 
L 127.446142 47.412508 
L 126.972262 58.791892 
L 126.498382 48.635755 
L 126.024502 44.119888 
L 125.550623 38.21888 
L 125.076743 26.638509 
L 124.602863 81.139459 
L 124.128983 114.617715 
L 123.655103 87.334082 
L 123.181223 63.140489 
L 122.707343 50.836349 
L 122.233463 50.000496 
L 121.759583 51.421617 
L 121.285703 55.040184 
L 120.811823 49.253406 
L 120.337943 28.150399 
L 119.864064 39.179084 
L 119.390184 53.444365 
L 118.916304 94.469886 
L 118.442424 129.406792 
L 117.968544 99.165079 
L 117.494664 54.267296 
L 117.020784 45.664713 
L 116.546904 64.745406 
L 116.073024 69.078488 
L 115.599144 35.684886 
L 115.125264 29.842782 
L 114.651384 27.831016 
L 114.177504 36.891006 
L 113.703625 45.253574 
L 113.229745 84.544285 
L 112.755865 105.285778 
L 112.281985 82.335346 
L 111.808105 54.406708 
L 111.334225 58.587914 
L 110.860345 45.064195 
L 110.386465 40.341441 
L 109.912585 47.219968 
L 109.438705 63.171334 
L 108.964825 44.551342 
L 108.490945 34.700346 
L 108.017066 33.537919 
L 107.543186 71.235422 
L 107.069306 73.480654 
L 106.595426 80.658022 
L 106.121546 45.166904 
L 105.647666 47.853355 
L 105.173786 48.063089 
L 104.699906 56.717462 
L 104.226026 60.048825 
L 103.752146 51.70131 
L 103.278266 33.262586 
L 102.804386 44.654082 
L 102.330507 61.491197 
L 101.856627 78.633378 
L 101.382747 96.006931 
L 100.908867 71.599412 
L 100.434987 57.629242 
L 99.961107 49.271172 
L 99.487227 56.216229 
L 99.013347 41.644324 
L 98.539467 24.349287 
L 98.065587 47.625128 
L 97.591707 50.178374 
L 97.117827 50.565562 
L 96.643947 36.4665 
L 96.170068 82.030355 
L 95.696188 99.545166 
L 95.222308 69.383136 
L 94.748428 57.222192 
L 94.274548 59.504862 
L 93.800668 50.982965 
L 93.326788 51.523988 
L 92.852908 49.712738 
L 92.379028 48.439355 
L 91.905148 41.798737 
L 91.431268 23.934507 
L 90.957388 40.631367 
L 90.483509 96.971514 
L 90.009629 100.233251 
L 89.535749 84.645076 
L 89.061869 55.601777 
L 88.587989 59.331677 
L 88.114109 49.187446 
L 87.640229 47.409861 
L 87.166349 52.052074 
L 86.692469 61.922717 
L 86.218589 45.016928 
L 85.744709 46.121836 
L 85.270829 61.38467 
L 84.796949 86.138034 
L 84.32307 113.594191 
L 83.84919 93.392537 
L 83.37531 43.477937 
L 82.90143 53.696627 
L 82.42755 56.669704 
L 81.95367 51.917601 
L 81.47979 57.59438 
L 81.00591 48.537372 
L 80.53203 46.243637 
L 80.05815 50.824013 
L 79.58427 58.458342 
L 79.11039 88.765667 
L 78.636511 126.809016 
L 78.162631 98.97881 
L 77.688751 50.236991 
L 77.214871 62.331404 
L 76.740991 56.776275 
L 76.267111 57.718453 
L 75.793231 40.151739 
z
" clip-path="url(#p53785abad4)" style="fill-opacity: 0.25"/>
   </g>
   <g id="matplotlib.axis_1">
    <g id="xtick_1">
     <g id="line2d_1">
      <defs>
       <path id="m58de846a4f" d="M 0 0 
L 0 3.5 
" style="stroke: #000000; stroke-width: 0.8"/>
      </defs>
      <g>
       <use xlink:href="#m58de846a4f" x="75.319351" y="186.84327" style="stroke: #000000; stroke-width: 0.8"/>
      </g>
     </g>
     <g id="text_1">
      <!-- 1950 -->
      <g transform="translate(62.594351 201.441708) scale(0.1 -0.1)">
       <defs>
        <path id="DejaVuSans-31" d="M 794 531 
L 1825 531 
L 1825 4091 
L 703 3866 
L 703 4441 
L 1819 4666 
L 2450 4666 
L 2450 531 
L 3481 531 
L 3481 0 
L 794 0 
L 794 531 
z
" transform="scale(0.015625)"/>
        <path id="DejaVuSans-39" d="M 703 97 
L 703 672 
Q 941 559 1184 500 
Q 1428 441 1663 441 
Q 2288 441 2617 861 
Q 2947 1281 2994 2138 
Q 2813 1869 2534 1725 
Q 2256 1581 1919 1581 
Q 1219 1581 811 2004 
Q 403 2428 403 3163 
Q 403 3881 828 4315 
Q 1253 4750 1959 4750 
Q 2769 4750 3195 4129 
Q 3622 3509 3622 2328 
Q 3622 1225 3098 567 
Q 2575 -91 1691 -91 
Q 1453 -91 1209 -44 
Q 966 3 703 97 
z
M 1959 2075 
Q 2384 2075 2632 2365 
Q 2881 2656 2881 3163 
Q 2881 3666 2632 3958 
Q 2384 4250 1959 4250 
Q 1534 4250 1286 3958 
Q 1038 3666 1038 3163 
Q 1038 2656 1286 2365 
Q 1534 2075 1959 2075 
z
" transform="scale(0.015625)"/>
        <path id="DejaVuSans-35" d="M 691 4666 
L 3169 4666 
L 3169 4134 
L 1269 4134 
L 1269 2991 
Q 1406 3038 1543 3061 
Q 1681 3084 1819 3084 
Q 2600 3084 3056 2656 
Q 3513 2228 3513 1497 
Q 3513 744 3044 326 
Q 2575 -91 1722 -91 
Q 1428 -91 1123 -41 
Q 819 9 494 109 
L 494 744 
Q 775 591 1075 516 
Q 1375 441 1709 441 
Q 2250 441 2565 725 
Q 2881 1009 2881 1497 
Q 2881 1984 2565 2268 
Q 2250 2553 1709 2553 
Q 1456 2553 1204 2497 
Q 953 2441 691 2322 
L 691 4666 
z
" transform="scale(0.015625)"/>
        <path id="DejaVuSans-30" d="M 2034 4250 
Q 1547 4250 1301 3770 
Q 1056 3291 1056 2328 
Q 1056 1369 1301 889 
Q 1547 409 2034 409 
Q 2525 409 2770 889 
Q 3016 1369 3016 2328 
Q 3016 3291 2770 3770 
Q 2525 4250 2034 4250 
z
M 2034 4750 
Q 2819 4750 3233 4129 
Q 3647 3509 3647 2328 
Q 3647 1150 3233 529 
Q 2819 -91 2034 -91 
Q 1250 -91 836 529 
Q 422 1150 422 2328 
Q 422 3509 836 4129 
Q 1250 4750 2034 4750 
z
" transform="scale(0.015625)"/>
       </defs>
       <use xlink:href="#DejaVuSans-31"/>
       <use xlink:href="#DejaVuSans-39" x="63.623047"/>
       <use xlink:href="#DejaVuSans-35" x="127.246094"/>
       <use xlink:href="#DejaVuSans-30" x="190.869141"/>
      </g>
     </g>
    </g>
    <g id="xtick_2">
     <g id="line2d_2">
      <g>
       <use xlink:href="#m58de846a4f" x="132.184941" y="186.84327" style="stroke: #000000; stroke-width: 0.8"/>
      </g>
     </g>
     <g id="text_2">
      <!-- 1960 -->
      <g transform="translate(119.459941 201.441708) scale(0.1 -0.1)">
       <defs>
        <path id="DejaVuSans-36" d="M 2113 2584 
Q 1688 2584 1439 2293 
Q 1191 2003 1191 1497 
Q 1191 994 1439 701 
Q 1688 409 2113 409 
Q 2538 409 2786 701 
Q 3034 994 3034 1497 
Q 3034 2003 2786 2293 
Q 2538 2584 2113 2584 
z
M 3366 4563 
L 3366 3988 
Q 3128 4100 2886 4159 
Q 2644 4219 2406 4219 
Q 1781 4219 1451 3797 
Q 1122 3375 1075 2522 
Q 1259 2794 1537 2939 
Q 1816 3084 2150 3084 
Q 2853 3084 3261 2657 
Q 3669 2231 3669 1497 
Q 3669 778 3244 343 
Q 2819 -91 2113 -91 
Q 1303 -91 875 529 
Q 447 1150 447 2328 
Q 447 3434 972 4092 
Q 1497 4750 2381 4750 
Q 2619 4750 2861 4703 
Q 3103 4656 3366 4563 
z
" transform="scale(0.015625)"/>
       </defs>
       <use xlink:href="#DejaVuSans-31"/>
       <use xlink:href="#DejaVuSans-39" x="63.623047"/>
       <use xlink:href="#DejaVuSans-36" x="127.246094"/>
       <use xlink:href="#DejaVuSans-30" x="190.869141"/>
      </g>
     </g>
    </g>
    <g id="xtick_3">
     <g id="line2d_3">
      <g>
       <use xlink:href="#m58de846a4f" x="189.050532" y="186.84327" style="stroke: #000000; stroke-width: 0.8"/>
      </g>
     </g>
     <g id="text_3">
      <!-- 1970 -->
      <g transform="translate(176.325532 201.441708) scale(0.1 -0.1)">
       <defs>
        <path id="DejaVuSans-37" d="M 525 4666 
L 3525 4666 
L 3525 4397 
L 1831 0 
L 1172 0 
L 2766 4134 
L 525 4134 
L 525 4666 
z
" transform="scale(0.015625)"/>
       </defs>
       <use xlink:href="#DejaVuSans-31"/>
       <use xlink:href="#DejaVuSans-39" x="63.623047"/>
       <use xlink:href="#DejaVuSans-37" x="127.246094"/>
       <use xlink:href="#DejaVuSans-30" x="190.869141"/>
      </g>
     </g>
    </g>
    <g id="xtick_4">
     <g id="line2d_4">
      <g>
       <use xlink:href="#m58de846a4f" x="245.916122" y="186.84327" style="stroke: #000000; stroke-width: 0.8"/>
      </g>
     </g>
     <g id="text_4">
      <!-- 1980 -->
      <g transform="translate(233.191122 201.441708) scale(0.1 -0.1)">
       <defs>
        <path id="DejaVuSans-38" d="M 2034 2216 
Q 1584 2216 1326 1975 
Q 1069 1734 1069 1313 
Q 1069 891 1326 650 
Q 1584 409 2034 409 
Q 2484 409 2743 651 
Q 3003 894 3003 1313 
Q 3003 1734 2745 1975 
Q 2488 2216 2034 2216 
z
M 1403 2484 
Q 997 2584 770 2862 
Q 544 3141 544 3541 
Q 544 4100 942 4425 
Q 1341 4750 2034 4750 
Q 2731 4750 3128 4425 
Q 3525 4100 3525 3541 
Q 3525 3141 3298 2862 
Q 3072 2584 2669 2484 
Q 3125 2378 3379 2068 
Q 3634 1759 3634 1313 
Q 3634 634 3220 271 
Q 2806 -91 2034 -91 
Q 1263 -91 848 271 
Q 434 634 434 1313 
Q 434 1759 690 2068 
Q 947 2378 1403 2484 
z
M 1172 3481 
Q 1172 3119 1398 2916 
Q 1625 2713 2034 2713 
Q 2441 2713 2670 2916 
Q 2900 3119 2900 3481 
Q 2900 3844 2670 4047 
Q 2441 4250 2034 4250 
Q 1625 4250 1398 4047 
Q 1172 3844 1172 3481 
z
" transform="scale(0.015625)"/>
       </defs>
       <use xlink:href="#DejaVuSans-31"/>
       <use xlink:href="#DejaVuSans-39" x="63.623047"/>
       <use xlink:href="#DejaVuSans-38" x="127.246094"/>
       <use xlink:href="#DejaVuSans-30" x="190.869141"/>
      </g>
     </g>
    </g>
    <g id="xtick_5">
     <g id="line2d_5">
      <g>
       <use xlink:href="#m58de846a4f" x="302.781712" y="186.84327" style="stroke: #000000; stroke-width: 0.8"/>
      </g>
     </g>
     <g id="text_5">
      <!-- 1990 -->
      <g transform="translate(290.056712 201.441708) scale(0.1 -0.1)">
       <use xlink:href="#DejaVuSans-31"/>
       <use xlink:href="#DejaVuSans-39" x="63.623047"/>
       <use xlink:href="#DejaVuSans-39" x="127.246094"/>
       <use xlink:href="#DejaVuSans-30" x="190.869141"/>
      </g>
     </g>
    </g>
    <g id="xtick_6">
     <g id="line2d_6">
      <g>
       <use xlink:href="#m58de846a4f" x="359.647303" y="186.84327" style="stroke: #000000; stroke-width: 0.8"/>
      </g>
     </g>
     <g id="text_6">
      <!-- 2000 -->
      <g transform="translate(346.922303 201.441708) scale(0.1 -0.1)">
       <defs>
        <path id="DejaVuSans-32" d="M 1228 531 
L 3431 531 
L 3431 0 
L 469 0 
L 469 531 
Q 828 903 1448 1529 
Q 2069 2156 2228 2338 
Q 2531 2678 2651 2914 
Q 2772 3150 2772 3378 
Q 2772 3750 2511 3984 
Q 2250 4219 1831 4219 
Q 1534 4219 1204 4116 
Q 875 4013 500 3803 
L 500 4441 
Q 881 4594 1212 4672 
Q 1544 4750 1819 4750 
Q 2544 4750 2975 4387 
Q 3406 4025 3406 3419 
Q 3406 3131 3298 2873 
Q 3191 2616 2906 2266 
Q 2828 2175 2409 1742 
Q 1991 1309 1228 531 
z
" transform="scale(0.015625)"/>
       </defs>
       <use xlink:href="#DejaVuSans-32"/>
       <use xlink:href="#DejaVuSans-30" x="63.623047"/>
       <use xlink:href="#DejaVuSans-30" x="127.246094"/>
       <use xlink:href="#DejaVuSans-30" x="190.869141"/>
      </g>
     </g>
    </g>
    <g id="xtick_7">
     <g id="line2d_7">
      <g>
       <use xlink:href="#m58de846a4f" x="416.512893" y="186.84327" style="stroke: #000000; stroke-width: 0.8"/>
      </g>
     </g>
     <g id="text_7">
      <!-- 2010 -->
      <g transform="translate(403.787893 201.441708) scale(0.1 -0.1)">
       <use xlink:href="#DejaVuSans-32"/>
       <use xlink:href="#DejaVuSans-30" x="63.623047"/>
       <use xlink:href="#DejaVuSans-31" x="127.246094"/>
       <use xlink:href="#DejaVuSans-30" x="190.869141"/>
      </g>
     </g>
    </g>
    <g id="xtick_8">
     <g id="line2d_8">
      <g>
       <use xlink:href="#m58de846a4f" x="473.378483" y="186.84327" style="stroke: #000000; stroke-width: 0.8"/>
      </g>
     </g>
     <g id="text_8">
      <!-- 2020 -->
      <g transform="translate(460.653483 201.441708) scale(0.1 -0.1)">
       <use xlink:href="#DejaVuSans-32"/>
       <use xlink:href="#DejaVuSans-30" x="63.623047"/>
       <use xlink:href="#DejaVuSans-32" x="127.246094"/>
       <use xlink:href="#DejaVuSans-30" x="190.869141"/>
      </g>
     </g>
    </g>
    <g id="text_9">
     <!-- Year -->
     <g transform="translate(269.684916 215.119833) scale(0.1 -0.1)">
      <defs>
       <path id="DejaVuSans-59" d="M -13 4666 
L 666 4666 
L 1959 2747 
L 3244 4666 
L 3922 4666 
L 2272 2222 
L 2272 0 
L 1638 0 
L 1638 2222 
L -13 4666 
z
" transform="scale(0.015625)"/>
       <path id="DejaVuSans-65" d="M 3597 1894 
L 3597 1613 
L 953 1613 
Q 991 1019 1311 708 
Q 1631 397 2203 397 
Q 2534 397 2845 478 
Q 3156 559 3463 722 
L 3463 178 
Q 3153 47 2828 -22 
Q 2503 -91 2169 -91 
Q 1331 -91 842 396 
Q 353 884 353 1716 
Q 353 2575 817 3079 
Q 1281 3584 2069 3584 
Q 2775 3584 3186 3129 
Q 3597 2675 3597 1894 
z
M 3022 2063 
Q 3016 2534 2758 2815 
Q 2500 3097 2075 3097 
Q 1594 3097 1305 2825 
Q 1016 2553 972 2059 
L 3022 2063 
z
" transform="scale(0.015625)"/>
       <path id="DejaVuSans-61" d="M 2194 1759 
Q 1497 1759 1228 1600 
Q 959 1441 959 1056 
Q 959 750 1161 570 
Q 1363 391 1709 391 
Q 2188 391 2477 730 
Q 2766 1069 2766 1631 
L 2766 1759 
L 2194 1759 
z
M 3341 1997 
L 3341 0 
L 2766 0 
L 2766 531 
Q 2569 213 2275 61 
Q 1981 -91 1556 -91 
Q 1019 -91 701 211 
Q 384 513 384 1019 
Q 384 1609 779 1909 
Q 1175 2209 1959 2209 
L 2766 2209 
L 2766 2266 
Q 2766 2663 2505 2880 
Q 2244 3097 1772 3097 
Q 1472 3097 1187 3025 
Q 903 2953 641 2809 
L 641 3341 
Q 956 3463 1253 3523 
Q 1550 3584 1831 3584 
Q 2591 3584 2966 3190 
Q 3341 2797 3341 1997 
z
" transform="scale(0.015625)"/>
       <path id="DejaVuSans-72" d="M 2631 2963 
Q 2534 3019 2420 3045 
Q 2306 3072 2169 3072 
Q 1681 3072 1420 2755 
Q 1159 2438 1159 1844 
L 1159 0 
L 581 0 
L 581 3500 
L 1159 3500 
L 1159 2956 
Q 1341 3275 1631 3429 
Q 1922 3584 2338 3584 
Q 2397 3584 2469 3576 
Q 2541 3569 2628 3553 
L 2631 2963 
z
" transform="scale(0.015625)"/>
      </defs>
      <use xlink:href="#DejaVuSans-59"/>
      <use xlink:href="#DejaVuSans-65" x="47.833984"/>
      <use xlink:href="#DejaVuSans-61" x="109.357422"/>
      <use xlink:href="#DejaVuSans-72" x="170.636719"/>
     </g>
    </g>
   </g>
   <g id="matplotlib.axis_2">
    <g id="ytick_1">
     <g id="line2d_9">
      <defs>
       <path id="mfc6a62717d" d="M 0 0 
L -3.5 0 
" style="stroke: #000000; stroke-width: 0.8"/>
      </defs>
      <g>
       <use xlink:href="#mfc6a62717d" x="55.345313" y="186.84327" style="stroke: #000000; stroke-width: 0.8"/>
      </g>
     </g>
     <g id="text_10">
      <!-- 250 -->
      <g transform="translate(20.878125 190.642489) scale(0.1 -0.1)">
       <defs>
        <path id="DejaVuSans-2212" d="M 678 2272 
L 4684 2272 
L 4684 1741 
L 678 1741 
L 678 2272 
z
" transform="scale(0.015625)"/>
       </defs>
       <use xlink:href="#DejaVuSans-2212"/>
       <use xlink:href="#DejaVuSans-32" x="83.789062"/>
       <use xlink:href="#DejaVuSans-35" x="147.412109"/>
       <use xlink:href="#DejaVuSans-30" x="211.035156"/>
      </g>
     </g>
    </g>
    <g id="ytick_2">
     <g id="line2d_10">
      <g>
       <use xlink:href="#mfc6a62717d" x="55.345313" y="164.862764" style="stroke: #000000; stroke-width: 0.8"/>
      </g>
     </g>
     <g id="text_11">
      <!-- 200 -->
      <g transform="translate(20.878125 168.661982) scale(0.1 -0.1)">
       <use xlink:href="#DejaVuSans-2212"/>
       <use xlink:href="#DejaVuSans-32" x="83.789062"/>
       <use xlink:href="#DejaVuSans-30" x="147.412109"/>
       <use xlink:href="#DejaVuSans-30" x="211.035156"/>
      </g>
     </g>
    </g>
    <g id="ytick_3">
     <g id="line2d_11">
      <g>
       <use xlink:href="#mfc6a62717d" x="55.345313" y="142.882257" style="stroke: #000000; stroke-width: 0.8"/>
      </g>
     </g>
     <g id="text_12">
      <!-- 150 -->
      <g transform="translate(20.878125 146.681476) scale(0.1 -0.1)">
       <use xlink:href="#DejaVuSans-2212"/>
       <use xlink:href="#DejaVuSans-31" x="83.789062"/>
       <use xlink:href="#DejaVuSans-35" x="147.412109"/>
       <use xlink:href="#DejaVuSans-30" x="211.035156"/>
      </g>
     </g>
    </g>
    <g id="ytick_4">
     <g id="line2d_12">
      <g>
       <use xlink:href="#mfc6a62717d" x="55.345313" y="120.901751" style="stroke: #000000; stroke-width: 0.8"/>
      </g>
     </g>
     <g id="text_13">
      <!-- 100 -->
      <g transform="translate(20.878125 124.70097) scale(0.1 -0.1)">
       <use xlink:href="#DejaVuSans-2212"/>
       <use xlink:href="#DejaVuSans-31" x="83.789062"/>
       <use xlink:href="#DejaVuSans-30" x="147.412109"/>
       <use xlink:href="#DejaVuSans-30" x="211.035156"/>
      </g>
     </g>
    </g>
    <g id="ytick_5">
     <g id="line2d_13">
      <g>
       <use xlink:href="#mfc6a62717d" x="55.345313" y="98.921244" style="stroke: #000000; stroke-width: 0.8"/>
      </g>
     </g>
     <g id="text_14">
      <!-- 50 -->
      <g transform="translate(27.240625 102.720463) scale(0.1 -0.1)">
       <use xlink:href="#DejaVuSans-2212"/>
       <use xlink:href="#DejaVuSans-35" x="83.789062"/>
       <use xlink:href="#DejaVuSans-30" x="147.412109"/>
      </g>
     </g>
    </g>
    <g id="ytick_6">
     <g id="line2d_14">
      <g>
       <use xlink:href="#mfc6a62717d" x="55.345313" y="76.940738" style="stroke: #000000; stroke-width: 0.8"/>
      </g>
     </g>
     <g id="text_15">
      <!-- 0 -->
      <g transform="translate(41.982813 80.739957) scale(0.1 -0.1)">
       <use xlink:href="#DejaVuSans-30"/>
      </g>
     </g>
    </g>
    <g id="ytick_7">
     <g id="line2d_15">
      <g>
       <use xlink:href="#mfc6a62717d" x="55.345313" y="54.960232" style="stroke: #000000; stroke-width: 0.8"/>
      </g>
     </g>
     <g id="text_16">
      <!-- 50 -->
      <g transform="translate(35.620313 58.75945) scale(0.1 -0.1)">
       <use xlink:href="#DejaVuSans-35"/>
       <use xlink:href="#DejaVuSans-30" x="63.623047"/>
      </g>
     </g>
    </g>
    <g id="ytick_8">
     <g id="line2d_16">
      <g>
       <use xlink:href="#mfc6a62717d" x="55.345313" y="32.979725" style="stroke: #000000; stroke-width: 0.8"/>
      </g>
     </g>
     <g id="text_17">
      <!-- 100 -->
      <g transform="translate(29.257813 36.778944) scale(0.1 -0.1)">
       <use xlink:href="#DejaVuSans-31"/>
       <use xlink:href="#DejaVuSans-30" x="63.623047"/>
       <use xlink:href="#DejaVuSans-30" x="127.246094"/>
      </g>
     </g>
    </g>
    <g id="ytick_9">
     <g id="line2d_17">
      <g>
       <use xlink:href="#mfc6a62717d" x="55.345313" y="10.999219" style="stroke: #000000; stroke-width: 0.8"/>
      </g>
     </g>
     <g id="text_18">
      <!-- 150 -->
      <g transform="translate(29.257813 14.798438) scale(0.1 -0.1)">
       <use xlink:href="#DejaVuSans-31"/>
       <use xlink:href="#DejaVuSans-35" x="63.623047"/>
       <use xlink:href="#DejaVuSans-30" x="127.246094"/>
      </g>
     </g>
    </g>
    <g id="text_19">
     <!-- Surface Mass Balance [Gt/month] -->
     <g transform="translate(14.798437 182.914213) rotate(-90) scale(0.1 -0.1)">
      <defs>
       <path id="DejaVuSans-53" d="M 3425 4513 
L 3425 3897 
Q 3066 4069 2747 4153 
Q 2428 4238 2131 4238 
Q 1616 4238 1336 4038 
Q 1056 3838 1056 3469 
Q 1056 3159 1242 3001 
Q 1428 2844 1947 2747 
L 2328 2669 
Q 3034 2534 3370 2195 
Q 3706 1856 3706 1288 
Q 3706 609 3251 259 
Q 2797 -91 1919 -91 
Q 1588 -91 1214 -16 
Q 841 59 441 206 
L 441 856 
Q 825 641 1194 531 
Q 1563 422 1919 422 
Q 2459 422 2753 634 
Q 3047 847 3047 1241 
Q 3047 1584 2836 1778 
Q 2625 1972 2144 2069 
L 1759 2144 
Q 1053 2284 737 2584 
Q 422 2884 422 3419 
Q 422 4038 858 4394 
Q 1294 4750 2059 4750 
Q 2388 4750 2728 4690 
Q 3069 4631 3425 4513 
z
" transform="scale(0.015625)"/>
       <path id="DejaVuSans-75" d="M 544 1381 
L 544 3500 
L 1119 3500 
L 1119 1403 
Q 1119 906 1312 657 
Q 1506 409 1894 409 
Q 2359 409 2629 706 
Q 2900 1003 2900 1516 
L 2900 3500 
L 3475 3500 
L 3475 0 
L 2900 0 
L 2900 538 
Q 2691 219 2414 64 
Q 2138 -91 1772 -91 
Q 1169 -91 856 284 
Q 544 659 544 1381 
z
M 1991 3584 
L 1991 3584 
z
" transform="scale(0.015625)"/>
       <path id="DejaVuSans-66" d="M 2375 4863 
L 2375 4384 
L 1825 4384 
Q 1516 4384 1395 4259 
Q 1275 4134 1275 3809 
L 1275 3500 
L 2222 3500 
L 2222 3053 
L 1275 3053 
L 1275 0 
L 697 0 
L 697 3053 
L 147 3053 
L 147 3500 
L 697 3500 
L 697 3744 
Q 697 4328 969 4595 
Q 1241 4863 1831 4863 
L 2375 4863 
z
" transform="scale(0.015625)"/>
       <path id="DejaVuSans-63" d="M 3122 3366 
L 3122 2828 
Q 2878 2963 2633 3030 
Q 2388 3097 2138 3097 
Q 1578 3097 1268 2742 
Q 959 2388 959 1747 
Q 959 1106 1268 751 
Q 1578 397 2138 397 
Q 2388 397 2633 464 
Q 2878 531 3122 666 
L 3122 134 
Q 2881 22 2623 -34 
Q 2366 -91 2075 -91 
Q 1284 -91 818 406 
Q 353 903 353 1747 
Q 353 2603 823 3093 
Q 1294 3584 2113 3584 
Q 2378 3584 2631 3529 
Q 2884 3475 3122 3366 
z
" transform="scale(0.015625)"/>
       <path id="DejaVuSans-20" transform="scale(0.015625)"/>
       <path id="DejaVuSans-4d" d="M 628 4666 
L 1569 4666 
L 2759 1491 
L 3956 4666 
L 4897 4666 
L 4897 0 
L 4281 0 
L 4281 4097 
L 3078 897 
L 2444 897 
L 1241 4097 
L 1241 0 
L 628 0 
L 628 4666 
z
" transform="scale(0.015625)"/>
       <path id="DejaVuSans-73" d="M 2834 3397 
L 2834 2853 
Q 2591 2978 2328 3040 
Q 2066 3103 1784 3103 
Q 1356 3103 1142 2972 
Q 928 2841 928 2578 
Q 928 2378 1081 2264 
Q 1234 2150 1697 2047 
L 1894 2003 
Q 2506 1872 2764 1633 
Q 3022 1394 3022 966 
Q 3022 478 2636 193 
Q 2250 -91 1575 -91 
Q 1294 -91 989 -36 
Q 684 19 347 128 
L 347 722 
Q 666 556 975 473 
Q 1284 391 1588 391 
Q 1994 391 2212 530 
Q 2431 669 2431 922 
Q 2431 1156 2273 1281 
Q 2116 1406 1581 1522 
L 1381 1569 
Q 847 1681 609 1914 
Q 372 2147 372 2553 
Q 372 3047 722 3315 
Q 1072 3584 1716 3584 
Q 2034 3584 2315 3537 
Q 2597 3491 2834 3397 
z
" transform="scale(0.015625)"/>
       <path id="DejaVuSans-42" d="M 1259 2228 
L 1259 519 
L 2272 519 
Q 2781 519 3026 730 
Q 3272 941 3272 1375 
Q 3272 1813 3026 2020 
Q 2781 2228 2272 2228 
L 1259 2228 
z
M 1259 4147 
L 1259 2741 
L 2194 2741 
Q 2656 2741 2882 2914 
Q 3109 3088 3109 3444 
Q 3109 3797 2882 3972 
Q 2656 4147 2194 4147 
L 1259 4147 
z
M 628 4666 
L 2241 4666 
Q 2963 4666 3353 4366 
Q 3744 4066 3744 3513 
Q 3744 3084 3544 2831 
Q 3344 2578 2956 2516 
Q 3422 2416 3680 2098 
Q 3938 1781 3938 1306 
Q 3938 681 3513 340 
Q 3088 0 2303 0 
L 628 0 
L 628 4666 
z
" transform="scale(0.015625)"/>
       <path id="DejaVuSans-6c" d="M 603 4863 
L 1178 4863 
L 1178 0 
L 603 0 
L 603 4863 
z
" transform="scale(0.015625)"/>
       <path id="DejaVuSans-6e" d="M 3513 2113 
L 3513 0 
L 2938 0 
L 2938 2094 
Q 2938 2591 2744 2837 
Q 2550 3084 2163 3084 
Q 1697 3084 1428 2787 
Q 1159 2491 1159 1978 
L 1159 0 
L 581 0 
L 581 3500 
L 1159 3500 
L 1159 2956 
Q 1366 3272 1645 3428 
Q 1925 3584 2291 3584 
Q 2894 3584 3203 3211 
Q 3513 2838 3513 2113 
z
" transform="scale(0.015625)"/>
       <path id="DejaVuSans-5b" d="M 550 4863 
L 1875 4863 
L 1875 4416 
L 1125 4416 
L 1125 -397 
L 1875 -397 
L 1875 -844 
L 550 -844 
L 550 4863 
z
" transform="scale(0.015625)"/>
       <path id="DejaVuSans-47" d="M 3809 666 
L 3809 1919 
L 2778 1919 
L 2778 2438 
L 4434 2438 
L 4434 434 
Q 4069 175 3628 42 
Q 3188 -91 2688 -91 
Q 1594 -91 976 548 
Q 359 1188 359 2328 
Q 359 3472 976 4111 
Q 1594 4750 2688 4750 
Q 3144 4750 3555 4637 
Q 3966 4525 4313 4306 
L 4313 3634 
Q 3963 3931 3569 4081 
Q 3175 4231 2741 4231 
Q 1884 4231 1454 3753 
Q 1025 3275 1025 2328 
Q 1025 1384 1454 906 
Q 1884 428 2741 428 
Q 3075 428 3337 486 
Q 3600 544 3809 666 
z
" transform="scale(0.015625)"/>
       <path id="DejaVuSans-74" d="M 1172 4494 
L 1172 3500 
L 2356 3500 
L 2356 3053 
L 1172 3053 
L 1172 1153 
Q 1172 725 1289 603 
Q 1406 481 1766 481 
L 2356 481 
L 2356 0 
L 1766 0 
Q 1100 0 847 248 
Q 594 497 594 1153 
L 594 3053 
L 172 3053 
L 172 3500 
L 594 3500 
L 594 4494 
L 1172 4494 
z
" transform="scale(0.015625)"/>
       <path id="DejaVuSans-2f" d="M 1625 4666 
L 2156 4666 
L 531 -594 
L 0 -594 
L 1625 4666 
z
" transform="scale(0.015625)"/>
       <path id="DejaVuSans-6d" d="M 3328 2828 
Q 3544 3216 3844 3400 
Q 4144 3584 4550 3584 
Q 5097 3584 5394 3201 
Q 5691 2819 5691 2113 
L 5691 0 
L 5113 0 
L 5113 2094 
Q 5113 2597 4934 2840 
Q 4756 3084 4391 3084 
Q 3944 3084 3684 2787 
Q 3425 2491 3425 1978 
L 3425 0 
L 2847 0 
L 2847 2094 
Q 2847 2600 2669 2842 
Q 2491 3084 2119 3084 
Q 1678 3084 1418 2786 
Q 1159 2488 1159 1978 
L 1159 0 
L 581 0 
L 581 3500 
L 1159 3500 
L 1159 2956 
Q 1356 3278 1631 3431 
Q 1906 3584 2284 3584 
Q 2666 3584 2933 3390 
Q 3200 3197 3328 2828 
z
" transform="scale(0.015625)"/>
       <path id="DejaVuSans-6f" d="M 1959 3097 
Q 1497 3097 1228 2736 
Q 959 2375 959 1747 
Q 959 1119 1226 758 
Q 1494 397 1959 397 
Q 2419 397 2687 759 
Q 2956 1122 2956 1747 
Q 2956 2369 2687 2733 
Q 2419 3097 1959 3097 
z
M 1959 3584 
Q 2709 3584 3137 3096 
Q 3566 2609 3566 1747 
Q 3566 888 3137 398 
Q 2709 -91 1959 -91 
Q 1206 -91 779 398 
Q 353 888 353 1747 
Q 353 2609 779 3096 
Q 1206 3584 1959 3584 
z
" transform="scale(0.015625)"/>
       <path id="DejaVuSans-68" d="M 3513 2113 
L 3513 0 
L 2938 0 
L 2938 2094 
Q 2938 2591 2744 2837 
Q 2550 3084 2163 3084 
Q 1697 3084 1428 2787 
Q 1159 2491 1159 1978 
L 1159 0 
L 581 0 
L 581 4863 
L 1159 4863 
L 1159 2956 
Q 1366 3272 1645 3428 
Q 1925 3584 2291 3584 
Q 2894 3584 3203 3211 
Q 3513 2838 3513 2113 
z
" transform="scale(0.015625)"/>
       <path id="DejaVuSans-5d" d="M 1947 4863 
L 1947 -844 
L 622 -844 
L 622 -397 
L 1369 -397 
L 1369 4416 
L 622 4416 
L 622 4863 
L 1947 4863 
z
" transform="scale(0.015625)"/>
      </defs>
      <use xlink:href="#DejaVuSans-53"/>
      <use xlink:href="#DejaVuSans-75" x="63.476562"/>
      <use xlink:href="#DejaVuSans-72" x="126.855469"/>
      <use xlink:href="#DejaVuSans-66" x="167.96875"/>
      <use xlink:href="#DejaVuSans-61" x="203.173828"/>
      <use xlink:href="#DejaVuSans-63" x="264.453125"/>
      <use xlink:href="#DejaVuSans-65" x="319.433594"/>
      <use xlink:href="#DejaVuSans-20" x="380.957031"/>
      <use xlink:href="#DejaVuSans-4d" x="412.744141"/>
      <use xlink:href="#DejaVuSans-61" x="499.023438"/>
      <use xlink:href="#DejaVuSans-73" x="560.302734"/>
      <use xlink:href="#DejaVuSans-73" x="612.402344"/>
      <use xlink:href="#DejaVuSans-20" x="664.501953"/>
      <use xlink:href="#DejaVuSans-42" x="696.289062"/>
      <use xlink:href="#DejaVuSans-61" x="764.892578"/>
      <use xlink:href="#DejaVuSans-6c" x="826.171875"/>
      <use xlink:href="#DejaVuSans-61" x="853.955078"/>
      <use xlink:href="#DejaVuSans-6e" x="915.234375"/>
      <use xlink:href="#DejaVuSans-63" x="978.613281"/>
      <use xlink:href="#DejaVuSans-65" x="1033.59375"/>
      <use xlink:href="#DejaVuSans-20" x="1095.117188"/>
      <use xlink:href="#DejaVuSans-5b" x="1126.904297"/>
      <use xlink:href="#DejaVuSans-47" x="1165.917969"/>
      <use xlink:href="#DejaVuSans-74" x="1243.408203"/>
      <use xlink:href="#DejaVuSans-2f" x="1282.617188"/>
      <use xlink:href="#DejaVuSans-6d" x="1316.308594"/>
      <use xlink:href="#DejaVuSans-6f" x="1413.720703"/>
      <use xlink:href="#DejaVuSans-6e" x="1474.902344"/>
      <use xlink:href="#DejaVuSans-74" x="1538.28125"/>
      <use xlink:href="#DejaVuSans-68" x="1577.490234"/>
      <use xlink:href="#DejaVuSans-5d" x="1640.869141"/>
     </g>
    </g>
   </g>
   <g id="line2d_18">
    <path d="M 75.793231 42.943345 
L 76.267111 60.420839 
L 76.740991 58.873223 
L 77.214871 63.07863 
L 77.688751 56.442918 
L 78.636511 136.816787 
L 79.11039 93.315879 
L 79.58427 62.749376 
L 80.53203 46.944296 
L 81.00591 52.662785 
L 81.47979 60.94388 
L 81.95367 55.880792 
L 82.42755 60.309012 
L 82.90143 59.468911 
L 83.37531 51.274436 
L 83.84919 102.513826 
L 84.32307 119.772365 
L 85.270829 64.508388 
L 85.744709 54.258563 
L 86.218589 53.180236 
L 86.692469 63.310736 
L 87.166349 55.670031 
L 87.640229 54.220539 
L 88.114109 57.09966 
L 88.587989 61.838589 
L 89.061869 59.225595 
L 89.535749 86.88162 
L 90.009629 103.880514 
L 90.483509 102.86131 
L 90.957388 46.618717 
L 91.431268 36.289389 
L 91.905148 48.952746 
L 92.379028 55.224921 
L 92.852908 51.667005 
L 93.800668 54.77221 
L 94.274548 62.618748 
L 94.748428 60.075664 
L 95.222308 72.309973 
L 95.696188 112.229354 
L 96.170068 86.297058 
L 96.643947 47.721853 
L 97.117827 55.671842 
L 97.591707 51.018915 
L 98.065587 49.60655 
L 98.539467 39.903453 
L 99.013347 45.416713 
L 99.487227 58.807106 
L 99.961107 50.822107 
L 100.434987 61.065919 
L 100.908867 74.357677 
L 101.382747 98.003036 
L 102.804386 47.28531 
L 103.278266 40.901356 
L 103.752146 55.648727 
L 104.226026 61.155412 
L 104.699906 60.201377 
L 105.173786 49.434003 
L 105.647666 53.880164 
L 106.121546 53.921642 
L 106.595426 82.918535 
L 107.069306 76.54684 
L 107.543186 74.273323 
L 108.017066 44.411215 
L 108.490945 45.409337 
L 108.964825 50.062834 
L 109.438705 64.149402 
L 110.386465 44.328377 
L 110.860345 48.155506 
L 111.334225 60.784673 
L 111.808105 59.316436 
L 112.755865 114.70042 
L 113.229745 87.396418 
L 113.703625 52.058717 
L 114.177504 40.328667 
L 114.651384 36.778307 
L 115.125264 40.476968 
L 115.599144 45.69967 
L 116.073024 70.513504 
L 116.546904 66.970358 
L 117.020784 54.753968 
L 117.494664 57.895023 
L 118.442424 139.483862 
L 119.390184 58.390883 
L 119.864064 44.309869 
L 120.337943 41.777878 
L 120.811823 55.689237 
L 121.285703 58.221992 
L 121.759583 56.325073 
L 122.233463 51.817023 
L 122.707343 52.820185 
L 123.181223 65.171426 
L 123.655103 89.541749 
L 124.128983 124.385899 
L 125.076743 36.987034 
L 125.550623 44.847791 
L 126.498382 52.011971 
L 126.972262 60.45221 
L 127.446142 50.620285 
L 127.920022 52.662646 
L 128.393902 65.165974 
L 128.867782 65.763738 
L 129.341662 94.446025 
L 129.815542 114.692674 
L 130.763302 38.939758 
L 131.237182 33.824402 
L 131.711062 54.160309 
L 132.184941 50.960681 
L 132.658821 49.701687 
L 133.132701 54.046323 
L 133.606581 42.250467 
L 134.080461 59.530871 
L 134.554341 59.357456 
L 135.502101 129.442536 
L 135.975981 99.085465 
L 136.449861 50.814486 
L 136.923741 45.822496 
L 137.397621 51.252835 
L 137.8715 55.13243 
L 138.34538 48.184065 
L 138.81926 57.72041 
L 139.29314 58.640047 
L 139.76702 61.799003 
L 140.2409 54.507242 
L 140.71478 81.973243 
L 141.18866 98.490029 
L 142.13642 52.458906 
L 142.6103 46.11595 
L 143.08418 53.436333 
L 143.558059 58.063759 
L 144.031939 55.418581 
L 144.505819 55.109444 
L 144.979699 63.648435 
L 145.453579 54.186785 
L 145.927459 64.839172 
L 146.401339 85.600788 
L 146.875219 116.88563 
L 147.349099 75.593766 
L 147.822979 54.193 
L 148.296859 52.528886 
L 148.770739 47.911697 
L 149.244619 51.141213 
L 149.718498 48.266177 
L 150.192378 55.553378 
L 150.666258 54.328206 
L 151.140138 59.268257 
L 151.614018 60.57718 
L 152.087898 74.720775 
L 152.561778 100.651694 
L 153.035658 83.314934 
L 153.509538 48.419271 
L 153.983418 53.457643 
L 154.457298 54.609185 
L 155.405057 42.04499 
L 155.878937 42.444014 
L 156.352817 38.860167 
L 156.826697 59.301051 
L 157.300577 61.541697 
L 157.774457 70.51293 
L 158.248337 67.670204 
L 158.722217 76.060951 
L 159.196097 58.407676 
L 159.669977 44.950912 
L 160.143857 56.34703 
L 160.617737 54.352568 
L 161.565496 36.843973 
L 162.039376 61.272848 
L 162.513256 59.172648 
L 162.987136 69.899925 
L 163.461016 77.194634 
L 163.934896 101.911992 
L 164.408776 86.716174 
L 164.882656 56.002871 
L 165.356536 48.952728 
L 166.304296 64.549302 
L 166.778176 63.788181 
L 167.252055 67.509376 
L 167.725935 63.546002 
L 168.199815 63.483158 
L 168.673695 74.004512 
L 169.621455 110.87916 
L 170.095335 94.532364 
L 170.569215 49.169098 
L 171.043095 47.677406 
L 171.516975 49.097224 
L 171.990855 57.098743 
L 172.464735 46.813236 
L 172.938615 50.923517 
L 173.412494 65.365291 
L 173.886374 56.298317 
L 174.834134 78.078403 
L 175.308014 104.259285 
L 176.255774 33.505464 
L 176.729654 57.077711 
L 177.203534 50.610487 
L 177.677414 60.423808 
L 178.151294 62.756588 
L 178.625174 54.620146 
L 179.099053 53.190231 
L 179.572933 54.139127 
L 180.046813 68.921791 
L 180.994573 115.870275 
L 181.468453 77.65126 
L 181.942333 51.225023 
L 182.416213 55.223868 
L 182.890093 49.562735 
L 183.363973 56.659873 
L 183.837853 61.197484 
L 184.311733 53.706835 
L 184.785612 59.311128 
L 185.259492 59.723014 
L 185.733372 59.054999 
L 186.681132 98.284318 
L 187.155012 83.0393 
L 187.628892 55.670467 
L 188.102772 56.067732 
L 188.576652 39.621227 
L 189.524412 52.596532 
L 189.998292 57.554286 
L 190.472172 59.467601 
L 190.946051 59.193905 
L 191.419931 59.769573 
L 191.893811 72.928226 
L 192.367691 99.42745 
L 192.841571 67.034888 
L 193.315451 47.158811 
L 193.789331 46.397844 
L 194.263211 53.512835 
L 194.737091 47.283727 
L 195.210971 61.700147 
L 195.684851 61.508196 
L 196.158731 66.387066 
L 196.63261 62.356322 
L 197.10649 60.98852 
L 197.58037 93.210852 
L 198.05425 115.358792 
L 198.52813 71.015606 
L 199.00201 51.582551 
L 199.47589 58.757076 
L 199.94977 48.271442 
L 200.42365 48.066917 
L 200.89753 29.498567 
L 201.37141 52.318063 
L 201.84529 51.122713 
L 202.31917 56.856395 
L 202.793049 51.984305 
L 203.266929 63.676082 
L 203.740809 70.649518 
L 204.688569 45.393401 
L 205.162449 45.135635 
L 205.636329 58.052754 
L 206.110209 53.553113 
L 206.584089 46.156694 
L 207.057969 63.79282 
L 208.005729 50.724959 
L 208.479608 60.512872 
L 209.427368 88.595263 
L 209.901248 69.842196 
L 210.375128 46.631957 
L 210.849008 57.096461 
L 211.322888 62.223118 
L 211.796768 56.371616 
L 212.270648 56.258893 
L 212.744528 58.028138 
L 213.218408 47.966726 
L 213.692288 54.698521 
L 214.166167 65.415092 
L 214.640047 73.350832 
L 215.113927 107.105953 
L 215.587807 85.24763 
L 216.061687 53.08097 
L 216.535567 38.454571 
L 217.009447 49.022402 
L 217.483327 66.475803 
L 217.957207 63.749166 
L 218.431087 47.590767 
L 218.904967 48.936016 
L 219.378847 53.17272 
L 219.852727 61.571957 
L 220.800486 90.382478 
L 221.748246 54.074396 
L 222.222126 52.687014 
L 222.696006 49.267246 
L 223.169886 52.503631 
L 223.643766 56.5399 
L 224.591526 40.583169 
L 225.065406 56.287111 
L 225.539286 64.216002 
L 226.487045 90.142277 
L 226.960925 53.508036 
L 227.434805 42.344268 
L 227.908685 39.416167 
L 228.382565 51.821631 
L 228.856445 51.279313 
L 229.330325 61.332665 
L 229.804205 59.515594 
L 230.278085 61.06347 
L 231.225845 54.662357 
L 231.699725 74.813378 
L 232.173604 107.549313 
L 233.121364 48.420529 
L 233.595244 56.685161 
L 234.069124 44.961142 
L 234.543004 44.704088 
L 235.490764 65.011292 
L 235.964644 59.532043 
L 236.438524 51.956654 
L 236.912404 54.970453 
L 237.386284 67.751829 
L 237.860163 110.040606 
L 238.807923 53.08581 
L 239.281803 41.95562 
L 239.755683 56.370155 
L 240.229563 50.454718 
L 240.703443 50.819609 
L 241.177323 54.350812 
L 241.651203 51.836376 
L 242.125083 61.520565 
L 242.598963 63.650564 
L 243.072843 69.959118 
L 243.546722 101.125215 
L 244.494482 58.645328 
L 244.968362 51.699864 
L 245.442242 55.929872 
L 245.916122 48.761424 
L 246.390002 46.926554 
L 246.863882 50.960706 
L 247.337762 51.632786 
L 247.811642 55.495249 
L 248.285522 63.370075 
L 248.759402 87.111774 
L 249.233282 100.641942 
L 249.707161 75.855813 
L 250.181041 58.580907 
L 250.654921 56.221653 
L 251.128801 50.176262 
L 251.602681 59.416193 
L 252.076561 59.407502 
L 252.550441 62.175336 
L 253.024321 59.607326 
L 253.498201 50.604959 
L 253.972081 65.648826 
L 254.445961 94.643732 
L 254.919841 101.613373 
L 255.39372 70.315777 
L 255.8676 55.371857 
L 256.34148 52.587086 
L 257.28924 58.815609 
L 257.76312 56.382339 
L 258.237 51.253764 
L 258.71088 53.512463 
L 259.18476 58.709562 
L 260.13252 92.99415 
L 260.6064 94.437779 
L 261.08028 70.090529 
L 261.554159 55.951326 
L 262.028039 54.499028 
L 262.501919 56.023903 
L 262.975799 53.701406 
L 263.449679 52.221085 
L 263.923559 47.28731 
L 264.397439 55.350625 
L 264.871319 53.195907 
L 265.819079 73.271427 
L 266.292959 75.286472 
L 266.766839 56.310056 
L 267.240718 53.55133 
L 267.714598 50.098655 
L 268.188478 48.71871 
L 268.662358 59.825142 
L 269.136238 56.001707 
L 269.610118 53.658701 
L 270.083998 51.9121 
L 270.557878 51.883943 
L 271.031758 56.805691 
L 271.505638 86.440197 
L 271.979518 100.492993 
L 272.453398 54.324682 
L 272.927277 49.872445 
L 273.401157 54.250468 
L 273.875037 50.042058 
L 274.348917 42.188572 
L 275.296677 54.869103 
L 276.244437 58.616709 
L 276.718317 65.116243 
L 277.192197 91.85215 
L 277.666077 101.749245 
L 278.139957 78.412958 
L 279.087716 47.339364 
L 279.561596 48.868277 
L 280.035476 57.505041 
L 280.509356 47.228622 
L 280.983236 50.333692 
L 281.457116 51.758049 
L 281.930996 51.820717 
L 282.878756 79.407944 
L 283.352636 85.574334 
L 283.826516 62.026038 
L 284.300396 49.384623 
L 284.774275 57.373498 
L 285.248155 57.312827 
L 285.722035 39.32399 
L 286.195915 37.599046 
L 286.669795 54.220193 
L 287.143675 49.677125 
L 287.617555 46.850046 
L 288.091435 59.835647 
L 288.565315 94.33419 
L 289.039195 105.691139 
L 289.513075 87.83367 
L 289.986955 54.097832 
L 290.460835 50.45385 
L 290.934714 47.841947 
L 291.408594 55.355003 
L 291.882474 56.824598 
L 292.356354 54.04086 
L 292.830234 59.377489 
L 293.304114 58.848106 
L 293.777994 55.132599 
L 294.251874 79.19301 
L 294.725754 110.485145 
L 295.199634 78.989095 
L 295.673514 55.105768 
L 296.147394 48.993541 
L 296.621273 50.210149 
L 297.569033 63.33636 
L 298.042913 64.823491 
L 298.516793 63.057175 
L 298.990673 63.716219 
L 299.464553 66.113092 
L 299.938433 89.306012 
L 300.412313 102.827488 
L 300.886193 72.881815 
L 301.360073 50.796586 
L 301.833953 50.124363 
L 302.307833 45.901272 
L 302.781712 51.681301 
L 303.255592 60.964347 
L 303.729472 64.254465 
L 304.203352 61.847892 
L 304.677232 56.134351 
L 305.151112 63.711471 
L 305.624992 98.236191 
L 306.098872 104.782271 
L 307.046632 48.080076 
L 307.520512 46.111971 
L 307.994392 42.40917 
L 308.468271 43.551815 
L 308.942151 47.753783 
L 309.416031 50.874987 
L 309.889911 59.810876 
L 310.363791 59.351792 
L 310.837671 61.467711 
L 311.311551 99.833716 
L 311.785431 106.908297 
L 312.259311 69.031779 
L 312.733191 50.690057 
L 313.207071 45.628498 
L 313.680951 52.31702 
L 314.15483 43.400464 
L 314.62871 46.190056 
L 315.10259 55.777204 
L 315.57647 59.297794 
L 316.05035 59.197111 
L 316.52423 56.20948 
L 316.99811 68.173487 
L 317.47199 85.303655 
L 318.41975 47.649997 
L 318.89363 43.176823 
L 319.36751 54.503901 
L 319.84139 57.574006 
L 320.315269 55.94497 
L 320.789149 47.675635 
L 321.263029 53.984817 
L 321.736909 57.943797 
L 322.210789 70.039376 
L 322.684669 98.406997 
L 323.158549 107.572949 
L 323.632429 68.750399 
L 324.106309 50.291257 
L 324.580189 40.657395 
L 325.054069 43.836403 
L 325.527949 58.598368 
L 326.475708 52.909965 
L 326.949588 59.976229 
L 327.423468 55.913475 
L 327.897348 62.889682 
L 328.845108 100.574571 
L 329.318988 68.820635 
L 329.792868 54.676627 
L 330.266748 58.776443 
L 330.740628 55.96693 
L 331.214508 59.991654 
L 331.688388 65.838228 
L 332.162267 64.581744 
L 332.636147 61.822164 
L 333.110027 64.41234 
L 333.583907 70.413955 
L 334.057787 95.445096 
L 334.531667 109.152544 
L 335.005547 72.400542 
L 335.479427 52.374729 
L 335.953307 52.200617 
L 336.427187 39.721775 
L 336.901067 44.4888 
L 337.374947 41.701239 
L 337.848826 40.987696 
L 338.322706 43.255659 
L 338.796586 57.735788 
L 339.270466 67.122173 
L 339.744346 84.206756 
L 340.218226 87.123287 
L 340.692106 59.404068 
L 341.165986 46.689385 
L 341.639866 52.569632 
L 342.113746 46.758732 
L 342.587626 43.628846 
L 343.061506 49.687571 
L 343.535385 61.287843 
L 344.009265 58.539195 
L 344.483145 53.615525 
L 345.430905 90.7198 
L 345.904785 87.687762 
L 346.378665 61.195537 
L 346.852545 43.288744 
L 347.326425 46.826053 
L 347.800305 49.137986 
L 348.274185 45.786966 
L 348.748065 55.685905 
L 349.221945 56.484608 
L 349.695824 52.48627 
L 350.169704 53.523972 
L 350.643584 66.063444 
L 351.117464 109.760872 
L 351.591344 111.654294 
L 352.065224 78.320214 
L 353.012984 53.52319 
L 353.486864 50.749446 
L 353.960744 56.442524 
L 354.434624 53.534637 
L 354.908504 53.82238 
L 355.382383 59.831306 
L 355.856263 53.867621 
L 356.330143 53.692405 
L 357.277903 108.788067 
L 357.751783 71.048527 
L 358.225663 50.03029 
L 358.699543 46.639629 
L 359.173423 46.760961 
L 359.647303 52.690398 
L 360.121183 49.661796 
L 360.595063 59.361243 
L 361.542822 51.177088 
L 362.016702 66.995143 
L 362.490582 92.343808 
L 362.964462 91.106533 
L 363.912222 48.351342 
L 364.386102 54.532568 
L 364.859982 53.512805 
L 365.333862 57.389449 
L 365.807742 49.240303 
L 366.281622 57.096936 
L 366.755502 62.124761 
L 367.229381 57.158299 
L 367.703261 59.328402 
L 368.177141 85.982717 
L 368.651021 103.251314 
L 369.124901 82.362643 
L 369.598781 49.608403 
L 370.072661 46.576838 
L 370.546541 35.28383 
L 371.020421 40.426162 
L 371.494301 55.46116 
L 371.968181 63.958195 
L 372.442061 61.621621 
L 372.91594 62.416825 
L 373.38982 72.933724 
L 373.8637 100.820034 
L 374.33758 105.509623 
L 374.81146 66.932315 
L 375.28534 47.499473 
L 375.75922 44.126072 
L 376.2331 42.743541 
L 376.70698 42.235097 
L 377.18086 48.60254 
L 377.65474 50.305555 
L 378.12862 45.970766 
L 378.6025 46.744906 
L 379.076379 74.124896 
L 379.550259 115.874879 
L 380.024139 115.796967 
L 380.971899 46.519424 
L 381.445779 44.939252 
L 381.919659 52.835071 
L 382.393539 57.289775 
L 382.867419 58.388314 
L 383.341299 45.750254 
L 383.815179 44.610145 
L 384.762938 71.614537 
L 385.236818 95.283918 
L 385.710698 100.476249 
L 386.658458 51.974942 
L 387.132338 49.160891 
L 387.606218 55.350105 
L 388.080098 54.711477 
L 388.553978 43.215174 
L 389.027858 42.745121 
L 389.501738 46.255485 
L 389.975618 54.242169 
L 390.449498 70.500473 
L 390.923377 104.523401 
L 391.397257 119.498614 
L 391.871137 85.787161 
L 392.345017 61.036385 
L 393.292777 44.240212 
L 394.240537 52.305169 
L 394.714417 61.184266 
L 395.188297 62.136785 
L 395.662177 55.221129 
L 396.136057 63.652128 
L 396.609936 84.104124 
L 397.083816 109.786239 
L 398.031576 61.725249 
L 398.505456 62.191667 
L 398.979336 56.791591 
L 399.453216 47.489621 
L 399.927096 51.579827 
L 400.400976 57.12069 
L 400.874856 54.172021 
L 401.348736 56.488443 
L 401.822616 71.762074 
L 402.296495 110.33027 
L 402.770375 133.750223 
L 403.718135 49.366979 
L 404.192015 49.851261 
L 404.665895 45.327645 
L 405.139775 52.623155 
L 405.613655 55.179891 
L 406.087535 54.35905 
L 406.561415 58.21603 
L 407.035295 58.923169 
L 407.509175 72.901048 
L 407.983055 113.382193 
L 408.456934 122.7066 
L 408.930814 76.377272 
L 409.404694 42.521736 
L 409.878574 41.918254 
L 410.352454 42.014035 
L 410.826334 47.812192 
L 411.300214 57.429029 
L 411.774094 61.579881 
L 412.247974 58.98526 
L 412.721854 55.114633 
L 413.195734 64.797359 
L 414.143493 125.077394 
L 415.091253 50.021903 
L 415.565133 55.639558 
L 416.039013 55.052657 
L 416.512893 43.453417 
L 416.986773 45.600255 
L 417.460653 58.975157 
L 417.934533 63.320117 
L 418.408413 64.393035 
L 418.882293 79.107893 
L 419.356173 122.083733 
L 419.830053 136.922148 
L 420.777812 53.78704 
L 421.251692 55.337805 
L 421.725572 52.308903 
L 422.199452 47.515461 
L 422.673332 51.804339 
L 423.147212 52.083262 
L 423.621092 56.922749 
L 424.094972 54.553301 
L 424.568852 76.361412 
L 425.042732 119.457034 
L 425.516612 135.833283 
L 425.990491 88.375755 
L 426.464371 54.43269 
L 427.412131 51.446335 
L 427.886011 57.337518 
L 428.359891 51.016352 
L 428.833771 48.722393 
L 429.307651 47.413496 
L 429.781531 55.276477 
L 430.255411 82.13096 
L 430.729291 142.229159 
L 431.203171 161.28723 
L 432.15093 49.024078 
L 432.62481 43.03092 
L 433.09869 52.534258 
L 433.57257 50.620931 
L 434.04645 45.263333 
L 434.52033 54.982744 
L 434.99421 60.952318 
L 435.46809 57.896262 
L 435.94197 62.852731 
L 436.41585 97.825967 
L 436.88973 105.952035 
L 437.36361 63.778234 
L 437.837489 41.024711 
L 438.311369 50.640316 
L 438.785249 52.181224 
L 439.259129 55.267255 
L 439.733009 52.25548 
L 440.206889 57.368321 
L 440.680769 54.111682 
L 441.154649 53.227915 
L 441.628529 69.658808 
L 442.102409 106.025224 
L 442.576289 123.0056 
L 443.050169 78.482967 
L 443.524048 47.100372 
L 443.997928 51.054925 
L 444.471808 42.694488 
L 444.945688 49.272471 
L 445.419568 53.721309 
L 445.893448 56.186774 
L 446.367328 55.629301 
L 446.841208 55.300941 
L 447.315088 66.321306 
L 447.788968 114.380814 
L 448.262848 133.701456 
L 448.736728 70.720883 
L 449.210608 39.002775 
L 449.684487 42.69218 
L 450.158367 53.09509 
L 450.632247 53.506707 
L 451.106127 54.395685 
L 451.580007 57.535079 
L 452.053887 51.318592 
L 452.527767 51.843937 
L 453.001647 71.174685 
L 453.475527 122.341646 
L 453.949407 144.244172 
L 454.423287 88.195816 
L 454.897167 48.280119 
L 455.371046 30.371857 
L 455.844926 42.849182 
L 456.318806 50.316139 
L 456.792686 47.837897 
L 457.266566 51.120951 
L 457.740446 58.941163 
L 458.214326 53.999745 
L 458.688206 65.917252 
L 459.162086 97.562773 
L 459.635966 101.784408 
L 460.109846 65.21888 
L 460.583726 40.457799 
L 461.057606 44.28875 
L 461.531485 54.811579 
L 462.005365 57.947378 
L 462.479245 49.822518 
L 462.953125 46.428022 
L 463.427005 58.902027 
L 463.900885 55.500397 
L 464.374765 59.257068 
L 464.848645 82.836625 
L 465.322525 98.066897 
L 465.796405 80.058625 
L 466.270285 53.123761 
L 466.744165 53.303883 
L 467.691924 54.352863 
L 468.165804 53.637139 
L 468.639684 59.926482 
L 469.113564 50.80887 
L 469.587444 47.430731 
L 471.009084 148.379263 
L 471.956844 54.192725 
L 472.430724 49.914414 
L 472.904603 49.009631 
L 473.378483 58.363543 
L 473.852363 56.570897 
L 474.326243 59.64356 
L 474.800123 54.373597 
L 475.274003 54.303735 
L 475.747883 68.007245 
L 476.695643 117.629779 
L 477.169523 75.003436 
L 477.643403 52.850078 
L 478.117283 44.900738 
L 478.591163 50.18679 
L 479.065042 53.50151 
L 479.538922 54.784094 
L 480.012802 50.965294 
L 480.486682 52.917034 
L 480.960562 53.782819 
L 481.434442 68.454738 
L 481.908322 95.699129 
L 482.382202 110.705436 
L 482.856082 90.942198 
L 483.329962 55.053785 
L 483.803842 52.330077 
L 484.277722 48.07756 
L 484.751601 52.763507 
L 484.751601 52.763507 
" clip-path="url(#p53785abad4)" style="fill: none; stroke: #000000; stroke-width: 1.5; stroke-linecap: square"/>
   </g>
   <g id="patch_3">
    <path d="M 55.345313 186.84327 
L 55.345313 10.999219 
" style="fill: none; stroke: #000000; stroke-width: 0.8; stroke-linejoin: miter; stroke-linecap: square"/>
   </g>
   <g id="patch_4">
    <path d="M 505.19952 186.84327 
L 505.19952 10.999219 
" style="fill: none; stroke: #000000; stroke-width: 0.8; stroke-linejoin: miter; stroke-linecap: square"/>
   </g>
   <g id="patch_5">
    <path d="M 55.345312 186.84327 
L 505.19952 186.84327 
" style="fill: none; stroke: #000000; stroke-width: 0.8; stroke-linejoin: miter; stroke-linecap: square"/>
   </g>
   <g id="patch_6">
    <path d="M 55.345312 10.999219 
L 505.19952 10.999219 
" style="fill: none; stroke: #000000; stroke-width: 0.8; stroke-linejoin: miter; stroke-linecap: square"/>
   </g>
  </g>
 </g>
 <defs>
  <clipPath id="p53785abad4">
   <rect x="55.345313" y="10.999219" width="449.854208" height="175.844051"/>
  </clipPath>
 </defs>
</svg>
