<?xml version="1.0" encoding="utf-8" standalone="no"?>
<!DOCTYPE svg PUBLIC "-//W3C//DTD SVG 1.1//EN"
  "http://www.w3.org/Graphics/SVG/1.1/DTD/svg11.dtd">
<svg xmlns:xlink="http://www.w3.org/1999/xlink" width="512.39952pt" height="224.39952pt" viewBox="0 0 512.39952 224.39952" xmlns="http://www.w3.org/2000/svg" version="1.1">
 <metadata>
  <rdf:RDF xmlns:dc="http://purl.org/dc/elements/1.1/" xmlns:cc="http://creativecommons.org/ns#" xmlns:rdf="http://www.w3.org/1999/02/22-rdf-syntax-ns#">
   <cc:Work>
    <dc:type rdf:resource="http://purl.org/dc/dcmitype/StillImage"/>
    <dc:date>2023-01-30T12:46:52.928365</dc:date>
    <dc:format>image/svg+xml</dc:format>
    <dc:creator>
     <cc:Agent>
      <dc:title>Matplotlib v3.5.1, https://matplotlib.org/</dc:title>
     </cc:Agent>
    </dc:creator>
   </cc:Work>
  </rdf:RDF>
 </metadata>
 <defs>
  <style type="text/css">*{stroke-linejoin: round; stroke-linecap: butt}</style>
 </defs>
 <g id="figure_1">
  <g id="patch_1">
   <path d="M 0 224.39952 
L 512.39952 224.39952 
L 512.39952 0 
L 0 0 
z
" style="fill: #ffffff"/>
  </g>
  <g id="axes_1">
   <g id="patch_2">
    <path d="M 46.965625 186.84327 
L 505.19952 186.84327 
L 505.19952 22.318125 
L 46.965625 22.318125 
z
" style="fill: #ffffff"/>
   </g>
   <g id="PolyCollection_1">
    <path d="M 67.794438 149.689981 
L 67.794438 162.07441 
L 68.601757 156.556189 
L 69.409075 134.900233 
L 70.216393 135.149493 
L 71.023712 140.214283 
L 71.83103 138.90806 
L 72.638349 135.854578 
L 73.445667 133.892812 
L 74.252985 137.064144 
L 75.060304 147.537206 
L 75.867622 139.354262 
L 76.67494 156.2325 
L 77.482259 160.9332 
L 78.289577 145.853255 
L 79.096895 129.576734 
L 79.904214 130.244281 
L 80.711532 127.692842 
L 81.51885 119.313947 
L 82.326169 130.580023 
L 83.133487 123.123994 
L 83.940805 142.163209 
L 84.748124 141.809101 
L 85.555442 153.829074 
L 86.36276 157.956623 
L 87.170079 163.385846 
L 87.977397 149.247972 
L 88.784715 139.959196 
L 89.592034 137.586154 
L 90.399352 125.674041 
L 91.206671 120.181815 
L 92.013989 113.556893 
L 92.821307 118.355511 
L 93.628626 127.688443 
L 94.435944 139.068162 
L 95.243262 142.101353 
L 96.050581 142.954898 
L 96.857899 149.52519 
L 97.665217 157.272882 
L 98.472536 146.96841 
L 99.279854 135.520906 
L 100.087172 126.560877 
L 100.894491 106.206483 
L 101.701809 112.746367 
L 102.509127 133.351464 
L 103.316446 151.422466 
L 104.123764 141.871412 
L 104.931082 146.053811 
L 105.738401 155.08267 
L 106.545719 157.589343 
L 107.353038 157.529594 
L 108.160356 143.573199 
L 108.967674 133.162911 
L 109.774993 136.620861 
L 110.582311 131.548734 
L 111.389629 134.980269 
L 112.196948 146.699228 
L 113.004266 134.719202 
L 113.811584 131.605611 
L 114.618903 155.413221 
L 115.426221 153.853603 
L 116.233539 152.135132 
L 117.040858 148.023462 
L 117.848176 138.925037 
L 118.655494 119.382233 
L 119.462813 124.314427 
L 120.270131 130.251843 
L 121.077449 148.193095 
L 121.884768 141.033365 
L 122.692086 134.746089 
L 123.499405 139.387225 
L 124.306723 142.767472 
L 125.114041 156.650643 
L 125.92136 159.840674 
L 126.728678 158.124238 
L 127.535996 145.151737 
L 128.343315 129.758568 
L 129.150633 132.162231 
L 129.957951 138.200324 
L 130.76527 132.872583 
L 131.572588 123.274824 
L 132.379906 136.125241 
L 133.187225 148.487176 
L 133.994543 153.200616 
L 134.801861 143.548829 
L 135.60918 151.918032 
L 136.416498 149.276479 
L 137.223816 139.198737 
L 138.031135 133.727975 
L 138.838453 138.837095 
L 139.645771 139.277547 
L 140.45309 130.966943 
L 141.260408 127.677184 
L 142.067727 132.286081 
L 142.875045 133.921781 
L 143.682363 138.005254 
L 144.489682 157.432031 
L 145.297 159.272205 
L 146.104318 156.119912 
L 146.911637 145.479162 
L 147.718955 139.108955 
L 148.526273 144.537703 
L 149.333592 137.440533 
L 150.14091 132.6606 
L 150.948228 145.656341 
L 151.755547 151.527616 
L 152.562865 145.095322 
L 153.370183 145.779371 
L 154.177502 157.602723 
L 154.98482 161.684521 
L 155.792138 149.487199 
L 156.599457 148.655627 
L 157.406775 128.874455 
L 158.214094 129.681063 
L 159.021412 137.946956 
L 159.82873 142.630164 
L 160.636049 139.828906 
L 161.443367 139.442813 
L 162.250685 146.441755 
L 163.058004 161.535865 
L 163.865322 160.442947 
L 164.67264 164.848743 
L 165.479959 158.309157 
L 166.287277 138.665187 
L 167.094595 139.660982 
L 167.901914 138.046473 
L 168.709232 138.938491 
L 169.51655 134.799326 
L 170.323869 132.71815 
L 171.131187 137.910806 
L 171.938505 139.660483 
L 172.745824 148.321216 
L 173.553142 156.101924 
L 174.360461 150.049244 
L 175.167779 149.96313 
L 175.975097 142.570434 
L 176.782416 135.720331 
L 177.589734 134.25821 
L 178.397052 142.484466 
L 179.204371 133.479387 
L 180.011689 122.386117 
L 180.819007 138.152378 
L 181.626326 147.946309 
L 182.433644 149.827823 
L 183.240962 148.4504 
L 184.048281 156.485694 
L 184.855599 145.365088 
L 185.662917 131.411277 
L 186.470236 121.516973 
L 187.277554 129.473194 
L 188.084872 130.132632 
L 188.892191 130.1225 
L 189.699509 132.10447 
L 190.506827 139.501784 
L 191.314146 145.031307 
L 192.121464 155.42202 
L 192.928783 162.370499 
L 193.736101 164.438132 
L 194.543419 156.436764 
L 195.350738 145.080539 
L 196.158056 124.44548 
L 196.965374 119.652226 
L 197.772693 130.198294 
L 198.580011 134.25048 
L 199.387329 125.574553 
L 200.194648 128.121918 
L 201.001966 151.739424 
L 201.809284 139.706345 
L 202.616603 141.252904 
L 203.423921 160.380031 
L 204.231239 148.925864 
L 205.038558 132.257052 
L 205.845876 135.857151 
L 206.653194 144.139552 
L 207.460513 141.471538 
L 208.267831 135.974539 
L 209.07515 131.216971 
L 209.882468 136.379658 
L 210.689786 146.199359 
L 211.497105 152.043798 
L 212.304423 153.349974 
L 213.111741 145.569261 
L 213.91906 159.90405 
L 214.726378 146.186967 
L 215.533696 144.68461 
L 216.341015 140.032099 
L 217.148333 140.778792 
L 217.955651 144.160693 
L 218.76297 142.208823 
L 219.570288 142.069779 
L 220.377606 134.859684 
L 221.184925 152.879164 
L 221.992243 159.548356 
L 222.799561 154.468578 
L 223.60688 153.377971 
L 224.414198 142.555284 
L 225.221517 133.524988 
L 226.028835 129.473695 
L 226.836153 137.106371 
L 227.643472 126.603564 
L 228.45079 128.447319 
L 229.258108 129.894533 
L 230.065427 143.862539 
L 230.872745 156.932698 
L 231.680063 162.274168 
L 232.487382 156.136887 
L 233.2947 150.40397 
L 234.102018 131.492614 
L 234.909337 120.504647 
L 235.716655 130.83151 
L 236.523973 139.453471 
L 237.331292 125.61309 
L 238.13861 128.476752 
L 238.945928 143.708167 
L 239.753247 147.398254 
L 240.560565 153.530044 
L 241.367883 152.02531 
L 242.175202 161.024744 
L 242.98252 152.243877 
L 243.789839 138.960593 
L 244.597157 135.391748 
L 245.404475 141.428803 
L 246.211794 143.433449 
L 247.019112 138.315525 
L 247.82643 141.992522 
L 248.633749 148.288862 
L 249.441067 147.197014 
L 250.248385 156.023547 
L 251.055704 154.619737 
L 251.863022 162.107001 
L 252.67034 159.143291 
L 253.477659 144.915005 
L 254.284977 138.622682 
L 255.092295 127.423785 
L 255.899614 123.774438 
L 256.706932 135.886802 
L 257.51425 126.78746 
L 258.321569 137.182741 
L 259.128887 150.27956 
L 259.936206 151.050242 
L 260.743524 147.28474 
L 261.550842 152.832397 
L 262.358161 157.94846 
L 263.165479 144.004045 
L 263.972797 149.271377 
L 264.780116 136.953561 
L 265.587434 137.402239 
L 266.394752 148.659992 
L 267.202071 139.826474 
L 268.009389 141.166721 
L 268.816707 144.7915 
L 269.624026 137.966781 
L 270.431344 155.720498 
L 271.238662 157.164579 
L 272.045981 155.294947 
L 272.853299 145.351912 
L 273.660617 142.156899 
L 274.467936 141.468025 
L 275.275254 132.846454 
L 276.082572 144.212779 
L 276.889891 136.863553 
L 277.697209 126.958953 
L 278.504528 141.26253 
L 279.311846 151.346066 
L 280.119164 157.088133 
L 280.926483 166.591306 
L 281.733801 145.373625 
L 282.541119 142.402532 
L 283.348438 133.093732 
L 284.155756 129.097556 
L 284.963074 132.658662 
L 285.770393 132.910847 
L 286.577711 135.524533 
L 287.385029 146.729883 
L 288.192348 147.654449 
L 288.999666 144.700796 
L 289.806984 135.849579 
L 290.614303 127.637587 
L 291.421621 134.551857 
L 292.228939 138.301488 
L 293.036258 124.349192 
L 293.843576 129.249818 
L 294.650895 136.903159 
L 295.458213 137.137281 
L 296.265531 138.312986 
L 297.07285 137.439308 
L 297.880168 149.143025 
L 298.687486 151.668454 
L 299.494805 156.166085 
L 300.302123 151.525429 
L 301.109441 147.210676 
L 301.91676 142.608864 
L 302.724078 137.331191 
L 303.531396 133.695154 
L 304.338715 139.827493 
L 305.146033 141.670022 
L 305.953351 135.124221 
L 306.76067 135.062565 
L 307.567988 145.231322 
L 308.375306 159.899298 
L 309.182625 159.944503 
L 309.989943 164.3562 
L 310.797262 144.526008 
L 311.60458 138.899785 
L 312.411898 132.350957 
L 313.219217 133.889176 
L 314.026535 135.684423 
L 314.833853 126.777416 
L 315.641172 131.579655 
L 316.44849 125.630194 
L 317.255808 148.543249 
L 318.063127 153.27494 
L 318.870445 160.647003 
L 319.677763 164.921711 
L 320.485082 150.669327 
L 321.2924 138.462354 
L 322.099718 129.04143 
L 322.907037 139.412472 
L 323.714355 133.948982 
L 324.521673 133.798189 
L 325.328992 136.957149 
L 326.13631 132.732579 
L 326.943628 130.949749 
L 327.750947 137.15092 
L 328.558265 155.460186 
L 329.365584 159.372868 
L 330.172902 152.990757 
L 330.98022 144.632258 
L 331.787539 128.200493 
L 332.594857 131.241067 
L 333.402175 137.591704 
L 334.209494 137.171541 
L 335.016812 139.481845 
L 335.82413 147.181614 
L 336.631449 143.639945 
L 337.438767 137.281881 
L 338.246085 149.783703 
L 339.053404 161.66692 
L 339.860722 155.667305 
L 340.66804 145.546899 
L 341.475359 130.373257 
L 342.282677 133.309223 
L 343.089995 137.900807 
L 343.897314 142.944385 
L 344.704632 143.874145 
L 345.511951 144.693385 
L 346.319269 150.012718 
L 347.126587 148.265918 
L 347.933906 150.904847 
L 348.741224 161.122264 
L 349.548542 157.033104 
L 350.355861 147.359459 
L 351.163179 136.301603 
L 351.970497 133.196762 
L 352.777816 147.680153 
L 353.585134 146.369323 
L 354.392452 127.967119 
L 355.199771 126.366197 
L 356.007089 153.214536 
L 356.814407 146.694059 
L 357.621726 142.173895 
L 358.429044 152.714152 
L 359.236362 139.677588 
L 360.043681 125.14275 
L 360.850999 136.226049 
L 361.658318 130.36494 
L 362.465636 114.792813 
L 363.272954 112.29442 
L 364.080273 116.157425 
L 364.887591 137.051445 
L 365.694909 138.35143 
L 366.502228 150.580821 
L 367.309546 159.835305 
L 368.116864 162.768476 
L 368.924183 151.555947 
L 369.731501 144.66323 
L 370.538819 148.232973 
L 371.346138 146.49699 
L 372.153456 140.470655 
L 372.960774 143.35687 
L 373.768093 138.929181 
L 374.575411 135.060273 
L 375.382729 134.89782 
L 376.190048 137.201021 
L 376.997366 147.852423 
L 377.804684 150.914855 
L 378.612003 145.751937 
L 379.419321 137.975873 
L 380.22664 136.055779 
L 381.033958 131.554676 
L 381.841276 139.182958 
L 382.648595 125.449548 
L 383.455913 118.729664 
L 384.263231 135.15073 
L 385.07055 145.767196 
L 385.877868 148.694762 
L 386.685186 157.954944 
L 387.492505 140.518949 
L 388.299823 150.58328 
L 389.107141 138.75935 
L 389.91446 140.45949 
L 390.721778 138.30102 
L 391.529096 126.97757 
L 392.336415 130.320544 
L 393.143733 139.606787 
L 393.951051 134.455039 
L 394.75837 150.792779 
L 395.565688 154.815072 
L 396.373007 160.533798 
L 397.180325 160.830162 
L 397.987643 146.239006 
L 398.794962 142.781011 
L 399.60228 139.051387 
L 400.409598 134.548589 
L 401.216917 133.489202 
L 402.024235 133.139574 
L 402.831553 139.742028 
L 403.638872 132.816817 
L 404.44619 133.187102 
L 405.253508 151.938532 
L 406.060827 149.784141 
L 406.868145 158.248381 
L 407.675463 158.18533 
L 408.482782 143.3362 
L 409.2901 138.422005 
L 410.097418 133.724805 
L 410.904737 135.608086 
L 411.712055 147.593174 
L 412.519374 142.496768 
L 413.326692 144.792564 
L 414.13401 155.715634 
L 414.941329 158.874939 
L 415.748647 162.878556 
L 416.555965 161.98858 
L 417.363284 152.595934 
L 418.170602 140.365142 
L 418.97792 133.685814 
L 419.785239 129.835136 
L 420.592557 134.571648 
L 421.399875 139.819621 
L 422.207194 127.077204 
L 423.014512 128.101851 
L 423.82183 145.86539 
L 424.629149 157.559738 
L 425.436467 150.611767 
L 426.243785 160.240409 
L 427.051104 152.417001 
L 427.858422 141.650158 
L 428.66574 135.321224 
L 429.473059 129.960672 
L 430.280377 126.781381 
L 431.087696 133.526066 
L 431.895014 135.172086 
L 432.702332 137.565205 
L 433.509651 142.40544 
L 434.316969 143.635232 
L 435.124287 154.724687 
L 435.931606 163.244947 
L 436.738924 152.966302 
L 437.546242 136.653273 
L 438.353561 143.302228 
L 439.160879 130.99188 
L 439.968197 136.455498 
L 440.775516 144.387253 
L 441.582834 131.717727 
L 442.390152 135.250021 
L 443.197471 138.957283 
L 444.004789 148.898491 
L 444.812107 150.349105 
L 445.619426 161.553364 
L 446.426744 149.529535 
L 447.234063 129.355419 
L 448.041381 132.84202 
L 448.848699 134.970285 
L 449.656018 137.272863 
L 450.463336 136.961892 
L 451.270654 139.575983 
L 452.077973 143.649883 
L 452.885291 142.293688 
L 453.692609 147.955319 
L 454.499928 157.032808 
L 455.307246 161.650492 
L 456.114564 147.998123 
L 456.921883 140.179139 
L 457.729201 141.867349 
L 458.536519 141.150903 
L 459.343838 137.866729 
L 460.151156 131.551174 
L 460.958474 130.710091 
L 461.765793 143.481987 
L 462.573111 148.372478 
L 463.38043 150.724268 
L 464.187748 164.126644 
L 464.995066 161.460689 
L 465.802385 151.715494 
L 466.609703 140.108791 
L 467.417021 132.311525 
L 468.22434 127.180249 
L 469.031658 131.43659 
L 469.838976 128.472287 
L 470.646295 134.786766 
L 471.453613 139.099688 
L 472.260931 134.650718 
L 473.06825 147.793411 
L 473.875568 151.959114 
L 474.682886 155.771311 
L 475.490205 152.957306 
L 476.297523 147.394199 
L 477.104841 129.582615 
L 477.91216 142.457125 
L 478.719478 138.856578 
L 479.526796 134.003639 
L 480.334115 131.077284 
L 481.141433 134.754834 
L 481.948752 131.434102 
L 482.75607 130.878288 
L 483.563388 143.357152 
L 484.370707 139.534256 
L 484.370707 136.77709 
L 484.370707 136.77709 
L 483.563388 137.640711 
L 482.75607 125.473585 
L 481.948752 123.428674 
L 481.141433 129.869948 
L 480.334115 125.513005 
L 479.526796 128.630381 
L 478.719478 134.495722 
L 477.91216 138.388005 
L 477.104841 124.808607 
L 476.297523 142.569548 
L 475.490205 149.489188 
L 474.682886 152.365185 
L 473.875568 148.284203 
L 473.06825 144.198496 
L 472.260931 129.742694 
L 471.453613 134.640016 
L 470.646295 130.367526 
L 469.838976 122.330199 
L 469.031658 125.998301 
L 468.22434 121.031726 
L 467.417021 126.977072 
L 466.609703 134.821938 
L 465.802385 147.384998 
L 464.995066 158.224092 
L 464.187748 161.791083 
L 463.38043 147.680736 
L 462.573111 144.720695 
L 461.765793 139.283481 
L 460.958474 125.178573 
L 460.151156 125.760555 
L 459.343838 132.611629 
L 458.536519 137.048406 
L 457.729201 137.698256 
L 456.921883 135.203115 
L 456.114564 143.82652 
L 455.307246 158.743287 
L 454.499928 154.0661 
L 453.692609 144.490533 
L 452.885291 137.502363 
L 452.077973 139.604504 
L 451.270654 135.451024 
L 450.463336 132.305323 
L 449.656018 132.795675 
L 448.848699 130.29194 
L 448.041381 127.728832 
L 447.234063 123.705987 
L 446.426744 145.210749 
L 445.619426 158.752721 
L 444.812107 147.08979 
L 444.004789 144.652543 
L 443.197471 135.197176 
L 442.390152 130.319481 
L 441.582834 126.462511 
L 440.775516 140.152269 
L 439.968197 132.075671 
L 439.160879 125.423096 
L 438.353561 139.339993 
L 437.546242 131.314705 
L 436.738924 148.801688 
L 435.931606 160.310342 
L 435.124287 151.998379 
L 434.316969 139.747026 
L 433.509651 137.853661 
L 432.702332 132.732013 
L 431.895014 130.350745 
L 431.087696 128.460676 
L 430.280377 121.017779 
L 429.473059 123.689767 
L 428.66574 131.011727 
L 427.858422 137.022112 
L 427.051104 148.451971 
L 426.243785 157.295748 
L 425.436467 146.613261 
L 424.629149 154.166497 
L 423.82183 142.480143 
L 423.014512 122.747438 
L 422.207194 121.410711 
L 421.399875 134.930486 
L 420.592557 130.371866 
L 419.785239 123.95305 
L 418.97792 128.706968 
L 418.170602 135.267261 
L 417.363284 148.695956 
L 416.555965 158.825049 
L 415.748647 160.297467 
L 414.941329 156.470572 
L 414.13401 152.223201 
L 413.326692 141.104524 
L 412.519374 138.577136 
L 411.712055 143.649559 
L 410.904737 131.068395 
L 410.097418 128.382973 
L 409.2901 132.849478 
L 408.482782 138.752051 
L 407.675463 154.249267 
L 406.868145 154.944046 
L 406.060827 146.1026 
L 405.253508 148.606635 
L 404.44619 128.967805 
L 403.638872 126.802297 
L 402.831553 135.192042 
L 402.024235 128.204139 
L 401.216917 128.574784 
L 400.409598 129.960743 
L 399.60228 134.350862 
L 398.794962 137.856491 
L 397.987643 141.955924 
L 397.180325 157.248566 
L 396.373007 157.816956 
L 395.565688 152.114992 
L 394.75837 147.833398 
L 393.951051 130.054997 
L 393.143733 134.985432 
L 392.336415 125.348677 
L 391.529096 121.234091 
L 390.721778 132.963302 
L 389.91446 135.889102 
L 389.107141 133.988583 
L 388.299823 146.62781 
L 387.492505 136.391851 
L 386.685186 154.116896 
L 385.877868 145.316229 
L 385.07055 141.754294 
L 384.263231 130.987927 
L 383.455913 112.306943 
L 382.648595 119.406382 
L 381.841276 135.17419 
L 381.033958 126.901484 
L 380.22664 131.463732 
L 379.419321 133.238719 
L 378.612003 141.657493 
L 377.804684 146.811496 
L 376.997366 143.892489 
L 376.190048 132.581906 
L 375.382729 130.005096 
L 374.575411 130.219806 
L 373.768093 133.702159 
L 372.960774 138.549127 
L 372.153456 135.822205 
L 371.346138 142.330677 
L 370.538819 144.731461 
L 369.731501 140.7243 
L 368.924183 147.587686 
L 368.116864 159.581603 
L 367.309546 157.4212 
L 366.502228 147.30996 
L 365.694909 134.089956 
L 364.887591 131.848543 
L 364.080273 110.106007 
L 363.272954 105.315995 
L 362.465636 108.368387 
L 361.658318 125.08994 
L 360.850999 131.963633 
L 360.043681 119.168254 
L 359.236362 134.018872 
L 358.429044 148.998087 
L 357.621726 137.861615 
L 356.814407 142.176125 
L 356.007089 149.964293 
L 355.199771 120.675643 
L 354.392452 122.183391 
L 353.585134 141.423446 
L 352.777816 144.307516 
L 351.970497 128.386167 
L 351.163179 131.435066 
L 350.355861 143.573756 
L 349.548542 153.295194 
L 348.741224 158.502733 
L 347.933906 147.020767 
L 347.126587 145.039175 
L 346.319269 146.211155 
L 345.511951 140.497939 
L 344.704632 139.936191 
L 343.897314 138.533083 
L 343.089995 133.483687 
L 342.282677 127.917993 
L 341.475359 125.117327 
L 340.66804 140.492773 
L 339.860722 152.290687 
L 339.053404 158.702564 
L 338.246085 146.539245 
L 337.438767 132.65647 
L 336.631449 138.892159 
L 335.82413 143.512602 
L 335.016812 135.593452 
L 334.209494 132.158294 
L 333.402175 133.344947 
L 332.594857 125.715103 
L 331.787539 122.380239 
L 330.98022 139.793514 
L 330.172902 149.246391 
L 329.365584 156.01939 
L 328.558265 151.981476 
L 327.750947 132.567575 
L 326.943628 124.579435 
L 326.13631 126.481988 
L 325.328992 132.012738 
L 324.521673 128.894354 
L 323.714355 128.887866 
L 322.907037 134.778786 
L 322.099718 123.836583 
L 321.2924 133.141785 
L 320.485082 146.186583 
L 319.677763 162.178934 
L 318.870445 157.554178 
L 318.063127 149.574345 
L 317.255808 144.968422 
L 316.44849 120.071713 
L 315.641172 125.770635 
L 314.833853 121.391625 
L 314.026535 130.23722 
L 313.219217 128.507713 
L 312.411898 126.739996 
L 311.60458 133.463009 
L 310.797262 139.74391 
L 309.989943 161.254244 
L 309.182625 157.322557 
L 308.375306 157.466088 
L 307.567988 141.3373 
L 306.76067 130.243982 
L 305.953351 130.058039 
L 305.146033 137.256131 
L 304.338715 135.9785 
L 303.531396 128.921339 
L 302.724078 131.57628 
L 301.91676 137.846635 
L 301.109441 142.63668 
L 300.302123 147.792403 
L 299.494805 152.814142 
L 298.687486 148.765325 
L 297.880168 145.742488 
L 297.07285 133.14968 
L 296.265531 133.120919 
L 295.458213 132.39179 
L 294.650895 132.444263 
L 293.843576 124.501222 
L 293.036258 118.547001 
L 292.228939 132.472898 
L 291.421621 128.999955 
L 290.614303 121.848926 
L 289.806984 130.045986 
L 288.999666 140.554575 
L 288.192348 144.125499 
L 287.385029 142.517723 
L 286.577711 130.739476 
L 285.770393 128.035145 
L 284.963074 127.685848 
L 284.155756 123.346916 
L 283.348438 127.815531 
L 282.541119 137.516577 
L 281.733801 141.231517 
L 280.926483 163.457064 
L 280.119164 154.455011 
L 279.311846 147.477881 
L 278.504528 137.060204 
L 277.697209 120.979622 
L 276.889891 131.974655 
L 276.082572 139.367002 
L 275.275254 128.036835 
L 274.467936 136.514454 
L 273.660617 138.600049 
L 272.853299 140.124916 
L 272.045981 151.523479 
L 271.238662 154.476615 
L 270.431344 152.533138 
L 269.624026 133.427316 
L 268.816707 139.012291 
L 268.009389 137.562687 
L 267.202071 135.467642 
L 266.394752 145.089317 
L 265.587434 133.270459 
L 264.780116 131.41067 
L 263.972797 145.41411 
L 263.165479 139.513219 
L 262.358161 154.183003 
L 261.550842 149.275169 
L 260.743524 143.087281 
L 259.936206 146.621951 
L 259.128887 147.063631 
L 258.321569 132.984264 
L 257.51425 121.046719 
L 256.706932 131.206432 
L 255.899614 118.18698 
L 255.092295 121.152002 
L 254.284977 133.926719 
L 253.477659 140.456759 
L 252.67034 155.502362 
L 251.863022 159.328694 
L 251.055704 151.314189 
L 250.248385 153.378577 
L 249.441067 143.967545 
L 248.633749 144.092672 
L 247.82643 137.850075 
L 247.019112 133.529897 
L 246.211794 139.355627 
L 245.404475 136.787575 
L 244.597157 130.788411 
L 243.789839 133.815109 
L 242.98252 148.262989 
L 242.175202 157.977882 
L 241.367883 148.73267 
L 240.560565 149.959519 
L 239.753247 143.347792 
L 238.945928 140.296079 
L 238.13861 123.247423 
L 237.331292 119.846965 
L 236.523973 134.233492 
L 235.716655 126.079438 
L 234.909337 114.213004 
L 234.102018 125.477014 
L 233.2947 146.359298 
L 232.487382 152.746351 
L 231.680063 159.651425 
L 230.872745 154.205253 
L 230.065427 139.77882 
L 229.258108 124.497521 
L 228.45079 123.064989 
L 227.643472 121.178565 
L 226.836153 132.028225 
L 226.028835 124.752254 
L 225.221517 128.120835 
L 224.414198 138.259537 
L 223.60688 149.431401 
L 222.799561 151.256154 
L 221.992243 156.796866 
L 221.184925 149.962447 
L 220.377606 130.027025 
L 219.570288 137.225728 
L 218.76297 138.455882 
L 217.955651 139.987703 
L 217.148333 136.728032 
L 216.341015 134.988356 
L 215.533696 140.900351 
L 214.726378 141.329416 
L 213.91906 156.865378 
L 213.111741 141.428114 
L 212.304423 149.380966 
L 211.497105 149.057302 
L 210.689786 142.149972 
L 209.882468 131.663673 
L 209.07515 126.032375 
L 208.267831 130.139367 
L 207.460513 137.568665 
L 206.653194 140.183119 
L 205.845876 131.736169 
L 205.038558 126.560765 
L 204.231239 143.883704 
L 203.423921 156.830057 
L 202.616603 137.428028 
L 201.809284 134.508529 
L 201.001966 147.959643 
L 200.194648 123.002463 
L 199.387329 119.276744 
L 198.580011 129.166987 
L 197.772693 124.770532 
L 196.965374 114.00671 
L 196.158056 117.488256 
L 195.350738 141.36103 
L 194.543419 152.962546 
L 193.736101 161.367811 
L 192.928783 159.934014 
L 192.121464 152.60112 
L 191.314146 141.091625 
L 190.506827 134.845827 
L 189.699509 127.121033 
L 188.892191 125.041116 
L 188.084872 125.486575 
L 187.277554 124.607694 
L 186.470236 114.701112 
L 185.662917 125.636689 
L 184.855599 140.931716 
L 184.048281 152.587985 
L 183.240962 144.557978 
L 182.433644 145.862126 
L 181.626326 144.819692 
L 180.819007 132.890848 
L 180.011689 116.879416 
L 179.204371 127.757112 
L 178.397052 138.488762 
L 177.589734 129.115492 
L 176.782416 130.921121 
L 175.975097 138.1882 
L 175.167779 145.822157 
L 174.360461 145.900794 
L 173.553142 152.144457 
L 172.745824 144.692243 
L 171.938505 135.370994 
L 171.131187 132.350925 
L 170.323869 127.55524 
L 169.51655 129.113477 
L 168.709232 134.525183 
L 167.901914 133.707648 
L 167.094595 135.519429 
L 166.287277 133.87239 
L 165.479959 154.993955 
L 164.67264 162.581254 
L 163.865322 158.087511 
L 163.058004 158.969066 
L 162.250685 142.317067 
L 161.443367 134.572665 
L 160.636049 134.860935 
L 159.82873 138.102181 
L 159.021412 133.710808 
L 158.214094 124.279671 
L 157.406775 123.212492 
L 156.599457 144.960227 
L 155.792138 145.91051 
L 154.98482 158.542697 
L 154.177502 154.916642 
L 153.370183 142.042169 
L 152.562865 140.756457 
L 151.755547 148.129861 
L 150.948228 141.775413 
L 150.14091 128.104723 
L 149.333592 131.887498 
L 148.526273 140.811601 
L 147.718955 135.152918 
L 146.911637 140.568049 
L 146.104318 152.11363 
L 145.297 155.891971 
L 144.489682 154.54866 
L 143.682363 133.636584 
L 142.875045 127.999385 
L 142.067727 127.531381 
L 141.260408 122.670361 
L 140.45309 125.321089 
L 139.645771 134.987551 
L 138.838453 134.840039 
L 138.031135 128.322709 
L 137.223816 134.270467 
L 136.416498 144.774711 
L 135.60918 148.373746 
L 134.801861 139.420438 
L 133.994543 148.876779 
L 133.187225 144.445851 
L 132.379906 131.337932 
L 131.572588 117.480254 
L 130.76527 127.359609 
L 129.957951 133.057527 
L 129.150633 127.044035 
L 128.343315 124.497809 
L 127.535996 140.497388 
L 126.728678 154.741621 
L 125.92136 156.53195 
L 125.114041 152.952632 
L 124.306723 138.923683 
L 123.499405 134.670382 
L 122.692086 129.647922 
L 121.884768 136.018934 
L 121.077449 143.658638 
L 120.270131 125.910892 
L 119.462813 117.741562 
L 118.655494 113.641705 
L 117.848176 132.685225 
L 117.040858 143.754009 
L 116.233539 148.253866 
L 115.426221 150.397999 
L 114.618903 152.502524 
L 113.811584 127.365554 
L 113.004266 128.906462 
L 112.196948 142.476562 
L 111.389629 130.536798 
L 110.582311 125.939719 
L 109.774993 131.874291 
L 108.967674 127.833224 
L 108.160356 138.643053 
L 107.353038 153.6865 
L 106.545719 154.598335 
L 105.738401 151.745374 
L 104.931082 142.545893 
L 104.123764 137.146445 
L 103.316446 147.540891 
L 102.509127 129.03591 
L 101.701809 105.770151 
L 100.894491 98.227566 
L 100.087172 120.472657 
L 99.279854 130.663833 
L 98.472536 142.798236 
L 97.665217 154.059869 
L 96.857899 146.313127 
L 96.050581 138.870072 
L 95.243262 138.123156 
L 94.435944 134.625404 
L 93.628626 122.368226 
L 92.821307 112.106995 
L 92.013989 106.877401 
L 91.206671 112.546035 
L 90.399352 119.918204 
L 89.592034 132.321627 
L 88.784715 135.044912 
L 87.977397 145.348422 
L 87.170079 160.814653 
L 86.36276 154.929696 
L 85.555442 150.975089 
L 84.748124 137.550213 
L 83.940805 137.690082 
L 83.133487 117.720592 
L 82.326169 124.715531 
L 81.51885 113.417724 
L 80.711532 121.646863 
L 79.904214 125.133346 
L 79.096895 123.735421 
L 78.289577 141.658491 
L 77.482259 153.630892 
L 76.67494 151.788423 
L 75.867622 129.493886 
L 75.060304 137.861294 
L 74.252985 127.758847 
L 73.445667 121.168313 
L 72.638349 124.89501 
L 71.83103 128.139015 
L 71.023712 128.356774 
L 70.216393 125.110417 
L 69.409075 120.465822 
L 68.601757 149.373649 
L 67.794438 149.689981 
z
" clip-path="url(#pe0f4af057b)" style="fill-opacity: 0.25"/>
   </g>
   <g id="matplotlib.axis_1">
    <g id="xtick_1">
     <g id="line2d_1">
      <defs>
       <path id="me58b956ffd" d="M 0 0 
L 0 3.5 
" style="stroke: #000000; stroke-width: 0.8"/>
      </defs>
      <g>
       <use xlink:href="#me58b956ffd" x="77.482259" y="186.84327" style="stroke: #000000; stroke-width: 0.8"/>
      </g>
     </g>
     <g id="text_1">
      <!-- 1980 -->
      <g transform="translate(64.757259 201.441708)scale(0.1 -0.1)">
       <defs>
        <path id="DejaVuSans-31" d="M 794 531 
L 1825 531 
L 1825 4091 
L 703 3866 
L 703 4441 
L 1819 4666 
L 2450 4666 
L 2450 531 
L 3481 531 
L 3481 0 
L 794 0 
L 794 531 
z
" transform="scale(0.015625)"/>
        <path id="DejaVuSans-39" d="M 703 97 
L 703 672 
Q 941 559 1184 500 
Q 1428 441 1663 441 
Q 2288 441 2617 861 
Q 2947 1281 2994 2138 
Q 2813 1869 2534 1725 
Q 2256 1581 1919 1581 
Q 1219 1581 811 2004 
Q 403 2428 403 3163 
Q 403 3881 828 4315 
Q 1253 4750 1959 4750 
Q 2769 4750 3195 4129 
Q 3622 3509 3622 2328 
Q 3622 1225 3098 567 
Q 2575 -91 1691 -91 
Q 1453 -91 1209 -44 
Q 966 3 703 97 
z
M 1959 2075 
Q 2384 2075 2632 2365 
Q 2881 2656 2881 3163 
Q 2881 3666 2632 3958 
Q 2384 4250 1959 4250 
Q 1534 4250 1286 3958 
Q 1038 3666 1038 3163 
Q 1038 2656 1286 2365 
Q 1534 2075 1959 2075 
z
" transform="scale(0.015625)"/>
        <path id="DejaVuSans-38" d="M 2034 2216 
Q 1584 2216 1326 1975 
Q 1069 1734 1069 1313 
Q 1069 891 1326 650 
Q 1584 409 2034 409 
Q 2484 409 2743 651 
Q 3003 894 3003 1313 
Q 3003 1734 2745 1975 
Q 2488 2216 2034 2216 
z
M 1403 2484 
Q 997 2584 770 2862 
Q 544 3141 544 3541 
Q 544 4100 942 4425 
Q 1341 4750 2034 4750 
Q 2731 4750 3128 4425 
Q 3525 4100 3525 3541 
Q 3525 3141 3298 2862 
Q 3072 2584 2669 2484 
Q 3125 2378 3379 2068 
Q 3634 1759 3634 1313 
Q 3634 634 3220 271 
Q 2806 -91 2034 -91 
Q 1263 -91 848 271 
Q 434 634 434 1313 
Q 434 1759 690 2068 
Q 947 2378 1403 2484 
z
M 1172 3481 
Q 1172 3119 1398 2916 
Q 1625 2713 2034 2713 
Q 2441 2713 2670 2916 
Q 2900 3119 2900 3481 
Q 2900 3844 2670 4047 
Q 2441 4250 2034 4250 
Q 1625 4250 1398 4047 
Q 1172 3844 1172 3481 
z
" transform="scale(0.015625)"/>
        <path id="DejaVuSans-30" d="M 2034 4250 
Q 1547 4250 1301 3770 
Q 1056 3291 1056 2328 
Q 1056 1369 1301 889 
Q 1547 409 2034 409 
Q 2525 409 2770 889 
Q 3016 1369 3016 2328 
Q 3016 3291 2770 3770 
Q 2525 4250 2034 4250 
z
M 2034 4750 
Q 2819 4750 3233 4129 
Q 3647 3509 3647 2328 
Q 3647 1150 3233 529 
Q 2819 -91 2034 -91 
Q 1250 -91 836 529 
Q 422 1150 422 2328 
Q 422 3509 836 4129 
Q 1250 4750 2034 4750 
z
" transform="scale(0.015625)"/>
       </defs>
       <use xlink:href="#DejaVuSans-31"/>
       <use xlink:href="#DejaVuSans-39" x="63.623047"/>
       <use xlink:href="#DejaVuSans-38" x="127.246094"/>
       <use xlink:href="#DejaVuSans-30" x="190.869141"/>
      </g>
     </g>
    </g>
    <g id="xtick_2">
     <g id="line2d_2">
      <g>
       <use xlink:href="#me58b956ffd" x="174.360461" y="186.84327" style="stroke: #000000; stroke-width: 0.8"/>
      </g>
     </g>
     <g id="text_2">
      <!-- 1990 -->
      <g transform="translate(161.635461 201.441708)scale(0.1 -0.1)">
       <use xlink:href="#DejaVuSans-31"/>
       <use xlink:href="#DejaVuSans-39" x="63.623047"/>
       <use xlink:href="#DejaVuSans-39" x="127.246094"/>
       <use xlink:href="#DejaVuSans-30" x="190.869141"/>
      </g>
     </g>
    </g>
    <g id="xtick_3">
     <g id="line2d_3">
      <g>
       <use xlink:href="#me58b956ffd" x="271.238662" y="186.84327" style="stroke: #000000; stroke-width: 0.8"/>
      </g>
     </g>
     <g id="text_3">
      <!-- 2000 -->
      <g transform="translate(258.513662 201.441708)scale(0.1 -0.1)">
       <defs>
        <path id="DejaVuSans-32" d="M 1228 531 
L 3431 531 
L 3431 0 
L 469 0 
L 469 531 
Q 828 903 1448 1529 
Q 2069 2156 2228 2338 
Q 2531 2678 2651 2914 
Q 2772 3150 2772 3378 
Q 2772 3750 2511 3984 
Q 2250 4219 1831 4219 
Q 1534 4219 1204 4116 
Q 875 4013 500 3803 
L 500 4441 
Q 881 4594 1212 4672 
Q 1544 4750 1819 4750 
Q 2544 4750 2975 4387 
Q 3406 4025 3406 3419 
Q 3406 3131 3298 2873 
Q 3191 2616 2906 2266 
Q 2828 2175 2409 1742 
Q 1991 1309 1228 531 
z
" transform="scale(0.015625)"/>
       </defs>
       <use xlink:href="#DejaVuSans-32"/>
       <use xlink:href="#DejaVuSans-30" x="63.623047"/>
       <use xlink:href="#DejaVuSans-30" x="127.246094"/>
       <use xlink:href="#DejaVuSans-30" x="190.869141"/>
      </g>
     </g>
    </g>
    <g id="xtick_4">
     <g id="line2d_4">
      <g>
       <use xlink:href="#me58b956ffd" x="368.116864" y="186.84327" style="stroke: #000000; stroke-width: 0.8"/>
      </g>
     </g>
     <g id="text_4">
      <!-- 2010 -->
      <g transform="translate(355.391864 201.441708)scale(0.1 -0.1)">
       <use xlink:href="#DejaVuSans-32"/>
       <use xlink:href="#DejaVuSans-30" x="63.623047"/>
       <use xlink:href="#DejaVuSans-31" x="127.246094"/>
       <use xlink:href="#DejaVuSans-30" x="190.869141"/>
      </g>
     </g>
    </g>
    <g id="xtick_5">
     <g id="line2d_5">
      <g>
       <use xlink:href="#me58b956ffd" x="464.995066" y="186.84327" style="stroke: #000000; stroke-width: 0.8"/>
      </g>
     </g>
     <g id="text_5">
      <!-- 2020 -->
      <g transform="translate(452.270066 201.441708)scale(0.1 -0.1)">
       <use xlink:href="#DejaVuSans-32"/>
       <use xlink:href="#DejaVuSans-30" x="63.623047"/>
       <use xlink:href="#DejaVuSans-32" x="127.246094"/>
       <use xlink:href="#DejaVuSans-30" x="190.869141"/>
      </g>
     </g>
    </g>
    <g id="text_6">
     <!-- Year -->
     <g transform="translate(265.495073 215.119833)scale(0.1 -0.1)">
      <defs>
       <path id="DejaVuSans-59" d="M -13 4666 
L 666 4666 
L 1959 2747 
L 3244 4666 
L 3922 4666 
L 2272 2222 
L 2272 0 
L 1638 0 
L 1638 2222 
L -13 4666 
z
" transform="scale(0.015625)"/>
       <path id="DejaVuSans-65" d="M 3597 1894 
L 3597 1613 
L 953 1613 
Q 991 1019 1311 708 
Q 1631 397 2203 397 
Q 2534 397 2845 478 
Q 3156 559 3463 722 
L 3463 178 
Q 3153 47 2828 -22 
Q 2503 -91 2169 -91 
Q 1331 -91 842 396 
Q 353 884 353 1716 
Q 353 2575 817 3079 
Q 1281 3584 2069 3584 
Q 2775 3584 3186 3129 
Q 3597 2675 3597 1894 
z
M 3022 2063 
Q 3016 2534 2758 2815 
Q 2500 3097 2075 3097 
Q 1594 3097 1305 2825 
Q 1016 2553 972 2059 
L 3022 2063 
z
" transform="scale(0.015625)"/>
       <path id="DejaVuSans-61" d="M 2194 1759 
Q 1497 1759 1228 1600 
Q 959 1441 959 1056 
Q 959 750 1161 570 
Q 1363 391 1709 391 
Q 2188 391 2477 730 
Q 2766 1069 2766 1631 
L 2766 1759 
L 2194 1759 
z
M 3341 1997 
L 3341 0 
L 2766 0 
L 2766 531 
Q 2569 213 2275 61 
Q 1981 -91 1556 -91 
Q 1019 -91 701 211 
Q 384 513 384 1019 
Q 384 1609 779 1909 
Q 1175 2209 1959 2209 
L 2766 2209 
L 2766 2266 
Q 2766 2663 2505 2880 
Q 2244 3097 1772 3097 
Q 1472 3097 1187 3025 
Q 903 2953 641 2809 
L 641 3341 
Q 956 3463 1253 3523 
Q 1550 3584 1831 3584 
Q 2591 3584 2966 3190 
Q 3341 2797 3341 1997 
z
" transform="scale(0.015625)"/>
       <path id="DejaVuSans-72" d="M 2631 2963 
Q 2534 3019 2420 3045 
Q 2306 3072 2169 3072 
Q 1681 3072 1420 2755 
Q 1159 2438 1159 1844 
L 1159 0 
L 581 0 
L 581 3500 
L 1159 3500 
L 1159 2956 
Q 1341 3275 1631 3429 
Q 1922 3584 2338 3584 
Q 2397 3584 2469 3576 
Q 2541 3569 2628 3553 
L 2631 2963 
z
" transform="scale(0.015625)"/>
      </defs>
      <use xlink:href="#DejaVuSans-59"/>
      <use xlink:href="#DejaVuSans-65" x="47.833984"/>
      <use xlink:href="#DejaVuSans-61" x="109.357422"/>
      <use xlink:href="#DejaVuSans-72" x="170.636719"/>
     </g>
    </g>
   </g>
   <g id="matplotlib.axis_2">
    <g id="ytick_1">
     <g id="line2d_6">
      <defs>
       <path id="mb098c2e238" d="M 0 0 
L -3.5 0 
" style="stroke: #000000; stroke-width: 0.8"/>
      </defs>
      <g>
       <use xlink:href="#mb098c2e238" x="46.965625" y="186.84327" style="stroke: #000000; stroke-width: 0.8"/>
      </g>
     </g>
     <g id="text_7">
      <!-- 0 -->
      <g transform="translate(33.603125 190.642489)scale(0.1 -0.1)">
       <use xlink:href="#DejaVuSans-30"/>
      </g>
     </g>
    </g>
    <g id="ytick_2">
     <g id="line2d_7">
      <g>
       <use xlink:href="#mb098c2e238" x="46.965625" y="163.339678" style="stroke: #000000; stroke-width: 0.8"/>
      </g>
     </g>
     <g id="text_8">
      <!-- 50 -->
      <g transform="translate(27.240625 167.138897)scale(0.1 -0.1)">
       <defs>
        <path id="DejaVuSans-35" d="M 691 4666 
L 3169 4666 
L 3169 4134 
L 1269 4134 
L 1269 2991 
Q 1406 3038 1543 3061 
Q 1681 3084 1819 3084 
Q 2600 3084 3056 2656 
Q 3513 2228 3513 1497 
Q 3513 744 3044 326 
Q 2575 -91 1722 -91 
Q 1428 -91 1123 -41 
Q 819 9 494 109 
L 494 744 
Q 775 591 1075 516 
Q 1375 441 1709 441 
Q 2250 441 2565 725 
Q 2881 1009 2881 1497 
Q 2881 1984 2565 2268 
Q 2250 2553 1709 2553 
Q 1456 2553 1204 2497 
Q 953 2441 691 2322 
L 691 4666 
z
" transform="scale(0.015625)"/>
       </defs>
       <use xlink:href="#DejaVuSans-35"/>
       <use xlink:href="#DejaVuSans-30" x="63.623047"/>
      </g>
     </g>
    </g>
    <g id="ytick_3">
     <g id="line2d_8">
      <g>
       <use xlink:href="#mb098c2e238" x="46.965625" y="139.836086" style="stroke: #000000; stroke-width: 0.8"/>
      </g>
     </g>
     <g id="text_9">
      <!-- 100 -->
      <g transform="translate(20.878125 143.635304)scale(0.1 -0.1)">
       <use xlink:href="#DejaVuSans-31"/>
       <use xlink:href="#DejaVuSans-30" x="63.623047"/>
       <use xlink:href="#DejaVuSans-30" x="127.246094"/>
      </g>
     </g>
    </g>
    <g id="ytick_4">
     <g id="line2d_9">
      <g>
       <use xlink:href="#mb098c2e238" x="46.965625" y="116.332494" style="stroke: #000000; stroke-width: 0.8"/>
      </g>
     </g>
     <g id="text_10">
      <!-- 150 -->
      <g transform="translate(20.878125 120.131712)scale(0.1 -0.1)">
       <use xlink:href="#DejaVuSans-31"/>
       <use xlink:href="#DejaVuSans-35" x="63.623047"/>
       <use xlink:href="#DejaVuSans-30" x="127.246094"/>
      </g>
     </g>
    </g>
    <g id="ytick_5">
     <g id="line2d_10">
      <g>
       <use xlink:href="#mb098c2e238" x="46.965625" y="92.828901" style="stroke: #000000; stroke-width: 0.8"/>
      </g>
     </g>
     <g id="text_11">
      <!-- 200 -->
      <g transform="translate(20.878125 96.62812)scale(0.1 -0.1)">
       <use xlink:href="#DejaVuSans-32"/>
       <use xlink:href="#DejaVuSans-30" x="63.623047"/>
       <use xlink:href="#DejaVuSans-30" x="127.246094"/>
      </g>
     </g>
    </g>
    <g id="ytick_6">
     <g id="line2d_11">
      <g>
       <use xlink:href="#mb098c2e238" x="46.965625" y="69.325309" style="stroke: #000000; stroke-width: 0.8"/>
      </g>
     </g>
     <g id="text_12">
      <!-- 250 -->
      <g transform="translate(20.878125 73.124528)scale(0.1 -0.1)">
       <use xlink:href="#DejaVuSans-32"/>
       <use xlink:href="#DejaVuSans-35" x="63.623047"/>
       <use xlink:href="#DejaVuSans-30" x="127.246094"/>
      </g>
     </g>
    </g>
    <g id="ytick_7">
     <g id="line2d_12">
      <g>
       <use xlink:href="#mb098c2e238" x="46.965625" y="45.821717" style="stroke: #000000; stroke-width: 0.8"/>
      </g>
     </g>
     <g id="text_13">
      <!-- 300 -->
      <g transform="translate(20.878125 49.620936)scale(0.1 -0.1)">
       <defs>
        <path id="DejaVuSans-33" d="M 2597 2516 
Q 3050 2419 3304 2112 
Q 3559 1806 3559 1356 
Q 3559 666 3084 287 
Q 2609 -91 1734 -91 
Q 1441 -91 1130 -33 
Q 819 25 488 141 
L 488 750 
Q 750 597 1062 519 
Q 1375 441 1716 441 
Q 2309 441 2620 675 
Q 2931 909 2931 1356 
Q 2931 1769 2642 2001 
Q 2353 2234 1838 2234 
L 1294 2234 
L 1294 2753 
L 1863 2753 
Q 2328 2753 2575 2939 
Q 2822 3125 2822 3475 
Q 2822 3834 2567 4026 
Q 2313 4219 1838 4219 
Q 1578 4219 1281 4162 
Q 984 4106 628 3988 
L 628 4550 
Q 988 4650 1302 4700 
Q 1616 4750 1894 4750 
Q 2613 4750 3031 4423 
Q 3450 4097 3450 3541 
Q 3450 3153 3228 2886 
Q 3006 2619 2597 2516 
z
" transform="scale(0.015625)"/>
       </defs>
       <use xlink:href="#DejaVuSans-33"/>
       <use xlink:href="#DejaVuSans-30" x="63.623047"/>
       <use xlink:href="#DejaVuSans-30" x="127.246094"/>
      </g>
     </g>
    </g>
    <g id="ytick_8">
     <g id="line2d_13">
      <g>
       <use xlink:href="#mb098c2e238" x="46.965625" y="22.318125" style="stroke: #000000; stroke-width: 0.8"/>
      </g>
     </g>
     <g id="text_14">
      <!-- 350 -->
      <g transform="translate(20.878125 26.117344)scale(0.1 -0.1)">
       <use xlink:href="#DejaVuSans-33"/>
       <use xlink:href="#DejaVuSans-35" x="63.623047"/>
       <use xlink:href="#DejaVuSans-30" x="127.246094"/>
      </g>
     </g>
    </g>
    <g id="text_15">
     <!-- Surface Mass Balance [Gt/month] -->
     <g transform="translate(14.798438 188.573666)rotate(-90)scale(0.1 -0.1)">
      <defs>
       <path id="DejaVuSans-53" d="M 3425 4513 
L 3425 3897 
Q 3066 4069 2747 4153 
Q 2428 4238 2131 4238 
Q 1616 4238 1336 4038 
Q 1056 3838 1056 3469 
Q 1056 3159 1242 3001 
Q 1428 2844 1947 2747 
L 2328 2669 
Q 3034 2534 3370 2195 
Q 3706 1856 3706 1288 
Q 3706 609 3251 259 
Q 2797 -91 1919 -91 
Q 1588 -91 1214 -16 
Q 841 59 441 206 
L 441 856 
Q 825 641 1194 531 
Q 1563 422 1919 422 
Q 2459 422 2753 634 
Q 3047 847 3047 1241 
Q 3047 1584 2836 1778 
Q 2625 1972 2144 2069 
L 1759 2144 
Q 1053 2284 737 2584 
Q 422 2884 422 3419 
Q 422 4038 858 4394 
Q 1294 4750 2059 4750 
Q 2388 4750 2728 4690 
Q 3069 4631 3425 4513 
z
" transform="scale(0.015625)"/>
       <path id="DejaVuSans-75" d="M 544 1381 
L 544 3500 
L 1119 3500 
L 1119 1403 
Q 1119 906 1312 657 
Q 1506 409 1894 409 
Q 2359 409 2629 706 
Q 2900 1003 2900 1516 
L 2900 3500 
L 3475 3500 
L 3475 0 
L 2900 0 
L 2900 538 
Q 2691 219 2414 64 
Q 2138 -91 1772 -91 
Q 1169 -91 856 284 
Q 544 659 544 1381 
z
M 1991 3584 
L 1991 3584 
z
" transform="scale(0.015625)"/>
       <path id="DejaVuSans-66" d="M 2375 4863 
L 2375 4384 
L 1825 4384 
Q 1516 4384 1395 4259 
Q 1275 4134 1275 3809 
L 1275 3500 
L 2222 3500 
L 2222 3053 
L 1275 3053 
L 1275 0 
L 697 0 
L 697 3053 
L 147 3053 
L 147 3500 
L 697 3500 
L 697 3744 
Q 697 4328 969 4595 
Q 1241 4863 1831 4863 
L 2375 4863 
z
" transform="scale(0.015625)"/>
       <path id="DejaVuSans-63" d="M 3122 3366 
L 3122 2828 
Q 2878 2963 2633 3030 
Q 2388 3097 2138 3097 
Q 1578 3097 1268 2742 
Q 959 2388 959 1747 
Q 959 1106 1268 751 
Q 1578 397 2138 397 
Q 2388 397 2633 464 
Q 2878 531 3122 666 
L 3122 134 
Q 2881 22 2623 -34 
Q 2366 -91 2075 -91 
Q 1284 -91 818 406 
Q 353 903 353 1747 
Q 353 2603 823 3093 
Q 1294 3584 2113 3584 
Q 2378 3584 2631 3529 
Q 2884 3475 3122 3366 
z
" transform="scale(0.015625)"/>
       <path id="DejaVuSans-20" transform="scale(0.015625)"/>
       <path id="DejaVuSans-4d" d="M 628 4666 
L 1569 4666 
L 2759 1491 
L 3956 4666 
L 4897 4666 
L 4897 0 
L 4281 0 
L 4281 4097 
L 3078 897 
L 2444 897 
L 1241 4097 
L 1241 0 
L 628 0 
L 628 4666 
z
" transform="scale(0.015625)"/>
       <path id="DejaVuSans-73" d="M 2834 3397 
L 2834 2853 
Q 2591 2978 2328 3040 
Q 2066 3103 1784 3103 
Q 1356 3103 1142 2972 
Q 928 2841 928 2578 
Q 928 2378 1081 2264 
Q 1234 2150 1697 2047 
L 1894 2003 
Q 2506 1872 2764 1633 
Q 3022 1394 3022 966 
Q 3022 478 2636 193 
Q 2250 -91 1575 -91 
Q 1294 -91 989 -36 
Q 684 19 347 128 
L 347 722 
Q 666 556 975 473 
Q 1284 391 1588 391 
Q 1994 391 2212 530 
Q 2431 669 2431 922 
Q 2431 1156 2273 1281 
Q 2116 1406 1581 1522 
L 1381 1569 
Q 847 1681 609 1914 
Q 372 2147 372 2553 
Q 372 3047 722 3315 
Q 1072 3584 1716 3584 
Q 2034 3584 2315 3537 
Q 2597 3491 2834 3397 
z
" transform="scale(0.015625)"/>
       <path id="DejaVuSans-42" d="M 1259 2228 
L 1259 519 
L 2272 519 
Q 2781 519 3026 730 
Q 3272 941 3272 1375 
Q 3272 1813 3026 2020 
Q 2781 2228 2272 2228 
L 1259 2228 
z
M 1259 4147 
L 1259 2741 
L 2194 2741 
Q 2656 2741 2882 2914 
Q 3109 3088 3109 3444 
Q 3109 3797 2882 3972 
Q 2656 4147 2194 4147 
L 1259 4147 
z
M 628 4666 
L 2241 4666 
Q 2963 4666 3353 4366 
Q 3744 4066 3744 3513 
Q 3744 3084 3544 2831 
Q 3344 2578 2956 2516 
Q 3422 2416 3680 2098 
Q 3938 1781 3938 1306 
Q 3938 681 3513 340 
Q 3088 0 2303 0 
L 628 0 
L 628 4666 
z
" transform="scale(0.015625)"/>
       <path id="DejaVuSans-6c" d="M 603 4863 
L 1178 4863 
L 1178 0 
L 603 0 
L 603 4863 
z
" transform="scale(0.015625)"/>
       <path id="DejaVuSans-6e" d="M 3513 2113 
L 3513 0 
L 2938 0 
L 2938 2094 
Q 2938 2591 2744 2837 
Q 2550 3084 2163 3084 
Q 1697 3084 1428 2787 
Q 1159 2491 1159 1978 
L 1159 0 
L 581 0 
L 581 3500 
L 1159 3500 
L 1159 2956 
Q 1366 3272 1645 3428 
Q 1925 3584 2291 3584 
Q 2894 3584 3203 3211 
Q 3513 2838 3513 2113 
z
" transform="scale(0.015625)"/>
       <path id="DejaVuSans-5b" d="M 550 4863 
L 1875 4863 
L 1875 4416 
L 1125 4416 
L 1125 -397 
L 1875 -397 
L 1875 -844 
L 550 -844 
L 550 4863 
z
" transform="scale(0.015625)"/>
       <path id="DejaVuSans-47" d="M 3809 666 
L 3809 1919 
L 2778 1919 
L 2778 2438 
L 4434 2438 
L 4434 434 
Q 4069 175 3628 42 
Q 3188 -91 2688 -91 
Q 1594 -91 976 548 
Q 359 1188 359 2328 
Q 359 3472 976 4111 
Q 1594 4750 2688 4750 
Q 3144 4750 3555 4637 
Q 3966 4525 4313 4306 
L 4313 3634 
Q 3963 3931 3569 4081 
Q 3175 4231 2741 4231 
Q 1884 4231 1454 3753 
Q 1025 3275 1025 2328 
Q 1025 1384 1454 906 
Q 1884 428 2741 428 
Q 3075 428 3337 486 
Q 3600 544 3809 666 
z
" transform="scale(0.015625)"/>
       <path id="DejaVuSans-74" d="M 1172 4494 
L 1172 3500 
L 2356 3500 
L 2356 3053 
L 1172 3053 
L 1172 1153 
Q 1172 725 1289 603 
Q 1406 481 1766 481 
L 2356 481 
L 2356 0 
L 1766 0 
Q 1100 0 847 248 
Q 594 497 594 1153 
L 594 3053 
L 172 3053 
L 172 3500 
L 594 3500 
L 594 4494 
L 1172 4494 
z
" transform="scale(0.015625)"/>
       <path id="DejaVuSans-2f" d="M 1625 4666 
L 2156 4666 
L 531 -594 
L 0 -594 
L 1625 4666 
z
" transform="scale(0.015625)"/>
       <path id="DejaVuSans-6d" d="M 3328 2828 
Q 3544 3216 3844 3400 
Q 4144 3584 4550 3584 
Q 5097 3584 5394 3201 
Q 5691 2819 5691 2113 
L 5691 0 
L 5113 0 
L 5113 2094 
Q 5113 2597 4934 2840 
Q 4756 3084 4391 3084 
Q 3944 3084 3684 2787 
Q 3425 2491 3425 1978 
L 3425 0 
L 2847 0 
L 2847 2094 
Q 2847 2600 2669 2842 
Q 2491 3084 2119 3084 
Q 1678 3084 1418 2786 
Q 1159 2488 1159 1978 
L 1159 0 
L 581 0 
L 581 3500 
L 1159 3500 
L 1159 2956 
Q 1356 3278 1631 3431 
Q 1906 3584 2284 3584 
Q 2666 3584 2933 3390 
Q 3200 3197 3328 2828 
z
" transform="scale(0.015625)"/>
       <path id="DejaVuSans-6f" d="M 1959 3097 
Q 1497 3097 1228 2736 
Q 959 2375 959 1747 
Q 959 1119 1226 758 
Q 1494 397 1959 397 
Q 2419 397 2687 759 
Q 2956 1122 2956 1747 
Q 2956 2369 2687 2733 
Q 2419 3097 1959 3097 
z
M 1959 3584 
Q 2709 3584 3137 3096 
Q 3566 2609 3566 1747 
Q 3566 888 3137 398 
Q 2709 -91 1959 -91 
Q 1206 -91 779 398 
Q 353 888 353 1747 
Q 353 2609 779 3096 
Q 1206 3584 1959 3584 
z
" transform="scale(0.015625)"/>
       <path id="DejaVuSans-68" d="M 3513 2113 
L 3513 0 
L 2938 0 
L 2938 2094 
Q 2938 2591 2744 2837 
Q 2550 3084 2163 3084 
Q 1697 3084 1428 2787 
Q 1159 2491 1159 1978 
L 1159 0 
L 581 0 
L 581 4863 
L 1159 4863 
L 1159 2956 
Q 1366 3272 1645 3428 
Q 1925 3584 2291 3584 
Q 2894 3584 3203 3211 
Q 3513 2838 3513 2113 
z
" transform="scale(0.015625)"/>
       <path id="DejaVuSans-5d" d="M 1947 4863 
L 1947 -844 
L 622 -844 
L 622 -397 
L 1369 -397 
L 1369 4416 
L 622 4416 
L 622 4863 
L 1947 4863 
z
" transform="scale(0.015625)"/>
      </defs>
      <use xlink:href="#DejaVuSans-53"/>
      <use xlink:href="#DejaVuSans-75" x="63.476562"/>
      <use xlink:href="#DejaVuSans-72" x="126.855469"/>
      <use xlink:href="#DejaVuSans-66" x="167.96875"/>
      <use xlink:href="#DejaVuSans-61" x="203.173828"/>
      <use xlink:href="#DejaVuSans-63" x="264.453125"/>
      <use xlink:href="#DejaVuSans-65" x="319.433594"/>
      <use xlink:href="#DejaVuSans-20" x="380.957031"/>
      <use xlink:href="#DejaVuSans-4d" x="412.744141"/>
      <use xlink:href="#DejaVuSans-61" x="499.023438"/>
      <use xlink:href="#DejaVuSans-73" x="560.302734"/>
      <use xlink:href="#DejaVuSans-73" x="612.402344"/>
      <use xlink:href="#DejaVuSans-20" x="664.501953"/>
      <use xlink:href="#DejaVuSans-42" x="696.289062"/>
      <use xlink:href="#DejaVuSans-61" x="764.892578"/>
      <use xlink:href="#DejaVuSans-6c" x="826.171875"/>
      <use xlink:href="#DejaVuSans-61" x="853.955078"/>
      <use xlink:href="#DejaVuSans-6e" x="915.234375"/>
      <use xlink:href="#DejaVuSans-63" x="978.613281"/>
      <use xlink:href="#DejaVuSans-65" x="1033.59375"/>
      <use xlink:href="#DejaVuSans-20" x="1095.117188"/>
      <use xlink:href="#DejaVuSans-5b" x="1126.904297"/>
      <use xlink:href="#DejaVuSans-47" x="1165.917969"/>
      <use xlink:href="#DejaVuSans-74" x="1243.408203"/>
      <use xlink:href="#DejaVuSans-2f" x="1282.617188"/>
      <use xlink:href="#DejaVuSans-6d" x="1316.308594"/>
      <use xlink:href="#DejaVuSans-6f" x="1413.720703"/>
      <use xlink:href="#DejaVuSans-6e" x="1474.902344"/>
      <use xlink:href="#DejaVuSans-74" x="1538.28125"/>
      <use xlink:href="#DejaVuSans-68" x="1577.490234"/>
      <use xlink:href="#DejaVuSans-5d" x="1640.869141"/>
     </g>
    </g>
   </g>
   <g id="line2d_14">
    <path d="M 67.794438 155.882196 
L 68.601757 152.964919 
L 69.409075 127.683027 
L 70.216393 130.129955 
L 71.023712 134.285529 
L 71.83103 133.523537 
L 73.445667 127.530563 
L 74.252985 132.411496 
L 75.060304 142.69925 
L 75.867622 134.424074 
L 76.67494 154.010462 
L 77.482259 157.282046 
L 78.289577 143.755873 
L 79.096895 126.656077 
L 79.904214 127.688813 
L 80.711532 124.669853 
L 81.51885 116.365835 
L 82.326169 127.647777 
L 83.133487 120.422293 
L 83.940805 139.926646 
L 84.748124 139.679657 
L 85.555442 152.402082 
L 86.36276 156.443159 
L 87.170079 162.100249 
L 87.977397 147.298197 
L 88.784715 137.502054 
L 89.592034 134.953891 
L 90.399352 122.796123 
L 92.013989 110.217147 
L 92.821307 115.231253 
L 93.628626 125.028334 
L 94.435944 136.846783 
L 95.243262 140.112254 
L 96.050581 140.912485 
L 97.665217 155.666376 
L 100.087172 123.516767 
L 100.894491 102.217025 
L 101.701809 109.258259 
L 102.509127 131.193687 
L 103.316446 149.481678 
L 104.123764 139.508929 
L 104.931082 144.299852 
L 105.738401 153.414022 
L 106.545719 156.093839 
L 107.353038 155.608047 
L 108.160356 141.108126 
L 108.967674 130.498067 
L 109.774993 134.247576 
L 110.582311 128.744227 
L 111.389629 132.758533 
L 112.196948 144.587895 
L 113.004266 131.812832 
L 113.811584 129.485582 
L 114.618903 153.957872 
L 116.233539 150.194499 
L 117.040858 145.888735 
L 117.848176 135.805131 
L 118.655494 116.511969 
L 119.462813 121.027995 
L 120.270131 128.081368 
L 121.077449 145.925866 
L 121.884768 138.52615 
L 122.692086 132.197006 
L 123.499405 137.028804 
L 124.306723 140.845577 
L 125.114041 154.801637 
L 125.92136 158.186312 
L 126.728678 156.432929 
L 127.535996 142.824563 
L 128.343315 127.128188 
L 129.150633 129.603133 
L 129.957951 135.628925 
L 130.76527 130.116096 
L 131.572588 120.377539 
L 133.187225 146.466513 
L 133.994543 151.038698 
L 134.801861 141.484633 
L 135.60918 150.145889 
L 136.416498 147.025595 
L 137.223816 136.734602 
L 138.031135 131.025342 
L 138.838453 136.838567 
L 139.645771 137.132549 
L 140.45309 128.144016 
L 141.260408 125.173773 
L 142.067727 129.908731 
L 142.875045 130.960583 
L 143.682363 135.820919 
L 144.489682 155.990345 
L 145.297 157.582088 
L 146.104318 154.116771 
L 146.911637 143.023605 
L 147.718955 137.130937 
L 148.526273 142.674652 
L 149.333592 134.664016 
L 150.14091 130.382661 
L 150.948228 143.715877 
L 151.755547 149.828738 
L 152.562865 142.92589 
L 153.370183 143.91077 
L 154.177502 156.259682 
L 154.98482 160.113609 
L 155.792138 147.698855 
L 156.599457 146.807927 
L 157.406775 126.043474 
L 158.214094 126.980367 
L 159.021412 135.828882 
L 159.82873 140.366172 
L 160.636049 137.34492 
L 161.443367 137.007739 
L 162.250685 144.379411 
L 163.058004 160.252465 
L 163.865322 159.265229 
L 164.67264 163.714999 
L 165.479959 156.651556 
L 166.287277 136.268788 
L 167.094595 137.590206 
L 167.901914 135.877061 
L 168.709232 136.731837 
L 169.51655 131.956401 
L 170.323869 130.136695 
L 171.131187 135.130865 
L 171.938505 137.515739 
L 172.745824 146.506729 
L 173.553142 154.12319 
L 174.360461 147.975019 
L 175.167779 147.892644 
L 176.782416 133.320726 
L 177.589734 131.686851 
L 178.397052 140.486614 
L 180.011689 119.632766 
L 180.819007 135.521613 
L 181.626326 146.383001 
L 182.433644 147.844974 
L 183.240962 146.504189 
L 184.048281 154.536839 
L 184.855599 143.148402 
L 185.662917 128.523983 
L 186.470236 118.109042 
L 187.277554 127.040444 
L 188.084872 127.809604 
L 188.892191 127.581808 
L 189.699509 129.612752 
L 190.506827 137.173806 
L 191.314146 143.061466 
L 192.121464 154.01157 
L 192.928783 161.152256 
L 193.736101 162.902972 
L 194.543419 154.699655 
L 195.350738 143.220784 
L 196.158056 120.966868 
L 196.965374 116.829468 
L 197.772693 127.484413 
L 198.580011 131.708733 
L 199.387329 122.425649 
L 200.194648 125.56219 
L 201.001966 149.849534 
L 201.809284 137.107437 
L 202.616603 139.340466 
L 203.423921 158.605044 
L 204.231239 146.404784 
L 205.038558 129.408908 
L 205.845876 133.79666 
L 206.653194 142.161335 
L 207.460513 139.520102 
L 208.267831 133.056953 
L 209.07515 128.624673 
L 209.882468 134.021666 
L 210.689786 144.174665 
L 211.497105 150.55055 
L 212.304423 151.36547 
L 213.111741 143.498688 
L 213.91906 158.384714 
L 214.726378 143.758191 
L 215.533696 142.79248 
L 216.341015 137.510228 
L 217.148333 138.753412 
L 217.955651 142.074198 
L 218.76297 140.332353 
L 219.570288 139.647753 
L 220.377606 132.443354 
L 221.184925 151.420805 
L 221.992243 158.172611 
L 222.799561 152.862366 
L 223.60688 151.404686 
L 225.221517 130.822911 
L 226.028835 127.112975 
L 226.836153 134.567298 
L 227.643472 123.891064 
L 228.45079 125.756154 
L 229.258108 127.196027 
L 230.872745 155.568976 
L 231.680063 160.962796 
L 233.2947 148.381634 
L 234.102018 128.484814 
L 234.909337 117.358826 
L 235.716655 128.455474 
L 236.523973 136.843481 
L 237.331292 122.730028 
L 238.13861 125.862088 
L 238.945928 142.002123 
L 239.753247 145.373023 
L 240.560565 151.744782 
L 241.367883 150.37899 
L 242.175202 159.501313 
L 242.98252 150.253433 
L 243.789839 136.387851 
L 244.597157 133.090079 
L 245.404475 139.108189 
L 246.211794 141.394538 
L 247.019112 135.922711 
L 247.82643 139.921299 
L 248.633749 146.190767 
L 249.441067 145.58228 
L 250.248385 154.701062 
L 251.055704 152.966963 
L 251.863022 160.717848 
L 252.67034 157.322826 
L 253.477659 142.685882 
L 254.284977 136.2747 
L 255.092295 124.287893 
L 255.899614 120.980709 
L 256.706932 133.546617 
L 257.51425 123.91709 
L 258.321569 135.083503 
L 259.128887 148.671596 
L 259.936206 148.836097 
L 260.743524 145.18601 
L 261.550842 151.053783 
L 262.358161 156.065732 
L 263.165479 141.758632 
L 263.972797 147.342743 
L 264.780116 134.182116 
L 265.587434 135.336349 
L 266.394752 146.874654 
L 267.202071 137.647058 
L 268.009389 139.364704 
L 268.816707 141.901895 
L 269.624026 135.697048 
L 270.431344 154.126818 
L 271.238662 155.820597 
L 272.045981 153.409213 
L 272.853299 142.738414 
L 273.660617 140.378474 
L 274.467936 138.99124 
L 275.275254 130.441644 
L 276.082572 141.78989 
L 276.889891 134.419104 
L 277.697209 123.969288 
L 278.504528 139.161367 
L 279.311846 149.411974 
L 280.119164 155.771572 
L 280.926483 165.024185 
L 281.733801 143.302571 
L 282.541119 139.959554 
L 283.348438 130.454632 
L 284.155756 126.222236 
L 284.963074 130.172255 
L 285.770393 130.472996 
L 286.577711 133.132004 
L 287.385029 144.623803 
L 288.192348 145.889974 
L 288.999666 142.627685 
L 289.806984 132.947782 
L 290.614303 124.743257 
L 291.421621 131.775906 
L 292.228939 135.387193 
L 293.036258 121.448097 
L 293.843576 126.87552 
L 294.650895 134.673711 
L 295.458213 134.764536 
L 296.265531 135.716952 
L 297.07285 135.294494 
L 297.880168 147.442756 
L 298.687486 150.216889 
L 299.494805 154.490113 
L 301.91676 140.22775 
L 302.724078 134.453736 
L 303.531396 131.308246 
L 304.338715 137.902997 
L 305.146033 139.463076 
L 305.953351 132.59113 
L 306.76067 132.653274 
L 307.567988 143.284311 
L 308.375306 158.682693 
L 309.182625 158.63353 
L 309.989943 162.805222 
L 310.797262 142.134959 
L 312.411898 129.545476 
L 314.026535 132.960821 
L 314.833853 124.084521 
L 315.641172 128.675145 
L 316.44849 122.850953 
L 317.255808 146.755836 
L 318.063127 151.424642 
L 318.870445 159.100591 
L 319.677763 163.550322 
L 320.485082 148.427955 
L 321.2924 135.80207 
L 322.099718 126.439007 
L 322.907037 137.095629 
L 323.714355 131.418424 
L 324.521673 131.346271 
L 325.328992 134.484944 
L 326.13631 129.607283 
L 326.943628 127.764592 
L 327.750947 134.859247 
L 328.558265 153.720831 
L 329.365584 157.696129 
L 330.172902 151.118574 
L 330.98022 142.212886 
L 331.787539 125.290366 
L 332.594857 128.478085 
L 333.402175 135.468326 
L 334.209494 134.664918 
L 335.016812 137.537649 
L 335.82413 145.347108 
L 336.631449 141.266052 
L 337.438767 134.969176 
L 339.053404 160.184742 
L 339.860722 153.978996 
L 340.66804 143.019836 
L 341.475359 127.745292 
L 342.282677 130.613608 
L 343.897314 140.738734 
L 344.704632 141.905168 
L 345.511951 142.595662 
L 346.319269 148.111936 
L 347.126587 146.652547 
L 347.933906 148.962807 
L 348.741224 159.812498 
L 349.548542 155.164149 
L 350.355861 145.466608 
L 351.163179 133.868334 
L 351.970497 130.791464 
L 352.777816 145.993834 
L 353.585134 143.896384 
L 354.392452 125.075255 
L 355.199771 123.52092 
L 356.007089 151.589414 
L 356.814407 144.435092 
L 357.621726 140.017755 
L 358.429044 150.85612 
L 360.043681 122.155502 
L 360.850999 134.094841 
L 361.658318 127.72744 
L 362.465636 111.5806 
L 363.272954 108.805207 
L 364.080273 113.131716 
L 364.887591 134.449994 
L 365.694909 136.220693 
L 366.502228 148.945391 
L 367.309546 158.628252 
L 368.116864 161.175039 
L 368.924183 149.571816 
L 369.731501 142.693765 
L 370.538819 146.482217 
L 371.346138 144.413833 
L 372.153456 138.14643 
L 372.960774 140.952998 
L 373.768093 136.31567 
L 374.575411 132.64004 
L 375.382729 132.451458 
L 376.190048 134.891464 
L 376.997366 145.872456 
L 377.804684 148.863175 
L 378.612003 143.704715 
L 379.419321 135.607296 
L 380.22664 133.759756 
L 381.033958 129.22808 
L 381.841276 137.178574 
L 382.648595 122.427965 
L 383.455913 115.518304 
L 384.263231 133.069328 
L 385.07055 143.760745 
L 385.877868 147.005495 
L 386.685186 156.03592 
L 387.492505 138.4554 
L 388.299823 148.605545 
L 389.107141 136.373967 
L 389.91446 138.174296 
L 390.721778 135.632161 
L 391.529096 124.10583 
L 392.336415 127.83461 
L 393.143733 137.296109 
L 393.951051 132.255018 
L 394.75837 149.313088 
L 395.565688 153.465032 
L 396.373007 159.175377 
L 397.180325 159.039364 
L 397.987643 144.097465 
L 400.409598 132.254666 
L 401.216917 131.031993 
L 402.024235 130.671857 
L 402.831553 137.467035 
L 403.638872 129.809557 
L 404.44619 131.077454 
L 405.253508 150.272584 
L 406.060827 147.943371 
L 406.868145 156.596213 
L 407.675463 156.217299 
L 408.482782 141.044125 
L 409.2901 135.635741 
L 410.097418 131.053889 
L 410.904737 133.338241 
L 411.712055 145.621366 
L 412.519374 140.536952 
L 413.326692 142.948544 
L 414.13401 153.969417 
L 415.748647 161.588012 
L 416.555965 160.406814 
L 417.363284 150.645945 
L 418.170602 137.816201 
L 418.97792 131.196391 
L 419.785239 126.894093 
L 421.399875 137.375054 
L 422.207194 124.243957 
L 423.014512 125.424644 
L 423.82183 144.172766 
L 424.629149 155.863117 
L 425.436467 148.612514 
L 426.243785 158.768079 
L 427.051104 150.434486 
L 427.858422 139.336135 
L 429.473059 126.82522 
L 430.280377 123.89958 
L 431.087696 130.993371 
L 431.895014 132.761416 
L 432.702332 135.148609 
L 433.509651 140.129551 
L 434.316969 141.691129 
L 435.124287 153.361533 
L 435.931606 161.777644 
L 436.738924 150.883995 
L 437.546242 133.983989 
L 438.353561 141.32111 
L 439.160879 128.207488 
L 439.968197 134.265584 
L 440.775516 142.269761 
L 441.582834 129.090119 
L 442.390152 132.784751 
L 443.197471 137.07723 
L 444.004789 146.775517 
L 444.812107 148.719448 
L 445.619426 160.153043 
L 446.426744 147.370142 
L 447.234063 126.530703 
L 448.041381 130.285426 
L 449.656018 135.034269 
L 450.463336 134.633608 
L 451.270654 137.513504 
L 452.077973 141.627193 
L 452.885291 139.898026 
L 453.692609 146.222926 
L 454.499928 155.549454 
L 455.307246 160.19689 
L 456.114564 145.912322 
L 456.921883 137.691127 
L 457.729201 139.782803 
L 458.536519 139.099654 
L 459.343838 135.239179 
L 460.151156 128.655864 
L 460.958474 127.944332 
L 461.765793 141.382734 
L 462.573111 146.546586 
L 463.38043 149.202502 
L 464.187748 162.958863 
L 464.995066 159.842391 
L 465.802385 149.550246 
L 466.609703 137.465365 
L 467.417021 129.644298 
L 468.22434 124.105988 
L 469.031658 128.717446 
L 469.838976 125.401243 
L 470.646295 132.577146 
L 471.453613 136.869852 
L 472.260931 132.196706 
L 473.06825 145.995953 
L 474.682886 154.068248 
L 475.490205 151.223247 
L 476.297523 144.981874 
L 477.104841 127.195611 
L 477.91216 140.422565 
L 478.719478 136.67615 
L 479.526796 131.31701 
L 480.334115 128.295144 
L 481.141433 132.312391 
L 481.948752 127.431388 
L 482.75607 128.175937 
L 483.563388 140.498931 
L 484.370707 138.155673 
L 484.370707 138.155673 
" clip-path="url(#pe0f4af057b)" style="fill: none; stroke: #000000; stroke-width: 1.5; stroke-linecap: square"/>
   </g>
   <g id="patch_3">
    <path d="M 46.965625 186.84327 
L 46.965625 22.318125 
" style="fill: none; stroke: #000000; stroke-width: 0.8; stroke-linejoin: miter; stroke-linecap: square"/>
   </g>
   <g id="patch_4">
    <path d="M 505.19952 186.84327 
L 505.19952 22.318125 
" style="fill: none; stroke: #000000; stroke-width: 0.8; stroke-linejoin: miter; stroke-linecap: square"/>
   </g>
   <g id="patch_5">
    <path d="M 46.965625 186.84327 
L 505.19952 186.84327 
" style="fill: none; stroke: #000000; stroke-width: 0.8; stroke-linejoin: miter; stroke-linecap: square"/>
   </g>
   <g id="patch_6">
    <path d="M 46.965625 22.318125 
L 505.19952 22.318125 
" style="fill: none; stroke: #000000; stroke-width: 0.8; stroke-linejoin: miter; stroke-linecap: square"/>
   </g>
   <g id="text_16">
    <!-- East Antarctica -->
    <g transform="translate(230.668198 16.318125)scale(0.12 -0.12)">
     <defs>
      <path id="DejaVuSans-45" d="M 628 4666 
L 3578 4666 
L 3578 4134 
L 1259 4134 
L 1259 2753 
L 3481 2753 
L 3481 2222 
L 1259 2222 
L 1259 531 
L 3634 531 
L 3634 0 
L 628 0 
L 628 4666 
z
" transform="scale(0.015625)"/>
      <path id="DejaVuSans-41" d="M 2188 4044 
L 1331 1722 
L 3047 1722 
L 2188 4044 
z
M 1831 4666 
L 2547 4666 
L 4325 0 
L 3669 0 
L 3244 1197 
L 1141 1197 
L 716 0 
L 50 0 
L 1831 4666 
z
" transform="scale(0.015625)"/>
      <path id="DejaVuSans-69" d="M 603 3500 
L 1178 3500 
L 1178 0 
L 603 0 
L 603 3500 
z
M 603 4863 
L 1178 4863 
L 1178 4134 
L 603 4134 
L 603 4863 
z
" transform="scale(0.015625)"/>
     </defs>
     <use xlink:href="#DejaVuSans-45"/>
     <use xlink:href="#DejaVuSans-61" x="63.183594"/>
     <use xlink:href="#DejaVuSans-73" x="124.462891"/>
     <use xlink:href="#DejaVuSans-74" x="176.5625"/>
     <use xlink:href="#DejaVuSans-20" x="215.771484"/>
     <use xlink:href="#DejaVuSans-41" x="247.558594"/>
     <use xlink:href="#DejaVuSans-6e" x="315.966797"/>
     <use xlink:href="#DejaVuSans-74" x="379.345703"/>
     <use xlink:href="#DejaVuSans-61" x="418.554688"/>
     <use xlink:href="#DejaVuSans-72" x="479.833984"/>
     <use xlink:href="#DejaVuSans-63" x="518.697266"/>
     <use xlink:href="#DejaVuSans-74" x="573.677734"/>
     <use xlink:href="#DejaVuSans-69" x="612.886719"/>
     <use xlink:href="#DejaVuSans-63" x="640.669922"/>
     <use xlink:href="#DejaVuSans-61" x="695.650391"/>
    </g>
   </g>
  </g>
 </g>
 <defs>
  <clipPath id="pe0f4af057b">
   <rect x="46.965625" y="22.318125" width="458.233895" height="164.525145"/>
  </clipPath>
 </defs>
</svg>
