<?xml version="1.0" encoding="utf-8" standalone="no"?>
<!DOCTYPE svg PUBLIC "-//W3C//DTD SVG 1.1//EN"
  "http://www.w3.org/Graphics/SVG/1.1/DTD/svg11.dtd">
<svg xmlns:xlink="http://www.w3.org/1999/xlink" width="512.39952pt" height="224.39952pt" viewBox="0 0 512.39952 224.39952" xmlns="http://www.w3.org/2000/svg" version="1.1">
 <metadata>
  <rdf:RDF xmlns:dc="http://purl.org/dc/elements/1.1/" xmlns:cc="http://creativecommons.org/ns#" xmlns:rdf="http://www.w3.org/1999/02/22-rdf-syntax-ns#">
   <cc:Work>
    <dc:type rdf:resource="http://purl.org/dc/dcmitype/StillImage"/>
    <dc:date>2023-01-30T12:47:02.335832</dc:date>
    <dc:format>image/svg+xml</dc:format>
    <dc:creator>
     <cc:Agent>
      <dc:title>Matplotlib v3.5.1, https://matplotlib.org/</dc:title>
     </cc:Agent>
    </dc:creator>
   </cc:Work>
  </rdf:RDF>
 </metadata>
 <defs>
  <style type="text/css">*{stroke-linejoin: round; stroke-linecap: butt}</style>
 </defs>
 <g id="figure_1">
  <g id="patch_1">
   <path d="M 0 224.39952 
L 512.39952 224.39952 
L 512.39952 0 
L 0 0 
z
" style="fill: #ffffff"/>
  </g>
  <g id="axes_1">
   <g id="patch_2">
    <path d="M 72.905625 186.84327 
L 505.19952 186.84327 
L 505.19952 22.318125 
L 72.905625 22.318125 
z
" style="fill: #ffffff"/>
   </g>
   <g id="matplotlib.axis_1">
    <g id="xtick_1">
     <g id="line2d_1">
      <defs>
       <path id="ma546cb733b" d="M 0 0 
L 0 3.5 
" style="stroke: #000000; stroke-width: 0.8"/>
      </defs>
      <g>
       <use xlink:href="#ma546cb733b" x="101.694753" y="186.84327" style="stroke: #000000; stroke-width: 0.8"/>
      </g>
     </g>
     <g id="text_1">
      <!-- 1980 -->
      <g transform="translate(88.969753 201.441708)scale(0.1 -0.1)">
       <defs>
        <path id="DejaVuSans-31" d="M 794 531 
L 1825 531 
L 1825 4091 
L 703 3866 
L 703 4441 
L 1819 4666 
L 2450 4666 
L 2450 531 
L 3481 531 
L 3481 0 
L 794 0 
L 794 531 
z
" transform="scale(0.015625)"/>
        <path id="DejaVuSans-39" d="M 703 97 
L 703 672 
Q 941 559 1184 500 
Q 1428 441 1663 441 
Q 2288 441 2617 861 
Q 2947 1281 2994 2138 
Q 2813 1869 2534 1725 
Q 2256 1581 1919 1581 
Q 1219 1581 811 2004 
Q 403 2428 403 3163 
Q 403 3881 828 4315 
Q 1253 4750 1959 4750 
Q 2769 4750 3195 4129 
Q 3622 3509 3622 2328 
Q 3622 1225 3098 567 
Q 2575 -91 1691 -91 
Q 1453 -91 1209 -44 
Q 966 3 703 97 
z
M 1959 2075 
Q 2384 2075 2632 2365 
Q 2881 2656 2881 3163 
Q 2881 3666 2632 3958 
Q 2384 4250 1959 4250 
Q 1534 4250 1286 3958 
Q 1038 3666 1038 3163 
Q 1038 2656 1286 2365 
Q 1534 2075 1959 2075 
z
" transform="scale(0.015625)"/>
        <path id="DejaVuSans-38" d="M 2034 2216 
Q 1584 2216 1326 1975 
Q 1069 1734 1069 1313 
Q 1069 891 1326 650 
Q 1584 409 2034 409 
Q 2484 409 2743 651 
Q 3003 894 3003 1313 
Q 3003 1734 2745 1975 
Q 2488 2216 2034 2216 
z
M 1403 2484 
Q 997 2584 770 2862 
Q 544 3141 544 3541 
Q 544 4100 942 4425 
Q 1341 4750 2034 4750 
Q 2731 4750 3128 4425 
Q 3525 4100 3525 3541 
Q 3525 3141 3298 2862 
Q 3072 2584 2669 2484 
Q 3125 2378 3379 2068 
Q 3634 1759 3634 1313 
Q 3634 634 3220 271 
Q 2806 -91 2034 -91 
Q 1263 -91 848 271 
Q 434 634 434 1313 
Q 434 1759 690 2068 
Q 947 2378 1403 2484 
z
M 1172 3481 
Q 1172 3119 1398 2916 
Q 1625 2713 2034 2713 
Q 2441 2713 2670 2916 
Q 2900 3119 2900 3481 
Q 2900 3844 2670 4047 
Q 2441 4250 2034 4250 
Q 1625 4250 1398 4047 
Q 1172 3844 1172 3481 
z
" transform="scale(0.015625)"/>
        <path id="DejaVuSans-30" d="M 2034 4250 
Q 1547 4250 1301 3770 
Q 1056 3291 1056 2328 
Q 1056 1369 1301 889 
Q 1547 409 2034 409 
Q 2525 409 2770 889 
Q 3016 1369 3016 2328 
Q 3016 3291 2770 3770 
Q 2525 4250 2034 4250 
z
M 2034 4750 
Q 2819 4750 3233 4129 
Q 3647 3509 3647 2328 
Q 3647 1150 3233 529 
Q 2819 -91 2034 -91 
Q 1250 -91 836 529 
Q 422 1150 422 2328 
Q 422 3509 836 4129 
Q 1250 4750 2034 4750 
z
" transform="scale(0.015625)"/>
       </defs>
       <use xlink:href="#DejaVuSans-31"/>
       <use xlink:href="#DejaVuSans-39" x="63.623047"/>
       <use xlink:href="#DejaVuSans-38" x="127.246094"/>
       <use xlink:href="#DejaVuSans-30" x="190.869141"/>
      </g>
     </g>
    </g>
    <g id="xtick_2">
     <g id="line2d_2">
      <g>
       <use xlink:href="#ma546cb733b" x="193.088811" y="186.84327" style="stroke: #000000; stroke-width: 0.8"/>
      </g>
     </g>
     <g id="text_2">
      <!-- 1990 -->
      <g transform="translate(180.363811 201.441708)scale(0.1 -0.1)">
       <use xlink:href="#DejaVuSans-31"/>
       <use xlink:href="#DejaVuSans-39" x="63.623047"/>
       <use xlink:href="#DejaVuSans-39" x="127.246094"/>
       <use xlink:href="#DejaVuSans-30" x="190.869141"/>
      </g>
     </g>
    </g>
    <g id="xtick_3">
     <g id="line2d_3">
      <g>
       <use xlink:href="#ma546cb733b" x="284.48287" y="186.84327" style="stroke: #000000; stroke-width: 0.8"/>
      </g>
     </g>
     <g id="text_3">
      <!-- 2000 -->
      <g transform="translate(271.75787 201.441708)scale(0.1 -0.1)">
       <defs>
        <path id="DejaVuSans-32" d="M 1228 531 
L 3431 531 
L 3431 0 
L 469 0 
L 469 531 
Q 828 903 1448 1529 
Q 2069 2156 2228 2338 
Q 2531 2678 2651 2914 
Q 2772 3150 2772 3378 
Q 2772 3750 2511 3984 
Q 2250 4219 1831 4219 
Q 1534 4219 1204 4116 
Q 875 4013 500 3803 
L 500 4441 
Q 881 4594 1212 4672 
Q 1544 4750 1819 4750 
Q 2544 4750 2975 4387 
Q 3406 4025 3406 3419 
Q 3406 3131 3298 2873 
Q 3191 2616 2906 2266 
Q 2828 2175 2409 1742 
Q 1991 1309 1228 531 
z
" transform="scale(0.015625)"/>
       </defs>
       <use xlink:href="#DejaVuSans-32"/>
       <use xlink:href="#DejaVuSans-30" x="63.623047"/>
       <use xlink:href="#DejaVuSans-30" x="127.246094"/>
       <use xlink:href="#DejaVuSans-30" x="190.869141"/>
      </g>
     </g>
    </g>
    <g id="xtick_4">
     <g id="line2d_4">
      <g>
       <use xlink:href="#ma546cb733b" x="375.876928" y="186.84327" style="stroke: #000000; stroke-width: 0.8"/>
      </g>
     </g>
     <g id="text_4">
      <!-- 2010 -->
      <g transform="translate(363.151928 201.441708)scale(0.1 -0.1)">
       <use xlink:href="#DejaVuSans-32"/>
       <use xlink:href="#DejaVuSans-30" x="63.623047"/>
       <use xlink:href="#DejaVuSans-31" x="127.246094"/>
       <use xlink:href="#DejaVuSans-30" x="190.869141"/>
      </g>
     </g>
    </g>
    <g id="xtick_5">
     <g id="line2d_5">
      <g>
       <use xlink:href="#ma546cb733b" x="467.270986" y="186.84327" style="stroke: #000000; stroke-width: 0.8"/>
      </g>
     </g>
     <g id="text_5">
      <!-- 2020 -->
      <g transform="translate(454.545986 201.441708)scale(0.1 -0.1)">
       <use xlink:href="#DejaVuSans-32"/>
       <use xlink:href="#DejaVuSans-30" x="63.623047"/>
       <use xlink:href="#DejaVuSans-32" x="127.246094"/>
       <use xlink:href="#DejaVuSans-30" x="190.869141"/>
      </g>
     </g>
    </g>
    <g id="text_6">
     <!-- Year -->
     <g transform="translate(278.465073 215.119833)scale(0.1 -0.1)">
      <defs>
       <path id="DejaVuSans-59" d="M -13 4666 
L 666 4666 
L 1959 2747 
L 3244 4666 
L 3922 4666 
L 2272 2222 
L 2272 0 
L 1638 0 
L 1638 2222 
L -13 4666 
z
" transform="scale(0.015625)"/>
       <path id="DejaVuSans-65" d="M 3597 1894 
L 3597 1613 
L 953 1613 
Q 991 1019 1311 708 
Q 1631 397 2203 397 
Q 2534 397 2845 478 
Q 3156 559 3463 722 
L 3463 178 
Q 3153 47 2828 -22 
Q 2503 -91 2169 -91 
Q 1331 -91 842 396 
Q 353 884 353 1716 
Q 353 2575 817 3079 
Q 1281 3584 2069 3584 
Q 2775 3584 3186 3129 
Q 3597 2675 3597 1894 
z
M 3022 2063 
Q 3016 2534 2758 2815 
Q 2500 3097 2075 3097 
Q 1594 3097 1305 2825 
Q 1016 2553 972 2059 
L 3022 2063 
z
" transform="scale(0.015625)"/>
       <path id="DejaVuSans-61" d="M 2194 1759 
Q 1497 1759 1228 1600 
Q 959 1441 959 1056 
Q 959 750 1161 570 
Q 1363 391 1709 391 
Q 2188 391 2477 730 
Q 2766 1069 2766 1631 
L 2766 1759 
L 2194 1759 
z
M 3341 1997 
L 3341 0 
L 2766 0 
L 2766 531 
Q 2569 213 2275 61 
Q 1981 -91 1556 -91 
Q 1019 -91 701 211 
Q 384 513 384 1019 
Q 384 1609 779 1909 
Q 1175 2209 1959 2209 
L 2766 2209 
L 2766 2266 
Q 2766 2663 2505 2880 
Q 2244 3097 1772 3097 
Q 1472 3097 1187 3025 
Q 903 2953 641 2809 
L 641 3341 
Q 956 3463 1253 3523 
Q 1550 3584 1831 3584 
Q 2591 3584 2966 3190 
Q 3341 2797 3341 1997 
z
" transform="scale(0.015625)"/>
       <path id="DejaVuSans-72" d="M 2631 2963 
Q 2534 3019 2420 3045 
Q 2306 3072 2169 3072 
Q 1681 3072 1420 2755 
Q 1159 2438 1159 1844 
L 1159 0 
L 581 0 
L 581 3500 
L 1159 3500 
L 1159 2956 
Q 1341 3275 1631 3429 
Q 1922 3584 2338 3584 
Q 2397 3584 2469 3576 
Q 2541 3569 2628 3553 
L 2631 2963 
z
" transform="scale(0.015625)"/>
      </defs>
      <use xlink:href="#DejaVuSans-59"/>
      <use xlink:href="#DejaVuSans-65" x="47.833984"/>
      <use xlink:href="#DejaVuSans-61" x="109.357422"/>
      <use xlink:href="#DejaVuSans-72" x="170.636719"/>
     </g>
    </g>
   </g>
   <g id="matplotlib.axis_2">
    <g id="ytick_1">
     <g id="line2d_6">
      <defs>
       <path id="m9d9017f476" d="M 0 0 
L -3.5 0 
" style="stroke: #000000; stroke-width: 0.8"/>
      </defs>
      <g>
       <use xlink:href="#m9d9017f476" x="72.905625" y="186.84327" style="stroke: #000000; stroke-width: 0.8"/>
      </g>
     </g>
     <g id="text_7">
      <!-- −3000 -->
      <g transform="translate(32.075938 190.642489)scale(0.1 -0.1)">
       <defs>
        <path id="DejaVuSans-2212" d="M 678 2272 
L 4684 2272 
L 4684 1741 
L 678 1741 
L 678 2272 
z
" transform="scale(0.015625)"/>
        <path id="DejaVuSans-33" d="M 2597 2516 
Q 3050 2419 3304 2112 
Q 3559 1806 3559 1356 
Q 3559 666 3084 287 
Q 2609 -91 1734 -91 
Q 1441 -91 1130 -33 
Q 819 25 488 141 
L 488 750 
Q 750 597 1062 519 
Q 1375 441 1716 441 
Q 2309 441 2620 675 
Q 2931 909 2931 1356 
Q 2931 1769 2642 2001 
Q 2353 2234 1838 2234 
L 1294 2234 
L 1294 2753 
L 1863 2753 
Q 2328 2753 2575 2939 
Q 2822 3125 2822 3475 
Q 2822 3834 2567 4026 
Q 2313 4219 1838 4219 
Q 1578 4219 1281 4162 
Q 984 4106 628 3988 
L 628 4550 
Q 988 4650 1302 4700 
Q 1616 4750 1894 4750 
Q 2613 4750 3031 4423 
Q 3450 4097 3450 3541 
Q 3450 3153 3228 2886 
Q 3006 2619 2597 2516 
z
" transform="scale(0.015625)"/>
       </defs>
       <use xlink:href="#DejaVuSans-2212"/>
       <use xlink:href="#DejaVuSans-33" x="83.789062"/>
       <use xlink:href="#DejaVuSans-30" x="147.412109"/>
       <use xlink:href="#DejaVuSans-30" x="211.035156"/>
       <use xlink:href="#DejaVuSans-30" x="274.658203"/>
      </g>
     </g>
    </g>
    <g id="ytick_2">
     <g id="line2d_7">
      <g>
       <use xlink:href="#m9d9017f476" x="72.905625" y="164.906584" style="stroke: #000000; stroke-width: 0.8"/>
      </g>
     </g>
     <g id="text_8">
      <!-- −2500 -->
      <g transform="translate(32.075938 168.705803)scale(0.1 -0.1)">
       <defs>
        <path id="DejaVuSans-35" d="M 691 4666 
L 3169 4666 
L 3169 4134 
L 1269 4134 
L 1269 2991 
Q 1406 3038 1543 3061 
Q 1681 3084 1819 3084 
Q 2600 3084 3056 2656 
Q 3513 2228 3513 1497 
Q 3513 744 3044 326 
Q 2575 -91 1722 -91 
Q 1428 -91 1123 -41 
Q 819 9 494 109 
L 494 744 
Q 775 591 1075 516 
Q 1375 441 1709 441 
Q 2250 441 2565 725 
Q 2881 1009 2881 1497 
Q 2881 1984 2565 2268 
Q 2250 2553 1709 2553 
Q 1456 2553 1204 2497 
Q 953 2441 691 2322 
L 691 4666 
z
" transform="scale(0.015625)"/>
       </defs>
       <use xlink:href="#DejaVuSans-2212"/>
       <use xlink:href="#DejaVuSans-32" x="83.789062"/>
       <use xlink:href="#DejaVuSans-35" x="147.412109"/>
       <use xlink:href="#DejaVuSans-30" x="211.035156"/>
       <use xlink:href="#DejaVuSans-30" x="274.658203"/>
      </g>
     </g>
    </g>
    <g id="ytick_3">
     <g id="line2d_8">
      <g>
       <use xlink:href="#m9d9017f476" x="72.905625" y="142.969898" style="stroke: #000000; stroke-width: 0.8"/>
      </g>
     </g>
     <g id="text_9">
      <!-- −2000 -->
      <g transform="translate(32.075938 146.769117)scale(0.1 -0.1)">
       <use xlink:href="#DejaVuSans-2212"/>
       <use xlink:href="#DejaVuSans-32" x="83.789062"/>
       <use xlink:href="#DejaVuSans-30" x="147.412109"/>
       <use xlink:href="#DejaVuSans-30" x="211.035156"/>
       <use xlink:href="#DejaVuSans-30" x="274.658203"/>
      </g>
     </g>
    </g>
    <g id="ytick_4">
     <g id="line2d_9">
      <g>
       <use xlink:href="#m9d9017f476" x="72.905625" y="121.033212" style="stroke: #000000; stroke-width: 0.8"/>
      </g>
     </g>
     <g id="text_10">
      <!-- −1500 -->
      <g transform="translate(32.075938 124.832431)scale(0.1 -0.1)">
       <use xlink:href="#DejaVuSans-2212"/>
       <use xlink:href="#DejaVuSans-31" x="83.789062"/>
       <use xlink:href="#DejaVuSans-35" x="147.412109"/>
       <use xlink:href="#DejaVuSans-30" x="211.035156"/>
       <use xlink:href="#DejaVuSans-30" x="274.658203"/>
      </g>
     </g>
    </g>
    <g id="ytick_5">
     <g id="line2d_10">
      <g>
       <use xlink:href="#m9d9017f476" x="72.905625" y="99.096526" style="stroke: #000000; stroke-width: 0.8"/>
      </g>
     </g>
     <g id="text_11">
      <!-- −1000 -->
      <g transform="translate(32.075938 102.895745)scale(0.1 -0.1)">
       <use xlink:href="#DejaVuSans-2212"/>
       <use xlink:href="#DejaVuSans-31" x="83.789062"/>
       <use xlink:href="#DejaVuSans-30" x="147.412109"/>
       <use xlink:href="#DejaVuSans-30" x="211.035156"/>
       <use xlink:href="#DejaVuSans-30" x="274.658203"/>
      </g>
     </g>
    </g>
    <g id="ytick_6">
     <g id="line2d_11">
      <g>
       <use xlink:href="#m9d9017f476" x="72.905625" y="77.15984" style="stroke: #000000; stroke-width: 0.8"/>
      </g>
     </g>
     <g id="text_12">
      <!-- −500 -->
      <g transform="translate(38.438437 80.959059)scale(0.1 -0.1)">
       <use xlink:href="#DejaVuSans-2212"/>
       <use xlink:href="#DejaVuSans-35" x="83.789062"/>
       <use xlink:href="#DejaVuSans-30" x="147.412109"/>
       <use xlink:href="#DejaVuSans-30" x="211.035156"/>
      </g>
     </g>
    </g>
    <g id="ytick_7">
     <g id="line2d_12">
      <g>
       <use xlink:href="#m9d9017f476" x="72.905625" y="55.223154" style="stroke: #000000; stroke-width: 0.8"/>
      </g>
     </g>
     <g id="text_13">
      <!-- 0 -->
      <g transform="translate(59.543125 59.022373)scale(0.1 -0.1)">
       <use xlink:href="#DejaVuSans-30"/>
      </g>
     </g>
    </g>
    <g id="ytick_8">
     <g id="line2d_13">
      <g>
       <use xlink:href="#m9d9017f476" x="72.905625" y="33.286468" style="stroke: #000000; stroke-width: 0.8"/>
      </g>
     </g>
     <g id="text_14">
      <!-- 500 -->
      <g transform="translate(46.818125 37.085687)scale(0.1 -0.1)">
       <use xlink:href="#DejaVuSans-35"/>
       <use xlink:href="#DejaVuSans-30" x="63.623047"/>
       <use xlink:href="#DejaVuSans-30" x="127.246094"/>
      </g>
     </g>
    </g>
    <g id="text_15">
     <!-- Cumulative SMB Anomaly [Gt]  -->
     <g transform="translate(14.798438 182.060385)rotate(-90)scale(0.1 -0.1)">
      <defs>
       <path id="DejaVuSans-43" d="M 4122 4306 
L 4122 3641 
Q 3803 3938 3442 4084 
Q 3081 4231 2675 4231 
Q 1875 4231 1450 3742 
Q 1025 3253 1025 2328 
Q 1025 1406 1450 917 
Q 1875 428 2675 428 
Q 3081 428 3442 575 
Q 3803 722 4122 1019 
L 4122 359 
Q 3791 134 3420 21 
Q 3050 -91 2638 -91 
Q 1578 -91 968 557 
Q 359 1206 359 2328 
Q 359 3453 968 4101 
Q 1578 4750 2638 4750 
Q 3056 4750 3426 4639 
Q 3797 4528 4122 4306 
z
" transform="scale(0.015625)"/>
       <path id="DejaVuSans-75" d="M 544 1381 
L 544 3500 
L 1119 3500 
L 1119 1403 
Q 1119 906 1312 657 
Q 1506 409 1894 409 
Q 2359 409 2629 706 
Q 2900 1003 2900 1516 
L 2900 3500 
L 3475 3500 
L 3475 0 
L 2900 0 
L 2900 538 
Q 2691 219 2414 64 
Q 2138 -91 1772 -91 
Q 1169 -91 856 284 
Q 544 659 544 1381 
z
M 1991 3584 
L 1991 3584 
z
" transform="scale(0.015625)"/>
       <path id="DejaVuSans-6d" d="M 3328 2828 
Q 3544 3216 3844 3400 
Q 4144 3584 4550 3584 
Q 5097 3584 5394 3201 
Q 5691 2819 5691 2113 
L 5691 0 
L 5113 0 
L 5113 2094 
Q 5113 2597 4934 2840 
Q 4756 3084 4391 3084 
Q 3944 3084 3684 2787 
Q 3425 2491 3425 1978 
L 3425 0 
L 2847 0 
L 2847 2094 
Q 2847 2600 2669 2842 
Q 2491 3084 2119 3084 
Q 1678 3084 1418 2786 
Q 1159 2488 1159 1978 
L 1159 0 
L 581 0 
L 581 3500 
L 1159 3500 
L 1159 2956 
Q 1356 3278 1631 3431 
Q 1906 3584 2284 3584 
Q 2666 3584 2933 3390 
Q 3200 3197 3328 2828 
z
" transform="scale(0.015625)"/>
       <path id="DejaVuSans-6c" d="M 603 4863 
L 1178 4863 
L 1178 0 
L 603 0 
L 603 4863 
z
" transform="scale(0.015625)"/>
       <path id="DejaVuSans-74" d="M 1172 4494 
L 1172 3500 
L 2356 3500 
L 2356 3053 
L 1172 3053 
L 1172 1153 
Q 1172 725 1289 603 
Q 1406 481 1766 481 
L 2356 481 
L 2356 0 
L 1766 0 
Q 1100 0 847 248 
Q 594 497 594 1153 
L 594 3053 
L 172 3053 
L 172 3500 
L 594 3500 
L 594 4494 
L 1172 4494 
z
" transform="scale(0.015625)"/>
       <path id="DejaVuSans-69" d="M 603 3500 
L 1178 3500 
L 1178 0 
L 603 0 
L 603 3500 
z
M 603 4863 
L 1178 4863 
L 1178 4134 
L 603 4134 
L 603 4863 
z
" transform="scale(0.015625)"/>
       <path id="DejaVuSans-76" d="M 191 3500 
L 800 3500 
L 1894 563 
L 2988 3500 
L 3597 3500 
L 2284 0 
L 1503 0 
L 191 3500 
z
" transform="scale(0.015625)"/>
       <path id="DejaVuSans-20" transform="scale(0.015625)"/>
       <path id="DejaVuSans-53" d="M 3425 4513 
L 3425 3897 
Q 3066 4069 2747 4153 
Q 2428 4238 2131 4238 
Q 1616 4238 1336 4038 
Q 1056 3838 1056 3469 
Q 1056 3159 1242 3001 
Q 1428 2844 1947 2747 
L 2328 2669 
Q 3034 2534 3370 2195 
Q 3706 1856 3706 1288 
Q 3706 609 3251 259 
Q 2797 -91 1919 -91 
Q 1588 -91 1214 -16 
Q 841 59 441 206 
L 441 856 
Q 825 641 1194 531 
Q 1563 422 1919 422 
Q 2459 422 2753 634 
Q 3047 847 3047 1241 
Q 3047 1584 2836 1778 
Q 2625 1972 2144 2069 
L 1759 2144 
Q 1053 2284 737 2584 
Q 422 2884 422 3419 
Q 422 4038 858 4394 
Q 1294 4750 2059 4750 
Q 2388 4750 2728 4690 
Q 3069 4631 3425 4513 
z
" transform="scale(0.015625)"/>
       <path id="DejaVuSans-4d" d="M 628 4666 
L 1569 4666 
L 2759 1491 
L 3956 4666 
L 4897 4666 
L 4897 0 
L 4281 0 
L 4281 4097 
L 3078 897 
L 2444 897 
L 1241 4097 
L 1241 0 
L 628 0 
L 628 4666 
z
" transform="scale(0.015625)"/>
       <path id="DejaVuSans-42" d="M 1259 2228 
L 1259 519 
L 2272 519 
Q 2781 519 3026 730 
Q 3272 941 3272 1375 
Q 3272 1813 3026 2020 
Q 2781 2228 2272 2228 
L 1259 2228 
z
M 1259 4147 
L 1259 2741 
L 2194 2741 
Q 2656 2741 2882 2914 
Q 3109 3088 3109 3444 
Q 3109 3797 2882 3972 
Q 2656 4147 2194 4147 
L 1259 4147 
z
M 628 4666 
L 2241 4666 
Q 2963 4666 3353 4366 
Q 3744 4066 3744 3513 
Q 3744 3084 3544 2831 
Q 3344 2578 2956 2516 
Q 3422 2416 3680 2098 
Q 3938 1781 3938 1306 
Q 3938 681 3513 340 
Q 3088 0 2303 0 
L 628 0 
L 628 4666 
z
" transform="scale(0.015625)"/>
       <path id="DejaVuSans-41" d="M 2188 4044 
L 1331 1722 
L 3047 1722 
L 2188 4044 
z
M 1831 4666 
L 2547 4666 
L 4325 0 
L 3669 0 
L 3244 1197 
L 1141 1197 
L 716 0 
L 50 0 
L 1831 4666 
z
" transform="scale(0.015625)"/>
       <path id="DejaVuSans-6e" d="M 3513 2113 
L 3513 0 
L 2938 0 
L 2938 2094 
Q 2938 2591 2744 2837 
Q 2550 3084 2163 3084 
Q 1697 3084 1428 2787 
Q 1159 2491 1159 1978 
L 1159 0 
L 581 0 
L 581 3500 
L 1159 3500 
L 1159 2956 
Q 1366 3272 1645 3428 
Q 1925 3584 2291 3584 
Q 2894 3584 3203 3211 
Q 3513 2838 3513 2113 
z
" transform="scale(0.015625)"/>
       <path id="DejaVuSans-6f" d="M 1959 3097 
Q 1497 3097 1228 2736 
Q 959 2375 959 1747 
Q 959 1119 1226 758 
Q 1494 397 1959 397 
Q 2419 397 2687 759 
Q 2956 1122 2956 1747 
Q 2956 2369 2687 2733 
Q 2419 3097 1959 3097 
z
M 1959 3584 
Q 2709 3584 3137 3096 
Q 3566 2609 3566 1747 
Q 3566 888 3137 398 
Q 2709 -91 1959 -91 
Q 1206 -91 779 398 
Q 353 888 353 1747 
Q 353 2609 779 3096 
Q 1206 3584 1959 3584 
z
" transform="scale(0.015625)"/>
       <path id="DejaVuSans-79" d="M 2059 -325 
Q 1816 -950 1584 -1140 
Q 1353 -1331 966 -1331 
L 506 -1331 
L 506 -850 
L 844 -850 
Q 1081 -850 1212 -737 
Q 1344 -625 1503 -206 
L 1606 56 
L 191 3500 
L 800 3500 
L 1894 763 
L 2988 3500 
L 3597 3500 
L 2059 -325 
z
" transform="scale(0.015625)"/>
       <path id="DejaVuSans-5b" d="M 550 4863 
L 1875 4863 
L 1875 4416 
L 1125 4416 
L 1125 -397 
L 1875 -397 
L 1875 -844 
L 550 -844 
L 550 4863 
z
" transform="scale(0.015625)"/>
       <path id="DejaVuSans-47" d="M 3809 666 
L 3809 1919 
L 2778 1919 
L 2778 2438 
L 4434 2438 
L 4434 434 
Q 4069 175 3628 42 
Q 3188 -91 2688 -91 
Q 1594 -91 976 548 
Q 359 1188 359 2328 
Q 359 3472 976 4111 
Q 1594 4750 2688 4750 
Q 3144 4750 3555 4637 
Q 3966 4525 4313 4306 
L 4313 3634 
Q 3963 3931 3569 4081 
Q 3175 4231 2741 4231 
Q 1884 4231 1454 3753 
Q 1025 3275 1025 2328 
Q 1025 1384 1454 906 
Q 1884 428 2741 428 
Q 3075 428 3337 486 
Q 3600 544 3809 666 
z
" transform="scale(0.015625)"/>
       <path id="DejaVuSans-5d" d="M 1947 4863 
L 1947 -844 
L 622 -844 
L 622 -397 
L 1369 -397 
L 1369 4416 
L 622 4416 
L 622 4863 
L 1947 4863 
z
" transform="scale(0.015625)"/>
      </defs>
      <use xlink:href="#DejaVuSans-43"/>
      <use xlink:href="#DejaVuSans-75" x="69.824219"/>
      <use xlink:href="#DejaVuSans-6d" x="133.203125"/>
      <use xlink:href="#DejaVuSans-75" x="230.615234"/>
      <use xlink:href="#DejaVuSans-6c" x="293.994141"/>
      <use xlink:href="#DejaVuSans-61" x="321.777344"/>
      <use xlink:href="#DejaVuSans-74" x="383.056641"/>
      <use xlink:href="#DejaVuSans-69" x="422.265625"/>
      <use xlink:href="#DejaVuSans-76" x="450.048828"/>
      <use xlink:href="#DejaVuSans-65" x="509.228516"/>
      <use xlink:href="#DejaVuSans-20" x="570.751953"/>
      <use xlink:href="#DejaVuSans-53" x="602.539062"/>
      <use xlink:href="#DejaVuSans-4d" x="666.015625"/>
      <use xlink:href="#DejaVuSans-42" x="752.294922"/>
      <use xlink:href="#DejaVuSans-20" x="820.898438"/>
      <use xlink:href="#DejaVuSans-41" x="852.685547"/>
      <use xlink:href="#DejaVuSans-6e" x="921.09375"/>
      <use xlink:href="#DejaVuSans-6f" x="984.472656"/>
      <use xlink:href="#DejaVuSans-6d" x="1045.654297"/>
      <use xlink:href="#DejaVuSans-61" x="1143.066406"/>
      <use xlink:href="#DejaVuSans-6c" x="1204.345703"/>
      <use xlink:href="#DejaVuSans-79" x="1232.128906"/>
      <use xlink:href="#DejaVuSans-20" x="1291.308594"/>
      <use xlink:href="#DejaVuSans-5b" x="1323.095703"/>
      <use xlink:href="#DejaVuSans-47" x="1362.109375"/>
      <use xlink:href="#DejaVuSans-74" x="1439.599609"/>
      <use xlink:href="#DejaVuSans-5d" x="1478.808594"/>
      <use xlink:href="#DejaVuSans-20" x="1517.822266"/>
     </g>
     <!-- (w.r.t 1979-2010) -->
     <g transform="translate(25.99625 147.695541)rotate(-90)scale(0.1 -0.1)">
      <defs>
       <path id="DejaVuSans-28" d="M 1984 4856 
Q 1566 4138 1362 3434 
Q 1159 2731 1159 2009 
Q 1159 1288 1364 580 
Q 1569 -128 1984 -844 
L 1484 -844 
Q 1016 -109 783 600 
Q 550 1309 550 2009 
Q 550 2706 781 3412 
Q 1013 4119 1484 4856 
L 1984 4856 
z
" transform="scale(0.015625)"/>
       <path id="DejaVuSans-77" d="M 269 3500 
L 844 3500 
L 1563 769 
L 2278 3500 
L 2956 3500 
L 3675 769 
L 4391 3500 
L 4966 3500 
L 4050 0 
L 3372 0 
L 2619 2869 
L 1863 0 
L 1184 0 
L 269 3500 
z
" transform="scale(0.015625)"/>
       <path id="DejaVuSans-2e" d="M 684 794 
L 1344 794 
L 1344 0 
L 684 0 
L 684 794 
z
" transform="scale(0.015625)"/>
       <path id="DejaVuSans-37" d="M 525 4666 
L 3525 4666 
L 3525 4397 
L 1831 0 
L 1172 0 
L 2766 4134 
L 525 4134 
L 525 4666 
z
" transform="scale(0.015625)"/>
       <path id="DejaVuSans-2d" d="M 313 2009 
L 1997 2009 
L 1997 1497 
L 313 1497 
L 313 2009 
z
" transform="scale(0.015625)"/>
       <path id="DejaVuSans-29" d="M 513 4856 
L 1013 4856 
Q 1481 4119 1714 3412 
Q 1947 2706 1947 2009 
Q 1947 1309 1714 600 
Q 1481 -109 1013 -844 
L 513 -844 
Q 928 -128 1133 580 
Q 1338 1288 1338 2009 
Q 1338 2731 1133 3434 
Q 928 4138 513 4856 
z
" transform="scale(0.015625)"/>
      </defs>
      <use xlink:href="#DejaVuSans-28"/>
      <use xlink:href="#DejaVuSans-77" x="39.013672"/>
      <use xlink:href="#DejaVuSans-2e" x="111.675781"/>
      <use xlink:href="#DejaVuSans-72" x="143.462891"/>
      <use xlink:href="#DejaVuSans-2e" x="175.451172"/>
      <use xlink:href="#DejaVuSans-74" x="207.238281"/>
      <use xlink:href="#DejaVuSans-20" x="246.447266"/>
      <use xlink:href="#DejaVuSans-31" x="278.234375"/>
      <use xlink:href="#DejaVuSans-39" x="341.857422"/>
      <use xlink:href="#DejaVuSans-37" x="405.480469"/>
      <use xlink:href="#DejaVuSans-39" x="469.103516"/>
      <use xlink:href="#DejaVuSans-2d" x="532.726562"/>
      <use xlink:href="#DejaVuSans-32" x="568.810547"/>
      <use xlink:href="#DejaVuSans-30" x="632.433594"/>
      <use xlink:href="#DejaVuSans-31" x="696.056641"/>
      <use xlink:href="#DejaVuSans-30" x="759.679688"/>
      <use xlink:href="#DejaVuSans-29" x="823.302734"/>
     </g>
    </g>
   </g>
   <g id="line2d_14">
    <path d="M 92.555347 56.456215 
L 93.316965 57.639285 
L 94.078582 58.537908 
L 95.601816 58.318792 
L 96.363433 58.038621 
L 98.648285 59.193401 
L 99.409902 59.044998 
L 100.933136 60.055863 
L 101.694753 60.907294 
L 102.45637 61.536629 
L 103.217988 61.278424 
L 103.979605 59.919735 
L 105.502839 57.99649 
L 106.264456 57.370766 
L 107.026073 56.52516 
L 109.310925 55.996719 
L 110.072542 56.730898 
L 110.834159 57.169914 
L 111.595776 57.846179 
L 112.357393 58.340896 
L 113.119011 57.787723 
L 113.880628 57.485401 
L 114.642245 56.223616 
L 115.403862 54.60555 
L 116.165479 54.076178 
L 116.927096 54.394737 
L 117.688713 54.487047 
L 118.450331 55.220114 
L 119.973565 57.222855 
L 121.496799 58.815237 
L 122.258416 58.930006 
L 123.020034 58.900723 
L 123.781651 58.530766 
L 124.543268 57.57667 
L 125.304885 57.364267 
L 126.828119 55.881121 
L 127.589736 55.497116 
L 128.351354 56.213071 
L 129.112971 57.375855 
L 130.636205 58.488544 
L 131.397822 58.408621 
L 132.159439 57.208285 
L 132.921057 56.804178 
L 134.444291 57.494809 
L 135.205908 57.07606 
L 135.967525 56.810699 
L 136.729142 57.104613 
L 139.013994 60.166656 
L 139.775611 60.205562 
L 140.537228 59.257992 
L 143.583697 56.550372 
L 144.345314 56.530468 
L 145.106931 56.241481 
L 145.868548 55.75455 
L 146.630165 56.358944 
L 147.391782 56.736127 
L 148.915017 58.14283 
L 150.438251 57.828792 
L 151.199868 56.542121 
L 151.961485 55.010075 
L 152.723102 54.914247 
L 153.48472 55.041973 
L 154.246337 54.732025 
L 155.007954 53.839097 
L 155.769571 53.618123 
L 158.054423 56.537062 
L 158.81604 56.310333 
L 159.577657 55.550339 
L 160.339274 55.602195 
L 161.100891 55.888578 
L 161.862508 55.830435 
L 162.624125 56.35395 
L 163.385743 56.458158 
L 164.14736 56.065627 
L 164.908977 56.535903 
L 165.670594 57.665425 
L 166.432211 58.434621 
L 167.193828 58.714346 
L 167.955445 58.750803 
L 168.717063 59.065545 
L 170.240297 58.468833 
L 171.763531 57.061051 
L 172.525148 56.96718 
L 173.286766 57.244385 
L 174.81 59.372519 
L 175.571617 59.763433 
L 176.333234 60.016223 
L 177.094851 59.967472 
L 177.856468 59.291709 
L 179.379703 59.034181 
L 180.14132 57.703719 
L 180.902937 55.781653 
L 182.426171 55.058445 
L 184.711023 57.885379 
L 185.47264 58.646019 
L 186.234257 58.32526 
L 186.995874 58.209734 
L 188.519109 58.455245 
L 189.280726 58.174744 
L 190.042343 57.590175 
L 191.565577 57.658722 
L 192.327194 58.072166 
L 193.088811 58.731103 
L 193.850429 59.105859 
L 194.612046 59.98809 
L 195.373663 60.36368 
L 196.13528 59.944396 
L 196.896897 59.663707 
L 197.658514 59.818077 
L 198.420132 60.395116 
L 199.181749 60.493975 
L 199.943366 59.802299 
L 201.4666 61.641355 
L 202.228217 62.502905 
L 202.989834 63.117057 
L 203.751452 63.222078 
L 205.274686 62.010862 
L 206.036303 61.764084 
L 208.321154 61.566838 
L 209.844389 60.053651 
L 210.606006 60.590505 
L 212.12924 62.552135 
L 212.890857 62.597043 
L 213.652475 62.296903 
L 214.414092 60.972315 
L 215.175709 60.154697 
L 215.937326 59.153136 
L 216.698943 58.622975 
L 217.46056 58.796936 
L 218.222177 58.295947 
L 218.983795 58.041574 
L 219.745412 58.189002 
L 220.507029 58.743898 
L 221.268646 58.45787 
L 222.030263 57.642417 
L 223.553498 57.855391 
L 224.315115 57.465227 
L 225.076732 56.659939 
L 225.838349 55.64868 
L 226.599966 55.049924 
L 228.1232 55.040649 
L 230.408052 58.198466 
L 231.169669 58.510797 
L 231.931286 57.452856 
L 232.692903 56.699421 
L 233.45452 55.439232 
L 234.216138 55.418924 
L 235.739372 56.121683 
L 236.500989 56.300987 
L 237.262606 56.107318 
L 238.024223 56.43981 
L 238.785841 57.478331 
L 239.547458 57.98856 
L 240.309075 58.038585 
L 241.070692 58.411017 
L 241.832309 58.088393 
L 242.593926 57.530082 
L 243.355543 57.156796 
L 244.878778 57.20603 
L 246.402012 57.39612 
L 248.686863 59.484742 
L 249.448481 59.997489 
L 250.210098 60.018784 
L 250.971715 59.459855 
L 251.733332 59.658738 
L 252.494949 58.909164 
L 253.256566 58.952223 
L 254.018184 59.163925 
L 254.779801 59.891026 
L 255.541418 59.982065 
L 256.303035 60.843719 
L 257.826269 63.006629 
L 258.587886 63.255968 
L 259.349504 62.867615 
L 260.111121 62.106616 
L 260.872738 60.664563 
L 261.634355 59.834579 
L 262.395972 59.296575 
L 263.157589 59.44334 
L 263.919207 59.102799 
L 264.680824 58.906562 
L 265.442441 59.407378 
L 266.204058 60.173515 
L 266.965675 60.658874 
L 268.488909 59.764302 
L 269.250527 58.4803 
L 270.012144 56.422172 
L 270.773761 55.959428 
L 271.535378 56.647438 
L 274.581847 58.052011 
L 275.343464 59.279336 
L 276.105081 60.137678 
L 276.866698 60.705034 
L 277.628315 60.618786 
L 278.389932 60.661217 
L 279.15155 60.273615 
L 279.913167 60.57772 
L 280.674784 60.390569 
L 281.436401 60.535308 
L 282.198018 59.906832 
L 282.959635 58.979239 
L 283.721252 58.824032 
L 284.48287 59.189515 
L 285.244487 60.065996 
L 286.006104 59.666578 
L 286.767721 58.665288 
L 287.529338 59.186385 
L 288.290955 58.657365 
L 289.81419 56.636576 
L 290.575807 56.884565 
L 291.337424 56.102803 
L 292.099041 55.669815 
L 292.860658 55.766913 
L 293.622275 57.015059 
L 294.383893 57.820033 
L 295.14551 58.258351 
L 295.907127 58.065458 
L 296.668744 57.737699 
L 297.430361 56.732123 
L 298.191978 56.404548 
L 298.953595 56.645978 
L 299.715213 57.208761 
L 300.47683 56.968591 
L 301.238447 57.398017 
L 303.523298 59.775735 
L 304.284916 59.83722 
L 306.569767 57.297865 
L 307.331384 57.163459 
L 308.093001 56.835584 
L 308.854618 55.841273 
L 309.616236 55.066023 
L 310.377853 55.619313 
L 312.662704 58.137086 
L 313.424321 58.607132 
L 314.185938 57.552108 
L 314.947556 55.988033 
L 315.709173 55.271304 
L 317.232407 55.951736 
L 317.994024 55.845578 
L 319.517259 55.044252 
L 321.040493 57.233976 
L 321.80211 58.069692 
L 322.563727 58.204792 
L 323.325344 57.541583 
L 324.086961 56.671419 
L 324.848579 55.481383 
L 325.610196 55.232711 
L 326.371813 55.328532 
L 327.13343 55.699808 
L 327.895047 55.70703 
L 328.656664 55.571014 
L 329.418282 55.578348 
L 330.179899 56.681086 
L 330.941516 57.53885 
L 331.703133 57.877152 
L 332.46475 57.578008 
L 333.226367 56.951925 
L 334.749602 54.880586 
L 335.511219 54.363538 
L 336.272836 53.570189 
L 337.034453 51.982507 
L 337.79607 51.094891 
L 338.557687 51.231524 
L 339.319304 52.18637 
L 340.842539 52.743312 
L 341.604156 53.388404 
L 342.365773 53.344524 
L 343.889007 52.267788 
L 344.650625 51.723147 
L 345.412242 52.115929 
L 346.173859 52.368761 
L 346.935476 52.366762 
L 347.697093 52.913018 
L 348.45871 54.113045 
L 349.220327 54.961623 
L 349.981945 55.424802 
L 350.743562 55.063104 
L 351.505179 53.987331 
L 352.266796 52.687772 
L 353.028413 51.704121 
L 353.79003 51.465448 
L 354.551648 51.490086 
L 355.313265 51.238355 
L 356.836499 52.678052 
L 357.598116 52.74826 
L 358.359733 53.224132 
L 360.644585 53.067146 
L 361.406202 52.81377 
L 362.167819 52.362335 
L 364.45267 49.570944 
L 365.214288 50.108931 
L 367.499139 53.360533 
L 368.260756 53.73556 
L 369.022373 53.408037 
L 369.783991 53.24584 
L 370.545608 53.477597 
L 371.307225 53.855485 
L 372.068842 53.506588 
L 372.830459 53.445522 
L 373.592076 53.558505 
L 375.115311 54.049897 
L 376.638545 56.28483 
L 377.400162 56.696259 
L 378.161779 56.962538 
L 379.685013 57.863699 
L 380.446631 57.562507 
L 381.969865 55.951342 
L 382.731482 55.807642 
L 383.493099 56.102802 
L 384.254716 56.807328 
L 385.016334 58.322738 
L 385.777951 59.578346 
L 386.539568 60.257163 
L 388.062802 60.537877 
L 388.824419 60.21 
L 389.586036 59.456489 
L 390.347654 58.006386 
L 391.109271 57.232848 
L 391.870888 57.743098 
L 393.394122 58.497894 
L 394.155739 59.427999 
L 394.917357 59.954226 
L 395.678974 59.912955 
L 396.440591 59.219163 
L 397.963825 57.130954 
L 398.725442 57.529113 
L 399.487059 57.627756 
L 400.248677 58.030993 
L 401.010294 58.175226 
L 401.771911 58.794233 
L 402.533528 59.791035 
L 404.056762 61.314376 
L 405.579997 60.003503 
L 407.103231 60.621585 
L 407.864848 61.227504 
L 408.626465 60.969921 
L 409.388082 60.586908 
L 410.1497 60.694657 
L 410.911317 61.250297 
L 412.434551 62.948167 
L 413.196168 63.836252 
L 413.957785 64.232618 
L 414.719402 63.876352 
L 415.48102 62.492646 
L 416.242637 61.787185 
L 417.765871 60.911353 
L 419.289105 58.760303 
L 420.050723 58.184771 
L 420.81234 59.576589 
L 421.573957 60.657897 
L 422.335574 61.490422 
L 423.097191 61.50011 
L 423.858808 61.334208 
L 425.382043 60.103841 
L 426.905277 60.667242 
L 427.666894 60.84016 
L 428.428511 60.45348 
L 429.190128 60.411057 
L 429.951745 60.651989 
L 430.713363 60.599267 
L 432.998214 61.499459 
L 433.759831 60.973893 
L 434.521448 59.611993 
L 435.283066 58.909536 
L 436.8063 58.193767 
L 437.567917 57.295803 
L 438.329534 56.639953 
L 439.852768 58.327207 
L 440.614386 58.863377 
L 441.376003 58.889242 
L 442.899237 57.656156 
L 443.660854 56.74867 
L 444.422471 56.271515 
L 445.945706 56.341718 
L 446.707323 56.904451 
L 447.46894 57.031309 
L 448.230557 57.358003 
L 448.992174 58.965845 
L 449.753791 60.164065 
L 450.515409 60.787585 
L 451.277026 60.517249 
L 452.80026 60.603218 
L 453.561877 60.571422 
L 454.323494 60.182842 
L 455.085111 60.475645 
L 455.846729 59.83163 
L 456.608346 58.740163 
L 457.369963 59.506158 
L 458.893197 61.375118 
L 459.654814 61.369744 
L 460.416432 61.050109 
L 461.178049 60.943501 
L 461.939666 60.636228 
L 463.4629 57.559067 
L 464.224517 55.889445 
L 464.986134 55.188761 
L 465.747752 55.501005 
L 466.509369 56.167698 
L 467.270986 57.346719 
L 468.032603 58.095106 
L 468.79422 57.470549 
L 470.317454 55.746006 
L 471.079072 53.867454 
L 471.840689 52.425752 
L 472.602306 51.431031 
L 473.363923 52.118715 
L 474.12554 52.522627 
L 474.887157 52.655878 
L 475.648775 53.447081 
L 476.410392 53.946466 
L 477.172009 54.597178 
L 477.933626 54.96337 
L 478.695243 55.175332 
L 479.45686 54.865962 
L 480.218477 54.064853 
L 480.980095 53.885608 
L 481.741712 53.856062 
L 483.264946 54.769763 
L 484.78818 55.32199 
L 485.549797 55.733209 
L 485.549797 55.733209 
" clip-path="url(#p214471a163)" style="fill: none; stroke: #fb9a99; stroke-width: 1.5; stroke-linecap: square"/>
   </g>
   <g id="patch_3">
    <path d="M 72.905625 186.84327 
L 72.905625 22.318125 
" style="fill: none; stroke: #000000; stroke-width: 0.8; stroke-linejoin: miter; stroke-linecap: square"/>
   </g>
   <g id="patch_4">
    <path d="M 505.19952 186.84327 
L 505.19952 22.318125 
" style="fill: none; stroke: #000000; stroke-width: 0.8; stroke-linejoin: miter; stroke-linecap: square"/>
   </g>
   <g id="patch_5">
    <path d="M 72.905625 186.84327 
L 505.19952 186.84327 
" style="fill: none; stroke: #000000; stroke-width: 0.8; stroke-linejoin: miter; stroke-linecap: square"/>
   </g>
   <g id="patch_6">
    <path d="M 72.905625 22.318125 
L 505.19952 22.318125 
" style="fill: none; stroke: #000000; stroke-width: 0.8; stroke-linejoin: miter; stroke-linecap: square"/>
   </g>
   <g id="text_16">
    <!-- West Antarctica -->
    <g transform="translate(241.834448 16.318125)scale(0.12 -0.12)">
     <defs>
      <path id="DejaVuSans-57" d="M 213 4666 
L 850 4666 
L 1831 722 
L 2809 4666 
L 3519 4666 
L 4500 722 
L 5478 4666 
L 6119 4666 
L 4947 0 
L 4153 0 
L 3169 4050 
L 2175 0 
L 1381 0 
L 213 4666 
z
" transform="scale(0.015625)"/>
      <path id="DejaVuSans-73" d="M 2834 3397 
L 2834 2853 
Q 2591 2978 2328 3040 
Q 2066 3103 1784 3103 
Q 1356 3103 1142 2972 
Q 928 2841 928 2578 
Q 928 2378 1081 2264 
Q 1234 2150 1697 2047 
L 1894 2003 
Q 2506 1872 2764 1633 
Q 3022 1394 3022 966 
Q 3022 478 2636 193 
Q 2250 -91 1575 -91 
Q 1294 -91 989 -36 
Q 684 19 347 128 
L 347 722 
Q 666 556 975 473 
Q 1284 391 1588 391 
Q 1994 391 2212 530 
Q 2431 669 2431 922 
Q 2431 1156 2273 1281 
Q 2116 1406 1581 1522 
L 1381 1569 
Q 847 1681 609 1914 
Q 372 2147 372 2553 
Q 372 3047 722 3315 
Q 1072 3584 1716 3584 
Q 2034 3584 2315 3537 
Q 2597 3491 2834 3397 
z
" transform="scale(0.015625)"/>
      <path id="DejaVuSans-63" d="M 3122 3366 
L 3122 2828 
Q 2878 2963 2633 3030 
Q 2388 3097 2138 3097 
Q 1578 3097 1268 2742 
Q 959 2388 959 1747 
Q 959 1106 1268 751 
Q 1578 397 2138 397 
Q 2388 397 2633 464 
Q 2878 531 3122 666 
L 3122 134 
Q 2881 22 2623 -34 
Q 2366 -91 2075 -91 
Q 1284 -91 818 406 
Q 353 903 353 1747 
Q 353 2603 823 3093 
Q 1294 3584 2113 3584 
Q 2378 3584 2631 3529 
Q 2884 3475 3122 3366 
z
" transform="scale(0.015625)"/>
     </defs>
     <use xlink:href="#DejaVuSans-57"/>
     <use xlink:href="#DejaVuSans-65" x="93.001953"/>
     <use xlink:href="#DejaVuSans-73" x="154.525391"/>
     <use xlink:href="#DejaVuSans-74" x="206.625"/>
     <use xlink:href="#DejaVuSans-20" x="245.833984"/>
     <use xlink:href="#DejaVuSans-41" x="277.621094"/>
     <use xlink:href="#DejaVuSans-6e" x="346.029297"/>
     <use xlink:href="#DejaVuSans-74" x="409.408203"/>
     <use xlink:href="#DejaVuSans-61" x="448.617188"/>
     <use xlink:href="#DejaVuSans-72" x="509.896484"/>
     <use xlink:href="#DejaVuSans-63" x="548.759766"/>
     <use xlink:href="#DejaVuSans-74" x="603.740234"/>
     <use xlink:href="#DejaVuSans-69" x="642.949219"/>
     <use xlink:href="#DejaVuSans-63" x="670.732422"/>
     <use xlink:href="#DejaVuSans-61" x="725.712891"/>
    </g>
   </g>
  </g>
 </g>
 <defs>
  <clipPath id="p214471a163">
   <rect x="72.905625" y="22.318125" width="432.293895" height="164.525145"/>
  </clipPath>
 </defs>
</svg>
