<?xml version="1.0" encoding="utf-8" standalone="no"?>
<!DOCTYPE svg PUBLIC "-//W3C//DTD SVG 1.1//EN"
  "http://www.w3.org/Graphics/SVG/1.1/DTD/svg11.dtd">
<svg xmlns:xlink="http://www.w3.org/1999/xlink" width="512.39952pt" height="224.39952pt" viewBox="0 0 512.39952 224.39952" xmlns="http://www.w3.org/2000/svg" version="1.1">
 <metadata>
  <rdf:RDF xmlns:dc="http://purl.org/dc/elements/1.1/" xmlns:cc="http://creativecommons.org/ns#" xmlns:rdf="http://www.w3.org/1999/02/22-rdf-syntax-ns#">
   <cc:Work>
    <dc:type rdf:resource="http://purl.org/dc/dcmitype/StillImage"/>
    <dc:date>2023-01-25T15:12:33.707493</dc:date>
    <dc:format>image/svg+xml</dc:format>
    <dc:creator>
     <cc:Agent>
      <dc:title>Matplotlib v3.6.2, https://matplotlib.org/</dc:title>
     </cc:Agent>
    </dc:creator>
   </cc:Work>
  </rdf:RDF>
 </metadata>
 <defs>
  <style type="text/css">*{stroke-linejoin: round; stroke-linecap: butt}</style>
 </defs>
 <g id="figure_1">
  <g id="patch_1">
   <path d="M 0 224.39952 
L 512.39952 224.39952 
L 512.39952 0 
L 0 0 
z
" style="fill: #ffffff"/>
  </g>
  <g id="axes_1">
   <g id="patch_2">
    <path d="M 72.905625 186.84327 
L 362.716708 186.84327 
L 362.716708 10.999219 
L 72.905625 10.999219 
z
" style="fill: #ffffff"/>
   </g>
   <g id="matplotlib.axis_1">
    <g id="xtick_1">
     <g id="line2d_1">
      <defs>
       <path id="m059977dddb" d="M 0 0 
L 0 3.5 
" style="stroke: #000000; stroke-width: 0.8"/>
      </defs>
      <g>
       <use xlink:href="#m059977dddb" x="92.20594" y="186.84327" style="stroke: #000000; stroke-width: 0.8"/>
      </g>
     </g>
     <g id="text_1">
      <!-- 1980 -->
      <g transform="translate(79.48094 201.441708) scale(0.1 -0.1)">
       <defs>
        <path id="DejaVuSans-31" d="M 794 531 
L 1825 531 
L 1825 4091 
L 703 3866 
L 703 4441 
L 1819 4666 
L 2450 4666 
L 2450 531 
L 3481 531 
L 3481 0 
L 794 0 
L 794 531 
z
" transform="scale(0.015625)"/>
        <path id="DejaVuSans-39" d="M 703 97 
L 703 672 
Q 941 559 1184 500 
Q 1428 441 1663 441 
Q 2288 441 2617 861 
Q 2947 1281 2994 2138 
Q 2813 1869 2534 1725 
Q 2256 1581 1919 1581 
Q 1219 1581 811 2004 
Q 403 2428 403 3163 
Q 403 3881 828 4315 
Q 1253 4750 1959 4750 
Q 2769 4750 3195 4129 
Q 3622 3509 3622 2328 
Q 3622 1225 3098 567 
Q 2575 -91 1691 -91 
Q 1453 -91 1209 -44 
Q 966 3 703 97 
z
M 1959 2075 
Q 2384 2075 2632 2365 
Q 2881 2656 2881 3163 
Q 2881 3666 2632 3958 
Q 2384 4250 1959 4250 
Q 1534 4250 1286 3958 
Q 1038 3666 1038 3163 
Q 1038 2656 1286 2365 
Q 1534 2075 1959 2075 
z
" transform="scale(0.015625)"/>
        <path id="DejaVuSans-38" d="M 2034 2216 
Q 1584 2216 1326 1975 
Q 1069 1734 1069 1313 
Q 1069 891 1326 650 
Q 1584 409 2034 409 
Q 2484 409 2743 651 
Q 3003 894 3003 1313 
Q 3003 1734 2745 1975 
Q 2488 2216 2034 2216 
z
M 1403 2484 
Q 997 2584 770 2862 
Q 544 3141 544 3541 
Q 544 4100 942 4425 
Q 1341 4750 2034 4750 
Q 2731 4750 3128 4425 
Q 3525 4100 3525 3541 
Q 3525 3141 3298 2862 
Q 3072 2584 2669 2484 
Q 3125 2378 3379 2068 
Q 3634 1759 3634 1313 
Q 3634 634 3220 271 
Q 2806 -91 2034 -91 
Q 1263 -91 848 271 
Q 434 634 434 1313 
Q 434 1759 690 2068 
Q 947 2378 1403 2484 
z
M 1172 3481 
Q 1172 3119 1398 2916 
Q 1625 2713 2034 2713 
Q 2441 2713 2670 2916 
Q 2900 3119 2900 3481 
Q 2900 3844 2670 4047 
Q 2441 4250 2034 4250 
Q 1625 4250 1398 4047 
Q 1172 3844 1172 3481 
z
" transform="scale(0.015625)"/>
        <path id="DejaVuSans-30" d="M 2034 4250 
Q 1547 4250 1301 3770 
Q 1056 3291 1056 2328 
Q 1056 1369 1301 889 
Q 1547 409 2034 409 
Q 2525 409 2770 889 
Q 3016 1369 3016 2328 
Q 3016 3291 2770 3770 
Q 2525 4250 2034 4250 
z
M 2034 4750 
Q 2819 4750 3233 4129 
Q 3647 3509 3647 2328 
Q 3647 1150 3233 529 
Q 2819 -91 2034 -91 
Q 1250 -91 836 529 
Q 422 1150 422 2328 
Q 422 3509 836 4129 
Q 1250 4750 2034 4750 
z
" transform="scale(0.015625)"/>
       </defs>
       <use xlink:href="#DejaVuSans-31"/>
       <use xlink:href="#DejaVuSans-39" x="63.623047"/>
       <use xlink:href="#DejaVuSans-38" x="127.246094"/>
       <use xlink:href="#DejaVuSans-30" x="190.869141"/>
      </g>
     </g>
    </g>
    <g id="xtick_2">
     <g id="line2d_2">
      <g>
       <use xlink:href="#m059977dddb" x="153.476782" y="186.84327" style="stroke: #000000; stroke-width: 0.8"/>
      </g>
     </g>
     <g id="text_2">
      <!-- 1990 -->
      <g transform="translate(140.751782 201.441708) scale(0.1 -0.1)">
       <use xlink:href="#DejaVuSans-31"/>
       <use xlink:href="#DejaVuSans-39" x="63.623047"/>
       <use xlink:href="#DejaVuSans-39" x="127.246094"/>
       <use xlink:href="#DejaVuSans-30" x="190.869141"/>
      </g>
     </g>
    </g>
    <g id="xtick_3">
     <g id="line2d_3">
      <g>
       <use xlink:href="#m059977dddb" x="214.747624" y="186.84327" style="stroke: #000000; stroke-width: 0.8"/>
      </g>
     </g>
     <g id="text_3">
      <!-- 2000 -->
      <g transform="translate(202.022624 201.441708) scale(0.1 -0.1)">
       <defs>
        <path id="DejaVuSans-32" d="M 1228 531 
L 3431 531 
L 3431 0 
L 469 0 
L 469 531 
Q 828 903 1448 1529 
Q 2069 2156 2228 2338 
Q 2531 2678 2651 2914 
Q 2772 3150 2772 3378 
Q 2772 3750 2511 3984 
Q 2250 4219 1831 4219 
Q 1534 4219 1204 4116 
Q 875 4013 500 3803 
L 500 4441 
Q 881 4594 1212 4672 
Q 1544 4750 1819 4750 
Q 2544 4750 2975 4387 
Q 3406 4025 3406 3419 
Q 3406 3131 3298 2873 
Q 3191 2616 2906 2266 
Q 2828 2175 2409 1742 
Q 1991 1309 1228 531 
z
" transform="scale(0.015625)"/>
       </defs>
       <use xlink:href="#DejaVuSans-32"/>
       <use xlink:href="#DejaVuSans-30" x="63.623047"/>
       <use xlink:href="#DejaVuSans-30" x="127.246094"/>
       <use xlink:href="#DejaVuSans-30" x="190.869141"/>
      </g>
     </g>
    </g>
    <g id="xtick_4">
     <g id="line2d_4">
      <g>
       <use xlink:href="#m059977dddb" x="276.018466" y="186.84327" style="stroke: #000000; stroke-width: 0.8"/>
      </g>
     </g>
     <g id="text_4">
      <!-- 2010 -->
      <g transform="translate(263.293466 201.441708) scale(0.1 -0.1)">
       <use xlink:href="#DejaVuSans-32"/>
       <use xlink:href="#DejaVuSans-30" x="63.623047"/>
       <use xlink:href="#DejaVuSans-31" x="127.246094"/>
       <use xlink:href="#DejaVuSans-30" x="190.869141"/>
      </g>
     </g>
    </g>
    <g id="xtick_5">
     <g id="line2d_5">
      <g>
       <use xlink:href="#m059977dddb" x="337.289308" y="186.84327" style="stroke: #000000; stroke-width: 0.8"/>
      </g>
     </g>
     <g id="text_5">
      <!-- 2020 -->
      <g transform="translate(324.564308 201.441708) scale(0.1 -0.1)">
       <use xlink:href="#DejaVuSans-32"/>
       <use xlink:href="#DejaVuSans-30" x="63.623047"/>
       <use xlink:href="#DejaVuSans-32" x="127.246094"/>
       <use xlink:href="#DejaVuSans-30" x="190.869141"/>
      </g>
     </g>
    </g>
    <g id="text_6">
     <!-- Year -->
     <g transform="translate(207.223666 215.119833) scale(0.1 -0.1)">
      <defs>
       <path id="DejaVuSans-59" d="M -13 4666 
L 666 4666 
L 1959 2747 
L 3244 4666 
L 3922 4666 
L 2272 2222 
L 2272 0 
L 1638 0 
L 1638 2222 
L -13 4666 
z
" transform="scale(0.015625)"/>
       <path id="DejaVuSans-65" d="M 3597 1894 
L 3597 1613 
L 953 1613 
Q 991 1019 1311 708 
Q 1631 397 2203 397 
Q 2534 397 2845 478 
Q 3156 559 3463 722 
L 3463 178 
Q 3153 47 2828 -22 
Q 2503 -91 2169 -91 
Q 1331 -91 842 396 
Q 353 884 353 1716 
Q 353 2575 817 3079 
Q 1281 3584 2069 3584 
Q 2775 3584 3186 3129 
Q 3597 2675 3597 1894 
z
M 3022 2063 
Q 3016 2534 2758 2815 
Q 2500 3097 2075 3097 
Q 1594 3097 1305 2825 
Q 1016 2553 972 2059 
L 3022 2063 
z
" transform="scale(0.015625)"/>
       <path id="DejaVuSans-61" d="M 2194 1759 
Q 1497 1759 1228 1600 
Q 959 1441 959 1056 
Q 959 750 1161 570 
Q 1363 391 1709 391 
Q 2188 391 2477 730 
Q 2766 1069 2766 1631 
L 2766 1759 
L 2194 1759 
z
M 3341 1997 
L 3341 0 
L 2766 0 
L 2766 531 
Q 2569 213 2275 61 
Q 1981 -91 1556 -91 
Q 1019 -91 701 211 
Q 384 513 384 1019 
Q 384 1609 779 1909 
Q 1175 2209 1959 2209 
L 2766 2209 
L 2766 2266 
Q 2766 2663 2505 2880 
Q 2244 3097 1772 3097 
Q 1472 3097 1187 3025 
Q 903 2953 641 2809 
L 641 3341 
Q 956 3463 1253 3523 
Q 1550 3584 1831 3584 
Q 2591 3584 2966 3190 
Q 3341 2797 3341 1997 
z
" transform="scale(0.015625)"/>
       <path id="DejaVuSans-72" d="M 2631 2963 
Q 2534 3019 2420 3045 
Q 2306 3072 2169 3072 
Q 1681 3072 1420 2755 
Q 1159 2438 1159 1844 
L 1159 0 
L 581 0 
L 581 3500 
L 1159 3500 
L 1159 2956 
Q 1341 3275 1631 3429 
Q 1922 3584 2338 3584 
Q 2397 3584 2469 3576 
Q 2541 3569 2628 3553 
L 2631 2963 
z
" transform="scale(0.015625)"/>
      </defs>
      <use xlink:href="#DejaVuSans-59"/>
      <use xlink:href="#DejaVuSans-65" x="47.833984"/>
      <use xlink:href="#DejaVuSans-61" x="109.357422"/>
      <use xlink:href="#DejaVuSans-72" x="170.636719"/>
     </g>
    </g>
   </g>
   <g id="matplotlib.axis_2">
    <g id="ytick_1">
     <g id="line2d_6">
      <defs>
       <path id="m973ce28f31" d="M 0 0 
L -3.5 0 
" style="stroke: #000000; stroke-width: 0.8"/>
      </defs>
      <g>
       <use xlink:href="#m973ce28f31" x="72.905625" y="186.84327" style="stroke: #000000; stroke-width: 0.8"/>
      </g>
     </g>
     <g id="text_7">
      <!-- −1000 -->
      <g transform="translate(32.075938 190.642489) scale(0.1 -0.1)">
       <defs>
        <path id="DejaVuSans-2212" d="M 678 2272 
L 4684 2272 
L 4684 1741 
L 678 1741 
L 678 2272 
z
" transform="scale(0.015625)"/>
       </defs>
       <use xlink:href="#DejaVuSans-2212"/>
       <use xlink:href="#DejaVuSans-31" x="83.789062"/>
       <use xlink:href="#DejaVuSans-30" x="147.412109"/>
       <use xlink:href="#DejaVuSans-30" x="211.035156"/>
       <use xlink:href="#DejaVuSans-30" x="274.658203"/>
      </g>
     </g>
    </g>
    <g id="ytick_2">
     <g id="line2d_7">
      <g>
       <use xlink:href="#m973ce28f31" x="72.905625" y="164.862764" style="stroke: #000000; stroke-width: 0.8"/>
      </g>
     </g>
     <g id="text_8">
      <!-- −750 -->
      <g transform="translate(38.438437 168.661982) scale(0.1 -0.1)">
       <defs>
        <path id="DejaVuSans-37" d="M 525 4666 
L 3525 4666 
L 3525 4397 
L 1831 0 
L 1172 0 
L 2766 4134 
L 525 4134 
L 525 4666 
z
" transform="scale(0.015625)"/>
        <path id="DejaVuSans-35" d="M 691 4666 
L 3169 4666 
L 3169 4134 
L 1269 4134 
L 1269 2991 
Q 1406 3038 1543 3061 
Q 1681 3084 1819 3084 
Q 2600 3084 3056 2656 
Q 3513 2228 3513 1497 
Q 3513 744 3044 326 
Q 2575 -91 1722 -91 
Q 1428 -91 1123 -41 
Q 819 9 494 109 
L 494 744 
Q 775 591 1075 516 
Q 1375 441 1709 441 
Q 2250 441 2565 725 
Q 2881 1009 2881 1497 
Q 2881 1984 2565 2268 
Q 2250 2553 1709 2553 
Q 1456 2553 1204 2497 
Q 953 2441 691 2322 
L 691 4666 
z
" transform="scale(0.015625)"/>
       </defs>
       <use xlink:href="#DejaVuSans-2212"/>
       <use xlink:href="#DejaVuSans-37" x="83.789062"/>
       <use xlink:href="#DejaVuSans-35" x="147.412109"/>
       <use xlink:href="#DejaVuSans-30" x="211.035156"/>
      </g>
     </g>
    </g>
    <g id="ytick_3">
     <g id="line2d_8">
      <g>
       <use xlink:href="#m973ce28f31" x="72.905625" y="142.882257" style="stroke: #000000; stroke-width: 0.8"/>
      </g>
     </g>
     <g id="text_9">
      <!-- −500 -->
      <g transform="translate(38.438437 146.681476) scale(0.1 -0.1)">
       <use xlink:href="#DejaVuSans-2212"/>
       <use xlink:href="#DejaVuSans-35" x="83.789062"/>
       <use xlink:href="#DejaVuSans-30" x="147.412109"/>
       <use xlink:href="#DejaVuSans-30" x="211.035156"/>
      </g>
     </g>
    </g>
    <g id="ytick_4">
     <g id="line2d_9">
      <g>
       <use xlink:href="#m973ce28f31" x="72.905625" y="120.901751" style="stroke: #000000; stroke-width: 0.8"/>
      </g>
     </g>
     <g id="text_10">
      <!-- −250 -->
      <g transform="translate(38.438437 124.70097) scale(0.1 -0.1)">
       <use xlink:href="#DejaVuSans-2212"/>
       <use xlink:href="#DejaVuSans-32" x="83.789062"/>
       <use xlink:href="#DejaVuSans-35" x="147.412109"/>
       <use xlink:href="#DejaVuSans-30" x="211.035156"/>
      </g>
     </g>
    </g>
    <g id="ytick_5">
     <g id="line2d_10">
      <g>
       <use xlink:href="#m973ce28f31" x="72.905625" y="98.921244" style="stroke: #000000; stroke-width: 0.8"/>
      </g>
     </g>
     <g id="text_11">
      <!-- 0 -->
      <g transform="translate(59.543125 102.720463) scale(0.1 -0.1)">
       <use xlink:href="#DejaVuSans-30"/>
      </g>
     </g>
    </g>
    <g id="ytick_6">
     <g id="line2d_11">
      <g>
       <use xlink:href="#m973ce28f31" x="72.905625" y="76.940738" style="stroke: #000000; stroke-width: 0.8"/>
      </g>
     </g>
     <g id="text_12">
      <!-- 250 -->
      <g transform="translate(46.818125 80.739957) scale(0.1 -0.1)">
       <use xlink:href="#DejaVuSans-32"/>
       <use xlink:href="#DejaVuSans-35" x="63.623047"/>
       <use xlink:href="#DejaVuSans-30" x="127.246094"/>
      </g>
     </g>
    </g>
    <g id="ytick_7">
     <g id="line2d_12">
      <g>
       <use xlink:href="#m973ce28f31" x="72.905625" y="54.960232" style="stroke: #000000; stroke-width: 0.8"/>
      </g>
     </g>
     <g id="text_13">
      <!-- 500 -->
      <g transform="translate(46.818125 58.75945) scale(0.1 -0.1)">
       <use xlink:href="#DejaVuSans-35"/>
       <use xlink:href="#DejaVuSans-30" x="63.623047"/>
       <use xlink:href="#DejaVuSans-30" x="127.246094"/>
      </g>
     </g>
    </g>
    <g id="ytick_8">
     <g id="line2d_13">
      <g>
       <use xlink:href="#m973ce28f31" x="72.905625" y="32.979725" style="stroke: #000000; stroke-width: 0.8"/>
      </g>
     </g>
     <g id="text_14">
      <!-- 750 -->
      <g transform="translate(46.818125 36.778944) scale(0.1 -0.1)">
       <use xlink:href="#DejaVuSans-37"/>
       <use xlink:href="#DejaVuSans-35" x="63.623047"/>
       <use xlink:href="#DejaVuSans-30" x="127.246094"/>
      </g>
     </g>
    </g>
    <g id="ytick_9">
     <g id="line2d_14">
      <g>
       <use xlink:href="#m973ce28f31" x="72.905625" y="10.999219" style="stroke: #000000; stroke-width: 0.8"/>
      </g>
     </g>
     <g id="text_15">
      <!-- 1000 -->
      <g transform="translate(40.455625 14.798438) scale(0.1 -0.1)">
       <use xlink:href="#DejaVuSans-31"/>
       <use xlink:href="#DejaVuSans-30" x="63.623047"/>
       <use xlink:href="#DejaVuSans-30" x="127.246094"/>
       <use xlink:href="#DejaVuSans-30" x="190.869141"/>
      </g>
     </g>
    </g>
    <g id="text_16">
     <!-- Cumulative SMB Anomaly [Gt]  -->
     <g transform="translate(14.798438 176.400932) rotate(-90) scale(0.1 -0.1)">
      <defs>
       <path id="DejaVuSans-43" d="M 4122 4306 
L 4122 3641 
Q 3803 3938 3442 4084 
Q 3081 4231 2675 4231 
Q 1875 4231 1450 3742 
Q 1025 3253 1025 2328 
Q 1025 1406 1450 917 
Q 1875 428 2675 428 
Q 3081 428 3442 575 
Q 3803 722 4122 1019 
L 4122 359 
Q 3791 134 3420 21 
Q 3050 -91 2638 -91 
Q 1578 -91 968 557 
Q 359 1206 359 2328 
Q 359 3453 968 4101 
Q 1578 4750 2638 4750 
Q 3056 4750 3426 4639 
Q 3797 4528 4122 4306 
z
" transform="scale(0.015625)"/>
       <path id="DejaVuSans-75" d="M 544 1381 
L 544 3500 
L 1119 3500 
L 1119 1403 
Q 1119 906 1312 657 
Q 1506 409 1894 409 
Q 2359 409 2629 706 
Q 2900 1003 2900 1516 
L 2900 3500 
L 3475 3500 
L 3475 0 
L 2900 0 
L 2900 538 
Q 2691 219 2414 64 
Q 2138 -91 1772 -91 
Q 1169 -91 856 284 
Q 544 659 544 1381 
z
M 1991 3584 
L 1991 3584 
z
" transform="scale(0.015625)"/>
       <path id="DejaVuSans-6d" d="M 3328 2828 
Q 3544 3216 3844 3400 
Q 4144 3584 4550 3584 
Q 5097 3584 5394 3201 
Q 5691 2819 5691 2113 
L 5691 0 
L 5113 0 
L 5113 2094 
Q 5113 2597 4934 2840 
Q 4756 3084 4391 3084 
Q 3944 3084 3684 2787 
Q 3425 2491 3425 1978 
L 3425 0 
L 2847 0 
L 2847 2094 
Q 2847 2600 2669 2842 
Q 2491 3084 2119 3084 
Q 1678 3084 1418 2786 
Q 1159 2488 1159 1978 
L 1159 0 
L 581 0 
L 581 3500 
L 1159 3500 
L 1159 2956 
Q 1356 3278 1631 3431 
Q 1906 3584 2284 3584 
Q 2666 3584 2933 3390 
Q 3200 3197 3328 2828 
z
" transform="scale(0.015625)"/>
       <path id="DejaVuSans-6c" d="M 603 4863 
L 1178 4863 
L 1178 0 
L 603 0 
L 603 4863 
z
" transform="scale(0.015625)"/>
       <path id="DejaVuSans-74" d="M 1172 4494 
L 1172 3500 
L 2356 3500 
L 2356 3053 
L 1172 3053 
L 1172 1153 
Q 1172 725 1289 603 
Q 1406 481 1766 481 
L 2356 481 
L 2356 0 
L 1766 0 
Q 1100 0 847 248 
Q 594 497 594 1153 
L 594 3053 
L 172 3053 
L 172 3500 
L 594 3500 
L 594 4494 
L 1172 4494 
z
" transform="scale(0.015625)"/>
       <path id="DejaVuSans-69" d="M 603 3500 
L 1178 3500 
L 1178 0 
L 603 0 
L 603 3500 
z
M 603 4863 
L 1178 4863 
L 1178 4134 
L 603 4134 
L 603 4863 
z
" transform="scale(0.015625)"/>
       <path id="DejaVuSans-76" d="M 191 3500 
L 800 3500 
L 1894 563 
L 2988 3500 
L 3597 3500 
L 2284 0 
L 1503 0 
L 191 3500 
z
" transform="scale(0.015625)"/>
       <path id="DejaVuSans-20" transform="scale(0.015625)"/>
       <path id="DejaVuSans-53" d="M 3425 4513 
L 3425 3897 
Q 3066 4069 2747 4153 
Q 2428 4238 2131 4238 
Q 1616 4238 1336 4038 
Q 1056 3838 1056 3469 
Q 1056 3159 1242 3001 
Q 1428 2844 1947 2747 
L 2328 2669 
Q 3034 2534 3370 2195 
Q 3706 1856 3706 1288 
Q 3706 609 3251 259 
Q 2797 -91 1919 -91 
Q 1588 -91 1214 -16 
Q 841 59 441 206 
L 441 856 
Q 825 641 1194 531 
Q 1563 422 1919 422 
Q 2459 422 2753 634 
Q 3047 847 3047 1241 
Q 3047 1584 2836 1778 
Q 2625 1972 2144 2069 
L 1759 2144 
Q 1053 2284 737 2584 
Q 422 2884 422 3419 
Q 422 4038 858 4394 
Q 1294 4750 2059 4750 
Q 2388 4750 2728 4690 
Q 3069 4631 3425 4513 
z
" transform="scale(0.015625)"/>
       <path id="DejaVuSans-4d" d="M 628 4666 
L 1569 4666 
L 2759 1491 
L 3956 4666 
L 4897 4666 
L 4897 0 
L 4281 0 
L 4281 4097 
L 3078 897 
L 2444 897 
L 1241 4097 
L 1241 0 
L 628 0 
L 628 4666 
z
" transform="scale(0.015625)"/>
       <path id="DejaVuSans-42" d="M 1259 2228 
L 1259 519 
L 2272 519 
Q 2781 519 3026 730 
Q 3272 941 3272 1375 
Q 3272 1813 3026 2020 
Q 2781 2228 2272 2228 
L 1259 2228 
z
M 1259 4147 
L 1259 2741 
L 2194 2741 
Q 2656 2741 2882 2914 
Q 3109 3088 3109 3444 
Q 3109 3797 2882 3972 
Q 2656 4147 2194 4147 
L 1259 4147 
z
M 628 4666 
L 2241 4666 
Q 2963 4666 3353 4366 
Q 3744 4066 3744 3513 
Q 3744 3084 3544 2831 
Q 3344 2578 2956 2516 
Q 3422 2416 3680 2098 
Q 3938 1781 3938 1306 
Q 3938 681 3513 340 
Q 3088 0 2303 0 
L 628 0 
L 628 4666 
z
" transform="scale(0.015625)"/>
       <path id="DejaVuSans-41" d="M 2188 4044 
L 1331 1722 
L 3047 1722 
L 2188 4044 
z
M 1831 4666 
L 2547 4666 
L 4325 0 
L 3669 0 
L 3244 1197 
L 1141 1197 
L 716 0 
L 50 0 
L 1831 4666 
z
" transform="scale(0.015625)"/>
       <path id="DejaVuSans-6e" d="M 3513 2113 
L 3513 0 
L 2938 0 
L 2938 2094 
Q 2938 2591 2744 2837 
Q 2550 3084 2163 3084 
Q 1697 3084 1428 2787 
Q 1159 2491 1159 1978 
L 1159 0 
L 581 0 
L 581 3500 
L 1159 3500 
L 1159 2956 
Q 1366 3272 1645 3428 
Q 1925 3584 2291 3584 
Q 2894 3584 3203 3211 
Q 3513 2838 3513 2113 
z
" transform="scale(0.015625)"/>
       <path id="DejaVuSans-6f" d="M 1959 3097 
Q 1497 3097 1228 2736 
Q 959 2375 959 1747 
Q 959 1119 1226 758 
Q 1494 397 1959 397 
Q 2419 397 2687 759 
Q 2956 1122 2956 1747 
Q 2956 2369 2687 2733 
Q 2419 3097 1959 3097 
z
M 1959 3584 
Q 2709 3584 3137 3096 
Q 3566 2609 3566 1747 
Q 3566 888 3137 398 
Q 2709 -91 1959 -91 
Q 1206 -91 779 398 
Q 353 888 353 1747 
Q 353 2609 779 3096 
Q 1206 3584 1959 3584 
z
" transform="scale(0.015625)"/>
       <path id="DejaVuSans-79" d="M 2059 -325 
Q 1816 -950 1584 -1140 
Q 1353 -1331 966 -1331 
L 506 -1331 
L 506 -850 
L 844 -850 
Q 1081 -850 1212 -737 
Q 1344 -625 1503 -206 
L 1606 56 
L 191 3500 
L 800 3500 
L 1894 763 
L 2988 3500 
L 3597 3500 
L 2059 -325 
z
" transform="scale(0.015625)"/>
       <path id="DejaVuSans-5b" d="M 550 4863 
L 1875 4863 
L 1875 4416 
L 1125 4416 
L 1125 -397 
L 1875 -397 
L 1875 -844 
L 550 -844 
L 550 4863 
z
" transform="scale(0.015625)"/>
       <path id="DejaVuSans-47" d="M 3809 666 
L 3809 1919 
L 2778 1919 
L 2778 2438 
L 4434 2438 
L 4434 434 
Q 4069 175 3628 42 
Q 3188 -91 2688 -91 
Q 1594 -91 976 548 
Q 359 1188 359 2328 
Q 359 3472 976 4111 
Q 1594 4750 2688 4750 
Q 3144 4750 3555 4637 
Q 3966 4525 4313 4306 
L 4313 3634 
Q 3963 3931 3569 4081 
Q 3175 4231 2741 4231 
Q 1884 4231 1454 3753 
Q 1025 3275 1025 2328 
Q 1025 1384 1454 906 
Q 1884 428 2741 428 
Q 3075 428 3337 486 
Q 3600 544 3809 666 
z
" transform="scale(0.015625)"/>
       <path id="DejaVuSans-5d" d="M 1947 4863 
L 1947 -844 
L 622 -844 
L 622 -397 
L 1369 -397 
L 1369 4416 
L 622 4416 
L 622 4863 
L 1947 4863 
z
" transform="scale(0.015625)"/>
      </defs>
      <use xlink:href="#DejaVuSans-43"/>
      <use xlink:href="#DejaVuSans-75" x="69.824219"/>
      <use xlink:href="#DejaVuSans-6d" x="133.203125"/>
      <use xlink:href="#DejaVuSans-75" x="230.615234"/>
      <use xlink:href="#DejaVuSans-6c" x="293.994141"/>
      <use xlink:href="#DejaVuSans-61" x="321.777344"/>
      <use xlink:href="#DejaVuSans-74" x="383.056641"/>
      <use xlink:href="#DejaVuSans-69" x="422.265625"/>
      <use xlink:href="#DejaVuSans-76" x="450.048828"/>
      <use xlink:href="#DejaVuSans-65" x="509.228516"/>
      <use xlink:href="#DejaVuSans-20" x="570.751953"/>
      <use xlink:href="#DejaVuSans-53" x="602.539062"/>
      <use xlink:href="#DejaVuSans-4d" x="666.015625"/>
      <use xlink:href="#DejaVuSans-42" x="752.294922"/>
      <use xlink:href="#DejaVuSans-20" x="820.898438"/>
      <use xlink:href="#DejaVuSans-41" x="852.685547"/>
      <use xlink:href="#DejaVuSans-6e" x="921.09375"/>
      <use xlink:href="#DejaVuSans-6f" x="984.472656"/>
      <use xlink:href="#DejaVuSans-6d" x="1045.654297"/>
      <use xlink:href="#DejaVuSans-61" x="1143.066406"/>
      <use xlink:href="#DejaVuSans-6c" x="1204.345703"/>
      <use xlink:href="#DejaVuSans-79" x="1232.128906"/>
      <use xlink:href="#DejaVuSans-20" x="1291.308594"/>
      <use xlink:href="#DejaVuSans-5b" x="1323.095703"/>
      <use xlink:href="#DejaVuSans-47" x="1362.109375"/>
      <use xlink:href="#DejaVuSans-74" x="1439.599609"/>
      <use xlink:href="#DejaVuSans-5d" x="1478.808594"/>
      <use xlink:href="#DejaVuSans-20" x="1517.822266"/>
     </g>
     <!-- (w.r.t 1979-2010) -->
     <g transform="translate(25.99625 142.036088) rotate(-90) scale(0.1 -0.1)">
      <defs>
       <path id="DejaVuSans-28" d="M 1984 4856 
Q 1566 4138 1362 3434 
Q 1159 2731 1159 2009 
Q 1159 1288 1364 580 
Q 1569 -128 1984 -844 
L 1484 -844 
Q 1016 -109 783 600 
Q 550 1309 550 2009 
Q 550 2706 781 3412 
Q 1013 4119 1484 4856 
L 1984 4856 
z
" transform="scale(0.015625)"/>
       <path id="DejaVuSans-77" d="M 269 3500 
L 844 3500 
L 1563 769 
L 2278 3500 
L 2956 3500 
L 3675 769 
L 4391 3500 
L 4966 3500 
L 4050 0 
L 3372 0 
L 2619 2869 
L 1863 0 
L 1184 0 
L 269 3500 
z
" transform="scale(0.015625)"/>
       <path id="DejaVuSans-2e" d="M 684 794 
L 1344 794 
L 1344 0 
L 684 0 
L 684 794 
z
" transform="scale(0.015625)"/>
       <path id="DejaVuSans-2d" d="M 313 2009 
L 1997 2009 
L 1997 1497 
L 313 1497 
L 313 2009 
z
" transform="scale(0.015625)"/>
       <path id="DejaVuSans-29" d="M 513 4856 
L 1013 4856 
Q 1481 4119 1714 3412 
Q 1947 2706 1947 2009 
Q 1947 1309 1714 600 
Q 1481 -109 1013 -844 
L 513 -844 
Q 928 -128 1133 580 
Q 1338 1288 1338 2009 
Q 1338 2731 1133 3434 
Q 928 4138 513 4856 
z
" transform="scale(0.015625)"/>
      </defs>
      <use xlink:href="#DejaVuSans-28"/>
      <use xlink:href="#DejaVuSans-77" x="39.013672"/>
      <use xlink:href="#DejaVuSans-2e" x="111.675781"/>
      <use xlink:href="#DejaVuSans-72" x="143.462891"/>
      <use xlink:href="#DejaVuSans-2e" x="175.451172"/>
      <use xlink:href="#DejaVuSans-74" x="207.238281"/>
      <use xlink:href="#DejaVuSans-20" x="246.447266"/>
      <use xlink:href="#DejaVuSans-31" x="278.234375"/>
      <use xlink:href="#DejaVuSans-39" x="341.857422"/>
      <use xlink:href="#DejaVuSans-37" x="405.480469"/>
      <use xlink:href="#DejaVuSans-39" x="469.103516"/>
      <use xlink:href="#DejaVuSans-2d" x="532.726562"/>
      <use xlink:href="#DejaVuSans-32" x="568.810547"/>
      <use xlink:href="#DejaVuSans-30" x="632.433594"/>
      <use xlink:href="#DejaVuSans-31" x="696.056641"/>
      <use xlink:href="#DejaVuSans-30" x="759.679688"/>
      <use xlink:href="#DejaVuSans-29" x="823.302734"/>
     </g>
    </g>
   </g>
   <g id="line2d_15">
    <path d="M 86.078856 104.158034 
L 86.589446 109.295153 
L 87.100037 108.167167 
L 88.121217 101.843989 
L 88.631808 99.636194 
L 89.142398 98.132071 
L 89.652988 95.644029 
L 90.163579 94.175504 
L 91.18476 93.288933 
L 91.69535 97.415475 
L 92.20594 103.335225 
L 92.716531 106.351064 
L 93.227121 103.947585 
L 94.758892 89.189876 
L 95.269482 86.362084 
L 95.780073 82.065296 
L 96.290663 82.322606 
L 96.801253 82.020155 
L 97.311844 84.077152 
L 98.333024 95.078304 
L 98.843615 98.547681 
L 99.354205 99.238736 
L 99.864795 96.915071 
L 100.375386 92.822053 
L 100.885976 85.613752 
L 101.396567 76.768932 
L 101.907157 71.352294 
L 102.417747 69.330135 
L 102.928338 69.132918 
L 103.438928 70.869108 
L 103.949518 73.289346 
L 105.481289 85.979596 
L 105.99188 84.205407 
L 106.50247 79.925536 
L 107.523651 62.70211 
L 108.034241 60.636532 
L 108.544831 60.192361 
L 109.055422 58.068412 
L 109.566012 58.581078 
L 110.076602 63.634861 
L 110.587193 70.102298 
L 111.097783 74.965627 
L 111.608374 76.930353 
L 112.118964 75.08541 
L 113.140145 67.417799 
L 113.650735 66.268009 
L 114.161325 66.799397 
L 115.182506 61.000419 
L 115.693096 64.062082 
L 117.224867 77.943306 
L 117.735458 77.384972 
L 118.246048 70.561316 
L 118.756638 65.56364 
L 119.267229 61.914022 
L 119.777819 61.506351 
L 121.30959 54.673176 
L 121.820181 54.404333 
L 123.862542 71.412611 
L 124.883723 66.818638 
L 125.394313 63.511187 
L 126.415494 52.777534 
L 126.926084 51.175421 
L 127.436674 50.463176 
L 127.947265 50.21827 
L 128.457855 50.888764 
L 129.479036 60.71462 
L 129.989626 62.205865 
L 130.500216 60.139454 
L 131.010807 58.590097 
L 131.521397 59.0809 
L 132.031987 57.850832 
L 132.542578 55.339025 
L 133.053168 54.471677 
L 134.074349 50.647385 
L 134.584939 55.538713 
L 135.09553 62.047058 
L 135.60612 67.005289 
L 136.11671 68.594218 
L 136.627301 68.254663 
L 137.137891 69.953779 
L 137.648481 68.854471 
L 138.159072 67.283854 
L 138.669662 66.772049 
L 139.180252 66.520085 
L 139.690843 66.937085 
L 140.201433 67.94661 
L 140.712023 73.216876 
L 141.222614 79.968854 
L 141.733204 83.067248 
L 142.243794 84.842087 
L 142.754385 82.000051 
L 143.264975 78.024835 
L 143.775566 76.847601 
L 144.286156 76.680836 
L 144.796746 73.063492 
L 145.307337 68.60509 
L 145.817927 68.644908 
L 146.328517 72.304926 
L 147.860288 92.062602 
L 148.370879 92.641708 
L 149.392059 90.088939 
L 150.41324 85.793184 
L 150.92383 81.917424 
L 151.434421 78.95813 
L 151.945011 77.457116 
L 152.455601 78.386092 
L 153.476782 86.853336 
L 153.987373 89.921315 
L 154.497963 91.533843 
L 155.008553 91.085056 
L 155.519144 89.5341 
L 156.029734 89.500885 
L 156.540324 88.000504 
L 157.050915 85.358317 
L 157.561505 84.51441 
L 158.072095 84.541379 
L 159.603866 97.391013 
L 160.114457 99.742023 
L 160.625047 98.501285 
L 161.135637 93.586315 
L 161.646228 90.227898 
L 163.177999 84.182431 
L 164.19918 81.693464 
L 164.70977 82.398632 
L 165.22036 87.915556 
L 165.730951 95.513146 
L 166.241541 100.885112 
L 166.752131 101.866168 
L 167.262722 98.194627 
L 167.773312 91.372038 
L 168.794493 84.898291 
L 169.305083 80.426066 
L 169.815673 77.450349 
L 170.326264 78.02418 
L 170.836854 76.931992 
L 171.347444 76.411928 
L 171.858035 81.545202 
L 172.368625 83.083027 
L 172.879215 79.444648 
L 173.389806 78.6178 
L 173.900396 78.911065 
L 174.410987 77.875604 
L 174.921577 74.998417 
L 175.432167 70.523665 
L 175.942758 67.874912 
L 176.453348 68.316401 
L 176.963938 70.187761 
L 178.495709 85.129642 
L 179.0063 86.509408 
L 180.538071 80.754689 
L 181.048661 81.841537 
L 181.559251 82.6294 
L 182.069842 82.412217 
L 182.580432 81.667877 
L 183.091022 84.096172 
L 184.622794 96.582135 
L 185.133384 97.036884 
L 185.643974 96.167057 
L 186.154565 92.975013 
L 186.665155 90.871713 
L 187.175745 87.934727 
L 187.686336 86.165825 
L 188.196926 83.585011 
L 188.707516 83.262841 
L 189.218107 86.007525 
L 190.239287 96.513772 
L 190.749878 100.151669 
L 191.260468 99.191865 
L 191.771058 95.034786 
L 192.281649 91.912937 
L 192.792239 91.651568 
L 193.302829 86.648281 
L 193.81342 83.834944 
L 194.32401 84.465848 
L 195.345191 87.812587 
L 195.855781 91.995259 
L 196.366372 98.676721 
L 196.876962 103.423875 
L 197.387552 103.31197 
L 199.429914 93.477675 
L 199.940504 92.824988 
L 200.451094 94.304664 
L 200.961685 95.136904 
L 201.472275 98.311914 
L 201.982865 103.155418 
L 202.493456 110.062733 
L 203.004046 114.813468 
L 203.514636 114.432579 
L 204.025227 111.67065 
L 205.046408 96.162737 
L 205.556998 93.789763 
L 206.067588 92.201122 
L 206.578179 91.650258 
L 207.088769 93.616775 
L 207.599359 96.461316 
L 208.10995 98.441681 
L 209.13113 109.240051 
L 209.641721 110.440862 
L 210.152311 110.494138 
L 211.173492 106.106026 
L 211.684082 108.097492 
L 212.194672 107.255109 
L 212.705263 107.915286 
L 213.215853 106.855103 
L 213.726443 103.541818 
L 214.237034 105.771674 
L 215.258215 114.83511 
L 215.768805 114.264503 
L 216.279395 112.196622 
L 216.789986 112.666804 
L 217.300576 109.229364 
L 217.811166 107.070848 
L 218.321757 103.90798 
L 218.832347 101.902326 
L 219.342937 100.669176 
L 219.853528 102.075116 
L 220.364118 106.243766 
L 220.874708 114.588425 
L 221.385299 117.946903 
L 221.895889 119.472141 
L 222.406479 117.555645 
L 222.91707 114.065503 
L 223.42766 109.514426 
L 223.93825 107.613815 
L 224.448841 106.733693 
L 224.959431 107.373353 
L 225.470021 106.152896 
L 225.980612 106.57754 
L 226.491202 106.763151 
L 227.001793 105.89023 
L 227.512383 105.961006 
L 228.022973 105.163488 
L 229.044154 96.499786 
L 229.554744 94.766476 
L 230.065335 94.063801 
L 230.575925 91.832025 
L 231.086515 88.618793 
L 231.597106 88.925351 
L 232.107696 92.647563 
L 233.128877 102.309437 
L 233.639467 105.42501 
L 234.150057 106.396352 
L 234.660648 102.7976 
L 235.171238 97.951165 
L 235.681828 96.708807 
L 236.192419 97.488031 
L 236.703009 95.959325 
L 237.2136 93.43908 
L 237.72419 92.574431 
L 238.23478 95.600011 
L 239.255961 110.328956 
L 239.766551 113.018605 
L 240.277142 112.591209 
L 242.830093 94.384217 
L 243.340684 91.468802 
L 243.851274 92.33507 
L 244.361864 93.777485 
L 244.872455 97.572351 
L 245.383045 105.365266 
L 245.893635 109.347969 
L 246.404226 109.010575 
L 246.914816 105.799193 
L 247.425407 104.323095 
L 248.446587 97.86446 
L 248.957178 95.805471 
L 249.467768 91.953091 
L 249.978358 85.922157 
L 250.488949 82.453992 
L 250.999539 85.904709 
L 251.510129 91.809959 
L 252.02072 94.801719 
L 252.53131 95.635305 
L 253.0419 93.799196 
L 254.573671 84.27886 
L 255.084262 83.047987 
L 255.594852 85.764866 
L 256.105442 86.317778 
L 256.616033 85.080175 
L 257.126623 88.486399 
L 257.637214 95.536738 
L 258.147804 100.863901 
L 258.658394 103.204337 
L 259.168985 100.771659 
L 260.190165 94.008256 
L 260.700756 93.120518 
L 261.211346 93.752086 
L 262.232527 94.348717 
L 263.253707 101.443195 
L 264.274888 109.910047 
L 264.785478 110.89406 
L 265.296069 109.99774 
L 265.806659 107.551421 
L 266.317249 107.421042 
L 266.82784 106.892508 
L 267.33843 101.942118 
L 267.849021 95.754548 
L 268.359611 95.007449 
L 269.380792 99.141969 
L 269.891382 104.103075 
L 270.401972 106.36144 
L 270.912563 104.156207 
L 271.423153 102.655889 
L 271.933743 100.660204 
L 273.465514 86.419289 
L 273.976105 85.194834 
L 274.486695 84.566368 
L 274.997285 86.874065 
L 275.507876 91.615445 
L 276.018466 98.921244 
L 276.529056 103.949695 
L 278.060828 109.300039 
L 278.571418 108.775148 
L 279.082008 106.915777 
L 280.613779 97.996847 
L 281.12437 96.220022 
L 281.63496 98.617114 
L 282.14555 104.631586 
L 282.656141 108.768274 
L 283.166731 109.392217 
L 283.677321 109.271563 
L 284.698502 106.748197 
L 285.209092 102.680783 
L 285.719683 95.880552 
L 286.230273 93.277506 
L 287.251454 96.940676 
L 287.762044 101.019815 
L 288.272635 103.175242 
L 288.783225 106.704079 
L 289.293815 106.130028 
L 289.804406 104.353372 
L 290.314996 101.158398 
L 290.825586 96.273911 
L 291.336177 95.141485 
L 291.846767 94.662362 
L 292.357357 93.601183 
L 292.867948 95.554482 
L 293.378538 100.221593 
L 294.399719 113.640629 
L 294.910309 116.625776 
L 295.420899 115.122422 
L 295.93149 111.902808 
L 296.44208 110.081705 
L 296.95267 109.586748 
L 297.463261 109.534245 
L 297.973851 108.852224 
L 298.484442 106.000307 
L 298.995032 104.391932 
L 300.016213 112.034447 
L 301.037393 124.156993 
L 301.547984 125.430866 
L 302.058574 123.773717 
L 302.569164 118.755209 
L 303.079755 115.86784 
L 303.590345 115.475994 
L 304.100935 114.344477 
L 304.611526 112.844363 
L 305.122116 113.390519 
L 305.632706 115.520765 
L 306.653887 130.425417 
L 307.164477 134.830982 
L 307.675068 134.594722 
L 308.185658 131.751735 
L 308.696248 127.73806 
L 309.206839 125.578278 
L 309.717429 126.451684 
L 310.73861 121.498649 
L 311.2492 121.487683 
L 312.780971 130.436544 
L 313.291562 133.495014 
L 313.802152 133.492284 
L 314.312742 132.389001 
L 314.823333 128.051254 
L 315.333923 120.842296 
L 315.844513 116.581166 
L 316.865694 111.786668 
L 317.376284 107.860751 
L 317.886875 106.660012 
L 318.397465 111.83084 
L 318.908055 118.874621 
L 319.418646 122.87161 
L 319.929236 122.039526 
L 320.439827 120.559882 
L 321.461007 113.925398 
L 321.971598 113.599521 
L 322.992778 109.694085 
L 323.503369 109.99344 
L 324.013959 111.638677 
L 324.524549 114.478001 
L 325.03514 122.536171 
L 325.54573 127.225987 
L 326.05632 126.063038 
L 326.566911 123.541662 
L 327.077501 122.234415 
L 327.588091 121.356875 
L 328.609272 118.1167 
L 329.119862 118.464598 
L 329.630453 116.750463 
L 330.141043 115.615912 
L 330.651634 120.315421 
L 331.162224 127.158802 
L 331.672814 131.42064 
L 332.183405 131.480005 
L 332.693995 130.383474 
L 333.204585 129.62299 
L 333.715176 128.23181 
L 334.736356 117.886068 
L 335.246947 115.119417 
L 335.757537 114.62742 
L 336.268127 116.632248 
L 337.799898 134.638635 
L 338.310489 132.957497 
L 339.331669 123.722339 
L 340.35285 111.878847 
L 340.863441 108.921209 
L 341.374031 110.252415 
L 341.884621 109.865286 
L 342.395212 110.639145 
L 342.905802 113.363829 
L 343.926983 120.928577 
L 344.437573 121.939643 
L 344.948163 119.349984 
L 345.458754 117.57203 
L 345.969344 114.238797 
L 346.990525 110.239749 
L 347.501115 109.249982 
L 348.522296 103.948962 
L 349.032886 103.917952 
L 349.543476 103.490729 
L 349.543476 103.490729 
" clip-path="url(#pb257947e74)" style="fill: none; stroke: #fb9a99; stroke-opacity: 0.5; stroke-width: 1.5; stroke-linecap: square"/>
   </g>
   <g id="line2d_16">
    <path d="M 86.078856 99.841049 
L 87.100037 98.278314 
L 88.121217 96.814047 
L 88.631808 96.260269 
L 89.142398 95.983552 
L 89.652988 95.947342 
L 91.18476 96.192323 
L 91.69535 96.076107 
L 92.20594 95.727362 
L 93.227121 94.37319 
L 94.758892 92.264978 
L 95.269482 91.737877 
L 96.801253 89.65383 
L 97.822434 88.474389 
L 98.843615 86.692266 
L 102.417747 80.086409 
L 103.949518 78.004414 
L 104.970699 76.841466 
L 105.99188 75.898518 
L 109.566012 71.674769 
L 110.587193 70.259265 
L 111.608374 69.496976 
L 112.629554 68.741852 
L 114.161325 67.493096 
L 116.203687 65.906545 
L 119.267229 64.646574 
L 120.799 63.500286 
L 122.330771 62.33111 
L 124.883723 61.052252 
L 126.926084 59.684028 
L 127.436674 59.43984 
L 127.947265 59.375767 
L 129.479036 59.850991 
L 130.500216 60.337498 
L 132.031987 61.452674 
L 133.563759 62.682591 
L 135.09553 63.722328 
L 137.648481 66.418972 
L 139.180252 68.904106 
L 142.243794 73.815399 
L 144.286156 76.719376 
L 146.328517 79.316384 
L 150.92383 84.09882 
L 151.945011 84.941431 
L 157.050915 88.042958 
L 158.582686 88.731836 
L 160.114457 88.739544 
L 162.667408 88.455641 
L 163.688589 88.11824 
L 166.752131 86.044865 
L 170.326264 82.89102 
L 171.858035 82.234885 
L 172.879215 82.068203 
L 175.942758 81.940178 
L 176.963938 81.74971 
L 178.495709 81.957831 
L 180.538071 82.685292 
L 182.069842 84.003842 
L 183.091022 85.008403 
L 185.643974 86.906456 
L 190.239287 91.186814 
L 192.792239 92.892618 
L 193.81342 93.764925 
L 195.345191 95.18522 
L 195.855781 95.495729 
L 197.898143 96.197024 
L 199.429914 96.958326 
L 200.451094 97.41746 
L 201.472275 98.159358 
L 203.004046 99.612847 
L 204.535817 101.493047 
L 205.556998 102.312648 
L 208.62054 104.331455 
L 209.641721 105.016904 
L 210.662901 105.381624 
L 213.726443 106.088158 
L 214.747624 106.734377 
L 217.300576 108.588045 
L 217.811166 108.819197 
L 218.321757 108.872976 
L 219.342937 108.635298 
L 220.874708 107.715926 
L 221.895889 106.897683 
L 222.91707 105.86362 
L 223.93825 105.344577 
L 225.980612 104.388098 
L 227.001793 103.631537 
L 229.044154 102.684608 
L 230.065335 102.39902 
L 231.597106 101.952668 
L 233.639467 100.938943 
L 234.660648 100.154109 
L 235.681828 99.414723 
L 236.192419 99.159423 
L 237.2136 99.238923 
L 238.23478 99.491004 
L 239.255961 99.879459 
L 240.787732 100.188026 
L 241.298322 100.104603 
L 248.446587 96.091611 
L 249.467768 95.343085 
L 250.999539 94.638523 
L 252.02072 94.328775 
L 253.0419 94.382904 
L 257.126623 94.939752 
L 259.679575 95.899333 
L 261.211346 97.009221 
L 262.232527 97.567016 
L 264.274888 98.544392 
L 265.296069 98.622205 
L 266.317249 98.623385 
L 268.870201 99.161099 
L 271.423153 100.759192 
L 271.933743 100.860529 
L 276.529056 100.491378 
L 277.550237 100.254195 
L 280.613779 100.34614 
L 282.656141 100.507178 
L 284.187912 101.274887 
L 286.740863 103.091242 
L 287.762044 103.225351 
L 288.783225 103.32063 
L 290.314996 103.780358 
L 291.846767 104.861711 
L 293.889128 106.438422 
L 294.910309 107.047167 
L 297.463261 109.752043 
L 300.526803 114.39438 
L 302.058574 116.85554 
L 303.079755 118.244792 
L 304.611526 119.725364 
L 306.653887 121.616507 
L 308.185658 122.122162 
L 308.696248 122.218518 
L 313.291562 121.820284 
L 315.333923 121.449211 
L 317.886875 120.306382 
L 322.482188 118.961933 
L 324.524549 118.836365 
L 325.54573 119.226672 
L 327.077501 119.608977 
L 328.609272 120.525393 
L 330.141043 121.380909 
L 331.162224 121.668613 
L 333.715176 121.535722 
L 334.736356 121.364209 
L 335.757537 121.074742 
L 337.289308 120.631072 
L 338.821079 119.945879 
L 339.84226 119.34333 
L 340.35285 118.887845 
L 340.863441 118.230398 
L 343.926983 116.063758 
L 344.948163 116.032402 
L 345.969344 116.063369 
L 346.479934 115.783546 
L 346.990525 115.163474 
L 348.522296 112.745419 
L 349.032886 112.196573 
L 349.543476 111.905831 
L 349.543476 111.905831 
" clip-path="url(#pb257947e74)" style="fill: none; stroke: #a6cee3; stroke-width: 1.5; stroke-linecap: square"/>
   </g>
   <g id="patch_3">
    <path d="M 72.905625 186.84327 
L 72.905625 10.999219 
" style="fill: none; stroke: #000000; stroke-width: 0.8; stroke-linejoin: miter; stroke-linecap: square"/>
   </g>
   <g id="patch_4">
    <path d="M 362.716708 186.84327 
L 362.716708 10.999219 
" style="fill: none; stroke: #000000; stroke-width: 0.8; stroke-linejoin: miter; stroke-linecap: square"/>
   </g>
   <g id="patch_5">
    <path d="M 72.905625 186.84327 
L 362.716707 186.84327 
" style="fill: none; stroke: #000000; stroke-width: 0.8; stroke-linejoin: miter; stroke-linecap: square"/>
   </g>
   <g id="patch_6">
    <path d="M 72.905625 10.999219 
L 362.716707 10.999219 
" style="fill: none; stroke: #000000; stroke-width: 0.8; stroke-linejoin: miter; stroke-linecap: square"/>
   </g>
   <g id="legend_1">
    <g id="patch_7">
     <path d="M 369.716708 115.099369 
L 503.19952 115.099369 
Q 505.19952 115.099369 505.19952 113.099369 
L 505.19952 84.743119 
Q 505.19952 82.743119 503.19952 82.743119 
L 369.716708 82.743119 
Q 367.716708 82.743119 367.716708 84.743119 
L 367.716708 113.099369 
Q 367.716708 115.099369 369.716708 115.099369 
z
" style="fill: #ffffff; opacity: 0.8; stroke: #cccccc; stroke-linejoin: miter"/>
    </g>
    <g id="line2d_17">
     <path d="M 371.716708 90.841557 
L 381.716708 90.841557 
L 391.716708 90.841557 
" style="fill: none; stroke: #fb9a99; stroke-opacity: 0.5; stroke-width: 1.5; stroke-linecap: square"/>
    </g>
    <g id="text_17">
     <!-- Monthly -->
     <g transform="translate(399.716708 94.341557) scale(0.1 -0.1)">
      <defs>
       <path id="DejaVuSans-68" d="M 3513 2113 
L 3513 0 
L 2938 0 
L 2938 2094 
Q 2938 2591 2744 2837 
Q 2550 3084 2163 3084 
Q 1697 3084 1428 2787 
Q 1159 2491 1159 1978 
L 1159 0 
L 581 0 
L 581 4863 
L 1159 4863 
L 1159 2956 
Q 1366 3272 1645 3428 
Q 1925 3584 2291 3584 
Q 2894 3584 3203 3211 
Q 3513 2838 3513 2113 
z
" transform="scale(0.015625)"/>
      </defs>
      <use xlink:href="#DejaVuSans-4d"/>
      <use xlink:href="#DejaVuSans-6f" x="86.279297"/>
      <use xlink:href="#DejaVuSans-6e" x="147.460938"/>
      <use xlink:href="#DejaVuSans-74" x="210.839844"/>
      <use xlink:href="#DejaVuSans-68" x="250.048828"/>
      <use xlink:href="#DejaVuSans-6c" x="313.427734"/>
      <use xlink:href="#DejaVuSans-79" x="341.210938"/>
     </g>
    </g>
    <g id="line2d_18">
     <path d="M 371.716708 105.519682 
L 381.716708 105.519682 
L 391.716708 105.519682 
" style="fill: none; stroke: #a6cee3; stroke-width: 1.5; stroke-linecap: square"/>
    </g>
    <g id="text_18">
     <!-- 36 month smoothed -->
     <g transform="translate(399.716708 109.019682) scale(0.1 -0.1)">
      <defs>
       <path id="DejaVuSans-33" d="M 2597 2516 
Q 3050 2419 3304 2112 
Q 3559 1806 3559 1356 
Q 3559 666 3084 287 
Q 2609 -91 1734 -91 
Q 1441 -91 1130 -33 
Q 819 25 488 141 
L 488 750 
Q 750 597 1062 519 
Q 1375 441 1716 441 
Q 2309 441 2620 675 
Q 2931 909 2931 1356 
Q 2931 1769 2642 2001 
Q 2353 2234 1838 2234 
L 1294 2234 
L 1294 2753 
L 1863 2753 
Q 2328 2753 2575 2939 
Q 2822 3125 2822 3475 
Q 2822 3834 2567 4026 
Q 2313 4219 1838 4219 
Q 1578 4219 1281 4162 
Q 984 4106 628 3988 
L 628 4550 
Q 988 4650 1302 4700 
Q 1616 4750 1894 4750 
Q 2613 4750 3031 4423 
Q 3450 4097 3450 3541 
Q 3450 3153 3228 2886 
Q 3006 2619 2597 2516 
z
" transform="scale(0.015625)"/>
       <path id="DejaVuSans-36" d="M 2113 2584 
Q 1688 2584 1439 2293 
Q 1191 2003 1191 1497 
Q 1191 994 1439 701 
Q 1688 409 2113 409 
Q 2538 409 2786 701 
Q 3034 994 3034 1497 
Q 3034 2003 2786 2293 
Q 2538 2584 2113 2584 
z
M 3366 4563 
L 3366 3988 
Q 3128 4100 2886 4159 
Q 2644 4219 2406 4219 
Q 1781 4219 1451 3797 
Q 1122 3375 1075 2522 
Q 1259 2794 1537 2939 
Q 1816 3084 2150 3084 
Q 2853 3084 3261 2657 
Q 3669 2231 3669 1497 
Q 3669 778 3244 343 
Q 2819 -91 2113 -91 
Q 1303 -91 875 529 
Q 447 1150 447 2328 
Q 447 3434 972 4092 
Q 1497 4750 2381 4750 
Q 2619 4750 2861 4703 
Q 3103 4656 3366 4563 
z
" transform="scale(0.015625)"/>
       <path id="DejaVuSans-73" d="M 2834 3397 
L 2834 2853 
Q 2591 2978 2328 3040 
Q 2066 3103 1784 3103 
Q 1356 3103 1142 2972 
Q 928 2841 928 2578 
Q 928 2378 1081 2264 
Q 1234 2150 1697 2047 
L 1894 2003 
Q 2506 1872 2764 1633 
Q 3022 1394 3022 966 
Q 3022 478 2636 193 
Q 2250 -91 1575 -91 
Q 1294 -91 989 -36 
Q 684 19 347 128 
L 347 722 
Q 666 556 975 473 
Q 1284 391 1588 391 
Q 1994 391 2212 530 
Q 2431 669 2431 922 
Q 2431 1156 2273 1281 
Q 2116 1406 1581 1522 
L 1381 1569 
Q 847 1681 609 1914 
Q 372 2147 372 2553 
Q 372 3047 722 3315 
Q 1072 3584 1716 3584 
Q 2034 3584 2315 3537 
Q 2597 3491 2834 3397 
z
" transform="scale(0.015625)"/>
       <path id="DejaVuSans-64" d="M 2906 2969 
L 2906 4863 
L 3481 4863 
L 3481 0 
L 2906 0 
L 2906 525 
Q 2725 213 2448 61 
Q 2172 -91 1784 -91 
Q 1150 -91 751 415 
Q 353 922 353 1747 
Q 353 2572 751 3078 
Q 1150 3584 1784 3584 
Q 2172 3584 2448 3432 
Q 2725 3281 2906 2969 
z
M 947 1747 
Q 947 1113 1208 752 
Q 1469 391 1925 391 
Q 2381 391 2643 752 
Q 2906 1113 2906 1747 
Q 2906 2381 2643 2742 
Q 2381 3103 1925 3103 
Q 1469 3103 1208 2742 
Q 947 2381 947 1747 
z
" transform="scale(0.015625)"/>
      </defs>
      <use xlink:href="#DejaVuSans-33"/>
      <use xlink:href="#DejaVuSans-36" x="63.623047"/>
      <use xlink:href="#DejaVuSans-20" x="127.246094"/>
      <use xlink:href="#DejaVuSans-6d" x="159.033203"/>
      <use xlink:href="#DejaVuSans-6f" x="256.445312"/>
      <use xlink:href="#DejaVuSans-6e" x="317.626953"/>
      <use xlink:href="#DejaVuSans-74" x="381.005859"/>
      <use xlink:href="#DejaVuSans-68" x="420.214844"/>
      <use xlink:href="#DejaVuSans-20" x="483.59375"/>
      <use xlink:href="#DejaVuSans-73" x="515.380859"/>
      <use xlink:href="#DejaVuSans-6d" x="567.480469"/>
      <use xlink:href="#DejaVuSans-6f" x="664.892578"/>
      <use xlink:href="#DejaVuSans-6f" x="726.074219"/>
      <use xlink:href="#DejaVuSans-74" x="787.255859"/>
      <use xlink:href="#DejaVuSans-68" x="826.464844"/>
      <use xlink:href="#DejaVuSans-65" x="889.84375"/>
      <use xlink:href="#DejaVuSans-64" x="951.367188"/>
     </g>
    </g>
   </g>
  </g>
 </g>
 <defs>
  <clipPath id="pb257947e74">
   <rect x="72.905625" y="10.999219" width="289.811083" height="175.844051"/>
  </clipPath>
 </defs>
</svg>
