<?xml version="1.0" encoding="utf-8" standalone="no"?>
<!DOCTYPE svg PUBLIC "-//W3C//DTD SVG 1.1//EN"
  "http://www.w3.org/Graphics/SVG/1.1/DTD/svg11.dtd">
<svg xmlns:xlink="http://www.w3.org/1999/xlink" width="512.39952pt" height="224.39952pt" viewBox="0 0 512.39952 224.39952" xmlns="http://www.w3.org/2000/svg" version="1.1">
 <metadata>
  <rdf:RDF xmlns:dc="http://purl.org/dc/elements/1.1/" xmlns:cc="http://creativecommons.org/ns#" xmlns:rdf="http://www.w3.org/1999/02/22-rdf-syntax-ns#">
   <cc:Work>
    <dc:type rdf:resource="http://purl.org/dc/dcmitype/StillImage"/>
    <dc:date>2023-01-31T15:08:59.889685</dc:date>
    <dc:format>image/svg+xml</dc:format>
    <dc:creator>
     <cc:Agent>
      <dc:title>Matplotlib v3.6.2, https://matplotlib.org/</dc:title>
     </cc:Agent>
    </dc:creator>
   </cc:Work>
  </rdf:RDF>
 </metadata>
 <defs>
  <style type="text/css">*{stroke-linejoin: round; stroke-linecap: butt}</style>
 </defs>
 <g id="figure_1">
  <g id="patch_1">
   <path d="M 0 224.39952 
L 512.39952 224.39952 
L 512.39952 0 
L 0 0 
z
" style="fill: #ffffff"/>
  </g>
  <g id="axes_1">
   <g id="patch_2">
    <path d="M 46.965625 186.84327 
L 505.19952 186.84327 
L 505.19952 22.318125 
L 46.965625 22.318125 
z
" style="fill: #ffffff"/>
   </g>
   <g id="PolyCollection_1">
    <path d="M 67.794438 123.008379 
L 67.794438 144.286676 
L 68.601757 138.895284 
L 69.409075 110.906591 
L 70.216393 95.945511 
L 71.023712 100.464925 
L 71.83103 101.925581 
L 72.638349 106.089198 
L 73.445667 101.444507 
L 74.252985 105.458819 
L 75.060304 111.273357 
L 75.867622 110.87504 
L 76.67494 132.123583 
L 77.482259 143.238635 
L 78.289577 125.646135 
L 79.096895 98.220895 
L 79.904214 85.295485 
L 80.711532 88.305099 
L 81.51885 80.558238 
L 82.326169 95.661883 
L 83.133487 87.52879 
L 83.940805 111.252239 
L 84.748124 108.204589 
L 85.555442 119.897854 
L 86.36276 138.225604 
L 87.170079 137.65106 
L 87.977397 127.811352 
L 88.784715 113.78298 
L 89.592034 98.403872 
L 90.399352 88.835944 
L 91.206671 73.468328 
L 92.013989 64.227692 
L 92.821307 81.744166 
L 93.628626 99.578682 
L 94.435944 108.74237 
L 95.243262 118.59215 
L 96.050581 122.086346 
L 96.857899 132.000584 
L 97.665217 136.727152 
L 98.472536 125.907811 
L 99.279854 100.661882 
L 100.087172 88.312071 
L 100.894491 64.054981 
L 101.701809 67.521923 
L 102.509127 99.093477 
L 103.316446 107.610961 
L 104.123764 99.109519 
L 104.931082 111.981619 
L 105.738401 135.587679 
L 106.545719 142.929692 
L 107.353038 134.901682 
L 108.160356 120.428591 
L 108.967674 100.878839 
L 109.774993 88.788294 
L 110.582311 91.40354 
L 111.389629 103.663145 
L 112.196948 112.68303 
L 113.004266 94.041466 
L 113.811584 95.820471 
L 114.618903 125.071476 
L 115.426221 133.419838 
L 116.233539 135.882104 
L 117.040858 131.428639 
L 117.848176 108.228747 
L 118.655494 74.568265 
L 119.462813 84.944521 
L 120.270131 90.757275 
L 121.077449 108.021724 
L 121.884768 97.926879 
L 122.692086 96.63039 
L 123.499405 99.803401 
L 124.306723 108.087577 
L 125.114041 132.732015 
L 125.92136 133.95491 
L 126.728678 135.491561 
L 127.535996 124.683759 
L 128.343315 98.136554 
L 129.150633 98.315206 
L 129.957951 93.283496 
L 130.76527 79.63199 
L 131.572588 84.906167 
L 132.379906 101.609714 
L 133.187225 106.092397 
L 133.994543 108.621243 
L 134.801861 112.926772 
L 135.60918 135.01834 
L 136.416498 135.389454 
L 137.223816 117.890422 
L 138.031135 99.53405 
L 138.838453 101.781932 
L 139.645771 112.506921 
L 140.45309 103.980579 
L 141.260408 96.991765 
L 142.067727 105.333844 
L 142.875045 99.434015 
L 143.682363 100.646239 
L 144.489682 134.473778 
L 145.297 143.080819 
L 146.104318 135.653408 
L 146.911637 118.38255 
L 147.718955 107.778995 
L 148.526273 118.860938 
L 149.333592 104.77925 
L 150.14091 101.719005 
L 150.948228 107.328759 
L 151.755547 108.39505 
L 152.562865 112.105062 
L 153.370183 114.640399 
L 154.177502 136.277845 
L 154.98482 144.718589 
L 155.792138 125.881487 
L 156.599457 119.526817 
L 157.406775 95.835489 
L 158.214094 89.531538 
L 159.021412 103.59374 
L 159.82873 109.378504 
L 160.636049 91.521248 
L 161.443367 86.727723 
L 162.250685 109.645904 
L 163.058004 128.184541 
L 163.865322 143.054642 
L 164.67264 146.234432 
L 165.479959 141.077036 
L 166.287277 113.170544 
L 167.094595 103.738028 
L 167.901914 103.01643 
L 168.709232 99.531096 
L 169.51655 98.284093 
L 170.323869 89.661268 
L 171.131187 94.815486 
L 171.938505 101.741221 
L 172.745824 113.969968 
L 173.553142 132.128266 
L 174.360461 131.235308 
L 175.167779 125.671762 
L 175.975097 118.10586 
L 176.782416 107.778893 
L 177.589734 102.141626 
L 178.397052 109.490899 
L 179.204371 102.518251 
L 180.011689 96.078016 
L 180.819007 105.984124 
L 181.626326 109.416043 
L 182.433644 130.844015 
L 183.240962 127.582707 
L 184.048281 136.869261 
L 184.855599 122.163378 
L 185.662917 104.193702 
L 186.470236 85.152328 
L 187.277554 92.740348 
L 188.084872 98.820407 
L 188.892191 100.81862 
L 189.699509 99.068 
L 190.506827 102.648002 
L 191.314146 104.213334 
L 192.121464 113.035159 
L 192.928783 137.676026 
L 193.736101 148.909726 
L 194.543419 137.504877 
L 195.350738 115.141517 
L 196.158056 91.938745 
L 196.965374 74.792533 
L 197.772693 92.920625 
L 198.580011 94.030977 
L 199.387329 87.226768 
L 200.194648 94.220282 
L 201.001966 112.671784 
L 201.809284 104.665916 
L 202.616603 106.624738 
L 203.423921 136.174079 
L 204.231239 118.351429 
L 205.038558 91.316905 
L 205.845876 105.463069 
L 206.653194 111.465182 
L 207.460513 104.675282 
L 208.267831 95.418261 
L 209.07515 86.790688 
L 209.882468 95.925936 
L 210.689786 112.120762 
L 211.497105 118.768967 
L 212.304423 134.230451 
L 213.111741 130.407638 
L 213.91906 141.284815 
L 214.726378 117.594729 
L 215.533696 100.188501 
L 216.341015 101.07247 
L 217.148333 98.665329 
L 217.955651 115.393524 
L 218.76297 113.69582 
L 219.570288 108.83104 
L 220.377606 105.756351 
L 221.184925 121.910982 
L 221.992243 131.959987 
L 222.799561 134.850611 
L 223.60688 126.632597 
L 224.414198 112.25887 
L 225.221517 105.946733 
L 226.028835 93.378723 
L 226.836153 99.518748 
L 227.643472 94.793283 
L 228.45079 100.907537 
L 229.258108 96.542455 
L 230.065427 108.065428 
L 230.872745 123.254715 
L 231.680063 139.608593 
L 232.487382 133.568511 
L 233.2947 128.759123 
L 234.102018 105.373372 
L 234.909337 88.758786 
L 235.716655 93.50739 
L 236.523973 108.980465 
L 237.331292 84.198002 
L 238.13861 95.261886 
L 238.945928 112.760769 
L 239.753247 117.822751 
L 240.560565 118.573046 
L 241.367883 130.868486 
L 242.175202 144.146045 
L 242.98252 134.450644 
L 243.789839 109.966001 
L 244.597157 97.095746 
L 245.404475 99.412785 
L 246.211794 92.760701 
L 247.019112 99.528837 
L 247.82643 106.20052 
L 248.633749 117.487241 
L 249.441067 113.88282 
L 250.248385 125.780326 
L 251.055704 134.547042 
L 251.863022 145.079422 
L 252.67034 134.546732 
L 253.477659 108.094008 
L 254.284977 95.987339 
L 255.092295 71.928697 
L 255.899614 68.615144 
L 256.706932 97.378881 
L 257.51425 101.746509 
L 258.321569 106.808756 
L 259.128887 119.498632 
L 259.936206 124.656667 
L 260.743524 119.778064 
L 261.550842 137.923667 
L 262.358161 137.128626 
L 263.165479 116.190999 
L 263.972797 110.046075 
L 264.780116 99.087354 
L 265.587434 97.952856 
L 266.394752 120.20782 
L 267.202071 105.536919 
L 268.009389 112.962402 
L 268.816707 105.178743 
L 269.624026 92.272046 
L 270.431344 121.069311 
L 271.238662 131.498846 
L 272.045981 134.57788 
L 272.853299 107.522649 
L 273.660617 98.765579 
L 274.467936 112.743019 
L 275.275254 91.838447 
L 276.082572 98.994985 
L 276.889891 93.449553 
L 277.697209 99.746796 
L 278.504528 103.224928 
L 279.311846 116.952007 
L 280.119164 130.576662 
L 280.926483 152.830495 
L 281.733801 127.107772 
L 282.541119 118.271789 
L 283.348438 100.218048 
L 284.155756 92.216022 
L 284.963074 86.34556 
L 285.770393 100.081966 
L 286.577711 105.070068 
L 287.385029 113.128254 
L 288.192348 103.380269 
L 288.999666 111.684598 
L 289.806984 111.195633 
L 290.614303 105.165488 
L 291.421621 110.333555 
L 292.228939 106.585527 
L 293.036258 86.469315 
L 293.843576 88.885118 
L 294.650895 100.988225 
L 295.458213 106.279108 
L 296.265531 98.753684 
L 297.07285 93.015681 
L 297.880168 111.182016 
L 298.687486 128.600162 
L 299.494805 137.164205 
L 300.302123 131.874676 
L 301.109441 126.046472 
L 301.91676 115.225271 
L 302.724078 91.84671 
L 303.531396 84.756726 
L 304.338715 102.960912 
L 305.146033 113.948277 
L 305.953351 102.196281 
L 306.76067 96.778693 
L 307.567988 105.196056 
L 308.375306 124.86404 
L 309.182625 144.462153 
L 309.989943 150.48207 
L 310.797262 124.007029 
L 311.60458 108.245177 
L 312.411898 91.27431 
L 313.219217 89.949091 
L 314.026535 88.940383 
L 314.833853 91.245138 
L 315.641172 94.794808 
L 316.44849 94.63705 
L 317.255808 113.94456 
L 318.063127 116.979301 
L 318.870445 128.745109 
L 319.677763 149.894832 
L 320.485082 130.683915 
L 321.2924 108.480052 
L 322.099718 93.267128 
L 322.907037 102.567718 
L 323.714355 92.692423 
L 324.521673 94.17053 
L 325.328992 99.508735 
L 326.13631 90.326677 
L 326.943628 79.157516 
L 327.750947 91.564381 
L 328.558265 127.290104 
L 329.365584 140.229162 
L 330.172902 125.273743 
L 330.98022 114.484699 
L 331.787539 100.568963 
L 332.594857 94.212477 
L 333.402175 91.44823 
L 334.209494 95.225842 
L 335.016812 102.980417 
L 335.82413 123.656276 
L 336.631449 113.088389 
L 337.438767 103.287329 
L 338.246085 126.798574 
L 339.053404 145.767788 
L 339.860722 137.056483 
L 340.66804 122.505585 
L 341.475359 97.493417 
L 342.282677 91.739784 
L 343.089995 93.289164 
L 343.897314 105.170808 
L 344.704632 112.957126 
L 345.511951 111.315425 
L 346.319269 111.077393 
L 347.126587 126.135318 
L 347.933906 129.621349 
L 348.741224 132.174428 
L 349.548542 130.861636 
L 350.355861 114.875539 
L 351.163179 105.477649 
L 351.970497 97.196301 
L 352.777816 108.643567 
L 353.585134 107.564476 
L 354.392452 84.504523 
L 355.199771 77.948804 
L 356.007089 105.353395 
L 356.814407 119.455982 
L 357.621726 121.245516 
L 358.429044 135.500337 
L 359.236362 121.979654 
L 360.043681 99.091924 
L 360.850999 101.937729 
L 361.658318 100.088833 
L 362.465636 87.01544 
L 363.272954 86.933944 
L 364.080273 83.035541 
L 364.887591 103.626415 
L 365.694909 106.218578 
L 366.502228 121.339439 
L 367.309546 133.649201 
L 368.116864 147.335653 
L 368.924183 135.987461 
L 369.731501 119.902442 
L 370.538819 120.024758 
L 371.346138 117.369786 
L 372.153456 107.028974 
L 372.960774 100.385938 
L 373.768093 94.992277 
L 374.575411 92.592593 
L 375.382729 96.131431 
L 376.190048 100.418247 
L 376.997366 121.630531 
L 377.804684 140.755159 
L 378.612003 131.326701 
L 379.419321 113.229142 
L 380.22664 109.50107 
L 381.033958 103.068856 
L 381.841276 103.698164 
L 382.648595 89.447579 
L 383.455913 74.995313 
L 384.263231 96.036684 
L 385.07055 118.677878 
L 385.877868 119.255733 
L 386.685186 131.254157 
L 387.492505 120.677229 
L 388.299823 128.303238 
L 389.107141 107.249463 
L 389.91446 100.681203 
L 390.721778 93.996467 
L 391.529096 84.710376 
L 392.336415 103.811076 
L 393.143733 107.36172 
L 393.951051 104.025977 
L 394.75837 119.453772 
L 395.565688 133.389791 
L 396.373007 144.392338 
L 397.180325 144.198101 
L 397.987643 125.514918 
L 398.794962 102.473061 
L 399.60228 93.218957 
L 400.409598 100.420333 
L 401.216917 107.336483 
L 402.024235 109.46972 
L 402.831553 106.312875 
L 403.638872 95.558316 
L 404.44619 101.127936 
L 405.253508 127.935552 
L 406.060827 130.62381 
L 406.868145 142.696341 
L 407.675463 139.555224 
L 408.482782 116.684072 
L 409.2901 101.788246 
L 410.097418 84.178917 
L 410.904737 94.794134 
L 411.712055 107.7884 
L 412.519374 103.961442 
L 413.326692 101.758448 
L 414.13401 112.774198 
L 414.941329 120.120308 
L 415.748647 149.979979 
L 416.555965 146.212432 
L 417.363284 132.618923 
L 418.170602 109.177845 
L 418.97792 95.362144 
L 419.785239 89.728843 
L 420.592557 98.346235 
L 421.399875 114.745476 
L 422.207194 97.688003 
L 423.014512 96.773136 
L 423.82183 109.357443 
L 424.629149 124.300762 
L 425.436467 121.933682 
L 426.243785 129.19452 
L 427.051104 125.744782 
L 427.858422 110.012812 
L 428.66574 104.185849 
L 429.473059 88.412646 
L 430.280377 72.608532 
L 431.087696 87.99914 
L 431.895014 97.642432 
L 432.702332 97.449086 
L 433.509651 89.680681 
L 434.316969 103.015403 
L 435.124287 135.899901 
L 435.931606 146.123975 
L 436.738924 130.975878 
L 437.546242 106.027431 
L 438.353561 102.213468 
L 439.160879 92.680542 
L 439.968197 92.922044 
L 440.775516 108.226371 
L 441.582834 98.620156 
L 442.390152 100.986554 
L 443.197471 110.970811 
L 444.004789 118.618329 
L 444.812107 123.731821 
L 445.619426 151.101771 
L 446.426744 134.362189 
L 447.234063 104.433828 
L 448.041381 96.916585 
L 448.848699 103.187717 
L 449.656018 105.251467 
L 450.463336 101.950825 
L 451.270654 100.813751 
L 452.077973 111.576738 
L 452.885291 101.237951 
L 453.692609 103.604008 
L 454.499928 133.550188 
L 455.307246 144.924856 
L 456.114564 132.188758 
L 456.921883 110.622995 
L 457.729201 104.187547 
L 458.536519 105.847852 
L 459.343838 103.161158 
L 460.151156 84.269766 
L 460.958474 82.379967 
L 461.765793 95.580704 
L 462.573111 107.168847 
L 463.38043 119.658384 
L 464.187748 142.49023 
L 464.995066 148.929595 
L 465.802385 130.719383 
L 466.609703 101.801162 
L 467.417021 88.078504 
L 468.22434 84.56039 
L 469.031658 79.071809 
L 469.838976 80.076997 
L 470.646295 94.117619 
L 471.453613 116.864209 
L 472.260931 107.925539 
L 473.06825 113.587202 
L 473.875568 123.628532 
L 474.682886 130.997273 
L 475.490205 127.474129 
L 476.297523 115.711543 
L 477.104841 96.457568 
L 477.91216 100.907726 
L 478.719478 92.512845 
L 479.526796 99.548963 
L 480.334115 99.768304 
L 481.141433 104.712135 
L 481.948752 98.793871 
L 482.75607 96.81072 
L 483.563388 111.477221 
L 484.370707 104.632123 
L 484.370707 102.09806 
L 484.370707 102.09806 
L 483.563388 99.489649 
L 482.75607 84.796658 
L 481.948752 85.512238 
L 481.141433 96.00281 
L 480.334115 90.439778 
L 479.526796 90.078332 
L 478.719478 83.143601 
L 477.91216 91.379187 
L 477.104841 87.149859 
L 476.297523 106.398158 
L 475.490205 120.743829 
L 474.682886 124.270959 
L 473.875568 116.804764 
L 473.06825 105.986071 
L 472.260931 99.233371 
L 471.453613 108.66873 
L 470.646295 85.555025 
L 469.838976 68.755238 
L 469.031658 68.05128 
L 468.22434 73.796271 
L 467.417021 77.410884 
L 466.609703 91.521004 
L 465.802385 123.065824 
L 464.995066 143.703081 
L 464.187748 137.528191 
L 463.38043 113.077552 
L 462.573111 98.86871 
L 461.765793 86.134158 
L 460.958474 71.640579 
L 460.151156 73.680341 
L 459.343838 93.261506 
L 458.536519 97.318808 
L 457.729201 95.385777 
L 456.921883 101.310244 
L 456.114564 124.681207 
L 455.307246 139.549364 
L 454.499928 127.999764 
L 453.692609 95.562771 
L 452.885291 91.731379 
L 452.077973 103.441759 
L 451.270654 92.618992 
L 450.463336 92.566386 
L 449.656018 96.66352 
L 448.848699 94.132438 
L 448.041381 87.42098 
L 447.234063 94.429293 
L 446.426744 127.084115 
L 445.619426 146.362094 
L 444.812107 117.927315 
L 444.004789 110.272522 
L 443.197471 103.528616 
L 442.390152 91.907426 
L 441.582834 89.322233 
L 440.775516 99.587502 
L 439.968197 83.786465 
L 439.160879 82.265807 
L 438.353561 93.263255 
L 437.546242 96.373613 
L 436.738924 123.062075 
L 435.931606 140.493105 
L 435.124287 130.689824 
L 434.316969 95.443642 
L 433.509651 79.63823 
L 432.702332 87.803241 
L 431.895014 88.43493 
L 431.087696 77.73537 
L 430.280377 61.60507 
L 429.473059 76.502594 
L 428.66574 95.315285 
L 427.858422 101.256439 
L 427.051104 118.257665 
L 426.243785 122.571298 
L 425.436467 114.499708 
L 424.629149 117.084891 
L 423.82183 101.823751 
L 423.014512 87.174846 
L 422.207194 87.998482 
L 421.399875 105.892237 
L 420.592557 89.857834 
L 419.785239 78.651671 
L 418.97792 85.536465 
L 418.170602 99.59429 
L 417.363284 125.787917 
L 416.555965 140.380977 
L 415.748647 145.397849 
L 414.941329 113.956707 
L 414.13401 104.364258 
L 413.326692 93.499391 
L 412.519374 95.237785 
L 411.712055 99.320068 
L 410.904737 85.629902 
L 410.097418 73.456996 
L 409.2901 91.790435 
L 408.482782 108.235816 
L 407.675463 132.861559 
L 406.868145 137.109255 
L 406.060827 124.65125 
L 405.253508 121.107143 
L 404.44619 92.972274 
L 403.638872 85.244795 
L 402.831553 97.692787 
L 402.024235 101.267317 
L 401.216917 98.669431 
L 400.409598 91.405202 
L 399.60228 83.652392 
L 398.794962 92.750137 
L 397.987643 117.703491 
L 397.180325 137.93083 
L 396.373007 139.564391 
L 395.565688 127.813732 
L 394.75837 112.731163 
L 393.951051 95.925366 
L 393.143733 98.813495 
L 392.336415 95.378435 
L 391.529096 74.358622 
L 390.721778 83.138364 
L 389.91446 91.619598 
L 389.107141 97.910698 
L 388.299823 120.728808 
L 387.492505 113.669045 
L 386.685186 123.66222 
L 385.877868 112.901992 
L 385.07055 110.931309 
L 384.263231 87.427586 
L 383.455913 63.588771 
L 382.648595 78.358316 
L 381.841276 95.036477 
L 381.033958 93.811244 
L 380.22664 100.507236 
L 379.419321 104.741093 
L 378.612003 124.205046 
L 377.804684 134.855588 
L 376.997366 115.299855 
L 376.190048 91.88074 
L 375.382729 86.580729 
L 374.575411 82.810293 
L 373.768093 85.41858 
L 372.960774 91.030398 
L 372.153456 98.65686 
L 371.346138 109.363729 
L 370.538819 112.432437 
L 369.731501 112.013025 
L 368.924183 129.079843 
L 368.116864 142.083165 
L 367.309546 128.348478 
L 366.502228 114.635049 
L 365.694909 98.359726 
L 364.887591 94.579031 
L 364.080273 72.625827 
L 363.272954 75.510791 
L 362.465636 76.496772 
L 361.658318 89.869904 
L 360.850999 93.317931 
L 360.043681 88.626139 
L 359.236362 113.46733 
L 358.429044 128.846847 
L 357.621726 114.244359 
L 356.814407 111.861162 
L 356.007089 97.956383 
L 355.199771 67.186416 
L 354.392452 73.859785 
L 353.585134 98.082394 
L 352.777816 101.260751 
L 351.970497 87.943852 
L 351.163179 96.236516 
L 350.355861 106.944891 
L 349.548542 123.826444 
L 348.741224 126.269818 
L 347.933906 122.985073 
L 347.126587 119.71588 
L 346.319269 103.419665 
L 345.511951 103.164159 
L 344.704632 105.094633 
L 343.897314 96.635127 
L 343.089995 83.596311 
L 342.282677 81.651074 
L 341.475359 87.792587 
L 340.66804 113.818977 
L 339.860722 131.204927 
L 339.053404 140.919415 
L 338.246085 120.922382 
L 337.438767 94.777521 
L 336.631449 104.122314 
L 335.82413 116.693563 
L 335.016812 95.156398 
L 334.209494 85.266076 
L 333.402175 81.928057 
L 332.594857 84.014421 
L 331.787539 91.096113 
L 330.98022 105.727232 
L 330.172902 118.015369 
L 329.365584 134.213694 
L 328.558265 120.906608 
L 327.750947 82.649237 
L 326.943628 67.652604 
L 326.13631 79.778568 
L 325.328992 89.773097 
L 324.521673 84.374456 
L 323.714355 82.297791 
L 322.907037 92.946921 
L 322.099718 83.692255 
L 321.2924 99.210674 
L 320.485082 123.201286 
L 319.677763 144.732678 
L 318.870445 123.131567 
L 318.063127 109.742781 
L 317.255808 106.616828 
L 316.44849 85.48709 
L 315.641172 84.91298 
L 314.833853 81.531212 
L 314.026535 78.471328 
L 313.219217 79.810261 
L 312.411898 80.876734 
L 311.60458 98.483159 
L 310.797262 116.051638 
L 309.989943 145.196803 
L 309.182625 139.95139 
L 308.375306 118.786717 
L 307.567988 96.856769 
L 306.76067 87.570969 
L 305.953351 92.755833 
L 305.146033 105.682354 
L 304.338715 95.053094 
L 303.531396 74.719155 
L 302.724078 80.970559 
L 301.91676 106.459666 
L 301.109441 118.56657 
L 300.302123 125.714149 
L 299.494805 131.15757 
L 298.687486 122.499629 
L 297.880168 103.394442 
L 297.07285 83.923917 
L 296.265531 88.68055 
L 295.458213 97.505696 
L 294.650895 91.776071 
L 293.843576 78.876056 
L 293.036258 75.726094 
L 292.228939 96.185125 
L 291.421621 101.721697 
L 290.614303 96.798877 
L 289.806984 102.087544 
L 288.999666 104.154541 
L 288.192348 94.867929 
L 287.385029 105.010034 
L 286.577711 96.817307 
L 285.770393 90.893391 
L 284.963074 76.288564 
L 284.155756 81.762597 
L 283.348438 90.58746 
L 282.541119 109.335921 
L 281.733801 120.102633 
L 280.926483 147.696773 
L 280.119164 125.296859 
L 279.311846 109.380055 
L 278.504528 94.887539 
L 277.697209 90.105346 
L 276.889891 84.028584 
L 276.082572 89.222615 
L 275.275254 82.703719 
L 274.467936 103.583056 
L 273.660617 90.421171 
L 272.853299 97.674344 
L 272.045981 127.722743 
L 271.238662 125.712085 
L 270.431344 114.072827 
L 269.624026 83.597689 
L 268.816707 94.783248 
L 268.009389 105.39528 
L 267.202071 96.753992 
L 266.394752 112.385222 
L 265.587434 89.512945 
L 264.780116 89.122 
L 263.972797 101.822052 
L 263.165479 107.947633 
L 262.358161 130.69118 
L 261.550842 132.3196 
L 260.743524 112.696277 
L 259.936206 117.058255 
L 259.128887 112.827639 
L 258.321569 98.59935 
L 257.51425 92.564725 
L 256.706932 88.545535 
L 255.899614 57.240528 
L 255.092295 58.987565 
L 254.284977 85.778017 
L 253.477659 99.131628 
L 252.67034 127.55097 
L 251.863022 140.07844 
L 251.055704 128.542631 
L 250.248385 119.46827 
L 249.441067 106.314714 
L 248.633749 109.63328 
L 247.82643 98.118799 
L 247.019112 90.094396 
L 246.211794 83.36003 
L 245.404475 89.704487 
L 244.597157 88.079429 
L 243.789839 100.135864 
L 242.98252 127.608777 
L 242.175202 138.596781 
L 241.367883 125.154959 
L 240.560565 111.706447 
L 239.753247 110.281092 
L 238.945928 105.283899 
L 238.13861 85.953753 
L 237.331292 73.600673 
L 236.523973 99.523195 
L 235.716655 84.409354 
L 234.909337 78.088332 
L 234.102018 95.661973 
L 233.2947 121.439085 
L 232.487382 127.679418 
L 231.680063 134.0829 
L 230.872745 117.392434 
L 230.065427 99.788086 
L 229.258108 87.15954 
L 228.45079 91.476177 
L 227.643472 85.100202 
L 226.836153 89.289264 
L 226.028835 83.787446 
L 225.221517 96.050721 
L 224.414198 103.902177 
L 223.60688 119.022616 
L 222.799561 129.090367 
L 221.992243 125.850649 
L 221.184925 115.353052 
L 220.377606 97.582922 
L 219.570288 100.145092 
L 218.76297 106.027188 
L 217.955651 107.526521 
L 217.148333 90.078828 
L 216.341015 91.052446 
L 215.533696 91.302998 
L 214.726378 108.457449 
L 213.91906 135.769829 
L 213.111741 124.154002 
L 212.304423 127.821043 
L 211.497105 112.539803 
L 210.689786 103.898494 
L 209.882468 87.049595 
L 209.07515 76.659579 
L 208.267831 85.114645 
L 207.460513 95.551058 
L 206.653194 102.969125 
L 205.845876 96.993968 
L 205.038558 81.076623 
L 204.231239 109.39087 
L 203.423921 130.014099 
L 202.616603 99.112708 
L 201.809284 94.95385 
L 201.001966 104.762598 
L 200.194648 85.259041 
L 199.387329 76.250522 
L 198.580011 83.900381 
L 197.772693 82.521616 
L 196.965374 63.552483 
L 196.158056 80.100192 
L 195.350738 106.647296 
L 194.543419 131.235607 
L 193.736101 143.629191 
L 192.928783 132.614481 
L 192.121464 105.803607 
L 191.314146 95.504707 
L 190.506827 93.616521 
L 189.699509 89.704302 
L 188.892191 91.304286 
L 188.084872 89.536004 
L 187.277554 82.646804 
L 186.470236 73.590718 
L 185.662917 93.837623 
L 184.855599 114.274246 
L 184.048281 130.539082 
L 183.240962 121.210663 
L 182.433644 124.249815 
L 181.626326 102.170784 
L 180.819007 96.290496 
L 180.011689 86.967728 
L 179.204371 92.736731 
L 178.397052 101.452388 
L 177.589734 92.572571 
L 176.782416 98.720711 
L 175.975097 110.435238 
L 175.167779 118.432352 
L 174.360461 123.979635 
L 173.553142 125.793304 
L 172.745824 107.261962 
L 171.938505 93.506999 
L 171.131187 84.839456 
L 170.323869 80.193967 
L 169.51655 88.032341 
L 168.709232 90.815186 
L 167.901914 93.814253 
L 167.094595 94.731625 
L 166.287277 104.320242 
L 165.479959 135.062451 
L 164.67264 141.611893 
L 163.865322 138.122261 
L 163.058004 122.250214 
L 162.250685 102.078316 
L 161.443367 76.897362 
L 160.636049 81.097223 
L 159.82873 100.136738 
L 159.021412 95.116631 
L 158.214094 79.260232 
L 157.406775 85.073279 
L 156.599457 110.749861 
L 155.792138 118.547858 
L 154.98482 138.778262 
L 154.177502 131.375163 
L 153.370183 107.452834 
L 152.562865 103.652334 
L 151.755547 100.209172 
L 150.948228 98.497003 
L 150.14091 92.784952 
L 149.333592 94.76438 
L 148.526273 110.606038 
L 147.718955 99.888617 
L 146.911637 109.906207 
L 146.104318 128.663032 
L 145.297 137.810883 
L 144.489682 129.127287 
L 143.682363 92.481779 
L 142.875045 89.141997 
L 142.067727 96.690117 
L 141.260408 87.448125 
L 140.45309 94.164842 
L 139.645771 104.039657 
L 138.838453 92.949362 
L 138.031135 89.668422 
L 137.223816 109.353797 
L 136.416498 128.107611 
L 135.60918 129.14864 
L 134.801861 105.541225 
L 133.994543 100.058446 
L 133.187225 97.590074 
L 132.379906 92.557461 
L 131.572588 74.979326 
L 130.76527 68.305267 
L 129.957951 82.648629 
L 129.150633 88.459226 
L 128.343315 88.562905 
L 127.535996 116.745176 
L 126.728678 129.282873 
L 125.92136 127.782306 
L 125.114041 126.389453 
L 124.306723 100.336163 
L 123.499405 90.833622 
L 122.692086 87.218841 
L 121.884768 88.415589 
L 121.077449 98.917527 
L 120.270131 81.51609 
L 119.462813 72.914153 
L 118.655494 63.765333 
L 117.848176 97.099481 
L 117.040858 124.229925 
L 116.233539 129.954519 
L 115.426221 127.411232 
L 114.618903 118.965106 
L 113.811584 87.227722 
L 113.004266 83.499205 
L 112.196948 104.297514 
L 111.389629 95.340689 
L 110.582311 81.483975 
L 109.774993 78.931898 
L 108.967674 90.691773 
L 108.160356 111.878527 
L 107.353038 128.399984 
L 106.545719 137.524588 
L 105.738401 129.750491 
L 104.931082 104.798743 
L 104.123764 89.477703 
L 103.316446 98.937995 
L 102.509127 90.117909 
L 101.701809 56.013113 
L 100.894491 50.838068 
L 100.087172 77.222039 
L 99.279854 91.665302 
L 98.472536 117.855561 
L 97.665217 130.94336 
L 96.857899 126.156787 
L 96.050581 115.091531 
L 95.243262 111.27125 
L 94.435944 100.447251 
L 93.628626 90.096979 
L 92.821307 71.63457 
L 92.013989 52.493757 
L 91.206671 60.752299 
L 90.399352 78.69617 
L 89.592034 88.047802 
L 88.784715 104.904875 
L 87.977397 120.584889 
L 87.170079 132.022633 
L 86.36276 132.332106 
L 85.555442 113.39591 
L 84.748124 99.859781 
L 83.940805 102.797608 
L 83.133487 77.824423 
L 82.326169 85.399207 
L 81.51885 70.119165 
L 80.711532 76.88868 
L 79.904214 74.925601 
L 79.096895 87.377329 
L 78.289577 117.900462 
L 77.482259 131.35926 
L 76.67494 123.299677 
L 75.867622 95.153517 
L 75.060304 95.814947 
L 74.252985 90.136804 
L 73.445667 83.249503 
L 72.638349 89.125781 
L 71.83103 85.765075 
L 71.023712 79.793605 
L 70.216393 78.779596 
L 69.409075 88.33039 
L 68.601757 127.333995 
L 67.794438 123.008379 
z
" clip-path="url(#p608d11187e)" style="fill-opacity: 0.25"/>
   </g>
   <g id="matplotlib.axis_1">
    <g id="xtick_1">
     <g id="line2d_1">
      <defs>
       <path id="mf0f7b8945a" d="M 0 0 
L 0 3.5 
" style="stroke: #000000; stroke-width: 0.8"/>
      </defs>
      <g>
       <use xlink:href="#mf0f7b8945a" x="77.482259" y="186.84327" style="stroke: #000000; stroke-width: 0.8"/>
      </g>
     </g>
     <g id="text_1">
      <!-- 1980 -->
      <g transform="translate(64.757259 201.441708) scale(0.1 -0.1)">
       <defs>
        <path id="DejaVuSans-31" d="M 794 531 
L 1825 531 
L 1825 4091 
L 703 3866 
L 703 4441 
L 1819 4666 
L 2450 4666 
L 2450 531 
L 3481 531 
L 3481 0 
L 794 0 
L 794 531 
z
" transform="scale(0.015625)"/>
        <path id="DejaVuSans-39" d="M 703 97 
L 703 672 
Q 941 559 1184 500 
Q 1428 441 1663 441 
Q 2288 441 2617 861 
Q 2947 1281 2994 2138 
Q 2813 1869 2534 1725 
Q 2256 1581 1919 1581 
Q 1219 1581 811 2004 
Q 403 2428 403 3163 
Q 403 3881 828 4315 
Q 1253 4750 1959 4750 
Q 2769 4750 3195 4129 
Q 3622 3509 3622 2328 
Q 3622 1225 3098 567 
Q 2575 -91 1691 -91 
Q 1453 -91 1209 -44 
Q 966 3 703 97 
z
M 1959 2075 
Q 2384 2075 2632 2365 
Q 2881 2656 2881 3163 
Q 2881 3666 2632 3958 
Q 2384 4250 1959 4250 
Q 1534 4250 1286 3958 
Q 1038 3666 1038 3163 
Q 1038 2656 1286 2365 
Q 1534 2075 1959 2075 
z
" transform="scale(0.015625)"/>
        <path id="DejaVuSans-38" d="M 2034 2216 
Q 1584 2216 1326 1975 
Q 1069 1734 1069 1313 
Q 1069 891 1326 650 
Q 1584 409 2034 409 
Q 2484 409 2743 651 
Q 3003 894 3003 1313 
Q 3003 1734 2745 1975 
Q 2488 2216 2034 2216 
z
M 1403 2484 
Q 997 2584 770 2862 
Q 544 3141 544 3541 
Q 544 4100 942 4425 
Q 1341 4750 2034 4750 
Q 2731 4750 3128 4425 
Q 3525 4100 3525 3541 
Q 3525 3141 3298 2862 
Q 3072 2584 2669 2484 
Q 3125 2378 3379 2068 
Q 3634 1759 3634 1313 
Q 3634 634 3220 271 
Q 2806 -91 2034 -91 
Q 1263 -91 848 271 
Q 434 634 434 1313 
Q 434 1759 690 2068 
Q 947 2378 1403 2484 
z
M 1172 3481 
Q 1172 3119 1398 2916 
Q 1625 2713 2034 2713 
Q 2441 2713 2670 2916 
Q 2900 3119 2900 3481 
Q 2900 3844 2670 4047 
Q 2441 4250 2034 4250 
Q 1625 4250 1398 4047 
Q 1172 3844 1172 3481 
z
" transform="scale(0.015625)"/>
        <path id="DejaVuSans-30" d="M 2034 4250 
Q 1547 4250 1301 3770 
Q 1056 3291 1056 2328 
Q 1056 1369 1301 889 
Q 1547 409 2034 409 
Q 2525 409 2770 889 
Q 3016 1369 3016 2328 
Q 3016 3291 2770 3770 
Q 2525 4250 2034 4250 
z
M 2034 4750 
Q 2819 4750 3233 4129 
Q 3647 3509 3647 2328 
Q 3647 1150 3233 529 
Q 2819 -91 2034 -91 
Q 1250 -91 836 529 
Q 422 1150 422 2328 
Q 422 3509 836 4129 
Q 1250 4750 2034 4750 
z
" transform="scale(0.015625)"/>
       </defs>
       <use xlink:href="#DejaVuSans-31"/>
       <use xlink:href="#DejaVuSans-39" x="63.623047"/>
       <use xlink:href="#DejaVuSans-38" x="127.246094"/>
       <use xlink:href="#DejaVuSans-30" x="190.869141"/>
      </g>
     </g>
    </g>
    <g id="xtick_2">
     <g id="line2d_2">
      <g>
       <use xlink:href="#mf0f7b8945a" x="174.360461" y="186.84327" style="stroke: #000000; stroke-width: 0.8"/>
      </g>
     </g>
     <g id="text_2">
      <!-- 1990 -->
      <g transform="translate(161.635461 201.441708) scale(0.1 -0.1)">
       <use xlink:href="#DejaVuSans-31"/>
       <use xlink:href="#DejaVuSans-39" x="63.623047"/>
       <use xlink:href="#DejaVuSans-39" x="127.246094"/>
       <use xlink:href="#DejaVuSans-30" x="190.869141"/>
      </g>
     </g>
    </g>
    <g id="xtick_3">
     <g id="line2d_3">
      <g>
       <use xlink:href="#mf0f7b8945a" x="271.238662" y="186.84327" style="stroke: #000000; stroke-width: 0.8"/>
      </g>
     </g>
     <g id="text_3">
      <!-- 2000 -->
      <g transform="translate(258.513662 201.441708) scale(0.1 -0.1)">
       <defs>
        <path id="DejaVuSans-32" d="M 1228 531 
L 3431 531 
L 3431 0 
L 469 0 
L 469 531 
Q 828 903 1448 1529 
Q 2069 2156 2228 2338 
Q 2531 2678 2651 2914 
Q 2772 3150 2772 3378 
Q 2772 3750 2511 3984 
Q 2250 4219 1831 4219 
Q 1534 4219 1204 4116 
Q 875 4013 500 3803 
L 500 4441 
Q 881 4594 1212 4672 
Q 1544 4750 1819 4750 
Q 2544 4750 2975 4387 
Q 3406 4025 3406 3419 
Q 3406 3131 3298 2873 
Q 3191 2616 2906 2266 
Q 2828 2175 2409 1742 
Q 1991 1309 1228 531 
z
" transform="scale(0.015625)"/>
       </defs>
       <use xlink:href="#DejaVuSans-32"/>
       <use xlink:href="#DejaVuSans-30" x="63.623047"/>
       <use xlink:href="#DejaVuSans-30" x="127.246094"/>
       <use xlink:href="#DejaVuSans-30" x="190.869141"/>
      </g>
     </g>
    </g>
    <g id="xtick_4">
     <g id="line2d_4">
      <g>
       <use xlink:href="#mf0f7b8945a" x="368.116864" y="186.84327" style="stroke: #000000; stroke-width: 0.8"/>
      </g>
     </g>
     <g id="text_4">
      <!-- 2010 -->
      <g transform="translate(355.391864 201.441708) scale(0.1 -0.1)">
       <use xlink:href="#DejaVuSans-32"/>
       <use xlink:href="#DejaVuSans-30" x="63.623047"/>
       <use xlink:href="#DejaVuSans-31" x="127.246094"/>
       <use xlink:href="#DejaVuSans-30" x="190.869141"/>
      </g>
     </g>
    </g>
    <g id="xtick_5">
     <g id="line2d_5">
      <g>
       <use xlink:href="#mf0f7b8945a" x="464.995066" y="186.84327" style="stroke: #000000; stroke-width: 0.8"/>
      </g>
     </g>
     <g id="text_5">
      <!-- 2020 -->
      <g transform="translate(452.270066 201.441708) scale(0.1 -0.1)">
       <use xlink:href="#DejaVuSans-32"/>
       <use xlink:href="#DejaVuSans-30" x="63.623047"/>
       <use xlink:href="#DejaVuSans-32" x="127.246094"/>
       <use xlink:href="#DejaVuSans-30" x="190.869141"/>
      </g>
     </g>
    </g>
    <g id="text_6">
     <!-- Year -->
     <g transform="translate(265.495073 215.119833) scale(0.1 -0.1)">
      <defs>
       <path id="DejaVuSans-59" d="M -13 4666 
L 666 4666 
L 1959 2747 
L 3244 4666 
L 3922 4666 
L 2272 2222 
L 2272 0 
L 1638 0 
L 1638 2222 
L -13 4666 
z
" transform="scale(0.015625)"/>
       <path id="DejaVuSans-65" d="M 3597 1894 
L 3597 1613 
L 953 1613 
Q 991 1019 1311 708 
Q 1631 397 2203 397 
Q 2534 397 2845 478 
Q 3156 559 3463 722 
L 3463 178 
Q 3153 47 2828 -22 
Q 2503 -91 2169 -91 
Q 1331 -91 842 396 
Q 353 884 353 1716 
Q 353 2575 817 3079 
Q 1281 3584 2069 3584 
Q 2775 3584 3186 3129 
Q 3597 2675 3597 1894 
z
M 3022 2063 
Q 3016 2534 2758 2815 
Q 2500 3097 2075 3097 
Q 1594 3097 1305 2825 
Q 1016 2553 972 2059 
L 3022 2063 
z
" transform="scale(0.015625)"/>
       <path id="DejaVuSans-61" d="M 2194 1759 
Q 1497 1759 1228 1600 
Q 959 1441 959 1056 
Q 959 750 1161 570 
Q 1363 391 1709 391 
Q 2188 391 2477 730 
Q 2766 1069 2766 1631 
L 2766 1759 
L 2194 1759 
z
M 3341 1997 
L 3341 0 
L 2766 0 
L 2766 531 
Q 2569 213 2275 61 
Q 1981 -91 1556 -91 
Q 1019 -91 701 211 
Q 384 513 384 1019 
Q 384 1609 779 1909 
Q 1175 2209 1959 2209 
L 2766 2209 
L 2766 2266 
Q 2766 2663 2505 2880 
Q 2244 3097 1772 3097 
Q 1472 3097 1187 3025 
Q 903 2953 641 2809 
L 641 3341 
Q 956 3463 1253 3523 
Q 1550 3584 1831 3584 
Q 2591 3584 2966 3190 
Q 3341 2797 3341 1997 
z
" transform="scale(0.015625)"/>
       <path id="DejaVuSans-72" d="M 2631 2963 
Q 2534 3019 2420 3045 
Q 2306 3072 2169 3072 
Q 1681 3072 1420 2755 
Q 1159 2438 1159 1844 
L 1159 0 
L 581 0 
L 581 3500 
L 1159 3500 
L 1159 2956 
Q 1341 3275 1631 3429 
Q 1922 3584 2338 3584 
Q 2397 3584 2469 3576 
Q 2541 3569 2628 3553 
L 2631 2963 
z
" transform="scale(0.015625)"/>
      </defs>
      <use xlink:href="#DejaVuSans-59"/>
      <use xlink:href="#DejaVuSans-65" x="47.833984"/>
      <use xlink:href="#DejaVuSans-61" x="109.357422"/>
      <use xlink:href="#DejaVuSans-72" x="170.636719"/>
     </g>
    </g>
   </g>
   <g id="matplotlib.axis_2">
    <g id="ytick_1">
     <g id="line2d_6">
      <defs>
       <path id="m56194b74f5" d="M 0 0 
L -3.5 0 
" style="stroke: #000000; stroke-width: 0.8"/>
      </defs>
      <g>
       <use xlink:href="#m56194b74f5" x="46.965625" y="186.84327" style="stroke: #000000; stroke-width: 0.8"/>
      </g>
     </g>
     <g id="text_7">
      <!-- 0 -->
      <g transform="translate(33.603125 190.642489) scale(0.1 -0.1)">
       <use xlink:href="#DejaVuSans-30"/>
      </g>
     </g>
    </g>
    <g id="ytick_2">
     <g id="line2d_7">
      <g>
       <use xlink:href="#m56194b74f5" x="46.965625" y="163.339678" style="stroke: #000000; stroke-width: 0.8"/>
      </g>
     </g>
     <g id="text_8">
      <!-- 50 -->
      <g transform="translate(27.240625 167.138897) scale(0.1 -0.1)">
       <defs>
        <path id="DejaVuSans-35" d="M 691 4666 
L 3169 4666 
L 3169 4134 
L 1269 4134 
L 1269 2991 
Q 1406 3038 1543 3061 
Q 1681 3084 1819 3084 
Q 2600 3084 3056 2656 
Q 3513 2228 3513 1497 
Q 3513 744 3044 326 
Q 2575 -91 1722 -91 
Q 1428 -91 1123 -41 
Q 819 9 494 109 
L 494 744 
Q 775 591 1075 516 
Q 1375 441 1709 441 
Q 2250 441 2565 725 
Q 2881 1009 2881 1497 
Q 2881 1984 2565 2268 
Q 2250 2553 1709 2553 
Q 1456 2553 1204 2497 
Q 953 2441 691 2322 
L 691 4666 
z
" transform="scale(0.015625)"/>
       </defs>
       <use xlink:href="#DejaVuSans-35"/>
       <use xlink:href="#DejaVuSans-30" x="63.623047"/>
      </g>
     </g>
    </g>
    <g id="ytick_3">
     <g id="line2d_8">
      <g>
       <use xlink:href="#m56194b74f5" x="46.965625" y="139.836086" style="stroke: #000000; stroke-width: 0.8"/>
      </g>
     </g>
     <g id="text_9">
      <!-- 100 -->
      <g transform="translate(20.878125 143.635304) scale(0.1 -0.1)">
       <use xlink:href="#DejaVuSans-31"/>
       <use xlink:href="#DejaVuSans-30" x="63.623047"/>
       <use xlink:href="#DejaVuSans-30" x="127.246094"/>
      </g>
     </g>
    </g>
    <g id="ytick_4">
     <g id="line2d_9">
      <g>
       <use xlink:href="#m56194b74f5" x="46.965625" y="116.332494" style="stroke: #000000; stroke-width: 0.8"/>
      </g>
     </g>
     <g id="text_10">
      <!-- 150 -->
      <g transform="translate(20.878125 120.131712) scale(0.1 -0.1)">
       <use xlink:href="#DejaVuSans-31"/>
       <use xlink:href="#DejaVuSans-35" x="63.623047"/>
       <use xlink:href="#DejaVuSans-30" x="127.246094"/>
      </g>
     </g>
    </g>
    <g id="ytick_5">
     <g id="line2d_10">
      <g>
       <use xlink:href="#m56194b74f5" x="46.965625" y="92.828901" style="stroke: #000000; stroke-width: 0.8"/>
      </g>
     </g>
     <g id="text_11">
      <!-- 200 -->
      <g transform="translate(20.878125 96.62812) scale(0.1 -0.1)">
       <use xlink:href="#DejaVuSans-32"/>
       <use xlink:href="#DejaVuSans-30" x="63.623047"/>
       <use xlink:href="#DejaVuSans-30" x="127.246094"/>
      </g>
     </g>
    </g>
    <g id="ytick_6">
     <g id="line2d_11">
      <g>
       <use xlink:href="#m56194b74f5" x="46.965625" y="69.325309" style="stroke: #000000; stroke-width: 0.8"/>
      </g>
     </g>
     <g id="text_12">
      <!-- 250 -->
      <g transform="translate(20.878125 73.124528) scale(0.1 -0.1)">
       <use xlink:href="#DejaVuSans-32"/>
       <use xlink:href="#DejaVuSans-35" x="63.623047"/>
       <use xlink:href="#DejaVuSans-30" x="127.246094"/>
      </g>
     </g>
    </g>
    <g id="ytick_7">
     <g id="line2d_12">
      <g>
       <use xlink:href="#m56194b74f5" x="46.965625" y="45.821717" style="stroke: #000000; stroke-width: 0.8"/>
      </g>
     </g>
     <g id="text_13">
      <!-- 300 -->
      <g transform="translate(20.878125 49.620936) scale(0.1 -0.1)">
       <defs>
        <path id="DejaVuSans-33" d="M 2597 2516 
Q 3050 2419 3304 2112 
Q 3559 1806 3559 1356 
Q 3559 666 3084 287 
Q 2609 -91 1734 -91 
Q 1441 -91 1130 -33 
Q 819 25 488 141 
L 488 750 
Q 750 597 1062 519 
Q 1375 441 1716 441 
Q 2309 441 2620 675 
Q 2931 909 2931 1356 
Q 2931 1769 2642 2001 
Q 2353 2234 1838 2234 
L 1294 2234 
L 1294 2753 
L 1863 2753 
Q 2328 2753 2575 2939 
Q 2822 3125 2822 3475 
Q 2822 3834 2567 4026 
Q 2313 4219 1838 4219 
Q 1578 4219 1281 4162 
Q 984 4106 628 3988 
L 628 4550 
Q 988 4650 1302 4700 
Q 1616 4750 1894 4750 
Q 2613 4750 3031 4423 
Q 3450 4097 3450 3541 
Q 3450 3153 3228 2886 
Q 3006 2619 2597 2516 
z
" transform="scale(0.015625)"/>
       </defs>
       <use xlink:href="#DejaVuSans-33"/>
       <use xlink:href="#DejaVuSans-30" x="63.623047"/>
       <use xlink:href="#DejaVuSans-30" x="127.246094"/>
      </g>
     </g>
    </g>
    <g id="ytick_8">
     <g id="line2d_13">
      <g>
       <use xlink:href="#m56194b74f5" x="46.965625" y="22.318125" style="stroke: #000000; stroke-width: 0.8"/>
      </g>
     </g>
     <g id="text_14">
      <!-- 350 -->
      <g transform="translate(20.878125 26.117344) scale(0.1 -0.1)">
       <use xlink:href="#DejaVuSans-33"/>
       <use xlink:href="#DejaVuSans-35" x="63.623047"/>
       <use xlink:href="#DejaVuSans-30" x="127.246094"/>
      </g>
     </g>
    </g>
    <g id="text_15">
     <!-- Surface Mass Balance [Gt/month] -->
     <g transform="translate(14.798438 188.573666) rotate(-90) scale(0.1 -0.1)">
      <defs>
       <path id="DejaVuSans-53" d="M 3425 4513 
L 3425 3897 
Q 3066 4069 2747 4153 
Q 2428 4238 2131 4238 
Q 1616 4238 1336 4038 
Q 1056 3838 1056 3469 
Q 1056 3159 1242 3001 
Q 1428 2844 1947 2747 
L 2328 2669 
Q 3034 2534 3370 2195 
Q 3706 1856 3706 1288 
Q 3706 609 3251 259 
Q 2797 -91 1919 -91 
Q 1588 -91 1214 -16 
Q 841 59 441 206 
L 441 856 
Q 825 641 1194 531 
Q 1563 422 1919 422 
Q 2459 422 2753 634 
Q 3047 847 3047 1241 
Q 3047 1584 2836 1778 
Q 2625 1972 2144 2069 
L 1759 2144 
Q 1053 2284 737 2584 
Q 422 2884 422 3419 
Q 422 4038 858 4394 
Q 1294 4750 2059 4750 
Q 2388 4750 2728 4690 
Q 3069 4631 3425 4513 
z
" transform="scale(0.015625)"/>
       <path id="DejaVuSans-75" d="M 544 1381 
L 544 3500 
L 1119 3500 
L 1119 1403 
Q 1119 906 1312 657 
Q 1506 409 1894 409 
Q 2359 409 2629 706 
Q 2900 1003 2900 1516 
L 2900 3500 
L 3475 3500 
L 3475 0 
L 2900 0 
L 2900 538 
Q 2691 219 2414 64 
Q 2138 -91 1772 -91 
Q 1169 -91 856 284 
Q 544 659 544 1381 
z
M 1991 3584 
L 1991 3584 
z
" transform="scale(0.015625)"/>
       <path id="DejaVuSans-66" d="M 2375 4863 
L 2375 4384 
L 1825 4384 
Q 1516 4384 1395 4259 
Q 1275 4134 1275 3809 
L 1275 3500 
L 2222 3500 
L 2222 3053 
L 1275 3053 
L 1275 0 
L 697 0 
L 697 3053 
L 147 3053 
L 147 3500 
L 697 3500 
L 697 3744 
Q 697 4328 969 4595 
Q 1241 4863 1831 4863 
L 2375 4863 
z
" transform="scale(0.015625)"/>
       <path id="DejaVuSans-63" d="M 3122 3366 
L 3122 2828 
Q 2878 2963 2633 3030 
Q 2388 3097 2138 3097 
Q 1578 3097 1268 2742 
Q 959 2388 959 1747 
Q 959 1106 1268 751 
Q 1578 397 2138 397 
Q 2388 397 2633 464 
Q 2878 531 3122 666 
L 3122 134 
Q 2881 22 2623 -34 
Q 2366 -91 2075 -91 
Q 1284 -91 818 406 
Q 353 903 353 1747 
Q 353 2603 823 3093 
Q 1294 3584 2113 3584 
Q 2378 3584 2631 3529 
Q 2884 3475 3122 3366 
z
" transform="scale(0.015625)"/>
       <path id="DejaVuSans-20" transform="scale(0.015625)"/>
       <path id="DejaVuSans-4d" d="M 628 4666 
L 1569 4666 
L 2759 1491 
L 3956 4666 
L 4897 4666 
L 4897 0 
L 4281 0 
L 4281 4097 
L 3078 897 
L 2444 897 
L 1241 4097 
L 1241 0 
L 628 0 
L 628 4666 
z
" transform="scale(0.015625)"/>
       <path id="DejaVuSans-73" d="M 2834 3397 
L 2834 2853 
Q 2591 2978 2328 3040 
Q 2066 3103 1784 3103 
Q 1356 3103 1142 2972 
Q 928 2841 928 2578 
Q 928 2378 1081 2264 
Q 1234 2150 1697 2047 
L 1894 2003 
Q 2506 1872 2764 1633 
Q 3022 1394 3022 966 
Q 3022 478 2636 193 
Q 2250 -91 1575 -91 
Q 1294 -91 989 -36 
Q 684 19 347 128 
L 347 722 
Q 666 556 975 473 
Q 1284 391 1588 391 
Q 1994 391 2212 530 
Q 2431 669 2431 922 
Q 2431 1156 2273 1281 
Q 2116 1406 1581 1522 
L 1381 1569 
Q 847 1681 609 1914 
Q 372 2147 372 2553 
Q 372 3047 722 3315 
Q 1072 3584 1716 3584 
Q 2034 3584 2315 3537 
Q 2597 3491 2834 3397 
z
" transform="scale(0.015625)"/>
       <path id="DejaVuSans-42" d="M 1259 2228 
L 1259 519 
L 2272 519 
Q 2781 519 3026 730 
Q 3272 941 3272 1375 
Q 3272 1813 3026 2020 
Q 2781 2228 2272 2228 
L 1259 2228 
z
M 1259 4147 
L 1259 2741 
L 2194 2741 
Q 2656 2741 2882 2914 
Q 3109 3088 3109 3444 
Q 3109 3797 2882 3972 
Q 2656 4147 2194 4147 
L 1259 4147 
z
M 628 4666 
L 2241 4666 
Q 2963 4666 3353 4366 
Q 3744 4066 3744 3513 
Q 3744 3084 3544 2831 
Q 3344 2578 2956 2516 
Q 3422 2416 3680 2098 
Q 3938 1781 3938 1306 
Q 3938 681 3513 340 
Q 3088 0 2303 0 
L 628 0 
L 628 4666 
z
" transform="scale(0.015625)"/>
       <path id="DejaVuSans-6c" d="M 603 4863 
L 1178 4863 
L 1178 0 
L 603 0 
L 603 4863 
z
" transform="scale(0.015625)"/>
       <path id="DejaVuSans-6e" d="M 3513 2113 
L 3513 0 
L 2938 0 
L 2938 2094 
Q 2938 2591 2744 2837 
Q 2550 3084 2163 3084 
Q 1697 3084 1428 2787 
Q 1159 2491 1159 1978 
L 1159 0 
L 581 0 
L 581 3500 
L 1159 3500 
L 1159 2956 
Q 1366 3272 1645 3428 
Q 1925 3584 2291 3584 
Q 2894 3584 3203 3211 
Q 3513 2838 3513 2113 
z
" transform="scale(0.015625)"/>
       <path id="DejaVuSans-5b" d="M 550 4863 
L 1875 4863 
L 1875 4416 
L 1125 4416 
L 1125 -397 
L 1875 -397 
L 1875 -844 
L 550 -844 
L 550 4863 
z
" transform="scale(0.015625)"/>
       <path id="DejaVuSans-47" d="M 3809 666 
L 3809 1919 
L 2778 1919 
L 2778 2438 
L 4434 2438 
L 4434 434 
Q 4069 175 3628 42 
Q 3188 -91 2688 -91 
Q 1594 -91 976 548 
Q 359 1188 359 2328 
Q 359 3472 976 4111 
Q 1594 4750 2688 4750 
Q 3144 4750 3555 4637 
Q 3966 4525 4313 4306 
L 4313 3634 
Q 3963 3931 3569 4081 
Q 3175 4231 2741 4231 
Q 1884 4231 1454 3753 
Q 1025 3275 1025 2328 
Q 1025 1384 1454 906 
Q 1884 428 2741 428 
Q 3075 428 3337 486 
Q 3600 544 3809 666 
z
" transform="scale(0.015625)"/>
       <path id="DejaVuSans-74" d="M 1172 4494 
L 1172 3500 
L 2356 3500 
L 2356 3053 
L 1172 3053 
L 1172 1153 
Q 1172 725 1289 603 
Q 1406 481 1766 481 
L 2356 481 
L 2356 0 
L 1766 0 
Q 1100 0 847 248 
Q 594 497 594 1153 
L 594 3053 
L 172 3053 
L 172 3500 
L 594 3500 
L 594 4494 
L 1172 4494 
z
" transform="scale(0.015625)"/>
       <path id="DejaVuSans-2f" d="M 1625 4666 
L 2156 4666 
L 531 -594 
L 0 -594 
L 1625 4666 
z
" transform="scale(0.015625)"/>
       <path id="DejaVuSans-6d" d="M 3328 2828 
Q 3544 3216 3844 3400 
Q 4144 3584 4550 3584 
Q 5097 3584 5394 3201 
Q 5691 2819 5691 2113 
L 5691 0 
L 5113 0 
L 5113 2094 
Q 5113 2597 4934 2840 
Q 4756 3084 4391 3084 
Q 3944 3084 3684 2787 
Q 3425 2491 3425 1978 
L 3425 0 
L 2847 0 
L 2847 2094 
Q 2847 2600 2669 2842 
Q 2491 3084 2119 3084 
Q 1678 3084 1418 2786 
Q 1159 2488 1159 1978 
L 1159 0 
L 581 0 
L 581 3500 
L 1159 3500 
L 1159 2956 
Q 1356 3278 1631 3431 
Q 1906 3584 2284 3584 
Q 2666 3584 2933 3390 
Q 3200 3197 3328 2828 
z
" transform="scale(0.015625)"/>
       <path id="DejaVuSans-6f" d="M 1959 3097 
Q 1497 3097 1228 2736 
Q 959 2375 959 1747 
Q 959 1119 1226 758 
Q 1494 397 1959 397 
Q 2419 397 2687 759 
Q 2956 1122 2956 1747 
Q 2956 2369 2687 2733 
Q 2419 3097 1959 3097 
z
M 1959 3584 
Q 2709 3584 3137 3096 
Q 3566 2609 3566 1747 
Q 3566 888 3137 398 
Q 2709 -91 1959 -91 
Q 1206 -91 779 398 
Q 353 888 353 1747 
Q 353 2609 779 3096 
Q 1206 3584 1959 3584 
z
" transform="scale(0.015625)"/>
       <path id="DejaVuSans-68" d="M 3513 2113 
L 3513 0 
L 2938 0 
L 2938 2094 
Q 2938 2591 2744 2837 
Q 2550 3084 2163 3084 
Q 1697 3084 1428 2787 
Q 1159 2491 1159 1978 
L 1159 0 
L 581 0 
L 581 4863 
L 1159 4863 
L 1159 2956 
Q 1366 3272 1645 3428 
Q 1925 3584 2291 3584 
Q 2894 3584 3203 3211 
Q 3513 2838 3513 2113 
z
" transform="scale(0.015625)"/>
       <path id="DejaVuSans-5d" d="M 1947 4863 
L 1947 -844 
L 622 -844 
L 622 -397 
L 1369 -397 
L 1369 4416 
L 622 4416 
L 622 4863 
L 1947 4863 
z
" transform="scale(0.015625)"/>
      </defs>
      <use xlink:href="#DejaVuSans-53"/>
      <use xlink:href="#DejaVuSans-75" x="63.476562"/>
      <use xlink:href="#DejaVuSans-72" x="126.855469"/>
      <use xlink:href="#DejaVuSans-66" x="167.96875"/>
      <use xlink:href="#DejaVuSans-61" x="203.173828"/>
      <use xlink:href="#DejaVuSans-63" x="264.453125"/>
      <use xlink:href="#DejaVuSans-65" x="319.433594"/>
      <use xlink:href="#DejaVuSans-20" x="380.957031"/>
      <use xlink:href="#DejaVuSans-4d" x="412.744141"/>
      <use xlink:href="#DejaVuSans-61" x="499.023438"/>
      <use xlink:href="#DejaVuSans-73" x="560.302734"/>
      <use xlink:href="#DejaVuSans-73" x="612.402344"/>
      <use xlink:href="#DejaVuSans-20" x="664.501953"/>
      <use xlink:href="#DejaVuSans-42" x="696.289062"/>
      <use xlink:href="#DejaVuSans-61" x="764.892578"/>
      <use xlink:href="#DejaVuSans-6c" x="826.171875"/>
      <use xlink:href="#DejaVuSans-61" x="853.955078"/>
      <use xlink:href="#DejaVuSans-6e" x="915.234375"/>
      <use xlink:href="#DejaVuSans-63" x="978.613281"/>
      <use xlink:href="#DejaVuSans-65" x="1033.59375"/>
      <use xlink:href="#DejaVuSans-20" x="1095.117188"/>
      <use xlink:href="#DejaVuSans-5b" x="1126.904297"/>
      <use xlink:href="#DejaVuSans-47" x="1165.917969"/>
      <use xlink:href="#DejaVuSans-74" x="1243.408203"/>
      <use xlink:href="#DejaVuSans-2f" x="1282.617188"/>
      <use xlink:href="#DejaVuSans-6d" x="1316.308594"/>
      <use xlink:href="#DejaVuSans-6f" x="1413.720703"/>
      <use xlink:href="#DejaVuSans-6e" x="1474.902344"/>
      <use xlink:href="#DejaVuSans-74" x="1538.28125"/>
      <use xlink:href="#DejaVuSans-68" x="1577.490234"/>
      <use xlink:href="#DejaVuSans-5d" x="1640.869141"/>
     </g>
    </g>
   </g>
   <g id="line2d_14">
    <path d="M 67.794438 133.647527 
L 68.601757 133.114639 
L 69.409075 99.618491 
L 70.216393 87.362554 
L 71.023712 90.129265 
L 72.638349 97.607489 
L 73.445667 92.347005 
L 75.060304 103.544152 
L 75.867622 103.014278 
L 76.67494 127.71163 
L 77.482259 137.298947 
L 78.289577 121.773299 
L 79.096895 92.799112 
L 79.904214 80.110543 
L 80.711532 82.596889 
L 81.51885 75.338702 
L 82.326169 90.530545 
L 83.133487 82.676606 
L 83.940805 107.024924 
L 84.748124 104.032185 
L 85.555442 116.646882 
L 86.36276 135.278855 
L 87.170079 134.836847 
L 87.977397 124.19812 
L 89.592034 93.225837 
L 90.399352 83.766057 
L 91.206671 67.110313 
L 92.013989 58.360724 
L 93.628626 94.837831 
L 95.243262 114.9317 
L 96.050581 118.588938 
L 96.857899 129.078686 
L 97.665217 133.835256 
L 98.472536 121.881686 
L 99.279854 96.163592 
L 100.087172 82.767055 
L 100.894491 57.446524 
L 101.701809 61.767518 
L 102.509127 94.605693 
L 103.316446 103.274478 
L 104.123764 94.293611 
L 104.931082 108.390181 
L 105.738401 132.669085 
L 106.545719 140.22714 
L 107.353038 131.650833 
L 108.160356 116.153559 
L 108.967674 95.785306 
L 109.774993 83.860096 
L 110.582311 86.443758 
L 111.389629 99.501917 
L 112.196948 108.490272 
L 113.004266 88.770336 
L 113.811584 91.524096 
L 114.618903 122.018291 
L 115.426221 130.415535 
L 116.233539 132.918311 
L 117.040858 127.829282 
L 117.848176 102.664114 
L 118.655494 69.166799 
L 119.462813 78.929337 
L 120.270131 86.136683 
L 121.077449 103.469625 
L 121.884768 93.171234 
L 122.692086 91.924615 
L 123.499405 95.318512 
L 124.306723 104.21187 
L 125.114041 129.560734 
L 126.728678 132.387217 
L 127.535996 120.714467 
L 128.343315 93.34973 
L 129.150633 93.387216 
L 129.957951 87.966062 
L 130.76527 73.968629 
L 131.572588 79.942746 
L 132.379906 97.083588 
L 133.187225 101.841235 
L 133.994543 104.339844 
L 134.801861 109.233999 
L 135.60918 132.08349 
L 136.416498 131.748533 
L 138.031135 94.601236 
L 138.838453 97.365647 
L 139.645771 108.273289 
L 140.45309 99.07271 
L 141.260408 92.219945 
L 142.067727 101.011981 
L 142.875045 94.288006 
L 143.682363 96.564009 
L 144.489682 131.800533 
L 145.297 140.445851 
L 146.104318 132.15822 
L 146.911637 114.144379 
L 147.718955 103.833806 
L 148.526273 114.733488 
L 149.333592 99.771815 
L 150.14091 97.251979 
L 150.948228 102.912881 
L 151.755547 104.302111 
L 153.370183 111.046616 
L 154.177502 133.826504 
L 154.98482 141.748426 
L 155.792138 122.214672 
L 156.599457 115.138339 
L 157.406775 90.454384 
L 158.214094 84.395885 
L 159.021412 99.355186 
L 159.82873 104.757621 
L 160.636049 86.309236 
L 161.443367 81.812542 
L 162.250685 105.86211 
L 163.058004 125.217378 
L 163.865322 140.588451 
L 164.67264 143.923162 
L 165.479959 138.069743 
L 166.287277 108.745393 
L 167.094595 99.234826 
L 167.901914 98.415341 
L 168.709232 95.173141 
L 169.51655 93.158217 
L 170.323869 84.927617 
L 171.131187 89.827471 
L 171.938505 97.62411 
L 172.745824 110.615965 
L 173.553142 128.960785 
L 174.360461 127.607472 
L 175.167779 122.052057 
L 175.975097 114.270549 
L 176.782416 103.249802 
L 177.589734 97.357098 
L 178.397052 105.471644 
L 179.204371 97.627491 
L 180.011689 91.522872 
L 180.819007 101.13731 
L 181.626326 105.793413 
L 182.433644 127.546915 
L 183.240962 124.396685 
L 184.048281 133.704171 
L 184.855599 118.218812 
L 186.470236 79.371523 
L 187.277554 87.693576 
L 188.084872 94.178206 
L 188.892191 96.061453 
L 189.699509 94.386151 
L 190.506827 98.132262 
L 191.314146 99.859021 
L 192.121464 109.419383 
L 192.928783 135.145253 
L 193.736101 146.269459 
L 194.543419 134.370242 
L 196.158056 86.019469 
L 196.965374 69.172508 
L 197.772693 87.721121 
L 198.580011 88.965679 
L 199.387329 81.738645 
L 200.194648 89.739662 
L 201.001966 108.717191 
L 201.809284 99.809883 
L 202.616603 102.868723 
L 203.423921 133.094089 
L 204.231239 113.871149 
L 205.038558 86.196764 
L 205.845876 101.228518 
L 206.653194 107.217154 
L 207.460513 100.11317 
L 209.07515 81.725133 
L 209.882468 91.487765 
L 210.689786 108.009628 
L 211.497105 115.654385 
L 212.304423 131.025747 
L 213.111741 127.28082 
L 213.91906 138.527322 
L 214.726378 113.026089 
L 215.533696 95.745749 
L 216.341015 96.062458 
L 217.148333 94.372078 
L 217.955651 111.460023 
L 218.76297 109.861504 
L 219.570288 104.488066 
L 220.377606 101.669637 
L 221.184925 118.632017 
L 221.992243 128.905318 
L 222.799561 131.970489 
L 223.60688 122.827607 
L 224.414198 108.080523 
L 225.221517 100.998727 
L 226.028835 88.583084 
L 226.836153 94.404006 
L 227.643472 89.946743 
L 228.45079 96.191857 
L 229.258108 91.850997 
L 230.065427 103.926757 
L 231.680063 136.845747 
L 233.2947 125.099104 
L 234.102018 100.517673 
L 234.909337 83.423559 
L 235.716655 88.958372 
L 236.523973 104.25183 
L 237.331292 78.899338 
L 238.13861 90.60782 
L 238.945928 109.022334 
L 239.753247 114.051921 
L 240.560565 115.139746 
L 242.175202 141.371413 
L 242.98252 131.02971 
L 243.789839 105.050933 
L 244.597157 92.587588 
L 245.404475 94.558636 
L 246.211794 88.060366 
L 247.82643 102.15966 
L 248.633749 113.56026 
L 249.441067 110.098767 
L 250.248385 122.624298 
L 251.055704 131.544837 
L 251.863022 142.578931 
L 252.67034 131.048851 
L 253.477659 103.612818 
L 254.284977 90.882678 
L 255.092295 65.458131 
L 255.899614 62.927836 
L 256.706932 92.962208 
L 257.51425 97.155617 
L 258.321569 102.704053 
L 259.128887 116.163135 
L 259.936206 120.857461 
L 260.743524 116.237171 
L 261.550842 135.121634 
L 262.358161 133.909903 
L 263.165479 112.069316 
L 263.972797 105.934063 
L 264.780116 94.104677 
L 265.587434 93.732901 
L 266.394752 116.296521 
L 267.202071 101.145455 
L 268.009389 109.178841 
L 268.816707 99.980996 
L 269.624026 87.934868 
L 270.431344 117.571069 
L 271.238662 128.605465 
L 272.045981 131.150312 
L 272.853299 102.598496 
L 273.660617 94.593375 
L 274.467936 108.163037 
L 275.275254 87.271083 
L 276.082572 94.1088 
L 276.889891 88.739069 
L 277.697209 94.926071 
L 278.504528 99.056233 
L 280.119164 127.93676 
L 280.926483 150.263634 
L 281.733801 123.605202 
L 282.541119 113.803855 
L 283.348438 95.402754 
L 284.155756 86.989309 
L 284.963074 81.317062 
L 285.770393 95.487679 
L 286.577711 100.943687 
L 287.385029 109.069144 
L 288.192348 99.124099 
L 288.999666 107.919569 
L 289.806984 106.641588 
L 290.614303 100.982183 
L 291.421621 106.027626 
L 292.228939 101.385326 
L 293.036258 81.097704 
L 293.843576 83.880587 
L 294.650895 96.382148 
L 295.458213 101.892402 
L 296.265531 93.717117 
L 297.07285 88.469799 
L 298.687486 125.549896 
L 299.494805 134.160887 
L 300.302123 128.794412 
L 301.109441 122.306521 
L 301.91676 110.842469 
L 302.724078 86.408634 
L 303.531396 79.73794 
L 304.338715 99.007003 
L 305.146033 109.815316 
L 305.953351 97.476057 
L 306.76067 92.174831 
L 307.567988 101.026412 
L 309.182625 142.206772 
L 309.989943 147.839437 
L 310.797262 120.029333 
L 312.411898 86.075522 
L 314.026535 83.705855 
L 314.833853 86.388175 
L 315.641172 89.853894 
L 316.44849 90.06207 
L 317.255808 110.280694 
L 318.063127 113.361041 
L 318.870445 125.938338 
L 319.677763 147.313755 
L 322.099718 88.479691 
L 322.907037 97.757319 
L 323.714355 87.495107 
L 324.521673 89.272493 
L 325.328992 94.640916 
L 326.13631 85.052623 
L 326.943628 73.40506 
L 327.750947 87.106809 
L 328.558265 124.098356 
L 329.365584 137.221428 
L 330.172902 121.644556 
L 330.98022 110.105966 
L 331.787539 95.832538 
L 332.594857 89.113449 
L 333.402175 86.688143 
L 334.209494 90.245959 
L 335.016812 99.068408 
L 335.82413 120.174919 
L 336.631449 108.605351 
L 337.438767 99.032425 
L 338.246085 123.860478 
L 339.053404 143.343602 
L 339.860722 134.130705 
L 340.66804 118.162281 
L 341.475359 92.643002 
L 342.282677 86.695429 
L 343.089995 88.442738 
L 343.897314 100.902967 
L 344.704632 109.025879 
L 345.511951 107.239792 
L 346.319269 107.248529 
L 347.126587 122.925599 
L 348.741224 129.222123 
L 349.548542 127.34404 
L 350.355861 110.910215 
L 351.163179 100.857082 
L 351.970497 92.570076 
L 352.777816 104.952159 
L 353.585134 102.823435 
L 354.392452 79.182154 
L 355.199771 72.56761 
L 356.007089 101.654889 
L 356.814407 115.658572 
L 357.621726 117.744937 
L 358.429044 132.173592 
L 359.236362 117.723492 
L 360.043681 93.859032 
L 360.850999 97.62783 
L 361.658318 94.979368 
L 362.465636 81.756106 
L 363.272954 81.222367 
L 364.080273 77.830684 
L 364.887591 99.102723 
L 365.694909 102.289152 
L 366.502228 117.987244 
L 368.116864 144.709409 
L 368.924183 132.533652 
L 369.731501 115.957734 
L 370.538819 116.228598 
L 371.346138 113.366757 
L 372.153456 102.842917 
L 372.960774 95.708168 
L 373.768093 90.205428 
L 374.575411 87.701443 
L 375.382729 91.35608 
L 376.190048 96.149494 
L 377.804684 137.805374 
L 378.612003 127.765874 
L 379.419321 108.985117 
L 380.22664 105.004153 
L 381.033958 98.44005 
L 381.841276 99.36732 
L 383.455913 69.292042 
L 385.07055 114.804593 
L 385.877868 116.078863 
L 386.685186 127.458188 
L 387.492505 117.173137 
L 388.299823 124.516023 
L 389.107141 102.580081 
L 389.91446 96.150401 
L 390.721778 88.567415 
L 391.529096 79.534499 
L 392.336415 99.594756 
L 393.143733 103.087608 
L 393.951051 99.975671 
L 395.565688 130.601762 
L 396.373007 141.978364 
L 397.180325 141.064465 
L 397.987643 121.609205 
L 398.794962 97.611599 
L 399.60228 88.435675 
L 401.216917 103.002957 
L 402.024235 105.368518 
L 402.831553 102.002831 
L 403.638872 90.401556 
L 404.44619 97.050105 
L 405.253508 124.521347 
L 406.060827 127.63753 
L 406.868145 139.902798 
L 407.675463 136.208392 
L 408.482782 112.459944 
L 409.2901 96.78934 
L 410.097418 78.817956 
L 410.904737 90.212018 
L 411.712055 103.554234 
L 412.519374 99.599614 
L 413.326692 97.628919 
L 414.13401 108.569228 
L 414.941329 117.038507 
L 415.748647 147.688914 
L 416.555965 143.296704 
L 417.363284 129.20342 
L 418.170602 104.386067 
L 418.97792 90.449305 
L 419.785239 84.190257 
L 420.592557 94.102034 
L 421.399875 110.318857 
L 422.207194 92.843242 
L 423.014512 91.973991 
L 424.629149 120.692827 
L 425.436467 118.216695 
L 426.243785 125.882909 
L 427.051104 122.001223 
L 427.858422 105.634626 
L 428.66574 99.750567 
L 430.280377 67.106801 
L 431.087696 82.867255 
L 431.895014 93.038681 
L 432.702332 92.626163 
L 433.509651 84.659456 
L 434.316969 99.229523 
L 435.124287 133.294862 
L 435.931606 143.30854 
L 436.738924 127.018977 
L 437.546242 101.200522 
L 438.353561 97.738362 
L 439.160879 87.473175 
L 439.968197 88.354254 
L 440.775516 103.906936 
L 441.582834 93.971195 
L 442.390152 96.44699 
L 443.197471 107.249713 
L 444.812107 120.829568 
L 445.619426 148.731932 
L 446.426744 130.723152 
L 447.234063 99.431561 
L 448.041381 92.168783 
L 448.848699 98.660078 
L 449.656018 100.957493 
L 450.463336 97.258606 
L 451.270654 96.716371 
L 452.077973 107.509249 
L 452.885291 96.484665 
L 453.692609 99.58339 
L 454.499928 130.774976 
L 455.307246 142.23711 
L 456.114564 128.434982 
L 456.921883 105.96662 
L 457.729201 99.786662 
L 458.536519 101.58333 
L 459.343838 98.211332 
L 460.151156 78.975053 
L 460.958474 77.010273 
L 462.573111 103.018779 
L 463.38043 116.367968 
L 464.187748 140.009211 
L 464.995066 146.316338 
L 465.802385 126.892604 
L 466.609703 96.661083 
L 467.417021 82.744694 
L 468.22434 79.17833 
L 469.031658 73.561545 
L 469.838976 74.416117 
L 470.646295 89.836322 
L 471.453613 112.766469 
L 472.260931 103.579455 
L 473.06825 109.786637 
L 473.875568 120.216648 
L 474.682886 127.634116 
L 475.490205 124.108979 
L 476.297523 111.05485 
L 477.104841 91.803714 
L 477.91216 96.143456 
L 478.719478 87.828223 
L 479.526796 94.813647 
L 480.334115 95.104041 
L 481.141433 100.357473 
L 481.948752 92.153054 
L 482.75607 90.803689 
L 483.563388 105.483435 
L 484.370707 103.365092 
L 484.370707 103.365092 
" clip-path="url(#p608d11187e)" style="fill: none; stroke: #000000; stroke-width: 1.5; stroke-linecap: square"/>
   </g>
   <g id="patch_3">
    <path d="M 46.965625 186.84327 
L 46.965625 22.318125 
" style="fill: none; stroke: #000000; stroke-width: 0.8; stroke-linejoin: miter; stroke-linecap: square"/>
   </g>
   <g id="patch_4">
    <path d="M 505.19952 186.84327 
L 505.19952 22.318125 
" style="fill: none; stroke: #000000; stroke-width: 0.8; stroke-linejoin: miter; stroke-linecap: square"/>
   </g>
   <g id="patch_5">
    <path d="M 46.965625 186.84327 
L 505.19952 186.84327 
" style="fill: none; stroke: #000000; stroke-width: 0.8; stroke-linejoin: miter; stroke-linecap: square"/>
   </g>
   <g id="patch_6">
    <path d="M 46.965625 22.318125 
L 505.19952 22.318125 
" style="fill: none; stroke: #000000; stroke-width: 0.8; stroke-linejoin: miter; stroke-linecap: square"/>
   </g>
   <g id="text_16">
    <!-- Antarctica -->
    <g transform="translate(245.52101 16.318125) scale(0.12 -0.12)">
     <defs>
      <path id="DejaVuSans-41" d="M 2188 4044 
L 1331 1722 
L 3047 1722 
L 2188 4044 
z
M 1831 4666 
L 2547 4666 
L 4325 0 
L 3669 0 
L 3244 1197 
L 1141 1197 
L 716 0 
L 50 0 
L 1831 4666 
z
" transform="scale(0.015625)"/>
      <path id="DejaVuSans-69" d="M 603 3500 
L 1178 3500 
L 1178 0 
L 603 0 
L 603 3500 
z
M 603 4863 
L 1178 4863 
L 1178 4134 
L 603 4134 
L 603 4863 
z
" transform="scale(0.015625)"/>
     </defs>
     <use xlink:href="#DejaVuSans-41"/>
     <use xlink:href="#DejaVuSans-6e" x="68.408203"/>
     <use xlink:href="#DejaVuSans-74" x="131.787109"/>
     <use xlink:href="#DejaVuSans-61" x="170.996094"/>
     <use xlink:href="#DejaVuSans-72" x="232.275391"/>
     <use xlink:href="#DejaVuSans-63" x="271.138672"/>
     <use xlink:href="#DejaVuSans-74" x="326.119141"/>
     <use xlink:href="#DejaVuSans-69" x="365.328125"/>
     <use xlink:href="#DejaVuSans-63" x="393.111328"/>
     <use xlink:href="#DejaVuSans-61" x="448.091797"/>
    </g>
   </g>
  </g>
 </g>
 <defs>
  <clipPath id="p608d11187e">
   <rect x="46.965625" y="22.318125" width="458.233895" height="164.525145"/>
  </clipPath>
 </defs>
</svg>
