<?xml version="1.0" encoding="utf-8" standalone="no"?>
<!DOCTYPE svg PUBLIC "-//W3C//DTD SVG 1.1//EN"
  "http://www.w3.org/Graphics/SVG/1.1/DTD/svg11.dtd">
<svg xmlns:xlink="http://www.w3.org/1999/xlink" width="512.39952pt" height="224.39952pt" viewBox="0 0 512.39952 224.39952" xmlns="http://www.w3.org/2000/svg" version="1.1">
 <metadata>
  <rdf:RDF xmlns:dc="http://purl.org/dc/elements/1.1/" xmlns:cc="http://creativecommons.org/ns#" xmlns:rdf="http://www.w3.org/1999/02/22-rdf-syntax-ns#">
   <cc:Work>
    <dc:type rdf:resource="http://purl.org/dc/dcmitype/StillImage"/>
    <dc:date>2023-02-06T11:00:52.744102</dc:date>
    <dc:format>image/svg+xml</dc:format>
    <dc:creator>
     <cc:Agent>
      <dc:title>Matplotlib v3.6.2, https://matplotlib.org/</dc:title>
     </cc:Agent>
    </dc:creator>
   </cc:Work>
  </rdf:RDF>
 </metadata>
 <defs>
  <style type="text/css">*{stroke-linejoin: round; stroke-linecap: butt}</style>
 </defs>
 <g id="figure_1">
  <g id="patch_1">
   <path d="M 0 224.39952 
L 512.39952 224.39952 
L 512.39952 0 
L 0 0 
z
" style="fill: #ffffff"/>
  </g>
  <g id="axes_1">
   <g id="patch_2">
    <path d="M 46.965625 186.84327 
L 505.19952 186.84327 
L 505.19952 22.318125 
L 46.965625 22.318125 
z
" style="fill: #ffffff"/>
   </g>
   <g id="PolyCollection_1">
    <path d="M 67.794438 175.451009 
L 67.794438 179.248429 
L 68.601757 177.966835 
L 69.409075 175.574231 
L 70.216393 164.640531 
L 71.023712 165.26405 
L 71.83103 162.321466 
L 72.638349 169.362372 
L 73.445667 169.228675 
L 74.252985 170.307316 
L 75.060304 164.172754 
L 75.867622 170.649199 
L 76.67494 171.315515 
L 77.482259 174.825524 
L 78.289577 171.824754 
L 79.096895 162.756347 
L 79.904214 151.351452 
L 80.711532 154.623197 
L 81.51885 156.234399 
L 82.326169 158.694842 
L 83.133487 156.641991 
L 83.940805 163.127162 
L 84.748124 163.319246 
L 85.555442 163.711327 
L 86.36276 172.833772 
L 87.170079 169.820317 
L 87.977397 172.337333 
L 88.784715 170.256966 
L 89.592034 159.561095 
L 90.399352 162.076892 
L 91.206671 152.275244 
L 92.013989 148.675895 
L 92.821307 159.927021 
L 93.628626 168.491069 
L 94.435944 166.191628 
L 95.243262 172.855814 
L 96.050581 175.458736 
L 96.857899 175.838655 
L 97.665217 173.00159 
L 98.472536 174.066202 
L 99.279854 166.383516 
L 100.087172 165.013713 
L 100.894491 161.431922 
L 101.701809 155.38749 
L 102.509127 162.986809 
L 103.316446 156.981549 
L 104.123764 158.278988 
L 104.931082 161.237411 
L 105.738401 172.596151 
L 106.545719 177.180592 
L 107.353038 170.773317 
L 108.160356 171.057571 
L 108.967674 164.308319 
L 109.774993 152.709287 
L 110.582311 161.046161 
L 111.389629 169.140119 
L 112.196948 168.194859 
L 113.004266 160.864157 
L 113.811584 162.518457 
L 114.618903 168.199411 
L 115.426221 175.170025 
L 116.233539 176.785789 
L 117.040858 175.221115 
L 117.848176 165.632188 
L 118.655494 155.517922 
L 119.462813 157.945395 
L 120.270131 156.627153 
L 121.077449 157.659103 
L 121.884768 160.607004 
L 122.692086 164.914041 
L 123.499405 162.164749 
L 124.306723 160.428144 
L 125.114041 171.283144 
L 125.92136 169.121602 
L 126.728678 172.26868 
L 127.535996 172.699977 
L 128.343315 164.129845 
L 129.150633 163.056536 
L 129.957951 152.127447 
L 130.76527 149.578486 
L 131.572588 164.222842 
L 132.379906 166.51977 
L 133.187225 161.960887 
L 133.994543 155.954279 
L 134.801861 162.994845 
L 135.60918 175.631985 
L 136.416498 177.439499 
L 137.223816 172.549707 
L 138.031135 162.929595 
L 138.838453 157.394241 
L 139.645771 165.747308 
L 140.45309 168.138072 
L 141.260408 164.603179 
L 142.067727 170.531327 
L 142.875045 166.267242 
L 143.682363 161.167205 
L 144.489682 170.0429 
L 145.297 176.77053 
L 146.104318 173.202705 
L 146.911637 168.109592 
L 147.718955 165.547955 
L 148.526273 168.557649 
L 149.333592 161.83543 
L 150.14091 162.451263 
L 150.948228 158.114806 
L 151.755547 157.887265 
L 152.562865 164.232286 
L 153.370183 168.125972 
L 154.177502 176.371135 
L 154.98482 175.998952 
L 155.792138 169.357227 
L 156.599457 168.002436 
L 157.406775 164.611233 
L 158.214094 158.289785 
L 159.021412 164.263478 
L 159.82873 163.567039 
L 160.636049 151.418421 
L 161.443367 145.649586 
L 162.250685 161.837332 
L 163.058004 161.244079 
L 163.865322 175.112196 
L 164.67264 174.467796 
L 165.479959 175.242541 
L 166.287277 173.129456 
L 167.094595 161.981737 
L 167.901914 164.002044 
L 168.709232 166.340323 
L 169.51655 166.522753 
L 170.323869 162.241061 
L 171.131187 159.261005 
L 171.938505 165.838199 
L 172.745824 165.273409 
L 173.553142 169.487872 
L 174.360461 172.049987 
L 175.167779 169.070515 
L 175.975097 174.420367 
L 176.782416 169.135739 
L 177.589734 160.83243 
L 178.397052 162.276908 
L 179.204371 166.77908 
L 180.011689 171.100903 
L 180.819007 166.11348 
L 181.626326 158.165323 
L 182.433644 175.379264 
L 183.240962 173.909251 
L 184.048281 174.038182 
L 184.855599 171.589592 
L 185.662917 166.37208 
L 186.470236 159.434009 
L 187.277554 158.676313 
L 188.084872 162.727279 
L 188.892191 164.788575 
L 189.699509 164.752065 
L 190.506827 163.940257 
L 191.314146 157.742319 
L 192.121464 157.163698 
L 192.928783 170.75745 
L 193.736101 175.812287 
L 194.543419 174.94787 
L 195.350738 165.894463 
L 196.158056 162.186671 
L 196.965374 151.677335 
L 197.772693 156.845013 
L 198.580011 155.085671 
L 199.387329 160.007639 
L 200.194648 166.961347 
L 201.001966 160.12643 
L 201.809284 162.591224 
L 202.616603 166.778382 
L 203.423921 171.009497 
L 204.231239 162.440404 
L 205.038558 156.975193 
L 205.845876 166.694146 
L 206.653194 165.884189 
L 207.460513 161.216329 
L 208.267831 156.812758 
L 209.07515 154.900702 
L 209.882468 159.214479 
L 210.689786 164.803129 
L 211.497105 165.497439 
L 212.304423 176.475885 
L 213.111741 176.43027 
L 213.91906 175.188466 
L 214.726378 168.495985 
L 215.533696 154.378883 
L 216.341015 157.505399 
L 217.148333 152.338266 
L 217.955651 165.064292 
L 218.76297 168.822561 
L 219.570288 168.83087 
L 220.377606 167.070462 
L 221.184925 163.227533 
L 221.992243 168.795029 
L 222.799561 175.912464 
L 223.60688 170.522743 
L 224.414198 165.810842 
L 225.221517 169.122134 
L 226.028835 161.888746 
L 226.836153 159.510688 
L 227.643472 161.461044 
L 228.45079 165.973022 
L 229.258108 164.93209 
L 230.065427 165.7127 
L 230.872745 166.774369 
L 231.680063 172.642119 
L 232.487382 171.634673 
L 233.2947 173.201419 
L 234.102018 170.525982 
L 234.909337 165.349421 
L 235.716655 159.579354 
L 236.523973 167.243816 
L 237.331292 157.621043 
L 238.13861 165.601278 
L 238.945928 167.336963 
L 239.753247 172.659801 
L 240.560565 166.143861 
L 241.367883 174.103219 
L 242.175202 177.087382 
L 242.98252 175.722721 
L 243.789839 167.89417 
L 244.597157 161.185088 
L 245.404475 157.305127 
L 246.211794 150.403627 
L 247.019112 156.711896 
L 247.82643 159.743354 
L 248.633749 166.639518 
L 249.441067 161.767253 
L 250.248385 163.239592 
L 251.055704 170.567861 
L 251.863022 173.287735 
L 252.67034 170.194353 
L 253.477659 160.524782 
L 254.284977 160.956379 
L 255.092295 152.08907 
L 255.899614 144.133683 
L 256.706932 160.652013 
L 257.51425 172.286555 
L 258.321569 168.901272 
L 259.128887 168.247623 
L 259.936206 170.40804 
L 260.743524 167.789198 
L 261.550842 177.862567 
L 262.358161 174.100559 
L 263.165479 171.103935 
L 263.972797 164.289369 
L 264.780116 165.552831 
L 265.587434 161.195482 
L 266.394752 168.322872 
L 267.202071 163.381817 
L 268.009389 166.713723 
L 268.816707 158.64107 
L 269.624026 155.598068 
L 270.431344 163.593182 
L 271.238662 168.962646 
L 272.045981 174.214795 
L 272.853299 161.197327 
L 273.660617 155.151458 
L 274.467936 170.580368 
L 275.275254 159.796824 
L 276.082572 153.980257 
L 276.889891 155.660569 
L 277.697209 167.675352 
L 278.504528 157.222953 
L 279.311846 160.776776 
L 280.119164 166.358011 
L 280.926483 177.982053 
L 281.733801 173.506438 
L 282.541119 169.732243 
L 283.348438 163.18815 
L 284.155756 161.81711 
L 284.963074 155.067671 
L 285.770393 161.883965 
L 286.577711 167.648863 
L 287.385029 170.980114 
L 288.192348 162.797076 
L 288.999666 169.615335 
L 289.806984 173.71965 
L 290.614303 174.889865 
L 291.421621 171.718434 
L 292.228939 165.91608 
L 293.036258 156.345552 
L 293.843576 156.116906 
L 294.650895 157.182455 
L 295.458213 163.847133 
L 296.265531 161.925262 
L 297.07285 155.084732 
L 297.880168 157.417607 
L 298.687486 170.961043 
L 299.494805 174.081079 
L 300.302123 174.256907 
L 301.109441 173.490002 
L 301.91676 170.085558 
L 302.724078 154.465061 
L 303.531396 149.272532 
L 304.338715 157.920306 
L 305.146033 168.27194 
L 305.953351 169.069911 
L 306.76067 164.145105 
L 307.567988 160.456972 
L 308.375306 161.80868 
L 309.182625 176.321635 
L 309.989943 176.655145 
L 310.797262 174.005326 
L 311.60458 166.683802 
L 312.411898 158.469073 
L 313.219217 156.166268 
L 314.026535 152.958923 
L 314.833853 162.664679 
L 315.641172 166.157266 
L 316.44849 169.005949 
L 317.255808 165.301504 
L 318.063127 163.895093 
L 318.870445 165.284354 
L 319.677763 176.535804 
L 320.485082 174.203707 
L 321.2924 168.733529 
L 322.099718 162.186954 
L 322.907037 158.762592 
L 323.714355 154.784842 
L 324.521673 154.443004 
L 325.328992 159.838936 
L 326.13631 156.895194 
L 326.943628 149.037965 
L 327.750947 156.210521 
L 328.558265 166.746163 
L 329.365584 175.110761 
L 330.172902 168.30697 
L 330.98022 167.955972 
L 331.787539 171.852478 
L 332.594857 164.834701 
L 333.402175 159.124922 
L 334.209494 160.248209 
L 335.016812 159.62743 
L 335.82413 169.2213 
L 336.631449 167.850543 
L 337.438767 165.219029 
L 338.246085 170.883178 
L 339.053404 177.524136 
L 339.860722 174.10659 
L 340.66804 170.024267 
L 341.475359 161.580231 
L 342.282677 154.237577 
L 343.089995 151.938769 
L 343.897314 155.140041 
L 344.704632 162.726822 
L 345.511951 165.395798 
L 346.319269 162.663257 
L 347.126587 173.26741 
L 347.933906 171.949103 
L 348.741224 166.013597 
L 349.548542 170.198967 
L 350.355861 164.798136 
L 351.163179 165.576259 
L 351.970497 163.693545 
L 352.777816 162.590432 
L 353.585134 160.623959 
L 354.392452 155.583301 
L 355.199771 154.532501 
L 356.007089 157.151389 
L 356.814407 170.70928 
L 357.621726 176.360787 
L 358.429044 177.694545 
L 359.236362 175.187365 
L 360.043681 169.304644 
L 360.850999 161.836899 
L 361.658318 163.634903 
L 362.465636 167.65151 
L 363.272954 169.13881 
L 364.080273 161.642175 
L 364.887591 164.668683 
L 365.694909 166.497572 
L 366.502228 167.760794 
L 367.309546 167.763192 
L 368.116864 177.259654 
L 368.924183 176.187197 
L 369.731501 169.50703 
L 370.538819 167.980295 
L 371.346138 170.017416 
L 372.153456 169.638412 
L 372.960774 162.096696 
L 373.768093 157.367789 
L 374.575411 156.55097 
L 375.382729 163.817139 
L 376.190048 168.27238 
L 376.997366 172.427886 
L 377.804684 180.805128 
L 378.612003 178.294636 
L 379.419321 172.247188 
L 380.22664 166.995578 
L 381.033958 166.519597 
L 381.841276 161.910866 
L 382.648595 157.484308 
L 383.455913 150.176702 
L 384.263231 157.305969 
L 385.07055 170.394534 
L 385.877868 168.575514 
L 386.685186 169.851502 
L 387.492505 174.805775 
L 388.299823 170.778984 
L 389.107141 164.845935 
L 389.91446 158.002592 
L 390.721778 153.952033 
L 391.529096 155.060807 
L 392.336415 169.239037 
L 393.143733 166.269591 
L 393.951051 169.313846 
L 394.75837 166.718782 
L 395.565688 171.597513 
L 396.373007 175.444277 
L 397.180325 173.596848 
L 397.987643 172.779716 
L 398.794962 159.264226 
L 399.60228 158.073067 
L 400.409598 167.780541 
L 401.216917 168.960621 
L 402.024235 171.420669 
L 402.831553 162.549804 
L 403.638872 161.311473 
L 404.44619 166.342875 
L 405.253508 171.041524 
L 406.060827 173.261032 
L 406.868145 174.639566 
L 407.675463 174.314277 
L 408.482782 169.350387 
L 409.2901 161.433746 
L 410.097418 151.081115 
L 410.904737 157.884553 
L 411.712055 160.175502 
L 412.519374 161.254227 
L 413.326692 153.39603 
L 414.13401 154.94203 
L 414.941329 159.411645 
L 415.748647 179.403645 
L 416.555965 176.409439 
L 417.363284 173.777176 
L 418.170602 165.438993 
L 418.97792 163.424871 
L 419.785239 159.449958 
L 420.592557 158.265008 
L 421.399875 168.642405 
L 422.207194 167.506213 
L 423.014512 167.050066 
L 423.82183 161.269307 
L 424.629149 164.752831 
L 425.436467 167.673116 
L 426.243785 164.760821 
L 427.051104 168.435096 
L 427.858422 167.817371 
L 428.66574 168.924707 
L 429.473059 159.819533 
L 430.280377 151.427599 
L 431.087696 158.108342 
L 431.895014 161.968186 
L 432.702332 161.098224 
L 433.509651 155.960026 
L 434.316969 158.539803 
L 435.124287 174.417818 
L 435.931606 173.332701 
L 436.738924 170.772631 
L 437.546242 165.612541 
L 438.353561 159.24916 
L 439.160879 158.699929 
L 439.968197 155.852684 
L 440.775516 160.322034 
L 441.582834 165.174295 
L 442.390152 165.999334 
L 443.197471 170.948719 
L 444.004789 166.55758 
L 444.812107 168.693322 
L 445.619426 181.764647 
L 446.426744 177.617945 
L 447.234063 171.631218 
L 448.041381 162.383361 
L 448.848699 166.181241 
L 449.656018 165.275214 
L 450.463336 164.856851 
L 451.270654 161.178477 
L 452.077973 168.196808 
L 452.885291 158.508317 
L 453.692609 154.12385 
L 454.499928 173.009256 
L 455.307246 175.487425 
L 456.114564 174.254315 
L 456.921883 165.200678 
L 457.729201 161.898269 
L 458.536519 164.057658 
L 459.343838 162.044389 
L 460.151156 150.07222 
L 460.958474 148.735672 
L 461.765793 148.159779 
L 462.573111 157.915211 
L 463.38043 168.32455 
L 464.187748 172.096376 
L 464.995066 177.353913 
L 465.802385 172.910053 
L 466.609703 158.985194 
L 467.417021 157.111136 
L 468.22434 155.581989 
L 469.031658 146.028231 
L 469.838976 150.36158 
L 470.646295 155.041238 
L 471.453613 172.245838 
L 472.260931 169.356872 
L 473.06825 166.674304 
L 473.875568 173.322497 
L 474.682886 170.399418 
L 475.490205 171.911638 
L 476.297523 169.101103 
L 477.104841 167.414914 
L 477.91216 162.094718 
L 478.719478 157.057863 
L 479.526796 163.33848 
L 480.334115 164.949675 
L 481.141433 170.032302 
L 481.948752 169.795082 
L 482.75607 167.614434 
L 483.563388 168.680259 
L 484.370707 168.992698 
L 484.370707 168.095834 
L 484.370707 168.095834 
L 483.563388 166.590271 
L 482.75607 165.501846 
L 481.948752 168.170587 
L 481.141433 168.134724 
L 480.334115 162.693886 
L 479.526796 161.097248 
L 478.719478 154.052224 
L 477.91216 159.552623 
L 477.104841 165.403816 
L 476.297523 167.022551 
L 475.490205 170.308881 
L 474.682886 168.578393 
L 473.875568 171.908539 
L 473.06825 164.457769 
L 472.260931 167.575076 
L 471.453613 170.766945 
L 470.646295 151.920012 
L 469.838976 147.021483 
L 469.031658 141.993771 
L 468.22434 152.746595 
L 467.417021 154.159192 
L 466.609703 155.908125 
L 465.802385 171.403502 
L 464.995066 176.187516 
L 464.187748 170.466599 
L 463.38043 166.643085 
L 462.573111 155.346821 
L 461.765793 144.339293 
L 460.958474 144.987451 
L 460.151156 146.818891 
L 459.343838 159.647886 
L 458.536519 161.934563 
L 457.729201 159.529111 
L 456.921883 162.960864 
L 456.114564 172.777225 
L 455.307246 174.083563 
L 454.499928 171.681603 
L 453.692609 150.764268 
L 452.885291 155.968053 
L 452.077973 166.354233 
L 451.270654 158.771495 
L 450.463336 162.738499 
L 449.656018 162.915405 
L 448.848699 164.023734 
L 448.041381 160.10042 
L 447.234063 170.006606 
L 446.426744 176.334886 
L 445.619426 180.965818 
L 444.812107 166.583958 
L 444.004789 164.43748 
L 443.197471 169.386551 
L 442.390152 163.774532 
L 441.582834 163.109565 
L 440.775516 157.729918 
L 439.968197 152.977873 
L 439.160879 156.022897 
L 438.353561 156.158126 
L 437.546242 163.2184 
L 436.738924 168.993428 
L 435.931606 171.836534 
L 435.124287 173.121775 
L 434.316969 155.682956 
L 433.509651 153.074588 
L 432.702332 158.577986 
L 431.895014 159.571073 
L 431.087696 155.115697 
L 430.280377 147.665532 
L 429.473059 157.195038 
L 428.66574 167.050558 
L 427.858422 165.589444 
L 427.051104 166.302712 
L 426.243785 162.386123 
L 425.436467 165.76641 
L 424.629149 162.614784 
L 423.82183 158.721384 
L 423.014512 164.932031 
L 422.207194 165.649967 
L 421.399875 166.827674 
L 420.592557 155.576235 
L 419.785239 156.897175 
L 418.97792 161.296772 
L 418.170602 163.045306 
L 417.363284 172.33934 
L 416.555965 175.038141 
L 415.748647 178.697709 
L 414.941329 156.532219 
L 414.13401 151.959544 
L 413.326692 150.161862 
L 412.519374 158.825869 
L 411.712055 157.529955 
L 410.904737 155.275121 
L 410.097418 147.544721 
L 409.2901 159.208682 
L 408.482782 167.419874 
L 407.675463 172.992809 
L 406.868145 173.205001 
L 406.060827 171.830716 
L 405.253508 169.141729 
L 404.44619 164.242734 
L 403.638872 158.757798 
L 402.831553 160.207242 
L 402.024235 169.840013 
L 401.216917 167.168448 
L 400.409598 165.888396 
L 399.60228 154.797168 
L 398.794962 156.328784 
L 397.987643 171.017874 
L 397.180325 171.801959 
L 396.373007 174.192454 
L 395.565688 169.943624 
L 394.75837 164.648614 
L 393.951051 167.603655 
L 393.143733 164.12087 
L 392.336415 167.569633 
L 391.529096 151.92902 
L 390.721778 150.864193 
L 389.91446 155.407134 
L 389.107141 162.546368 
L 388.299823 168.774006 
L 387.492505 173.401732 
L 386.685186 167.644332 
L 385.877868 166.656238 
L 385.07055 168.816092 
L 384.263231 154.394901 
L 383.455913 147.026375 
L 382.648595 154.645718 
L 381.841276 159.339885 
L 381.033958 164.357512 
L 380.22664 164.695987 
L 379.419321 170.575602 
L 378.612003 176.887928 
L 377.804684 179.944652 
L 376.997366 170.945782 
L 376.190048 166.329178 
L 375.382729 161.380268 
L 374.575411 153.478189 
L 373.768093 154.631458 
L 372.960774 159.72589 
L 372.153456 167.892255 
L 371.346138 168.315901 
L 370.538819 166.002365 
L 369.731501 167.586 
L 368.924183 174.839699 
L 368.116864 176.158268 
L 367.309546 165.750138 
L 366.502228 165.809079 
L 365.694909 164.200189 
L 364.887591 162.299451 
L 364.080273 159.158153 
L 363.272954 167.235478 
L 362.465636 165.591419 
L 361.658318 161.166136 
L 360.850999 159.421433 
L 360.043681 167.008355 
L 359.236362 173.792257 
L 358.429044 176.474572 
L 357.621726 174.997723 
L 356.814407 169.09572 
L 356.007089 154.469366 
L 355.199771 151.079811 
L 354.392452 152.198188 
L 353.585134 157.97911 
L 352.777816 160.256774 
L 351.970497 161.425738 
L 351.163179 163.43238 
L 350.355861 162.540042 
L 349.548542 168.274978 
L 348.741224 163.76757 
L 347.933906 170.449849 
L 347.126587 171.737657 
L 346.319269 160.219209 
L 345.511951 163.408843 
L 344.704632 160.43546 
L 343.897314 152.058411 
L 343.089995 148.490222 
L 342.282677 150.986854 
L 341.475359 158.945791 
L 340.66804 168.177672 
L 339.860722 172.353921 
L 339.053404 176.467429 
L 338.246085 169.098994 
L 337.438767 163.014826 
L 336.631449 165.843995 
L 335.82413 167.472132 
L 335.016812 156.978402 
L 334.209494 157.759978 
L 333.402175 156.347351 
L 332.594857 162.501717 
L 331.787539 170.247609 
L 330.98022 165.931634 
L 330.172902 166.293276 
L 329.365584 173.626919 
L 328.558265 164.458387 
L 327.750947 153.045818 
L 326.943628 145.216977 
L 326.13631 154.381151 
L 325.328992 157.358161 
L 324.521673 151.285722 
L 323.714355 151.653977 
L 322.907037 156.098035 
L 322.099718 159.679521 
L 321.2924 166.792491 
L 320.485082 172.453655 
L 319.677763 175.37097 
L 318.870445 163.149505 
L 318.063127 161.466976 
L 317.255808 163.129941 
L 316.44849 167.226665 
L 315.641172 164.172727 
L 314.833853 160.283337 
L 314.026535 149.816996 
L 313.219217 153.464053 
L 312.411898 155.595983 
L 311.60458 164.487891 
L 310.797262 172.179577 
L 309.989943 175.295325 
L 309.182625 175.203942 
L 308.375306 159.18987 
L 307.567988 157.926579 
L 306.76067 161.856788 
L 305.953351 167.342518 
L 305.146033 166.449694 
L 304.338715 154.997899 
L 303.531396 145.488279 
L 302.724078 151.203982 
L 301.91676 168.263542 
L 301.109441 171.653775 
L 300.302123 172.816135 
L 299.494805 172.484463 
L 298.687486 169.171867 
L 297.880168 154.246569 
L 297.07285 151.8853 
L 296.265531 159.325545 
L 295.458213 161.549432 
L 294.650895 154.179204 
L 293.843576 153.164919 
L 293.036258 153.426298 
L 292.228939 163.678131 
L 291.421621 169.805668 
L 290.614303 173.444303 
L 289.806984 172.203274 
L 288.999666 167.863333 
L 288.192348 160.333119 
L 287.385029 169.35622 
L 286.577711 165.801331 
L 285.770393 159.373261 
L 284.963074 151.660961 
L 284.155756 159.436183 
L 283.348438 160.955108 
L 282.541119 167.936993 
L 281.733801 172.01969 
L 280.926483 177.040628 
L 280.119164 163.999345 
L 279.311846 158.221609 
L 278.504528 154.301702 
L 277.697209 165.915379 
L 276.889891 152.601295 
L 276.082572 151.008656 
L 275.275254 157.143722 
L 274.467936 168.862686 
L 273.660617 151.66901 
L 272.853299 158.520417 
L 272.045981 172.843636 
L 271.238662 167.14582 
L 270.431344 161.357658 
L 269.624026 152.801615 
L 268.816707 156.168282 
L 268.009389 164.664526 
L 267.202071 160.884491 
L 266.394752 166.470359 
L 265.587434 158.775453 
L 264.780116 163.633091 
L 263.972797 162.139154 
L 263.165479 169.330386 
L 262.358161 172.569177 
L 261.550842 176.713963 
L 260.743524 165.5216 
L 259.936206 168.779609 
L 259.128887 166.358285 
L 258.321569 167.199124 
L 257.51425 170.733207 
L 256.706932 157.708734 
L 255.899614 140.04027 
L 255.092295 148.67331 
L 254.284977 158.400294 
L 253.477659 157.502521 
L 252.67034 168.4829 
L 251.863022 171.406171 
L 251.055704 168.440604 
L 250.248385 160.832022 
L 249.441067 159.21213 
L 248.633749 164.782149 
L 247.82643 157.004684 
L 247.019112 153.779411 
L 246.211794 146.971938 
L 245.404475 154.66444 
L 244.597157 158.769764 
L 243.789839 165.725489 
L 242.98252 174.2835 
L 242.175202 175.807864 
L 241.367883 172.637485 
L 240.560565 164.08367 
L 239.753247 171.197623 
L 238.945928 165.476193 
L 238.13861 163.598112 
L 237.331292 154.593344 
L 236.523973 165.29466 
L 235.716655 156.720286 
L 234.909337 163.383591 
L 234.102018 168.738159 
L 233.2947 171.500667 
L 232.487382 169.733602 
L 231.680063 170.873786 
L 230.872745 164.693835 
L 230.065427 163.445845 
L 229.258108 162.737844 
L 228.45079 163.965433 
L 227.643472 158.816659 
L 226.836153 156.802202 
L 226.028835 159.474586 
L 225.221517 167.13523 
L 224.414198 163.537826 
L 223.60688 168.687422 
L 222.799561 174.618246 
L 221.992243 166.606499 
L 221.184925 160.899111 
L 220.377606 165.048457 
L 219.570288 167.021095 
L 218.76297 166.937977 
L 217.955651 162.777238 
L 217.148333 148.934383 
L 216.341015 154.62624 
L 215.533696 151.227654 
L 214.726378 166.473515 
L 213.91906 173.84677 
L 213.111741 175.233679 
L 212.304423 175.322523 
L 211.497105 163.342456 
L 210.689786 162.711594 
L 209.882468 156.231744 
L 209.07515 151.706153 
L 208.267831 154.207768 
L 207.460513 158.69969 
L 206.653194 163.765446 
L 205.845876 164.773345 
L 205.038558 153.827504 
L 204.231239 159.707107 
L 203.423921 169.157828 
L 202.616603 164.6575 
L 201.809284 160.234608 
L 201.001966 157.414784 
L 200.194648 165.043082 
L 199.387329 156.908455 
L 198.580011 151.729004 
L 197.772693 153.911302 
L 196.965374 148.215335 
L 196.158056 159.658433 
L 195.350738 163.34454 
L 194.543419 173.512997 
L 193.736101 174.315168 
L 192.928783 169.023269 
L 192.121464 154.109732 
L 191.314146 155.112192 
L 190.506827 162.005986 
L 189.699509 162.528641 
L 188.892191 162.587847 
L 188.084872 160.261316 
L 187.277554 155.888178 
L 186.470236 156.600255 
L 185.662917 164.155075 
L 184.855599 169.847504 
L 184.048281 172.700288 
L 183.240962 172.557746 
L 182.433644 174.115474 
L 181.626326 155.289739 
L 180.819007 164.281621 
L 180.011689 169.540896 
L 179.204371 164.80555 
L 178.397052 159.985018 
L 177.589734 158.459611 
L 176.782416 167.189315 
L 175.975097 172.76126 
L 175.167779 167.236681 
L 174.360461 170.346769 
L 173.553142 167.648342 
L 172.745824 163.066578 
L 171.938505 163.844059 
L 171.131187 156.489218 
L 170.323869 160.024898 
L 169.51655 164.450215 
L 168.709232 164.501038 
L 167.901914 161.799088 
L 167.094595 159.421548 
L 166.287277 171.446669 
L 165.479959 173.779402 
L 164.67264 173.08025 
L 163.865322 173.725057 
L 163.058004 158.262037 
L 162.250685 159.712617 
L 161.443367 141.439978 
L 160.636049 148.348363 
L 159.82873 161.25251 
L 159.021412 161.951915 
L 158.214094 155.506256 
L 157.406775 162.620801 
L 156.599457 165.691181 
L 155.792138 167.296209 
L 154.98482 174.608547 
L 154.177502 175.177627 
L 153.370183 166.09082 
L 152.562865 162.032876 
L 151.755547 155.039051 
L 150.948228 155.345507 
L 150.14091 160.145809 
L 149.333592 159.334206 
L 148.526273 166.463514 
L 147.718955 163.509966 
L 146.911637 166.161207 
L 146.104318 171.556755 
L 145.297 175.710205 
L 144.489682 168.311128 
L 143.682363 158.698112 
L 142.875045 164.242487 
L 142.067727 168.963544 
L 141.260408 162.427592 
L 140.45309 166.27539 
L 139.645771 163.640581 
L 138.838453 154.596873 
L 138.031135 160.488614 
L 137.223816 171.092417 
L 136.416498 176.321449 
L 135.60918 174.343729 
L 134.801861 160.546684 
L 133.994543 153.18824 
L 133.187225 159.67406 
L 132.379906 164.493913 
L 131.572588 162.0004 
L 130.76527 145.868645 
L 129.957951 148.57773 
L 129.150633 160.862061 
L 128.343315 161.775541 
L 127.535996 171.125916 
L 126.728678 170.602461 
L 125.92136 167.237585 
L 125.114041 169.944852 
L 124.306723 157.414302 
L 123.499405 159.919373 
L 122.692086 162.936128 
L 121.884768 158.304031 
L 121.077449 154.980496 
L 120.270131 153.85904 
L 119.462813 155.104116 
L 118.655494 152.453702 
L 117.848176 163.478211 
L 117.040858 173.601494 
L 116.233539 175.669965 
L 115.426221 173.996901 
L 114.618903 166.375426 
L 113.811584 160.071935 
L 113.004266 158.439336 
L 112.196948 166.566844 
L 111.389629 167.450814 
L 110.582311 158.571101 
L 109.774993 149.845917 
L 108.967674 162.255737 
L 108.160356 169.42809 
L 107.353038 169.137745 
L 106.545719 176.012901 
L 105.738401 171.022416 
L 104.931082 158.810605 
L 104.123764 155.380529 
L 103.316446 154.130624 
L 102.509127 160.738397 
L 101.701809 152.444282 
L 100.894491 158.917134 
L 100.087172 162.635477 
L 99.279854 164.352514 
L 98.472536 172.401047 
L 97.665217 171.20702 
L 96.857899 174.341949 
L 96.050581 173.829916 
L 95.243262 171.129461 
L 94.435944 164.063132 
L 93.628626 166.611892 
L 92.821307 157.005989 
L 92.013989 144.927953 
L 91.206671 148.963202 
L 90.399352 159.721474 
L 89.592034 156.861881 
L 88.784715 168.620819 
L 87.977397 170.430738 
L 87.170079 167.863873 
L 86.36276 171.175319 
L 85.555442 161.166964 
L 84.748124 161.222154 
L 83.940805 160.959494 
L 83.133487 153.514581 
L 82.326169 156.173466 
L 81.51885 153.02853 
L 80.711532 151.454882 
L 79.904214 147.810474 
L 79.096895 159.987369 
L 78.289577 169.937707 
L 77.482259 171.696112 
L 76.67494 168.551707 
L 75.867622 167.698346 
L 75.060304 160.923873 
L 74.252985 167.499566 
L 73.445667 166.658378 
L 72.638349 166.519063 
L 71.83103 159.951574 
L 71.023712 160.513572 
L 70.216393 161.439891 
L 69.409075 171.958669 
L 68.601757 175.661337 
L 67.794438 175.451009 
z
" clip-path="url(#pb036ee862e)" style="fill-opacity: 0.25"/>
   </g>
   <g id="matplotlib.axis_1">
    <g id="xtick_1">
     <g id="line2d_1">
      <defs>
       <path id="m898ab7f63e" d="M 0 0 
L 0 3.5 
" style="stroke: #000000; stroke-width: 0.8"/>
      </defs>
      <g>
       <use xlink:href="#m898ab7f63e" x="77.482259" y="186.84327" style="stroke: #000000; stroke-width: 0.8"/>
      </g>
     </g>
     <g id="text_1">
      <!-- 1980 -->
      <g transform="translate(64.757259 201.441708) scale(0.1 -0.1)">
       <defs>
        <path id="DejaVuSans-31" d="M 794 531 
L 1825 531 
L 1825 4091 
L 703 3866 
L 703 4441 
L 1819 4666 
L 2450 4666 
L 2450 531 
L 3481 531 
L 3481 0 
L 794 0 
L 794 531 
z
" transform="scale(0.015625)"/>
        <path id="DejaVuSans-39" d="M 703 97 
L 703 672 
Q 941 559 1184 500 
Q 1428 441 1663 441 
Q 2288 441 2617 861 
Q 2947 1281 2994 2138 
Q 2813 1869 2534 1725 
Q 2256 1581 1919 1581 
Q 1219 1581 811 2004 
Q 403 2428 403 3163 
Q 403 3881 828 4315 
Q 1253 4750 1959 4750 
Q 2769 4750 3195 4129 
Q 3622 3509 3622 2328 
Q 3622 1225 3098 567 
Q 2575 -91 1691 -91 
Q 1453 -91 1209 -44 
Q 966 3 703 97 
z
M 1959 2075 
Q 2384 2075 2632 2365 
Q 2881 2656 2881 3163 
Q 2881 3666 2632 3958 
Q 2384 4250 1959 4250 
Q 1534 4250 1286 3958 
Q 1038 3666 1038 3163 
Q 1038 2656 1286 2365 
Q 1534 2075 1959 2075 
z
" transform="scale(0.015625)"/>
        <path id="DejaVuSans-38" d="M 2034 2216 
Q 1584 2216 1326 1975 
Q 1069 1734 1069 1313 
Q 1069 891 1326 650 
Q 1584 409 2034 409 
Q 2484 409 2743 651 
Q 3003 894 3003 1313 
Q 3003 1734 2745 1975 
Q 2488 2216 2034 2216 
z
M 1403 2484 
Q 997 2584 770 2862 
Q 544 3141 544 3541 
Q 544 4100 942 4425 
Q 1341 4750 2034 4750 
Q 2731 4750 3128 4425 
Q 3525 4100 3525 3541 
Q 3525 3141 3298 2862 
Q 3072 2584 2669 2484 
Q 3125 2378 3379 2068 
Q 3634 1759 3634 1313 
Q 3634 634 3220 271 
Q 2806 -91 2034 -91 
Q 1263 -91 848 271 
Q 434 634 434 1313 
Q 434 1759 690 2068 
Q 947 2378 1403 2484 
z
M 1172 3481 
Q 1172 3119 1398 2916 
Q 1625 2713 2034 2713 
Q 2441 2713 2670 2916 
Q 2900 3119 2900 3481 
Q 2900 3844 2670 4047 
Q 2441 4250 2034 4250 
Q 1625 4250 1398 4047 
Q 1172 3844 1172 3481 
z
" transform="scale(0.015625)"/>
        <path id="DejaVuSans-30" d="M 2034 4250 
Q 1547 4250 1301 3770 
Q 1056 3291 1056 2328 
Q 1056 1369 1301 889 
Q 1547 409 2034 409 
Q 2525 409 2770 889 
Q 3016 1369 3016 2328 
Q 3016 3291 2770 3770 
Q 2525 4250 2034 4250 
z
M 2034 4750 
Q 2819 4750 3233 4129 
Q 3647 3509 3647 2328 
Q 3647 1150 3233 529 
Q 2819 -91 2034 -91 
Q 1250 -91 836 529 
Q 422 1150 422 2328 
Q 422 3509 836 4129 
Q 1250 4750 2034 4750 
z
" transform="scale(0.015625)"/>
       </defs>
       <use xlink:href="#DejaVuSans-31"/>
       <use xlink:href="#DejaVuSans-39" x="63.623047"/>
       <use xlink:href="#DejaVuSans-38" x="127.246094"/>
       <use xlink:href="#DejaVuSans-30" x="190.869141"/>
      </g>
     </g>
    </g>
    <g id="xtick_2">
     <g id="line2d_2">
      <g>
       <use xlink:href="#m898ab7f63e" x="174.360461" y="186.84327" style="stroke: #000000; stroke-width: 0.8"/>
      </g>
     </g>
     <g id="text_2">
      <!-- 1990 -->
      <g transform="translate(161.635461 201.441708) scale(0.1 -0.1)">
       <use xlink:href="#DejaVuSans-31"/>
       <use xlink:href="#DejaVuSans-39" x="63.623047"/>
       <use xlink:href="#DejaVuSans-39" x="127.246094"/>
       <use xlink:href="#DejaVuSans-30" x="190.869141"/>
      </g>
     </g>
    </g>
    <g id="xtick_3">
     <g id="line2d_3">
      <g>
       <use xlink:href="#m898ab7f63e" x="271.238662" y="186.84327" style="stroke: #000000; stroke-width: 0.8"/>
      </g>
     </g>
     <g id="text_3">
      <!-- 2000 -->
      <g transform="translate(258.513662 201.441708) scale(0.1 -0.1)">
       <defs>
        <path id="DejaVuSans-32" d="M 1228 531 
L 3431 531 
L 3431 0 
L 469 0 
L 469 531 
Q 828 903 1448 1529 
Q 2069 2156 2228 2338 
Q 2531 2678 2651 2914 
Q 2772 3150 2772 3378 
Q 2772 3750 2511 3984 
Q 2250 4219 1831 4219 
Q 1534 4219 1204 4116 
Q 875 4013 500 3803 
L 500 4441 
Q 881 4594 1212 4672 
Q 1544 4750 1819 4750 
Q 2544 4750 2975 4387 
Q 3406 4025 3406 3419 
Q 3406 3131 3298 2873 
Q 3191 2616 2906 2266 
Q 2828 2175 2409 1742 
Q 1991 1309 1228 531 
z
" transform="scale(0.015625)"/>
       </defs>
       <use xlink:href="#DejaVuSans-32"/>
       <use xlink:href="#DejaVuSans-30" x="63.623047"/>
       <use xlink:href="#DejaVuSans-30" x="127.246094"/>
       <use xlink:href="#DejaVuSans-30" x="190.869141"/>
      </g>
     </g>
    </g>
    <g id="xtick_4">
     <g id="line2d_4">
      <g>
       <use xlink:href="#m898ab7f63e" x="368.116864" y="186.84327" style="stroke: #000000; stroke-width: 0.8"/>
      </g>
     </g>
     <g id="text_4">
      <!-- 2010 -->
      <g transform="translate(355.391864 201.441708) scale(0.1 -0.1)">
       <use xlink:href="#DejaVuSans-32"/>
       <use xlink:href="#DejaVuSans-30" x="63.623047"/>
       <use xlink:href="#DejaVuSans-31" x="127.246094"/>
       <use xlink:href="#DejaVuSans-30" x="190.869141"/>
      </g>
     </g>
    </g>
    <g id="xtick_5">
     <g id="line2d_5">
      <g>
       <use xlink:href="#m898ab7f63e" x="464.995066" y="186.84327" style="stroke: #000000; stroke-width: 0.8"/>
      </g>
     </g>
     <g id="text_5">
      <!-- 2020 -->
      <g transform="translate(452.270066 201.441708) scale(0.1 -0.1)">
       <use xlink:href="#DejaVuSans-32"/>
       <use xlink:href="#DejaVuSans-30" x="63.623047"/>
       <use xlink:href="#DejaVuSans-32" x="127.246094"/>
       <use xlink:href="#DejaVuSans-30" x="190.869141"/>
      </g>
     </g>
    </g>
    <g id="text_6">
     <!-- Year -->
     <g transform="translate(265.495073 215.119833) scale(0.1 -0.1)">
      <defs>
       <path id="DejaVuSans-59" d="M -13 4666 
L 666 4666 
L 1959 2747 
L 3244 4666 
L 3922 4666 
L 2272 2222 
L 2272 0 
L 1638 0 
L 1638 2222 
L -13 4666 
z
" transform="scale(0.015625)"/>
       <path id="DejaVuSans-65" d="M 3597 1894 
L 3597 1613 
L 953 1613 
Q 991 1019 1311 708 
Q 1631 397 2203 397 
Q 2534 397 2845 478 
Q 3156 559 3463 722 
L 3463 178 
Q 3153 47 2828 -22 
Q 2503 -91 2169 -91 
Q 1331 -91 842 396 
Q 353 884 353 1716 
Q 353 2575 817 3079 
Q 1281 3584 2069 3584 
Q 2775 3584 3186 3129 
Q 3597 2675 3597 1894 
z
M 3022 2063 
Q 3016 2534 2758 2815 
Q 2500 3097 2075 3097 
Q 1594 3097 1305 2825 
Q 1016 2553 972 2059 
L 3022 2063 
z
" transform="scale(0.015625)"/>
       <path id="DejaVuSans-61" d="M 2194 1759 
Q 1497 1759 1228 1600 
Q 959 1441 959 1056 
Q 959 750 1161 570 
Q 1363 391 1709 391 
Q 2188 391 2477 730 
Q 2766 1069 2766 1631 
L 2766 1759 
L 2194 1759 
z
M 3341 1997 
L 3341 0 
L 2766 0 
L 2766 531 
Q 2569 213 2275 61 
Q 1981 -91 1556 -91 
Q 1019 -91 701 211 
Q 384 513 384 1019 
Q 384 1609 779 1909 
Q 1175 2209 1959 2209 
L 2766 2209 
L 2766 2266 
Q 2766 2663 2505 2880 
Q 2244 3097 1772 3097 
Q 1472 3097 1187 3025 
Q 903 2953 641 2809 
L 641 3341 
Q 956 3463 1253 3523 
Q 1550 3584 1831 3584 
Q 2591 3584 2966 3190 
Q 3341 2797 3341 1997 
z
" transform="scale(0.015625)"/>
       <path id="DejaVuSans-72" d="M 2631 2963 
Q 2534 3019 2420 3045 
Q 2306 3072 2169 3072 
Q 1681 3072 1420 2755 
Q 1159 2438 1159 1844 
L 1159 0 
L 581 0 
L 581 3500 
L 1159 3500 
L 1159 2956 
Q 1341 3275 1631 3429 
Q 1922 3584 2338 3584 
Q 2397 3584 2469 3576 
Q 2541 3569 2628 3553 
L 2631 2963 
z
" transform="scale(0.015625)"/>
      </defs>
      <use xlink:href="#DejaVuSans-59"/>
      <use xlink:href="#DejaVuSans-65" x="47.833984"/>
      <use xlink:href="#DejaVuSans-61" x="109.357422"/>
      <use xlink:href="#DejaVuSans-72" x="170.636719"/>
     </g>
    </g>
   </g>
   <g id="matplotlib.axis_2">
    <g id="ytick_1">
     <g id="line2d_6">
      <defs>
       <path id="m22857bcae9" d="M 0 0 
L -3.5 0 
" style="stroke: #000000; stroke-width: 0.8"/>
      </defs>
      <g>
       <use xlink:href="#m22857bcae9" x="46.965625" y="186.84327" style="stroke: #000000; stroke-width: 0.8"/>
      </g>
     </g>
     <g id="text_7">
      <!-- 0 -->
      <g transform="translate(33.603125 190.642489) scale(0.1 -0.1)">
       <use xlink:href="#DejaVuSans-30"/>
      </g>
     </g>
    </g>
    <g id="ytick_2">
     <g id="line2d_7">
      <g>
       <use xlink:href="#m22857bcae9" x="46.965625" y="163.339678" style="stroke: #000000; stroke-width: 0.8"/>
      </g>
     </g>
     <g id="text_8">
      <!-- 50 -->
      <g transform="translate(27.240625 167.138897) scale(0.1 -0.1)">
       <defs>
        <path id="DejaVuSans-35" d="M 691 4666 
L 3169 4666 
L 3169 4134 
L 1269 4134 
L 1269 2991 
Q 1406 3038 1543 3061 
Q 1681 3084 1819 3084 
Q 2600 3084 3056 2656 
Q 3513 2228 3513 1497 
Q 3513 744 3044 326 
Q 2575 -91 1722 -91 
Q 1428 -91 1123 -41 
Q 819 9 494 109 
L 494 744 
Q 775 591 1075 516 
Q 1375 441 1709 441 
Q 2250 441 2565 725 
Q 2881 1009 2881 1497 
Q 2881 1984 2565 2268 
Q 2250 2553 1709 2553 
Q 1456 2553 1204 2497 
Q 953 2441 691 2322 
L 691 4666 
z
" transform="scale(0.015625)"/>
       </defs>
       <use xlink:href="#DejaVuSans-35"/>
       <use xlink:href="#DejaVuSans-30" x="63.623047"/>
      </g>
     </g>
    </g>
    <g id="ytick_3">
     <g id="line2d_8">
      <g>
       <use xlink:href="#m22857bcae9" x="46.965625" y="139.836086" style="stroke: #000000; stroke-width: 0.8"/>
      </g>
     </g>
     <g id="text_9">
      <!-- 100 -->
      <g transform="translate(20.878125 143.635304) scale(0.1 -0.1)">
       <use xlink:href="#DejaVuSans-31"/>
       <use xlink:href="#DejaVuSans-30" x="63.623047"/>
       <use xlink:href="#DejaVuSans-30" x="127.246094"/>
      </g>
     </g>
    </g>
    <g id="ytick_4">
     <g id="line2d_9">
      <g>
       <use xlink:href="#m22857bcae9" x="46.965625" y="116.332494" style="stroke: #000000; stroke-width: 0.8"/>
      </g>
     </g>
     <g id="text_10">
      <!-- 150 -->
      <g transform="translate(20.878125 120.131712) scale(0.1 -0.1)">
       <use xlink:href="#DejaVuSans-31"/>
       <use xlink:href="#DejaVuSans-35" x="63.623047"/>
       <use xlink:href="#DejaVuSans-30" x="127.246094"/>
      </g>
     </g>
    </g>
    <g id="ytick_5">
     <g id="line2d_10">
      <g>
       <use xlink:href="#m22857bcae9" x="46.965625" y="92.828901" style="stroke: #000000; stroke-width: 0.8"/>
      </g>
     </g>
     <g id="text_11">
      <!-- 200 -->
      <g transform="translate(20.878125 96.62812) scale(0.1 -0.1)">
       <use xlink:href="#DejaVuSans-32"/>
       <use xlink:href="#DejaVuSans-30" x="63.623047"/>
       <use xlink:href="#DejaVuSans-30" x="127.246094"/>
      </g>
     </g>
    </g>
    <g id="ytick_6">
     <g id="line2d_11">
      <g>
       <use xlink:href="#m22857bcae9" x="46.965625" y="69.325309" style="stroke: #000000; stroke-width: 0.8"/>
      </g>
     </g>
     <g id="text_12">
      <!-- 250 -->
      <g transform="translate(20.878125 73.124528) scale(0.1 -0.1)">
       <use xlink:href="#DejaVuSans-32"/>
       <use xlink:href="#DejaVuSans-35" x="63.623047"/>
       <use xlink:href="#DejaVuSans-30" x="127.246094"/>
      </g>
     </g>
    </g>
    <g id="ytick_7">
     <g id="line2d_12">
      <g>
       <use xlink:href="#m22857bcae9" x="46.965625" y="45.821717" style="stroke: #000000; stroke-width: 0.8"/>
      </g>
     </g>
     <g id="text_13">
      <!-- 300 -->
      <g transform="translate(20.878125 49.620936) scale(0.1 -0.1)">
       <defs>
        <path id="DejaVuSans-33" d="M 2597 2516 
Q 3050 2419 3304 2112 
Q 3559 1806 3559 1356 
Q 3559 666 3084 287 
Q 2609 -91 1734 -91 
Q 1441 -91 1130 -33 
Q 819 25 488 141 
L 488 750 
Q 750 597 1062 519 
Q 1375 441 1716 441 
Q 2309 441 2620 675 
Q 2931 909 2931 1356 
Q 2931 1769 2642 2001 
Q 2353 2234 1838 2234 
L 1294 2234 
L 1294 2753 
L 1863 2753 
Q 2328 2753 2575 2939 
Q 2822 3125 2822 3475 
Q 2822 3834 2567 4026 
Q 2313 4219 1838 4219 
Q 1578 4219 1281 4162 
Q 984 4106 628 3988 
L 628 4550 
Q 988 4650 1302 4700 
Q 1616 4750 1894 4750 
Q 2613 4750 3031 4423 
Q 3450 4097 3450 3541 
Q 3450 3153 3228 2886 
Q 3006 2619 2597 2516 
z
" transform="scale(0.015625)"/>
       </defs>
       <use xlink:href="#DejaVuSans-33"/>
       <use xlink:href="#DejaVuSans-30" x="63.623047"/>
       <use xlink:href="#DejaVuSans-30" x="127.246094"/>
      </g>
     </g>
    </g>
    <g id="ytick_8">
     <g id="line2d_13">
      <g>
       <use xlink:href="#m22857bcae9" x="46.965625" y="22.318125" style="stroke: #000000; stroke-width: 0.8"/>
      </g>
     </g>
     <g id="text_14">
      <!-- 350 -->
      <g transform="translate(20.878125 26.117344) scale(0.1 -0.1)">
       <use xlink:href="#DejaVuSans-33"/>
       <use xlink:href="#DejaVuSans-35" x="63.623047"/>
       <use xlink:href="#DejaVuSans-30" x="127.246094"/>
      </g>
     </g>
    </g>
    <g id="text_15">
     <!-- Surface Mass Balance [Gt/month] -->
     <g transform="translate(14.798438 188.573666) rotate(-90) scale(0.1 -0.1)">
      <defs>
       <path id="DejaVuSans-53" d="M 3425 4513 
L 3425 3897 
Q 3066 4069 2747 4153 
Q 2428 4238 2131 4238 
Q 1616 4238 1336 4038 
Q 1056 3838 1056 3469 
Q 1056 3159 1242 3001 
Q 1428 2844 1947 2747 
L 2328 2669 
Q 3034 2534 3370 2195 
Q 3706 1856 3706 1288 
Q 3706 609 3251 259 
Q 2797 -91 1919 -91 
Q 1588 -91 1214 -16 
Q 841 59 441 206 
L 441 856 
Q 825 641 1194 531 
Q 1563 422 1919 422 
Q 2459 422 2753 634 
Q 3047 847 3047 1241 
Q 3047 1584 2836 1778 
Q 2625 1972 2144 2069 
L 1759 2144 
Q 1053 2284 737 2584 
Q 422 2884 422 3419 
Q 422 4038 858 4394 
Q 1294 4750 2059 4750 
Q 2388 4750 2728 4690 
Q 3069 4631 3425 4513 
z
" transform="scale(0.015625)"/>
       <path id="DejaVuSans-75" d="M 544 1381 
L 544 3500 
L 1119 3500 
L 1119 1403 
Q 1119 906 1312 657 
Q 1506 409 1894 409 
Q 2359 409 2629 706 
Q 2900 1003 2900 1516 
L 2900 3500 
L 3475 3500 
L 3475 0 
L 2900 0 
L 2900 538 
Q 2691 219 2414 64 
Q 2138 -91 1772 -91 
Q 1169 -91 856 284 
Q 544 659 544 1381 
z
M 1991 3584 
L 1991 3584 
z
" transform="scale(0.015625)"/>
       <path id="DejaVuSans-66" d="M 2375 4863 
L 2375 4384 
L 1825 4384 
Q 1516 4384 1395 4259 
Q 1275 4134 1275 3809 
L 1275 3500 
L 2222 3500 
L 2222 3053 
L 1275 3053 
L 1275 0 
L 697 0 
L 697 3053 
L 147 3053 
L 147 3500 
L 697 3500 
L 697 3744 
Q 697 4328 969 4595 
Q 1241 4863 1831 4863 
L 2375 4863 
z
" transform="scale(0.015625)"/>
       <path id="DejaVuSans-63" d="M 3122 3366 
L 3122 2828 
Q 2878 2963 2633 3030 
Q 2388 3097 2138 3097 
Q 1578 3097 1268 2742 
Q 959 2388 959 1747 
Q 959 1106 1268 751 
Q 1578 397 2138 397 
Q 2388 397 2633 464 
Q 2878 531 3122 666 
L 3122 134 
Q 2881 22 2623 -34 
Q 2366 -91 2075 -91 
Q 1284 -91 818 406 
Q 353 903 353 1747 
Q 353 2603 823 3093 
Q 1294 3584 2113 3584 
Q 2378 3584 2631 3529 
Q 2884 3475 3122 3366 
z
" transform="scale(0.015625)"/>
       <path id="DejaVuSans-20" transform="scale(0.015625)"/>
       <path id="DejaVuSans-4d" d="M 628 4666 
L 1569 4666 
L 2759 1491 
L 3956 4666 
L 4897 4666 
L 4897 0 
L 4281 0 
L 4281 4097 
L 3078 897 
L 2444 897 
L 1241 4097 
L 1241 0 
L 628 0 
L 628 4666 
z
" transform="scale(0.015625)"/>
       <path id="DejaVuSans-73" d="M 2834 3397 
L 2834 2853 
Q 2591 2978 2328 3040 
Q 2066 3103 1784 3103 
Q 1356 3103 1142 2972 
Q 928 2841 928 2578 
Q 928 2378 1081 2264 
Q 1234 2150 1697 2047 
L 1894 2003 
Q 2506 1872 2764 1633 
Q 3022 1394 3022 966 
Q 3022 478 2636 193 
Q 2250 -91 1575 -91 
Q 1294 -91 989 -36 
Q 684 19 347 128 
L 347 722 
Q 666 556 975 473 
Q 1284 391 1588 391 
Q 1994 391 2212 530 
Q 2431 669 2431 922 
Q 2431 1156 2273 1281 
Q 2116 1406 1581 1522 
L 1381 1569 
Q 847 1681 609 1914 
Q 372 2147 372 2553 
Q 372 3047 722 3315 
Q 1072 3584 1716 3584 
Q 2034 3584 2315 3537 
Q 2597 3491 2834 3397 
z
" transform="scale(0.015625)"/>
       <path id="DejaVuSans-42" d="M 1259 2228 
L 1259 519 
L 2272 519 
Q 2781 519 3026 730 
Q 3272 941 3272 1375 
Q 3272 1813 3026 2020 
Q 2781 2228 2272 2228 
L 1259 2228 
z
M 1259 4147 
L 1259 2741 
L 2194 2741 
Q 2656 2741 2882 2914 
Q 3109 3088 3109 3444 
Q 3109 3797 2882 3972 
Q 2656 4147 2194 4147 
L 1259 4147 
z
M 628 4666 
L 2241 4666 
Q 2963 4666 3353 4366 
Q 3744 4066 3744 3513 
Q 3744 3084 3544 2831 
Q 3344 2578 2956 2516 
Q 3422 2416 3680 2098 
Q 3938 1781 3938 1306 
Q 3938 681 3513 340 
Q 3088 0 2303 0 
L 628 0 
L 628 4666 
z
" transform="scale(0.015625)"/>
       <path id="DejaVuSans-6c" d="M 603 4863 
L 1178 4863 
L 1178 0 
L 603 0 
L 603 4863 
z
" transform="scale(0.015625)"/>
       <path id="DejaVuSans-6e" d="M 3513 2113 
L 3513 0 
L 2938 0 
L 2938 2094 
Q 2938 2591 2744 2837 
Q 2550 3084 2163 3084 
Q 1697 3084 1428 2787 
Q 1159 2491 1159 1978 
L 1159 0 
L 581 0 
L 581 3500 
L 1159 3500 
L 1159 2956 
Q 1366 3272 1645 3428 
Q 1925 3584 2291 3584 
Q 2894 3584 3203 3211 
Q 3513 2838 3513 2113 
z
" transform="scale(0.015625)"/>
       <path id="DejaVuSans-5b" d="M 550 4863 
L 1875 4863 
L 1875 4416 
L 1125 4416 
L 1125 -397 
L 1875 -397 
L 1875 -844 
L 550 -844 
L 550 4863 
z
" transform="scale(0.015625)"/>
       <path id="DejaVuSans-47" d="M 3809 666 
L 3809 1919 
L 2778 1919 
L 2778 2438 
L 4434 2438 
L 4434 434 
Q 4069 175 3628 42 
Q 3188 -91 2688 -91 
Q 1594 -91 976 548 
Q 359 1188 359 2328 
Q 359 3472 976 4111 
Q 1594 4750 2688 4750 
Q 3144 4750 3555 4637 
Q 3966 4525 4313 4306 
L 4313 3634 
Q 3963 3931 3569 4081 
Q 3175 4231 2741 4231 
Q 1884 4231 1454 3753 
Q 1025 3275 1025 2328 
Q 1025 1384 1454 906 
Q 1884 428 2741 428 
Q 3075 428 3337 486 
Q 3600 544 3809 666 
z
" transform="scale(0.015625)"/>
       <path id="DejaVuSans-74" d="M 1172 4494 
L 1172 3500 
L 2356 3500 
L 2356 3053 
L 1172 3053 
L 1172 1153 
Q 1172 725 1289 603 
Q 1406 481 1766 481 
L 2356 481 
L 2356 0 
L 1766 0 
Q 1100 0 847 248 
Q 594 497 594 1153 
L 594 3053 
L 172 3053 
L 172 3500 
L 594 3500 
L 594 4494 
L 1172 4494 
z
" transform="scale(0.015625)"/>
       <path id="DejaVuSans-2f" d="M 1625 4666 
L 2156 4666 
L 531 -594 
L 0 -594 
L 1625 4666 
z
" transform="scale(0.015625)"/>
       <path id="DejaVuSans-6d" d="M 3328 2828 
Q 3544 3216 3844 3400 
Q 4144 3584 4550 3584 
Q 5097 3584 5394 3201 
Q 5691 2819 5691 2113 
L 5691 0 
L 5113 0 
L 5113 2094 
Q 5113 2597 4934 2840 
Q 4756 3084 4391 3084 
Q 3944 3084 3684 2787 
Q 3425 2491 3425 1978 
L 3425 0 
L 2847 0 
L 2847 2094 
Q 2847 2600 2669 2842 
Q 2491 3084 2119 3084 
Q 1678 3084 1418 2786 
Q 1159 2488 1159 1978 
L 1159 0 
L 581 0 
L 581 3500 
L 1159 3500 
L 1159 2956 
Q 1356 3278 1631 3431 
Q 1906 3584 2284 3584 
Q 2666 3584 2933 3390 
Q 3200 3197 3328 2828 
z
" transform="scale(0.015625)"/>
       <path id="DejaVuSans-6f" d="M 1959 3097 
Q 1497 3097 1228 2736 
Q 959 2375 959 1747 
Q 959 1119 1226 758 
Q 1494 397 1959 397 
Q 2419 397 2687 759 
Q 2956 1122 2956 1747 
Q 2956 2369 2687 2733 
Q 2419 3097 1959 3097 
z
M 1959 3584 
Q 2709 3584 3137 3096 
Q 3566 2609 3566 1747 
Q 3566 888 3137 398 
Q 2709 -91 1959 -91 
Q 1206 -91 779 398 
Q 353 888 353 1747 
Q 353 2609 779 3096 
Q 1206 3584 1959 3584 
z
" transform="scale(0.015625)"/>
       <path id="DejaVuSans-68" d="M 3513 2113 
L 3513 0 
L 2938 0 
L 2938 2094 
Q 2938 2591 2744 2837 
Q 2550 3084 2163 3084 
Q 1697 3084 1428 2787 
Q 1159 2491 1159 1978 
L 1159 0 
L 581 0 
L 581 4863 
L 1159 4863 
L 1159 2956 
Q 1366 3272 1645 3428 
Q 1925 3584 2291 3584 
Q 2894 3584 3203 3211 
Q 3513 2838 3513 2113 
z
" transform="scale(0.015625)"/>
       <path id="DejaVuSans-5d" d="M 1947 4863 
L 1947 -844 
L 622 -844 
L 622 -397 
L 1369 -397 
L 1369 4416 
L 622 4416 
L 622 4863 
L 1947 4863 
z
" transform="scale(0.015625)"/>
      </defs>
      <use xlink:href="#DejaVuSans-53"/>
      <use xlink:href="#DejaVuSans-75" x="63.476562"/>
      <use xlink:href="#DejaVuSans-72" x="126.855469"/>
      <use xlink:href="#DejaVuSans-66" x="167.96875"/>
      <use xlink:href="#DejaVuSans-61" x="203.173828"/>
      <use xlink:href="#DejaVuSans-63" x="264.453125"/>
      <use xlink:href="#DejaVuSans-65" x="319.433594"/>
      <use xlink:href="#DejaVuSans-20" x="380.957031"/>
      <use xlink:href="#DejaVuSans-4d" x="412.744141"/>
      <use xlink:href="#DejaVuSans-61" x="499.023438"/>
      <use xlink:href="#DejaVuSans-73" x="560.302734"/>
      <use xlink:href="#DejaVuSans-73" x="612.402344"/>
      <use xlink:href="#DejaVuSans-20" x="664.501953"/>
      <use xlink:href="#DejaVuSans-42" x="696.289062"/>
      <use xlink:href="#DejaVuSans-61" x="764.892578"/>
      <use xlink:href="#DejaVuSans-6c" x="826.171875"/>
      <use xlink:href="#DejaVuSans-61" x="853.955078"/>
      <use xlink:href="#DejaVuSans-6e" x="915.234375"/>
      <use xlink:href="#DejaVuSans-63" x="978.613281"/>
      <use xlink:href="#DejaVuSans-65" x="1033.59375"/>
      <use xlink:href="#DejaVuSans-20" x="1095.117188"/>
      <use xlink:href="#DejaVuSans-5b" x="1126.904297"/>
      <use xlink:href="#DejaVuSans-47" x="1165.917969"/>
      <use xlink:href="#DejaVuSans-74" x="1243.408203"/>
      <use xlink:href="#DejaVuSans-2f" x="1282.617188"/>
      <use xlink:href="#DejaVuSans-6d" x="1316.308594"/>
      <use xlink:href="#DejaVuSans-6f" x="1413.720703"/>
      <use xlink:href="#DejaVuSans-6e" x="1474.902344"/>
      <use xlink:href="#DejaVuSans-74" x="1538.28125"/>
      <use xlink:href="#DejaVuSans-68" x="1577.490234"/>
      <use xlink:href="#DejaVuSans-5d" x="1640.869141"/>
     </g>
    </g>
   </g>
   <g id="line2d_14">
    <path d="M 67.794438 177.349719 
L 68.601757 176.814086 
L 69.409075 173.76645 
L 70.216393 163.040211 
L 71.023712 162.888811 
L 71.83103 161.13652 
L 72.638349 167.940718 
L 73.445667 167.943526 
L 74.252985 168.903441 
L 75.060304 162.548314 
L 75.867622 169.173772 
L 76.67494 169.933611 
L 77.482259 173.260818 
L 78.289577 170.88123 
L 79.096895 161.371858 
L 79.904214 149.580963 
L 80.711532 153.039039 
L 81.51885 154.631464 
L 82.326169 157.434154 
L 83.133487 155.078286 
L 83.940805 162.043328 
L 85.555442 162.439146 
L 86.36276 172.004545 
L 87.170079 168.842095 
L 87.977397 171.384036 
L 88.784715 169.438892 
L 89.592034 158.211488 
L 90.399352 160.899183 
L 91.206671 150.619223 
L 92.013989 146.801924 
L 92.821307 158.466505 
L 93.628626 167.55148 
L 94.435944 165.12738 
L 95.243262 171.992637 
L 96.050581 174.644326 
L 96.857899 175.090302 
L 97.665217 172.104305 
L 98.472536 173.233624 
L 99.279854 165.368015 
L 100.087172 163.824595 
L 100.894491 160.174528 
L 101.701809 153.915886 
L 102.509127 161.862603 
L 103.316446 155.556086 
L 104.123764 156.829759 
L 104.931082 160.024008 
L 105.738401 171.809284 
L 106.545719 176.596747 
L 107.353038 169.955531 
L 108.160356 170.242831 
L 108.967674 163.282028 
L 109.774993 151.277602 
L 111.389629 168.295467 
L 112.196948 167.380851 
L 113.004266 159.651746 
L 113.811584 161.295196 
L 114.618903 167.287419 
L 115.426221 174.583463 
L 116.233539 176.227877 
L 117.040858 174.411304 
L 118.655494 153.985812 
L 119.462813 156.524755 
L 120.270131 155.243097 
L 121.077449 156.3198 
L 121.884768 159.455517 
L 122.692086 163.925084 
L 123.499405 161.042061 
L 124.306723 158.921223 
L 125.114041 170.613998 
L 125.92136 168.179593 
L 126.728678 171.43557 
L 127.535996 171.912946 
L 128.343315 162.952693 
L 129.150633 161.959299 
L 129.957951 150.352589 
L 130.76527 147.723566 
L 131.572588 163.111621 
L 132.379906 165.506841 
L 133.187225 160.817474 
L 133.994543 154.571259 
L 134.801861 161.770765 
L 135.60918 174.987857 
L 136.416498 176.880474 
L 137.223816 171.821062 
L 138.031135 161.709104 
L 138.838453 155.995557 
L 139.645771 164.693945 
L 140.45309 167.206731 
L 141.260408 163.515386 
L 142.067727 169.747436 
L 142.875045 165.254864 
L 143.682363 159.932658 
L 144.489682 169.177014 
L 145.297 176.240368 
L 146.104318 172.37973 
L 146.911637 167.1354 
L 147.718955 164.52896 
L 148.526273 167.510581 
L 149.333592 160.584818 
L 150.14091 161.298536 
L 150.948228 156.730156 
L 151.755547 156.463158 
L 152.562865 163.132581 
L 153.370183 167.108396 
L 154.177502 175.774381 
L 154.98482 175.303749 
L 155.792138 168.326718 
L 156.599457 166.846809 
L 157.406775 163.616017 
L 158.214094 156.89802 
L 159.021412 163.107697 
L 159.82873 162.409775 
L 160.636049 149.883392 
L 161.443367 143.544782 
L 162.250685 160.774974 
L 163.058004 159.753058 
L 163.865322 174.418626 
L 164.67264 173.774023 
L 165.479959 174.510971 
L 166.287277 172.288063 
L 167.094595 160.701642 
L 168.709232 165.42068 
L 169.51655 165.486484 
L 170.323869 161.13298 
L 171.131187 157.875112 
L 171.938505 164.841129 
L 172.745824 164.169994 
L 173.553142 168.568107 
L 174.360461 171.198378 
L 175.167779 168.153598 
L 175.975097 173.590813 
L 176.782416 168.162527 
L 177.589734 159.646021 
L 178.397052 161.130963 
L 180.011689 170.320899 
L 180.819007 165.19755 
L 181.626326 156.727531 
L 182.433644 174.747369 
L 183.240962 173.233499 
L 184.048281 173.369235 
L 184.855599 170.718548 
L 185.662917 165.263577 
L 186.470236 158.017132 
L 187.277554 157.282246 
L 188.084872 161.494298 
L 188.892191 163.688211 
L 189.699509 163.640353 
L 190.506827 162.973122 
L 191.314146 156.427255 
L 192.121464 155.636715 
L 192.928783 169.890359 
L 193.736101 175.063728 
L 194.543419 174.230434 
L 195.350738 164.619502 
L 196.158056 160.922552 
L 196.965374 149.946335 
L 197.772693 155.378157 
L 198.580011 153.407338 
L 199.387329 158.458047 
L 200.194648 166.002214 
L 201.001966 158.770607 
L 201.809284 161.412916 
L 203.423921 170.083662 
L 204.231239 161.073756 
L 205.038558 155.401348 
L 205.845876 165.733746 
L 206.653194 164.824818 
L 208.267831 155.510263 
L 209.07515 153.303427 
L 209.882468 157.723111 
L 210.689786 163.757362 
L 211.497105 164.419948 
L 212.304423 175.899204 
L 213.111741 175.831974 
L 213.91906 174.517618 
L 214.726378 167.48475 
L 215.533696 152.803269 
L 216.341015 156.06582 
L 217.148333 150.636325 
L 217.955651 163.920765 
L 218.76297 167.880269 
L 219.570288 167.925983 
L 220.377606 166.05946 
L 221.184925 162.063322 
L 221.992243 167.700764 
L 222.799561 175.265355 
L 224.414198 164.674334 
L 225.221517 168.128682 
L 226.028835 160.681666 
L 226.836153 158.156445 
L 227.643472 160.138852 
L 228.45079 164.969227 
L 229.258108 163.834967 
L 230.065427 164.579272 
L 230.872745 165.734102 
L 231.680063 171.757952 
L 232.487382 170.684137 
L 233.2947 172.351043 
L 234.102018 169.63207 
L 234.909337 164.366506 
L 235.716655 158.14982 
L 236.523973 166.269238 
L 237.331292 156.107193 
L 238.13861 164.599695 
L 238.945928 166.406578 
L 239.753247 171.928712 
L 240.560565 165.113766 
L 241.367883 173.370352 
L 242.175202 176.447623 
L 242.98252 175.003111 
L 243.789839 166.80983 
L 244.597157 159.977426 
L 245.404475 155.984783 
L 246.211794 148.687783 
L 247.019112 155.245653 
L 247.82643 158.374019 
L 248.633749 165.710834 
L 249.441067 160.489691 
L 250.248385 162.035807 
L 251.055704 169.504232 
L 251.863022 172.346953 
L 252.67034 169.338626 
L 253.477659 159.013651 
L 254.284977 159.678337 
L 255.899614 142.086977 
L 256.706932 159.180373 
L 257.51425 171.509881 
L 258.321569 168.050198 
L 259.128887 167.302954 
L 259.936206 169.593824 
L 260.743524 166.655399 
L 261.550842 177.288265 
L 262.358161 173.334868 
L 263.165479 170.217161 
L 263.972797 163.214262 
L 264.780116 164.592961 
L 265.587434 159.985468 
L 266.394752 167.396615 
L 267.202071 162.133154 
L 268.009389 165.689125 
L 268.816707 157.404676 
L 269.624026 154.199841 
L 270.431344 162.47542 
L 272.045981 173.529216 
L 272.853299 159.858872 
L 273.660617 153.410234 
L 274.467936 169.721527 
L 275.275254 158.470273 
L 276.082572 152.494457 
L 276.889891 154.130932 
L 277.697209 166.795365 
L 278.504528 155.762327 
L 279.311846 159.499193 
L 280.119164 165.178678 
L 280.926483 177.511341 
L 281.733801 172.763064 
L 282.541119 168.834618 
L 283.348438 162.071629 
L 284.155756 160.626646 
L 284.963074 153.364316 
L 285.770393 160.628613 
L 286.577711 166.725097 
L 287.385029 170.168167 
L 288.192348 161.565098 
L 288.999666 168.739334 
L 289.806984 172.961462 
L 290.614303 174.167084 
L 291.421621 170.762051 
L 292.228939 164.797105 
L 293.036258 154.885925 
L 293.843576 154.640913 
L 294.650895 155.68083 
L 295.458213 162.698282 
L 296.265531 160.625404 
L 297.07285 153.485016 
L 297.880168 155.832088 
L 298.687486 170.066455 
L 299.494805 173.282771 
L 300.302123 173.536521 
L 301.109441 172.571889 
L 301.91676 169.17455 
L 302.724078 152.834521 
L 303.531396 147.380406 
L 304.338715 156.459103 
L 305.146033 167.360817 
L 305.953351 168.206215 
L 306.76067 163.000947 
L 307.567988 159.191775 
L 308.375306 160.499275 
L 309.182625 175.762789 
L 309.989943 175.975235 
L 310.797262 173.092452 
L 311.60458 165.585847 
L 312.411898 157.032528 
L 313.219217 154.81516 
L 314.026535 151.38796 
L 314.833853 161.474008 
L 315.641172 165.164997 
L 316.44849 168.116307 
L 317.255808 164.215723 
L 318.063127 162.681035 
L 318.870445 164.216929 
L 319.677763 175.953387 
L 320.485082 173.328681 
L 321.2924 167.76301 
L 322.099718 160.933237 
L 322.907037 157.430314 
L 323.714355 153.21941 
L 324.521673 152.864363 
L 325.328992 158.598548 
L 326.13631 155.638172 
L 326.943628 147.127471 
L 327.750947 154.62817 
L 328.558265 165.602275 
L 329.365584 174.36884 
L 330.172902 167.300123 
L 330.98022 166.943803 
L 331.787539 171.050043 
L 332.594857 163.668209 
L 333.402175 157.736136 
L 334.209494 159.004093 
L 335.016812 158.302916 
L 335.82413 168.346716 
L 336.631449 166.847269 
L 337.438767 164.116927 
L 338.246085 169.991086 
L 339.053404 176.995783 
L 340.66804 169.100969 
L 342.282677 152.612215 
L 343.089995 150.214496 
L 343.897314 153.599226 
L 344.704632 161.581141 
L 345.511951 164.40232 
L 346.319269 161.441233 
L 347.126587 172.502534 
L 347.933906 171.199476 
L 348.741224 164.890584 
L 349.548542 169.236972 
L 350.355861 163.669089 
L 351.163179 164.50432 
L 351.970497 162.559641 
L 352.777816 161.423603 
L 353.585134 159.301535 
L 354.392452 153.890745 
L 355.199771 152.806156 
L 356.007089 155.810377 
L 356.814407 169.9025 
L 357.621726 175.679255 
L 358.429044 177.084559 
L 359.236362 174.489811 
L 360.043681 168.156499 
L 360.850999 160.629166 
L 361.658318 162.400519 
L 362.465636 166.621465 
L 363.272954 168.187144 
L 364.080273 160.400164 
L 364.887591 163.484067 
L 365.694909 165.348881 
L 366.502228 166.784936 
L 367.309546 166.756665 
L 368.116864 176.708961 
L 368.924183 175.513448 
L 369.731501 168.546515 
L 370.538819 166.99133 
L 371.346138 169.166658 
L 372.153456 168.765334 
L 372.960774 160.911293 
L 373.768093 155.999624 
L 374.575411 155.014579 
L 375.382729 162.598704 
L 376.997366 171.686834 
L 377.804684 180.37489 
L 378.612003 177.591282 
L 380.22664 165.845782 
L 381.033958 165.438555 
L 382.648595 156.065013 
L 383.455913 148.601539 
L 384.263231 155.850435 
L 385.07055 169.605313 
L 385.877868 167.615876 
L 386.685186 168.747917 
L 387.492505 174.103753 
L 388.299823 169.776495 
L 389.107141 163.696151 
L 389.91446 156.704863 
L 390.721778 152.408113 
L 391.529096 153.494914 
L 392.336415 168.404335 
L 393.143733 165.19523 
L 393.951051 168.458751 
L 394.75837 165.683698 
L 395.565688 170.770569 
L 396.373007 174.818366 
L 397.180325 172.699404 
L 397.987643 171.898795 
L 398.794962 157.796505 
L 399.60228 156.435117 
L 400.409598 166.834468 
L 401.216917 168.064534 
L 402.024235 170.630341 
L 402.831553 161.378523 
L 403.638872 160.034635 
L 405.253508 170.091626 
L 406.060827 172.545874 
L 406.868145 173.922283 
L 407.675463 173.653543 
L 408.482782 168.385131 
L 409.2901 160.321214 
L 410.097418 149.312918 
L 410.904737 156.579837 
L 411.712055 158.852729 
L 412.519374 160.040048 
L 413.326692 151.778946 
L 414.13401 153.450787 
L 414.941329 157.971932 
L 415.748647 179.050677 
L 416.555965 175.72379 
L 417.363284 173.058258 
L 418.170602 164.24215 
L 418.97792 162.360822 
L 419.785239 158.173567 
L 420.592557 156.920622 
L 421.399875 167.73504 
L 422.207194 166.57809 
L 423.014512 165.991049 
L 423.82183 159.995346 
L 424.629149 163.683808 
L 425.436467 166.719763 
L 426.243785 163.573472 
L 427.051104 167.368904 
L 427.858422 166.703407 
L 428.66574 167.987633 
L 430.280377 149.546566 
L 431.087696 156.61202 
L 431.895014 160.769629 
L 432.702332 159.838105 
L 433.509651 154.517307 
L 434.316969 157.11138 
L 435.124287 173.769797 
L 435.931606 172.584617 
L 436.738924 169.88303 
L 437.546242 164.415471 
L 438.353561 157.703643 
L 439.160879 157.361413 
L 439.968197 154.415279 
L 441.582834 164.14193 
L 442.390152 164.886933 
L 443.197471 170.167635 
L 444.004789 165.49753 
L 444.812107 167.63864 
L 445.619426 181.365233 
L 446.426744 176.976416 
L 447.234063 170.818912 
L 448.041381 161.24189 
L 448.848699 165.102488 
L 449.656018 164.09531 
L 450.463336 163.797675 
L 451.270654 159.974986 
L 452.077973 167.275521 
L 452.885291 157.238185 
L 453.692609 152.444059 
L 454.499928 172.345429 
L 455.307246 174.785494 
L 456.114564 173.51577 
L 456.921883 164.080771 
L 457.729201 160.71369 
L 458.536519 162.99611 
L 459.343838 160.846138 
L 460.151156 148.445555 
L 460.958474 146.861561 
L 461.765793 146.249536 
L 463.38043 167.483818 
L 464.187748 171.281487 
L 464.995066 176.770714 
L 465.802385 172.156778 
L 466.609703 157.446659 
L 467.417021 155.635164 
L 468.22434 154.164292 
L 469.031658 144.011001 
L 470.646295 153.480625 
L 471.453613 171.506392 
L 473.06825 165.566037 
L 473.875568 172.615518 
L 474.682886 169.488905 
L 475.490205 171.110259 
L 476.297523 168.061827 
L 477.104841 166.409365 
L 478.719478 155.555044 
L 479.526796 162.217864 
L 480.334115 163.82178 
L 481.141433 169.083513 
L 481.948752 168.982834 
L 482.75607 166.55814 
L 484.370707 168.544266 
L 484.370707 168.544266 
" clip-path="url(#pb036ee862e)" style="fill: none; stroke: #000000; stroke-width: 1.5; stroke-linecap: square"/>
   </g>
   <g id="patch_3">
    <path d="M 46.965625 186.84327 
L 46.965625 22.318125 
" style="fill: none; stroke: #000000; stroke-width: 0.8; stroke-linejoin: miter; stroke-linecap: square"/>
   </g>
   <g id="patch_4">
    <path d="M 505.19952 186.84327 
L 505.19952 22.318125 
" style="fill: none; stroke: #000000; stroke-width: 0.8; stroke-linejoin: miter; stroke-linecap: square"/>
   </g>
   <g id="patch_5">
    <path d="M 46.965625 186.84327 
L 505.19952 186.84327 
" style="fill: none; stroke: #000000; stroke-width: 0.8; stroke-linejoin: miter; stroke-linecap: square"/>
   </g>
   <g id="patch_6">
    <path d="M 46.965625 22.318125 
L 505.19952 22.318125 
" style="fill: none; stroke: #000000; stroke-width: 0.8; stroke-linejoin: miter; stroke-linecap: square"/>
   </g>
   <g id="text_16">
    <!-- West Antarctica -->
    <g transform="translate(228.864448 16.318125) scale(0.12 -0.12)">
     <defs>
      <path id="DejaVuSans-57" d="M 213 4666 
L 850 4666 
L 1831 722 
L 2809 4666 
L 3519 4666 
L 4500 722 
L 5478 4666 
L 6119 4666 
L 4947 0 
L 4153 0 
L 3169 4050 
L 2175 0 
L 1381 0 
L 213 4666 
z
" transform="scale(0.015625)"/>
      <path id="DejaVuSans-41" d="M 2188 4044 
L 1331 1722 
L 3047 1722 
L 2188 4044 
z
M 1831 4666 
L 2547 4666 
L 4325 0 
L 3669 0 
L 3244 1197 
L 1141 1197 
L 716 0 
L 50 0 
L 1831 4666 
z
" transform="scale(0.015625)"/>
      <path id="DejaVuSans-69" d="M 603 3500 
L 1178 3500 
L 1178 0 
L 603 0 
L 603 3500 
z
M 603 4863 
L 1178 4863 
L 1178 4134 
L 603 4134 
L 603 4863 
z
" transform="scale(0.015625)"/>
     </defs>
     <use xlink:href="#DejaVuSans-57"/>
     <use xlink:href="#DejaVuSans-65" x="93.001953"/>
     <use xlink:href="#DejaVuSans-73" x="154.525391"/>
     <use xlink:href="#DejaVuSans-74" x="206.625"/>
     <use xlink:href="#DejaVuSans-20" x="245.833984"/>
     <use xlink:href="#DejaVuSans-41" x="277.621094"/>
     <use xlink:href="#DejaVuSans-6e" x="346.029297"/>
     <use xlink:href="#DejaVuSans-74" x="409.408203"/>
     <use xlink:href="#DejaVuSans-61" x="448.617188"/>
     <use xlink:href="#DejaVuSans-72" x="509.896484"/>
     <use xlink:href="#DejaVuSans-63" x="548.759766"/>
     <use xlink:href="#DejaVuSans-74" x="603.740234"/>
     <use xlink:href="#DejaVuSans-69" x="642.949219"/>
     <use xlink:href="#DejaVuSans-63" x="670.732422"/>
     <use xlink:href="#DejaVuSans-61" x="725.712891"/>
    </g>
   </g>
  </g>
 </g>
 <defs>
  <clipPath id="pb036ee862e">
   <rect x="46.965625" y="22.318125" width="458.233895" height="164.525145"/>
  </clipPath>
 </defs>
</svg>
