<?xml version="1.0" encoding="utf-8" standalone="no"?>
<!DOCTYPE svg PUBLIC "-//W3C//DTD SVG 1.1//EN"
  "http://www.w3.org/Graphics/SVG/1.1/DTD/svg11.dtd">
<svg xmlns:xlink="http://www.w3.org/1999/xlink" width="512.39952pt" height="224.39952pt" viewBox="0 0 512.39952 224.39952" xmlns="http://www.w3.org/2000/svg" version="1.1">
 <metadata>
  <rdf:RDF xmlns:dc="http://purl.org/dc/elements/1.1/" xmlns:cc="http://creativecommons.org/ns#" xmlns:rdf="http://www.w3.org/1999/02/22-rdf-syntax-ns#">
   <cc:Work>
    <dc:type rdf:resource="http://purl.org/dc/dcmitype/StillImage"/>
    <dc:date>2023-01-19T13:01:53.101514</dc:date>
    <dc:format>image/svg+xml</dc:format>
    <dc:creator>
     <cc:Agent>
      <dc:title>Matplotlib v3.6.2, https://matplotlib.org/</dc:title>
     </cc:Agent>
    </dc:creator>
   </cc:Work>
  </rdf:RDF>
 </metadata>
 <defs>
  <style type="text/css">*{stroke-linejoin: round; stroke-linecap: butt}</style>
 </defs>
 <g id="figure_1">
  <g id="patch_1">
   <path d="M 0 224.39952 
L 512.39952 224.39952 
L 512.39952 0 
L 0 0 
z
" style="fill: #ffffff"/>
  </g>
  <g id="axes_1">
   <g id="patch_2">
    <path d="M 46.965625 186.84327 
L 505.19952 186.84327 
L 505.19952 10.999219 
L 46.965625 10.999219 
z
" style="fill: #ffffff"/>
   </g>
   <g id="PolyCollection_1">
    <path d="M 67.794438 118.616702 
L 67.794438 141.358892 
L 68.601757 135.596586 
L 69.409075 105.682343 
L 70.216393 89.691979 
L 71.023712 94.522317 
L 71.83103 96.083463 
L 72.638349 100.533525 
L 73.445667 95.569292 
L 74.252985 99.859779 
L 75.060304 106.074342 
L 75.867622 105.648621 
L 76.67494 128.35901 
L 77.482259 140.238748 
L 78.289577 121.43593 
L 79.096895 92.123903 
L 79.904214 78.309259 
L 80.711532 81.525927 
L 81.51885 73.246101 
L 82.326169 89.388839 
L 83.133487 80.696209 
L 83.940805 106.051771 
L 84.748124 102.79445 
L 85.555442 115.292182 
L 86.36276 134.880834 
L 87.170079 134.266763 
L 87.977397 123.750108 
L 88.784715 108.75662 
L 89.592034 92.319469 
L 90.399352 82.093293 
L 91.206671 65.668424 
L 92.013989 55.792056 
L 92.821307 74.513618 
L 93.628626 93.575103 
L 94.435944 103.369229 
L 95.243262 113.896649 
L 96.050581 117.631236 
L 96.857899 128.227548 
L 97.665217 133.279293 
L 98.472536 121.715608 
L 99.279854 94.732825 
L 100.087172 81.533378 
L 100.894491 55.607463 
L 101.701809 59.312922 
L 102.509127 93.056517 
L 103.316446 102.159983 
L 104.123764 93.073663 
L 104.931082 106.83133 
L 105.738401 132.061426 
L 106.545719 139.908551 
L 107.353038 131.328234 
L 108.160356 115.859432 
L 108.967674 94.964707 
L 109.774993 82.042364 
L 110.582311 84.837533 
L 111.389629 97.940566 
L 112.196948 107.580996 
L 113.004266 87.656941 
L 113.811584 89.558336 
L 114.618903 120.821736 
L 115.426221 129.744444 
L 116.233539 132.376107 
L 117.040858 127.616255 
L 117.848176 102.82027 
L 118.655494 66.844034 
L 119.462813 77.93415 
L 120.270131 84.146806 
L 121.077449 102.599004 
L 121.884768 91.809661 
L 122.692086 90.423976 
L 123.499405 93.815283 
L 124.306723 102.669388 
L 125.114041 129.0093 
L 125.92136 130.316327 
L 126.728678 131.958696 
L 127.535996 120.407345 
L 128.343315 92.033761 
L 129.150633 92.224703 
L 129.957951 86.846824 
L 130.76527 72.25613 
L 131.572588 77.893157 
L 132.379906 95.745865 
L 133.187225 100.536944 
L 133.994543 103.239769 
L 134.801861 107.841507 
L 135.60918 131.452918 
L 136.416498 131.849564 
L 137.223816 113.146644 
L 138.031135 93.527401 
L 138.838453 95.929931 
L 139.645771 107.392771 
L 140.45309 98.27984 
L 141.260408 90.810213 
L 142.067727 99.726206 
L 142.875045 93.420483 
L 143.682363 94.716106 
L 144.489682 130.870891 
L 145.297 140.070075 
L 146.104318 132.131677 
L 146.911637 113.672629 
L 147.718955 102.339577 
L 148.526273 114.183929 
L 149.333592 99.133456 
L 150.14091 95.862675 
L 150.948228 101.858366 
L 151.755547 102.998015 
L 152.562865 106.963266 
L 153.370183 109.673027 
L 154.177502 132.799074 
L 154.98482 141.82052 
L 155.792138 121.687473 
L 156.599457 114.895618 
L 157.406775 89.574388 
L 158.214094 82.836741 
L 159.021412 97.866387 
L 159.82873 104.049127 
L 160.636049 84.963339 
L 161.443367 79.840031 
L 162.250685 104.334924 
L 163.058004 124.148971 
L 163.865322 140.042097 
L 164.67264 143.440648 
L 165.479959 137.928436 
L 166.287277 108.10205 
L 167.094595 98.020601 
L 167.901914 97.249359 
L 168.709232 93.524243 
L 169.51655 92.19145 
L 170.323869 82.975396 
L 171.131187 88.484212 
L 171.938505 95.886419 
L 172.745824 108.956473 
L 173.553142 128.364015 
L 174.360461 127.409623 
L 175.167779 121.46332 
L 175.975097 113.376903 
L 176.782416 102.339468 
L 177.589734 96.314371 
L 178.397052 104.169255 
L 179.204371 96.716907 
L 180.011689 89.8336 
L 180.819007 100.421223 
L 181.626326 104.089249 
L 182.433644 126.99141 
L 183.240962 123.505733 
L 184.048281 133.431178 
L 184.855599 117.713568 
L 185.662917 98.507624 
L 186.470236 78.156253 
L 187.277554 86.266309 
L 188.084872 92.764661 
L 188.892191 94.900346 
L 189.699509 93.029288 
L 190.506827 96.855585 
L 191.314146 98.528607 
L 192.121464 107.957351 
L 192.928783 134.293446 
L 193.736101 146.299996 
L 194.543419 134.110523 
L 195.350738 110.208621 
L 196.158056 85.409558 
L 196.965374 67.083731 
L 197.772693 86.458989 
L 198.580011 87.64573 
L 199.387329 80.37341 
L 200.194648 87.848059 
L 201.001966 107.568977 
L 201.809284 99.012326 
L 202.616603 101.10591 
L 203.423921 132.688169 
L 204.231239 113.639366 
L 205.038558 84.744938 
L 205.845876 99.86432 
L 206.653194 106.279364 
L 207.460513 99.022336 
L 208.267831 89.128456 
L 209.07515 79.907328 
L 209.882468 89.671057 
L 210.689786 106.980046 
L 211.497105 114.08563 
L 212.304423 130.610825 
L 213.111741 126.525012 
L 213.91906 138.150511 
L 214.726378 112.830608 
L 215.533696 94.226876 
L 216.341015 95.17166 
L 217.148333 92.598913 
L 217.955651 110.477966 
L 218.76297 108.663464 
L 219.570288 103.464 
L 220.377606 100.17778 
L 221.184925 117.443808 
L 221.992243 128.184159 
L 222.799561 131.27365 
L 223.60688 122.490258 
L 224.414198 107.127656 
L 225.221517 100.38126 
L 226.028835 86.948602 
L 226.836153 93.511046 
L 227.643472 88.460481 
L 228.45079 94.99538 
L 229.258108 90.329991 
L 230.065427 102.645716 
L 230.872745 118.879987 
L 231.680063 136.358969 
L 232.487382 129.903345 
L 233.2947 124.763083 
L 234.102018 99.768453 
L 234.909337 82.010827 
L 235.716655 87.086122 
L 236.523973 103.623704 
L 237.331292 77.136272 
L 238.13861 88.961323 
L 238.945928 107.664084 
L 239.753247 113.074317 
L 240.560565 113.87623 
L 241.367883 127.017565 
L 242.175202 141.208586 
L 242.98252 130.846167 
L 243.789839 104.677043 
L 244.597157 90.921348 
L 245.404475 93.397793 
L 246.211794 86.288063 
L 247.019112 93.521829 
L 247.82643 100.652506 
L 248.633749 112.715725 
L 249.441067 108.863329 
L 250.248385 121.579352 
L 251.055704 130.949196 
L 251.863022 142.206177 
L 252.67034 130.948865 
L 253.477659 102.676262 
L 254.284977 89.736685 
L 255.092295 64.02287 
L 255.899614 60.481353 
L 256.706932 91.223961 
L 257.51425 95.892071 
L 258.321569 101.302587 
L 259.128887 114.865494 
L 259.936206 120.378389 
L 260.743524 115.164151 
L 261.550842 134.558125 
L 262.358161 133.708387 
L 263.165479 111.330304 
L 263.972797 104.762625 
L 264.780116 93.049973 
L 265.587434 91.837424 
L 266.394752 115.623473 
L 267.202071 99.943252 
L 268.009389 107.879589 
L 268.816707 99.560434 
L 269.624026 85.76579 
L 270.431344 116.544232 
L 271.238662 127.691292 
L 272.045981 130.982156 
L 272.853299 102.065595 
L 273.660617 92.70606 
L 274.467936 107.645113 
L 275.275254 85.30236 
L 276.082572 92.951249 
L 276.889891 87.024306 
L 277.697209 93.754782 
L 278.504528 97.472201 
L 279.311846 112.143668 
L 280.119164 126.705664 
L 280.926483 150.490504 
L 281.733801 122.998123 
L 282.541119 113.554248 
L 283.348438 94.258456 
L 284.155756 85.705911 
L 284.963074 79.431576 
L 285.770393 94.113012 
L 286.577711 99.444283 
L 287.385029 108.056851 
L 288.192348 97.638229 
L 288.999666 106.513874 
L 289.806984 105.99127 
L 290.614303 99.546267 
L 291.421621 105.069884 
L 292.228939 101.064001 
L 293.036258 79.563845 
L 293.843576 82.14585 
L 294.650895 95.081619 
L 295.458213 100.736501 
L 296.265531 92.693347 
L 297.07285 86.560585 
L 297.880168 105.976717 
L 298.687486 124.593186 
L 299.494805 133.746413 
L 300.302123 128.092978 
L 301.109441 121.863809 
L 301.91676 110.298138 
L 302.724078 85.311191 
L 303.531396 77.733435 
L 304.338715 97.190022 
L 305.146033 108.93329 
L 305.953351 96.372786 
L 306.76067 90.582482 
L 307.567988 99.578938 
L 308.375306 120.600029 
L 309.182625 141.546441 
L 309.989943 147.980513 
L 310.797262 119.684058 
L 311.60458 102.837831 
L 312.411898 84.699412 
L 313.219217 83.283021 
L 314.026535 82.204917 
L 314.833853 84.668232 
L 315.641172 88.46211 
L 316.44849 88.2935 
L 317.255808 108.929317 
L 318.063127 112.17284 
L 318.870445 124.748106 
L 319.677763 147.352874 
L 320.485082 126.820296 
L 321.2924 103.088865 
L 322.099718 86.82933 
L 322.907037 96.769777 
L 323.714355 86.215087 
L 324.521673 87.794884 
L 325.328992 93.500344 
L 326.13631 83.686584 
L 326.943628 71.749014 
L 327.750947 85.009439 
L 328.558265 123.193 
L 329.365584 137.022232 
L 330.172902 121.037918 
L 330.98022 109.506616 
L 331.787539 94.633512 
L 332.594857 87.839717 
L 333.402175 84.885296 
L 334.209494 88.922799 
L 335.016812 97.210869 
L 335.82413 119.309173 
L 336.631449 108.014243 
L 337.438767 97.538895 
L 338.246085 122.667653 
L 339.053404 142.941901 
L 339.860722 133.63128 
L 340.66804 118.079318 
L 341.475359 91.346378 
L 342.282677 85.196909 
L 343.089995 86.852883 
L 343.897314 99.551953 
L 344.704632 107.87395 
L 345.511951 106.119304 
L 346.319269 105.864896 
L 347.126587 121.958767 
L 347.933906 125.684628 
L 348.741224 128.413352 
L 349.548542 127.010244 
L 350.355861 109.924345 
L 351.163179 99.879904 
L 351.970497 91.02882 
L 352.777816 103.263629 
L 353.585134 102.110299 
L 354.392452 77.463881 
L 355.199771 70.457145 
L 356.007089 99.747102 
L 356.814407 114.81991 
L 357.621726 116.73256 
L 358.429044 131.968075 
L 359.236362 117.517205 
L 360.043681 93.054858 
L 360.850999 96.096446 
L 361.658318 94.120351 
L 362.465636 80.147542 
L 363.272954 80.060439 
L 364.080273 75.893836 
L 364.887591 97.901309 
L 365.694909 100.671807 
L 366.502228 116.832944 
L 367.309546 129.989586 
L 368.116864 144.617631 
L 368.924183 132.488712 
L 369.731501 115.297085 
L 370.538819 115.427817 
L 371.346138 112.590189 
L 372.153456 101.537956 
L 372.960774 94.437896 
L 373.768093 88.673166 
L 374.575411 86.108389 
L 375.382729 89.89069 
L 376.190048 94.472428 
L 376.997366 117.144063 
L 377.804684 137.584416 
L 378.612003 127.507304 
L 379.419321 108.164679 
L 380.22664 104.180125 
L 381.033958 97.305392 
L 381.841276 97.977995 
L 382.648595 82.747007 
L 383.455913 67.300461 
L 384.263231 89.789425 
L 385.07055 113.988274 
L 385.877868 114.605884 
L 386.685186 127.429769 
L 387.492505 116.125175 
L 388.299823 124.275834 
L 389.107141 101.773614 
L 389.91446 94.753475 
L 390.721778 87.608846 
L 391.529096 77.683896 
L 392.336415 98.098675 
L 393.143733 101.893594 
L 393.951051 98.32836 
L 394.75837 114.817549 
L 395.565688 129.71233 
L 396.373007 141.471823 
L 397.180325 141.264223 
L 397.987643 121.295686 
L 398.794962 96.668608 
L 399.60228 86.777845 
L 400.409598 94.474658 
L 401.216917 101.866621 
L 402.024235 104.146619 
L 402.831553 100.772591 
L 403.638872 89.278146 
L 404.44619 95.230942 
L 405.253508 123.882853 
L 406.060827 126.756056 
L 406.868145 139.659146 
L 407.675463 136.301929 
L 408.482782 111.8573 
L 409.2901 95.936679 
L 410.097418 77.115874 
L 410.904737 88.461391 
L 411.712055 102.349628 
L 412.519374 98.259385 
L 413.326692 95.904831 
L 414.13401 107.678436 
L 414.941329 115.52994 
L 415.748647 147.44388 
L 416.555965 143.417134 
L 417.363284 128.888427 
L 418.170602 103.834664 
L 418.97792 89.068479 
L 419.785239 83.047621 
L 420.592557 92.257867 
L 421.399875 109.785333 
L 422.207194 91.55435 
L 423.014512 90.576543 
L 423.82183 104.026618 
L 424.629149 119.997999 
L 425.436467 117.46807 
L 426.243785 125.228434 
L 427.051104 121.541363 
L 427.858422 104.727075 
L 428.66574 98.499231 
L 429.473059 81.640872 
L 430.280377 64.749477 
L 431.087696 81.198918 
L 431.895014 91.505644 
L 432.702332 91.298996 
L 433.509651 82.996145 
L 434.316969 97.248262 
L 435.124287 132.395128 
L 435.931606 143.322593 
L 436.738924 127.132346 
L 437.546242 100.467509 
L 438.353561 96.391156 
L 439.160879 86.202389 
L 439.968197 86.460505 
L 440.775516 102.817731 
L 441.582834 92.550633 
L 442.390152 95.079833 
L 443.197471 105.750981 
L 444.004789 113.924629 
L 444.812107 119.389915 
L 445.619426 148.642848 
L 446.426744 130.751625 
L 447.234063 98.764271 
L 448.041381 90.729861 
L 448.848699 97.43243 
L 449.656018 99.638161 
L 450.463336 96.110443 
L 451.270654 94.895141 
L 452.077973 106.398595 
L 452.885291 95.348526 
L 453.692609 97.877362 
L 454.499928 129.883761 
L 455.307246 142.040978 
L 456.114564 128.428668 
L 456.921883 105.379237 
L 457.729201 98.501046 
L 458.536519 100.275575 
L 459.343838 97.404044 
L 460.151156 77.212973 
L 460.958474 75.193161 
L 461.765793 89.302074 
L 462.573111 101.687452 
L 463.38043 115.036237 
L 464.187748 139.438855 
L 464.995066 146.321232 
L 465.802385 126.858205 
L 466.609703 95.950484 
L 467.417021 81.283742 
L 468.22434 77.523591 
L 469.031658 71.657411 
L 469.838976 72.731753 
L 470.646295 87.738334 
L 471.453613 112.04983 
L 472.260931 102.496202 
L 473.06825 108.547374 
L 473.875568 119.279521 
L 474.682886 127.155212 
L 475.490205 123.389685 
L 476.297523 110.817863 
L 477.104841 90.239265 
L 477.91216 94.995582 
L 478.719478 86.023155 
L 479.526796 93.54334 
L 480.334115 93.777771 
L 481.141433 99.061725 
L 481.948752 92.736299 
L 482.75607 90.616713 
L 483.563388 106.292231 
L 484.370707 98.976208 
L 484.370707 96.267808 
L 484.370707 96.267808 
L 483.563388 93.479945 
L 482.75607 77.776114 
L 481.948752 78.540924 
L 481.141433 89.753221 
L 480.334115 83.807466 
L 479.526796 83.421153 
L 478.719478 76.00933 
L 477.91216 84.811504 
L 477.104841 80.291209 
L 476.297523 100.863741 
L 475.490205 116.196358 
L 474.682886 119.966145 
L 473.875568 111.986295 
L 473.06825 100.423304 
L 472.260931 93.206035 
L 471.453613 103.290523 
L 470.646295 78.586655 
L 469.838976 60.631085 
L 469.031658 59.878697 
L 468.22434 66.018928 
L 467.417021 69.882218 
L 466.609703 84.963078 
L 465.802385 118.678099 
L 464.995066 140.735147 
L 464.187748 134.135441 
L 463.38043 108.00266 
L 462.573111 92.816287 
L 461.765793 79.205631 
L 460.958474 63.71493 
L 460.151156 65.895023 
L 459.343838 86.823322 
L 458.536519 91.159755 
L 457.729201 89.093737 
L 456.921883 95.425792 
L 456.114564 120.404617 
L 455.307246 136.295665 
L 454.499928 123.951482 
L 453.692609 89.282908 
L 452.885291 85.187926 
L 452.077973 97.70395 
L 451.270654 86.136605 
L 450.463336 86.08038 
L 449.656018 90.459385 
L 448.848699 87.754171 
L 448.041381 80.580983 
L 447.234063 88.07145 
L 446.426744 122.972839 
L 445.619426 143.577093 
L 444.812107 113.186075 
L 444.004789 105.004652 
L 443.197471 97.796782 
L 442.390152 85.376085 
L 441.582834 82.613037 
L 440.775516 93.58453 
L 439.968197 76.696422 
L 439.160879 75.071147 
L 438.353561 86.825192 
L 437.546242 90.149533 
L 436.738924 118.674093 
L 435.931606 137.304333 
L 435.124287 126.826611 
L 434.316969 89.155583 
L 433.509651 72.262799 
L 432.702332 80.989542 
L 431.895014 81.66469 
L 431.087696 70.229027 
L 430.280377 52.989005 
L 429.473059 68.91144 
L 428.66574 89.018395 
L 427.858422 95.368285 
L 427.051104 113.539152 
L 426.243785 118.149552 
L 425.436467 109.522657 
L 424.629149 112.285694 
L 423.82183 95.974627 
L 423.014512 80.317915 
L 422.207194 81.198215 
L 421.399875 100.323015 
L 420.592557 83.185486 
L 419.785239 71.208368 
L 418.97792 78.566818 
L 418.170602 93.591785 
L 417.363284 121.587466 
L 416.555965 137.184491 
L 415.748647 142.546511 
L 414.941329 108.942299 
L 414.13401 98.689914 
L 413.326692 87.077572 
L 412.519374 88.935564 
L 411.712055 93.298697 
L 410.904737 78.666682 
L 410.097418 65.656312 
L 409.2901 85.251045 
L 408.482782 102.827825 
L 407.675463 129.147756 
L 406.868145 133.687683 
L 406.060827 120.3726 
L 405.253508 116.584667 
L 404.44619 86.514192 
L 403.638872 78.255082 
L 402.831553 91.559464 
L 402.024235 95.379911 
L 401.216917 92.603298 
L 400.409598 84.839309 
L 399.60228 76.553125 
L 398.794962 86.276772 
L 397.987643 112.946853 
L 397.180325 134.56578 
L 396.373007 136.311726 
L 395.565688 123.752652 
L 394.75837 107.632441 
L 393.951051 89.670448 
L 393.143733 92.757273 
L 392.336415 89.08589 
L 391.529096 66.619968 
L 390.721778 76.003733 
L 389.91446 85.068455 
L 389.107141 91.792366 
L 388.299823 116.180303 
L 387.492505 108.634846 
L 386.685186 119.315526 
L 385.877868 107.815023 
L 385.07055 105.708762 
L 384.263231 80.588043 
L 383.455913 55.109179 
L 382.648595 70.89483 
L 381.841276 88.720406 
L 381.033958 87.410881 
L 380.22664 94.567539 
L 379.419321 99.092674 
L 378.612003 119.895698 
L 377.804684 131.27897 
L 376.997366 110.377852 
L 376.190048 85.347562 
L 375.382729 79.682924 
L 374.575411 75.653092 
L 373.768093 78.440822 
L 372.960774 84.43872 
L 372.153456 92.589862 
L 371.346138 104.033336 
L 370.538819 107.313164 
L 369.731501 106.864897 
L 368.924183 125.105868 
L 368.116864 139.003785 
L 367.309546 124.324187 
L 366.502228 109.66731 
L 365.694909 92.272286 
L 364.887591 88.231489 
L 364.080273 64.767961 
L 363.272954 67.851403 
L 362.465636 68.905217 
L 361.658318 83.198386 
L 360.850999 86.883629 
L 360.043681 81.869053 
L 359.236362 108.419254 
L 358.429044 124.856843 
L 357.621726 109.24974 
L 356.814407 106.702586 
L 356.007089 91.841194 
L 355.199771 58.954333 
L 354.392452 66.086812 
L 353.585134 91.975874 
L 352.777816 95.372894 
L 351.970497 81.139827 
L 351.163179 90.003004 
L 350.355861 101.448088 
L 349.548542 119.491048 
L 348.741224 122.10252 
L 347.933906 118.591793 
L 347.126587 115.097688 
L 346.319269 97.680335 
L 345.511951 97.407252 
L 344.704632 99.470537 
L 343.897314 90.429039 
L 343.089995 76.493186 
L 342.282677 74.414121 
L 341.475359 80.978155 
L 340.66804 108.795094 
L 339.860722 127.377152 
L 339.053404 137.759972 
L 338.246085 116.387194 
L 337.438767 88.443634 
L 336.631449 98.431325 
L 335.82413 111.867443 
L 335.016812 88.848577 
L 334.209494 78.277827 
L 333.402175 74.71016 
L 332.594857 76.940061 
L 331.787539 84.508955 
L 330.98022 100.146658 
L 330.172902 113.280187 
L 329.365584 130.592914 
L 328.558265 116.370335 
L 327.750947 75.480956 
L 326.943628 59.452593 
L 326.13631 72.412793 
L 325.328992 83.094919 
L 324.521673 77.324865 
L 323.714355 75.105331 
L 322.907037 86.487094 
L 322.099718 76.595731 
L 321.2924 93.181777 
L 320.485082 118.822881 
L 319.677763 141.835578 
L 318.870445 118.748366 
L 318.063127 104.438466 
L 317.255808 101.097455 
L 316.44849 78.514046 
L 315.641172 77.900438 
L 314.833853 74.286014 
L 314.026535 71.015617 
L 313.219217 72.446665 
L 312.411898 73.586509 
L 311.60458 92.404211 
L 310.797262 111.181356 
L 309.989943 142.331633 
L 309.182625 136.72535 
L 308.375306 114.104601 
L 307.567988 90.665929 
L 306.76067 80.74129 
L 305.953351 86.282859 
L 305.146033 100.098692 
L 304.338715 88.738167 
L 303.531396 67.005305 
L 302.724078 73.686789 
L 301.91676 100.929481 
L 301.109441 113.869309 
L 300.302123 121.508623 
L 299.494805 127.326537 
L 298.687486 118.072953 
L 297.880168 97.653378 
L 297.07285 76.84333 
L 296.265531 81.927208 
L 295.458213 91.359501 
L 294.650895 85.235693 
L 293.843576 71.44819 
L 293.036258 68.081519 
L 292.228939 89.948078 
L 291.421621 95.865552 
L 290.614303 90.604055 
L 289.806984 96.256568 
L 288.999666 98.46577 
L 288.192348 88.540263 
L 287.385029 99.380118 
L 286.577711 90.623752 
L 285.770393 84.292286 
L 284.963074 68.682685 
L 284.155756 74.533317 
L 283.348438 83.965308 
L 282.541119 104.003615 
L 281.733801 115.511049 
L 280.926483 145.003595 
L 280.119164 121.062624 
L 279.311846 104.050785 
L 278.504528 88.561221 
L 277.697209 83.450026 
L 276.889891 76.955198 
L 276.082572 82.506565 
L 275.275254 75.539186 
L 274.467936 97.854967 
L 273.660617 83.787579 
L 272.853299 91.539751 
L 272.045981 123.655403 
L 271.238662 121.506417 
L 270.431344 109.066408 
L 269.624026 76.494659 
L 268.816707 88.449756 
L 268.009389 99.791868 
L 267.202071 90.556081 
L 266.394752 107.2627 
L 265.587434 82.81687 
L 264.780116 82.399028 
L 263.972797 95.972811 
L 263.165479 102.519816 
L 262.358161 126.82806 
L 261.550842 128.568512 
L 260.743524 107.595155 
L 259.936206 112.257225 
L 259.128887 107.735554 
L 258.321569 92.528396 
L 257.51425 86.078604 
L 256.706932 81.782904 
L 255.899614 48.324193 
L 255.092295 50.191422 
L 254.284977 78.824988 
L 253.477659 93.097292 
L 252.67034 123.471813 
L 251.863022 136.86114 
L 251.055704 124.531697 
L 250.248385 114.833044 
L 249.441067 100.774556 
L 248.633749 104.321431 
L 247.82643 92.014784 
L 247.019112 83.438323 
L 246.211794 76.24065 
L 245.404475 83.021589 
L 244.597157 81.284731 
L 243.789839 94.170618 
L 242.98252 123.533596 
L 242.175202 135.277547 
L 241.367883 120.910962 
L 240.560565 106.537227 
L 239.753247 105.013811 
L 238.945928 99.672824 
L 238.13861 79.012814 
L 237.331292 65.809874 
L 236.523973 93.515799 
L 235.716655 77.362165 
L 234.909337 70.606272 
L 234.102018 89.388934 
L 233.2947 116.939446 
L 232.487382 123.609097 
L 231.680063 130.453123 
L 230.872745 112.614395 
L 230.065427 93.798914 
L 229.258108 80.301556 
L 228.45079 84.915167 
L 227.643472 78.100541 
L 226.836153 82.5778 
L 226.028835 76.69747 
L 225.221517 89.804428 
L 224.414198 98.196043 
L 223.60688 114.35673 
L 222.799561 125.117116 
L 221.992243 121.654514 
L 221.184925 110.434709 
L 220.377606 91.44204 
L 219.570288 94.180481 
L 218.76297 100.46725 
L 217.955651 102.069733 
L 217.148333 83.421684 
L 216.341015 84.462284 
L 215.533696 84.730073 
L 214.726378 103.064707 
L 213.91906 132.256108 
L 213.111741 119.841141 
L 212.304423 123.760466 
L 211.497105 107.427916 
L 210.689786 98.192107 
L 209.882468 80.184047 
L 209.07515 69.079224 
L 208.267831 78.115977 
L 207.460513 89.270389 
L 206.653194 97.1988 
L 205.845876 90.812567 
L 205.038558 73.80015 
L 204.231239 104.062344 
L 203.423921 126.104399 
L 202.616603 93.077071 
L 201.809284 88.632095 
L 201.001966 99.115659 
L 200.194648 78.270308 
L 199.387329 68.642026 
L 198.580011 76.818175 
L 197.772693 75.344555 
L 196.965374 55.070394 
L 196.158056 72.756543 
L 195.350738 101.130019 
L 194.543419 127.409943 
L 193.736101 140.656174 
L 192.928783 128.88368 
L 192.121464 100.228287 
L 191.314146 89.220849 
L 190.506827 87.202761 
L 189.699509 83.021391 
L 188.892191 84.73145 
L 188.084872 82.841515 
L 187.277554 75.478355 
L 186.470236 65.799234 
L 185.662917 87.439074 
L 184.855599 109.281684 
L 184.048281 126.665499 
L 183.240962 116.695309 
L 182.433644 119.943546 
L 181.626326 96.345535 
L 180.819007 90.060698 
L 180.011689 80.096548 
L 179.204371 86.262443 
L 178.397052 95.577716 
L 177.589734 86.086989 
L 176.782416 92.658106 
L 175.975097 105.178562 
L 175.167779 113.725857 
L 174.360461 119.654779 
L 173.553142 121.593224 
L 172.745824 101.786973 
L 171.938505 87.085704 
L 171.131187 77.821856 
L 170.323869 72.85677 
L 169.51655 81.234403 
L 168.709232 84.208702 
L 167.901914 87.414096 
L 167.094595 88.394581 
L 166.287277 98.64287 
L 165.479959 131.500064 
L 164.67264 138.500091 
L 163.865322 134.770381 
L 163.058004 117.806379 
L 162.250685 96.246706 
L 161.443367 69.333366 
L 160.636049 73.822167 
L 159.82873 94.171552 
L 159.021412 88.806074 
L 158.214094 71.858796 
L 157.406775 78.071766 
L 156.599457 105.514831 
L 155.792138 113.84931 
L 154.98482 135.471513 
L 154.177502 127.5591 
L 153.370183 101.990976 
L 152.562865 97.929012 
L 151.755547 94.248969 
L 150.948228 92.419008 
L 150.14091 86.313982 
L 149.333592 88.429589 
L 148.526273 105.361112 
L 147.718955 93.90636 
L 146.911637 104.613135 
L 146.104318 124.660381 
L 145.297 134.437581 
L 144.489682 125.156576 
L 143.682363 85.989951 
L 142.875045 82.420401 
L 142.067727 90.487812 
L 141.260408 80.609995 
L 140.45309 87.788804 
L 139.645771 98.342981 
L 138.838453 86.489703 
L 138.031135 82.983043 
L 137.223816 104.02272 
L 136.416498 124.066749 
L 135.60918 125.179399 
L 134.801861 99.947854 
L 133.994543 94.087873 
L 133.187225 91.449684 
L 132.379906 86.07084 
L 131.572588 67.283375 
L 130.76527 60.150158 
L 129.957951 75.480306 
L 129.150633 81.690657 
L 128.343315 81.801469 
L 127.535996 111.922607 
L 126.728678 125.322866 
L 125.92136 123.719063 
L 125.114041 122.230386 
L 124.306723 94.384696 
L 123.499405 84.228405 
L 122.692086 80.364937 
L 121.884768 81.644018 
L 121.077449 92.868462 
L 120.270131 74.269852 
L 119.462813 65.076123 
L 118.655494 55.297888 
L 117.848176 90.925339 
L 117.040858 119.922288 
L 116.233539 126.040719 
L 115.426221 123.322461 
L 114.618903 114.295264 
L 113.811584 80.374429 
L 113.004266 76.3894 
L 112.196948 98.618578 
L 111.389629 89.045547 
L 110.582311 74.235527 
L 109.774993 71.507874 
L 108.967674 84.076798 
L 108.160356 106.721146 
L 107.353038 124.379237 
L 106.545719 134.131589 
L 105.738401 125.822654 
L 104.931082 99.154291 
L 104.123764 82.779202 
L 103.316446 92.890339 
L 102.509127 83.463453 
L 101.701809 47.012335 
L 100.894491 41.48126 
L 100.087172 69.680381 
L 99.279854 85.117303 
L 98.472536 113.109384 
L 97.665217 127.09759 
L 96.857899 121.981713 
L 96.050581 110.155196 
L 95.243262 106.072089 
L 94.435944 94.503427 
L 93.628626 83.441083 
L 92.821307 63.708508 
L 92.013989 43.250856 
L 91.206671 52.077565 
L 90.399352 71.255928 
L 89.592034 81.250928 
L 88.784715 99.267725 
L 87.977397 116.026483 
L 87.170079 128.251115 
L 86.36276 128.581878 
L 85.555442 108.34292 
L 84.748124 93.87554 
L 83.940805 97.015483 
L 83.133487 70.324207 
L 82.326169 78.420117 
L 81.51885 62.088848 
L 80.711532 69.324087 
L 79.904214 67.225953 
L 79.096895 80.534329 
L 78.289577 113.157375 
L 77.482259 127.542103 
L 76.67494 118.928041 
L 75.867622 88.845498 
L 75.060304 89.552433 
L 74.252985 83.483649 
L 73.445667 76.122518 
L 72.638349 82.403069 
L 71.83103 78.811155 
L 71.023712 72.428863 
L 70.216393 71.345094 
L 69.409075 81.552958 
L 68.601757 123.23991 
L 67.794438 118.616702 
z
" clip-path="url(#p0b0cc93eaa)" style="fill-opacity: 0.25"/>
   </g>
   <g id="matplotlib.axis_1">
    <g id="xtick_1">
     <g id="line2d_1">
      <defs>
       <path id="mdf560727e6" d="M 0 0 
L 0 3.5 
" style="stroke: #000000; stroke-width: 0.8"/>
      </defs>
      <g>
       <use xlink:href="#mdf560727e6" x="77.482259" y="186.84327" style="stroke: #000000; stroke-width: 0.8"/>
      </g>
     </g>
     <g id="text_1">
      <!-- 1980 -->
      <g transform="translate(64.757259 201.441708) scale(0.1 -0.1)">
       <defs>
        <path id="DejaVuSans-31" d="M 794 531 
L 1825 531 
L 1825 4091 
L 703 3866 
L 703 4441 
L 1819 4666 
L 2450 4666 
L 2450 531 
L 3481 531 
L 3481 0 
L 794 0 
L 794 531 
z
" transform="scale(0.015625)"/>
        <path id="DejaVuSans-39" d="M 703 97 
L 703 672 
Q 941 559 1184 500 
Q 1428 441 1663 441 
Q 2288 441 2617 861 
Q 2947 1281 2994 2138 
Q 2813 1869 2534 1725 
Q 2256 1581 1919 1581 
Q 1219 1581 811 2004 
Q 403 2428 403 3163 
Q 403 3881 828 4315 
Q 1253 4750 1959 4750 
Q 2769 4750 3195 4129 
Q 3622 3509 3622 2328 
Q 3622 1225 3098 567 
Q 2575 -91 1691 -91 
Q 1453 -91 1209 -44 
Q 966 3 703 97 
z
M 1959 2075 
Q 2384 2075 2632 2365 
Q 2881 2656 2881 3163 
Q 2881 3666 2632 3958 
Q 2384 4250 1959 4250 
Q 1534 4250 1286 3958 
Q 1038 3666 1038 3163 
Q 1038 2656 1286 2365 
Q 1534 2075 1959 2075 
z
" transform="scale(0.015625)"/>
        <path id="DejaVuSans-38" d="M 2034 2216 
Q 1584 2216 1326 1975 
Q 1069 1734 1069 1313 
Q 1069 891 1326 650 
Q 1584 409 2034 409 
Q 2484 409 2743 651 
Q 3003 894 3003 1313 
Q 3003 1734 2745 1975 
Q 2488 2216 2034 2216 
z
M 1403 2484 
Q 997 2584 770 2862 
Q 544 3141 544 3541 
Q 544 4100 942 4425 
Q 1341 4750 2034 4750 
Q 2731 4750 3128 4425 
Q 3525 4100 3525 3541 
Q 3525 3141 3298 2862 
Q 3072 2584 2669 2484 
Q 3125 2378 3379 2068 
Q 3634 1759 3634 1313 
Q 3634 634 3220 271 
Q 2806 -91 2034 -91 
Q 1263 -91 848 271 
Q 434 634 434 1313 
Q 434 1759 690 2068 
Q 947 2378 1403 2484 
z
M 1172 3481 
Q 1172 3119 1398 2916 
Q 1625 2713 2034 2713 
Q 2441 2713 2670 2916 
Q 2900 3119 2900 3481 
Q 2900 3844 2670 4047 
Q 2441 4250 2034 4250 
Q 1625 4250 1398 4047 
Q 1172 3844 1172 3481 
z
" transform="scale(0.015625)"/>
        <path id="DejaVuSans-30" d="M 2034 4250 
Q 1547 4250 1301 3770 
Q 1056 3291 1056 2328 
Q 1056 1369 1301 889 
Q 1547 409 2034 409 
Q 2525 409 2770 889 
Q 3016 1369 3016 2328 
Q 3016 3291 2770 3770 
Q 2525 4250 2034 4250 
z
M 2034 4750 
Q 2819 4750 3233 4129 
Q 3647 3509 3647 2328 
Q 3647 1150 3233 529 
Q 2819 -91 2034 -91 
Q 1250 -91 836 529 
Q 422 1150 422 2328 
Q 422 3509 836 4129 
Q 1250 4750 2034 4750 
z
" transform="scale(0.015625)"/>
       </defs>
       <use xlink:href="#DejaVuSans-31"/>
       <use xlink:href="#DejaVuSans-39" x="63.623047"/>
       <use xlink:href="#DejaVuSans-38" x="127.246094"/>
       <use xlink:href="#DejaVuSans-30" x="190.869141"/>
      </g>
     </g>
    </g>
    <g id="xtick_2">
     <g id="line2d_2">
      <g>
       <use xlink:href="#mdf560727e6" x="174.360461" y="186.84327" style="stroke: #000000; stroke-width: 0.8"/>
      </g>
     </g>
     <g id="text_2">
      <!-- 1990 -->
      <g transform="translate(161.635461 201.441708) scale(0.1 -0.1)">
       <use xlink:href="#DejaVuSans-31"/>
       <use xlink:href="#DejaVuSans-39" x="63.623047"/>
       <use xlink:href="#DejaVuSans-39" x="127.246094"/>
       <use xlink:href="#DejaVuSans-30" x="190.869141"/>
      </g>
     </g>
    </g>
    <g id="xtick_3">
     <g id="line2d_3">
      <g>
       <use xlink:href="#mdf560727e6" x="271.238662" y="186.84327" style="stroke: #000000; stroke-width: 0.8"/>
      </g>
     </g>
     <g id="text_3">
      <!-- 2000 -->
      <g transform="translate(258.513662 201.441708) scale(0.1 -0.1)">
       <defs>
        <path id="DejaVuSans-32" d="M 1228 531 
L 3431 531 
L 3431 0 
L 469 0 
L 469 531 
Q 828 903 1448 1529 
Q 2069 2156 2228 2338 
Q 2531 2678 2651 2914 
Q 2772 3150 2772 3378 
Q 2772 3750 2511 3984 
Q 2250 4219 1831 4219 
Q 1534 4219 1204 4116 
Q 875 4013 500 3803 
L 500 4441 
Q 881 4594 1212 4672 
Q 1544 4750 1819 4750 
Q 2544 4750 2975 4387 
Q 3406 4025 3406 3419 
Q 3406 3131 3298 2873 
Q 3191 2616 2906 2266 
Q 2828 2175 2409 1742 
Q 1991 1309 1228 531 
z
" transform="scale(0.015625)"/>
       </defs>
       <use xlink:href="#DejaVuSans-32"/>
       <use xlink:href="#DejaVuSans-30" x="63.623047"/>
       <use xlink:href="#DejaVuSans-30" x="127.246094"/>
       <use xlink:href="#DejaVuSans-30" x="190.869141"/>
      </g>
     </g>
    </g>
    <g id="xtick_4">
     <g id="line2d_4">
      <g>
       <use xlink:href="#mdf560727e6" x="368.116864" y="186.84327" style="stroke: #000000; stroke-width: 0.8"/>
      </g>
     </g>
     <g id="text_4">
      <!-- 2010 -->
      <g transform="translate(355.391864 201.441708) scale(0.1 -0.1)">
       <use xlink:href="#DejaVuSans-32"/>
       <use xlink:href="#DejaVuSans-30" x="63.623047"/>
       <use xlink:href="#DejaVuSans-31" x="127.246094"/>
       <use xlink:href="#DejaVuSans-30" x="190.869141"/>
      </g>
     </g>
    </g>
    <g id="xtick_5">
     <g id="line2d_5">
      <g>
       <use xlink:href="#mdf560727e6" x="464.995066" y="186.84327" style="stroke: #000000; stroke-width: 0.8"/>
      </g>
     </g>
     <g id="text_5">
      <!-- 2020 -->
      <g transform="translate(452.270066 201.441708) scale(0.1 -0.1)">
       <use xlink:href="#DejaVuSans-32"/>
       <use xlink:href="#DejaVuSans-30" x="63.623047"/>
       <use xlink:href="#DejaVuSans-32" x="127.246094"/>
       <use xlink:href="#DejaVuSans-30" x="190.869141"/>
      </g>
     </g>
    </g>
    <g id="text_6">
     <!-- Year -->
     <g transform="translate(265.495073 215.119833) scale(0.1 -0.1)">
      <defs>
       <path id="DejaVuSans-59" d="M -13 4666 
L 666 4666 
L 1959 2747 
L 3244 4666 
L 3922 4666 
L 2272 2222 
L 2272 0 
L 1638 0 
L 1638 2222 
L -13 4666 
z
" transform="scale(0.015625)"/>
       <path id="DejaVuSans-65" d="M 3597 1894 
L 3597 1613 
L 953 1613 
Q 991 1019 1311 708 
Q 1631 397 2203 397 
Q 2534 397 2845 478 
Q 3156 559 3463 722 
L 3463 178 
Q 3153 47 2828 -22 
Q 2503 -91 2169 -91 
Q 1331 -91 842 396 
Q 353 884 353 1716 
Q 353 2575 817 3079 
Q 1281 3584 2069 3584 
Q 2775 3584 3186 3129 
Q 3597 2675 3597 1894 
z
M 3022 2063 
Q 3016 2534 2758 2815 
Q 2500 3097 2075 3097 
Q 1594 3097 1305 2825 
Q 1016 2553 972 2059 
L 3022 2063 
z
" transform="scale(0.015625)"/>
       <path id="DejaVuSans-61" d="M 2194 1759 
Q 1497 1759 1228 1600 
Q 959 1441 959 1056 
Q 959 750 1161 570 
Q 1363 391 1709 391 
Q 2188 391 2477 730 
Q 2766 1069 2766 1631 
L 2766 1759 
L 2194 1759 
z
M 3341 1997 
L 3341 0 
L 2766 0 
L 2766 531 
Q 2569 213 2275 61 
Q 1981 -91 1556 -91 
Q 1019 -91 701 211 
Q 384 513 384 1019 
Q 384 1609 779 1909 
Q 1175 2209 1959 2209 
L 2766 2209 
L 2766 2266 
Q 2766 2663 2505 2880 
Q 2244 3097 1772 3097 
Q 1472 3097 1187 3025 
Q 903 2953 641 2809 
L 641 3341 
Q 956 3463 1253 3523 
Q 1550 3584 1831 3584 
Q 2591 3584 2966 3190 
Q 3341 2797 3341 1997 
z
" transform="scale(0.015625)"/>
       <path id="DejaVuSans-72" d="M 2631 2963 
Q 2534 3019 2420 3045 
Q 2306 3072 2169 3072 
Q 1681 3072 1420 2755 
Q 1159 2438 1159 1844 
L 1159 0 
L 581 0 
L 581 3500 
L 1159 3500 
L 1159 2956 
Q 1341 3275 1631 3429 
Q 1922 3584 2338 3584 
Q 2397 3584 2469 3576 
Q 2541 3569 2628 3553 
L 2631 2963 
z
" transform="scale(0.015625)"/>
      </defs>
      <use xlink:href="#DejaVuSans-59"/>
      <use xlink:href="#DejaVuSans-65" x="47.833984"/>
      <use xlink:href="#DejaVuSans-61" x="109.357422"/>
      <use xlink:href="#DejaVuSans-72" x="170.636719"/>
     </g>
    </g>
   </g>
   <g id="matplotlib.axis_2">
    <g id="ytick_1">
     <g id="line2d_6">
      <defs>
       <path id="m4ce214711d" d="M 0 0 
L -3.5 0 
" style="stroke: #000000; stroke-width: 0.8"/>
      </defs>
      <g>
       <use xlink:href="#m4ce214711d" x="46.965625" y="186.84327" style="stroke: #000000; stroke-width: 0.8"/>
      </g>
     </g>
     <g id="text_7">
      <!-- 0 -->
      <g transform="translate(33.603125 190.642489) scale(0.1 -0.1)">
       <use xlink:href="#DejaVuSans-30"/>
      </g>
     </g>
    </g>
    <g id="ytick_2">
     <g id="line2d_7">
      <g>
       <use xlink:href="#m4ce214711d" x="46.965625" y="161.722691" style="stroke: #000000; stroke-width: 0.8"/>
      </g>
     </g>
     <g id="text_8">
      <!-- 50 -->
      <g transform="translate(27.240625 165.52191) scale(0.1 -0.1)">
       <defs>
        <path id="DejaVuSans-35" d="M 691 4666 
L 3169 4666 
L 3169 4134 
L 1269 4134 
L 1269 2991 
Q 1406 3038 1543 3061 
Q 1681 3084 1819 3084 
Q 2600 3084 3056 2656 
Q 3513 2228 3513 1497 
Q 3513 744 3044 326 
Q 2575 -91 1722 -91 
Q 1428 -91 1123 -41 
Q 819 9 494 109 
L 494 744 
Q 775 591 1075 516 
Q 1375 441 1709 441 
Q 2250 441 2565 725 
Q 2881 1009 2881 1497 
Q 2881 1984 2565 2268 
Q 2250 2553 1709 2553 
Q 1456 2553 1204 2497 
Q 953 2441 691 2322 
L 691 4666 
z
" transform="scale(0.015625)"/>
       </defs>
       <use xlink:href="#DejaVuSans-35"/>
       <use xlink:href="#DejaVuSans-30" x="63.623047"/>
      </g>
     </g>
    </g>
    <g id="ytick_3">
     <g id="line2d_8">
      <g>
       <use xlink:href="#m4ce214711d" x="46.965625" y="136.602113" style="stroke: #000000; stroke-width: 0.8"/>
      </g>
     </g>
     <g id="text_9">
      <!-- 100 -->
      <g transform="translate(20.878125 140.401331) scale(0.1 -0.1)">
       <use xlink:href="#DejaVuSans-31"/>
       <use xlink:href="#DejaVuSans-30" x="63.623047"/>
       <use xlink:href="#DejaVuSans-30" x="127.246094"/>
      </g>
     </g>
    </g>
    <g id="ytick_4">
     <g id="line2d_9">
      <g>
       <use xlink:href="#m4ce214711d" x="46.965625" y="111.481534" style="stroke: #000000; stroke-width: 0.8"/>
      </g>
     </g>
     <g id="text_10">
      <!-- 150 -->
      <g transform="translate(20.878125 115.280753) scale(0.1 -0.1)">
       <use xlink:href="#DejaVuSans-31"/>
       <use xlink:href="#DejaVuSans-35" x="63.623047"/>
       <use xlink:href="#DejaVuSans-30" x="127.246094"/>
      </g>
     </g>
    </g>
    <g id="ytick_5">
     <g id="line2d_10">
      <g>
       <use xlink:href="#m4ce214711d" x="46.965625" y="86.360955" style="stroke: #000000; stroke-width: 0.8"/>
      </g>
     </g>
     <g id="text_11">
      <!-- 200 -->
      <g transform="translate(20.878125 90.160174) scale(0.1 -0.1)">
       <use xlink:href="#DejaVuSans-32"/>
       <use xlink:href="#DejaVuSans-30" x="63.623047"/>
       <use xlink:href="#DejaVuSans-30" x="127.246094"/>
      </g>
     </g>
    </g>
    <g id="ytick_6">
     <g id="line2d_11">
      <g>
       <use xlink:href="#m4ce214711d" x="46.965625" y="61.240376" style="stroke: #000000; stroke-width: 0.8"/>
      </g>
     </g>
     <g id="text_12">
      <!-- 250 -->
      <g transform="translate(20.878125 65.039595) scale(0.1 -0.1)">
       <use xlink:href="#DejaVuSans-32"/>
       <use xlink:href="#DejaVuSans-35" x="63.623047"/>
       <use xlink:href="#DejaVuSans-30" x="127.246094"/>
      </g>
     </g>
    </g>
    <g id="ytick_7">
     <g id="line2d_12">
      <g>
       <use xlink:href="#m4ce214711d" x="46.965625" y="36.119798" style="stroke: #000000; stroke-width: 0.8"/>
      </g>
     </g>
     <g id="text_13">
      <!-- 300 -->
      <g transform="translate(20.878125 39.919016) scale(0.1 -0.1)">
       <defs>
        <path id="DejaVuSans-33" d="M 2597 2516 
Q 3050 2419 3304 2112 
Q 3559 1806 3559 1356 
Q 3559 666 3084 287 
Q 2609 -91 1734 -91 
Q 1441 -91 1130 -33 
Q 819 25 488 141 
L 488 750 
Q 750 597 1062 519 
Q 1375 441 1716 441 
Q 2309 441 2620 675 
Q 2931 909 2931 1356 
Q 2931 1769 2642 2001 
Q 2353 2234 1838 2234 
L 1294 2234 
L 1294 2753 
L 1863 2753 
Q 2328 2753 2575 2939 
Q 2822 3125 2822 3475 
Q 2822 3834 2567 4026 
Q 2313 4219 1838 4219 
Q 1578 4219 1281 4162 
Q 984 4106 628 3988 
L 628 4550 
Q 988 4650 1302 4700 
Q 1616 4750 1894 4750 
Q 2613 4750 3031 4423 
Q 3450 4097 3450 3541 
Q 3450 3153 3228 2886 
Q 3006 2619 2597 2516 
z
" transform="scale(0.015625)"/>
       </defs>
       <use xlink:href="#DejaVuSans-33"/>
       <use xlink:href="#DejaVuSans-30" x="63.623047"/>
       <use xlink:href="#DejaVuSans-30" x="127.246094"/>
      </g>
     </g>
    </g>
    <g id="ytick_8">
     <g id="line2d_13">
      <g>
       <use xlink:href="#m4ce214711d" x="46.965625" y="10.999219" style="stroke: #000000; stroke-width: 0.8"/>
      </g>
     </g>
     <g id="text_14">
      <!-- 350 -->
      <g transform="translate(20.878125 14.798438) scale(0.1 -0.1)">
       <use xlink:href="#DejaVuSans-33"/>
       <use xlink:href="#DejaVuSans-35" x="63.623047"/>
       <use xlink:href="#DejaVuSans-30" x="127.246094"/>
      </g>
     </g>
    </g>
    <g id="text_15">
     <!-- Surface Mass Balance [Gt/month] -->
     <g transform="translate(14.798438 182.914213) rotate(-90) scale(0.1 -0.1)">
      <defs>
       <path id="DejaVuSans-53" d="M 3425 4513 
L 3425 3897 
Q 3066 4069 2747 4153 
Q 2428 4238 2131 4238 
Q 1616 4238 1336 4038 
Q 1056 3838 1056 3469 
Q 1056 3159 1242 3001 
Q 1428 2844 1947 2747 
L 2328 2669 
Q 3034 2534 3370 2195 
Q 3706 1856 3706 1288 
Q 3706 609 3251 259 
Q 2797 -91 1919 -91 
Q 1588 -91 1214 -16 
Q 841 59 441 206 
L 441 856 
Q 825 641 1194 531 
Q 1563 422 1919 422 
Q 2459 422 2753 634 
Q 3047 847 3047 1241 
Q 3047 1584 2836 1778 
Q 2625 1972 2144 2069 
L 1759 2144 
Q 1053 2284 737 2584 
Q 422 2884 422 3419 
Q 422 4038 858 4394 
Q 1294 4750 2059 4750 
Q 2388 4750 2728 4690 
Q 3069 4631 3425 4513 
z
" transform="scale(0.015625)"/>
       <path id="DejaVuSans-75" d="M 544 1381 
L 544 3500 
L 1119 3500 
L 1119 1403 
Q 1119 906 1312 657 
Q 1506 409 1894 409 
Q 2359 409 2629 706 
Q 2900 1003 2900 1516 
L 2900 3500 
L 3475 3500 
L 3475 0 
L 2900 0 
L 2900 538 
Q 2691 219 2414 64 
Q 2138 -91 1772 -91 
Q 1169 -91 856 284 
Q 544 659 544 1381 
z
M 1991 3584 
L 1991 3584 
z
" transform="scale(0.015625)"/>
       <path id="DejaVuSans-66" d="M 2375 4863 
L 2375 4384 
L 1825 4384 
Q 1516 4384 1395 4259 
Q 1275 4134 1275 3809 
L 1275 3500 
L 2222 3500 
L 2222 3053 
L 1275 3053 
L 1275 0 
L 697 0 
L 697 3053 
L 147 3053 
L 147 3500 
L 697 3500 
L 697 3744 
Q 697 4328 969 4595 
Q 1241 4863 1831 4863 
L 2375 4863 
z
" transform="scale(0.015625)"/>
       <path id="DejaVuSans-63" d="M 3122 3366 
L 3122 2828 
Q 2878 2963 2633 3030 
Q 2388 3097 2138 3097 
Q 1578 3097 1268 2742 
Q 959 2388 959 1747 
Q 959 1106 1268 751 
Q 1578 397 2138 397 
Q 2388 397 2633 464 
Q 2878 531 3122 666 
L 3122 134 
Q 2881 22 2623 -34 
Q 2366 -91 2075 -91 
Q 1284 -91 818 406 
Q 353 903 353 1747 
Q 353 2603 823 3093 
Q 1294 3584 2113 3584 
Q 2378 3584 2631 3529 
Q 2884 3475 3122 3366 
z
" transform="scale(0.015625)"/>
       <path id="DejaVuSans-20" transform="scale(0.015625)"/>
       <path id="DejaVuSans-4d" d="M 628 4666 
L 1569 4666 
L 2759 1491 
L 3956 4666 
L 4897 4666 
L 4897 0 
L 4281 0 
L 4281 4097 
L 3078 897 
L 2444 897 
L 1241 4097 
L 1241 0 
L 628 0 
L 628 4666 
z
" transform="scale(0.015625)"/>
       <path id="DejaVuSans-73" d="M 2834 3397 
L 2834 2853 
Q 2591 2978 2328 3040 
Q 2066 3103 1784 3103 
Q 1356 3103 1142 2972 
Q 928 2841 928 2578 
Q 928 2378 1081 2264 
Q 1234 2150 1697 2047 
L 1894 2003 
Q 2506 1872 2764 1633 
Q 3022 1394 3022 966 
Q 3022 478 2636 193 
Q 2250 -91 1575 -91 
Q 1294 -91 989 -36 
Q 684 19 347 128 
L 347 722 
Q 666 556 975 473 
Q 1284 391 1588 391 
Q 1994 391 2212 530 
Q 2431 669 2431 922 
Q 2431 1156 2273 1281 
Q 2116 1406 1581 1522 
L 1381 1569 
Q 847 1681 609 1914 
Q 372 2147 372 2553 
Q 372 3047 722 3315 
Q 1072 3584 1716 3584 
Q 2034 3584 2315 3537 
Q 2597 3491 2834 3397 
z
" transform="scale(0.015625)"/>
       <path id="DejaVuSans-42" d="M 1259 2228 
L 1259 519 
L 2272 519 
Q 2781 519 3026 730 
Q 3272 941 3272 1375 
Q 3272 1813 3026 2020 
Q 2781 2228 2272 2228 
L 1259 2228 
z
M 1259 4147 
L 1259 2741 
L 2194 2741 
Q 2656 2741 2882 2914 
Q 3109 3088 3109 3444 
Q 3109 3797 2882 3972 
Q 2656 4147 2194 4147 
L 1259 4147 
z
M 628 4666 
L 2241 4666 
Q 2963 4666 3353 4366 
Q 3744 4066 3744 3513 
Q 3744 3084 3544 2831 
Q 3344 2578 2956 2516 
Q 3422 2416 3680 2098 
Q 3938 1781 3938 1306 
Q 3938 681 3513 340 
Q 3088 0 2303 0 
L 628 0 
L 628 4666 
z
" transform="scale(0.015625)"/>
       <path id="DejaVuSans-6c" d="M 603 4863 
L 1178 4863 
L 1178 0 
L 603 0 
L 603 4863 
z
" transform="scale(0.015625)"/>
       <path id="DejaVuSans-6e" d="M 3513 2113 
L 3513 0 
L 2938 0 
L 2938 2094 
Q 2938 2591 2744 2837 
Q 2550 3084 2163 3084 
Q 1697 3084 1428 2787 
Q 1159 2491 1159 1978 
L 1159 0 
L 581 0 
L 581 3500 
L 1159 3500 
L 1159 2956 
Q 1366 3272 1645 3428 
Q 1925 3584 2291 3584 
Q 2894 3584 3203 3211 
Q 3513 2838 3513 2113 
z
" transform="scale(0.015625)"/>
       <path id="DejaVuSans-5b" d="M 550 4863 
L 1875 4863 
L 1875 4416 
L 1125 4416 
L 1125 -397 
L 1875 -397 
L 1875 -844 
L 550 -844 
L 550 4863 
z
" transform="scale(0.015625)"/>
       <path id="DejaVuSans-47" d="M 3809 666 
L 3809 1919 
L 2778 1919 
L 2778 2438 
L 4434 2438 
L 4434 434 
Q 4069 175 3628 42 
Q 3188 -91 2688 -91 
Q 1594 -91 976 548 
Q 359 1188 359 2328 
Q 359 3472 976 4111 
Q 1594 4750 2688 4750 
Q 3144 4750 3555 4637 
Q 3966 4525 4313 4306 
L 4313 3634 
Q 3963 3931 3569 4081 
Q 3175 4231 2741 4231 
Q 1884 4231 1454 3753 
Q 1025 3275 1025 2328 
Q 1025 1384 1454 906 
Q 1884 428 2741 428 
Q 3075 428 3337 486 
Q 3600 544 3809 666 
z
" transform="scale(0.015625)"/>
       <path id="DejaVuSans-74" d="M 1172 4494 
L 1172 3500 
L 2356 3500 
L 2356 3053 
L 1172 3053 
L 1172 1153 
Q 1172 725 1289 603 
Q 1406 481 1766 481 
L 2356 481 
L 2356 0 
L 1766 0 
Q 1100 0 847 248 
Q 594 497 594 1153 
L 594 3053 
L 172 3053 
L 172 3500 
L 594 3500 
L 594 4494 
L 1172 4494 
z
" transform="scale(0.015625)"/>
       <path id="DejaVuSans-2f" d="M 1625 4666 
L 2156 4666 
L 531 -594 
L 0 -594 
L 1625 4666 
z
" transform="scale(0.015625)"/>
       <path id="DejaVuSans-6d" d="M 3328 2828 
Q 3544 3216 3844 3400 
Q 4144 3584 4550 3584 
Q 5097 3584 5394 3201 
Q 5691 2819 5691 2113 
L 5691 0 
L 5113 0 
L 5113 2094 
Q 5113 2597 4934 2840 
Q 4756 3084 4391 3084 
Q 3944 3084 3684 2787 
Q 3425 2491 3425 1978 
L 3425 0 
L 2847 0 
L 2847 2094 
Q 2847 2600 2669 2842 
Q 2491 3084 2119 3084 
Q 1678 3084 1418 2786 
Q 1159 2488 1159 1978 
L 1159 0 
L 581 0 
L 581 3500 
L 1159 3500 
L 1159 2956 
Q 1356 3278 1631 3431 
Q 1906 3584 2284 3584 
Q 2666 3584 2933 3390 
Q 3200 3197 3328 2828 
z
" transform="scale(0.015625)"/>
       <path id="DejaVuSans-6f" d="M 1959 3097 
Q 1497 3097 1228 2736 
Q 959 2375 959 1747 
Q 959 1119 1226 758 
Q 1494 397 1959 397 
Q 2419 397 2687 759 
Q 2956 1122 2956 1747 
Q 2956 2369 2687 2733 
Q 2419 3097 1959 3097 
z
M 1959 3584 
Q 2709 3584 3137 3096 
Q 3566 2609 3566 1747 
Q 3566 888 3137 398 
Q 2709 -91 1959 -91 
Q 1206 -91 779 398 
Q 353 888 353 1747 
Q 353 2609 779 3096 
Q 1206 3584 1959 3584 
z
" transform="scale(0.015625)"/>
       <path id="DejaVuSans-68" d="M 3513 2113 
L 3513 0 
L 2938 0 
L 2938 2094 
Q 2938 2591 2744 2837 
Q 2550 3084 2163 3084 
Q 1697 3084 1428 2787 
Q 1159 2491 1159 1978 
L 1159 0 
L 581 0 
L 581 4863 
L 1159 4863 
L 1159 2956 
Q 1366 3272 1645 3428 
Q 1925 3584 2291 3584 
Q 2894 3584 3203 3211 
Q 3513 2838 3513 2113 
z
" transform="scale(0.015625)"/>
       <path id="DejaVuSans-5d" d="M 1947 4863 
L 1947 -844 
L 622 -844 
L 622 -397 
L 1369 -397 
L 1369 4416 
L 622 4416 
L 622 4863 
L 1947 4863 
z
" transform="scale(0.015625)"/>
      </defs>
      <use xlink:href="#DejaVuSans-53"/>
      <use xlink:href="#DejaVuSans-75" x="63.476562"/>
      <use xlink:href="#DejaVuSans-72" x="126.855469"/>
      <use xlink:href="#DejaVuSans-66" x="167.96875"/>
      <use xlink:href="#DejaVuSans-61" x="203.173828"/>
      <use xlink:href="#DejaVuSans-63" x="264.453125"/>
      <use xlink:href="#DejaVuSans-65" x="319.433594"/>
      <use xlink:href="#DejaVuSans-20" x="380.957031"/>
      <use xlink:href="#DejaVuSans-4d" x="412.744141"/>
      <use xlink:href="#DejaVuSans-61" x="499.023438"/>
      <use xlink:href="#DejaVuSans-73" x="560.302734"/>
      <use xlink:href="#DejaVuSans-73" x="612.402344"/>
      <use xlink:href="#DejaVuSans-20" x="664.501953"/>
      <use xlink:href="#DejaVuSans-42" x="696.289062"/>
      <use xlink:href="#DejaVuSans-61" x="764.892578"/>
      <use xlink:href="#DejaVuSans-6c" x="826.171875"/>
      <use xlink:href="#DejaVuSans-61" x="853.955078"/>
      <use xlink:href="#DejaVuSans-6e" x="915.234375"/>
      <use xlink:href="#DejaVuSans-63" x="978.613281"/>
      <use xlink:href="#DejaVuSans-65" x="1033.59375"/>
      <use xlink:href="#DejaVuSans-20" x="1095.117188"/>
      <use xlink:href="#DejaVuSans-5b" x="1126.904297"/>
      <use xlink:href="#DejaVuSans-47" x="1165.917969"/>
      <use xlink:href="#DejaVuSans-74" x="1243.408203"/>
      <use xlink:href="#DejaVuSans-2f" x="1282.617188"/>
      <use xlink:href="#DejaVuSans-6d" x="1316.308594"/>
      <use xlink:href="#DejaVuSans-6f" x="1413.720703"/>
      <use xlink:href="#DejaVuSans-6e" x="1474.902344"/>
      <use xlink:href="#DejaVuSans-74" x="1538.28125"/>
      <use xlink:href="#DejaVuSans-68" x="1577.490234"/>
      <use xlink:href="#DejaVuSans-5d" x="1640.869141"/>
     </g>
    </g>
   </g>
   <g id="line2d_14">
    <path d="M 67.794438 129.987797 
L 68.601757 129.418248 
L 69.409075 93.61765 
L 70.216393 80.518536 
L 71.023712 83.47559 
L 72.638349 91.468297 
L 73.445667 85.845905 
L 75.060304 97.813387 
L 75.867622 97.247059 
L 76.67494 123.643526 
L 77.482259 133.890426 
L 78.289577 117.296652 
L 79.096895 86.329116 
L 79.904214 72.767606 
L 80.711532 75.425007 
L 81.51885 67.667475 
L 82.326169 83.904478 
L 83.133487 75.510208 
L 83.940805 101.533627 
L 84.748124 98.334995 
L 85.555442 111.817551 
L 86.36276 131.731356 
L 87.170079 131.258939 
L 87.977397 119.888295 
L 89.592034 86.785198 
L 90.399352 76.67461 
L 91.206671 58.872994 
L 92.013989 49.521456 
L 93.628626 88.508093 
L 95.243262 109.984369 
L 96.050581 113.893216 
L 96.857899 125.104631 
L 97.665217 130.188441 
L 98.472536 117.412496 
L 99.279854 89.925064 
L 100.087172 75.606879 
L 100.894491 48.544361 
L 101.701809 53.162628 
L 102.509127 88.259985 
L 103.316446 97.525161 
L 104.123764 87.926433 
L 104.931082 102.99281 
L 105.738401 128.94204 
L 106.545719 137.02007 
L 107.353038 127.853735 
L 108.160356 111.290289 
L 108.967674 89.520752 
L 109.774993 76.775119 
L 110.582311 79.53653 
L 111.389629 93.493056 
L 112.196948 103.099787 
L 113.004266 82.02317 
L 113.811584 84.966383 
L 114.618903 117.5585 
L 115.426221 126.533453 
L 116.233539 129.208413 
L 117.040858 123.769272 
L 117.848176 96.872805 
L 118.655494 61.070961 
L 119.462813 71.505136 
L 120.270131 79.208329 
L 121.077449 97.733733 
L 121.884768 86.726839 
L 122.692086 85.394457 
L 123.499405 89.021844 
L 124.306723 98.527042 
L 125.114041 125.619843 
L 125.92136 127.017695 
L 126.728678 128.640781 
L 127.535996 116.164976 
L 128.343315 86.917615 
L 129.150633 86.95768 
L 129.957951 81.163565 
L 130.76527 66.203144 
L 131.572588 72.588266 
L 132.379906 90.908353 
L 133.187225 95.993314 
L 133.994543 98.663821 
L 134.801861 103.894681 
L 135.60918 128.316158 
L 136.416498 127.958157 
L 138.031135 88.255222 
L 138.838453 91.209817 
L 139.645771 102.867876 
L 140.45309 93.034322 
L 141.260408 85.710104 
L 142.067727 95.107009 
L 142.875045 87.920442 
L 143.682363 90.353028 
L 144.489682 128.013734 
L 145.297 137.253828 
L 146.104318 128.396029 
L 146.911637 109.142882 
L 147.718955 98.122968 
L 148.526273 109.772521 
L 149.333592 93.781523 
L 150.14091 91.088328 
L 150.948228 97.138687 
L 151.755547 98.623492 
L 153.370183 105.832002 
L 154.177502 130.179087 
L 154.98482 138.646016 
L 155.792138 117.768391 
L 156.599457 110.205224 
L 157.406775 83.823077 
L 158.214094 77.347768 
L 159.021412 93.336231 
L 159.82873 99.110339 
L 160.636049 79.392753 
L 161.443367 74.586699 
L 162.250685 100.290815 
L 163.058004 120.977675 
L 163.865322 137.406239 
L 164.67264 140.970369 
L 165.479959 134.71425 
L 166.287277 103.37246 
L 167.094595 93.207591 
L 167.901914 92.331728 
L 168.709232 88.866472 
L 169.51655 86.712926 
L 170.323869 77.916083 
L 171.131187 83.153034 
L 171.938505 91.486061 
L 172.745824 105.371723 
L 173.553142 124.978619 
L 174.360461 123.532201 
L 175.167779 117.594588 
L 175.975097 109.277733 
L 176.782416 97.498787 
L 177.589734 91.20068 
L 178.397052 99.873485 
L 179.204371 91.489675 
L 180.011689 84.965074 
L 180.819007 95.24096 
L 181.626326 100.217392 
L 182.433644 123.467478 
L 183.240962 120.100521 
L 184.048281 130.048338 
L 184.855599 113.497626 
L 186.470236 71.977743 
L 187.277554 80.872332 
L 188.084872 87.803088 
L 188.892191 89.815898 
L 189.699509 88.025339 
L 190.506827 92.029173 
L 191.314146 93.874728 
L 192.121464 104.092819 
L 192.928783 131.588563 
L 193.736101 143.478085 
L 194.543419 130.760233 
L 196.158056 79.083051 
L 196.965374 61.077062 
L 197.772693 80.901772 
L 198.580011 82.231952 
L 199.387329 74.507718 
L 200.194648 83.059183 
L 201.001966 103.342318 
L 201.809284 93.82221 
L 202.616603 97.091491 
L 203.423921 129.396284 
L 204.231239 108.850855 
L 205.038558 79.272544 
L 205.845876 95.338444 
L 206.653194 101.739082 
L 207.460513 94.146363 
L 209.07515 74.493276 
L 209.882468 84.927552 
L 210.689786 102.586077 
L 211.497105 110.756773 
L 212.304423 127.185646 
L 213.111741 123.183077 
L 213.91906 135.203309 
L 214.726378 107.947657 
L 215.533696 89.478474 
L 216.341015 89.816972 
L 217.148333 88.010298 
L 217.955651 106.273849 
L 218.76297 104.565357 
L 219.570288 98.82224 
L 220.377606 95.80991 
L 221.184925 113.939258 
L 221.992243 124.919337 
L 222.799561 128.195383 
L 223.60688 118.423494 
L 224.414198 102.661849 
L 225.221517 95.092844 
L 226.028835 81.823036 
L 226.836153 88.044423 
L 227.643472 83.280511 
L 228.45079 89.955274 
L 229.258108 85.315774 
L 230.065427 98.222315 
L 231.680063 133.406046 
L 233.2947 120.851265 
L 234.102018 94.578694 
L 234.909337 76.308549 
L 235.716655 82.224143 
L 236.523973 98.569752 
L 237.331292 71.473073 
L 238.13861 83.987069 
L 238.945928 103.668454 
L 239.753247 109.044064 
L 240.560565 110.206728 
L 242.175202 138.243067 
L 242.98252 127.189881 
L 243.789839 99.42383 
L 244.597157 86.103039 
L 245.404475 88.209691 
L 246.211794 81.264356 
L 247.82643 96.333645 
L 248.633749 108.518578 
L 249.441067 104.818943 
L 250.248385 118.206198 
L 251.055704 127.740447 
L 251.863022 139.533658 
L 252.67034 127.210339 
L 253.477659 97.886777 
L 254.284977 84.280837 
L 255.092295 57.107146 
L 255.899614 54.402773 
L 256.706932 86.503433 
L 257.51425 90.985337 
L 258.321569 96.915492 
L 259.128887 111.300524 
L 259.936206 116.317807 
L 260.743524 111.379653 
L 261.550842 131.563318 
L 262.358161 130.268224 
L 263.165479 106.92506 
L 263.972797 100.367718 
L 264.780116 87.724501 
L 265.587434 87.327147 
L 266.394752 111.443086 
L 267.202071 95.249667 
L 268.009389 103.835728 
L 268.816707 94.005095 
L 269.624026 81.130225 
L 270.431344 112.80532 
L 271.238662 124.598854 
L 272.045981 127.318779 
L 272.853299 96.802673 
L 273.660617 88.24682 
L 274.467936 102.75004 
L 275.275254 80.420773 
L 276.082572 87.728907 
L 276.889891 81.989752 
L 277.697209 88.602404 
L 278.504528 93.016711 
L 280.119164 123.884144 
L 280.926483 147.747049 
L 281.733801 119.254586 
L 282.541119 108.778931 
L 283.348438 89.111882 
L 284.155756 80.119614 
L 284.963074 74.05713 
L 285.770393 89.202649 
L 286.577711 95.034017 
L 287.385029 103.718484 
L 288.192348 93.089246 
L 288.999666 102.489822 
L 289.806984 101.123919 
L 290.614303 95.075161 
L 291.421621 100.467718 
L 292.228939 95.506039 
L 293.036258 73.822682 
L 293.843576 76.79702 
L 294.650895 90.158656 
L 295.458213 96.048001 
L 296.265531 87.310277 
L 297.07285 81.701957 
L 298.687486 121.333069 
L 299.494805 130.536475 
L 300.302123 124.8008 
L 301.109441 117.866559 
L 301.91676 105.613809 
L 302.724078 79.49899 
L 303.531396 72.36937 
L 304.338715 92.964094 
L 305.146033 104.515991 
L 305.953351 91.327823 
L 306.76067 85.661886 
L 307.567988 95.122433 
L 309.182625 139.135895 
L 309.989943 145.156073 
L 310.797262 115.432707 
L 312.411898 79.142961 
L 314.026535 76.610267 
L 314.833853 79.477123 
L 315.641172 83.181274 
L 316.44849 83.403773 
L 317.255808 105.013386 
L 318.063127 108.305653 
L 318.870445 121.748236 
L 319.677763 144.594226 
L 322.099718 81.712531 
L 322.907037 91.628435 
L 323.714355 80.660209 
L 324.521673 82.559875 
L 325.328992 88.297632 
L 326.13631 78.049688 
L 326.943628 65.600803 
L 327.750947 80.245198 
L 328.558265 119.781667 
L 329.365584 133.807573 
L 330.172902 117.159053 
L 330.98022 104.826637 
L 331.787539 89.571234 
L 332.594857 82.389889 
L 333.402175 79.797728 
L 334.209494 83.600313 
L 335.016812 93.029723 
L 335.82413 115.588308 
L 336.631449 103.222784 
L 337.438767 92.991265 
L 338.246085 119.527424 
L 339.053404 140.350936 
L 339.860722 130.504216 
L 340.66804 113.437206 
L 341.475359 86.162266 
L 342.282677 79.805515 
L 343.089995 81.673034 
L 343.897314 94.990496 
L 344.704632 103.672243 
L 345.511951 101.763278 
L 346.319269 101.772616 
L 347.126587 118.528228 
L 348.741224 125.257936 
L 349.548542 123.250646 
L 350.355861 105.686216 
L 351.163179 94.941454 
L 351.970497 86.084323 
L 352.777816 99.318261 
L 353.585134 97.043087 
L 354.392452 71.775346 
L 355.199771 64.705739 
L 356.007089 95.794148 
L 356.814407 110.761248 
L 357.621726 112.99115 
L 358.429044 128.412459 
L 359.236362 112.968229 
L 360.043681 87.461955 
L 360.850999 91.490037 
L 361.658318 88.659369 
L 362.465636 74.52638 
L 363.272954 73.955921 
L 364.080273 70.330899 
L 364.887591 93.066399 
L 365.694909 96.472046 
L 366.502228 113.250127 
L 368.116864 141.810708 
L 368.924183 128.79729 
L 369.731501 111.080991 
L 370.538819 111.37049 
L 371.346138 108.311763 
L 372.153456 97.063909 
L 372.960774 89.438308 
L 373.768093 83.556994 
L 374.575411 80.88074 
L 375.382729 84.786807 
L 376.190048 89.909995 
L 377.804684 134.431693 
L 378.612003 123.701501 
L 379.419321 103.628677 
L 380.22664 99.373832 
L 381.033958 92.358137 
L 381.841276 93.3492 
L 383.455913 61.20482 
L 385.07055 109.848518 
L 385.877868 111.210454 
L 386.685186 123.372648 
L 387.492505 112.380011 
L 388.299823 120.228069 
L 389.107141 96.78299 
L 389.91446 89.910965 
L 390.721778 81.80629 
L 391.529096 72.151932 
L 392.336415 93.592282 
L 393.143733 97.325434 
L 393.951051 93.999404 
L 395.565688 126.732491 
L 396.373007 138.891775 
L 397.180325 137.915002 
L 397.987643 117.121269 
L 398.794962 91.47269 
L 399.60228 81.665485 
L 401.216917 97.234959 
L 402.024235 99.763265 
L 402.831553 96.166027 
L 403.638872 83.766614 
L 404.44619 90.872567 
L 405.253508 120.23376 
L 406.060827 123.564328 
L 406.868145 136.673414 
L 407.675463 132.724842 
L 408.482782 107.342563 
L 409.2901 90.593862 
L 410.097418 71.386093 
L 410.904737 83.564036 
L 411.712055 97.824163 
L 412.519374 93.597475 
L 413.326692 91.491202 
L 414.13401 103.184175 
L 414.941329 112.236119 
L 415.748647 144.995195 
L 416.555965 140.300813 
L 417.363284 125.237946 
L 418.170602 98.713224 
L 418.97792 83.817648 
L 419.785239 77.127994 
L 420.592557 87.721676 
L 421.399875 105.054174 
L 422.207194 86.376282 
L 423.014512 85.447229 
L 424.629149 116.141846 
L 425.436467 113.495363 
L 426.243785 121.688993 
L 427.051104 117.540258 
L 427.858422 100.04768 
L 428.66574 93.758813 
L 430.280377 58.869241 
L 431.087696 75.713973 
L 431.895014 86.585167 
L 432.702332 86.144269 
L 433.509651 77.629472 
L 434.316969 93.201923 
L 435.124287 129.61087 
L 435.931606 140.313463 
L 436.738924 122.90322 
L 437.546242 95.308521 
L 438.353561 91.608174 
L 439.160879 80.636768 
L 439.968197 81.578464 
L 440.775516 98.20113 
L 441.582834 87.581835 
L 442.390152 90.227959 
L 443.197471 101.773882 
L 444.812107 116.287995 
L 445.619426 146.10997 
L 446.426744 126.862232 
L 447.234063 93.41786 
L 448.041381 85.655422 
L 448.848699 92.593301 
L 449.656018 95.048773 
L 450.463336 91.095412 
L 451.270654 90.515873 
L 452.077973 102.051272 
L 452.885291 90.268226 
L 453.692609 93.580135 
L 454.499928 126.917622 
L 455.307246 139.168321 
L 456.114564 124.416643 
L 456.921883 100.402514 
L 457.729201 93.797392 
L 458.536519 95.717665 
L 459.343838 92.113683 
L 460.151156 71.553998 
L 460.958474 69.454046 
L 462.573111 97.25187 
L 463.38043 111.519448 
L 464.187748 136.787148 
L 464.995066 143.52819 
L 465.802385 122.768152 
L 466.609703 90.456781 
L 467.417021 75.58298 
L 468.22434 71.77126 
L 469.031658 65.768054 
L 469.838976 66.681419 
L 470.646295 83.162494 
L 471.453613 107.670176 
L 472.260931 97.851119 
L 473.06825 104.485339 
L 473.875568 115.632908 
L 474.682886 123.560679 
L 475.490205 119.793022 
L 476.297523 105.840802 
L 477.104841 85.265237 
L 477.91216 89.903543 
L 478.719478 81.016243 
L 479.526796 88.482246 
L 480.334115 88.792619 
L 481.141433 94.407473 
L 481.948752 85.638612 
L 482.75607 84.196413 
L 483.563388 99.886088 
L 484.370707 97.622008 
L 484.370707 97.622008 
" clip-path="url(#p0b0cc93eaa)" style="fill: none; stroke: #000000; stroke-width: 1.5; stroke-linecap: square"/>
   </g>
   <g id="patch_3">
    <path d="M 46.965625 186.84327 
L 46.965625 10.999219 
" style="fill: none; stroke: #000000; stroke-width: 0.8; stroke-linejoin: miter; stroke-linecap: square"/>
   </g>
   <g id="patch_4">
    <path d="M 505.19952 186.84327 
L 505.19952 10.999219 
" style="fill: none; stroke: #000000; stroke-width: 0.8; stroke-linejoin: miter; stroke-linecap: square"/>
   </g>
   <g id="patch_5">
    <path d="M 46.965625 186.84327 
L 505.19952 186.84327 
" style="fill: none; stroke: #000000; stroke-width: 0.8; stroke-linejoin: miter; stroke-linecap: square"/>
   </g>
   <g id="patch_6">
    <path d="M 46.965625 10.999219 
L 505.19952 10.999219 
" style="fill: none; stroke: #000000; stroke-width: 0.8; stroke-linejoin: miter; stroke-linecap: square"/>
   </g>
  </g>
 </g>
 <defs>
  <clipPath id="p0b0cc93eaa">
   <rect x="46.965625" y="10.999219" width="458.233895" height="175.844051"/>
  </clipPath>
 </defs>
</svg>
