<?xml version="1.0" encoding="utf-8" standalone="no"?>
<!DOCTYPE svg PUBLIC "-//W3C//DTD SVG 1.1//EN"
  "http://www.w3.org/Graphics/SVG/1.1/DTD/svg11.dtd">
<svg xmlns:xlink="http://www.w3.org/1999/xlink" width="512.39952pt" height="224.39952pt" viewBox="0 0 512.39952 224.39952" xmlns="http://www.w3.org/2000/svg" version="1.1">
 <metadata>
  <rdf:RDF xmlns:dc="http://purl.org/dc/elements/1.1/" xmlns:cc="http://creativecommons.org/ns#" xmlns:rdf="http://www.w3.org/1999/02/22-rdf-syntax-ns#">
   <cc:Work>
    <dc:type rdf:resource="http://purl.org/dc/dcmitype/StillImage"/>
    <dc:date>2023-02-01T13:00:18.667727</dc:date>
    <dc:format>image/svg+xml</dc:format>
    <dc:creator>
     <cc:Agent>
      <dc:title>Matplotlib v3.6.2, https://matplotlib.org/</dc:title>
     </cc:Agent>
    </dc:creator>
   </cc:Work>
  </rdf:RDF>
 </metadata>
 <defs>
  <style type="text/css">*{stroke-linejoin: round; stroke-linecap: butt}</style>
 </defs>
 <g id="figure_1">
  <g id="patch_1">
   <path d="M 0 224.39952 
L 512.39952 224.39952 
L 512.39952 0 
L 0 0 
z
" style="fill: #ffffff"/>
  </g>
  <g id="axes_1">
   <g id="patch_2">
    <path d="M 72.905625 186.84327 
L 505.19952 186.84327 
L 505.19952 22.318125 
L 72.905625 22.318125 
z
" style="fill: #ffffff"/>
   </g>
   <g id="matplotlib.axis_1">
    <g id="xtick_1">
     <g id="line2d_1">
      <defs>
       <path id="m79f388b9ee" d="M 0 0 
L 0 3.5 
" style="stroke: #000000; stroke-width: 0.8"/>
      </defs>
      <g>
       <use xlink:href="#m79f388b9ee" x="101.694753" y="186.84327" style="stroke: #000000; stroke-width: 0.8"/>
      </g>
     </g>
     <g id="text_1">
      <!-- 1980 -->
      <g transform="translate(88.969753 201.441708) scale(0.1 -0.1)">
       <defs>
        <path id="DejaVuSans-31" d="M 794 531 
L 1825 531 
L 1825 4091 
L 703 3866 
L 703 4441 
L 1819 4666 
L 2450 4666 
L 2450 531 
L 3481 531 
L 3481 0 
L 794 0 
L 794 531 
z
" transform="scale(0.015625)"/>
        <path id="DejaVuSans-39" d="M 703 97 
L 703 672 
Q 941 559 1184 500 
Q 1428 441 1663 441 
Q 2288 441 2617 861 
Q 2947 1281 2994 2138 
Q 2813 1869 2534 1725 
Q 2256 1581 1919 1581 
Q 1219 1581 811 2004 
Q 403 2428 403 3163 
Q 403 3881 828 4315 
Q 1253 4750 1959 4750 
Q 2769 4750 3195 4129 
Q 3622 3509 3622 2328 
Q 3622 1225 3098 567 
Q 2575 -91 1691 -91 
Q 1453 -91 1209 -44 
Q 966 3 703 97 
z
M 1959 2075 
Q 2384 2075 2632 2365 
Q 2881 2656 2881 3163 
Q 2881 3666 2632 3958 
Q 2384 4250 1959 4250 
Q 1534 4250 1286 3958 
Q 1038 3666 1038 3163 
Q 1038 2656 1286 2365 
Q 1534 2075 1959 2075 
z
" transform="scale(0.015625)"/>
        <path id="DejaVuSans-38" d="M 2034 2216 
Q 1584 2216 1326 1975 
Q 1069 1734 1069 1313 
Q 1069 891 1326 650 
Q 1584 409 2034 409 
Q 2484 409 2743 651 
Q 3003 894 3003 1313 
Q 3003 1734 2745 1975 
Q 2488 2216 2034 2216 
z
M 1403 2484 
Q 997 2584 770 2862 
Q 544 3141 544 3541 
Q 544 4100 942 4425 
Q 1341 4750 2034 4750 
Q 2731 4750 3128 4425 
Q 3525 4100 3525 3541 
Q 3525 3141 3298 2862 
Q 3072 2584 2669 2484 
Q 3125 2378 3379 2068 
Q 3634 1759 3634 1313 
Q 3634 634 3220 271 
Q 2806 -91 2034 -91 
Q 1263 -91 848 271 
Q 434 634 434 1313 
Q 434 1759 690 2068 
Q 947 2378 1403 2484 
z
M 1172 3481 
Q 1172 3119 1398 2916 
Q 1625 2713 2034 2713 
Q 2441 2713 2670 2916 
Q 2900 3119 2900 3481 
Q 2900 3844 2670 4047 
Q 2441 4250 2034 4250 
Q 1625 4250 1398 4047 
Q 1172 3844 1172 3481 
z
" transform="scale(0.015625)"/>
        <path id="DejaVuSans-30" d="M 2034 4250 
Q 1547 4250 1301 3770 
Q 1056 3291 1056 2328 
Q 1056 1369 1301 889 
Q 1547 409 2034 409 
Q 2525 409 2770 889 
Q 3016 1369 3016 2328 
Q 3016 3291 2770 3770 
Q 2525 4250 2034 4250 
z
M 2034 4750 
Q 2819 4750 3233 4129 
Q 3647 3509 3647 2328 
Q 3647 1150 3233 529 
Q 2819 -91 2034 -91 
Q 1250 -91 836 529 
Q 422 1150 422 2328 
Q 422 3509 836 4129 
Q 1250 4750 2034 4750 
z
" transform="scale(0.015625)"/>
       </defs>
       <use xlink:href="#DejaVuSans-31"/>
       <use xlink:href="#DejaVuSans-39" x="63.623047"/>
       <use xlink:href="#DejaVuSans-38" x="127.246094"/>
       <use xlink:href="#DejaVuSans-30" x="190.869141"/>
      </g>
     </g>
    </g>
    <g id="xtick_2">
     <g id="line2d_2">
      <g>
       <use xlink:href="#m79f388b9ee" x="193.088811" y="186.84327" style="stroke: #000000; stroke-width: 0.8"/>
      </g>
     </g>
     <g id="text_2">
      <!-- 1990 -->
      <g transform="translate(180.363811 201.441708) scale(0.1 -0.1)">
       <use xlink:href="#DejaVuSans-31"/>
       <use xlink:href="#DejaVuSans-39" x="63.623047"/>
       <use xlink:href="#DejaVuSans-39" x="127.246094"/>
       <use xlink:href="#DejaVuSans-30" x="190.869141"/>
      </g>
     </g>
    </g>
    <g id="xtick_3">
     <g id="line2d_3">
      <g>
       <use xlink:href="#m79f388b9ee" x="284.48287" y="186.84327" style="stroke: #000000; stroke-width: 0.8"/>
      </g>
     </g>
     <g id="text_3">
      <!-- 2000 -->
      <g transform="translate(271.75787 201.441708) scale(0.1 -0.1)">
       <defs>
        <path id="DejaVuSans-32" d="M 1228 531 
L 3431 531 
L 3431 0 
L 469 0 
L 469 531 
Q 828 903 1448 1529 
Q 2069 2156 2228 2338 
Q 2531 2678 2651 2914 
Q 2772 3150 2772 3378 
Q 2772 3750 2511 3984 
Q 2250 4219 1831 4219 
Q 1534 4219 1204 4116 
Q 875 4013 500 3803 
L 500 4441 
Q 881 4594 1212 4672 
Q 1544 4750 1819 4750 
Q 2544 4750 2975 4387 
Q 3406 4025 3406 3419 
Q 3406 3131 3298 2873 
Q 3191 2616 2906 2266 
Q 2828 2175 2409 1742 
Q 1991 1309 1228 531 
z
" transform="scale(0.015625)"/>
       </defs>
       <use xlink:href="#DejaVuSans-32"/>
       <use xlink:href="#DejaVuSans-30" x="63.623047"/>
       <use xlink:href="#DejaVuSans-30" x="127.246094"/>
       <use xlink:href="#DejaVuSans-30" x="190.869141"/>
      </g>
     </g>
    </g>
    <g id="xtick_4">
     <g id="line2d_4">
      <g>
       <use xlink:href="#m79f388b9ee" x="375.876928" y="186.84327" style="stroke: #000000; stroke-width: 0.8"/>
      </g>
     </g>
     <g id="text_4">
      <!-- 2010 -->
      <g transform="translate(363.151928 201.441708) scale(0.1 -0.1)">
       <use xlink:href="#DejaVuSans-32"/>
       <use xlink:href="#DejaVuSans-30" x="63.623047"/>
       <use xlink:href="#DejaVuSans-31" x="127.246094"/>
       <use xlink:href="#DejaVuSans-30" x="190.869141"/>
      </g>
     </g>
    </g>
    <g id="xtick_5">
     <g id="line2d_5">
      <g>
       <use xlink:href="#m79f388b9ee" x="467.270986" y="186.84327" style="stroke: #000000; stroke-width: 0.8"/>
      </g>
     </g>
     <g id="text_5">
      <!-- 2020 -->
      <g transform="translate(454.545986 201.441708) scale(0.1 -0.1)">
       <use xlink:href="#DejaVuSans-32"/>
       <use xlink:href="#DejaVuSans-30" x="63.623047"/>
       <use xlink:href="#DejaVuSans-32" x="127.246094"/>
       <use xlink:href="#DejaVuSans-30" x="190.869141"/>
      </g>
     </g>
    </g>
    <g id="text_6">
     <!-- Year -->
     <g transform="translate(278.465073 215.119833) scale(0.1 -0.1)">
      <defs>
       <path id="DejaVuSans-59" d="M -13 4666 
L 666 4666 
L 1959 2747 
L 3244 4666 
L 3922 4666 
L 2272 2222 
L 2272 0 
L 1638 0 
L 1638 2222 
L -13 4666 
z
" transform="scale(0.015625)"/>
       <path id="DejaVuSans-65" d="M 3597 1894 
L 3597 1613 
L 953 1613 
Q 991 1019 1311 708 
Q 1631 397 2203 397 
Q 2534 397 2845 478 
Q 3156 559 3463 722 
L 3463 178 
Q 3153 47 2828 -22 
Q 2503 -91 2169 -91 
Q 1331 -91 842 396 
Q 353 884 353 1716 
Q 353 2575 817 3079 
Q 1281 3584 2069 3584 
Q 2775 3584 3186 3129 
Q 3597 2675 3597 1894 
z
M 3022 2063 
Q 3016 2534 2758 2815 
Q 2500 3097 2075 3097 
Q 1594 3097 1305 2825 
Q 1016 2553 972 2059 
L 3022 2063 
z
" transform="scale(0.015625)"/>
       <path id="DejaVuSans-61" d="M 2194 1759 
Q 1497 1759 1228 1600 
Q 959 1441 959 1056 
Q 959 750 1161 570 
Q 1363 391 1709 391 
Q 2188 391 2477 730 
Q 2766 1069 2766 1631 
L 2766 1759 
L 2194 1759 
z
M 3341 1997 
L 3341 0 
L 2766 0 
L 2766 531 
Q 2569 213 2275 61 
Q 1981 -91 1556 -91 
Q 1019 -91 701 211 
Q 384 513 384 1019 
Q 384 1609 779 1909 
Q 1175 2209 1959 2209 
L 2766 2209 
L 2766 2266 
Q 2766 2663 2505 2880 
Q 2244 3097 1772 3097 
Q 1472 3097 1187 3025 
Q 903 2953 641 2809 
L 641 3341 
Q 956 3463 1253 3523 
Q 1550 3584 1831 3584 
Q 2591 3584 2966 3190 
Q 3341 2797 3341 1997 
z
" transform="scale(0.015625)"/>
       <path id="DejaVuSans-72" d="M 2631 2963 
Q 2534 3019 2420 3045 
Q 2306 3072 2169 3072 
Q 1681 3072 1420 2755 
Q 1159 2438 1159 1844 
L 1159 0 
L 581 0 
L 581 3500 
L 1159 3500 
L 1159 2956 
Q 1341 3275 1631 3429 
Q 1922 3584 2338 3584 
Q 2397 3584 2469 3576 
Q 2541 3569 2628 3553 
L 2631 2963 
z
" transform="scale(0.015625)"/>
      </defs>
      <use xlink:href="#DejaVuSans-59"/>
      <use xlink:href="#DejaVuSans-65" x="47.833984"/>
      <use xlink:href="#DejaVuSans-61" x="109.357422"/>
      <use xlink:href="#DejaVuSans-72" x="170.636719"/>
     </g>
    </g>
   </g>
   <g id="matplotlib.axis_2">
    <g id="ytick_1">
     <g id="line2d_6">
      <defs>
       <path id="m13d973106a" d="M 0 0 
L -3.5 0 
" style="stroke: #000000; stroke-width: 0.8"/>
      </defs>
      <g>
       <use xlink:href="#m13d973106a" x="72.905625" y="186.84327" style="stroke: #000000; stroke-width: 0.8"/>
      </g>
     </g>
     <g id="text_7">
      <!-- −3000 -->
      <g transform="translate(32.075938 190.642489) scale(0.1 -0.1)">
       <defs>
        <path id="DejaVuSans-2212" d="M 678 2272 
L 4684 2272 
L 4684 1741 
L 678 1741 
L 678 2272 
z
" transform="scale(0.015625)"/>
        <path id="DejaVuSans-33" d="M 2597 2516 
Q 3050 2419 3304 2112 
Q 3559 1806 3559 1356 
Q 3559 666 3084 287 
Q 2609 -91 1734 -91 
Q 1441 -91 1130 -33 
Q 819 25 488 141 
L 488 750 
Q 750 597 1062 519 
Q 1375 441 1716 441 
Q 2309 441 2620 675 
Q 2931 909 2931 1356 
Q 2931 1769 2642 2001 
Q 2353 2234 1838 2234 
L 1294 2234 
L 1294 2753 
L 1863 2753 
Q 2328 2753 2575 2939 
Q 2822 3125 2822 3475 
Q 2822 3834 2567 4026 
Q 2313 4219 1838 4219 
Q 1578 4219 1281 4162 
Q 984 4106 628 3988 
L 628 4550 
Q 988 4650 1302 4700 
Q 1616 4750 1894 4750 
Q 2613 4750 3031 4423 
Q 3450 4097 3450 3541 
Q 3450 3153 3228 2886 
Q 3006 2619 2597 2516 
z
" transform="scale(0.015625)"/>
       </defs>
       <use xlink:href="#DejaVuSans-2212"/>
       <use xlink:href="#DejaVuSans-33" x="83.789062"/>
       <use xlink:href="#DejaVuSans-30" x="147.412109"/>
       <use xlink:href="#DejaVuSans-30" x="211.035156"/>
       <use xlink:href="#DejaVuSans-30" x="274.658203"/>
      </g>
     </g>
    </g>
    <g id="ytick_2">
     <g id="line2d_7">
      <g>
       <use xlink:href="#m13d973106a" x="72.905625" y="164.906584" style="stroke: #000000; stroke-width: 0.8"/>
      </g>
     </g>
     <g id="text_8">
      <!-- −2500 -->
      <g transform="translate(32.075938 168.705803) scale(0.1 -0.1)">
       <defs>
        <path id="DejaVuSans-35" d="M 691 4666 
L 3169 4666 
L 3169 4134 
L 1269 4134 
L 1269 2991 
Q 1406 3038 1543 3061 
Q 1681 3084 1819 3084 
Q 2600 3084 3056 2656 
Q 3513 2228 3513 1497 
Q 3513 744 3044 326 
Q 2575 -91 1722 -91 
Q 1428 -91 1123 -41 
Q 819 9 494 109 
L 494 744 
Q 775 591 1075 516 
Q 1375 441 1709 441 
Q 2250 441 2565 725 
Q 2881 1009 2881 1497 
Q 2881 1984 2565 2268 
Q 2250 2553 1709 2553 
Q 1456 2553 1204 2497 
Q 953 2441 691 2322 
L 691 4666 
z
" transform="scale(0.015625)"/>
       </defs>
       <use xlink:href="#DejaVuSans-2212"/>
       <use xlink:href="#DejaVuSans-32" x="83.789062"/>
       <use xlink:href="#DejaVuSans-35" x="147.412109"/>
       <use xlink:href="#DejaVuSans-30" x="211.035156"/>
       <use xlink:href="#DejaVuSans-30" x="274.658203"/>
      </g>
     </g>
    </g>
    <g id="ytick_3">
     <g id="line2d_8">
      <g>
       <use xlink:href="#m13d973106a" x="72.905625" y="142.969898" style="stroke: #000000; stroke-width: 0.8"/>
      </g>
     </g>
     <g id="text_9">
      <!-- −2000 -->
      <g transform="translate(32.075938 146.769117) scale(0.1 -0.1)">
       <use xlink:href="#DejaVuSans-2212"/>
       <use xlink:href="#DejaVuSans-32" x="83.789062"/>
       <use xlink:href="#DejaVuSans-30" x="147.412109"/>
       <use xlink:href="#DejaVuSans-30" x="211.035156"/>
       <use xlink:href="#DejaVuSans-30" x="274.658203"/>
      </g>
     </g>
    </g>
    <g id="ytick_4">
     <g id="line2d_9">
      <g>
       <use xlink:href="#m13d973106a" x="72.905625" y="121.033212" style="stroke: #000000; stroke-width: 0.8"/>
      </g>
     </g>
     <g id="text_10">
      <!-- −1500 -->
      <g transform="translate(32.075938 124.832431) scale(0.1 -0.1)">
       <use xlink:href="#DejaVuSans-2212"/>
       <use xlink:href="#DejaVuSans-31" x="83.789062"/>
       <use xlink:href="#DejaVuSans-35" x="147.412109"/>
       <use xlink:href="#DejaVuSans-30" x="211.035156"/>
       <use xlink:href="#DejaVuSans-30" x="274.658203"/>
      </g>
     </g>
    </g>
    <g id="ytick_5">
     <g id="line2d_10">
      <g>
       <use xlink:href="#m13d973106a" x="72.905625" y="99.096526" style="stroke: #000000; stroke-width: 0.8"/>
      </g>
     </g>
     <g id="text_11">
      <!-- −1000 -->
      <g transform="translate(32.075938 102.895745) scale(0.1 -0.1)">
       <use xlink:href="#DejaVuSans-2212"/>
       <use xlink:href="#DejaVuSans-31" x="83.789062"/>
       <use xlink:href="#DejaVuSans-30" x="147.412109"/>
       <use xlink:href="#DejaVuSans-30" x="211.035156"/>
       <use xlink:href="#DejaVuSans-30" x="274.658203"/>
      </g>
     </g>
    </g>
    <g id="ytick_6">
     <g id="line2d_11">
      <g>
       <use xlink:href="#m13d973106a" x="72.905625" y="77.15984" style="stroke: #000000; stroke-width: 0.8"/>
      </g>
     </g>
     <g id="text_12">
      <!-- −500 -->
      <g transform="translate(38.438437 80.959059) scale(0.1 -0.1)">
       <use xlink:href="#DejaVuSans-2212"/>
       <use xlink:href="#DejaVuSans-35" x="83.789062"/>
       <use xlink:href="#DejaVuSans-30" x="147.412109"/>
       <use xlink:href="#DejaVuSans-30" x="211.035156"/>
      </g>
     </g>
    </g>
    <g id="ytick_7">
     <g id="line2d_12">
      <g>
       <use xlink:href="#m13d973106a" x="72.905625" y="55.223154" style="stroke: #000000; stroke-width: 0.8"/>
      </g>
     </g>
     <g id="text_13">
      <!-- 0 -->
      <g transform="translate(59.543125 59.022373) scale(0.1 -0.1)">
       <use xlink:href="#DejaVuSans-30"/>
      </g>
     </g>
    </g>
    <g id="ytick_8">
     <g id="line2d_13">
      <g>
       <use xlink:href="#m13d973106a" x="72.905625" y="33.286468" style="stroke: #000000; stroke-width: 0.8"/>
      </g>
     </g>
     <g id="text_14">
      <!-- 500 -->
      <g transform="translate(46.818125 37.085687) scale(0.1 -0.1)">
       <use xlink:href="#DejaVuSans-35"/>
       <use xlink:href="#DejaVuSans-30" x="63.623047"/>
       <use xlink:href="#DejaVuSans-30" x="127.246094"/>
      </g>
     </g>
    </g>
    <g id="text_15">
     <!-- Cumulative SMB Anomaly [Gt]  -->
     <g transform="translate(14.798438 182.060385) rotate(-90) scale(0.1 -0.1)">
      <defs>
       <path id="DejaVuSans-43" d="M 4122 4306 
L 4122 3641 
Q 3803 3938 3442 4084 
Q 3081 4231 2675 4231 
Q 1875 4231 1450 3742 
Q 1025 3253 1025 2328 
Q 1025 1406 1450 917 
Q 1875 428 2675 428 
Q 3081 428 3442 575 
Q 3803 722 4122 1019 
L 4122 359 
Q 3791 134 3420 21 
Q 3050 -91 2638 -91 
Q 1578 -91 968 557 
Q 359 1206 359 2328 
Q 359 3453 968 4101 
Q 1578 4750 2638 4750 
Q 3056 4750 3426 4639 
Q 3797 4528 4122 4306 
z
" transform="scale(0.015625)"/>
       <path id="DejaVuSans-75" d="M 544 1381 
L 544 3500 
L 1119 3500 
L 1119 1403 
Q 1119 906 1312 657 
Q 1506 409 1894 409 
Q 2359 409 2629 706 
Q 2900 1003 2900 1516 
L 2900 3500 
L 3475 3500 
L 3475 0 
L 2900 0 
L 2900 538 
Q 2691 219 2414 64 
Q 2138 -91 1772 -91 
Q 1169 -91 856 284 
Q 544 659 544 1381 
z
M 1991 3584 
L 1991 3584 
z
" transform="scale(0.015625)"/>
       <path id="DejaVuSans-6d" d="M 3328 2828 
Q 3544 3216 3844 3400 
Q 4144 3584 4550 3584 
Q 5097 3584 5394 3201 
Q 5691 2819 5691 2113 
L 5691 0 
L 5113 0 
L 5113 2094 
Q 5113 2597 4934 2840 
Q 4756 3084 4391 3084 
Q 3944 3084 3684 2787 
Q 3425 2491 3425 1978 
L 3425 0 
L 2847 0 
L 2847 2094 
Q 2847 2600 2669 2842 
Q 2491 3084 2119 3084 
Q 1678 3084 1418 2786 
Q 1159 2488 1159 1978 
L 1159 0 
L 581 0 
L 581 3500 
L 1159 3500 
L 1159 2956 
Q 1356 3278 1631 3431 
Q 1906 3584 2284 3584 
Q 2666 3584 2933 3390 
Q 3200 3197 3328 2828 
z
" transform="scale(0.015625)"/>
       <path id="DejaVuSans-6c" d="M 603 4863 
L 1178 4863 
L 1178 0 
L 603 0 
L 603 4863 
z
" transform="scale(0.015625)"/>
       <path id="DejaVuSans-74" d="M 1172 4494 
L 1172 3500 
L 2356 3500 
L 2356 3053 
L 1172 3053 
L 1172 1153 
Q 1172 725 1289 603 
Q 1406 481 1766 481 
L 2356 481 
L 2356 0 
L 1766 0 
Q 1100 0 847 248 
Q 594 497 594 1153 
L 594 3053 
L 172 3053 
L 172 3500 
L 594 3500 
L 594 4494 
L 1172 4494 
z
" transform="scale(0.015625)"/>
       <path id="DejaVuSans-69" d="M 603 3500 
L 1178 3500 
L 1178 0 
L 603 0 
L 603 3500 
z
M 603 4863 
L 1178 4863 
L 1178 4134 
L 603 4134 
L 603 4863 
z
" transform="scale(0.015625)"/>
       <path id="DejaVuSans-76" d="M 191 3500 
L 800 3500 
L 1894 563 
L 2988 3500 
L 3597 3500 
L 2284 0 
L 1503 0 
L 191 3500 
z
" transform="scale(0.015625)"/>
       <path id="DejaVuSans-20" transform="scale(0.015625)"/>
       <path id="DejaVuSans-53" d="M 3425 4513 
L 3425 3897 
Q 3066 4069 2747 4153 
Q 2428 4238 2131 4238 
Q 1616 4238 1336 4038 
Q 1056 3838 1056 3469 
Q 1056 3159 1242 3001 
Q 1428 2844 1947 2747 
L 2328 2669 
Q 3034 2534 3370 2195 
Q 3706 1856 3706 1288 
Q 3706 609 3251 259 
Q 2797 -91 1919 -91 
Q 1588 -91 1214 -16 
Q 841 59 441 206 
L 441 856 
Q 825 641 1194 531 
Q 1563 422 1919 422 
Q 2459 422 2753 634 
Q 3047 847 3047 1241 
Q 3047 1584 2836 1778 
Q 2625 1972 2144 2069 
L 1759 2144 
Q 1053 2284 737 2584 
Q 422 2884 422 3419 
Q 422 4038 858 4394 
Q 1294 4750 2059 4750 
Q 2388 4750 2728 4690 
Q 3069 4631 3425 4513 
z
" transform="scale(0.015625)"/>
       <path id="DejaVuSans-4d" d="M 628 4666 
L 1569 4666 
L 2759 1491 
L 3956 4666 
L 4897 4666 
L 4897 0 
L 4281 0 
L 4281 4097 
L 3078 897 
L 2444 897 
L 1241 4097 
L 1241 0 
L 628 0 
L 628 4666 
z
" transform="scale(0.015625)"/>
       <path id="DejaVuSans-42" d="M 1259 2228 
L 1259 519 
L 2272 519 
Q 2781 519 3026 730 
Q 3272 941 3272 1375 
Q 3272 1813 3026 2020 
Q 2781 2228 2272 2228 
L 1259 2228 
z
M 1259 4147 
L 1259 2741 
L 2194 2741 
Q 2656 2741 2882 2914 
Q 3109 3088 3109 3444 
Q 3109 3797 2882 3972 
Q 2656 4147 2194 4147 
L 1259 4147 
z
M 628 4666 
L 2241 4666 
Q 2963 4666 3353 4366 
Q 3744 4066 3744 3513 
Q 3744 3084 3544 2831 
Q 3344 2578 2956 2516 
Q 3422 2416 3680 2098 
Q 3938 1781 3938 1306 
Q 3938 681 3513 340 
Q 3088 0 2303 0 
L 628 0 
L 628 4666 
z
" transform="scale(0.015625)"/>
       <path id="DejaVuSans-41" d="M 2188 4044 
L 1331 1722 
L 3047 1722 
L 2188 4044 
z
M 1831 4666 
L 2547 4666 
L 4325 0 
L 3669 0 
L 3244 1197 
L 1141 1197 
L 716 0 
L 50 0 
L 1831 4666 
z
" transform="scale(0.015625)"/>
       <path id="DejaVuSans-6e" d="M 3513 2113 
L 3513 0 
L 2938 0 
L 2938 2094 
Q 2938 2591 2744 2837 
Q 2550 3084 2163 3084 
Q 1697 3084 1428 2787 
Q 1159 2491 1159 1978 
L 1159 0 
L 581 0 
L 581 3500 
L 1159 3500 
L 1159 2956 
Q 1366 3272 1645 3428 
Q 1925 3584 2291 3584 
Q 2894 3584 3203 3211 
Q 3513 2838 3513 2113 
z
" transform="scale(0.015625)"/>
       <path id="DejaVuSans-6f" d="M 1959 3097 
Q 1497 3097 1228 2736 
Q 959 2375 959 1747 
Q 959 1119 1226 758 
Q 1494 397 1959 397 
Q 2419 397 2687 759 
Q 2956 1122 2956 1747 
Q 2956 2369 2687 2733 
Q 2419 3097 1959 3097 
z
M 1959 3584 
Q 2709 3584 3137 3096 
Q 3566 2609 3566 1747 
Q 3566 888 3137 398 
Q 2709 -91 1959 -91 
Q 1206 -91 779 398 
Q 353 888 353 1747 
Q 353 2609 779 3096 
Q 1206 3584 1959 3584 
z
" transform="scale(0.015625)"/>
       <path id="DejaVuSans-79" d="M 2059 -325 
Q 1816 -950 1584 -1140 
Q 1353 -1331 966 -1331 
L 506 -1331 
L 506 -850 
L 844 -850 
Q 1081 -850 1212 -737 
Q 1344 -625 1503 -206 
L 1606 56 
L 191 3500 
L 800 3500 
L 1894 763 
L 2988 3500 
L 3597 3500 
L 2059 -325 
z
" transform="scale(0.015625)"/>
       <path id="DejaVuSans-5b" d="M 550 4863 
L 1875 4863 
L 1875 4416 
L 1125 4416 
L 1125 -397 
L 1875 -397 
L 1875 -844 
L 550 -844 
L 550 4863 
z
" transform="scale(0.015625)"/>
       <path id="DejaVuSans-47" d="M 3809 666 
L 3809 1919 
L 2778 1919 
L 2778 2438 
L 4434 2438 
L 4434 434 
Q 4069 175 3628 42 
Q 3188 -91 2688 -91 
Q 1594 -91 976 548 
Q 359 1188 359 2328 
Q 359 3472 976 4111 
Q 1594 4750 2688 4750 
Q 3144 4750 3555 4637 
Q 3966 4525 4313 4306 
L 4313 3634 
Q 3963 3931 3569 4081 
Q 3175 4231 2741 4231 
Q 1884 4231 1454 3753 
Q 1025 3275 1025 2328 
Q 1025 1384 1454 906 
Q 1884 428 2741 428 
Q 3075 428 3337 486 
Q 3600 544 3809 666 
z
" transform="scale(0.015625)"/>
       <path id="DejaVuSans-5d" d="M 1947 4863 
L 1947 -844 
L 622 -844 
L 622 -397 
L 1369 -397 
L 1369 4416 
L 622 4416 
L 622 4863 
L 1947 4863 
z
" transform="scale(0.015625)"/>
      </defs>
      <use xlink:href="#DejaVuSans-43"/>
      <use xlink:href="#DejaVuSans-75" x="69.824219"/>
      <use xlink:href="#DejaVuSans-6d" x="133.203125"/>
      <use xlink:href="#DejaVuSans-75" x="230.615234"/>
      <use xlink:href="#DejaVuSans-6c" x="293.994141"/>
      <use xlink:href="#DejaVuSans-61" x="321.777344"/>
      <use xlink:href="#DejaVuSans-74" x="383.056641"/>
      <use xlink:href="#DejaVuSans-69" x="422.265625"/>
      <use xlink:href="#DejaVuSans-76" x="450.048828"/>
      <use xlink:href="#DejaVuSans-65" x="509.228516"/>
      <use xlink:href="#DejaVuSans-20" x="570.751953"/>
      <use xlink:href="#DejaVuSans-53" x="602.539062"/>
      <use xlink:href="#DejaVuSans-4d" x="666.015625"/>
      <use xlink:href="#DejaVuSans-42" x="752.294922"/>
      <use xlink:href="#DejaVuSans-20" x="820.898438"/>
      <use xlink:href="#DejaVuSans-41" x="852.685547"/>
      <use xlink:href="#DejaVuSans-6e" x="921.09375"/>
      <use xlink:href="#DejaVuSans-6f" x="984.472656"/>
      <use xlink:href="#DejaVuSans-6d" x="1045.654297"/>
      <use xlink:href="#DejaVuSans-61" x="1143.066406"/>
      <use xlink:href="#DejaVuSans-6c" x="1204.345703"/>
      <use xlink:href="#DejaVuSans-79" x="1232.128906"/>
      <use xlink:href="#DejaVuSans-20" x="1291.308594"/>
      <use xlink:href="#DejaVuSans-5b" x="1323.095703"/>
      <use xlink:href="#DejaVuSans-47" x="1362.109375"/>
      <use xlink:href="#DejaVuSans-74" x="1439.599609"/>
      <use xlink:href="#DejaVuSans-5d" x="1478.808594"/>
      <use xlink:href="#DejaVuSans-20" x="1517.822266"/>
     </g>
     <!-- (w.r.t 1979-2010) -->
     <g transform="translate(25.99625 147.695541) rotate(-90) scale(0.1 -0.1)">
      <defs>
       <path id="DejaVuSans-28" d="M 1984 4856 
Q 1566 4138 1362 3434 
Q 1159 2731 1159 2009 
Q 1159 1288 1364 580 
Q 1569 -128 1984 -844 
L 1484 -844 
Q 1016 -109 783 600 
Q 550 1309 550 2009 
Q 550 2706 781 3412 
Q 1013 4119 1484 4856 
L 1984 4856 
z
" transform="scale(0.015625)"/>
       <path id="DejaVuSans-77" d="M 269 3500 
L 844 3500 
L 1563 769 
L 2278 3500 
L 2956 3500 
L 3675 769 
L 4391 3500 
L 4966 3500 
L 4050 0 
L 3372 0 
L 2619 2869 
L 1863 0 
L 1184 0 
L 269 3500 
z
" transform="scale(0.015625)"/>
       <path id="DejaVuSans-2e" d="M 684 794 
L 1344 794 
L 1344 0 
L 684 0 
L 684 794 
z
" transform="scale(0.015625)"/>
       <path id="DejaVuSans-37" d="M 525 4666 
L 3525 4666 
L 3525 4397 
L 1831 0 
L 1172 0 
L 2766 4134 
L 525 4134 
L 525 4666 
z
" transform="scale(0.015625)"/>
       <path id="DejaVuSans-2d" d="M 313 2009 
L 1997 2009 
L 1997 1497 
L 313 1497 
L 313 2009 
z
" transform="scale(0.015625)"/>
       <path id="DejaVuSans-29" d="M 513 4856 
L 1013 4856 
Q 1481 4119 1714 3412 
Q 1947 2706 1947 2009 
Q 1947 1309 1714 600 
Q 1481 -109 1013 -844 
L 513 -844 
Q 928 -128 1133 580 
Q 1338 1288 1338 2009 
Q 1338 2731 1133 3434 
Q 928 4138 513 4856 
z
" transform="scale(0.015625)"/>
      </defs>
      <use xlink:href="#DejaVuSans-28"/>
      <use xlink:href="#DejaVuSans-77" x="39.013672"/>
      <use xlink:href="#DejaVuSans-2e" x="111.675781"/>
      <use xlink:href="#DejaVuSans-72" x="143.462891"/>
      <use xlink:href="#DejaVuSans-2e" x="175.451172"/>
      <use xlink:href="#DejaVuSans-74" x="207.238281"/>
      <use xlink:href="#DejaVuSans-20" x="246.447266"/>
      <use xlink:href="#DejaVuSans-31" x="278.234375"/>
      <use xlink:href="#DejaVuSans-39" x="341.857422"/>
      <use xlink:href="#DejaVuSans-37" x="405.480469"/>
      <use xlink:href="#DejaVuSans-39" x="469.103516"/>
      <use xlink:href="#DejaVuSans-2d" x="532.726562"/>
      <use xlink:href="#DejaVuSans-32" x="568.810547"/>
      <use xlink:href="#DejaVuSans-30" x="632.433594"/>
      <use xlink:href="#DejaVuSans-31" x="696.056641"/>
      <use xlink:href="#DejaVuSans-30" x="759.679688"/>
      <use xlink:href="#DejaVuSans-29" x="823.302734"/>
     </g>
    </g>
   </g>
   <g id="line2d_14">
    <path d="M 92.555347 57.836329 
L 93.316965 60.399767 
L 94.078582 59.836899 
L 95.601816 56.681613 
L 96.363433 55.579916 
L 97.12505 54.829354 
L 97.886668 53.587813 
L 98.648285 52.855015 
L 100.171519 52.412613 
L 100.933136 54.47177 
L 101.694753 57.425744 
L 102.45637 58.930658 
L 103.217988 57.731314 
L 105.502839 50.36717 
L 106.264456 48.956093 
L 107.026073 46.811982 
L 107.787691 46.94038 
L 108.549308 46.789456 
L 109.310925 47.815904 
L 110.834159 53.305514 
L 111.595776 55.036745 
L 112.357393 55.381583 
L 113.119011 54.222067 
L 113.880628 52.179638 
L 114.642245 48.582673 
L 115.403862 44.169079 
L 116.165479 41.466159 
L 116.927096 40.457096 
L 117.688713 40.358684 
L 118.450331 41.225048 
L 119.211948 42.432754 
L 119.973565 44.619504 
L 120.735182 47.2502 
L 121.496799 48.76523 
L 122.258416 47.879904 
L 123.020034 45.744235 
L 124.543268 37.14969 
L 125.304885 36.11896 
L 126.066502 35.897317 
L 126.828119 34.83746 
L 127.589736 35.093282 
L 128.351354 37.615136 
L 129.112971 40.842408 
L 129.874588 43.269224 
L 130.636205 44.249629 
L 131.397822 43.328996 
L 132.921057 39.502834 
L 133.682674 38.929085 
L 134.444291 39.194249 
L 135.205908 37.618886 
L 135.967525 36.300541 
L 136.729142 37.82832 
L 139.013994 44.755096 
L 139.775611 44.476485 
L 140.537228 41.071459 
L 141.298845 38.577603 
L 142.060462 36.756432 
L 142.822079 36.553002 
L 145.106931 33.143226 
L 145.868548 33.009073 
L 147.391782 37.594623 
L 148.1534 40.090169 
L 148.915017 41.496258 
L 150.438251 39.203851 
L 151.199868 37.553422 
L 151.961485 34.596566 
L 152.723102 32.197295 
L 153.48472 31.397835 
L 154.246337 31.042423 
L 155.007954 30.920214 
L 155.769571 31.254793 
L 157.292805 36.157926 
L 158.054423 36.902062 
L 158.81604 35.870916 
L 159.577657 35.097782 
L 160.339274 35.342695 
L 161.100891 34.728887 
L 161.862508 33.475487 
L 162.624125 33.042678 
L 163.385743 31.982297 
L 164.14736 31.134344 
L 164.908977 33.575132 
L 165.670594 36.822817 
L 166.432211 39.29699 
L 167.193828 40.089871 
L 167.955445 39.920432 
L 168.717063 40.768296 
L 169.47868 40.219738 
L 170.240297 39.435995 
L 171.001914 39.180603 
L 171.763531 39.054872 
L 172.525148 39.262956 
L 173.286766 39.766713 
L 174.048383 42.396592 
L 174.81 45.76585 
L 175.571617 47.311959 
L 176.333234 48.197609 
L 177.094851 46.779424 
L 177.856468 44.795779 
L 178.618086 44.208335 
L 179.379703 44.125119 
L 180.14132 42.320053 
L 180.902937 40.095296 
L 181.664554 40.115165 
L 182.426171 41.941526 
L 184.711023 51.800669 
L 185.47264 52.089645 
L 186.995874 50.815805 
L 187.757491 49.838037 
L 188.519109 48.67221 
L 189.280726 46.738193 
L 190.042343 45.261496 
L 190.80396 44.512485 
L 191.565577 44.976047 
L 193.088811 49.201229 
L 193.850429 50.73216 
L 194.612046 51.536817 
L 195.373663 51.312871 
L 196.13528 50.538939 
L 196.896897 50.522365 
L 197.658514 49.773669 
L 198.420132 48.45521 
L 199.181749 48.034098 
L 199.943366 48.047555 
L 202.228217 54.459564 
L 202.989834 55.632725 
L 203.751452 55.013593 
L 204.513069 52.561007 
L 205.274686 50.885146 
L 206.79792 48.919659 
L 207.559537 47.868439 
L 208.321154 47.166856 
L 209.082772 46.626436 
L 209.844389 46.978318 
L 210.606006 49.73128 
L 211.367623 53.522502 
L 212.12924 56.20313 
L 212.890857 56.69268 
L 213.652475 54.86057 
L 214.414092 51.456076 
L 215.937326 48.225655 
L 216.698943 45.994001 
L 217.46056 44.509108 
L 218.222177 44.795452 
L 218.983795 44.250447 
L 219.745412 43.990933 
L 220.507029 46.552453 
L 221.268646 47.319833 
L 222.030263 45.50427 
L 222.79188 45.091671 
L 223.553498 45.238011 
L 224.315115 44.721312 
L 225.076732 43.285587 
L 225.838349 41.052671 
L 226.599966 39.730935 
L 227.361583 39.951239 
L 228.1232 40.885054 
L 230.408052 48.3411 
L 231.169669 49.029608 
L 233.45452 46.157985 
L 234.216138 46.700326 
L 234.977755 47.093472 
L 235.739372 46.985097 
L 236.500989 46.613668 
L 237.262606 47.825396 
L 239.547458 54.055931 
L 240.309075 54.282852 
L 241.070692 53.848806 
L 241.832309 52.255966 
L 242.593926 51.206412 
L 243.355543 49.740847 
L 244.117161 48.858159 
L 244.878778 47.570324 
L 245.640395 47.409561 
L 246.402012 48.779167 
L 247.163629 51.690842 
L 247.925246 54.021818 
L 248.686863 55.83714 
L 249.448481 55.358195 
L 250.210098 53.283799 
L 250.971715 51.725986 
L 251.733332 51.595562 
L 252.494949 49.098906 
L 253.256566 47.695042 
L 254.018184 48.009865 
L 255.541418 49.679899 
L 256.303035 51.767065 
L 257.064652 55.101136 
L 257.826269 57.469981 
L 258.587886 57.41414 
L 260.111121 55.159932 
L 260.872738 53.518305 
L 261.634355 52.506795 
L 262.395972 52.181102 
L 263.157589 52.919466 
L 263.919207 53.334756 
L 264.680824 54.919096 
L 265.442441 57.33602 
L 266.204058 60.782792 
L 266.965675 63.153424 
L 267.727292 62.963359 
L 268.488909 61.585148 
L 270.012144 53.84665 
L 270.773761 52.662528 
L 271.535378 51.869791 
L 272.296995 51.594909 
L 273.058612 52.576207 
L 273.820229 53.995642 
L 274.581847 54.98385 
L 276.105081 60.372272 
L 276.866698 60.97148 
L 277.628315 60.998065 
L 279.15155 58.808383 
L 279.913167 59.802131 
L 280.674784 59.381779 
L 281.436401 59.71121 
L 282.198018 59.182175 
L 282.959635 57.528835 
L 283.721252 58.64154 
L 285.244487 63.164224 
L 286.006104 62.879489 
L 286.767721 61.84761 
L 287.529338 62.082232 
L 288.290955 60.366939 
L 289.052573 59.289832 
L 289.81419 57.711551 
L 290.575807 56.710723 
L 291.337424 56.095377 
L 292.099041 56.796946 
L 292.860658 58.877116 
L 293.622275 63.041127 
L 294.383893 64.717018 
L 295.14551 65.478117 
L 295.907127 64.52178 
L 296.668744 62.780188 
L 297.430361 60.509186 
L 298.191978 59.560774 
L 298.953595 59.121591 
L 299.715213 59.440783 
L 300.47683 58.831771 
L 301.238447 59.04367 
L 302.000064 59.136291 
L 302.761681 58.7007 
L 303.523298 58.736017 
L 304.284916 58.338053 
L 305.80815 54.014838 
L 306.569767 53.149911 
L 307.331384 52.799274 
L 308.093001 51.685611 
L 308.854618 50.082198 
L 309.616236 50.235171 
L 310.377853 52.092567 
L 311.13947 54.753656 
L 311.901087 56.913873 
L 312.662704 58.468554 
L 313.424321 58.953257 
L 314.185938 57.157468 
L 314.947556 54.739081 
L 315.709173 54.119141 
L 316.47079 54.507976 
L 317.232407 53.745147 
L 317.994024 52.487536 
L 318.755641 52.056074 
L 319.517259 53.565848 
L 320.278876 56.977886 
L 321.040493 60.915639 
L 321.80211 62.257782 
L 322.563727 62.04451 
L 324.086961 58.27914 
L 325.610196 54.433394 
L 327.13343 51.504362 
L 327.895047 51.936632 
L 328.656664 52.656401 
L 329.418282 54.550052 
L 330.179899 58.438741 
L 330.941516 60.426123 
L 331.703133 60.257762 
L 332.46475 58.655273 
L 333.226367 57.918695 
L 334.749602 54.695815 
L 335.511219 53.668373 
L 336.272836 51.746023 
L 337.034453 48.736568 
L 337.79607 47.005942 
L 338.557687 48.727861 
L 339.319304 51.6746 
L 340.080922 53.167498 
L 340.842539 53.58346 
L 341.604156 52.667236 
L 343.889007 47.916557 
L 344.650625 47.302348 
L 345.412242 48.658079 
L 346.173859 48.933984 
L 346.935476 48.316416 
L 347.697093 50.016133 
L 348.45871 53.534275 
L 349.220327 56.192546 
L 349.981945 57.360431 
L 350.743562 56.146517 
L 352.266796 52.771557 
L 353.028413 52.328573 
L 353.79003 52.643727 
L 355.313265 52.941448 
L 356.074882 54.55391 
L 357.598116 58.681752 
L 358.359733 60.706602 
L 359.12135 61.197627 
L 359.882968 60.75036 
L 360.644585 59.52964 
L 361.406202 59.46458 
L 362.167819 59.20084 
L 362.929436 56.73058 
L 363.691053 53.642962 
L 364.45267 53.270158 
L 365.214288 54.204363 
L 365.975905 55.333296 
L 366.737522 57.808904 
L 367.499139 58.935835 
L 368.260756 57.835417 
L 369.022373 57.086754 
L 369.783991 56.0909 
L 371.307225 51.581036 
L 372.068842 48.984638 
L 372.830459 48.373631 
L 373.592076 48.060025 
L 374.353693 49.211573 
L 375.115311 51.577537 
L 375.876928 55.223154 
L 376.638545 57.732367 
L 378.161779 59.681903 
L 378.923396 60.402206 
L 379.685013 60.140283 
L 380.446631 59.212451 
L 382.731482 54.761877 
L 383.493099 53.875235 
L 384.254716 55.071392 
L 385.016334 58.072633 
L 385.777951 60.136853 
L 386.539568 60.448203 
L 387.301185 60.387996 
L 388.824419 59.128829 
L 389.586036 57.099176 
L 390.347654 53.705839 
L 391.109271 52.40691 
L 392.632505 54.234844 
L 393.394122 56.270347 
L 394.155739 57.345912 
L 394.917357 59.106813 
L 395.678974 58.82036 
L 396.440591 57.933803 
L 397.202208 56.339501 
L 397.963825 53.902126 
L 398.725442 53.337042 
L 399.487059 53.097958 
L 400.248677 52.568426 
L 401.010294 53.543129 
L 401.771911 55.872032 
L 403.295145 62.568174 
L 404.056762 64.057772 
L 404.818379 63.307594 
L 405.579997 61.700996 
L 406.341614 60.792259 
L 407.103231 60.545274 
L 407.864848 60.519075 
L 408.626465 60.178745 
L 409.388082 58.755629 
L 410.1497 57.953044 
L 410.911317 59.714442 
L 411.672934 61.766684 
L 413.196168 67.815873 
L 413.957785 68.45154 
L 414.719402 67.624617 
L 415.48102 65.120366 
L 416.242637 63.67956 
L 417.004254 63.484027 
L 417.765871 62.919397 
L 418.527488 62.170835 
L 419.289105 62.443368 
L 420.050723 63.506368 
L 421.573957 70.943837 
L 422.335574 73.142228 
L 423.097191 73.024333 
L 423.858808 71.605674 
L 424.620425 69.602837 
L 425.382043 68.525099 
L 426.14366 68.960931 
L 427.666894 66.489351 
L 428.428511 66.483879 
L 429.951745 69.060912 
L 430.713363 70.949389 
L 431.47498 72.475576 
L 432.236597 72.474213 
L 432.998214 71.923672 
L 433.759831 69.759122 
L 434.521448 66.161829 
L 435.283066 64.035512 
L 436.8063 61.643042 
L 437.567917 59.683996 
L 438.329534 59.084824 
L 439.091151 61.665083 
L 439.852768 65.179953 
L 440.614386 67.174463 
L 441.376003 66.759251 
L 442.13762 66.020903 
L 443.660854 62.710274 
L 444.422471 62.547661 
L 445.184088 61.457711 
L 445.945706 60.598836 
L 446.707323 60.748215 
L 447.46894 61.569193 
L 448.230557 62.986025 
L 448.992174 67.007078 
L 449.753791 69.347311 
L 450.515409 68.766996 
L 451.277026 67.508821 
L 452.038643 66.856501 
L 452.80026 66.418605 
L 454.323494 64.801748 
L 455.085111 64.97535 
L 455.846729 64.119991 
L 456.608346 63.553846 
L 457.369963 65.898916 
L 458.13158 69.313786 
L 458.893197 71.440456 
L 459.654814 71.47008 
L 460.416432 70.922907 
L 461.178049 70.543423 
L 461.939666 69.84922 
L 463.4629 64.686662 
L 464.224517 63.306094 
L 464.986134 63.060586 
L 465.747752 64.061002 
L 466.509369 67.267934 
L 467.270986 71.063531 
L 468.032603 73.046246 
L 468.79422 72.207353 
L 469.555837 70.069596 
L 470.317454 67.598979 
L 471.840689 61.689039 
L 472.602306 60.213168 
L 473.363923 60.877444 
L 474.12554 60.684266 
L 474.887157 61.070424 
L 475.648775 62.43005 
L 476.410392 64.481973 
L 477.172009 66.204883 
L 477.933626 66.709408 
L 478.695243 65.417161 
L 479.45686 64.529955 
L 480.218477 62.866662 
L 481.741712 60.871124 
L 482.503329 60.377227 
L 484.026563 57.732001 
L 484.78818 57.716527 
L 485.549797 57.503341 
L 485.549797 57.503341 
" clip-path="url(#pafe7eb3073)" style="fill: none; stroke: #fb9a99; stroke-width: 1.5; stroke-linecap: square"/>
   </g>
   <g id="patch_3">
    <path d="M 72.905625 186.84327 
L 72.905625 22.318125 
" style="fill: none; stroke: #000000; stroke-width: 0.8; stroke-linejoin: miter; stroke-linecap: square"/>
   </g>
   <g id="patch_4">
    <path d="M 505.19952 186.84327 
L 505.19952 22.318125 
" style="fill: none; stroke: #000000; stroke-width: 0.8; stroke-linejoin: miter; stroke-linecap: square"/>
   </g>
   <g id="patch_5">
    <path d="M 72.905625 186.84327 
L 505.19952 186.84327 
" style="fill: none; stroke: #000000; stroke-width: 0.8; stroke-linejoin: miter; stroke-linecap: square"/>
   </g>
   <g id="patch_6">
    <path d="M 72.905625 22.318125 
L 505.19952 22.318125 
" style="fill: none; stroke: #000000; stroke-width: 0.8; stroke-linejoin: miter; stroke-linecap: square"/>
   </g>
   <g id="text_16">
    <!-- Antarctica -->
    <g transform="translate(258.49101 16.318125) scale(0.12 -0.12)">
     <defs>
      <path id="DejaVuSans-63" d="M 3122 3366 
L 3122 2828 
Q 2878 2963 2633 3030 
Q 2388 3097 2138 3097 
Q 1578 3097 1268 2742 
Q 959 2388 959 1747 
Q 959 1106 1268 751 
Q 1578 397 2138 397 
Q 2388 397 2633 464 
Q 2878 531 3122 666 
L 3122 134 
Q 2881 22 2623 -34 
Q 2366 -91 2075 -91 
Q 1284 -91 818 406 
Q 353 903 353 1747 
Q 353 2603 823 3093 
Q 1294 3584 2113 3584 
Q 2378 3584 2631 3529 
Q 2884 3475 3122 3366 
z
" transform="scale(0.015625)"/>
     </defs>
     <use xlink:href="#DejaVuSans-41"/>
     <use xlink:href="#DejaVuSans-6e" x="68.408203"/>
     <use xlink:href="#DejaVuSans-74" x="131.787109"/>
     <use xlink:href="#DejaVuSans-61" x="170.996094"/>
     <use xlink:href="#DejaVuSans-72" x="232.275391"/>
     <use xlink:href="#DejaVuSans-63" x="271.138672"/>
     <use xlink:href="#DejaVuSans-74" x="326.119141"/>
     <use xlink:href="#DejaVuSans-69" x="365.328125"/>
     <use xlink:href="#DejaVuSans-63" x="393.111328"/>
     <use xlink:href="#DejaVuSans-61" x="448.091797"/>
    </g>
   </g>
  </g>
 </g>
 <defs>
  <clipPath id="pafe7eb3073">
   <rect x="72.905625" y="22.318125" width="432.293895" height="164.525145"/>
  </clipPath>
 </defs>
</svg>
