<?xml version="1.0" encoding="utf-8" standalone="no"?>
<!DOCTYPE svg PUBLIC "-//W3C//DTD SVG 1.1//EN"
  "http://www.w3.org/Graphics/SVG/1.1/DTD/svg11.dtd">
<svg xmlns:xlink="http://www.w3.org/1999/xlink" width="656.39952pt" height="296.39952pt" viewBox="0 0 656.39952 296.39952" xmlns="http://www.w3.org/2000/svg" version="1.1">
 <metadata>
  <rdf:RDF xmlns:dc="http://purl.org/dc/elements/1.1/" xmlns:cc="http://creativecommons.org/ns#" xmlns:rdf="http://www.w3.org/1999/02/22-rdf-syntax-ns#">
   <cc:Work>
    <dc:type rdf:resource="http://purl.org/dc/dcmitype/StillImage"/>
    <dc:date>2023-01-17T17:06:20.247097</dc:date>
    <dc:format>image/svg+xml</dc:format>
    <dc:creator>
     <cc:Agent>
      <dc:title>Matplotlib v3.6.2, https://matplotlib.org/</dc:title>
     </cc:Agent>
    </dc:creator>
   </cc:Work>
  </rdf:RDF>
 </metadata>
 <defs>
  <style type="text/css">*{stroke-linejoin: round; stroke-linecap: butt}</style>
 </defs>
 <g id="figure_1">
  <g id="patch_1">
   <path d="M 0 296.39952 
L 656.39952 296.39952 
L 656.39952 0 
L 0 0 
z
" style="fill: #ffffff"/>
  </g>
  <g id="axes_1">
   <g id="patch_2">
    <path d="M 46.965625 258.84327 
L 649.19952 258.84327 
L 649.19952 10.999219 
L 46.965625 10.999219 
z
" style="fill: #ffffff"/>
   </g>
   <g id="PolyCollection_1">
    <path d="M 74.339893 164.740356 
L 74.339893 192.068198 
L 76.397977 151.148163 
L 77.444461 128.89845 
L 78.525828 134.464411 
L 79.572311 135.507221 
L 80.653678 139.245603 
L 81.735044 166.905648 
L 82.781528 137.4964 
L 83.862894 148.868241 
L 84.909378 206.539702 
L 85.990744 171.392293 
L 87.072111 184.154689 
L 88.083711 144.022579 
L 89.165078 115.6287 
L 90.211562 131.098405 
L 91.292928 101.526735 
L 92.339412 135.587163 
L 93.420778 108.684983 
L 94.502144 156.909365 
L 95.548628 149.735388 
L 96.629995 157.567579 
L 97.676478 190.66213 
L 98.757845 189.550151 
L 99.804328 182.810762 
L 100.781046 165.707945 
L 101.862413 145.204693 
L 102.908896 120.695158 
L 103.990263 122.011211 
L 105.036746 88.941643 
L 106.118113 99.560611 
L 107.199479 141.563442 
L 108.245963 141.828031 
L 109.327329 161.649246 
L 110.373813 164.207875 
L 111.455179 177.566203 
L 112.536546 186.123435 
L 113.513264 190.84831 
L 114.59463 146.460826 
L 115.641114 133.644991 
L 116.72248 101.410668 
L 117.768964 84.426577 
L 118.850331 121.904487 
L 119.931697 155.413821 
L 120.978181 136.182982 
L 122.059547 145.240787 
L 123.106031 188.496264 
L 124.187397 195.527131 
L 125.268764 193.177849 
L 126.245482 174.909202 
L 127.326848 157.551962 
L 128.373332 122.247915 
L 129.454698 127.999041 
L 130.501182 137.569163 
L 131.582548 157.156064 
L 132.663915 141.991617 
L 133.710398 121.008205 
L 134.791765 168.150183 
L 135.838248 185.898407 
L 136.919615 186.499851 
L 138.000981 183.882715 
L 139.012582 171.635995 
L 140.093949 104.115232 
L 141.140432 126.341831 
L 142.221799 118.421119 
L 143.268282 148.700675 
L 144.349649 135.283289 
L 145.431015 137.37597 
L 146.477499 135.419637 
L 147.558865 144.022115 
L 148.605349 182.845431 
L 149.686715 187.400201 
L 150.733199 184.743739 
L 151.709917 184.904681 
L 152.791283 148.671063 
L 153.837767 133.842202 
L 154.919133 139.272372 
L 155.965617 121.105298 
L 157.046984 108.603707 
L 158.12835 145.574722 
L 159.174834 142.979083 
L 160.2562 151.019308 
L 161.302684 152.762528 
L 162.38405 177.452574 
L 163.465417 193.94767 
L 164.442135 171.018267 
L 165.523501 149.068443 
L 166.569985 134.477896 
L 167.651351 161.262526 
L 168.697835 153.024581 
L 169.779201 134.804462 
L 170.860568 149.799042 
L 171.907051 145.270671 
L 172.988418 122.706052 
L 174.034901 186.762274 
L 175.116268 198.179242 
L 176.197634 191.646849 
L 177.174352 179.026299 
L 178.255719 145.508092 
L 179.302202 165.080654 
L 180.383569 157.814855 
L 181.430052 141.586512 
L 182.511419 147.411051 
L 183.592785 152.984774 
L 184.639269 154.014147 
L 185.720635 151.32262 
L 186.767119 184.870536 
L 187.848485 202.886085 
L 188.929852 178.813371 
L 189.941453 176.22856 
L 191.022819 144.498023 
L 192.069303 118.14902 
L 193.150669 145.489019 
L 194.197153 152.491985 
L 195.278519 133.240489 
L 196.359886 114.448193 
L 197.406369 148.134802 
L 198.487736 169.913884 
L 199.534219 197.994269 
L 200.615586 201.654088 
L 201.662069 201.666789 
L 202.638788 163.818674 
L 203.720154 145.450271 
L 204.766638 147.206736 
L 205.848004 137.496062 
L 206.894488 144.487396 
L 207.975854 123.308919 
L 209.057221 137.466633 
L 210.103704 132.533163 
L 211.185071 150.226175 
L 212.231554 187.349455 
L 213.312921 180.435 
L 214.394287 175.538024 
L 215.371005 166.739205 
L 216.452372 155.955847 
L 217.498855 143.257147 
L 218.580222 147.925415 
L 219.626705 158.251818 
L 220.708072 126.231626 
L 221.789438 161.863317 
L 222.835922 136.35862 
L 223.917288 187.499134 
L 224.963772 174.678947 
L 226.045138 188.577699 
L 227.126505 174.388224 
L 228.103223 156.464153 
L 229.184589 125.961362 
L 230.231073 121.3515 
L 231.312439 141.773246 
L 232.358923 140.590563 
L 233.440289 136.827333 
L 234.521656 150.997079 
L 235.56814 138.589857 
L 236.649506 152.857496 
L 237.69599 184.998227 
L 238.777356 201.272525 
L 239.858722 197.669767 
L 240.870323 166.758276 
L 241.95169 142.919078 
L 242.998173 96.97648 
L 244.07954 131.097818 
L 245.126023 127.62524 
L 246.20739 127.187295 
L 247.288756 123.259792 
L 248.33524 154.959626 
L 249.416606 154.697494 
L 250.46309 131.903267 
L 251.544456 190.747579 
L 252.59094 176.238925 
L 253.567658 120.380564 
L 254.649025 136.331689 
L 255.695508 153.903365 
L 256.776875 154.537843 
L 257.823358 140.97205 
L 258.904725 120.494158 
L 259.986091 132.547904 
L 261.032575 150.752701 
L 262.113941 155.145593 
L 263.160425 190.224241 
L 264.241791 177.200273 
L 265.323158 192.167097 
L 266.299876 184.365992 
L 267.381242 136.146302 
L 268.427726 149.129582 
L 269.509092 124.037654 
L 270.555576 156.837272 
L 271.636942 157.702235 
L 272.718309 157.465627 
L 273.764792 140.666306 
L 274.846159 165.607676 
L 275.892643 181.691321 
L 276.974009 186.668128 
L 278.055375 179.198715 
L 279.032093 153.120609 
L 280.11346 158.610234 
L 281.159944 125.35523 
L 282.24131 146.46031 
L 283.287794 131.435333 
L 284.36916 138.911515 
L 285.450526 134.720639 
L 286.49701 144.669276 
L 287.578377 159.747677 
L 288.62486 199.478331 
L 289.706227 183.467936 
L 290.787593 181.406558 
L 291.799194 155.069596 
L 292.88056 128.07469 
L 293.927044 118.63457 
L 295.00841 163.268443 
L 296.054894 121.085819 
L 297.13626 127.694069 
L 298.217627 152.358858 
L 299.264111 167.038799 
L 300.345477 160.697061 
L 301.391961 176.32671 
L 302.473327 199.989758 
L 303.519811 191.95134 
L 304.496529 171.106417 
L 305.577895 132.918318 
L 306.624379 143.091776 
L 307.705745 126.276131 
L 308.752229 133.629817 
L 309.833595 141.367668 
L 310.914962 171.185892 
L 311.961445 155.517217 
L 313.042812 170.248859 
L 314.089296 181.623692 
L 315.170662 196.481721 
L 316.252028 196.240295 
L 317.228746 151.847044 
L 318.310113 146.657946 
L 319.356597 116.911685 
L 320.437963 84.62244 
L 321.484447 116.140212 
L 322.565813 142.808827 
L 323.647179 154.779885 
L 324.693663 153.637469 
L 325.77503 179.051944 
L 326.821513 159.701224 
L 327.90288 183.142134 
L 328.984246 192.428053 
L 329.960964 167.54554 
L 331.042331 153.866299 
L 332.088814 148.395716 
L 333.170181 120.802094 
L 334.216664 163.049557 
L 335.298031 152.583773 
L 336.379397 156.724223 
L 337.425881 159.248688 
L 338.507247 111.853976 
L 339.553731 171.488118 
L 340.635097 173.921262 
L 341.716464 188.693292 
L 342.728065 158.850897 
L 343.809431 129.341603 
L 344.855915 165.218912 
L 345.937281 129.497189 
L 346.983765 138.363996 
L 348.065131 125.183157 
L 349.146498 138.647322 
L 350.192981 138.023557 
L 351.274348 160.810397 
L 352.320831 168.90485 
L 353.402198 220.145911 
L 354.448681 183.459369 
L 355.425399 178.340473 
L 356.506766 144.3246 
L 357.553249 134.873676 
L 358.634616 112.620456 
L 359.6811 137.581519 
L 360.762466 139.143711 
L 361.843832 165.880002 
L 362.890316 143.695903 
L 363.971682 146.808468 
L 365.018166 163.36678 
L 366.099533 140.243369 
L 367.180899 149.01741 
L 368.157617 161.437777 
L 369.238983 126.127465 
L 370.285467 113.627643 
L 371.366834 140.543474 
L 372.413317 147.625821 
L 373.494684 145.158422 
L 374.57605 128.984969 
L 375.622534 140.662236 
L 376.7039 170.877932 
L 377.750384 195.407699 
L 378.83175 182.66423 
L 379.913117 176.657284 
L 380.889835 168.283037 
L 381.971201 143.708081 
L 383.017685 107.930192 
L 384.099051 137.562789 
L 385.145535 158.112655 
L 386.226901 150.178818 
L 387.308268 137.825164 
L 388.354751 136.619484 
L 389.436118 163.336072 
L 390.482601 200.140951 
L 391.563968 207.570257 
L 392.645334 183.434718 
L 393.656935 159.44988 
L 394.738302 127.627029 
L 395.784785 128.115621 
L 396.866152 126.037694 
L 397.912635 117.866125 
L 398.994002 137.9002 
L 400.075368 122.367982 
L 401.121852 154.348091 
L 402.203218 163.638054 
L 403.249702 170.347671 
L 404.331068 203.536932 
L 405.377552 193.001249 
L 406.35427 157.764986 
L 407.435636 127.166569 
L 408.48212 143.264921 
L 409.563487 135.352974 
L 410.60997 125.37096 
L 411.691337 138.316511 
L 412.772703 133.566295 
L 413.819187 109.973581 
L 414.900553 113.107749 
L 415.947037 169.566689 
L 417.028403 190.799975 
L 418.10977 180.579921 
L 419.086488 167.977771 
L 420.167854 140.038744 
L 421.214338 139.393129 
L 422.295704 124.140716 
L 423.342188 133.042436 
L 424.423554 131.446145 
L 425.504921 174.045968 
L 426.551404 164.286387 
L 427.632771 135.907546 
L 428.679254 168.897744 
L 429.760621 196.213408 
L 430.841987 191.663921 
L 431.818705 185.408745 
L 432.900072 141.319552 
L 433.946555 133.158581 
L 435.027922 123.376396 
L 436.074405 136.951747 
L 437.155772 154.082157 
L 438.237138 159.593598 
L 439.283622 147.5695 
L 440.364988 169.686626 
L 441.411472 183.6274 
L 442.492838 180.443426 
L 443.574205 183.26426 
L 444.585806 163.317075 
L 445.667172 150.826442 
L 446.713656 132.053909 
L 447.795022 149.132591 
L 448.841506 155.065805 
L 449.922872 117.764264 
L 451.004239 107.031544 
L 452.050722 134.402119 
L 453.132089 168.407231 
L 454.178572 163.510572 
L 455.259939 189.710157 
L 456.306423 174.842974 
L 457.283141 143.5181 
L 458.364507 133.209335 
L 459.410991 148.444282 
L 460.492357 117.476173 
L 461.538841 128.235523 
L 462.620207 107.94542 
L 463.701574 150.05343 
L 464.748057 137.317354 
L 465.829424 168.026519 
L 466.875907 180.457811 
L 467.957274 201.398305 
L 469.03864 195.061721 
L 470.015358 168.274935 
L 471.096725 166.115172 
L 472.143208 165.87612 
L 473.224575 156.784126 
L 474.271058 145.295471 
L 475.352425 132.655611 
L 476.433791 135.500094 
L 477.480275 125.823319 
L 478.561641 137.407155 
L 479.608125 163.017235 
L 480.689491 187.96069 
L 481.770858 188.157167 
L 482.747576 158.109777 
L 483.828942 155.721833 
L 484.875426 144.988231 
L 485.956792 145.532967 
L 487.003276 139.910405 
L 488.084643 107.984499 
L 489.166009 125.760364 
L 490.212493 157.766841 
L 491.293859 157.110592 
L 492.340343 193.071524 
L 493.421709 168.352085 
L 494.503076 176.44421 
L 495.514676 157.80852 
L 496.596043 138.487729 
L 497.642526 139.486088 
L 498.723893 114.632519 
L 499.770377 130.256643 
L 500.851743 155.834462 
L 501.933109 139.318494 
L 502.979593 161.750182 
L 504.060959 181.271694 
L 505.107443 199.857968 
L 506.18881 203.377598 
L 507.235293 184.02633 
L 508.212011 153.287101 
L 509.293378 127.991988 
L 510.339861 132.857638 
L 511.421228 146.706997 
L 512.467711 152.373943 
L 513.549078 150.018019 
L 514.630444 141.364259 
L 515.676928 129.248492 
L 516.758294 178.559344 
L 517.804778 180.419974 
L 518.886144 190.194192 
L 519.967511 199.870711 
L 520.944229 170.801033 
L 522.025595 156.830662 
L 523.072079 116.520353 
L 524.153445 125.593652 
L 525.199929 147.133581 
L 526.281295 147.608999 
L 527.362662 142.094088 
L 528.409146 154.781344 
L 529.490512 153.635246 
L 530.536996 211.240735 
L 531.618362 206.215491 
L 532.699728 190.595578 
L 533.676447 168.05399 
L 534.757813 135.956803 
L 535.804297 128.741381 
L 536.885663 120.847423 
L 537.932147 164.657057 
L 539.013513 138.749356 
L 540.09488 138.565319 
L 541.141363 140.127081 
L 542.22273 176.965619 
L 543.269213 169.701097 
L 544.35058 175.838845 
L 545.431946 176.292424 
L 546.443547 156.116148 
L 547.524913 146.896463 
L 548.571397 138.105288 
L 549.652763 94.355189 
L 550.699247 115.102126 
L 551.780614 131.115323 
L 552.86198 143.614181 
L 553.908464 125.778657 
L 554.98983 129.565736 
L 556.036314 186.551692 
L 557.11768 206.469551 
L 558.164164 192.166943 
L 559.140882 154.805149 
L 560.222248 139.758061 
L 561.268732 139.659999 
L 562.350098 115.639643 
L 563.396582 150.103664 
L 564.477948 140.122444 
L 565.559315 146.324808 
L 566.605798 143.506958 
L 567.687165 170.677717 
L 568.733649 162.46936 
L 569.815015 202.215705 
L 570.896381 196.61547 
L 571.873099 156.35244 
L 572.954466 131.844884 
L 574.00095 139.965735 
L 575.082316 143.421516 
L 576.1288 152.722378 
L 577.210166 134.147557 
L 578.291533 162.889672 
L 579.338016 146.388702 
L 580.419383 133.244324 
L 581.465866 180.076285 
L 582.547233 199.057507 
L 583.628599 192.635439 
L 584.605317 161.088396 
L 585.686684 147.336562 
L 586.733167 141.451242 
L 587.814534 158.070398 
L 588.861017 127.641072 
L 589.942384 112.25327 
L 591.02375 132.522368 
L 592.070234 143.676003 
L 593.1516 158.111084 
L 594.198084 193.951352 
L 595.27945 207.134073 
L 596.360817 191.053024 
L 597.372418 152.199712 
L 598.453784 123.943845 
L 599.500268 118.313125 
L 600.581634 114.012861 
L 601.628118 109.742104 
L 602.709484 116.683015 
L 603.790851 167.002811 
L 604.837334 149.542498 
L 605.918701 155.651449 
L 606.965184 170.509452 
L 608.046551 186.621841 
L 609.093034 175.218883 
L 610.069752 180.473894 
L 611.151119 132.421315 
L 612.197603 143.354539 
L 613.278969 128.27537 
L 614.325453 135.738098 
L 615.406819 136.460977 
L 616.488185 148.478637 
L 617.534669 146.234447 
L 618.616036 126.404369 
L 619.662519 152.126866 
L 620.743886 164.147867 
L 621.825252 134.998713 
L 621.825252 131.181348 
L 621.825252 131.181348 
L 620.743886 141.076187 
L 619.662519 109.235687 
L 618.616036 88.68922 
L 617.534669 115.088312 
L 616.488185 113.074949 
L 615.406819 99.618632 
L 614.325453 102.69109 
L 613.278969 87.766103 
L 612.197603 113.162009 
L 611.151119 93.587093 
L 610.069752 159.999423 
L 609.093034 151.530213 
L 608.046551 159.520718 
L 606.965184 146.074634 
L 605.918701 125.897668 
L 604.837334 116.575505 
L 603.790851 138.162495 
L 602.709484 82.311919 
L 601.628118 71.031944 
L 600.581634 70.130601 
L 599.500268 78.38648 
L 598.453784 87.539788 
L 597.372418 111.900815 
L 596.360817 166.637093 
L 595.27945 188.333681 
L 594.198084 172.404881 
L 593.1516 131.617607 
L 592.070234 115.700549 
L 591.02375 92.426152 
L 589.942384 70.84024 
L 588.861017 89.176151 
L 587.814534 123.360282 
L 586.733167 111.737281 
L 585.686684 112.941718 
L 584.605317 131.170544 
L 583.628599 168.606536 
L 582.547233 180.817977 
L 581.465866 155.138675 
L 580.419383 102.083887 
L 579.338016 113.862183 
L 578.291533 131.42217 
L 577.210166 98.784448 
L 576.1288 122.809984 
L 575.082316 105.64269 
L 574.00095 109.140739 
L 572.954466 92.597736 
L 571.873099 129.201219 
L 570.896381 173.04528 
L 569.815015 186.314289 
L 568.733649 134.663731 
L 567.687165 140.062308 
L 566.605798 117.068403 
L 565.559315 108.981014 
L 564.477948 105.239104 
L 563.396582 120.247684 
L 562.350098 71.02514 
L 561.268732 108.943645 
L 560.222248 104.009964 
L 559.140882 125.647152 
L 558.164164 166.081844 
L 557.11768 185.482556 
L 556.036314 166.43553 
L 554.98983 98.589393 
L 553.908464 89.37385 
L 552.86198 108.377939 
L 551.780614 95.361996 
L 550.699247 80.741032 
L 549.652763 48.221503 
L 548.571397 94.87808 
L 547.524913 118.196369 
L 546.443547 121.027455 
L 545.431946 151.752237 
L 544.35058 150.774568 
L 543.269213 138.843221 
L 542.22273 151.635927 
L 541.141363 111.403373 
L 540.09488 99.980195 
L 539.013513 101.286162 
L 537.932147 139.367003 
L 536.885663 74.273538 
L 535.804297 94.612885 
L 534.757813 97.989515 
L 533.676447 144.152736 
L 532.699728 167.684914 
L 531.618362 185.173903 
L 530.536996 193.478642 
L 529.490512 127.40273 
L 528.409146 126.846832 
L 527.362662 106.824909 
L 526.281295 115.220071 
L 525.199929 115.921204 
L 524.153445 82.599368 
L 523.072079 79.273824 
L 522.025595 125.001469 
L 520.944229 145.613941 
L 519.967511 178.266059 
L 518.886144 169.025436 
L 517.804778 156.147554 
L 516.758294 152.401608 
L 515.676928 98.814122 
L 514.630444 100.292605 
L 513.549078 118.425229 
L 512.467711 121.520718 
L 511.421228 109.579515 
L 510.339861 101.460567 
L 509.293378 90.125194 
L 508.212011 126.21917 
L 507.235293 158.02691 
L 506.18881 179.387912 
L 505.107443 182.120471 
L 504.060959 159.182739 
L 502.979593 136.421436 
L 501.933109 107.792671 
L 500.851743 125.55448 
L 499.770377 99.618369 
L 498.723893 71.652142 
L 497.642526 100.918328 
L 496.596043 107.123988 
L 495.514676 121.306756 
L 494.503076 151.799309 
L 493.421709 140.867296 
L 492.340343 164.846673 
L 491.293859 130.910073 
L 490.212493 131.45634 
L 489.166009 87.779488 
L 488.084643 63.167063 
L 487.003276 106.90888 
L 485.956792 109.138142 
L 484.875426 113.221216 
L 483.828942 123.398637 
L 482.747576 132.00968 
L 481.770858 164.755621 
L 480.689491 166.689745 
L 479.608125 135.009931 
L 478.561641 105.666761 
L 477.480275 91.435313 
L 476.433791 96.955292 
L 475.352425 95.232128 
L 474.271058 114.272328 
L 473.224575 123.468685 
L 472.143208 140.670385 
L 471.096725 136.619927 
L 470.015358 142.33769 
L 469.03864 172.588917 
L 467.957274 183.090168 
L 466.875907 157.061715 
L 465.829424 143.35561 
L 464.748057 109.056105 
L 463.701574 112.605221 
L 462.620207 64.438499 
L 461.538841 90.990487 
L 460.492357 71.947846 
L 459.410991 120.783292 
L 458.364507 94.496515 
L 457.283141 111.652809 
L 456.306423 146.768496 
L 455.259939 163.867374 
L 454.178572 136.853795 
L 453.132089 140.778734 
L 452.050722 106.038606 
L 451.004239 65.438133 
L 449.922872 79.28473 
L 448.841506 124.339767 
L 447.795022 117.875258 
L 446.713656 96.426073 
L 445.667172 120.35187 
L 444.585806 132.955434 
L 443.574205 159.98394 
L 442.492838 157.785342 
L 441.411472 157.256448 
L 440.364988 144.722422 
L 439.283622 121.295372 
L 438.237138 125.592541 
L 437.155772 124.285153 
L 436.074405 102.227398 
L 435.027922 81.772175 
L 433.946555 100.213088 
L 432.900072 104.491971 
L 431.818705 165.449089 
L 430.841987 172.808493 
L 429.760621 178.163445 
L 428.679254 141.453637 
L 427.632771 103.436248 
L 426.551404 135.12344 
L 425.504921 146.158896 
L 424.423554 96.155939 
L 423.342188 98.582417 
L 422.295704 81.293197 
L 421.214338 108.414018 
L 420.167854 104.352688 
L 419.086488 143.810852 
L 418.10977 156.959088 
L 417.028403 169.006873 
L 415.947037 141.797043 
L 414.900553 78.290444 
L 413.819187 70.908523 
L 412.772703 90.594296 
L 411.691337 101.799349 
L 410.60997 86.509544 
L 409.563487 94.426035 
L 408.48212 112.194829 
L 407.435636 89.856342 
L 406.35427 132.015142 
L 405.377552 168.104305 
L 404.331068 183.813096 
L 403.249702 148.804049 
L 402.203218 136.953209 
L 401.121852 125.715069 
L 400.075368 86.358396 
L 398.994002 103.331854 
L 397.912635 82.670435 
L 396.866152 84.985837 
L 395.784785 90.306135 
L 394.738302 91.73555 
L 393.656935 121.913542 
L 392.645334 157.494337 
L 391.563968 188.760317 
L 390.482601 181.728541 
L 389.436118 138.61606 
L 388.354751 106.943859 
L 387.308268 100.409355 
L 386.226901 115.660872 
L 385.145535 130.917707 
L 384.099051 100.358978 
L 383.017685 67.965326 
L 381.971201 109.208278 
L 380.889835 144.246036 
L 379.913117 151.560452 
L 378.83175 159.815424 
L 377.750384 172.423432 
L 376.7039 145.379649 
L 375.622534 114.30243 
L 374.57605 90.534091 
L 373.494684 108.682029 
L 372.413317 115.176657 
L 371.366834 101.096248 
L 370.285467 76.479113 
L 369.238983 84.271047 
L 368.157617 136.473856 
L 367.180899 120.086523 
L 366.099533 108.131684 
L 365.018166 127.934279 
L 363.971682 117.89881 
L 362.890316 114.601263 
L 361.843832 133.695158 
L 360.762466 105.334494 
L 359.6811 103.633179 
L 358.634616 67.310069 
L 357.553249 101.960497 
L 356.506766 108.783498 
L 355.425399 153.519261 
L 354.448681 160.157295 
L 353.402198 202.13229 
L 352.320831 145.928142 
L 351.274348 132.817999 
L 350.192981 105.639262 
L 349.146498 103.459795 
L 348.065131 89.611627 
L 346.983765 106.019248 
L 345.937281 91.540124 
L 344.855915 132.655796 
L 343.809431 99.496582 
L 342.728065 120.605673 
L 341.716464 166.708089 
L 340.635097 150.182681 
L 339.553731 144.783542 
L 338.507247 75.821599 
L 337.425881 125.923279 
L 336.379397 123.59489 
L 335.298031 120.246741 
L 334.216664 137.334019 
L 333.170181 76.089992 
L 332.088814 120.87086 
L 331.042331 122.78219 
L 329.960964 143.121864 
L 328.984246 171.81683 
L 327.90288 161.880747 
L 326.821513 129.490747 
L 325.77503 151.789529 
L 324.693663 128.561953 
L 323.647179 121.032149 
L 322.565813 109.416826 
L 321.484447 78.132278 
L 320.437963 29.21668 
L 319.356597 80.252401 
L 318.310113 112.80078 
L 317.228746 124.650801 
L 316.252028 173.930854 
L 315.170662 177.665642 
L 314.089296 156.809842 
L 313.042812 145.253325 
L 311.961445 129.199262 
L 310.914962 139.952406 
L 309.833595 107.786063 
L 308.752229 99.391142 
L 307.705745 85.127463 
L 306.624379 113.741409 
L 305.577895 93.932084 
L 304.496529 146.288931 
L 303.519811 169.389854 
L 302.473327 178.337269 
L 301.391961 154.378512 
L 300.345477 134.531981 
L 299.264111 139.96049 
L 298.217627 121.724335 
L 297.13626 93.312786 
L 296.054894 84.719906 
L 295.00841 126.295698 
L 293.927044 83.365575 
L 292.88056 91.433361 
L 291.799194 118.060214 
L 290.787593 157.850899 
L 289.706227 161.829027 
L 288.62486 177.95405 
L 287.578377 135.464161 
L 286.49701 115.262733 
L 285.450526 95.89333 
L 284.36916 103.582329 
L 283.287794 92.113042 
L 282.24131 109.443941 
L 281.159944 88.516343 
L 280.11346 128.774754 
L 279.032093 123.93896 
L 278.055375 154.7584 
L 276.974009 166.51126 
L 275.892643 155.837136 
L 274.846159 140.627923 
L 273.764792 111.23572 
L 272.718309 123.359617 
L 271.636942 127.402952 
L 270.555576 129.792418 
L 269.509092 80.257143 
L 268.427726 120.870751 
L 267.381242 97.937279 
L 266.299876 164.58855 
L 265.323158 173.451264 
L 264.241791 152.485175 
L 263.160425 166.018534 
L 262.113941 129.699921 
L 261.032575 123.067976 
L 259.986091 94.006555 
L 258.904725 80.69017 
L 257.823358 105.895312 
L 256.776875 119.823748 
L 255.695508 126.682887 
L 254.649025 99.518163 
L 253.567658 87.144905 
L 252.59094 147.426725 
L 251.544456 166.330522 
L 250.46309 99.625202 
L 249.416606 120.532327 
L 248.33524 125.627103 
L 247.288756 87.531667 
L 246.20739 87.440088 
L 245.126023 92.660295 
L 244.07954 87.799945 
L 242.998173 55.019185 
L 241.95169 104.203811 
L 240.870323 134.255863 
L 239.858722 177.667428 
L 238.777356 182.335287 
L 237.69599 162.57986 
L 236.649506 124.301878 
L 235.56814 108.179686 
L 234.521656 114.691626 
L 233.440289 100.401146 
L 232.358923 106.65463 
L 231.312439 102.376581 
L 230.231073 82.841988 
L 229.184589 84.072771 
L 228.103223 127.130394 
L 227.126505 148.923552 
L 226.045138 166.298515 
L 224.963772 147.628916 
L 223.917288 164.203709 
L 222.835922 106.650288 
L 221.789438 124.888238 
L 220.708072 88.247043 
L 219.626705 129.090859 
L 218.580222 110.915004 
L 217.498855 110.126986 
L 216.452372 126.239473 
L 215.371005 144.477513 
L 214.394287 149.816172 
L 213.312921 154.520332 
L 212.231554 162.673801 
L 211.185071 123.786702 
L 210.103704 103.399437 
L 209.057221 97.040708 
L 207.975854 84.473212 
L 206.894488 111.593047 
L 205.848004 100.541693 
L 204.766638 116.989441 
L 203.720154 110.069578 
L 202.638788 140.163975 
L 201.662069 182.524787 
L 200.615586 182.512201 
L 199.534219 180.013559 
L 198.487736 147.262826 
L 197.406369 117.893406 
L 196.359886 77.938243 
L 195.278519 94.266062 
L 194.197153 121.46988 
L 193.150669 111.38113 
L 192.069303 77.931446 
L 191.022819 108.587482 
L 189.941453 143.399868 
L 188.929852 153.372544 
L 187.848485 183.785725 
L 186.767119 163.552088 
L 185.720635 122.430338 
L 184.639269 125.038352 
L 183.592785 120.654196 
L 182.511419 113.645567 
L 181.430052 103.305025 
L 180.383569 123.056002 
L 179.302202 139.619845 
L 178.255719 111.62543 
L 177.174352 156.402637 
L 176.197634 168.289982 
L 175.116268 179.870773 
L 174.034901 163.311552 
L 172.988418 89.029424 
L 171.907051 111.646205 
L 170.860568 113.240928 
L 169.779201 96.649509 
L 168.697835 122.193007 
L 167.651351 126.050962 
L 166.569985 101.049308 
L 165.523501 115.720805 
L 164.442135 143.640454 
L 163.465417 170.806756 
L 162.38405 155.338053 
L 161.302684 121.443289 
L 160.2562 120.068409 
L 159.174834 113.153788 
L 158.12835 107.884948 
L 157.046984 67.018114 
L 155.965617 81.314524 
L 154.919133 99.893105 
L 153.837767 99.167319 
L 152.791283 116.130686 
L 151.709917 164.980999 
L 150.733199 163.40099 
L 149.686715 162.972784 
L 148.605349 159.299009 
L 147.558865 113.36241 
L 146.477499 101.650912 
L 145.431015 103.055373 
L 144.349649 99.899933 
L 143.268282 118.870413 
L 142.221799 75.245595 
L 141.140432 84.00972 
L 140.093949 65.473857 
L 139.012582 130.427467 
L 138.000981 160.043484 
L 136.919615 164.856055 
L 135.838248 161.597264 
L 134.791765 144.90274 
L 133.710398 87.272044 
L 132.663915 102.171053 
L 131.582548 126.234681 
L 130.501182 101.337319 
L 129.454698 88.669019 
L 128.373332 85.673522 
L 127.326848 124.099269 
L 126.245482 151.136326 
L 125.268764 171.857255 
L 124.187397 175.924204 
L 123.106031 164.515927 
L 122.059547 115.635715 
L 120.978181 103.969263 
L 119.931697 120.931749 
L 118.850331 83.636084 
L 117.768964 34.345028 
L 116.72248 52.547153 
L 115.641114 102.889981 
L 114.59463 112.948799 
L 113.513264 171.985093 
L 112.536546 166.466361 
L 111.455179 155.655147 
L 110.373813 135.469322 
L 109.327329 133.799585 
L 108.245963 111.983085 
L 107.199479 103.068811 
L 106.118113 58.519012 
L 105.036746 41.014754 
L 103.990263 79.322178 
L 102.908896 83.442237 
L 101.862413 111.224336 
L 100.781046 138.580251 
L 99.804328 159.812121 
L 98.757845 167.43289 
L 97.676478 168.069963 
L 96.629995 131.779277 
L 95.548628 118.335889 
L 94.502144 125.45181 
L 93.420778 71.886614 
L 92.339412 101.644679 
L 91.292928 56.08899 
L 90.211562 91.01285 
L 89.165078 79.010748 
L 88.083711 101.863512 
L 87.072111 159.745815 
L 85.990744 146.225193 
L 84.909378 180.387918 
L 83.862894 115.374828 
L 82.781528 110.494194 
L 81.735044 120.936836 
L 80.653678 101.772787 
L 79.572311 101.079348 
L 78.525828 72.274982 
L 77.444461 98.97611 
L 76.397977 103.049985 
L 74.339893 164.740356 
z
" clip-path="url(#pffc95f4459)" style="fill-opacity: 0.25"/>
   </g>
   <g id="matplotlib.axis_1">
    <g id="xtick_1">
     <g id="line2d_1">
      <defs>
       <path id="ma1b0621f7d" d="M 0 0 
L 0 3.5 
" style="stroke: #000000; stroke-width: 0.8"/>
      </defs>
      <g>
       <use xlink:href="#ma1b0621f7d" x="86.025627" y="258.84327" style="stroke: #000000; stroke-width: 0.8"/>
      </g>
     </g>
     <g id="text_1">
      <!-- 1980 -->
      <g transform="translate(73.300627 273.441707) scale(0.1 -0.1)">
       <defs>
        <path id="DejaVuSans-31" d="M 794 531 
L 1825 531 
L 1825 4091 
L 703 3866 
L 703 4441 
L 1819 4666 
L 2450 4666 
L 2450 531 
L 3481 531 
L 3481 0 
L 794 0 
L 794 531 
z
" transform="scale(0.015625)"/>
        <path id="DejaVuSans-39" d="M 703 97 
L 703 672 
Q 941 559 1184 500 
Q 1428 441 1663 441 
Q 2288 441 2617 861 
Q 2947 1281 2994 2138 
Q 2813 1869 2534 1725 
Q 2256 1581 1919 1581 
Q 1219 1581 811 2004 
Q 403 2428 403 3163 
Q 403 3881 828 4315 
Q 1253 4750 1959 4750 
Q 2769 4750 3195 4129 
Q 3622 3509 3622 2328 
Q 3622 1225 3098 567 
Q 2575 -91 1691 -91 
Q 1453 -91 1209 -44 
Q 966 3 703 97 
z
M 1959 2075 
Q 2384 2075 2632 2365 
Q 2881 2656 2881 3163 
Q 2881 3666 2632 3958 
Q 2384 4250 1959 4250 
Q 1534 4250 1286 3958 
Q 1038 3666 1038 3163 
Q 1038 2656 1286 2365 
Q 1534 2075 1959 2075 
z
" transform="scale(0.015625)"/>
        <path id="DejaVuSans-38" d="M 2034 2216 
Q 1584 2216 1326 1975 
Q 1069 1734 1069 1313 
Q 1069 891 1326 650 
Q 1584 409 2034 409 
Q 2484 409 2743 651 
Q 3003 894 3003 1313 
Q 3003 1734 2745 1975 
Q 2488 2216 2034 2216 
z
M 1403 2484 
Q 997 2584 770 2862 
Q 544 3141 544 3541 
Q 544 4100 942 4425 
Q 1341 4750 2034 4750 
Q 2731 4750 3128 4425 
Q 3525 4100 3525 3541 
Q 3525 3141 3298 2862 
Q 3072 2584 2669 2484 
Q 3125 2378 3379 2068 
Q 3634 1759 3634 1313 
Q 3634 634 3220 271 
Q 2806 -91 2034 -91 
Q 1263 -91 848 271 
Q 434 634 434 1313 
Q 434 1759 690 2068 
Q 947 2378 1403 2484 
z
M 1172 3481 
Q 1172 3119 1398 2916 
Q 1625 2713 2034 2713 
Q 2441 2713 2670 2916 
Q 2900 3119 2900 3481 
Q 2900 3844 2670 4047 
Q 2441 4250 2034 4250 
Q 1625 4250 1398 4047 
Q 1172 3844 1172 3481 
z
" transform="scale(0.015625)"/>
        <path id="DejaVuSans-30" d="M 2034 4250 
Q 1547 4250 1301 3770 
Q 1056 3291 1056 2328 
Q 1056 1369 1301 889 
Q 1547 409 2034 409 
Q 2525 409 2770 889 
Q 3016 1369 3016 2328 
Q 3016 3291 2770 3770 
Q 2525 4250 2034 4250 
z
M 2034 4750 
Q 2819 4750 3233 4129 
Q 3647 3509 3647 2328 
Q 3647 1150 3233 529 
Q 2819 -91 2034 -91 
Q 1250 -91 836 529 
Q 422 1150 422 2328 
Q 422 3509 836 4129 
Q 1250 4750 2034 4750 
z
" transform="scale(0.015625)"/>
       </defs>
       <use xlink:href="#DejaVuSans-31"/>
       <use xlink:href="#DejaVuSans-39" x="63.623047"/>
       <use xlink:href="#DejaVuSans-38" x="127.246094"/>
       <use xlink:href="#DejaVuSans-30" x="190.869141"/>
      </g>
     </g>
    </g>
    <g id="xtick_2">
     <g id="line2d_2">
      <g>
       <use xlink:href="#ma1b0621f7d" x="213.347803" y="258.84327" style="stroke: #000000; stroke-width: 0.8"/>
      </g>
     </g>
     <g id="text_2">
      <!-- 1990 -->
      <g transform="translate(200.622803 273.441707) scale(0.1 -0.1)">
       <use xlink:href="#DejaVuSans-31"/>
       <use xlink:href="#DejaVuSans-39" x="63.623047"/>
       <use xlink:href="#DejaVuSans-39" x="127.246094"/>
       <use xlink:href="#DejaVuSans-30" x="190.869141"/>
      </g>
     </g>
    </g>
    <g id="xtick_3">
     <g id="line2d_3">
      <g>
       <use xlink:href="#ma1b0621f7d" x="340.66998" y="258.84327" style="stroke: #000000; stroke-width: 0.8"/>
      </g>
     </g>
     <g id="text_3">
      <!-- 2000 -->
      <g transform="translate(327.94498 273.441707) scale(0.1 -0.1)">
       <defs>
        <path id="DejaVuSans-32" d="M 1228 531 
L 3431 531 
L 3431 0 
L 469 0 
L 469 531 
Q 828 903 1448 1529 
Q 2069 2156 2228 2338 
Q 2531 2678 2651 2914 
Q 2772 3150 2772 3378 
Q 2772 3750 2511 3984 
Q 2250 4219 1831 4219 
Q 1534 4219 1204 4116 
Q 875 4013 500 3803 
L 500 4441 
Q 881 4594 1212 4672 
Q 1544 4750 1819 4750 
Q 2544 4750 2975 4387 
Q 3406 4025 3406 3419 
Q 3406 3131 3298 2873 
Q 3191 2616 2906 2266 
Q 2828 2175 2409 1742 
Q 1991 1309 1228 531 
z
" transform="scale(0.015625)"/>
       </defs>
       <use xlink:href="#DejaVuSans-32"/>
       <use xlink:href="#DejaVuSans-30" x="63.623047"/>
       <use xlink:href="#DejaVuSans-30" x="127.246094"/>
       <use xlink:href="#DejaVuSans-30" x="190.869141"/>
      </g>
     </g>
    </g>
    <g id="xtick_4">
     <g id="line2d_4">
      <g>
       <use xlink:href="#ma1b0621f7d" x="467.992157" y="258.84327" style="stroke: #000000; stroke-width: 0.8"/>
      </g>
     </g>
     <g id="text_4">
      <!-- 2010 -->
      <g transform="translate(455.267157 273.441707) scale(0.1 -0.1)">
       <use xlink:href="#DejaVuSans-32"/>
       <use xlink:href="#DejaVuSans-30" x="63.623047"/>
       <use xlink:href="#DejaVuSans-31" x="127.246094"/>
       <use xlink:href="#DejaVuSans-30" x="190.869141"/>
      </g>
     </g>
    </g>
    <g id="xtick_5">
     <g id="line2d_5">
      <g>
       <use xlink:href="#ma1b0621f7d" x="595.314333" y="258.84327" style="stroke: #000000; stroke-width: 0.8"/>
      </g>
     </g>
     <g id="text_5">
      <!-- 2020 -->
      <g transform="translate(582.589333 273.441707) scale(0.1 -0.1)">
       <use xlink:href="#DejaVuSans-32"/>
       <use xlink:href="#DejaVuSans-30" x="63.623047"/>
       <use xlink:href="#DejaVuSans-32" x="127.246094"/>
       <use xlink:href="#DejaVuSans-30" x="190.869141"/>
      </g>
     </g>
    </g>
    <g id="text_6">
     <!-- Year -->
     <g transform="translate(337.495072 287.119832) scale(0.1 -0.1)">
      <defs>
       <path id="DejaVuSans-59" d="M -13 4666 
L 666 4666 
L 1959 2747 
L 3244 4666 
L 3922 4666 
L 2272 2222 
L 2272 0 
L 1638 0 
L 1638 2222 
L -13 4666 
z
" transform="scale(0.015625)"/>
       <path id="DejaVuSans-65" d="M 3597 1894 
L 3597 1613 
L 953 1613 
Q 991 1019 1311 708 
Q 1631 397 2203 397 
Q 2534 397 2845 478 
Q 3156 559 3463 722 
L 3463 178 
Q 3153 47 2828 -22 
Q 2503 -91 2169 -91 
Q 1331 -91 842 396 
Q 353 884 353 1716 
Q 353 2575 817 3079 
Q 1281 3584 2069 3584 
Q 2775 3584 3186 3129 
Q 3597 2675 3597 1894 
z
M 3022 2063 
Q 3016 2534 2758 2815 
Q 2500 3097 2075 3097 
Q 1594 3097 1305 2825 
Q 1016 2553 972 2059 
L 3022 2063 
z
" transform="scale(0.015625)"/>
       <path id="DejaVuSans-61" d="M 2194 1759 
Q 1497 1759 1228 1600 
Q 959 1441 959 1056 
Q 959 750 1161 570 
Q 1363 391 1709 391 
Q 2188 391 2477 730 
Q 2766 1069 2766 1631 
L 2766 1759 
L 2194 1759 
z
M 3341 1997 
L 3341 0 
L 2766 0 
L 2766 531 
Q 2569 213 2275 61 
Q 1981 -91 1556 -91 
Q 1019 -91 701 211 
Q 384 513 384 1019 
Q 384 1609 779 1909 
Q 1175 2209 1959 2209 
L 2766 2209 
L 2766 2266 
Q 2766 2663 2505 2880 
Q 2244 3097 1772 3097 
Q 1472 3097 1187 3025 
Q 903 2953 641 2809 
L 641 3341 
Q 956 3463 1253 3523 
Q 1550 3584 1831 3584 
Q 2591 3584 2966 3190 
Q 3341 2797 3341 1997 
z
" transform="scale(0.015625)"/>
       <path id="DejaVuSans-72" d="M 2631 2963 
Q 2534 3019 2420 3045 
Q 2306 3072 2169 3072 
Q 1681 3072 1420 2755 
Q 1159 2438 1159 1844 
L 1159 0 
L 581 0 
L 581 3500 
L 1159 3500 
L 1159 2956 
Q 1341 3275 1631 3429 
Q 1922 3584 2338 3584 
Q 2397 3584 2469 3576 
Q 2541 3569 2628 3553 
L 2631 2963 
z
" transform="scale(0.015625)"/>
      </defs>
      <use xlink:href="#DejaVuSans-59"/>
      <use xlink:href="#DejaVuSans-65" x="47.833984"/>
      <use xlink:href="#DejaVuSans-61" x="109.357422"/>
      <use xlink:href="#DejaVuSans-72" x="170.636719"/>
     </g>
    </g>
   </g>
   <g id="matplotlib.axis_2">
    <g id="ytick_1">
     <g id="line2d_6">
      <defs>
       <path id="mc576120bde" d="M 0 0 
L -3.5 0 
" style="stroke: #000000; stroke-width: 0.8"/>
      </defs>
      <g>
       <use xlink:href="#mc576120bde" x="46.965625" y="258.84327" style="stroke: #000000; stroke-width: 0.8"/>
      </g>
     </g>
     <g id="text_7">
      <!-- 0 -->
      <g transform="translate(33.603125 262.642489) scale(0.1 -0.1)">
       <use xlink:href="#DejaVuSans-30"/>
      </g>
     </g>
    </g>
    <g id="ytick_2">
     <g id="line2d_7">
      <g>
       <use xlink:href="#mc576120bde" x="46.965625" y="223.436977" style="stroke: #000000; stroke-width: 0.8"/>
      </g>
     </g>
     <g id="text_8">
      <!-- 50 -->
      <g transform="translate(27.240625 227.236196) scale(0.1 -0.1)">
       <defs>
        <path id="DejaVuSans-35" d="M 691 4666 
L 3169 4666 
L 3169 4134 
L 1269 4134 
L 1269 2991 
Q 1406 3038 1543 3061 
Q 1681 3084 1819 3084 
Q 2600 3084 3056 2656 
Q 3513 2228 3513 1497 
Q 3513 744 3044 326 
Q 2575 -91 1722 -91 
Q 1428 -91 1123 -41 
Q 819 9 494 109 
L 494 744 
Q 775 591 1075 516 
Q 1375 441 1709 441 
Q 2250 441 2565 725 
Q 2881 1009 2881 1497 
Q 2881 1984 2565 2268 
Q 2250 2553 1709 2553 
Q 1456 2553 1204 2497 
Q 953 2441 691 2322 
L 691 4666 
z
" transform="scale(0.015625)"/>
       </defs>
       <use xlink:href="#DejaVuSans-35"/>
       <use xlink:href="#DejaVuSans-30" x="63.623047"/>
      </g>
     </g>
    </g>
    <g id="ytick_3">
     <g id="line2d_8">
      <g>
       <use xlink:href="#mc576120bde" x="46.965625" y="188.030684" style="stroke: #000000; stroke-width: 0.8"/>
      </g>
     </g>
     <g id="text_9">
      <!-- 100 -->
      <g transform="translate(20.878125 191.829903) scale(0.1 -0.1)">
       <use xlink:href="#DejaVuSans-31"/>
       <use xlink:href="#DejaVuSans-30" x="63.623047"/>
       <use xlink:href="#DejaVuSans-30" x="127.246094"/>
      </g>
     </g>
    </g>
    <g id="ytick_4">
     <g id="line2d_9">
      <g>
       <use xlink:href="#mc576120bde" x="46.965625" y="152.624391" style="stroke: #000000; stroke-width: 0.8"/>
      </g>
     </g>
     <g id="text_10">
      <!-- 150 -->
      <g transform="translate(20.878125 156.42361) scale(0.1 -0.1)">
       <use xlink:href="#DejaVuSans-31"/>
       <use xlink:href="#DejaVuSans-35" x="63.623047"/>
       <use xlink:href="#DejaVuSans-30" x="127.246094"/>
      </g>
     </g>
    </g>
    <g id="ytick_5">
     <g id="line2d_10">
      <g>
       <use xlink:href="#mc576120bde" x="46.965625" y="117.218098" style="stroke: #000000; stroke-width: 0.8"/>
      </g>
     </g>
     <g id="text_11">
      <!-- 200 -->
      <g transform="translate(20.878125 121.017317) scale(0.1 -0.1)">
       <use xlink:href="#DejaVuSans-32"/>
       <use xlink:href="#DejaVuSans-30" x="63.623047"/>
       <use xlink:href="#DejaVuSans-30" x="127.246094"/>
      </g>
     </g>
    </g>
    <g id="ytick_6">
     <g id="line2d_11">
      <g>
       <use xlink:href="#mc576120bde" x="46.965625" y="81.811805" style="stroke: #000000; stroke-width: 0.8"/>
      </g>
     </g>
     <g id="text_12">
      <!-- 250 -->
      <g transform="translate(20.878125 85.611024) scale(0.1 -0.1)">
       <use xlink:href="#DejaVuSans-32"/>
       <use xlink:href="#DejaVuSans-35" x="63.623047"/>
       <use xlink:href="#DejaVuSans-30" x="127.246094"/>
      </g>
     </g>
    </g>
    <g id="ytick_7">
     <g id="line2d_12">
      <g>
       <use xlink:href="#mc576120bde" x="46.965625" y="46.405512" style="stroke: #000000; stroke-width: 0.8"/>
      </g>
     </g>
     <g id="text_13">
      <!-- 300 -->
      <g transform="translate(20.878125 50.204731) scale(0.1 -0.1)">
       <defs>
        <path id="DejaVuSans-33" d="M 2597 2516 
Q 3050 2419 3304 2112 
Q 3559 1806 3559 1356 
Q 3559 666 3084 287 
Q 2609 -91 1734 -91 
Q 1441 -91 1130 -33 
Q 819 25 488 141 
L 488 750 
Q 750 597 1062 519 
Q 1375 441 1716 441 
Q 2309 441 2620 675 
Q 2931 909 2931 1356 
Q 2931 1769 2642 2001 
Q 2353 2234 1838 2234 
L 1294 2234 
L 1294 2753 
L 1863 2753 
Q 2328 2753 2575 2939 
Q 2822 3125 2822 3475 
Q 2822 3834 2567 4026 
Q 2313 4219 1838 4219 
Q 1578 4219 1281 4162 
Q 984 4106 628 3988 
L 628 4550 
Q 988 4650 1302 4700 
Q 1616 4750 1894 4750 
Q 2613 4750 3031 4423 
Q 3450 4097 3450 3541 
Q 3450 3153 3228 2886 
Q 3006 2619 2597 2516 
z
" transform="scale(0.015625)"/>
       </defs>
       <use xlink:href="#DejaVuSans-33"/>
       <use xlink:href="#DejaVuSans-30" x="63.623047"/>
       <use xlink:href="#DejaVuSans-30" x="127.246094"/>
      </g>
     </g>
    </g>
    <g id="ytick_8">
     <g id="line2d_13">
      <g>
       <use xlink:href="#mc576120bde" x="46.965625" y="10.999219" style="stroke: #000000; stroke-width: 0.8"/>
      </g>
     </g>
     <g id="text_14">
      <!-- 350 -->
      <g transform="translate(20.878125 14.798437) scale(0.1 -0.1)">
       <use xlink:href="#DejaVuSans-33"/>
       <use xlink:href="#DejaVuSans-35" x="63.623047"/>
       <use xlink:href="#DejaVuSans-30" x="127.246094"/>
      </g>
     </g>
    </g>
    <g id="text_15">
     <!-- Surface Mass Balance [Gt/month] -->
     <g transform="translate(14.798438 218.914213) rotate(-90) scale(0.1 -0.1)">
      <defs>
       <path id="DejaVuSans-53" d="M 3425 4513 
L 3425 3897 
Q 3066 4069 2747 4153 
Q 2428 4238 2131 4238 
Q 1616 4238 1336 4038 
Q 1056 3838 1056 3469 
Q 1056 3159 1242 3001 
Q 1428 2844 1947 2747 
L 2328 2669 
Q 3034 2534 3370 2195 
Q 3706 1856 3706 1288 
Q 3706 609 3251 259 
Q 2797 -91 1919 -91 
Q 1588 -91 1214 -16 
Q 841 59 441 206 
L 441 856 
Q 825 641 1194 531 
Q 1563 422 1919 422 
Q 2459 422 2753 634 
Q 3047 847 3047 1241 
Q 3047 1584 2836 1778 
Q 2625 1972 2144 2069 
L 1759 2144 
Q 1053 2284 737 2584 
Q 422 2884 422 3419 
Q 422 4038 858 4394 
Q 1294 4750 2059 4750 
Q 2388 4750 2728 4690 
Q 3069 4631 3425 4513 
z
" transform="scale(0.015625)"/>
       <path id="DejaVuSans-75" d="M 544 1381 
L 544 3500 
L 1119 3500 
L 1119 1403 
Q 1119 906 1312 657 
Q 1506 409 1894 409 
Q 2359 409 2629 706 
Q 2900 1003 2900 1516 
L 2900 3500 
L 3475 3500 
L 3475 0 
L 2900 0 
L 2900 538 
Q 2691 219 2414 64 
Q 2138 -91 1772 -91 
Q 1169 -91 856 284 
Q 544 659 544 1381 
z
M 1991 3584 
L 1991 3584 
z
" transform="scale(0.015625)"/>
       <path id="DejaVuSans-66" d="M 2375 4863 
L 2375 4384 
L 1825 4384 
Q 1516 4384 1395 4259 
Q 1275 4134 1275 3809 
L 1275 3500 
L 2222 3500 
L 2222 3053 
L 1275 3053 
L 1275 0 
L 697 0 
L 697 3053 
L 147 3053 
L 147 3500 
L 697 3500 
L 697 3744 
Q 697 4328 969 4595 
Q 1241 4863 1831 4863 
L 2375 4863 
z
" transform="scale(0.015625)"/>
       <path id="DejaVuSans-63" d="M 3122 3366 
L 3122 2828 
Q 2878 2963 2633 3030 
Q 2388 3097 2138 3097 
Q 1578 3097 1268 2742 
Q 959 2388 959 1747 
Q 959 1106 1268 751 
Q 1578 397 2138 397 
Q 2388 397 2633 464 
Q 2878 531 3122 666 
L 3122 134 
Q 2881 22 2623 -34 
Q 2366 -91 2075 -91 
Q 1284 -91 818 406 
Q 353 903 353 1747 
Q 353 2603 823 3093 
Q 1294 3584 2113 3584 
Q 2378 3584 2631 3529 
Q 2884 3475 3122 3366 
z
" transform="scale(0.015625)"/>
       <path id="DejaVuSans-20" transform="scale(0.015625)"/>
       <path id="DejaVuSans-4d" d="M 628 4666 
L 1569 4666 
L 2759 1491 
L 3956 4666 
L 4897 4666 
L 4897 0 
L 4281 0 
L 4281 4097 
L 3078 897 
L 2444 897 
L 1241 4097 
L 1241 0 
L 628 0 
L 628 4666 
z
" transform="scale(0.015625)"/>
       <path id="DejaVuSans-73" d="M 2834 3397 
L 2834 2853 
Q 2591 2978 2328 3040 
Q 2066 3103 1784 3103 
Q 1356 3103 1142 2972 
Q 928 2841 928 2578 
Q 928 2378 1081 2264 
Q 1234 2150 1697 2047 
L 1894 2003 
Q 2506 1872 2764 1633 
Q 3022 1394 3022 966 
Q 3022 478 2636 193 
Q 2250 -91 1575 -91 
Q 1294 -91 989 -36 
Q 684 19 347 128 
L 347 722 
Q 666 556 975 473 
Q 1284 391 1588 391 
Q 1994 391 2212 530 
Q 2431 669 2431 922 
Q 2431 1156 2273 1281 
Q 2116 1406 1581 1522 
L 1381 1569 
Q 847 1681 609 1914 
Q 372 2147 372 2553 
Q 372 3047 722 3315 
Q 1072 3584 1716 3584 
Q 2034 3584 2315 3537 
Q 2597 3491 2834 3397 
z
" transform="scale(0.015625)"/>
       <path id="DejaVuSans-42" d="M 1259 2228 
L 1259 519 
L 2272 519 
Q 2781 519 3026 730 
Q 3272 941 3272 1375 
Q 3272 1813 3026 2020 
Q 2781 2228 2272 2228 
L 1259 2228 
z
M 1259 4147 
L 1259 2741 
L 2194 2741 
Q 2656 2741 2882 2914 
Q 3109 3088 3109 3444 
Q 3109 3797 2882 3972 
Q 2656 4147 2194 4147 
L 1259 4147 
z
M 628 4666 
L 2241 4666 
Q 2963 4666 3353 4366 
Q 3744 4066 3744 3513 
Q 3744 3084 3544 2831 
Q 3344 2578 2956 2516 
Q 3422 2416 3680 2098 
Q 3938 1781 3938 1306 
Q 3938 681 3513 340 
Q 3088 0 2303 0 
L 628 0 
L 628 4666 
z
" transform="scale(0.015625)"/>
       <path id="DejaVuSans-6c" d="M 603 4863 
L 1178 4863 
L 1178 0 
L 603 0 
L 603 4863 
z
" transform="scale(0.015625)"/>
       <path id="DejaVuSans-6e" d="M 3513 2113 
L 3513 0 
L 2938 0 
L 2938 2094 
Q 2938 2591 2744 2837 
Q 2550 3084 2163 3084 
Q 1697 3084 1428 2787 
Q 1159 2491 1159 1978 
L 1159 0 
L 581 0 
L 581 3500 
L 1159 3500 
L 1159 2956 
Q 1366 3272 1645 3428 
Q 1925 3584 2291 3584 
Q 2894 3584 3203 3211 
Q 3513 2838 3513 2113 
z
" transform="scale(0.015625)"/>
       <path id="DejaVuSans-5b" d="M 550 4863 
L 1875 4863 
L 1875 4416 
L 1125 4416 
L 1125 -397 
L 1875 -397 
L 1875 -844 
L 550 -844 
L 550 4863 
z
" transform="scale(0.015625)"/>
       <path id="DejaVuSans-47" d="M 3809 666 
L 3809 1919 
L 2778 1919 
L 2778 2438 
L 4434 2438 
L 4434 434 
Q 4069 175 3628 42 
Q 3188 -91 2688 -91 
Q 1594 -91 976 548 
Q 359 1188 359 2328 
Q 359 3472 976 4111 
Q 1594 4750 2688 4750 
Q 3144 4750 3555 4637 
Q 3966 4525 4313 4306 
L 4313 3634 
Q 3963 3931 3569 4081 
Q 3175 4231 2741 4231 
Q 1884 4231 1454 3753 
Q 1025 3275 1025 2328 
Q 1025 1384 1454 906 
Q 1884 428 2741 428 
Q 3075 428 3337 486 
Q 3600 544 3809 666 
z
" transform="scale(0.015625)"/>
       <path id="DejaVuSans-74" d="M 1172 4494 
L 1172 3500 
L 2356 3500 
L 2356 3053 
L 1172 3053 
L 1172 1153 
Q 1172 725 1289 603 
Q 1406 481 1766 481 
L 2356 481 
L 2356 0 
L 1766 0 
Q 1100 0 847 248 
Q 594 497 594 1153 
L 594 3053 
L 172 3053 
L 172 3500 
L 594 3500 
L 594 4494 
L 1172 4494 
z
" transform="scale(0.015625)"/>
       <path id="DejaVuSans-2f" d="M 1625 4666 
L 2156 4666 
L 531 -594 
L 0 -594 
L 1625 4666 
z
" transform="scale(0.015625)"/>
       <path id="DejaVuSans-6d" d="M 3328 2828 
Q 3544 3216 3844 3400 
Q 4144 3584 4550 3584 
Q 5097 3584 5394 3201 
Q 5691 2819 5691 2113 
L 5691 0 
L 5113 0 
L 5113 2094 
Q 5113 2597 4934 2840 
Q 4756 3084 4391 3084 
Q 3944 3084 3684 2787 
Q 3425 2491 3425 1978 
L 3425 0 
L 2847 0 
L 2847 2094 
Q 2847 2600 2669 2842 
Q 2491 3084 2119 3084 
Q 1678 3084 1418 2786 
Q 1159 2488 1159 1978 
L 1159 0 
L 581 0 
L 581 3500 
L 1159 3500 
L 1159 2956 
Q 1356 3278 1631 3431 
Q 1906 3584 2284 3584 
Q 2666 3584 2933 3390 
Q 3200 3197 3328 2828 
z
" transform="scale(0.015625)"/>
       <path id="DejaVuSans-6f" d="M 1959 3097 
Q 1497 3097 1228 2736 
Q 959 2375 959 1747 
Q 959 1119 1226 758 
Q 1494 397 1959 397 
Q 2419 397 2687 759 
Q 2956 1122 2956 1747 
Q 2956 2369 2687 2733 
Q 2419 3097 1959 3097 
z
M 1959 3584 
Q 2709 3584 3137 3096 
Q 3566 2609 3566 1747 
Q 3566 888 3137 398 
Q 2709 -91 1959 -91 
Q 1206 -91 779 398 
Q 353 888 353 1747 
Q 353 2609 779 3096 
Q 1206 3584 1959 3584 
z
" transform="scale(0.015625)"/>
       <path id="DejaVuSans-68" d="M 3513 2113 
L 3513 0 
L 2938 0 
L 2938 2094 
Q 2938 2591 2744 2837 
Q 2550 3084 2163 3084 
Q 1697 3084 1428 2787 
Q 1159 2491 1159 1978 
L 1159 0 
L 581 0 
L 581 4863 
L 1159 4863 
L 1159 2956 
Q 1366 3272 1645 3428 
Q 1925 3584 2291 3584 
Q 2894 3584 3203 3211 
Q 3513 2838 3513 2113 
z
" transform="scale(0.015625)"/>
       <path id="DejaVuSans-5d" d="M 1947 4863 
L 1947 -844 
L 622 -844 
L 622 -397 
L 1369 -397 
L 1369 4416 
L 622 4416 
L 622 4863 
L 1947 4863 
z
" transform="scale(0.015625)"/>
      </defs>
      <use xlink:href="#DejaVuSans-53"/>
      <use xlink:href="#DejaVuSans-75" x="63.476562"/>
      <use xlink:href="#DejaVuSans-72" x="126.855469"/>
      <use xlink:href="#DejaVuSans-66" x="167.96875"/>
      <use xlink:href="#DejaVuSans-61" x="203.173828"/>
      <use xlink:href="#DejaVuSans-63" x="264.453125"/>
      <use xlink:href="#DejaVuSans-65" x="319.433594"/>
      <use xlink:href="#DejaVuSans-20" x="380.957031"/>
      <use xlink:href="#DejaVuSans-4d" x="412.744141"/>
      <use xlink:href="#DejaVuSans-61" x="499.023438"/>
      <use xlink:href="#DejaVuSans-73" x="560.302734"/>
      <use xlink:href="#DejaVuSans-73" x="612.402344"/>
      <use xlink:href="#DejaVuSans-20" x="664.501953"/>
      <use xlink:href="#DejaVuSans-42" x="696.289062"/>
      <use xlink:href="#DejaVuSans-61" x="764.892578"/>
      <use xlink:href="#DejaVuSans-6c" x="826.171875"/>
      <use xlink:href="#DejaVuSans-61" x="853.955078"/>
      <use xlink:href="#DejaVuSans-6e" x="915.234375"/>
      <use xlink:href="#DejaVuSans-63" x="978.613281"/>
      <use xlink:href="#DejaVuSans-65" x="1033.59375"/>
      <use xlink:href="#DejaVuSans-20" x="1095.117188"/>
      <use xlink:href="#DejaVuSans-5b" x="1126.904297"/>
      <use xlink:href="#DejaVuSans-47" x="1165.917969"/>
      <use xlink:href="#DejaVuSans-74" x="1243.408203"/>
      <use xlink:href="#DejaVuSans-2f" x="1282.617188"/>
      <use xlink:href="#DejaVuSans-6d" x="1316.308594"/>
      <use xlink:href="#DejaVuSans-6f" x="1413.720703"/>
      <use xlink:href="#DejaVuSans-6e" x="1474.902344"/>
      <use xlink:href="#DejaVuSans-74" x="1538.28125"/>
      <use xlink:href="#DejaVuSans-68" x="1577.490234"/>
      <use xlink:href="#DejaVuSans-5d" x="1640.869141"/>
     </g>
    </g>
   </g>
   <g id="line2d_14">
    <path d="M 74.339893 178.404277 
L 76.397977 127.099074 
L 77.444461 113.93728 
L 78.525828 103.369697 
L 79.572311 118.293285 
L 80.653678 120.509195 
L 81.735044 143.921242 
L 82.781528 123.995297 
L 83.862894 132.121534 
L 84.909378 193.46381 
L 85.990744 158.808743 
L 87.072111 171.950252 
L 88.083711 122.943045 
L 89.165078 97.319724 
L 90.211562 111.055628 
L 91.292928 78.807863 
L 92.339412 118.615921 
L 93.420778 90.285799 
L 94.502144 141.180587 
L 95.548628 134.035639 
L 96.629995 144.673428 
L 97.676478 179.366046 
L 98.757845 178.49152 
L 99.804328 171.311442 
L 100.781046 152.144098 
L 101.862413 128.214515 
L 102.908896 102.068698 
L 103.990263 100.666694 
L 105.036746 64.978199 
L 106.118113 79.039811 
L 107.199479 122.316126 
L 108.245963 126.905558 
L 109.327329 147.724415 
L 110.373813 149.838598 
L 111.455179 166.610675 
L 112.536546 176.294898 
L 113.513264 181.416702 
L 114.59463 129.704813 
L 115.641114 118.267486 
L 116.72248 76.978911 
L 117.768964 59.385803 
L 118.850331 102.770286 
L 119.931697 138.172785 
L 120.978181 120.076123 
L 122.059547 130.438251 
L 123.106031 176.506096 
L 124.187397 185.725667 
L 125.268764 182.517552 
L 127.326848 140.825616 
L 128.373332 103.960718 
L 129.454698 108.33403 
L 130.501182 119.453241 
L 131.582548 141.695372 
L 133.710398 104.140125 
L 134.791765 156.526461 
L 135.838248 173.747835 
L 136.919615 175.677953 
L 138.000981 171.963099 
L 139.012582 151.031731 
L 140.093949 84.794544 
L 141.140432 105.175775 
L 142.221799 96.833357 
L 143.268282 133.785544 
L 144.349649 117.591611 
L 145.431015 120.215672 
L 146.477499 118.535274 
L 147.558865 128.692263 
L 148.605349 171.07222 
L 149.686715 175.186493 
L 150.733199 174.072364 
L 151.709917 174.94284 
L 152.791283 132.400874 
L 153.837767 116.504761 
L 154.919133 119.582738 
L 155.965617 101.209911 
L 157.046984 87.81091 
L 158.12835 126.729835 
L 159.174834 128.066435 
L 160.2562 135.543859 
L 161.302684 137.102908 
L 162.38405 166.395314 
L 163.465417 182.377213 
L 165.523501 132.394624 
L 166.569985 117.763602 
L 167.651351 143.656744 
L 168.697835 137.608794 
L 169.779201 115.726985 
L 170.860568 131.519985 
L 171.907051 128.458438 
L 172.988418 105.867738 
L 174.034901 175.036913 
L 175.116268 189.025007 
L 176.197634 179.968415 
L 177.174352 167.714468 
L 178.255719 128.566761 
L 179.302202 152.350249 
L 180.383569 140.435428 
L 181.430052 122.445768 
L 182.511419 130.528309 
L 183.592785 136.819485 
L 184.639269 139.52625 
L 185.720635 136.876479 
L 186.767119 174.211312 
L 187.848485 193.335905 
L 188.929852 166.092957 
L 189.941453 159.814214 
L 191.022819 126.542753 
L 192.069303 98.040233 
L 193.150669 128.435074 
L 194.197153 136.980933 
L 195.278519 113.753276 
L 196.359886 96.193218 
L 197.406369 133.014104 
L 198.487736 158.588355 
L 199.534219 189.003914 
L 200.615586 192.083144 
L 201.662069 192.095788 
L 202.638788 151.991324 
L 203.720154 127.759925 
L 204.766638 132.098088 
L 205.848004 119.018877 
L 206.894488 128.040222 
L 207.975854 103.891065 
L 209.057221 117.253671 
L 210.103704 117.9663 
L 211.185071 137.006439 
L 212.231554 175.011628 
L 213.312921 167.477666 
L 214.394287 162.677098 
L 215.371005 155.608359 
L 217.498855 126.692066 
L 218.580222 129.420209 
L 219.626705 143.671338 
L 220.708072 107.239334 
L 221.789438 143.375777 
L 222.835922 121.504454 
L 223.917288 175.851421 
L 224.963772 161.153932 
L 226.045138 177.438107 
L 227.126505 161.655888 
L 228.103223 141.797273 
L 229.184589 105.017066 
L 230.231073 102.096744 
L 231.312439 122.074913 
L 232.358923 123.622597 
L 233.440289 118.61424 
L 234.521656 132.844352 
L 235.56814 123.384771 
L 236.649506 138.579687 
L 237.69599 173.789044 
L 238.777356 191.803906 
L 239.858722 187.668597 
L 240.870323 150.507069 
L 241.95169 123.561444 
L 242.998173 75.997832 
L 244.07954 109.448881 
L 245.126023 110.142767 
L 246.20739 107.313691 
L 247.288756 105.39573 
L 248.33524 140.293364 
L 249.416606 137.61491 
L 250.46309 115.764234 
L 251.544456 178.53905 
L 252.59094 161.832825 
L 253.567658 103.762735 
L 254.649025 117.924926 
L 255.695508 140.293126 
L 256.776875 137.180796 
L 257.823358 123.433681 
L 258.904725 100.592164 
L 259.986091 113.277229 
L 261.032575 136.910338 
L 262.113941 142.422757 
L 263.160425 178.121388 
L 264.241791 164.842724 
L 265.323158 182.80918 
L 266.299876 174.477271 
L 267.381242 117.041791 
L 268.427726 135.000167 
L 269.509092 102.147398 
L 270.555576 143.314845 
L 271.636942 142.552594 
L 272.718309 140.412622 
L 273.764792 125.951013 
L 274.846159 153.1178 
L 275.892643 168.764228 
L 276.974009 176.589694 
L 278.055375 166.978557 
L 279.032093 138.529785 
L 280.11346 143.692494 
L 281.159944 106.935787 
L 282.24131 127.952126 
L 283.287794 111.774187 
L 284.36916 121.246922 
L 285.450526 115.306985 
L 286.49701 129.966004 
L 287.578377 147.605919 
L 288.62486 188.716191 
L 289.706227 172.648482 
L 290.787593 169.628729 
L 291.799194 136.564905 
L 292.88056 109.754025 
L 293.927044 101.000073 
L 295.00841 144.78207 
L 296.054894 102.902863 
L 297.13626 110.503428 
L 298.217627 137.041597 
L 299.264111 153.499644 
L 300.345477 147.614521 
L 301.391961 165.352611 
L 302.473327 189.163513 
L 303.519811 180.670597 
L 304.496529 158.697674 
L 305.577895 113.425201 
L 306.624379 128.416592 
L 307.705745 105.701797 
L 308.752229 116.51048 
L 309.833595 124.576865 
L 310.914962 155.569149 
L 311.961445 142.358239 
L 313.042812 157.751092 
L 314.089296 169.216767 
L 315.170662 187.073681 
L 316.252028 185.085574 
L 317.228746 138.248922 
L 318.310113 129.729363 
L 319.356597 98.582043 
L 320.437963 56.91956 
L 321.484447 97.136245 
L 322.565813 126.112826 
L 323.647179 137.906017 
L 324.693663 141.099711 
L 325.77503 165.420737 
L 326.821513 144.595985 
L 327.90288 172.51144 
L 328.984246 182.122441 
L 329.960964 155.333702 
L 331.042331 138.324244 
L 332.088814 134.633288 
L 333.170181 98.446043 
L 334.216664 150.191788 
L 335.298031 136.415257 
L 336.379397 140.159556 
L 337.425881 142.585984 
L 338.507247 93.837787 
L 339.553731 158.13583 
L 340.635097 162.051971 
L 341.716464 177.700691 
L 342.728065 139.728285 
L 343.809431 114.419092 
L 344.855915 148.937354 
L 345.937281 110.518657 
L 346.983765 122.191622 
L 348.065131 107.397392 
L 349.146498 121.053559 
L 350.192981 121.831409 
L 351.274348 146.814198 
L 352.320831 157.416496 
L 353.402198 211.1391 
L 354.448681 171.808332 
L 355.425399 165.929867 
L 356.506766 126.554049 
L 357.553249 118.417087 
L 358.634616 89.965262 
L 359.6811 120.607349 
L 360.762466 122.239102 
L 361.843832 149.78758 
L 362.890316 129.148583 
L 363.971682 132.353639 
L 365.018166 145.65053 
L 366.099533 124.187527 
L 367.180899 134.551967 
L 368.157617 148.955816 
L 369.238983 105.199256 
L 370.285467 95.053378 
L 371.366834 120.819861 
L 372.413317 131.401239 
L 373.494684 126.920225 
L 374.57605 109.75953 
L 375.622534 127.482333 
L 376.7039 158.128791 
L 377.750384 183.915565 
L 378.83175 171.239827 
L 379.913117 164.108868 
L 380.889835 156.264537 
L 381.971201 126.45818 
L 383.017685 87.947759 
L 384.099051 118.960884 
L 385.145535 144.515181 
L 386.226901 132.919845 
L 387.308268 119.117259 
L 388.354751 121.781671 
L 389.436118 150.976066 
L 390.482601 190.934746 
L 391.563968 198.165287 
L 392.645334 170.464528 
L 394.738302 109.681289 
L 395.784785 109.210878 
L 396.866152 105.511765 
L 397.912635 100.26828 
L 398.994002 120.616027 
L 400.075368 104.363189 
L 401.121852 140.03158 
L 403.249702 159.57586 
L 404.331068 193.675014 
L 405.377552 180.552777 
L 407.435636 108.511456 
L 408.48212 127.729875 
L 409.563487 114.889505 
L 410.60997 105.940252 
L 411.691337 120.05793 
L 412.772703 112.080295 
L 413.819187 90.441052 
L 414.900553 95.699097 
L 415.947037 155.681866 
L 417.028403 179.903424 
L 418.10977 168.769505 
L 419.086488 155.894312 
L 420.167854 122.195716 
L 421.214338 123.903574 
L 422.295704 102.716956 
L 423.342188 115.812426 
L 424.423554 113.801042 
L 425.504921 160.102432 
L 426.551404 149.704914 
L 427.632771 119.671897 
L 428.679254 155.175691 
L 429.760621 187.188427 
L 430.841987 182.236207 
L 431.818705 175.428917 
L 432.900072 122.905761 
L 433.946555 116.685835 
L 435.027922 102.574286 
L 436.074405 119.589573 
L 437.155772 139.183655 
L 438.237138 142.593069 
L 439.283622 134.432436 
L 440.364988 157.204524 
L 441.411472 170.441924 
L 442.492838 169.114384 
L 443.574205 171.6241 
L 444.585806 148.136255 
L 445.667172 135.589156 
L 446.713656 114.239991 
L 447.795022 133.503924 
L 448.841506 139.702786 
L 449.922872 98.524497 
L 451.004239 86.234838 
L 453.132089 154.592982 
L 454.178572 150.182184 
L 455.259939 176.788766 
L 456.306423 160.805735 
L 457.283141 127.585455 
L 458.364507 113.852925 
L 459.410991 134.613787 
L 460.492357 94.71201 
L 461.538841 109.613005 
L 462.620207 86.19196 
L 463.701574 131.329325 
L 464.748057 123.18673 
L 465.829424 155.691064 
L 466.875907 168.759763 
L 467.957274 192.244236 
L 469.03864 183.825319 
L 470.015358 155.306312 
L 471.096725 151.36755 
L 472.143208 153.273252 
L 473.224575 140.126406 
L 474.271058 129.7839 
L 475.352425 113.94387 
L 476.433791 116.227693 
L 477.480275 108.629316 
L 478.561641 121.536958 
L 480.689491 177.325218 
L 481.770858 176.456394 
L 482.747576 145.059729 
L 483.828942 139.560235 
L 484.875426 129.104723 
L 485.956792 127.335555 
L 487.003276 123.409643 
L 488.084643 85.575781 
L 489.166009 106.769926 
L 490.212493 144.611591 
L 491.293859 144.010333 
L 492.340343 178.959099 
L 493.421709 154.60969 
L 494.503076 164.121759 
L 495.514676 139.557638 
L 496.596043 122.805859 
L 497.642526 120.202208 
L 498.723893 93.14233 
L 499.770377 114.937506 
L 500.851743 140.694471 
L 501.933109 123.555582 
L 502.979593 149.085809 
L 505.107443 190.989219 
L 506.18881 191.382755 
L 507.235293 171.02662 
L 508.212011 139.753135 
L 509.293378 109.058591 
L 510.339861 117.159103 
L 511.421228 128.143256 
L 512.467711 136.947331 
L 513.549078 134.221624 
L 514.630444 120.828432 
L 515.676928 114.031307 
L 516.758294 165.480476 
L 517.804778 168.283764 
L 518.886144 179.609814 
L 519.967511 189.068385 
L 520.944229 158.207487 
L 522.025595 140.916065 
L 523.072079 97.897088 
L 524.153445 104.09651 
L 525.199929 131.527393 
L 526.281295 131.414535 
L 527.362662 124.459498 
L 528.409146 140.814088 
L 529.490512 140.518988 
L 530.536996 202.359688 
L 531.618362 195.694697 
L 532.699728 179.140246 
L 533.676447 156.103363 
L 534.757813 116.973159 
L 535.804297 111.677133 
L 536.885663 97.560481 
L 537.932147 152.01203 
L 539.013513 120.017759 
L 540.09488 119.272757 
L 541.141363 125.765227 
L 542.22273 164.300773 
L 543.269213 154.272159 
L 544.35058 163.306706 
L 545.431946 164.02233 
L 546.443547 138.571802 
L 547.524913 132.546416 
L 548.571397 116.491684 
L 549.652763 71.288346 
L 550.699247 97.921579 
L 551.780614 113.23866 
L 552.86198 125.99606 
L 553.908464 107.576253 
L 554.98983 114.077565 
L 556.036314 176.493611 
L 557.11768 195.976053 
L 558.164164 179.124393 
L 559.140882 140.226151 
L 560.222248 121.884012 
L 561.268732 124.301822 
L 562.350098 93.332392 
L 563.396582 135.175674 
L 564.477948 122.680774 
L 565.559315 127.652911 
L 566.605798 130.28768 
L 567.687165 155.370012 
L 568.733649 148.566546 
L 569.815015 194.264997 
L 570.896381 184.830375 
L 571.873099 142.77683 
L 572.954466 112.22131 
L 574.00095 124.553237 
L 575.082316 124.532103 
L 576.1288 137.766181 
L 577.210166 116.466002 
L 578.291533 147.155921 
L 579.338016 130.125443 
L 580.419383 117.664105 
L 581.465866 167.60748 
L 582.547233 189.937742 
L 583.628599 180.620988 
L 584.605317 146.12947 
L 585.686684 130.13914 
L 586.733167 126.594262 
L 587.814534 140.71534 
L 588.861017 108.408611 
L 589.942384 91.546755 
L 591.02375 112.47426 
L 592.070234 129.688276 
L 593.1516 144.864346 
L 594.198084 183.178117 
L 595.27945 197.733877 
L 596.360817 178.845059 
L 597.372418 132.050263 
L 598.453784 105.741816 
L 599.500268 98.349802 
L 600.581634 92.071731 
L 601.628118 90.387024 
L 602.709484 99.497467 
L 603.790851 152.582653 
L 604.837334 133.059001 
L 605.918701 140.774559 
L 606.965184 158.292043 
L 608.046551 173.07128 
L 609.093034 163.374548 
L 610.069752 170.236659 
L 611.151119 113.004204 
L 612.197603 128.258274 
L 613.278969 108.020737 
L 614.325453 119.214594 
L 615.406819 118.039805 
L 616.488185 130.776793 
L 617.534669 130.66138 
L 618.616036 107.546795 
L 620.743886 152.612027 
L 621.825252 133.090031 
L 621.825252 133.090031 
" clip-path="url(#pffc95f4459)" style="fill: none; stroke: #000000; stroke-width: 1.5; stroke-linecap: square"/>
   </g>
   <g id="patch_3">
    <path d="M 46.965625 258.84327 
L 46.965625 10.999219 
" style="fill: none; stroke: #000000; stroke-width: 0.8; stroke-linejoin: miter; stroke-linecap: square"/>
   </g>
   <g id="patch_4">
    <path d="M 649.19952 258.84327 
L 649.19952 10.999219 
" style="fill: none; stroke: #000000; stroke-width: 0.8; stroke-linejoin: miter; stroke-linecap: square"/>
   </g>
   <g id="patch_5">
    <path d="M 46.965625 258.84327 
L 649.19952 258.84327 
" style="fill: none; stroke: #000000; stroke-width: 0.8; stroke-linejoin: miter; stroke-linecap: square"/>
   </g>
   <g id="patch_6">
    <path d="M 46.965625 10.999219 
L 649.19952 10.999219 
" style="fill: none; stroke: #000000; stroke-width: 0.8; stroke-linejoin: miter; stroke-linecap: square"/>
   </g>
  </g>
 </g>
 <defs>
  <clipPath id="pffc95f4459">
   <rect x="46.965625" y="10.999219" width="602.233895" height="247.844051"/>
  </clipPath>
 </defs>
</svg>
