<?xml version="1.0" encoding="utf-8" standalone="no"?>
<!DOCTYPE svg PUBLIC "-//W3C//DTD SVG 1.1//EN"
  "http://www.w3.org/Graphics/SVG/1.1/DTD/svg11.dtd">
<svg xmlns:xlink="http://www.w3.org/1999/xlink" width="512.39952pt" height="224.39952pt" viewBox="0 0 512.39952 224.39952" xmlns="http://www.w3.org/2000/svg" version="1.1">
 <metadata>
  <rdf:RDF xmlns:dc="http://purl.org/dc/elements/1.1/" xmlns:cc="http://creativecommons.org/ns#" xmlns:rdf="http://www.w3.org/1999/02/22-rdf-syntax-ns#">
   <cc:Work>
    <dc:type rdf:resource="http://purl.org/dc/dcmitype/StillImage"/>
    <dc:date>2023-01-30T12:47:10.374642</dc:date>
    <dc:format>image/svg+xml</dc:format>
    <dc:creator>
     <cc:Agent>
      <dc:title>Matplotlib v3.5.1, https://matplotlib.org/</dc:title>
     </cc:Agent>
    </dc:creator>
   </cc:Work>
  </rdf:RDF>
 </metadata>
 <defs>
  <style type="text/css">*{stroke-linejoin: round; stroke-linecap: butt}</style>
 </defs>
 <g id="figure_1">
  <g id="patch_1">
   <path d="M 0 224.39952 
L 512.39952 224.39952 
L 512.39952 0 
L 0 0 
z
" style="fill: #ffffff"/>
  </g>
  <g id="axes_1">
   <g id="patch_2">
    <path d="M 72.905625 186.84327 
L 505.19952 186.84327 
L 505.19952 22.318125 
L 72.905625 22.318125 
z
" style="fill: #ffffff"/>
   </g>
   <g id="matplotlib.axis_1">
    <g id="xtick_1">
     <g id="line2d_1">
      <defs>
       <path id="m5aad105897" d="M 0 0 
L 0 3.5 
" style="stroke: #000000; stroke-width: 0.8"/>
      </defs>
      <g>
       <use xlink:href="#m5aad105897" x="92.099966" y="186.84327" style="stroke: #000000; stroke-width: 0.8"/>
      </g>
     </g>
     <g id="text_1">
      <!-- 1950 -->
      <g transform="translate(79.374966 201.441708)scale(0.1 -0.1)">
       <defs>
        <path id="DejaVuSans-31" d="M 794 531 
L 1825 531 
L 1825 4091 
L 703 3866 
L 703 4441 
L 1819 4666 
L 2450 4666 
L 2450 531 
L 3481 531 
L 3481 0 
L 794 0 
L 794 531 
z
" transform="scale(0.015625)"/>
        <path id="DejaVuSans-39" d="M 703 97 
L 703 672 
Q 941 559 1184 500 
Q 1428 441 1663 441 
Q 2288 441 2617 861 
Q 2947 1281 2994 2138 
Q 2813 1869 2534 1725 
Q 2256 1581 1919 1581 
Q 1219 1581 811 2004 
Q 403 2428 403 3163 
Q 403 3881 828 4315 
Q 1253 4750 1959 4750 
Q 2769 4750 3195 4129 
Q 3622 3509 3622 2328 
Q 3622 1225 3098 567 
Q 2575 -91 1691 -91 
Q 1453 -91 1209 -44 
Q 966 3 703 97 
z
M 1959 2075 
Q 2384 2075 2632 2365 
Q 2881 2656 2881 3163 
Q 2881 3666 2632 3958 
Q 2384 4250 1959 4250 
Q 1534 4250 1286 3958 
Q 1038 3666 1038 3163 
Q 1038 2656 1286 2365 
Q 1534 2075 1959 2075 
z
" transform="scale(0.015625)"/>
        <path id="DejaVuSans-35" d="M 691 4666 
L 3169 4666 
L 3169 4134 
L 1269 4134 
L 1269 2991 
Q 1406 3038 1543 3061 
Q 1681 3084 1819 3084 
Q 2600 3084 3056 2656 
Q 3513 2228 3513 1497 
Q 3513 744 3044 326 
Q 2575 -91 1722 -91 
Q 1428 -91 1123 -41 
Q 819 9 494 109 
L 494 744 
Q 775 591 1075 516 
Q 1375 441 1709 441 
Q 2250 441 2565 725 
Q 2881 1009 2881 1497 
Q 2881 1984 2565 2268 
Q 2250 2553 1709 2553 
Q 1456 2553 1204 2497 
Q 953 2441 691 2322 
L 691 4666 
z
" transform="scale(0.015625)"/>
        <path id="DejaVuSans-30" d="M 2034 4250 
Q 1547 4250 1301 3770 
Q 1056 3291 1056 2328 
Q 1056 1369 1301 889 
Q 1547 409 2034 409 
Q 2525 409 2770 889 
Q 3016 1369 3016 2328 
Q 3016 3291 2770 3770 
Q 2525 4250 2034 4250 
z
M 2034 4750 
Q 2819 4750 3233 4129 
Q 3647 3509 3647 2328 
Q 3647 1150 3233 529 
Q 2819 -91 2034 -91 
Q 1250 -91 836 529 
Q 422 1150 422 2328 
Q 422 3509 836 4129 
Q 1250 4750 2034 4750 
z
" transform="scale(0.015625)"/>
       </defs>
       <use xlink:href="#DejaVuSans-31"/>
       <use xlink:href="#DejaVuSans-39" x="63.623047"/>
       <use xlink:href="#DejaVuSans-35" x="127.246094"/>
       <use xlink:href="#DejaVuSans-30" x="190.869141"/>
      </g>
     </g>
    </g>
    <g id="xtick_2">
     <g id="line2d_2">
      <g>
       <use xlink:href="#m5aad105897" x="146.745776" y="186.84327" style="stroke: #000000; stroke-width: 0.8"/>
      </g>
     </g>
     <g id="text_2">
      <!-- 1960 -->
      <g transform="translate(134.020776 201.441708)scale(0.1 -0.1)">
       <defs>
        <path id="DejaVuSans-36" d="M 2113 2584 
Q 1688 2584 1439 2293 
Q 1191 2003 1191 1497 
Q 1191 994 1439 701 
Q 1688 409 2113 409 
Q 2538 409 2786 701 
Q 3034 994 3034 1497 
Q 3034 2003 2786 2293 
Q 2538 2584 2113 2584 
z
M 3366 4563 
L 3366 3988 
Q 3128 4100 2886 4159 
Q 2644 4219 2406 4219 
Q 1781 4219 1451 3797 
Q 1122 3375 1075 2522 
Q 1259 2794 1537 2939 
Q 1816 3084 2150 3084 
Q 2853 3084 3261 2657 
Q 3669 2231 3669 1497 
Q 3669 778 3244 343 
Q 2819 -91 2113 -91 
Q 1303 -91 875 529 
Q 447 1150 447 2328 
Q 447 3434 972 4092 
Q 1497 4750 2381 4750 
Q 2619 4750 2861 4703 
Q 3103 4656 3366 4563 
z
" transform="scale(0.015625)"/>
       </defs>
       <use xlink:href="#DejaVuSans-31"/>
       <use xlink:href="#DejaVuSans-39" x="63.623047"/>
       <use xlink:href="#DejaVuSans-36" x="127.246094"/>
       <use xlink:href="#DejaVuSans-30" x="190.869141"/>
      </g>
     </g>
    </g>
    <g id="xtick_3">
     <g id="line2d_3">
      <g>
       <use xlink:href="#m5aad105897" x="201.391586" y="186.84327" style="stroke: #000000; stroke-width: 0.8"/>
      </g>
     </g>
     <g id="text_3">
      <!-- 1970 -->
      <g transform="translate(188.666586 201.441708)scale(0.1 -0.1)">
       <defs>
        <path id="DejaVuSans-37" d="M 525 4666 
L 3525 4666 
L 3525 4397 
L 1831 0 
L 1172 0 
L 2766 4134 
L 525 4134 
L 525 4666 
z
" transform="scale(0.015625)"/>
       </defs>
       <use xlink:href="#DejaVuSans-31"/>
       <use xlink:href="#DejaVuSans-39" x="63.623047"/>
       <use xlink:href="#DejaVuSans-37" x="127.246094"/>
       <use xlink:href="#DejaVuSans-30" x="190.869141"/>
      </g>
     </g>
    </g>
    <g id="xtick_4">
     <g id="line2d_4">
      <g>
       <use xlink:href="#m5aad105897" x="256.037396" y="186.84327" style="stroke: #000000; stroke-width: 0.8"/>
      </g>
     </g>
     <g id="text_4">
      <!-- 1980 -->
      <g transform="translate(243.312396 201.441708)scale(0.1 -0.1)">
       <defs>
        <path id="DejaVuSans-38" d="M 2034 2216 
Q 1584 2216 1326 1975 
Q 1069 1734 1069 1313 
Q 1069 891 1326 650 
Q 1584 409 2034 409 
Q 2484 409 2743 651 
Q 3003 894 3003 1313 
Q 3003 1734 2745 1975 
Q 2488 2216 2034 2216 
z
M 1403 2484 
Q 997 2584 770 2862 
Q 544 3141 544 3541 
Q 544 4100 942 4425 
Q 1341 4750 2034 4750 
Q 2731 4750 3128 4425 
Q 3525 4100 3525 3541 
Q 3525 3141 3298 2862 
Q 3072 2584 2669 2484 
Q 3125 2378 3379 2068 
Q 3634 1759 3634 1313 
Q 3634 634 3220 271 
Q 2806 -91 2034 -91 
Q 1263 -91 848 271 
Q 434 634 434 1313 
Q 434 1759 690 2068 
Q 947 2378 1403 2484 
z
M 1172 3481 
Q 1172 3119 1398 2916 
Q 1625 2713 2034 2713 
Q 2441 2713 2670 2916 
Q 2900 3119 2900 3481 
Q 2900 3844 2670 4047 
Q 2441 4250 2034 4250 
Q 1625 4250 1398 4047 
Q 1172 3844 1172 3481 
z
" transform="scale(0.015625)"/>
       </defs>
       <use xlink:href="#DejaVuSans-31"/>
       <use xlink:href="#DejaVuSans-39" x="63.623047"/>
       <use xlink:href="#DejaVuSans-38" x="127.246094"/>
       <use xlink:href="#DejaVuSans-30" x="190.869141"/>
      </g>
     </g>
    </g>
    <g id="xtick_5">
     <g id="line2d_5">
      <g>
       <use xlink:href="#m5aad105897" x="310.683206" y="186.84327" style="stroke: #000000; stroke-width: 0.8"/>
      </g>
     </g>
     <g id="text_5">
      <!-- 1990 -->
      <g transform="translate(297.958206 201.441708)scale(0.1 -0.1)">
       <use xlink:href="#DejaVuSans-31"/>
       <use xlink:href="#DejaVuSans-39" x="63.623047"/>
       <use xlink:href="#DejaVuSans-39" x="127.246094"/>
       <use xlink:href="#DejaVuSans-30" x="190.869141"/>
      </g>
     </g>
    </g>
    <g id="xtick_6">
     <g id="line2d_6">
      <g>
       <use xlink:href="#m5aad105897" x="365.329016" y="186.84327" style="stroke: #000000; stroke-width: 0.8"/>
      </g>
     </g>
     <g id="text_6">
      <!-- 2000 -->
      <g transform="translate(352.604016 201.441708)scale(0.1 -0.1)">
       <defs>
        <path id="DejaVuSans-32" d="M 1228 531 
L 3431 531 
L 3431 0 
L 469 0 
L 469 531 
Q 828 903 1448 1529 
Q 2069 2156 2228 2338 
Q 2531 2678 2651 2914 
Q 2772 3150 2772 3378 
Q 2772 3750 2511 3984 
Q 2250 4219 1831 4219 
Q 1534 4219 1204 4116 
Q 875 4013 500 3803 
L 500 4441 
Q 881 4594 1212 4672 
Q 1544 4750 1819 4750 
Q 2544 4750 2975 4387 
Q 3406 4025 3406 3419 
Q 3406 3131 3298 2873 
Q 3191 2616 2906 2266 
Q 2828 2175 2409 1742 
Q 1991 1309 1228 531 
z
" transform="scale(0.015625)"/>
       </defs>
       <use xlink:href="#DejaVuSans-32"/>
       <use xlink:href="#DejaVuSans-30" x="63.623047"/>
       <use xlink:href="#DejaVuSans-30" x="127.246094"/>
       <use xlink:href="#DejaVuSans-30" x="190.869141"/>
      </g>
     </g>
    </g>
    <g id="xtick_7">
     <g id="line2d_7">
      <g>
       <use xlink:href="#m5aad105897" x="419.974826" y="186.84327" style="stroke: #000000; stroke-width: 0.8"/>
      </g>
     </g>
     <g id="text_7">
      <!-- 2010 -->
      <g transform="translate(407.249826 201.441708)scale(0.1 -0.1)">
       <use xlink:href="#DejaVuSans-32"/>
       <use xlink:href="#DejaVuSans-30" x="63.623047"/>
       <use xlink:href="#DejaVuSans-31" x="127.246094"/>
       <use xlink:href="#DejaVuSans-30" x="190.869141"/>
      </g>
     </g>
    </g>
    <g id="xtick_8">
     <g id="line2d_8">
      <g>
       <use xlink:href="#m5aad105897" x="474.620636" y="186.84327" style="stroke: #000000; stroke-width: 0.8"/>
      </g>
     </g>
     <g id="text_8">
      <!-- 2020 -->
      <g transform="translate(461.895636 201.441708)scale(0.1 -0.1)">
       <use xlink:href="#DejaVuSans-32"/>
       <use xlink:href="#DejaVuSans-30" x="63.623047"/>
       <use xlink:href="#DejaVuSans-32" x="127.246094"/>
       <use xlink:href="#DejaVuSans-30" x="190.869141"/>
      </g>
     </g>
    </g>
    <g id="text_9">
     <!-- Year -->
     <g transform="translate(278.465072 215.119833)scale(0.1 -0.1)">
      <defs>
       <path id="DejaVuSans-59" d="M -13 4666 
L 666 4666 
L 1959 2747 
L 3244 4666 
L 3922 4666 
L 2272 2222 
L 2272 0 
L 1638 0 
L 1638 2222 
L -13 4666 
z
" transform="scale(0.015625)"/>
       <path id="DejaVuSans-65" d="M 3597 1894 
L 3597 1613 
L 953 1613 
Q 991 1019 1311 708 
Q 1631 397 2203 397 
Q 2534 397 2845 478 
Q 3156 559 3463 722 
L 3463 178 
Q 3153 47 2828 -22 
Q 2503 -91 2169 -91 
Q 1331 -91 842 396 
Q 353 884 353 1716 
Q 353 2575 817 3079 
Q 1281 3584 2069 3584 
Q 2775 3584 3186 3129 
Q 3597 2675 3597 1894 
z
M 3022 2063 
Q 3016 2534 2758 2815 
Q 2500 3097 2075 3097 
Q 1594 3097 1305 2825 
Q 1016 2553 972 2059 
L 3022 2063 
z
" transform="scale(0.015625)"/>
       <path id="DejaVuSans-61" d="M 2194 1759 
Q 1497 1759 1228 1600 
Q 959 1441 959 1056 
Q 959 750 1161 570 
Q 1363 391 1709 391 
Q 2188 391 2477 730 
Q 2766 1069 2766 1631 
L 2766 1759 
L 2194 1759 
z
M 3341 1997 
L 3341 0 
L 2766 0 
L 2766 531 
Q 2569 213 2275 61 
Q 1981 -91 1556 -91 
Q 1019 -91 701 211 
Q 384 513 384 1019 
Q 384 1609 779 1909 
Q 1175 2209 1959 2209 
L 2766 2209 
L 2766 2266 
Q 2766 2663 2505 2880 
Q 2244 3097 1772 3097 
Q 1472 3097 1187 3025 
Q 903 2953 641 2809 
L 641 3341 
Q 956 3463 1253 3523 
Q 1550 3584 1831 3584 
Q 2591 3584 2966 3190 
Q 3341 2797 3341 1997 
z
" transform="scale(0.015625)"/>
       <path id="DejaVuSans-72" d="M 2631 2963 
Q 2534 3019 2420 3045 
Q 2306 3072 2169 3072 
Q 1681 3072 1420 2755 
Q 1159 2438 1159 1844 
L 1159 0 
L 581 0 
L 581 3500 
L 1159 3500 
L 1159 2956 
Q 1341 3275 1631 3429 
Q 1922 3584 2338 3584 
Q 2397 3584 2469 3576 
Q 2541 3569 2628 3553 
L 2631 2963 
z
" transform="scale(0.015625)"/>
      </defs>
      <use xlink:href="#DejaVuSans-59"/>
      <use xlink:href="#DejaVuSans-65" x="47.833984"/>
      <use xlink:href="#DejaVuSans-61" x="109.357422"/>
      <use xlink:href="#DejaVuSans-72" x="170.636719"/>
     </g>
    </g>
   </g>
   <g id="matplotlib.axis_2">
    <g id="ytick_1">
     <g id="line2d_9">
      <defs>
       <path id="mba822da768" d="M 0 0 
L -3.5 0 
" style="stroke: #000000; stroke-width: 0.8"/>
      </defs>
      <g>
       <use xlink:href="#mba822da768" x="72.905625" y="186.84327" style="stroke: #000000; stroke-width: 0.8"/>
      </g>
     </g>
     <g id="text_10">
      <!-- −3000 -->
      <g transform="translate(32.075938 190.642489)scale(0.1 -0.1)">
       <defs>
        <path id="DejaVuSans-2212" d="M 678 2272 
L 4684 2272 
L 4684 1741 
L 678 1741 
L 678 2272 
z
" transform="scale(0.015625)"/>
        <path id="DejaVuSans-33" d="M 2597 2516 
Q 3050 2419 3304 2112 
Q 3559 1806 3559 1356 
Q 3559 666 3084 287 
Q 2609 -91 1734 -91 
Q 1441 -91 1130 -33 
Q 819 25 488 141 
L 488 750 
Q 750 597 1062 519 
Q 1375 441 1716 441 
Q 2309 441 2620 675 
Q 2931 909 2931 1356 
Q 2931 1769 2642 2001 
Q 2353 2234 1838 2234 
L 1294 2234 
L 1294 2753 
L 1863 2753 
Q 2328 2753 2575 2939 
Q 2822 3125 2822 3475 
Q 2822 3834 2567 4026 
Q 2313 4219 1838 4219 
Q 1578 4219 1281 4162 
Q 984 4106 628 3988 
L 628 4550 
Q 988 4650 1302 4700 
Q 1616 4750 1894 4750 
Q 2613 4750 3031 4423 
Q 3450 4097 3450 3541 
Q 3450 3153 3228 2886 
Q 3006 2619 2597 2516 
z
" transform="scale(0.015625)"/>
       </defs>
       <use xlink:href="#DejaVuSans-2212"/>
       <use xlink:href="#DejaVuSans-33" x="83.789062"/>
       <use xlink:href="#DejaVuSans-30" x="147.412109"/>
       <use xlink:href="#DejaVuSans-30" x="211.035156"/>
       <use xlink:href="#DejaVuSans-30" x="274.658203"/>
      </g>
     </g>
    </g>
    <g id="ytick_2">
     <g id="line2d_10">
      <g>
       <use xlink:href="#mba822da768" x="72.905625" y="164.906584" style="stroke: #000000; stroke-width: 0.8"/>
      </g>
     </g>
     <g id="text_11">
      <!-- −2500 -->
      <g transform="translate(32.075938 168.705803)scale(0.1 -0.1)">
       <use xlink:href="#DejaVuSans-2212"/>
       <use xlink:href="#DejaVuSans-32" x="83.789062"/>
       <use xlink:href="#DejaVuSans-35" x="147.412109"/>
       <use xlink:href="#DejaVuSans-30" x="211.035156"/>
       <use xlink:href="#DejaVuSans-30" x="274.658203"/>
      </g>
     </g>
    </g>
    <g id="ytick_3">
     <g id="line2d_11">
      <g>
       <use xlink:href="#mba822da768" x="72.905625" y="142.969898" style="stroke: #000000; stroke-width: 0.8"/>
      </g>
     </g>
     <g id="text_12">
      <!-- −2000 -->
      <g transform="translate(32.075938 146.769117)scale(0.1 -0.1)">
       <use xlink:href="#DejaVuSans-2212"/>
       <use xlink:href="#DejaVuSans-32" x="83.789062"/>
       <use xlink:href="#DejaVuSans-30" x="147.412109"/>
       <use xlink:href="#DejaVuSans-30" x="211.035156"/>
       <use xlink:href="#DejaVuSans-30" x="274.658203"/>
      </g>
     </g>
    </g>
    <g id="ytick_4">
     <g id="line2d_12">
      <g>
       <use xlink:href="#mba822da768" x="72.905625" y="121.033212" style="stroke: #000000; stroke-width: 0.8"/>
      </g>
     </g>
     <g id="text_13">
      <!-- −1500 -->
      <g transform="translate(32.075938 124.832431)scale(0.1 -0.1)">
       <use xlink:href="#DejaVuSans-2212"/>
       <use xlink:href="#DejaVuSans-31" x="83.789062"/>
       <use xlink:href="#DejaVuSans-35" x="147.412109"/>
       <use xlink:href="#DejaVuSans-30" x="211.035156"/>
       <use xlink:href="#DejaVuSans-30" x="274.658203"/>
      </g>
     </g>
    </g>
    <g id="ytick_5">
     <g id="line2d_13">
      <g>
       <use xlink:href="#mba822da768" x="72.905625" y="99.096526" style="stroke: #000000; stroke-width: 0.8"/>
      </g>
     </g>
     <g id="text_14">
      <!-- −1000 -->
      <g transform="translate(32.075938 102.895745)scale(0.1 -0.1)">
       <use xlink:href="#DejaVuSans-2212"/>
       <use xlink:href="#DejaVuSans-31" x="83.789062"/>
       <use xlink:href="#DejaVuSans-30" x="147.412109"/>
       <use xlink:href="#DejaVuSans-30" x="211.035156"/>
       <use xlink:href="#DejaVuSans-30" x="274.658203"/>
      </g>
     </g>
    </g>
    <g id="ytick_6">
     <g id="line2d_14">
      <g>
       <use xlink:href="#mba822da768" x="72.905625" y="77.15984" style="stroke: #000000; stroke-width: 0.8"/>
      </g>
     </g>
     <g id="text_15">
      <!-- −500 -->
      <g transform="translate(38.438437 80.959059)scale(0.1 -0.1)">
       <use xlink:href="#DejaVuSans-2212"/>
       <use xlink:href="#DejaVuSans-35" x="83.789062"/>
       <use xlink:href="#DejaVuSans-30" x="147.412109"/>
       <use xlink:href="#DejaVuSans-30" x="211.035156"/>
      </g>
     </g>
    </g>
    <g id="ytick_7">
     <g id="line2d_15">
      <g>
       <use xlink:href="#mba822da768" x="72.905625" y="55.223154" style="stroke: #000000; stroke-width: 0.8"/>
      </g>
     </g>
     <g id="text_16">
      <!-- 0 -->
      <g transform="translate(59.543125 59.022373)scale(0.1 -0.1)">
       <use xlink:href="#DejaVuSans-30"/>
      </g>
     </g>
    </g>
    <g id="ytick_8">
     <g id="line2d_16">
      <g>
       <use xlink:href="#mba822da768" x="72.905625" y="33.286468" style="stroke: #000000; stroke-width: 0.8"/>
      </g>
     </g>
     <g id="text_17">
      <!-- 500 -->
      <g transform="translate(46.818125 37.085687)scale(0.1 -0.1)">
       <use xlink:href="#DejaVuSans-35"/>
       <use xlink:href="#DejaVuSans-30" x="63.623047"/>
       <use xlink:href="#DejaVuSans-30" x="127.246094"/>
      </g>
     </g>
    </g>
    <g id="text_18">
     <!-- Cumulative SMB Anomaly [Gt]  -->
     <g transform="translate(14.798438 182.060385)rotate(-90)scale(0.1 -0.1)">
      <defs>
       <path id="DejaVuSans-43" d="M 4122 4306 
L 4122 3641 
Q 3803 3938 3442 4084 
Q 3081 4231 2675 4231 
Q 1875 4231 1450 3742 
Q 1025 3253 1025 2328 
Q 1025 1406 1450 917 
Q 1875 428 2675 428 
Q 3081 428 3442 575 
Q 3803 722 4122 1019 
L 4122 359 
Q 3791 134 3420 21 
Q 3050 -91 2638 -91 
Q 1578 -91 968 557 
Q 359 1206 359 2328 
Q 359 3453 968 4101 
Q 1578 4750 2638 4750 
Q 3056 4750 3426 4639 
Q 3797 4528 4122 4306 
z
" transform="scale(0.015625)"/>
       <path id="DejaVuSans-75" d="M 544 1381 
L 544 3500 
L 1119 3500 
L 1119 1403 
Q 1119 906 1312 657 
Q 1506 409 1894 409 
Q 2359 409 2629 706 
Q 2900 1003 2900 1516 
L 2900 3500 
L 3475 3500 
L 3475 0 
L 2900 0 
L 2900 538 
Q 2691 219 2414 64 
Q 2138 -91 1772 -91 
Q 1169 -91 856 284 
Q 544 659 544 1381 
z
M 1991 3584 
L 1991 3584 
z
" transform="scale(0.015625)"/>
       <path id="DejaVuSans-6d" d="M 3328 2828 
Q 3544 3216 3844 3400 
Q 4144 3584 4550 3584 
Q 5097 3584 5394 3201 
Q 5691 2819 5691 2113 
L 5691 0 
L 5113 0 
L 5113 2094 
Q 5113 2597 4934 2840 
Q 4756 3084 4391 3084 
Q 3944 3084 3684 2787 
Q 3425 2491 3425 1978 
L 3425 0 
L 2847 0 
L 2847 2094 
Q 2847 2600 2669 2842 
Q 2491 3084 2119 3084 
Q 1678 3084 1418 2786 
Q 1159 2488 1159 1978 
L 1159 0 
L 581 0 
L 581 3500 
L 1159 3500 
L 1159 2956 
Q 1356 3278 1631 3431 
Q 1906 3584 2284 3584 
Q 2666 3584 2933 3390 
Q 3200 3197 3328 2828 
z
" transform="scale(0.015625)"/>
       <path id="DejaVuSans-6c" d="M 603 4863 
L 1178 4863 
L 1178 0 
L 603 0 
L 603 4863 
z
" transform="scale(0.015625)"/>
       <path id="DejaVuSans-74" d="M 1172 4494 
L 1172 3500 
L 2356 3500 
L 2356 3053 
L 1172 3053 
L 1172 1153 
Q 1172 725 1289 603 
Q 1406 481 1766 481 
L 2356 481 
L 2356 0 
L 1766 0 
Q 1100 0 847 248 
Q 594 497 594 1153 
L 594 3053 
L 172 3053 
L 172 3500 
L 594 3500 
L 594 4494 
L 1172 4494 
z
" transform="scale(0.015625)"/>
       <path id="DejaVuSans-69" d="M 603 3500 
L 1178 3500 
L 1178 0 
L 603 0 
L 603 3500 
z
M 603 4863 
L 1178 4863 
L 1178 4134 
L 603 4134 
L 603 4863 
z
" transform="scale(0.015625)"/>
       <path id="DejaVuSans-76" d="M 191 3500 
L 800 3500 
L 1894 563 
L 2988 3500 
L 3597 3500 
L 2284 0 
L 1503 0 
L 191 3500 
z
" transform="scale(0.015625)"/>
       <path id="DejaVuSans-20" transform="scale(0.015625)"/>
       <path id="DejaVuSans-53" d="M 3425 4513 
L 3425 3897 
Q 3066 4069 2747 4153 
Q 2428 4238 2131 4238 
Q 1616 4238 1336 4038 
Q 1056 3838 1056 3469 
Q 1056 3159 1242 3001 
Q 1428 2844 1947 2747 
L 2328 2669 
Q 3034 2534 3370 2195 
Q 3706 1856 3706 1288 
Q 3706 609 3251 259 
Q 2797 -91 1919 -91 
Q 1588 -91 1214 -16 
Q 841 59 441 206 
L 441 856 
Q 825 641 1194 531 
Q 1563 422 1919 422 
Q 2459 422 2753 634 
Q 3047 847 3047 1241 
Q 3047 1584 2836 1778 
Q 2625 1972 2144 2069 
L 1759 2144 
Q 1053 2284 737 2584 
Q 422 2884 422 3419 
Q 422 4038 858 4394 
Q 1294 4750 2059 4750 
Q 2388 4750 2728 4690 
Q 3069 4631 3425 4513 
z
" transform="scale(0.015625)"/>
       <path id="DejaVuSans-4d" d="M 628 4666 
L 1569 4666 
L 2759 1491 
L 3956 4666 
L 4897 4666 
L 4897 0 
L 4281 0 
L 4281 4097 
L 3078 897 
L 2444 897 
L 1241 4097 
L 1241 0 
L 628 0 
L 628 4666 
z
" transform="scale(0.015625)"/>
       <path id="DejaVuSans-42" d="M 1259 2228 
L 1259 519 
L 2272 519 
Q 2781 519 3026 730 
Q 3272 941 3272 1375 
Q 3272 1813 3026 2020 
Q 2781 2228 2272 2228 
L 1259 2228 
z
M 1259 4147 
L 1259 2741 
L 2194 2741 
Q 2656 2741 2882 2914 
Q 3109 3088 3109 3444 
Q 3109 3797 2882 3972 
Q 2656 4147 2194 4147 
L 1259 4147 
z
M 628 4666 
L 2241 4666 
Q 2963 4666 3353 4366 
Q 3744 4066 3744 3513 
Q 3744 3084 3544 2831 
Q 3344 2578 2956 2516 
Q 3422 2416 3680 2098 
Q 3938 1781 3938 1306 
Q 3938 681 3513 340 
Q 3088 0 2303 0 
L 628 0 
L 628 4666 
z
" transform="scale(0.015625)"/>
       <path id="DejaVuSans-41" d="M 2188 4044 
L 1331 1722 
L 3047 1722 
L 2188 4044 
z
M 1831 4666 
L 2547 4666 
L 4325 0 
L 3669 0 
L 3244 1197 
L 1141 1197 
L 716 0 
L 50 0 
L 1831 4666 
z
" transform="scale(0.015625)"/>
       <path id="DejaVuSans-6e" d="M 3513 2113 
L 3513 0 
L 2938 0 
L 2938 2094 
Q 2938 2591 2744 2837 
Q 2550 3084 2163 3084 
Q 1697 3084 1428 2787 
Q 1159 2491 1159 1978 
L 1159 0 
L 581 0 
L 581 3500 
L 1159 3500 
L 1159 2956 
Q 1366 3272 1645 3428 
Q 1925 3584 2291 3584 
Q 2894 3584 3203 3211 
Q 3513 2838 3513 2113 
z
" transform="scale(0.015625)"/>
       <path id="DejaVuSans-6f" d="M 1959 3097 
Q 1497 3097 1228 2736 
Q 959 2375 959 1747 
Q 959 1119 1226 758 
Q 1494 397 1959 397 
Q 2419 397 2687 759 
Q 2956 1122 2956 1747 
Q 2956 2369 2687 2733 
Q 2419 3097 1959 3097 
z
M 1959 3584 
Q 2709 3584 3137 3096 
Q 3566 2609 3566 1747 
Q 3566 888 3137 398 
Q 2709 -91 1959 -91 
Q 1206 -91 779 398 
Q 353 888 353 1747 
Q 353 2609 779 3096 
Q 1206 3584 1959 3584 
z
" transform="scale(0.015625)"/>
       <path id="DejaVuSans-79" d="M 2059 -325 
Q 1816 -950 1584 -1140 
Q 1353 -1331 966 -1331 
L 506 -1331 
L 506 -850 
L 844 -850 
Q 1081 -850 1212 -737 
Q 1344 -625 1503 -206 
L 1606 56 
L 191 3500 
L 800 3500 
L 1894 763 
L 2988 3500 
L 3597 3500 
L 2059 -325 
z
" transform="scale(0.015625)"/>
       <path id="DejaVuSans-5b" d="M 550 4863 
L 1875 4863 
L 1875 4416 
L 1125 4416 
L 1125 -397 
L 1875 -397 
L 1875 -844 
L 550 -844 
L 550 4863 
z
" transform="scale(0.015625)"/>
       <path id="DejaVuSans-47" d="M 3809 666 
L 3809 1919 
L 2778 1919 
L 2778 2438 
L 4434 2438 
L 4434 434 
Q 4069 175 3628 42 
Q 3188 -91 2688 -91 
Q 1594 -91 976 548 
Q 359 1188 359 2328 
Q 359 3472 976 4111 
Q 1594 4750 2688 4750 
Q 3144 4750 3555 4637 
Q 3966 4525 4313 4306 
L 4313 3634 
Q 3963 3931 3569 4081 
Q 3175 4231 2741 4231 
Q 1884 4231 1454 3753 
Q 1025 3275 1025 2328 
Q 1025 1384 1454 906 
Q 1884 428 2741 428 
Q 3075 428 3337 486 
Q 3600 544 3809 666 
z
" transform="scale(0.015625)"/>
       <path id="DejaVuSans-5d" d="M 1947 4863 
L 1947 -844 
L 622 -844 
L 622 -397 
L 1369 -397 
L 1369 4416 
L 622 4416 
L 622 4863 
L 1947 4863 
z
" transform="scale(0.015625)"/>
      </defs>
      <use xlink:href="#DejaVuSans-43"/>
      <use xlink:href="#DejaVuSans-75" x="69.824219"/>
      <use xlink:href="#DejaVuSans-6d" x="133.203125"/>
      <use xlink:href="#DejaVuSans-75" x="230.615234"/>
      <use xlink:href="#DejaVuSans-6c" x="293.994141"/>
      <use xlink:href="#DejaVuSans-61" x="321.777344"/>
      <use xlink:href="#DejaVuSans-74" x="383.056641"/>
      <use xlink:href="#DejaVuSans-69" x="422.265625"/>
      <use xlink:href="#DejaVuSans-76" x="450.048828"/>
      <use xlink:href="#DejaVuSans-65" x="509.228516"/>
      <use xlink:href="#DejaVuSans-20" x="570.751953"/>
      <use xlink:href="#DejaVuSans-53" x="602.539062"/>
      <use xlink:href="#DejaVuSans-4d" x="666.015625"/>
      <use xlink:href="#DejaVuSans-42" x="752.294922"/>
      <use xlink:href="#DejaVuSans-20" x="820.898438"/>
      <use xlink:href="#DejaVuSans-41" x="852.685547"/>
      <use xlink:href="#DejaVuSans-6e" x="921.09375"/>
      <use xlink:href="#DejaVuSans-6f" x="984.472656"/>
      <use xlink:href="#DejaVuSans-6d" x="1045.654297"/>
      <use xlink:href="#DejaVuSans-61" x="1143.066406"/>
      <use xlink:href="#DejaVuSans-6c" x="1204.345703"/>
      <use xlink:href="#DejaVuSans-79" x="1232.128906"/>
      <use xlink:href="#DejaVuSans-20" x="1291.308594"/>
      <use xlink:href="#DejaVuSans-5b" x="1323.095703"/>
      <use xlink:href="#DejaVuSans-47" x="1362.109375"/>
      <use xlink:href="#DejaVuSans-74" x="1439.599609"/>
      <use xlink:href="#DejaVuSans-5d" x="1478.808594"/>
      <use xlink:href="#DejaVuSans-20" x="1517.822266"/>
     </g>
     <!-- (w.r.t 1960-1990) -->
     <g transform="translate(25.99625 147.695541)rotate(-90)scale(0.1 -0.1)">
      <defs>
       <path id="DejaVuSans-28" d="M 1984 4856 
Q 1566 4138 1362 3434 
Q 1159 2731 1159 2009 
Q 1159 1288 1364 580 
Q 1569 -128 1984 -844 
L 1484 -844 
Q 1016 -109 783 600 
Q 550 1309 550 2009 
Q 550 2706 781 3412 
Q 1013 4119 1484 4856 
L 1984 4856 
z
" transform="scale(0.015625)"/>
       <path id="DejaVuSans-77" d="M 269 3500 
L 844 3500 
L 1563 769 
L 2278 3500 
L 2956 3500 
L 3675 769 
L 4391 3500 
L 4966 3500 
L 4050 0 
L 3372 0 
L 2619 2869 
L 1863 0 
L 1184 0 
L 269 3500 
z
" transform="scale(0.015625)"/>
       <path id="DejaVuSans-2e" d="M 684 794 
L 1344 794 
L 1344 0 
L 684 0 
L 684 794 
z
" transform="scale(0.015625)"/>
       <path id="DejaVuSans-2d" d="M 313 2009 
L 1997 2009 
L 1997 1497 
L 313 1497 
L 313 2009 
z
" transform="scale(0.015625)"/>
       <path id="DejaVuSans-29" d="M 513 4856 
L 1013 4856 
Q 1481 4119 1714 3412 
Q 1947 2706 1947 2009 
Q 1947 1309 1714 600 
Q 1481 -109 1013 -844 
L 513 -844 
Q 928 -128 1133 580 
Q 1338 1288 1338 2009 
Q 1338 2731 1133 3434 
Q 928 4138 513 4856 
z
" transform="scale(0.015625)"/>
      </defs>
      <use xlink:href="#DejaVuSans-28"/>
      <use xlink:href="#DejaVuSans-77" x="39.013672"/>
      <use xlink:href="#DejaVuSans-2e" x="111.675781"/>
      <use xlink:href="#DejaVuSans-72" x="143.462891"/>
      <use xlink:href="#DejaVuSans-2e" x="175.451172"/>
      <use xlink:href="#DejaVuSans-74" x="207.238281"/>
      <use xlink:href="#DejaVuSans-20" x="246.447266"/>
      <use xlink:href="#DejaVuSans-31" x="278.234375"/>
      <use xlink:href="#DejaVuSans-39" x="341.857422"/>
      <use xlink:href="#DejaVuSans-36" x="405.480469"/>
      <use xlink:href="#DejaVuSans-30" x="469.103516"/>
      <use xlink:href="#DejaVuSans-2d" x="532.726562"/>
      <use xlink:href="#DejaVuSans-31" x="568.810547"/>
      <use xlink:href="#DejaVuSans-39" x="632.433594"/>
      <use xlink:href="#DejaVuSans-39" x="696.056641"/>
      <use xlink:href="#DejaVuSans-30" x="759.679688"/>
      <use xlink:href="#DejaVuSans-29" x="823.302734"/>
     </g>
    </g>
   </g>
   <g id="line2d_17">
    <path d="M 92.555347 53.306555 
L 93.010729 53.13422 
L 93.466111 52.807433 
L 93.921493 52.900348 
L 94.376874 52.331015 
L 94.832256 56.238526 
L 95.287638 63.690556 
L 95.74302 66.801168 
L 96.198401 66.861223 
L 96.653783 66.097839 
L 97.109165 64.580537 
L 97.564547 63.633944 
L 98.019928 63.513809 
L 98.47531 62.888376 
L 99.386074 62.437544 
L 99.841455 61.352393 
L 100.296837 65.380966 
L 100.752219 71.131952 
L 101.207601 74.037022 
L 101.662982 74.272628 
L 102.573746 72.590344 
L 103.029128 72.706423 
L 104.395273 70.765037 
L 104.850655 70.734195 
L 105.306036 70.442575 
L 105.761418 72.911044 
L 106.672182 81.139265 
L 107.127563 79.58947 
L 107.582945 77.008802 
L 108.038327 75.691944 
L 108.493709 75.001054 
L 109.404472 73.062291 
L 109.859854 72.32622 
L 110.315236 72.373238 
L 110.770617 72.166455 
L 111.225999 73.180664 
L 111.681381 78.178853 
L 112.136763 80.588982 
L 112.592144 79.149281 
L 113.047526 78.502994 
L 113.95829 76.140734 
L 114.869053 72.250996 
L 115.324435 71.917611 
L 115.779817 70.787317 
L 116.235198 70.679362 
L 116.69058 71.897933 
L 117.145962 75.476326 
L 117.601344 77.437177 
L 118.056725 77.717525 
L 118.512107 76.234257 
L 118.967489 74.113866 
L 119.422871 73.465272 
L 120.333634 73.172012 
L 120.789016 71.903184 
L 121.699779 70.257128 
L 122.155161 72.330078 
L 123.065925 74.977282 
L 123.976688 71.536685 
L 124.43207 70.330615 
L 124.887452 70.530394 
L 125.342833 69.635045 
L 126.253597 66.46025 
L 126.708979 66.324227 
L 127.16436 66.041673 
L 127.619742 68.360895 
L 128.075124 73.605698 
L 128.530506 76.125544 
L 128.985887 75.118664 
L 130.807414 66.604983 
L 131.262796 67.439903 
L 131.718178 67.921215 
L 132.17356 67.183324 
L 132.628941 66.758911 
L 133.084323 70.611199 
L 133.539705 78.329405 
L 133.995087 81.887016 
L 134.450468 81.512091 
L 135.361232 77.698958 
L 135.816614 77.054407 
L 136.271995 76.662626 
L 136.727377 76.081532 
L 137.638141 74.119647 
L 138.093522 74.421424 
L 138.548904 77.155376 
L 139.004286 83.366795 
L 139.459668 85.451901 
L 139.915049 82.940858 
L 140.825813 79.831108 
L 141.281195 78.819564 
L 141.736576 78.65036 
L 142.64734 76.553318 
L 143.558103 77.215442 
L 144.013485 80.438843 
L 144.468867 85.682872 
L 144.924249 86.778507 
L 145.835012 81.635672 
L 146.290394 80.838533 
L 147.656539 77.671441 
L 148.111921 75.685692 
L 149.022684 75.146078 
L 149.478066 78.290634 
L 149.933448 85.00671 
L 150.38883 88.69313 
L 150.844211 87.562075 
L 151.299593 85.932817 
L 151.754975 84.84551 
L 152.210357 84.145389 
L 152.665738 82.751817 
L 153.576502 81.95992 
L 154.031884 81.925128 
L 154.487265 81.162613 
L 154.942647 83.141222 
L 155.398029 86.768217 
L 155.853411 88.247676 
L 156.308792 87.280736 
L 156.764174 85.680764 
L 157.219556 84.811372 
L 157.674938 84.4038 
L 158.585701 83.029822 
L 159.041083 83.179604 
L 159.496465 82.385107 
L 159.951846 82.653726 
L 160.407228 84.994367 
L 160.86261 90.457255 
L 161.317992 91.799188 
L 162.228755 90.045355 
L 163.5949 86.140777 
L 164.505664 84.702284 
L 165.416427 84.25819 
L 165.871809 85.512999 
L 166.327191 89.355729 
L 166.782573 91.468241 
L 167.237954 90.098142 
L 168.148718 88.478536 
L 168.6041 87.045897 
L 169.970245 80.749105 
L 170.425627 80.465015 
L 170.881008 80.404543 
L 171.33639 81.239406 
L 171.791772 81.790563 
L 172.247154 83.179122 
L 172.702535 82.805873 
L 173.157917 81.08963 
L 173.613299 80.510727 
L 174.068681 79.732776 
L 174.524062 78.133738 
L 174.979444 75.608417 
L 175.434826 75.521114 
L 175.890208 75.224209 
L 176.345589 75.997894 
L 176.800971 77.499595 
L 177.256353 81.468105 
L 177.711735 83.920062 
L 178.167116 83.306812 
L 178.622498 81.989953 
L 179.07788 81.412393 
L 179.988643 81.815811 
L 180.444025 82.350917 
L 181.354789 82.623764 
L 181.81017 83.807089 
L 182.265552 86.718298 
L 182.720934 91.581737 
L 183.176316 94.813754 
L 184.542461 90.771914 
L 184.997843 90.268033 
L 185.453224 88.737651 
L 185.908606 87.617478 
L 186.363988 87.938603 
L 186.81937 87.354839 
L 187.274751 87.775427 
L 187.730133 89.365329 
L 188.185515 93.5681 
L 188.640897 94.345946 
L 189.096278 91.48744 
L 189.55166 90.98146 
L 190.007042 89.830046 
L 190.462424 89.658008 
L 190.917805 89.718783 
L 192.283951 87.274329 
L 192.739332 87.950396 
L 193.194714 91.183976 
L 193.650096 96.545531 
L 194.105478 98.092804 
L 194.560859 97.002722 
L 195.016241 96.311726 
L 195.471623 95.055746 
L 195.927005 94.508065 
L 196.382386 94.413241 
L 196.837768 93.570845 
L 198.203913 92.737137 
L 198.659295 94.401538 
L 199.114677 98.008003 
L 199.570059 100.093006 
L 200.480822 98.839804 
L 200.936204 96.591656 
L 201.391586 95.046543 
L 201.846967 94.093338 
L 202.302349 93.63492 
L 203.668494 92.835338 
L 204.123876 93.91125 
L 204.579258 97.6318 
L 205.03464 98.119552 
L 205.945403 95.051821 
L 206.400785 94.190064 
L 206.856167 92.706637 
L 207.76693 92.598164 
L 208.222312 93.021263 
L 208.677694 93.042091 
L 209.133075 92.926412 
L 209.588457 96.026542 
L 210.043839 101.33705 
L 210.499221 102.222081 
L 210.954602 101.16768 
L 211.409984 100.829301 
L 212.320748 98.039186 
L 212.776129 94.780789 
L 213.686893 92.699499 
L 214.142275 92.171431 
L 214.597656 91.157126 
L 215.053038 91.309667 
L 215.50842 92.158161 
L 215.963802 91.864409 
L 216.874565 88.49452 
L 217.329947 88.085849 
L 217.785329 87.228112 
L 218.24071 85.632207 
L 218.696092 85.796398 
L 219.151474 85.342831 
L 219.606856 84.202842 
L 220.062237 84.039692 
L 220.517619 85.282241 
L 220.973001 87.921732 
L 221.428383 88.689655 
L 221.883764 87.141182 
L 222.339146 86.637073 
L 222.794528 86.644607 
L 224.160673 85.069331 
L 224.616055 83.654069 
L 225.071437 82.910643 
L 225.526818 83.236739 
L 225.9822 84.354826 
L 226.437582 88.841696 
L 226.892964 91.147092 
L 227.348345 90.242234 
L 227.803727 87.877652 
L 228.259109 86.567747 
L 228.714491 86.999702 
L 229.169872 87.159537 
L 230.080636 84.388226 
L 230.536018 83.492525 
L 230.991399 83.435073 
L 231.446781 84.908333 
L 231.902163 87.726189 
L 232.357545 88.890852 
L 233.268308 87.140964 
L 234.179072 84.893018 
L 234.634453 84.333363 
L 235.089835 82.948659 
L 235.545217 80.796513 
L 236.000599 80.21163 
L 236.45598 80.418055 
L 236.911362 81.970704 
L 237.366744 84.764588 
L 237.822126 83.902352 
L 238.732889 79.657351 
L 239.643653 77.542145 
L 240.099034 77.460812 
L 240.554416 77.198134 
L 241.009798 77.089935 
L 241.46518 76.659808 
L 241.920561 75.912773 
L 242.375943 77.176824 
L 242.831325 81.707941 
L 243.286707 83.579522 
L 243.742088 82.209549 
L 244.19747 81.664392 
L 245.108234 78.208294 
L 245.563615 77.385191 
L 246.018997 77.670987 
L 246.474379 77.40995 
L 246.929761 76.392885 
L 247.385142 75.676599 
L 247.840524 76.235902 
L 248.295906 81.015653 
L 248.751288 82.749605 
L 249.206669 81.84523 
L 249.662051 79.830055 
L 250.117433 79.25346 
L 251.028196 76.955958 
L 251.483578 76.177831 
L 251.93896 75.148762 
L 252.394342 75.086181 
L 252.849723 75.236175 
L 253.305105 76.015767 
L 253.760487 79.905756 
L 254.215869 81.557541 
L 254.67125 81.20801 
L 255.126632 80.165317 
L 255.582014 79.544781 
L 257.403541 74.523908 
L 257.858923 73.859997 
L 258.314304 73.981998 
L 258.769686 76.473437 
L 259.225068 80.315194 
L 259.68045 81.68328 
L 260.135831 81.32732 
L 260.591213 80.735904 
L 261.046595 79.541155 
L 261.957358 78.99509 
L 262.41274 78.997856 
L 262.868122 78.744333 
L 263.323504 77.592367 
L 263.778885 77.94179 
L 264.689649 85.123629 
L 265.145031 85.938816 
L 265.600412 85.26259 
L 266.055794 84.308442 
L 266.511176 83.694411 
L 266.966558 83.361874 
L 267.421939 82.786495 
L 268.332703 80.837486 
L 268.788085 80.494365 
L 269.243466 81.716074 
L 270.15423 88.017156 
L 270.609612 88.809863 
L 271.975757 86.816982 
L 272.88652 84.98337 
L 273.341902 83.500301 
L 273.797284 82.821956 
L 274.252666 81.928569 
L 274.708047 82.054294 
L 275.618811 84.475722 
L 276.074193 83.893129 
L 276.529574 83.035213 
L 277.440338 80.492504 
L 277.89572 80.260719 
L 278.351101 79.647353 
L 279.261865 77.778641 
L 279.717247 76.754319 
L 280.172628 76.221191 
L 280.62801 78.645605 
L 281.083392 82.472497 
L 281.538774 81.691763 
L 281.994155 80.466692 
L 282.449537 79.678551 
L 282.904919 78.470408 
L 283.360301 76.478482 
L 283.815682 75.183734 
L 284.726446 73.917497 
L 285.181828 73.565109 
L 285.637209 73.86138 
L 286.092591 76.82591 
L 286.547973 80.778177 
L 287.003355 82.401468 
L 287.458736 82.425541 
L 288.3695 79.62238 
L 288.824882 79.159047 
L 289.735645 76.491083 
L 290.646409 74.423565 
L 291.10179 74.714074 
L 291.557172 76.436665 
L 292.012554 78.774666 
L 292.467936 78.762532 
L 292.923317 77.488776 
L 293.834081 76.529799 
L 294.744844 71.802022 
L 295.200226 71.01086 
L 296.11099 68.239588 
L 296.566371 68.008851 
L 297.021753 71.221091 
L 297.477135 75.566762 
L 297.932517 78.130246 
L 298.387898 77.326872 
L 299.754044 74.054202 
L 300.209425 73.522961 
L 300.664807 72.7139 
L 301.575571 72.108145 
L 302.030952 71.408041 
L 302.486334 73.109182 
L 302.941716 77.933297 
L 303.397098 79.614087 
L 303.852479 78.911305 
L 304.763243 76.407152 
L 305.218625 75.850433 
L 305.674006 75.96907 
L 306.129388 76.236123 
L 307.040152 76.483444 
L 307.495533 76.8792 
L 307.950915 79.589625 
L 308.406297 83.649501 
L 308.861679 84.720781 
L 309.772442 82.388011 
L 310.227824 80.766614 
L 310.683206 79.722069 
L 311.138587 79.603977 
L 311.593969 79.814241 
L 312.049351 79.784328 
L 312.504733 79.184199 
L 312.960114 79.340272 
L 313.870878 87.196899 
L 314.32626 88.247211 
L 315.237023 85.242892 
L 316.147787 81.417108 
L 317.05855 78.855577 
L 318.424695 78.275487 
L 319.335459 86.503727 
L 319.790841 87.19077 
L 320.246222 86.047298 
L 320.701604 84.398678 
L 321.156986 83.417578 
L 322.067749 79.954024 
L 322.523131 79.318252 
L 323.433895 78.739374 
L 323.889276 78.146744 
L 324.344658 78.748129 
L 324.80004 81.059115 
L 325.255422 81.503897 
L 325.710803 80.057024 
L 326.166185 78.163726 
L 326.621567 77.400878 
L 327.076949 76.944428 
L 327.53233 76.325399 
L 327.987712 74.881085 
L 328.443094 74.066432 
L 328.898476 73.646888 
L 329.353857 74.434489 
L 329.809239 78.053198 
L 330.264621 82.586675 
L 330.720003 83.245636 
L 331.175384 82.062363 
L 332.086148 78.090153 
L 332.54153 77.735935 
L 332.996911 77.123908 
L 333.452293 76.201984 
L 333.907675 75.985278 
L 334.363057 75.363106 
L 334.818438 75.437164 
L 335.27382 77.634336 
L 335.729202 81.46937 
L 336.184584 82.135341 
L 336.639965 81.389731 
L 337.095347 81.053285 
L 337.550729 80.436448 
L 338.006111 80.221281 
L 338.916874 80.832532 
L 339.372256 80.800051 
L 339.827638 81.026071 
L 340.283019 81.851056 
L 340.738401 85.174165 
L 341.193783 89.865286 
L 341.649165 90.888534 
L 342.559928 88.920475 
L 343.470692 84.92 
L 344.836837 78.882233 
L 345.292219 78.441929 
L 345.7476 78.938392 
L 346.658364 83.632495 
L 347.113746 83.358686 
L 347.569127 81.815944 
L 348.024509 80.860054 
L 349.390654 76.232526 
L 349.846036 76.146719 
L 350.301418 75.786596 
L 350.7568 74.935087 
L 351.212181 75.912998 
L 352.122945 81.313442 
L 352.578327 81.218423 
L 353.48909 77.807192 
L 354.855235 74.231134 
L 355.310617 73.665962 
L 356.221381 71.841107 
L 356.676762 72.231908 
L 357.587526 81.924538 
L 358.042908 83.538573 
L 358.498289 83.929345 
L 358.953671 83.068621 
L 359.409053 81.931075 
L 359.864435 81.361703 
L 360.775198 79.671257 
L 361.23058 79.440087 
L 362.141343 77.769901 
L 362.596725 79.92451 
L 363.052107 84.579256 
L 363.507489 85.467572 
L 363.96287 84.258254 
L 364.873634 81.174948 
L 365.329016 80.23111 
L 365.784397 78.985017 
L 366.239779 78.706934 
L 366.695161 77.971555 
L 367.150543 76.876689 
L 367.605924 77.360474 
L 368.516688 83.26419 
L 368.97207 84.076319 
L 369.427451 82.699441 
L 370.793597 80.602824 
L 371.248978 79.314666 
L 371.70436 78.810604 
L 372.159742 78.808322 
L 372.615124 78.310384 
L 373.070505 78.029024 
L 373.525887 80.407782 
L 373.981269 84.509956 
L 374.436651 86.527428 
L 375.347414 83.722031 
L 376.258178 78.873192 
L 376.713559 78.205879 
L 377.168941 78.386575 
L 378.079705 78.360946 
L 378.535086 79.437405 
L 379.44585 87.624492 
L 379.901232 88.102007 
L 380.811995 84.84155 
L 381.722759 80.917727 
L 383.544286 75.232412 
L 383.999667 76.427751 
L 384.910431 87.144004 
L 385.365813 88.585506 
L 386.276576 85.308395 
L 386.731958 84.378996 
L 387.642721 83.518998 
L 388.553485 80.132279 
L 389.008867 79.653149 
L 389.464248 80.597953 
L 390.375012 87.730198 
L 390.830394 89.329845 
L 391.285775 88.314605 
L 391.741157 87.018521 
L 392.651921 85.597992 
L 394.018066 80.186094 
L 394.473448 79.397124 
L 394.928829 80.230744 
L 395.384211 84.459874 
L 395.839593 90.183539 
L 396.294975 92.54278 
L 396.750356 92.431878 
L 397.205738 91.495557 
L 398.116502 88.316833 
L 398.571883 87.334549 
L 399.482647 87.237324 
L 399.938029 86.546055 
L 400.39341 86.696206 
L 400.848792 88.887479 
L 401.304174 93.641843 
L 401.759556 96.060821 
L 402.670319 96.023063 
L 403.125701 95.488528 
L 403.581083 94.02565 
L 404.036464 92.970977 
L 404.491846 92.469286 
L 404.947228 91.673315 
L 405.40261 91.108526 
L 405.857991 92.068054 
L 406.313373 96.876713 
L 406.768755 104.022698 
L 407.224137 106.508489 
L 408.1349 104.005788 
L 408.590282 102.327143 
L 409.501045 100.681211 
L 409.956427 99.903906 
L 410.867191 99.189728 
L 411.322572 100.262927 
L 412.233336 111.419994 
L 412.688718 112.840122 
L 414.510245 105.422512 
L 414.965626 104.951593 
L 415.421008 104.894932 
L 415.87639 104.579326 
L 416.331772 103.877429 
L 416.787153 104.141875 
L 417.242535 107.567632 
L 417.697917 113.848063 
L 418.153299 116.131289 
L 418.60868 114.921135 
L 419.519444 113.563543 
L 420.430207 110.046412 
L 420.885589 109.729797 
L 421.796353 110.070907 
L 422.251734 111.763552 
L 422.707116 117.745214 
L 423.162498 125.20776 
L 423.61788 127.984941 
L 424.984025 125.489015 
L 425.439407 124.028715 
L 426.35017 121.992019 
L 426.805552 121.470573 
L 427.260934 120.712655 
L 427.716315 122.1312 
L 428.171697 127.850716 
L 428.627079 135.204592 
L 429.082461 137.822176 
L 429.993224 136.126413 
L 430.448606 135.058417 
L 430.903988 134.578365 
L 431.814751 132.127611 
L 432.270133 130.657136 
L 432.725515 129.971391 
L 433.180896 131.965741 
L 434.09166 149.852125 
L 434.547042 153.5366 
L 435.002423 152.226862 
L 435.457805 150.319002 
L 436.368569 148.209211 
L 436.82395 146.524148 
L 437.279332 145.809088 
L 437.734714 145.689796 
L 438.190096 145.265508 
L 438.645477 145.335878 
L 439.556241 153.268308 
L 440.011623 153.431044 
L 440.467004 151.322963 
L 441.377768 149.179874 
L 441.83315 148.493208 
L 442.288531 147.505966 
L 442.743913 147.028989 
L 443.654677 145.336804 
L 444.110058 146.086425 
L 444.56544 150.465438 
L 445.020822 156.539103 
L 445.476204 158.16938 
L 445.931585 156.667655 
L 446.386967 155.560597 
L 446.842349 153.619161 
L 447.297731 152.334213 
L 447.753112 151.493261 
L 449.119258 149.564529 
L 449.574639 149.981065 
L 450.030021 155.193971 
L 450.485403 162.335089 
L 450.940785 163.190706 
L 451.851548 158.939169 
L 453.217693 156.399703 
L 453.673075 155.939369 
L 454.583839 153.83031 
L 455.03922 154.731216 
L 455.494602 160.738618 
L 455.949984 168.931906 
L 456.405366 171.531533 
L 456.860747 170.147547 
L 457.316129 166.976305 
L 457.771511 165.050308 
L 459.137656 161.34093 
L 459.593038 161.020923 
L 460.04842 160.207759 
L 460.503801 160.583971 
L 461.414565 168.074202 
L 461.869947 168.380715 
L 462.78071 164.43373 
L 463.236092 163.701588 
L 463.691474 163.282401 
L 464.146855 162.052347 
L 464.602237 160.483521 
L 465.057619 160.159608 
L 465.513001 159.496211 
L 465.968382 159.207731 
L 466.423764 161.272507 
L 466.879146 164.857273 
L 467.334528 166.644803 
L 469.156055 163.258258 
L 469.611436 162.408906 
L 470.066818 162.187235 
L 470.5222 161.05562 
L 470.977582 159.586865 
L 471.432963 161.55221 
L 471.888345 167.68035 
L 472.343727 176.286323 
L 472.799109 179.986608 
L 473.25449 179.192704 
L 474.165254 176.660642 
L 474.620636 176.282988 
L 475.076017 175.726428 
L 475.531399 175.47652 
L 476.442163 173.917842 
L 476.897544 174.502636 
L 477.352926 177.689106 
L 477.808308 183.226261 
L 478.26369 184.509279 
L 478.719071 183.581378 
L 479.174453 181.860128 
L 479.629835 180.666429 
L 481.906744 176.196621 
L 482.362125 176.826076 
L 482.817507 180.174537 
L 483.272889 185.020638 
L 483.728271 187.894355 
L 484.183652 187.186385 
L 484.639034 186.206588 
L 485.094416 184.802387 
L 485.549797 183.865846 
L 485.549797 183.865846 
" clip-path="url(#pd0e383cb54)" style="fill: none; stroke: #fb9a99; stroke-width: 1.5; stroke-linecap: square"/>
   </g>
   <g id="patch_3">
    <path d="M 72.905625 186.84327 
L 72.905625 22.318125 
" style="fill: none; stroke: #000000; stroke-width: 0.8; stroke-linejoin: miter; stroke-linecap: square"/>
   </g>
   <g id="patch_4">
    <path d="M 505.19952 186.84327 
L 505.19952 22.318125 
" style="fill: none; stroke: #000000; stroke-width: 0.8; stroke-linejoin: miter; stroke-linecap: square"/>
   </g>
   <g id="patch_5">
    <path d="M 72.905625 186.84327 
L 505.19952 186.84327 
" style="fill: none; stroke: #000000; stroke-width: 0.8; stroke-linejoin: miter; stroke-linecap: square"/>
   </g>
   <g id="patch_6">
    <path d="M 72.905625 22.318125 
L 505.19952 22.318125 
" style="fill: none; stroke: #000000; stroke-width: 0.8; stroke-linejoin: miter; stroke-linecap: square"/>
   </g>
   <g id="text_19">
    <!-- Greenland -->
    <g transform="translate(257.930385 16.318125)scale(0.12 -0.12)">
     <defs>
      <path id="DejaVuSans-64" d="M 2906 2969 
L 2906 4863 
L 3481 4863 
L 3481 0 
L 2906 0 
L 2906 525 
Q 2725 213 2448 61 
Q 2172 -91 1784 -91 
Q 1150 -91 751 415 
Q 353 922 353 1747 
Q 353 2572 751 3078 
Q 1150 3584 1784 3584 
Q 2172 3584 2448 3432 
Q 2725 3281 2906 2969 
z
M 947 1747 
Q 947 1113 1208 752 
Q 1469 391 1925 391 
Q 2381 391 2643 752 
Q 2906 1113 2906 1747 
Q 2906 2381 2643 2742 
Q 2381 3103 1925 3103 
Q 1469 3103 1208 2742 
Q 947 2381 947 1747 
z
" transform="scale(0.015625)"/>
     </defs>
     <use xlink:href="#DejaVuSans-47"/>
     <use xlink:href="#DejaVuSans-72" x="77.490234"/>
     <use xlink:href="#DejaVuSans-65" x="116.353516"/>
     <use xlink:href="#DejaVuSans-65" x="177.876953"/>
     <use xlink:href="#DejaVuSans-6e" x="239.400391"/>
     <use xlink:href="#DejaVuSans-6c" x="302.779297"/>
     <use xlink:href="#DejaVuSans-61" x="330.5625"/>
     <use xlink:href="#DejaVuSans-6e" x="391.841797"/>
     <use xlink:href="#DejaVuSans-64" x="455.220703"/>
    </g>
   </g>
  </g>
 </g>
 <defs>
  <clipPath id="pd0e383cb54">
   <rect x="72.905625" y="22.318125" width="432.293895" height="164.525145"/>
  </clipPath>
 </defs>
</svg>
